<svg width="60" height="82" viewBox="0 0 60 82" fill="none" xmlns="http://www.w3.org/2000/svg">
<path d="M30.1115 21.8C27.4875 21.8 25.1641 22.5107 23.1415 23.932C21.1735 25.3533 19.0688 27.5127 16.8275 30.41L9.69347 24.834C11.0601 22.9207 12.4541 21.226 13.8755 19.75C15.2968 18.2193 16.8275 16.962 18.4675 15.978C20.1621 14.9393 21.9935 14.1467 23.9615 13.6C25.9841 13.0533 28.2801 12.78 30.8495 12.78C33.6921 12.78 36.2888 13.19 38.6395 14.01C40.9901 14.83 42.9855 16.0053 44.6255 17.536C46.2655 19.0667 47.5228 20.898 48.3975 23.03C49.3268 25.1073 49.7915 27.4307 49.7915 30C49.7915 32.296 49.4908 34.346 48.8895 36.15C48.2881 37.954 47.3588 39.7033 46.1015 41.398C44.8988 43.0927 43.3408 44.8147 41.4275 46.564C39.5688 48.3133 37.3821 50.2267 34.8675 52.304L23.0595 62.144H50.3655V71H8.87347V63.046L28.6355 46.236C30.6035 44.596 32.2708 43.12 33.6375 41.808C35.0041 40.4413 36.0975 39.1567 36.9175 37.954C37.7921 36.7513 38.4208 35.576 38.8035 34.428C39.1861 33.28 39.3775 32.05 39.3775 30.738C39.3775 27.8953 38.4755 25.7087 36.6715 24.178C34.9221 22.5927 32.7355 21.8 30.1115 21.8Z" fill="#FB7A00"/>
</svg>
