<svg width="43" height="60" viewBox="0 0 43 60" fill="none" xmlns="http://www.w3.org/2000/svg">
<path d="M4.24218 29.0863L5.88218 0.960348H40.1582V9.89835H14.5742L13.6722 23.3464C15.0388 22.8544 16.4055 22.4717 17.7722 22.1984C19.1935 21.8703 20.8608 21.7063 22.7742 21.7063C25.5622 21.7063 28.1588 22.089 30.5642 22.8543C33.0242 23.565 35.1562 24.6857 36.9602 26.2163C38.7642 27.6924 40.1582 29.5784 41.1422 31.8744C42.1808 34.1157 42.7002 36.767 42.7002 39.8284C42.7002 42.7804 42.1808 45.459 41.1422 47.8644C40.1582 50.2697 38.7368 52.3197 36.8782 54.0144C35.0195 55.709 32.7782 57.021 30.1542 57.9504C27.5302 58.8797 24.6328 59.3444 21.4622 59.3444C17.0342 59.3444 13.0982 58.5517 9.65418 56.9664C6.21018 55.3264 3.12151 53.1944 0.38818 50.5704L6.62018 43.2724C8.91618 45.4044 11.2668 47.099 13.6722 48.3564C16.1322 49.559 18.7015 50.1604 21.3802 50.1604C24.8242 50.1604 27.5848 49.2584 29.6622 47.4544C31.7395 45.6504 32.7782 43.2177 32.7782 40.1564C32.7782 37.2043 31.6848 34.881 29.4982 33.1864C27.3662 31.437 24.4962 30.5624 20.8882 30.5624C18.8108 30.5624 16.8975 30.8084 15.1482 31.3004C13.3988 31.7924 11.7862 32.3937 10.3102 33.1043L4.24218 29.0863Z" fill="#FB7A00"/>
</svg>
