<svg width="91" height="90" viewBox="0 0 91 90" fill="none" xmlns="http://www.w3.org/2000/svg">
<g clip-path="url(#clip0_1365_17541)">
<path d="M90.0914 45.1205C90.0914 69.9896 69.9295 90.1515 45.0605 90.1515C20.1914 90.1515 0.029541 69.9896 0.029541 45.1205C0.029541 20.2515 20.1914 0.0895996 45.0605 0.0895996C69.9295 0.0895996 90.0914 20.2515 90.0914 45.1205Z" fill="#87722D"/>
<path d="M45.0574 89.0877C20.8162 89.0877 1.09351 69.365 1.09351 45.1207C1.09351 20.8763 20.8162 1.15674 45.0574 1.15674C69.2987 1.15674 89.0213 20.8794 89.0213 45.1207C89.0213 69.3619 69.2987 89.0877 45.0574 89.0877Z" fill="#CB141F"/>
<path d="M76.4182 45.1204C76.4182 62.44 62.3801 76.4782 45.0605 76.4782C27.7409 76.4782 13.7028 62.44 13.7028 45.1204C13.7028 27.8008 27.7409 13.7627 45.0605 13.7627C62.3801 13.7627 76.4182 27.8039 76.4182 45.1204Z" fill="#87722D"/>
<path d="M45.0575 75.5413C28.2854 75.5413 14.64 61.8959 14.64 45.1207C14.64 28.3454 28.2854 14.7031 45.0575 14.7031C61.8297 14.7031 75.4751 28.3485 75.4751 45.1207C75.4751 61.8928 61.8297 75.5413 45.0575 75.5413Z" fill="white"/>
<path d="M21.305 74.601C21.305 74.601 13.8452 74.6598 9.43799 69.1175C9.43799 69.1175 13.9442 70.2742 20.7947 74.0722C20.7947 74.0722 16.9782 69.7268 18.3854 63.1484C18.3854 63.1484 20.3246 67.0825 21.305 74.601Z" fill="white"/>
<path d="M17.3493 70.8124C17.3493 70.8124 9.59568 69.6464 6.45032 63.7701C6.45032 63.7701 10.7091 65.6443 16.8761 70.2278C16.8761 70.2278 13.8513 64.4134 16.1678 59.1248C16.1678 59.1248 17.2565 63.3835 17.3462 70.8124H17.3493Z" fill="white"/>
<path d="M13.9136 66.439C13.9136 66.439 7.06929 64.8802 4.07239 57.9802C4.07239 57.9802 7.94765 60.5874 13.5023 65.8173C13.5023 65.8173 11.4177 59.0627 14.3219 54.5132C14.3219 54.5132 14.7332 61.4441 13.9136 66.439Z" fill="white"/>
<path d="M11.1513 61.8555C11.1513 61.8555 4.19256 58.3916 2.92761 51.7823C2.92761 51.7823 8.06781 57.0679 10.975 61.2091C10.975 61.2091 9.94514 54.4235 13.5297 50.3411C13.5297 50.3411 12.7936 58.6514 11.1513 61.8524V61.8555Z" fill="white"/>
<path d="M9.24936 56.7464C9.24936 56.7464 3.72256 53.8948 2.39575 45.7639C2.39575 45.7639 6.50915 51.4546 9.06379 56.1031C9.06379 56.1031 8.85657 49.8464 13.0875 45.7639C13.0875 45.7639 11.9092 51.5907 9.24936 56.7464Z" fill="white"/>
<path d="M7.8885 51.5784C7.8885 51.5784 2.32149 46.9052 2.66479 39.5969C2.66479 39.5969 4.93179 43.3825 7.8885 50.8423C7.8885 50.8423 8.53489 44.2949 13.2947 41.0351C13.2947 41.0351 11.7081 46.5557 7.8885 51.5784Z" fill="white"/>
<path d="M7.27304 46.1721C7.27304 46.1721 2.66479 41.0628 3.84005 33.6309C3.84005 33.6309 5.92768 38.1834 7.27304 45.3494C7.27304 45.3494 9.41634 38.7711 14.1483 36.5999C14.1483 36.5999 11.3555 42.1793 7.27304 46.1721Z" fill="white"/>
<path d="M7.53903 40.7105C7.53903 40.7105 3.7813 35.8331 5.77615 27.8445C5.77615 27.8445 7.12769 31.7816 7.53903 40.0331C7.53903 40.0331 10.27 33.7486 15.6452 32.1342C15.6452 32.1342 13.3225 35.895 7.53903 40.7105Z" fill="white"/>
<path d="M8.5967 35.3937C8.5967 35.3937 5.53175 29.9133 8.5967 22.4133C8.5967 22.4133 9.08226 27.7886 8.8967 34.5123C8.8967 34.5123 11.6647 29.4339 17.541 28.0824C17.541 28.0824 15.2338 31.3144 8.5967 35.3937Z" fill="white"/>
<path d="M12.03 17.5083C12.03 17.5083 8.00939 22.9732 10.4187 30.4299C10.4187 30.4299 18.695 26.2609 20.195 24.4114C20.195 24.4114 14.9991 24.3836 10.6228 29.6382C10.6228 29.6382 12.6795 18.9186 12.03 17.5083Z" fill="white"/>
<path d="M16.1713 13.0176C16.1713 13.0176 11.9868 17.6011 12.6796 25.3825C12.6796 25.3825 14.4672 25.7351 23.427 20.9784C23.427 20.9784 18.525 19.9794 13.0631 24.9743C13.0631 24.9743 16.2054 16.1011 16.1744 13.0207L16.1713 13.0176Z" fill="white"/>
<path d="M20.9028 9.14209C20.9028 9.14209 15.7317 13.2833 15.908 21.1545C15.908 21.1545 22.8977 19.8586 26.9801 18.071C26.9801 18.071 21.5183 16.6916 16.3781 20.5668C16.3781 20.5668 20.6956 11.873 20.9028 9.14519V9.14209Z" fill="white"/>
<path d="M26.2167 5.96899C26.2167 5.96899 20.3156 9.55044 19.6383 17.1865C19.6383 17.1865 27.361 16.8649 31.0909 15.6896C31.0909 15.6896 26.4208 13.3979 20.195 16.7164C20.195 16.7164 25.3661 8.69992 26.2136 5.96899H26.2167Z" fill="white"/>
<path d="M31.799 3.6464C31.799 3.6464 25.9598 5.95362 23.8103 13.9237C23.8103 13.9237 33.1227 14.2732 35.2629 13.7598C35.2629 13.7598 30.7381 10.9268 24.3979 13.4845C24.3979 13.4845 31.0938 5.64125 31.799 3.64331V3.6464Z" fill="white"/>
<path d="M38.5814 6.55664C38.5814 6.55664 30.0051 8.43705 27.6237 11.5762C27.6237 11.5762 35.7608 10.2278 38.5814 6.55664Z" fill="white"/>
<path d="M68.6984 74.601C68.6984 74.601 76.1582 74.6598 80.5654 69.1175C80.5654 69.1175 76.0623 70.2742 69.2087 74.0722C69.2087 74.0722 73.0252 69.7268 71.618 63.1484C71.618 63.1484 69.6788 67.0825 68.7015 74.601H68.6984Z" fill="white"/>
<path d="M72.6541 70.8124C72.6541 70.8124 80.4077 69.6464 83.5531 63.7701C83.5531 63.7701 79.2912 65.6443 73.1242 70.2278C73.1242 70.2278 76.1489 64.4134 73.8294 59.1248C73.8294 59.1248 72.7407 63.3835 72.651 70.8124H72.6541Z" fill="white"/>
<path d="M76.0902 66.4392C76.0902 66.4392 82.9315 64.8804 85.9253 57.9804C85.9253 57.9804 82.05 60.5877 76.5016 65.8175C76.5016 65.8175 78.5861 59.0629 75.6789 54.5134C75.6789 54.5134 75.2675 61.4444 76.0902 66.4392Z" fill="white"/>
<path d="M78.852 61.8555C78.852 61.8555 85.8107 58.3916 87.0757 51.7823C87.0757 51.7823 81.9355 57.0679 79.0283 61.2091C79.0283 61.2091 80.0551 54.4235 76.4736 50.3411C76.4736 50.3411 77.2066 58.6514 78.852 61.8524V61.8555Z" fill="white"/>
<path d="M80.7541 56.7464C80.7541 56.7464 86.2809 53.8948 87.6015 45.7639C87.6015 45.7639 83.4912 51.4546 80.9366 56.1031C80.9366 56.1031 81.1376 49.8464 76.9098 45.7639C76.9098 45.7639 78.0881 51.5907 80.7541 56.7464Z" fill="white"/>
<path d="M82.1118 51.5784C82.1118 51.5784 87.6789 46.9052 87.3386 39.5969C87.3386 39.5969 85.0716 43.3825 82.1118 50.8423C82.1118 50.8423 81.4654 44.2949 76.7087 41.0351C76.7087 41.0351 78.2953 46.5557 82.1118 51.5784Z" fill="white"/>
<path d="M82.7304 46.1721C82.7304 46.1721 87.3386 41.0628 86.1633 33.6309C86.1633 33.6309 84.0788 38.1834 82.7304 45.3494C82.7304 45.3494 80.584 38.7711 75.8551 36.5999C75.8551 36.5999 78.6448 42.1793 82.7304 46.1721Z" fill="white"/>
<path d="M82.4645 40.7105C82.4645 40.7105 86.2222 35.8331 84.2273 27.8445C84.2273 27.8445 82.8758 31.7816 82.4645 40.0331C82.4645 40.0331 79.7335 33.7486 74.3583 32.1342C74.3583 32.1342 76.6779 35.895 82.4645 40.7105Z" fill="white"/>
<path d="M81.4066 35.3937C81.4066 35.3937 84.4716 29.9133 81.4066 22.4133C81.4066 22.4133 80.921 27.7886 81.1035 34.5123C81.1035 34.5123 78.3386 29.4339 72.4623 28.0824C72.4623 28.0824 74.7664 31.3144 81.4066 35.3937Z" fill="white"/>
<path d="M77.9705 17.5083C77.9705 17.5083 81.9911 22.9732 79.5819 30.4299C79.5819 30.4299 71.3025 26.2609 69.8025 24.4114C69.8025 24.4114 75.0015 24.3836 79.3777 29.6382C79.3777 29.6382 77.321 18.9186 77.9674 17.5083H77.9705Z" fill="white"/>
<path d="M73.8293 13.0176C73.8293 13.0176 78.0139 17.6011 77.3211 25.3825C77.3211 25.3825 75.5303 25.7351 66.5706 20.9784C66.5706 20.9784 71.4788 19.9794 76.9407 24.9743C76.9407 24.9743 73.7984 16.1011 73.8293 13.0207V13.0176Z" fill="white"/>
<path d="M69.1002 9.14209C69.1002 9.14209 74.2713 13.2833 74.0919 21.1545C74.0919 21.1545 67.1053 19.8586 63.0198 18.071C63.0198 18.071 68.4816 16.6916 73.6218 20.5668C73.6218 20.5668 69.3043 11.873 69.0971 9.14519L69.1002 9.14209Z" fill="white"/>
<path d="M63.784 5.96899C63.784 5.96899 69.6881 9.55044 70.3624 17.1865C70.3624 17.1865 62.6366 16.8649 58.9098 15.6896C58.9098 15.6896 63.5799 13.3979 69.8026 16.7164C69.8026 16.7164 64.6345 8.69992 63.784 5.96899Z" fill="white"/>
<path d="M58.2075 3.6464C58.2075 3.6464 64.0436 5.95362 66.1931 13.9237C66.1931 13.9237 56.8838 14.2732 54.7405 13.7598C54.7405 13.7598 59.2652 10.9268 65.6054 13.4845C65.6054 13.4845 58.9096 5.64125 58.2075 3.64331V3.6464Z" fill="white"/>
<path d="M51.4221 6.55664C51.4221 6.55664 59.9984 8.43705 62.3737 11.5762C62.3737 11.5762 54.2427 10.2278 51.4221 6.55664Z" fill="white"/>
<path d="M39.6295 24.8134C39.6295 24.8134 37.8851 26.7093 37.3377 27.0835C36.7903 27.4578 35.6583 27.164 34.913 26.3598C34.1707 25.5557 31.8573 22.8743 30.7408 22.8155C29.6274 22.7567 29.0088 23.032 27.1872 25.5279C25.3655 28.0268 24.28 30.6093 24.0449 33.1052C23.8099 35.6011 24.1346 39.597 24.5181 44.3258C24.8985 49.0547 26.4851 62.8856 26.4851 62.8856C26.4851 62.8856 27.1903 68.0258 27.6016 68.2887C28.013 68.5547 28.3624 66.1763 29.3057 64.9732C30.2429 63.7701 30.1563 61.7104 30.3635 60.7732C30.5676 59.833 30.5088 54.3712 30.5088 54.3712C30.5088 54.3712 31.0686 53.3722 31.5666 51.5815C32.0676 49.7877 32.6243 49.1413 33.1841 48.5846C33.7408 48.0279 35.5903 45.999 35.915 44.5299C35.915 44.5299 36.2367 44.5021 36.4717 44.765C36.7068 45.031 36.7377 45.4114 36.7655 46.1753C36.7934 46.9392 36.7655 48.965 36.7655 48.965H37.2047V52.4289H37.7923C37.7923 52.4289 37.4367 53.1619 36.9697 53.1619C36.5027 53.1619 36.2923 53.3722 36.3573 52.0485C36.413 50.7279 37.1181 51.5475 36.8831 50.5516C36.648 49.5526 31.5387 52.6052 31.8016 55.1908L32.3893 55.398C32.3893 55.398 32.949 56.3073 33.5088 56.3073C34.0686 56.3073 34.4769 56.0722 34.8264 55.7784C35.1789 55.4877 35.7109 55.9856 34.9748 56.7495C34.2418 57.5134 34.3872 57.6897 34.3872 57.6897C34.3872 57.6897 29.7759 63.5939 29.3645 66.2939C29.3645 66.2939 29.482 66.5258 30.5119 66.4423C30.5119 66.4423 30.014 68.4217 30.4253 68.3103C30.8367 68.2021 32.2439 67.6145 32.4233 67.8805C32.5996 68.1433 30.28 69.5227 30.28 69.5227C30.28 69.5227 30.6295 70.1691 34.0655 70.5495C37.5047 70.933 39.9697 70.2557 39.9697 70.2557C39.9697 70.2557 40.2604 71.5763 40.7305 71.8145C41.2006 72.0495 42.5212 70.6114 42.5212 70.6114C42.5212 70.6114 42.8738 71.8454 43.2264 72.1392C43.5789 72.433 44.9305 70.4908 44.9305 70.4908C44.9305 70.4908 46.2789 72.3124 46.7181 72.3433C47.1604 72.3743 47.7759 70.1382 47.7759 70.1382C47.7759 70.1382 48.7161 71.7248 49.3903 71.8701C50.0676 72.0186 50.3893 70.8712 50.6243 70.4598C50.8563 70.0485 56.5594 71.1928 59.4356 69.6093L57.7315 68.2268C57.7315 68.2268 57.7315 67.8743 58.2604 68.0506C58.7893 68.2268 59.4356 68.4341 59.8779 68.3444C60.3202 68.2578 59.4944 66.9341 59.5563 66.5815C59.615 66.2289 60.9356 66.4361 60.9356 66.4361C60.9356 66.4361 59.4078 62.2052 56.4418 58.565C53.4758 54.9217 54.4717 55.865 55.0624 56.1C55.6501 56.332 56.3831 56.332 56.7078 56.1C57.0326 55.865 57.3542 55.4227 57.5614 55.364C57.7655 55.3021 58.1769 55.1877 58.1181 54.7485C58.0563 54.3062 56.5037 51.9 54.3295 50.7248C52.1552 49.5495 53.3583 51.3712 53.5377 51.7825C53.714 52.1939 53.5655 53.131 53.3027 53.2485C53.0367 53.3691 51.747 52.8681 51.8923 52.4567C51.8923 52.4567 52.5109 52.633 52.5944 52.4567C52.6841 52.2804 52.6841 49.2557 52.6841 49.2557H53.1542V46.6454C53.1542 46.6454 52.947 45.365 53.0057 45.1238C53.0645 44.8825 53.3305 44.9722 53.5037 44.6475C53.68 44.3258 53.8872 44.032 54.0635 44.2949C54.2398 44.5578 54.7965 46.0268 55.7367 47.0537C56.6769 48.0805 57.7037 49.2866 58.0872 50.3444C58.4676 51.399 58.7027 51.433 58.9996 52.664C59.2934 53.8949 59.5284 53.6598 59.5872 54.8382C59.646 56.0134 59.847 60.8011 59.847 60.8011C59.847 60.8011 60.082 63.2691 60.9356 64.9732C61.7892 66.6743 61.9934 67.9083 62.4944 68.233C62.9923 68.5547 63.0511 66.2969 63.3449 64.4722C63.6418 62.6536 64.3748 57.1887 64.6377 54.9588C64.9006 52.7258 66.0171 39.9062 66.0171 39.9062C66.0171 39.9062 66.6047 34.1351 65.7511 31.3145C64.8975 28.4969 62.4758 23.533 60.4717 23.032C58.4707 22.5341 57.3542 24.031 55.2697 26.0567C53.1851 28.0825 52.081 26.6444 51.4284 24.999C50.7759 23.3537 49.5418 19.8897 48.4841 18.2722C47.4264 16.6578 46.282 16.1289 43.7243 16.1289C41.1666 16.1289 40.6996 16.9794 40.1119 17.3629C39.5243 17.7433 37.6439 18.2134 37.9068 20.3567C37.9068 20.3567 39.6109 20.0939 40.1954 20.4743C40.7862 20.8578 42.5181 21.8846 41.5779 22.8805C40.6408 23.8794 39.6295 24.8104 39.6295 24.8104V24.8134Z" fill="#87722D"/>
<path d="M34.3813 35.3936C34.3813 35.3936 34.0875 33.6926 33.3514 32.1339C32.6184 30.5782 32.3524 29.638 32.3524 29.638L32.0895 30.2256C32.0895 30.2256 31.3256 28.6978 31.0906 27.8473C30.8555 26.9967 30.6514 26.4679 30.5029 27.173C30.3576 27.8782 29.8844 26.4679 30.3854 25.2029C30.8833 23.9411 31.7369 24.971 32.9122 26.2607C34.0844 27.5534 35.0277 28.6421 37.2576 28.2586C37.2576 28.2586 35.8163 28.0545 34.672 26.9936C33.5277 25.9359 31.6751 23.4122 30.9143 23.3534C30.1504 23.2947 29.6246 23.3256 27.5648 26.1462C25.5112 28.9637 24.8926 31.9885 24.6854 33.7792C24.4813 35.5699 24.5369 37.5988 24.6854 37.6576C24.8339 37.7163 25.1246 37.5679 25.1555 38.1864C25.1864 38.805 25.3906 41.5637 26.1266 42.0617C26.1266 42.0617 26.3339 41.7369 26.5967 40.1813C26.5967 40.1813 27.2122 41.8854 27.7998 42.0617C27.7998 42.0617 27.9174 41.0936 27.8308 39.7421C27.8308 39.7421 28.5638 41.1802 29.1235 41.4462C29.1235 41.4462 29.3555 39.1266 29.4143 37.6266C29.4143 37.6266 29.4019 39.5534 30.2555 40.0081C30.2555 40.0081 30.7349 39.538 30.3823 36.3679C30.3823 36.3679 31.2916 38.2452 30.7349 40.9174C30.7349 40.9174 29.9926 40.2833 29.7359 40.3019C29.4854 40.3204 29.6215 41.7308 29.4235 42.0617C29.2287 42.3957 28.4462 41.5947 28.3287 41.3782C28.2112 41.1617 28.2112 42.9864 28.0534 43.1998C27.8988 43.4132 27.0761 41.9473 26.9586 41.8266C26.8411 41.7122 26.2751 43.4534 26.2751 43.4534C26.2751 43.4534 25.0998 42.2813 24.8462 38.6163C24.8462 38.6163 24.4534 38.304 25.3658 47.4369C26.2751 56.573 27.1287 63.7699 27.1287 63.7699C27.1287 63.7699 27.4782 63.8534 27.4534 60.2132C27.4534 60.2132 27.8029 60.3586 27.7163 58.7473C27.6266 57.1328 26.7761 47.3225 26.7761 47.3225C26.7761 47.3225 27.5122 50.904 27.9792 54.5163C28.4493 58.1287 28.3009 60.0369 27.9483 60.3308C27.5988 60.6246 28.273 63.5009 27.3019 64.707C27.3019 64.707 27.54 66.3215 27.7473 66.6462C27.9483 66.971 28.1277 66.2318 28.3349 64.5926C28.5421 62.9473 28.4524 61.3916 28.4524 61.3916C28.4524 61.3916 28.9225 61.3607 29.04 59.8019C29.1576 58.2462 28.1895 48.0833 28.0132 46.704C28.0132 46.704 29.306 52.1349 29.3926 55.5431C29.4823 58.9483 29.8906 60.7112 28.9844 61.5338C28.9844 61.5338 28.7772 63.7359 29.0431 64.3545C29.0431 64.3545 29.7174 63.2967 29.8936 61.0359C30.0699 58.7782 29.7174 48.204 29.2782 45.9988C29.2782 45.9988 30.3854 50.2885 30.4534 53.4586C30.4534 53.4586 31.6132 49.2679 30.6019 45.0339C30.6019 45.0339 31.5112 47.8792 31.6287 50.0225C31.6287 50.0225 32.8256 49.2926 31.7184 43.1225C31.7184 43.1225 32.7452 44.6503 32.7452 48.4668C32.7452 48.4668 34.4184 48.1421 33.0112 41.5081C33.0112 41.5081 34.0967 43.1225 34.2452 46.7658C34.2452 46.7658 35.6833 45.0617 33.8926 39.4205C33.8926 39.4205 35.0679 40.7132 35.4761 44.239C35.4761 44.239 36.3607 41.771 34.5668 37.1906C34.5668 37.1906 35.9555 38.6565 36.3607 42.3308C36.3607 42.3308 37.3844 39.6586 34.7431 34.6668L34.3906 35.3998L34.3813 35.3936ZM25.2328 37.0792C24.6792 36.9957 25.0411 34.5741 25.0411 34.5741C25.0411 34.5741 25.1339 36.5906 25.7679 36.5473C25.7679 36.5473 25.7833 37.1627 25.2328 37.0761V37.0792ZM26.2256 36.2411C25.505 36.0617 25.8452 33.1328 25.8452 33.1328C25.8452 33.1328 25.8668 35.9534 26.9277 35.5947C26.9277 35.5947 26.9493 36.4204 26.2256 36.2411ZM27.4163 35.3967C26.7576 35.5112 26.6741 31.1194 26.6741 31.1194C26.6741 31.1194 27.1813 35.8947 27.8833 34.1318C27.8833 34.1318 28.072 35.2854 27.4163 35.3967ZM28.2205 33.9833C27.4596 33.6648 27.2864 29.3163 27.2864 29.3163C27.2864 29.3163 28.1555 35.1308 28.7091 32.6689C28.7091 32.6689 28.9844 34.3019 28.2205 33.9833ZM29.838 32.5421C29.4297 33.6029 28.1555 31.3545 28.007 28.2772C28.007 28.2772 29.6431 34.8122 29.6648 30.739C29.6648 30.739 30.2462 31.4844 29.838 32.5452V32.5421ZM30.2772 30.8658C29.2194 29.4029 28.706 27.0029 28.706 27.0029C31.0225 33.1359 30.7442 28.5741 30.7442 28.5741C30.8895 29.6967 31.3349 32.3287 30.2772 30.8658ZM31.8916 38.9287C31.3349 38.7184 31.1462 37.9545 31.1462 37.9545C32.5256 39.2473 31.1462 34.4318 31.1462 34.4318C32.5256 36.1699 32.4421 39.1421 31.8916 38.9287ZM33.2246 36.1699C32.739 36.572 32.1019 35.1957 32.1019 35.1957C33.3112 36.405 32.2658 32.2483 32.2658 32.2483C32.2658 32.2483 33.7132 35.7679 33.2246 36.1699Z" fill="white"/>
<path d="M33.0297 27.8474C33.0297 27.8474 33.8524 28.6917 33.6452 31.1165C33.6452 31.1165 32.9215 30.4299 33.0297 27.8474Z" fill="white"/>
<path d="M34.208 29.4836C34.208 29.4836 35.1173 30.7857 34.8822 33.6342C34.8822 33.6342 34.0193 32.2455 34.208 29.4836Z" fill="white"/>
<path d="M35.4976 32.5486C35.4976 32.5486 37.6409 33.8104 37.0563 40.4475C37.0563 40.4475 36.4965 35.6909 35.4976 32.5486Z" fill="white"/>
<path d="M32.4823 54.0248C32.4823 54.0248 33.107 52.9269 34.205 52.1073C35.2998 51.2846 36.4565 50.4836 36.0266 51.597C36.0266 51.597 35.7483 52.4166 36.2184 53.2609C36.2184 53.2609 35.9679 53.5547 34.9287 53.6939C34.9287 53.6939 34.6163 53.1526 34.6596 52.4011C34.6596 52.4011 33.172 53.4186 32.4823 54.0279V54.0248Z" fill="white"/>
<path d="M34.5575 58.5093C34.5575 58.5093 30.5801 63.1299 30.3265 65.5763C30.3265 65.5763 32.3802 64.9701 35.1637 60.8196C35.1637 60.8196 34.2791 63.7175 31.1461 66.9093C31.1461 66.9093 32.1265 68.867 36.1564 62.2887C36.1564 62.2887 35.3554 65.267 33.2399 67.4196C33.2399 67.4196 34.3162 67.1258 35.4729 66.4608C36.6265 65.7928 36.707 64.2866 37.2544 63.9124C37.2544 63.9124 37.31 64.9299 36.5894 65.9289C36.5894 65.9289 37.1214 65.8918 38.5688 65.2052C40.0162 64.5216 40.4461 64.4227 40.5049 63.9309C40.5049 63.9309 39.9946 63.4237 39.7781 63.4237C39.5616 63.4237 39.7008 63.9711 39.0327 63.5629C38.3709 63.1515 36.9389 61.466 36.9389 61.466C36.9389 61.466 36.8832 61.2124 37.0997 60.9959C37.3101 60.7825 37.0781 60.6247 37.0193 60.3711C36.9606 60.1144 36.6265 59.567 36.608 59.001C36.608 59.001 36.3977 58.5897 35.9245 59.0196C35.4544 59.4526 35.0059 58.9763 34.5544 58.5124L34.5575 58.5093Z" fill="white"/>
<path d="M40.9007 64.2463C40.9007 64.2463 40.3162 65.0288 36.9636 66.3989C33.6141 67.769 31.7986 68.8267 31.3254 69.3556C31.3254 69.3556 32.4234 70.2556 37.4739 69.9247C42.5244 69.5907 44.3244 67.67 44.3244 67.67C44.3244 67.67 43.2883 66.7113 42.9914 66.3804C42.9914 66.3804 41.5038 68.4556 34.7492 69.1422C34.7492 69.1422 41.3089 67.636 42.5801 65.9907L40.8976 64.2494L40.9007 64.2463Z" fill="white"/>
<path d="M42.9388 69.3741C42.9388 69.3741 43.31 70.8431 43.6223 70.8431C43.9347 70.8431 45.0574 68.3782 45.0574 68.3782C45.0574 68.3782 44.5409 68.4957 42.9388 69.3771V69.3741Z" fill="white"/>
<path d="M45.4039 68.5515C45.4039 68.5515 45.3668 69.767 46.5019 70.8433C46.5019 70.8433 46.7957 70.5495 46.9287 69.7855C47.0679 69.0216 46.3256 69.2752 45.4039 68.5515Z" fill="white"/>
<path d="M40.3719 62.9629C40.3719 62.9629 42.3884 65.6753 46.0904 68.1619C49.7925 70.6454 58.0502 69.9619 58.5203 69.3742C58.5203 69.3742 54.6482 66.9464 52.1399 66.1237C49.6317 65.301 48.0667 63.4206 48.0667 63.4206L44.1884 59.2917L42.1533 61.2866C42.1533 61.2866 46.2636 65.2546 48.1069 66.7175C49.9471 68.1804 55.0162 69 55.0162 69C55.0162 69 49.9657 69.0588 46.576 66.2196C43.1894 63.3804 41.6214 61.7165 41.6214 61.7165L40.3688 62.9598L40.3719 62.9629Z" fill="white"/>
<path d="M39.1812 62.9629L38.2997 62.0537L42.5307 58.197C42.5307 58.197 42.707 57.6464 42.0977 57.9402L38.0059 61.698C38.0059 61.698 37.3595 61.7351 37.6317 61.1877C37.9039 60.6402 40.2173 58.6052 40.2173 58.6052C40.2173 58.6052 41.9399 57.1578 41.0214 57.2536C40.0997 57.3526 39.0791 57.2506 39.0791 57.2506V56.6877H41.3925C41.3925 56.6877 42.0946 56.4928 42.4688 56.6877L44.1698 58.5093L39.1781 62.9629H39.1812Z" fill="white"/>
<path d="M47.5564 62.2454L48.2059 61.6021L49.6533 63.0526L48.9481 63.6371L47.5564 62.2454Z" fill="white"/>
<path d="M45.2555 59.8825L45.806 59.3599L47.671 61.2836L47.1297 61.8155L45.2555 59.8825Z" fill="white"/>
<path d="M45.3759 58.8308H44.915V59.2916H45.3759V58.8308Z" fill="white"/>
<path d="M42.5893 54.3496C42.5893 54.3496 41.7976 55.2898 41.1945 56.1558L42.045 56.0383C42.045 56.0383 42.5027 55.0702 42.5893 54.3496Z" fill="white"/>
<path d="M43.4275 54.7484C43.4275 54.7484 43.0966 55.1412 42.8987 56.5979L43.4275 56.1557V54.7454V54.7484Z" fill="white"/>
<path d="M43.9843 56.3196L43.91 57.7453L44.3214 57.6711L43.9843 56.3196Z" fill="white"/>
<path d="M44.915 55.8804V58.2587L45.4408 57.8907V56.9505L44.915 55.8804Z" fill="white"/>
<path d="M45.9081 55.1321L45.9823 57.1733L46.539 56.8053V56.1496L45.9081 55.1321Z" fill="white"/>
<path d="M46.5388 54.4268L48.113 55.8804L47.4512 56.0845L46.5388 54.4268Z" fill="white"/>
<path d="M43.91 52.8557L44.5719 54.1918L44.7049 53.6475L43.91 52.8557Z" fill="white"/>
<path d="M44.915 54.1917L46.1583 52.9268L46.0253 53.7216L44.915 54.1917Z" fill="white"/>
<path d="M43.0132 48.7732V49.2557L44.2317 50.5361L44.5843 50.6969V50.1959L43.0132 48.7732Z" fill="white"/>
<path d="M45.4411 50.3722L45.3668 50.799H45.7782L47.3276 49.2278L47.3926 48.7732L46.9225 48.8722L45.4411 50.3722Z" fill="white"/>
<path d="M42.7811 50.3999L42.9574 51.0494L45.0574 52.8556L47.2564 51.1638L47.3275 50.7989L46.9224 50.8731L45.0883 52.2092L43.3688 50.6968L42.7811 50.3999Z" fill="white"/>
<path d="M45.6049 58.4319L50.6337 63.0464L51.5554 62.1L47.1729 58.0484L47.476 57.7453L51.911 61.701L52.31 61.1659L48.6079 57.3618L50.6616 57.1732V56.7433H50.0708L49.9409 56.8732H48.3265L48.0234 56.5237H47.5564L45.6049 58.4319Z" fill="white"/>
<path d="M55.3224 57.9124C55.3224 57.9124 59.4668 62.7185 59.909 65.5484C59.909 65.5484 59.6338 65.768 58.5884 65.0536C57.5461 64.3392 55.0317 60.7392 55.0317 60.7392C55.0317 60.7392 56.4111 64.6732 58.7864 66.4392L59.0523 67.4165C59.0523 67.4165 56.7637 67.4072 54.0327 62.1495C54.0327 62.1495 54.3266 64.3515 57.1472 67.5835C57.1472 67.5835 56.909 67.7474 55.8791 67.1196C54.8554 66.4979 54.9111 66.8783 54.4688 66.4392C54.0297 65.9969 53.4111 64.0361 52.8853 63.7701C52.8853 63.7701 53.7358 65.7928 53.708 66.0866C53.6802 66.3804 53.2812 65.9258 52.6503 65.7062C52.0193 65.4866 51.2554 65.1742 50.507 64.7814C49.7585 64.3825 49.4183 64.3763 49.5977 63.7701C49.7709 63.1639 50.009 63.2227 50.1111 63.4855C50.2132 63.7515 50.4915 64.1134 50.9925 63.6371C51.4936 63.1608 52.8018 61.602 52.8018 61.602V60.4608C52.8018 60.4608 53.1977 59.4185 53.2132 58.902C53.2132 58.902 53.5503 58.7196 53.8874 59.0598C54.2245 59.4031 55.1461 59.3381 55.3255 57.9124H55.3224Z" fill="white"/>
<path d="M62.2689 42.0618C62.8565 41.8855 63.472 40.1814 63.472 40.1814C63.7349 41.7371 63.9421 42.0618 63.9421 42.0618C64.6751 41.5639 64.8823 38.8051 64.9101 38.1866C64.9411 37.5711 65.2349 37.7165 65.3833 37.6577C65.5287 37.5989 65.5874 35.5732 65.3833 33.7793C65.1761 31.9886 64.5606 28.9639 62.5039 26.1464C60.4472 23.3257 59.9184 23.2979 59.1545 23.3536C58.3936 23.4123 56.5411 25.936 55.3967 26.9938C54.2524 28.0515 52.8112 28.2587 52.8112 28.2587C55.0441 28.6422 55.9813 27.5536 57.1565 26.2608C58.3318 24.9711 59.1823 23.9412 59.6833 25.2031C60.1844 26.4649 59.7142 27.8783 59.5658 27.1732C59.4173 26.468 59.2163 26.9969 58.9782 27.8474C58.7431 28.6979 57.9792 30.2257 57.9792 30.2257L57.7132 29.6381C57.7132 29.6381 57.4534 30.5783 56.7173 32.134C55.9844 33.6927 55.6905 35.3938 55.6905 35.3938L55.338 34.6608C52.6936 39.6525 53.7204 42.3247 53.7204 42.3247C54.1225 38.6505 55.5112 37.1845 55.5112 37.1845C53.7204 41.7649 54.6019 44.233 54.6019 44.233C55.0132 40.7103 56.1854 39.4144 56.1854 39.4144C54.3947 45.0556 55.8328 46.7598 55.8328 46.7598C55.9813 43.1165 57.0668 41.502 57.0668 41.502C55.6565 48.1391 57.3328 48.4608 57.3328 48.4608C57.3328 44.6443 58.3596 43.1165 58.3596 43.1165C57.2524 49.2897 58.4462 50.0165 58.4462 50.0165C58.5668 47.8732 59.473 45.0278 59.473 45.0278C58.4617 49.2618 59.6215 53.4525 59.6215 53.4525C59.6895 50.2824 60.7967 45.9927 60.7967 45.9927C60.3606 48.1979 60.005 58.769 60.1813 61.0299C60.3576 63.2907 61.0318 64.3484 61.0318 64.3484C61.2978 63.733 61.0936 61.5278 61.0936 61.5278C60.1844 60.7051 60.5926 58.9422 60.6823 55.5371C60.772 52.1288 62.0617 46.6979 62.0617 46.6979C61.8854 48.0773 60.9143 58.2402 61.0318 59.7958C61.1524 61.3546 61.6194 61.3855 61.6194 61.3855C61.6194 61.3855 61.5297 62.9412 61.7369 64.5866C61.9411 66.2288 62.1204 66.9649 62.3215 66.6402C62.5287 66.3154 62.7637 64.701 62.7637 64.701C61.7957 63.4979 62.473 60.6185 62.1173 60.3247C61.7648 60.0309 61.6163 58.1226 62.0864 54.5103C62.5565 50.8979 63.2895 47.3165 63.2895 47.3165C63.2895 47.3165 62.439 57.1268 62.3493 58.7412C62.2627 60.3556 62.6153 60.2072 62.6153 60.2072C62.5844 63.8474 62.9369 63.7639 62.9369 63.7639C62.9369 63.7639 63.7874 56.5639 64.6998 47.4309C65.6091 38.2979 65.2163 38.6103 65.2163 38.6103C64.9627 42.2752 63.7874 43.4474 63.7874 43.4474C63.7874 43.4474 63.2215 41.7061 63.1039 41.8206C62.9864 41.9381 62.1637 43.4072 62.0091 43.1938C61.8514 42.9804 61.8514 41.1556 61.7338 41.3721C61.6163 41.5886 60.8338 42.3897 60.6359 42.0556C60.4411 41.7216 60.5771 40.3144 60.3204 40.2958C60.0699 40.2773 59.3215 40.9113 59.3215 40.9113C58.7648 38.2391 59.674 36.3618 59.674 36.3618C59.3215 39.5319 59.8039 40.002 59.8039 40.002C60.6545 39.5474 60.6421 37.6206 60.6421 37.6206C60.6978 39.1206 60.9328 41.4402 60.9328 41.4402C61.4957 41.1742 62.2287 39.736 62.2287 39.736C62.139 41.0876 62.2565 42.0556 62.2565 42.0556L62.2689 42.0618ZM56.8441 36.167C56.3555 35.7649 57.806 32.2453 57.806 32.2453C57.806 32.2453 56.7575 36.402 57.9699 35.1927C57.9699 35.1927 57.3328 36.569 56.8472 36.167H56.8441ZM58.9225 37.9515C58.9225 37.9515 58.7338 38.7154 58.1802 38.9257C57.6266 39.136 57.5431 36.167 58.9225 34.4288C58.9225 34.4288 57.5431 39.2443 58.9225 37.9515ZM64.3039 36.5505C64.9349 36.5938 65.0307 34.5773 65.0307 34.5773C65.0307 34.5773 65.3926 36.9958 64.8421 37.0824C64.2916 37.1659 64.307 36.5536 64.307 36.5536L64.3039 36.5505ZM64.2235 33.133C64.2235 33.133 64.5637 36.0618 63.8431 36.2412C63.1225 36.4206 63.1441 35.5948 63.1441 35.5948C64.205 35.9536 64.2266 33.133 64.2266 33.133H64.2235ZM59.7916 30.8628C58.7307 32.3257 59.1761 29.6969 59.3246 28.5711C59.3246 28.5711 59.0462 33.133 61.3627 27C61.3627 27 60.8493 29.3969 59.7916 30.8628ZM60.2307 32.5391C59.8225 31.4783 60.407 30.733 60.407 30.733C60.4256 34.8061 62.0617 28.2711 62.0617 28.2711C61.9101 31.3484 60.639 33.5969 60.2338 32.536L60.2307 32.5391ZM61.8483 33.9804C61.0874 34.2989 61.3627 32.6659 61.3627 32.6659C61.9101 35.1278 62.7823 29.3134 62.7823 29.3134C62.7823 29.3134 62.6122 33.6649 61.8483 33.9804ZM62.1885 34.1288C62.8874 35.8886 63.3978 31.1165 63.3978 31.1165C63.3978 31.1165 63.3112 35.5082 62.6524 35.3938C61.9967 35.2824 62.1885 34.1288 62.1885 34.1288Z" fill="white"/>
<path d="M57.0389 27.8474C57.0389 27.8474 56.2193 28.6917 56.4234 31.1165C56.4234 31.1165 57.1502 30.4299 57.0389 27.8474Z" fill="white"/>
<path d="M55.8637 29.4836C55.8637 29.4836 54.9544 30.7857 55.1895 33.6342C55.1895 33.6342 56.0523 32.2455 55.8637 29.4836Z" fill="white"/>
<path d="M54.574 32.5486C54.574 32.5486 52.4307 33.8104 53.0152 40.4475C53.0152 40.4475 53.575 35.6909 54.574 32.5486Z" fill="white"/>
<path d="M53.6277 51.105C53.6277 51.105 56.3864 52.005 57.3267 54.0802C57.3267 54.0802 56.2102 53.0225 55.2514 52.4349C55.2514 52.4349 55.2143 53.5885 55.0163 53.6906C54.8215 53.7864 54.5462 53.6009 54.2741 53.5576C53.9988 53.5112 53.705 53.4339 53.7638 53.1586C53.8256 52.8864 54.2555 52.1813 53.6277 51.105Z" fill="white"/>
<path d="M52.5544 53.5607C51.1812 53.0566 51.24 51.6308 51.24 51.6308C51.7317 52.1721 52.2173 52.0886 52.2173 52.0886V48.3494H52.8049C52.6658 46.8215 52.3936 44.4741 52.3936 44.4741C52.7245 44.9226 52.941 44.7277 52.941 44.7277C52.7647 44.1803 52.5297 41.3999 52.5297 41.3999C52.5297 41.3999 52.1585 41.8112 51.5895 42.7112C51.0204 43.6112 50.9431 43.9453 50.906 43.4752C50.8658 43.0051 50.3586 43.8246 50.3586 43.8246L48.2245 46.7628L47.8348 49.0917V52.2803L48.3606 51.869C48.5957 52.5556 48.1132 53.7308 48.1132 53.7308C49.9008 53.6937 50.006 52.5741 50.1606 53.3968C50.3183 54.2195 49.907 54.2782 49.5482 54.7484C49.1926 55.2185 49.7926 55.4319 49.7926 55.4319L50.006 55.8772C50.6122 54.9896 50.8689 55.3917 50.8689 55.3917L51.4379 59.5484H52.1524V60.4886H52.3132C52.4338 59.938 52.5915 59.8948 52.7276 59.2886C52.8668 58.6793 52.9843 58.5834 52.474 57.7422C51.9668 56.8978 52.2204 56.0813 52.2204 56.0813C53.2194 56.7525 53.5534 57.9092 53.5534 57.9092L52.9843 58.0917C54.0606 58.7597 54.5709 59.3257 54.8431 58.0917C55.1183 56.8607 53.5101 56.2731 53.2379 55.4288C52.9627 54.5875 54.5493 54.8597 55.3905 55.1257C56.2317 55.3886 54.9977 55.67 54.9977 55.67C56.0957 56.1834 56.7018 56.0968 56.8967 55.2494C57.0946 54.4051 53.9214 54.0587 52.5513 53.5545L52.5544 53.5607ZM50.7421 46.7906C50.507 47.0844 49.6256 47.7308 49.6534 48.4051C49.6534 48.4051 49.3008 47.4958 50.0338 45.9092C50.0338 45.9092 50.7977 45.8875 50.8843 45.5071C50.974 45.1267 50.8843 45.5071 51.0451 44.4246C51.0451 44.4246 51.3544 45.5844 51.7967 46.1721H51.0451C51.0451 46.1721 50.9709 46.4937 50.739 46.7906H50.7421Z" fill="white"/>
<path d="M42.0976 52.2805V49.0918L41.7079 46.763C41.5254 45.6774 41.0244 44.7434 40.9007 44.9042C40.7801 45.0681 40.5326 45.3712 40.5326 45.3712L39.5708 43.8217C39.5708 43.8217 39.0636 42.999 39.0234 43.4722C38.9863 43.9423 38.9058 43.6083 38.3368 42.7083C37.7677 41.8083 37.3966 41.397 37.3966 41.397C37.3966 41.397 37.1615 44.1774 36.9852 44.7248C36.9852 44.7248 37.2017 44.9196 37.5327 44.4712C37.5327 44.4712 37.2605 46.8186 37.1244 48.3465H37.712V52.0856C37.712 52.0856 38.2038 52.1691 38.6924 51.6279C38.6924 51.6279 38.7512 53.0537 37.378 53.5578C36.0048 54.0619 32.7759 54.4238 33.0326 55.2526C33.2213 55.8712 33.3759 55.9764 34.4677 55.6733C34.4677 55.6733 33.6976 55.3918 34.5388 55.1289C35.3801 54.8629 36.9667 54.5908 36.6914 55.432C36.4192 56.2733 34.8141 56.8609 35.0863 58.0949C35.3584 59.3289 35.8718 58.7629 36.945 58.0949L36.376 57.9124C36.376 57.9124 36.71 56.7557 37.7089 56.0846C37.7089 56.0846 37.9656 56.9011 37.4553 57.7454C36.9481 58.5867 37.0625 58.6856 37.2017 59.2918C37.3378 59.898 37.4955 59.9382 37.6192 60.4918H37.7801V59.5516H38.4976L39.0667 55.3949C39.0667 55.3949 39.3203 54.9928 39.9234 55.8805L40.1399 55.4351C40.1399 55.4351 40.743 55.2217 40.3811 54.7516C40.0223 54.2815 39.611 54.2227 39.7687 53.4001C39.9234 52.5774 40.0347 53.6939 41.8223 53.7341C41.8223 53.7341 41.3368 52.5588 41.5718 51.8722L42.1007 52.2836L42.0976 52.2805ZM40.2883 48.4052C40.3162 47.7279 39.4378 47.0846 39.2028 46.7908C38.9677 46.497 38.8935 46.1722 38.8935 46.1722H38.1481C38.5873 45.5846 38.8935 44.4248 38.8935 44.4248C39.0574 45.5073 38.9677 45.1238 39.0574 45.5073C39.144 45.8877 39.9079 45.9093 39.9079 45.9093C40.6409 47.4928 40.2914 48.4052 40.2914 48.4052H40.2883Z" fill="white"/>
<path d="M53.1482 29.0631C53.1482 29.0631 53.8533 28.9857 53.8533 30.161C53.8533 31.3363 53.5626 31.9641 53.5626 31.9641C53.5626 31.9641 53.4853 29.8672 53.1482 29.0631Z" fill="white"/>
<path d="M38.1451 40.3237V41.134L39.2585 42.5536C39.2585 42.5536 39.1503 41.4835 38.1451 40.3237Z" fill="white"/>
<path d="M42.6328 17.8639C42.6328 17.9845 42.5369 18.0835 42.4132 18.0835C42.2895 18.0835 42.1936 17.9845 42.1936 17.8639C42.1936 17.7433 42.2926 17.6443 42.4132 17.6443C42.5338 17.6443 42.6328 17.7433 42.6328 17.8639Z" fill="white"/>
<path d="M52.4523 28.5339C52.2172 26.9473 51.2214 25.4999 51.2214 25.4999H50.5935C50.2038 23.171 48.4193 20.938 48.4193 20.938H48.8492C48.7719 20.3504 48.0451 19.9019 48.0451 19.9019L48.8492 19.9421C48.4379 19.0421 46.7739 17.9256 46.7739 17.9256L47.1822 17.8081C45.9884 15.9277 42.1904 16.6329 41.6832 16.8308C41.1729 17.0256 40.7832 17.4772 40.3688 17.7494C39.9605 18.0246 40.0162 17.7679 39.6451 18.0246C39.2739 18.2782 39.6451 18.8659 39.6451 18.8659L39.0203 18.4174C38.2564 19.0452 38.3585 20.0287 38.3585 20.0287C38.9523 19.2865 39.3884 19.3762 39.3884 19.3762H40.7987C40.7616 19.8061 40.0348 19.8432 40.0348 19.8432V20.0999H40.8543V20.4308H41.6585L42.7348 21.2906H43.6533C43.4368 20.8978 42.0111 19.6267 42.0111 19.6267C42.4224 19.5494 43.6533 20.3906 44.4018 20.8019C45.144 21.2133 45.6018 21.2504 45.6018 21.2504V20.6442L46.4585 21.2504L46.0471 21.3494L45.2028 21.6617L46.1677 22.0143C45.6203 21.9957 44.6739 22.138 44.6739 22.138L43.3379 23.4153L43.2358 22.8277L41.943 24.1483L42.0172 23.3411C39.0791 25.9452 37.5822 27.3184 37.2605 30.2256C36.9358 33.1329 37.9069 37.2741 37.9069 37.2741H38.3585C39.1626 41.6782 40.3719 44.0287 40.3719 44.0287L40.8667 43.5865C41.275 45.2318 41.8904 45.4081 41.8904 45.4081L42.0977 44.7617C42.5925 47.4339 42.8987 47.1988 42.8987 47.1988L43.31 46.172C43.8976 48.9896 44.5873 48.77 44.5873 48.77L44.708 47.3751C45.1038 47.8452 45.3667 49.2524 45.3667 49.2524C46.2172 48.7236 46.542 46.4133 46.542 46.4133L46.8667 47.3164C47.6739 47.0968 48.1007 44.8793 48.1007 44.8793C48.1595 45.1576 48.3049 45.9092 48.3049 45.9092C48.8337 45.4978 49.0379 43.4102 49.0379 43.4102L49.5729 43.8524C50.309 42.47 50.8317 39.8999 50.8317 39.8999H51.2708C52.0657 38.5638 51.9482 35.8298 51.9482 35.8298H52.4554C53.043 32.8669 52.6904 30.1174 52.4554 28.5308L52.4523 28.5339ZM40.344 18.6122H39.9482V18.2164H40.344V18.6122ZM39.3574 34.8586C40.709 36.9741 40.3564 37.7782 40.3564 37.7782L39.2616 36.1329L39.3605 34.8617L39.3574 34.8586ZM39.2585 33.4885L40.1956 34.1473C40.1956 34.1473 40.3069 32.1432 40.3966 32.2483C41.1853 33.1669 40.7461 35.2947 40.7461 35.2947C40.0007 34.8432 39.2585 33.4916 39.2585 33.4916V33.4885ZM37.5605 32.5514L37.709 31.5617C38.3152 32.8236 38.3152 34.704 38.3152 34.704C37.8636 34.4875 37.5605 32.5514 37.5605 32.5514ZM38.3152 29.0659C38.0028 29.6535 37.709 30.0834 37.709 30.0834C37.4925 29.2978 38.1451 28.1226 38.1451 28.1226L38.4544 27.8504C38.4544 27.8504 38.6306 28.4782 38.3152 29.0659ZM39.2554 38.072V37.2896C40.1987 38.2298 40.9379 40.4504 40.9379 40.4504C40.1523 39.8535 39.2554 38.072 39.2554 38.072ZM39.9605 27.9494L39.5306 28.2772C39.6667 26.2978 41.2131 25.2061 41.2131 25.2061C40.5265 26.1679 39.9605 27.9494 39.9605 27.9494ZM49.61 23.8576L50.1203 25.2061C50.1203 25.2061 49.3935 24.6401 49.143 23.6628L49.61 23.8576ZM48.6513 22.8401C48.6513 22.8401 47.6739 22.3298 46.8513 21.7823H47.7111L48.6513 22.8401ZM47.4884 26.0102C47.4884 26.0102 48.2801 26.7927 48.3791 27.2628C48.4781 27.7329 47.909 28.9638 47.909 28.9638C47.8904 28.6298 47.4605 27.7916 47.3616 27.2009C47.2626 26.6133 47.4884 26.0071 47.4884 26.0071V26.0102ZM46.7554 22.4164L48.1224 23.5607L48.2214 24.1483C48.2214 24.1483 46.8513 23.3442 46.7554 22.4164ZM46.1677 18.0679C46.1677 18.0679 46.8698 18.5256 47.2038 19.203C47.2038 19.203 46.2946 18.5102 45.6049 18.003L46.1677 18.0679ZM42.2678 18.8937C41.3987 18.8937 41.309 17.9535 41.309 17.9535C41.309 17.9535 41.1049 17.9689 40.7059 18.4174C40.7059 18.4174 40.808 17.5576 41.6739 17.3102C42.543 17.0597 44.7018 17.6318 44.7018 17.6318H42.9976C42.9976 17.6318 43.1306 18.8937 42.2647 18.8937H42.2678ZM44.6028 18.2164H44.9832L45.9513 19.0793C45.9513 19.0793 45.1224 18.9524 44.6028 18.2164ZM46.4059 20.703L46.8884 20.1555L46.5946 19.6081H46.9255L47.708 20.4896L46.4028 20.703H46.4059ZM46.8327 33.136C47.1265 33.1576 48.0667 31.5617 48.0667 31.5617C48.0667 31.5617 48.4224 32.9597 46.8358 34.704C46.8358 34.704 45.6111 33.7267 45.6049 32.0628C45.6049 32.0628 46.5389 33.1174 46.8327 33.139V33.136ZM45.6049 25.3916C45.9822 26.7494 44.9832 27.1267 44.9832 27.1267C44.7574 25.9329 45.6049 25.3916 45.6049 25.3916ZM45.2275 28.7535C45.2275 28.7535 45.475 29.5762 45.4626 30.2968C45.4502 31.0205 45.0884 31.8401 45.0884 31.8401C45.0884 31.8401 44.7203 31.0421 44.6801 30.2782C44.643 29.5174 45.2275 28.7535 45.2275 28.7535ZM43.3688 35.038C43.6997 35.0009 44.2781 33.2628 44.2781 33.2628C44.2781 33.2628 44.8595 35.0473 43.5853 36.5009C43.5853 36.5009 42.4317 35.6164 42.3915 34.1473C42.3915 34.1473 43.0379 35.0751 43.3688 35.038ZM41.8626 27.8535C41.9399 27.2875 42.7255 26.6597 42.7255 26.6597C42.9203 27.971 42.3327 29.3999 42.2925 29.3195C42.2523 29.239 41.7853 28.4195 41.8626 27.8535ZM41.9987 29.9318C42.8987 30.6927 42.509 32.8112 42.509 32.8112C42.1348 32.6782 41.7451 31.1226 41.7451 31.1226L41.9987 29.9318ZM41.8626 41.9318C42.3513 41.4215 42.9203 44.672 42.9203 44.672C41.8842 43.636 41.8626 41.9318 41.8626 41.9318ZM43.7028 41.4432C43.7028 41.4432 41.9214 40.3638 41.8626 38.8576C41.8626 38.8576 42.7038 40.2679 43.1368 40.2494C43.5667 40.2277 43.8018 37.9607 43.8018 37.9607C43.8018 37.9607 44.9368 38.6875 43.7028 41.4463V41.4432ZM44.7791 44.4308C44.7791 44.4308 44.0523 44.1215 44.3275 41.9287L44.7791 42.337V44.4277V44.4308ZM45.3667 47.1184L45.1812 45.3184L45.441 44.672C46.0626 46.0607 45.3667 47.1184 45.3667 47.1184ZM45.9172 39.8937C45.9172 39.8937 44.742 39.2875 44.7791 37.37C44.7791 37.37 45.4255 38.6628 45.8152 38.6226C46.208 38.5823 47.0523 36.504 47.0523 36.504C47.0523 36.504 47.3832 38.2329 45.9172 39.8968V39.8937ZM46.8358 45.8473V44.0071L47.5409 42.9122C47.6214 44.8916 46.8358 45.8504 46.8358 45.8504V45.8473ZM46.8358 42.1483V40.8957L47.5781 39.1916C47.5781 39.1916 47.9708 40.5617 46.8358 42.1483ZM49.9904 38.4277L49.0688 40.2494C49.0688 40.2494 49.0904 38.1525 49.9904 36.804V38.4277ZM48.5028 37.2927C48.5028 37.2927 47.4822 36.2751 47.8379 34.8648C47.8379 34.8648 48.0327 35.6071 48.5616 35.7277C49.0904 35.8452 49.9904 34.1504 49.9904 34.1504C49.9904 34.1504 50.343 35.2731 48.5028 37.2927ZM49.8915 32.437C49.5791 32.3566 48.6203 30.2195 48.7966 30.105C48.8894 30.0432 49.443 31.4937 49.9719 30.9679C50.4977 30.439 50.6708 29.0349 50.6956 29.0689C51.3018 30.0494 50.2069 32.5143 49.8915 32.437ZM50.3801 38.8576C50.677 36.7638 51.2832 35.9968 51.2832 35.9968C51.4595 37.7813 50.3801 38.8576 50.3801 38.8576ZM51.2832 33.139V31.2215L51.608 30.5442C52.208 31.3947 51.2832 33.136 51.2832 33.136V33.139ZM51.608 35.1586L51.7162 33.2659L52.0286 33.139C52.3224 33.9215 51.608 35.1586 51.608 35.1586ZM52.1059 29.403C52.1059 29.403 51.2832 28.2988 51.1069 27.0092L51.577 27.2102C51.577 27.2102 52.1647 27.9339 52.1059 29.403Z" fill="white"/>
<path d="M42.0975 47.1125C42.0975 47.1125 43.0563 47.6414 42.9171 48.4053C42.9171 48.4053 42.3109 48.6558 42.0975 47.1125Z" fill="white"/>
<path d="M34.8911 78.538C34.8911 78.7422 34.7241 78.9092 34.5199 78.9092C34.3158 78.9092 34.1488 78.7422 34.1488 78.538C34.1488 78.3339 34.3158 78.1638 34.5199 78.1638C34.7241 78.1638 34.8911 78.3308 34.8911 78.538Z" fill="white"/>
<path d="M44.0304 85.8494C44.0304 86.0566 43.8634 86.2205 43.6593 86.2205C43.4551 86.2205 43.285 86.0535 43.285 85.8494C43.285 85.6453 43.452 85.4783 43.6593 85.4783C43.8665 85.4783 44.0304 85.6453 44.0304 85.8494Z" fill="white"/>
<path d="M49.3813 79.6392C49.3813 79.8464 49.2174 80.0134 49.0102 80.0134C48.803 80.0134 48.636 79.8464 48.636 79.6392C48.636 79.432 48.7999 79.2681 49.0102 79.2681C49.2205 79.2681 49.3813 79.432 49.3813 79.6392Z" fill="white"/>
<path d="M50.6057 79.5217C50.6057 79.7289 50.4418 79.8928 50.2345 79.8928C50.0273 79.8928 49.8634 79.7289 49.8634 79.5217C49.8634 79.3145 50.0304 79.1475 50.2345 79.1475C50.4387 79.1475 50.6057 79.3145 50.6057 79.5217Z" fill="white"/>
<path d="M63.512 74.4246C63.512 74.6287 63.3419 74.7957 63.1377 74.7957C62.9336 74.7957 62.7666 74.6287 62.7666 74.4246C62.7666 74.2205 62.9305 74.0535 63.1377 74.0535C63.345 74.0535 63.512 74.2205 63.512 74.4246Z" fill="white"/>
<path d="M63.512 75.501C63.512 75.7051 63.3419 75.8752 63.1377 75.8752C62.9336 75.8752 62.7666 75.7051 62.7666 75.501C62.7666 75.2969 62.9305 75.1299 63.1377 75.1299C63.345 75.1299 63.512 75.2938 63.512 75.501Z" fill="white"/>
<path d="M64.1615 75.3431C64.3665 75.3431 64.5327 75.1769 64.5327 74.972C64.5327 74.767 64.3665 74.6008 64.1615 74.6008C63.9566 74.6008 63.7904 74.767 63.7904 74.972C63.7904 75.1769 63.9566 75.3431 64.1615 75.3431Z" fill="white"/>
<path d="M27.8024 81.8257C27.8024 82.0299 27.6385 82.1969 27.4344 82.1969C27.2302 82.1969 27.0632 82.0299 27.0632 81.8257C27.0632 81.6216 27.2271 81.4546 27.4344 81.4546C27.6416 81.4546 27.8024 81.6216 27.8024 81.8257Z" fill="white"/>
<path d="M23.7232 81.2658C23.7232 81.47 23.5562 81.637 23.3521 81.637C23.148 81.637 22.981 81.47 22.981 81.2658C22.981 81.0617 23.1449 80.8916 23.3521 80.8916C23.5593 80.8916 23.7232 81.0586 23.7232 81.2658Z" fill="white"/>
<path d="M22.6099 80.6071C22.6099 80.8113 22.4459 80.9783 22.2356 80.9783C22.0253 80.9783 21.8645 80.8113 21.8645 80.6071C21.8645 80.403 22.0315 80.2329 22.2356 80.2329C22.4398 80.2329 22.6099 80.3999 22.6099 80.6071Z" fill="white"/>
<path d="M36.5924 79.9051H33.9109C33.9109 79.9051 32.9305 80.3783 32.7759 80.6907C32.7759 80.6907 33.3635 78.4051 33.7656 77.3876C33.7656 77.3876 33.7748 76.6577 33.1841 77.1463L31.6934 81.7268C31.6934 81.7268 29.9119 81.1608 28.5449 80.3969L29.6614 78.1051C29.6614 78.1051 29.7202 77.2824 29.0521 77.8113L27.9573 80.0999L26.9985 79.6701L27.4284 78.3587C27.4284 78.3587 28.0563 76.5773 27.5274 76.2061C26.9985 75.8319 25.882 76.1288 25.3934 76.7536C24.9016 77.3814 24.7872 78.0278 24.9418 78.4762C25.0996 78.9247 25.8047 80.0907 24.2583 79.8896C22.7088 79.6886 23.4171 78.0432 23.4171 78.0432C23.4171 78.0432 23.6119 77.6103 23.2037 77.2391C23.2037 77.2391 22.4583 77.9814 22.5171 78.668C22.5759 79.3546 22.7119 80.2144 23.9645 80.4494C25.2202 80.6876 25.8078 79.9608 25.9439 79.5123C26.0831 79.0608 24.614 77.6134 26.8841 76.6731C26.8841 76.6731 27.3326 77.0845 26.8841 78.2969C26.4326 79.5123 26.2563 79.6299 26.3367 79.9422C26.4171 80.2546 30.8769 82.4876 35.7511 83.7402C35.7511 83.7402 35.9274 83.6412 36.2027 83.134C36.4779 82.6237 37.1058 80.2051 37.1058 80.2051C37.1058 80.2051 36.9449 79.902 36.5954 79.902L36.5924 79.9051ZM35.4573 82.9206C35.4573 82.9206 33.6728 82.5 32.3058 81.9804C32.3058 81.9804 33.382 80.6041 34.3625 80.6041H36.2027C36.2027 80.6041 35.9305 82.1566 35.4604 82.9206H35.4573Z" fill="white"/>
<path d="M43.4642 81.6309V84.0588C43.4642 84.0588 40.9622 84.2134 39.9818 83.7433C39.9818 83.7433 40.356 82.568 40.3931 80.6907C40.3931 80.6907 38.3179 80.3165 37.5354 81.9835C36.7529 83.6474 38.2003 84.3124 39.2395 84.2536C39.2395 84.2536 39.3354 85.9763 38.0797 85.9206C38.0797 85.9206 37.5725 86.2546 38.0797 86.6041C38.0797 86.6041 39.7838 86.7031 39.8055 84.3155C39.8055 84.3155 41.488 84.8629 44.1508 84.7052V81.6309C44.1508 81.6309 43.857 80.9845 43.4642 81.6309ZM39.4931 83.7433C39.4931 83.7433 38.2003 83.7649 37.9251 83.0412C37.6498 82.3175 38.6117 81.4546 39.6478 81.2165C39.6478 81.2165 39.6292 82.9206 39.4931 83.7433Z" fill="white"/>
<path d="M45.1841 79.5556V84.4113C45.1841 84.4113 45.4934 85.1968 45.7562 84.4113V79.5556C45.7562 79.5556 45.4686 78.9092 45.1841 79.5556Z" fill="white"/>
<path d="M46.3037 77.6568C46.3037 77.6568 45.3759 77.4001 45.0882 77.9289V78.6341H44.6212V79.0423H46.3037V78.5351H45.4037V78.1609H46.3037C46.3037 78.1609 46.6563 77.8671 46.3037 77.6537V77.6568Z" fill="white"/>
<path d="M59.2653 78.7732L60.7745 82.336C60.7745 82.336 61.1859 83.0628 60.4622 83.4927C60.4622 83.4927 60.1281 84.0031 60.756 84.0618C60.756 84.0618 62.1292 83.1216 61.1673 81.535L66.824 78.3618C66.824 78.3618 67.1952 77.9907 66.9044 77.3072C66.6106 76.6206 65.7477 75.3649 65.7477 75.3649C65.7477 75.3649 65.0611 74.8979 65.1415 75.7422L66.3168 77.6412C66.3168 77.6412 66.3941 78.2845 65.7292 78.0525L64.4983 76.036C64.4983 76.036 63.7715 75.6989 63.9879 76.4845L65.2436 78.4608C65.2436 78.4608 64.99 78.8938 64.5168 78.8938L63.1436 76.8185C63.1436 76.8185 62.4787 76.4288 62.6395 77.2082L63.8952 79.2711L60.9354 80.8484L59.9178 78.5783C59.9178 78.5783 59.4075 78.1268 59.2715 78.7762L59.2653 78.7732Z" fill="white"/>
<path d="M58.2669 78.5166C55.8978 78.7516 54.8401 81.4176 54.8401 81.4176L53.8813 78.1083C53.1947 77.5795 53.1205 78.3217 53.1205 78.3217L54.6669 82.8063C53.0401 83.5114 51.1411 83.5114 51.1411 83.5114C50.9834 79.8496 50.439 80.4372 50.439 80.4372C50.439 80.4372 48.4009 81.4176 48.4009 83.063C48.4009 84.7084 50.2349 84.5104 50.2349 84.5104V83.7465C49.3906 83.7465 48.9081 83.5733 49.0102 82.7877C49.1091 82.0053 50.2349 81.4393 50.2349 81.4393C51.1906 84.5692 49.4865 84.4547 52.7865 84.0032C56.0865 83.5547 59.2627 82.0176 59.2627 82.0176C58.4401 79.9516 58.2638 78.5197 58.2638 78.5197L58.2669 78.5166ZM58.5205 81.6898C58.5205 81.6898 55.8761 82.4537 55.3906 82.7846C55.3906 82.7846 54.9792 80.8393 57.738 79.5217C57.738 79.5217 58.2885 81.2382 58.5205 81.6125C58.7555 81.9836 58.5205 81.6898 58.5205 81.6898Z" fill="white"/>
</g>
<defs>
<clipPath id="clip0_1365_17541">
<rect width="90" height="90" fill="white" transform="translate(0.0605469)"/>
</clipPath>
</defs>
</svg>
