<svg width="80" height="80" viewBox="0 0 80 80" fill="none" xmlns="http://www.w3.org/2000/svg">
<rect width="80" height="80" fill="#E7E7E7"/>
<path d="M47.3875 32.5063C47.2607 32.1397 47.0228 31.8217 46.707 31.5965C46.3911 31.3714 46.0129 31.2503 45.625 31.25H45V30H45.625C46.1218 29.9985 46.5979 29.8005 46.9492 29.4492C47.3005 29.0979 47.4985 28.6218 47.5 28.125V23.125C47.4985 22.6282 47.3005 22.1521 46.9492 21.8008C46.5979 21.4495 46.1218 21.2515 45.625 21.25H23.125C22.6282 21.2515 22.1521 21.4495 21.8008 21.8008C21.4495 22.1521 21.2515 22.6282 21.25 23.125V28.125C21.2515 28.6218 21.4495 29.0979 21.8008 29.4492C22.1521 29.8005 22.6282 29.9985 23.125 30H23.75V31.25H23.125C22.6282 31.2515 22.1521 31.4495 21.8008 31.8008C21.4495 32.1521 21.2515 32.6282 21.25 33.125V38.125C21.2515 38.6218 21.4495 39.0979 21.8008 39.4492C22.1521 39.8005 22.6282 39.9985 23.125 40H23.75V41.25H23.125C22.6282 41.2515 22.1521 41.4495 21.8008 41.8008C21.4495 42.1521 21.2515 42.6282 21.25 43.125V48.125C21.2515 48.6218 21.4495 49.0979 21.8008 49.4492C22.1521 49.8005 22.6282 49.9985 23.125 50H35V55C35 57.4625 40.975 58.75 46.875 58.75C52.775 58.75 58.75 57.4625 58.75 55V36.25C58.75 33.8562 53.1187 32.5813 47.3875 32.5063ZM23.125 28.75C22.9592 28.75 22.8003 28.6842 22.6831 28.5669C22.5658 28.4497 22.5 28.2908 22.5 28.125V23.125C22.5 22.9592 22.5658 22.8003 22.6831 22.6831C22.8003 22.5658 22.9592 22.5 23.125 22.5H45.625C45.7908 22.5 45.9497 22.5658 46.0669 22.6831C46.1842 22.8003 46.25 22.9592 46.25 23.125V28.125C46.25 28.2908 46.1842 28.4497 46.0669 28.5669C45.9497 28.6842 45.7908 28.75 45.625 28.75H23.125ZM43.75 30V31.25H41.25V30H43.75ZM40 30V31.25H28.75V30H40ZM27.5 30V31.25H25V30H27.5ZM35 48.75H23.125C22.9592 48.75 22.8003 48.6842 22.6831 48.5669C22.5658 48.4497 22.5 48.2908 22.5 48.125V43.125C22.5 42.9592 22.5658 42.8003 22.6831 42.6831C22.8003 42.5658 22.9592 42.5 23.125 42.5H35V48.75ZM25 41.25V40H27.5V41.25H25ZM35 41.25H28.75V40H35V41.25ZM35 36.25V38.75H23.125C22.9592 38.75 22.8003 38.6842 22.6831 38.5669C22.5658 38.4497 22.5 38.2908 22.5 38.125V33.125C22.5 32.9592 22.5658 32.8003 22.6831 32.6831C22.8003 32.5658 22.9592 32.5 23.125 32.5H45.625C45.6547 32.5032 45.684 32.5095 45.7125 32.5188C40.2125 32.675 35 33.95 35 36.25ZM57.5 55C57.5 55.85 53.75 57.5 46.875 57.5C40 57.5 36.25 55.85 36.25 55V50.5125C38.3062 51.8188 42.6 52.5 46.875 52.5C51.15 52.5 55.4437 51.8188 57.5 50.5125V55ZM57.5 48.75C57.5 49.6 53.75 51.25 46.875 51.25C40 51.25 36.25 49.6 36.25 48.75V44.2625C38.3062 45.5688 42.6 46.25 46.875 46.25C51.15 46.25 55.4437 45.5688 57.5 44.2625V48.75ZM57.5 42.5C57.5 43.35 53.75 45 46.875 45C40 45 36.25 43.35 36.25 42.5V38.0125C38.3062 39.3188 42.6 40 46.875 40C51.15 40 55.4437 39.3188 57.5 38.0125V42.5ZM46.875 38.75C40 38.75 36.25 37.1 36.25 36.25C36.25 35.4 40 33.75 46.875 33.75C53.75 33.75 57.5 35.4 57.5 36.25C57.5 37.1 53.75 38.75 46.875 38.75Z" fill="#0D3642"/>
<path d="M46.25 41.875H47.5V43.125H46.25V41.875ZM46.25 48.75H47.5V50H46.25V48.75ZM46.25 54.375H47.5V55.625H46.25V54.375ZM26.875 33.75H24.375C24.2092 33.75 24.0503 33.8158 23.9331 33.9331C23.8158 34.0503 23.75 34.2092 23.75 34.375V36.875C23.75 37.0408 23.8158 37.1997 23.9331 37.3169C24.0503 37.4342 24.2092 37.5 24.375 37.5H26.875C27.0408 37.5 27.1997 37.4342 27.3169 37.3169C27.4342 37.1997 27.5 37.0408 27.5 36.875V34.375C27.5 34.2092 27.4342 34.0503 27.3169 33.9331C27.1997 33.8158 27.0408 33.75 26.875 33.75ZM26.25 36.25H25V35H26.25V36.25ZM31.875 33.75H29.375C29.2092 33.75 29.0503 33.8158 28.9331 33.9331C28.8158 34.0503 28.75 34.2092 28.75 34.375V36.875C28.75 37.0408 28.8158 37.1997 28.9331 37.3169C29.0503 37.4342 29.2092 37.5 29.375 37.5H31.875C32.0408 37.5 32.1997 37.4342 32.3169 37.3169C32.4342 37.1997 32.5 37.0408 32.5 36.875V34.375C32.5 34.2092 32.4342 34.0503 32.3169 33.9331C32.1997 33.8158 32.0408 33.75 31.875 33.75ZM31.25 36.25H30V35H31.25V36.25ZM26.875 23.75H24.375C24.2092 23.75 24.0503 23.8158 23.9331 23.9331C23.8158 24.0503 23.75 24.2092 23.75 24.375V26.875C23.75 27.0408 23.8158 27.1997 23.9331 27.3169C24.0503 27.4342 24.2092 27.5 24.375 27.5H26.875C27.0408 27.5 27.1997 27.4342 27.3169 27.3169C27.4342 27.1997 27.5 27.0408 27.5 26.875V24.375C27.5 24.2092 27.4342 24.0503 27.3169 23.9331C27.1997 23.8158 27.0408 23.75 26.875 23.75ZM26.25 26.25H25V25H26.25V26.25ZM31.875 23.75H29.375C29.2092 23.75 29.0503 23.8158 28.9331 23.9331C28.8158 24.0503 28.75 24.2092 28.75 24.375V26.875C28.75 27.0408 28.8158 27.1997 28.9331 27.3169C29.0503 27.4342 29.2092 27.5 29.375 27.5H31.875C32.0408 27.5 32.1997 27.4342 32.3169 27.3169C32.4342 27.1997 32.5 27.0408 32.5 26.875V24.375C32.5 24.2092 32.4342 24.0503 32.3169 23.9331C32.1997 23.8158 32.0408 23.75 31.875 23.75ZM31.25 26.25H30V25H31.25V26.25ZM33.75 23.75H42.5V25H33.75V23.75ZM43.75 23.75H45V25H43.75V23.75ZM33.75 26.25H42.5V27.5H33.75V26.25ZM43.75 26.25H45V27.5H43.75V26.25ZM26.875 43.75H24.375C24.2092 43.75 24.0503 43.8158 23.9331 43.9331C23.8158 44.0503 23.75 44.2092 23.75 44.375V46.875C23.75 47.0408 23.8158 47.1997 23.9331 47.3169C24.0503 47.4342 24.2092 47.5 24.375 47.5H26.875C27.0408 47.5 27.1997 47.4342 27.3169 47.3169C27.4342 47.1997 27.5 47.0408 27.5 46.875V44.375C27.5 44.2092 27.4342 44.0503 27.3169 43.9331C27.1997 43.8158 27.0408 43.75 26.875 43.75ZM26.25 46.25H25V45H26.25V46.25ZM31.875 43.75H29.375C29.2092 43.75 29.0503 43.8158 28.9331 43.9331C28.8158 44.0503 28.75 44.2092 28.75 44.375V46.875C28.75 47.0408 28.8158 47.1997 28.9331 47.3169C29.0503 47.4342 29.2092 47.5 29.375 47.5H31.875C32.0408 47.5 32.1997 47.4342 32.3169 47.3169C32.4342 47.1997 32.5 47.0408 32.5 46.875V44.375C32.5 44.2092 32.4342 44.0503 32.3169 43.9331C32.1997 43.8158 32.0408 43.75 31.875 43.75ZM31.25 46.25H30V45H31.25V46.25Z" fill="#FB7A00"/>
</svg>
