<svg width="100" height="100" viewBox="0 0 100 100" fill="none" xmlns="http://www.w3.org/2000/svg">
<g clip-path="url(#clip0_1344_10294)">
<path d="M100.034 50.134C100.034 77.7663 77.6315 100.168 49.9992 100.168C22.3669 100.168 -0.0351562 77.7663 -0.0351562 50.134C-0.0351562 22.5017 22.3669 0.0996704 49.9992 0.0996704C77.6315 0.0996704 100.034 22.5017 100.034 50.134Z" fill="#87722D"/>
<path d="M49.9972 98.9862C23.0625 98.9862 1.14844 77.0722 1.14844 50.134C1.14844 23.1959 23.0625 1.28522 49.9972 1.28522C76.9319 1.28522 98.846 23.1993 98.846 50.134C98.846 77.0687 76.9319 98.9862 49.9972 98.9862Z" fill="#CB141F"/>
<path d="M84.8421 50.134C84.8421 69.378 69.2441 84.976 50.0001 84.976C30.7561 84.976 15.1582 69.378 15.1582 50.134C15.1582 30.8901 30.7561 15.2921 50.0001 15.2921C69.2441 15.2921 84.8421 30.8935 84.8421 50.134Z" fill="#87722D"/>
<path d="M49.9965 83.9347C31.3607 83.9347 16.1992 68.7732 16.1992 50.134C16.1992 31.4949 31.3607 16.3368 49.9965 16.3368C68.6322 16.3368 83.7937 31.4983 83.7937 50.134C83.7937 68.7698 68.6322 83.9347 49.9965 83.9347Z" fill="white"/>
<path d="M23.6035 82.89C23.6035 82.89 15.3149 82.9553 10.418 76.7972C10.418 76.7972 15.4248 78.0824 23.0365 82.3024C23.0365 82.3024 18.796 77.4742 20.3595 70.1649C20.3595 70.1649 22.5142 74.5361 23.6035 82.89Z" fill="white"/>
<path d="M19.2096 78.6804C19.2096 78.6804 10.5945 77.3849 7.09961 70.8557C7.09961 70.8557 11.8316 72.9381 18.6838 78.0309C18.6838 78.0309 15.323 71.5704 17.8969 65.6942C17.8969 65.6942 19.1065 70.4261 19.2061 78.6804H19.2096Z" fill="white"/>
<path d="M15.3917 73.8212C15.3917 73.8212 7.78693 72.0893 4.45703 64.4226C4.45703 64.4226 8.76288 67.3195 14.9347 73.1305C14.9347 73.1305 12.6185 65.6254 15.8453 60.5704C15.8453 60.5704 16.3024 68.2714 15.3917 73.8212Z" fill="white"/>
<path d="M12.323 68.7285C12.323 68.7285 4.59105 64.8797 3.18555 57.5361C3.18555 57.5361 8.89688 63.4089 12.1271 68.0103C12.1271 68.0103 10.9828 60.4708 14.9656 55.9347C14.9656 55.9347 14.1477 65.1684 12.323 68.7251V68.7285Z" fill="white"/>
<path d="M10.2089 63.0515C10.2089 63.0515 4.06798 59.8831 2.59375 50.8488C2.59375 50.8488 7.1642 57.1718 10.0027 62.3367C10.0027 62.3367 9.77244 55.3848 14.4735 50.8488C14.4735 50.8488 13.1642 57.323 10.2089 63.0515Z" fill="white"/>
<path d="M8.69607 57.3093C8.69607 57.3093 2.5105 52.1169 2.89194 43.9966C2.89194 43.9966 5.41084 48.2028 8.69607 56.4914C8.69607 56.4914 9.41428 49.2165 14.7029 45.5945C14.7029 45.5945 12.9401 51.7285 8.69607 57.3093Z" fill="white"/>
<path d="M8.01394 51.3024C8.01394 51.3024 2.89366 45.6254 4.1995 37.3677C4.1995 37.3677 6.51909 42.4261 8.01394 50.3883C8.01394 50.3883 10.3954 43.079 15.6531 40.6666C15.6531 40.6666 12.55 46.866 8.01394 51.3024Z" fill="white"/>
<path d="M8.30856 45.2336C8.30856 45.2336 4.1333 39.8144 6.3498 30.9381C6.3498 30.9381 7.85151 35.3127 8.30856 44.4811C8.30856 44.4811 11.3429 37.4982 17.3154 35.7044C17.3154 35.7044 14.7347 39.8831 8.30856 45.2336Z" fill="white"/>
<path d="M9.48426 39.3264C9.48426 39.3264 6.07876 33.2371 9.48426 24.9037C9.48426 24.9037 10.0238 30.8763 9.81759 38.347C9.81759 38.347 12.8932 32.7044 19.4224 31.2027C19.4224 31.2027 16.8588 34.7938 9.48426 39.3264Z" fill="white"/>
<path d="M13.2993 19.4537C13.2993 19.4537 8.83191 25.5259 11.5089 33.8111C11.5089 33.8111 20.7048 29.1788 22.3714 27.1238C22.3714 27.1238 16.5982 27.0929 11.7357 32.9314C11.7357 32.9314 14.0209 21.0207 13.2993 19.4537Z" fill="white"/>
<path d="M17.8993 14.4641C17.8993 14.4641 13.2499 19.5569 14.0196 28.2029C14.0196 28.2029 16.0059 28.5947 25.9612 23.3095C25.9612 23.3095 20.5145 22.1995 14.4457 27.7493C14.4457 27.7493 17.9371 17.8902 17.9028 14.4676L17.8993 14.4641Z" fill="white"/>
<path d="M23.1582 10.1581C23.1582 10.1581 17.4125 14.7595 17.6084 23.5052C17.6084 23.5052 25.3747 22.0653 29.9108 20.079C29.9108 20.079 23.8421 18.5464 18.1307 22.8522C18.1307 22.8522 22.928 13.1924 23.1582 10.1615V10.1581Z" fill="white"/>
<path d="M29.0612 6.63239C29.0612 6.63239 22.5045 10.6118 21.752 19.0963C21.752 19.0963 30.3327 18.7389 34.477 17.4331C34.477 17.4331 29.288 14.8867 22.3705 18.574C22.3705 18.574 28.1162 9.66675 29.0578 6.63239H29.0612Z" fill="white"/>
<path d="M35.263 4.05153C35.263 4.05153 28.775 6.61511 26.3867 15.4708C26.3867 15.4708 36.7338 15.8591 39.1118 15.2886C39.1118 15.2886 34.0843 12.1409 27.0396 14.9828C27.0396 14.9828 34.4795 6.26803 35.263 4.0481V4.05153Z" fill="white"/>
<path d="M42.8003 7.28522C42.8003 7.28522 33.271 9.37456 30.625 12.8625C30.625 12.8625 39.6662 11.3643 42.8003 7.28522Z" fill="white"/>
<path d="M76.2637 82.89C76.2637 82.89 84.5523 82.9553 89.4492 76.7972C89.4492 76.7972 84.4458 78.0824 76.8307 82.3024C76.8307 82.3024 81.0712 77.4742 79.5077 70.1649C79.5077 70.1649 77.353 74.5361 76.2671 82.89H76.2637Z" fill="white"/>
<path d="M80.6597 78.6804C80.6597 78.6804 89.2748 77.3849 92.7697 70.8557C92.7697 70.8557 88.0343 72.9381 81.182 78.0309C81.182 78.0309 84.5428 71.5704 81.9655 65.6942C81.9655 65.6942 80.7559 70.4261 80.6562 78.6804H80.6597Z" fill="white"/>
<path d="M84.4776 73.8213C84.4776 73.8213 92.0789 72.0893 95.4054 64.4227C95.4054 64.4227 91.0996 67.3196 84.9346 73.1306C84.9346 73.1306 87.2508 65.6254 84.0205 60.5704C84.0205 60.5704 83.5635 68.2715 84.4776 73.8213Z" fill="white"/>
<path d="M87.5469 68.7285C87.5469 68.7285 95.2789 64.8797 96.6844 57.5361C96.6844 57.5361 90.973 63.4089 87.7428 68.0103C87.7428 68.0103 88.8837 60.4708 84.9043 55.9347C84.9043 55.9347 85.7187 65.1684 87.5469 68.7251V68.7285Z" fill="white"/>
<path d="M89.6601 63.0515C89.6601 63.0515 95.801 59.8831 97.2684 50.8488C97.2684 50.8488 92.7014 57.1718 89.8629 62.3367C89.8629 62.3367 90.0863 55.3848 85.3887 50.8488C85.3887 50.8488 86.6979 57.323 89.6601 63.0515Z" fill="white"/>
<path d="M91.1675 57.3093C91.1675 57.3093 97.3531 52.1169 96.9751 43.9966C96.9751 43.9966 94.4562 48.2028 91.1675 56.4914C91.1675 56.4914 90.4493 49.2165 85.1641 45.5945C85.1641 45.5945 86.9269 51.7285 91.1675 57.3093Z" fill="white"/>
<path d="M91.856 51.3024C91.856 51.3024 96.9762 45.6254 95.6704 37.3677C95.6704 37.3677 93.3542 42.4261 91.856 50.3883C91.856 50.3883 89.4711 43.079 84.2168 40.6666C84.2168 40.6666 87.3164 46.866 91.856 51.3024Z" fill="white"/>
<path d="M91.5596 45.2336C91.5596 45.2336 95.7349 39.8144 93.5184 30.9381C93.5184 30.9381 92.0166 35.3127 91.5596 44.4811C91.5596 44.4811 88.5252 37.4982 82.5527 35.7044C82.5527 35.7044 85.1301 39.8831 91.5596 45.2336Z" fill="white"/>
<path d="M90.3854 39.3264C90.3854 39.3264 93.7909 33.2371 90.3854 24.9037C90.3854 24.9037 89.8459 30.8763 90.0486 38.347C90.0486 38.347 86.9765 32.7044 80.4473 31.2027C80.4473 31.2027 83.0074 34.7938 90.3854 39.3264Z" fill="white"/>
<path d="M86.5658 19.4536C86.5658 19.4536 91.0332 25.5258 88.3562 33.811C88.3562 33.811 79.1569 29.1787 77.4902 27.1237C77.4902 27.1237 83.2669 27.0928 88.1294 32.9313C88.1294 32.9313 85.8442 21.0206 86.5624 19.4536H86.5658Z" fill="white"/>
<path d="M81.9657 14.4639C81.9657 14.4639 86.6152 19.5567 85.8454 28.2028C85.8454 28.2028 83.8557 28.5945 73.9004 23.3093C73.9004 23.3093 79.354 22.1993 85.4227 27.7492C85.4227 27.7492 81.9313 17.89 81.9657 14.4674V14.4639Z" fill="white"/>
<path d="M76.7111 10.1581C76.7111 10.1581 82.4568 14.7595 82.2575 23.5052C82.2575 23.5052 74.4946 22.0653 69.9551 20.079C69.9551 20.079 76.0238 18.5464 81.7351 22.8522C81.7351 22.8522 76.9379 13.1924 76.7077 10.1615L76.7111 10.1581Z" fill="white"/>
<path d="M70.8045 6.63226C70.8045 6.63226 77.3646 10.6116 78.1138 19.0962C78.1138 19.0962 69.5296 18.7388 65.3887 17.4329C65.3887 17.4329 70.5777 14.8866 77.4918 18.5738C77.4918 18.5738 71.7495 9.66663 70.8045 6.63226Z" fill="white"/>
<path d="M64.6081 4.05159C64.6081 4.05159 71.0926 6.61517 73.4809 15.4708C73.4809 15.4708 63.1373 15.8592 60.7559 15.2887C60.7559 15.2887 65.7834 12.1409 72.828 14.9829C72.828 14.9829 65.3882 6.26809 64.6081 4.04816V4.05159Z" fill="white"/>
<path d="M57.0684 7.28522C57.0684 7.28522 66.5976 9.37456 69.2367 12.8625C69.2367 12.8625 60.2024 11.3643 57.0684 7.28522Z" fill="white"/>
<path d="M43.965 27.5704C43.965 27.5704 42.0269 29.6769 41.4186 30.0927C40.8104 30.5085 39.5526 30.1821 38.7244 29.2886C37.8997 28.3951 35.3293 25.4157 34.0887 25.3505C32.8516 25.2852 32.1643 25.591 30.1403 28.3642C28.1162 31.1408 26.91 34.0102 26.6488 36.7834C26.3877 39.5566 26.7485 43.9965 27.1746 49.2508C27.5973 54.5051 29.3602 69.8728 29.3602 69.8728C29.3602 69.8728 30.1437 75.5841 30.6007 75.8762C31.0578 76.1718 31.4461 73.5291 32.4942 72.1924C33.5354 70.8556 33.4392 68.567 33.6695 67.5257C33.8963 66.481 33.831 60.4123 33.831 60.4123C33.831 60.4123 34.453 59.3023 35.0062 57.3127C35.5629 55.3195 36.1815 54.6013 36.8035 53.9828C37.422 53.3642 39.477 51.1099 39.8378 49.4776C39.8378 49.4776 40.1952 49.4467 40.4564 49.7388C40.7176 50.0343 40.7519 50.457 40.7829 51.3058C40.8138 52.1546 40.7829 54.4054 40.7829 54.4054H41.2708V58.2542H41.9238C41.9238 58.2542 41.5286 59.0687 41.0097 59.0687C40.4908 59.0687 40.2571 59.3023 40.3293 57.8316C40.3911 56.3642 41.1746 57.2749 40.9135 56.1683C40.6523 55.0584 34.9753 58.4501 35.2674 61.323L35.9203 61.5532C35.9203 61.5532 36.5423 62.5635 37.1643 62.5635C37.7863 62.5635 38.2399 62.3023 38.6282 61.9759C39.02 61.6529 39.6111 62.2061 38.7932 63.0549C37.9787 63.9037 38.1403 64.0996 38.1403 64.0996C38.1403 64.0996 33.0165 70.6597 32.5595 73.6597C32.5595 73.6597 32.6901 73.9175 33.8344 73.8247C33.8344 73.8247 33.2811 76.024 33.7382 75.9003C34.1952 75.78 35.7588 75.1271 35.9581 75.4226C36.154 75.7147 33.5767 77.2474 33.5767 77.2474C33.5767 77.2474 33.965 77.9656 37.7829 78.3883C41.6042 78.8144 44.343 78.0618 44.343 78.0618C44.343 78.0618 44.666 79.5292 45.1884 79.7938C45.7107 80.0549 47.1781 78.457 47.1781 78.457C47.1781 78.457 47.5698 79.8281 47.9616 80.1546C48.3533 80.481 49.855 78.323 49.855 78.323C49.855 78.323 51.3533 80.347 51.8413 80.3814C52.3327 80.4157 53.0165 77.9312 53.0165 77.9312C53.0165 77.9312 54.0612 79.6941 54.8104 79.8556C55.5629 80.0206 55.9203 78.7456 56.1815 78.2886C56.4392 77.8316 62.776 79.103 65.9719 77.3436L64.0784 75.8075C64.0784 75.8075 64.0784 75.4157 64.666 75.6116C65.2537 75.8075 65.9719 76.0377 66.4633 75.9381C66.9547 75.8419 66.0372 74.3711 66.1059 73.9793C66.1712 73.5876 67.6385 73.8178 67.6385 73.8178C67.6385 73.8178 65.9409 69.1168 62.6454 65.0721C59.3499 61.024 60.4564 62.0721 61.1128 62.3333C61.7657 62.591 62.5801 62.591 62.9409 62.3333C63.3018 62.0721 63.6592 61.5807 63.8894 61.5154C64.1162 61.4467 64.5732 61.3195 64.508 60.8316C64.4392 60.3401 62.7141 57.6666 60.2983 56.3608C57.8825 55.0549 59.2193 57.079 59.4186 57.536C59.6145 57.9931 59.4495 59.0343 59.1574 59.1649C58.8619 59.2989 57.4289 58.7422 57.5904 58.2852C57.5904 58.2852 58.2777 58.481 58.3705 58.2852C58.4701 58.0893 58.4701 54.7285 58.4701 54.7285H58.9925V51.8281C58.9925 51.8281 58.7622 50.4054 58.8275 50.1374C58.8928 49.8694 59.1884 49.969 59.3808 49.6082C59.5767 49.2508 59.8069 48.9243 60.0028 49.2164C60.1987 49.5085 60.8172 51.1408 61.8619 52.2817C62.9066 53.4226 64.0475 54.7628 64.4736 55.9381C64.8963 57.1099 65.1574 57.1477 65.4873 58.5154C65.8138 59.8831 66.075 59.6219 66.1403 60.9312C66.2055 62.2371 66.4289 67.5566 66.4289 67.5566C66.4289 67.5566 66.6901 70.2989 67.6385 72.1924C68.587 74.0824 68.8138 75.4535 69.3705 75.8144C69.9238 76.1718 69.9891 73.6632 70.3155 71.6357C70.6454 69.6151 71.4598 63.5429 71.7519 61.0652C72.044 58.5841 73.2846 44.3401 73.2846 44.3401C73.2846 44.3401 73.9375 37.9278 72.9891 34.7938C72.0406 31.6632 69.3499 26.1477 67.1231 25.591C64.8997 25.0377 63.6592 26.701 61.343 28.9518C59.0269 31.2027 57.8 29.6048 57.075 27.7766C56.3499 25.9484 54.9787 22.0996 53.8035 20.3023C52.6282 18.5085 51.3567 17.9209 48.5148 17.9209C45.6729 17.9209 45.154 18.8659 44.5011 19.292C43.8482 19.7147 41.7588 20.2371 42.0509 22.6185C42.0509 22.6185 43.9444 22.3264 44.5939 22.7491C45.2502 23.1752 47.1746 24.3161 46.1299 25.4226C45.0887 26.5326 43.965 27.5669 43.965 27.5669V27.5704Z" fill="#87722D"/>
<path d="M38.1339 39.3265C38.1339 39.3265 37.8074 37.4364 36.9896 35.7045C36.1751 33.976 35.8796 32.9313 35.8796 32.9313L35.5875 33.5842C35.5875 33.5842 34.7387 31.8866 34.4775 30.9416C34.2164 29.9966 33.9896 29.409 33.8246 30.1925C33.6631 30.976 33.1373 29.409 33.694 28.0035C34.2473 26.6014 35.1958 27.7457 36.5016 29.1787C37.804 30.6151 38.8521 31.8248 41.3298 31.3986C41.3298 31.3986 39.7284 31.1718 38.4569 29.9931C37.1854 28.8179 35.127 26.0138 34.2817 25.9485C33.4329 25.8832 32.8487 25.9175 30.56 29.0516C28.2782 32.1821 27.5909 35.543 27.3607 37.5327C27.1339 39.5224 27.1958 41.7766 27.3607 41.8419C27.5257 41.9072 27.8487 41.7423 27.883 42.4296C27.9174 43.1169 28.1442 46.1821 28.9621 46.7354C28.9621 46.7354 29.1923 46.3746 29.4844 44.6461C29.4844 44.6461 30.1683 46.5395 30.8212 46.7354C30.8212 46.7354 30.9518 45.6598 30.8555 44.1581C30.8555 44.1581 31.67 45.756 32.292 46.0516C32.292 46.0516 32.5497 43.4742 32.615 41.8076C32.615 41.8076 32.6013 43.9485 33.5497 44.4536C33.5497 44.4536 34.0824 43.9313 33.6906 40.409C33.6906 40.409 34.7009 42.4949 34.0824 45.4639C34.0824 45.4639 33.2576 44.7595 32.9724 44.7801C32.694 44.8007 32.8452 46.3677 32.6253 46.7354C32.4088 47.1065 31.5394 46.2165 31.4088 45.976C31.2782 45.7354 31.2782 47.7629 31.103 48C30.9311 48.2371 30.0171 46.6083 29.8865 46.4742C29.7559 46.3471 29.127 48.2818 29.127 48.2818C29.127 48.2818 27.8212 46.9794 27.5394 42.9072C27.5394 42.9072 27.103 42.5602 28.1167 52.7079C29.127 62.8591 30.0755 70.8557 30.0755 70.8557C30.0755 70.8557 30.4638 70.9485 30.4363 66.9038C30.4363 66.9038 30.8246 67.0653 30.7284 65.2749C30.6287 63.4811 29.6837 52.5808 29.6837 52.5808C29.6837 52.5808 30.5016 56.5602 31.0205 60.5739C31.5428 64.5876 31.3779 66.7079 30.9861 67.0344C30.5978 67.3608 31.347 70.5567 30.2679 71.8969C30.2679 71.8969 30.5325 73.6907 30.7628 74.0516C30.9861 74.4124 31.1854 73.5911 31.4157 71.7698C31.6459 69.9416 31.5463 68.2131 31.5463 68.2131C31.5463 68.2131 32.0686 68.1787 32.1992 66.4467C32.3298 64.7182 31.2542 53.4261 31.0583 51.8935C31.0583 51.8935 32.4947 57.9278 32.5909 61.7148C32.6906 65.4983 33.1442 67.4571 32.1373 68.3711C32.1373 68.3711 31.9071 70.8179 32.2026 71.5052C32.2026 71.5052 32.9518 70.3299 33.1476 67.8179C33.3435 65.3093 32.9518 53.5602 32.4638 51.11C32.4638 51.11 33.694 55.8763 33.7696 59.3986C33.7696 59.3986 35.0583 54.7423 33.9346 50.0378C33.9346 50.0378 34.9449 53.1993 35.0755 55.5808C35.0755 55.5808 36.4054 54.7698 35.1751 47.9141C35.1751 47.9141 36.316 49.6117 36.316 53.8522C36.316 53.8522 38.1751 53.4914 36.6116 46.1203C36.6116 46.1203 37.8177 47.9141 37.9827 51.9622C37.9827 51.9622 39.5806 50.0687 37.591 43.8007C37.591 43.8007 38.8968 45.2371 39.3504 49.1547C39.3504 49.1547 40.3332 46.4124 38.3401 41.323C38.3401 41.323 39.883 42.9519 40.3332 47.0344C40.3332 47.0344 41.4707 44.0653 38.536 38.5189L38.1442 39.3334L38.1339 39.3265ZM27.969 41.1993C27.3538 41.1065 27.7559 38.4158 27.7559 38.4158C27.7559 38.4158 27.859 40.6564 28.5635 40.6083C28.5635 40.6083 28.5806 41.2921 27.969 41.1959V41.1993ZM29.072 40.2681C28.2714 40.0687 28.6494 36.8145 28.6494 36.8145C28.6494 36.8145 28.6734 39.9485 29.8521 39.5498C29.8521 39.5498 29.8762 40.4674 29.072 40.2681ZM30.3951 39.3299C29.6631 39.4571 29.5703 34.5773 29.5703 34.5773C29.5703 34.5773 30.1339 39.8832 30.914 37.9244C30.914 37.9244 31.1236 39.2062 30.3951 39.3299ZM31.2885 37.7595C30.4432 37.4055 30.2507 32.5739 30.2507 32.5739C30.2507 32.5739 31.2164 39.0344 31.8315 36.299C31.8315 36.299 32.1373 38.1134 31.2885 37.7595ZM33.0858 36.1581C32.6322 37.3368 31.2164 34.8385 31.0514 31.4193C31.0514 31.4193 32.8693 38.6804 32.8934 34.1547C32.8934 34.1547 33.5394 34.9828 33.0858 36.1615V36.1581ZM33.5738 34.2956C32.3985 32.6701 31.8281 30.0035 31.8281 30.0035C34.4019 36.8179 34.0927 31.7492 34.0927 31.7492C34.2542 32.9966 34.749 35.921 33.5738 34.2956ZM35.3676 43.2543C34.749 43.0206 34.5394 42.1718 34.5394 42.1718C36.072 43.6083 34.5394 38.2577 34.5394 38.2577C36.072 40.189 35.9793 43.4914 35.3676 43.2543ZM36.8487 40.189C36.3092 40.6358 35.6013 39.1065 35.6013 39.1065C36.9449 40.4502 35.7834 35.8316 35.7834 35.8316C35.7834 35.8316 37.3916 39.7423 36.8487 40.189Z" fill="white"/>
<path d="M36.6314 30.9416C36.6314 30.9416 37.5455 31.8797 37.3152 34.5739C37.3152 34.5739 36.5111 33.811 36.6314 30.9416Z" fill="white"/>
<path d="M37.9421 32.7595C37.9421 32.7595 38.9524 34.2062 38.6912 37.3711C38.6912 37.3711 37.7325 35.8282 37.9421 32.7595Z" fill="white"/>
<path d="M39.375 36.1649C39.375 36.1649 41.7564 37.567 41.107 44.9415C41.107 44.9415 40.485 39.6563 39.375 36.1649Z" fill="white"/>
<path d="M36.0234 60.0276C36.0234 60.0276 36.7176 58.8076 37.9375 57.897C39.154 56.9829 40.4393 56.0928 39.9616 57.33C39.9616 57.33 39.6523 58.2406 40.1746 59.1788C40.1746 59.1788 39.8963 59.5052 38.7417 59.6599C38.7417 59.6599 38.3946 59.0585 38.4427 58.2234C38.4427 58.2234 36.7898 59.354 36.0234 60.031V60.0276Z" fill="white"/>
<path d="M38.3299 65.0103C38.3299 65.0103 33.9107 70.1443 33.6289 72.8625C33.6289 72.8625 35.9107 72.1889 39.0035 67.5773C39.0035 67.5773 38.0207 70.7972 34.5396 74.3436C34.5396 74.3436 35.6289 76.5188 40.1066 69.2096C40.1066 69.2096 39.2165 72.5188 36.866 74.9106C36.866 74.9106 38.0619 74.5841 39.3471 73.8453C40.6289 73.103 40.7183 71.4295 41.3265 71.0137C41.3265 71.0137 41.3884 72.1443 40.5877 73.2542C40.5877 73.2542 41.1787 73.213 42.787 72.4501C44.3952 71.6907 44.8729 71.5807 44.9382 71.0343C44.9382 71.0343 44.3712 70.4707 44.1306 70.4707C43.8901 70.4707 44.0447 71.079 43.3025 70.6254C42.5671 70.1683 40.976 68.2955 40.976 68.2955C40.976 68.2955 40.9141 68.0137 41.1547 67.7731C41.3884 67.536 41.1306 67.3608 41.0653 67.079C41 66.7938 40.6289 66.1855 40.6083 65.5566C40.6083 65.5566 40.3746 65.0996 39.8488 65.5773C39.3265 66.0584 38.8282 65.5292 38.3265 65.0137L38.3299 65.0103Z" fill="white"/>
<path d="M45.3775 71.3849C45.3775 71.3849 44.728 72.2543 41.0029 73.7766C37.2812 75.299 35.2641 76.4742 34.7383 77.0619C34.7383 77.0619 35.9582 78.0619 41.5699 77.6942C47.1816 77.323 49.1816 75.189 49.1816 75.189C49.1816 75.189 48.0304 74.1237 47.7005 73.756C47.7005 73.756 46.0476 76.0619 38.5424 76.8247C38.5424 76.8247 45.8311 75.1512 47.2434 73.323L45.374 71.3883L45.3775 71.3849Z" fill="white"/>
<path d="M47.6426 77.0825C47.6426 77.0825 48.0549 78.7148 48.402 78.7148C48.7491 78.7148 49.9965 75.976 49.9965 75.976C49.9965 75.976 49.4226 76.1065 47.6426 77.0859V77.0825Z" fill="white"/>
<path d="M50.381 76.1684C50.381 76.1684 50.3398 77.5189 51.601 78.7148C51.601 78.7148 51.9274 78.3883 52.0752 77.5395C52.2298 76.6907 51.4051 76.9725 50.381 76.1684Z" fill="white"/>
<path d="M44.7905 69.9587C44.7905 69.9587 47.0311 72.9725 51.1445 75.7354C55.2579 78.4948 64.4332 77.7354 64.9555 77.0825C64.9555 77.0825 60.6531 74.3849 57.8662 73.4708C55.0792 72.5567 53.3404 70.4673 53.3404 70.4673L49.0311 65.8797L46.7699 68.0962C46.7699 68.0962 51.3369 72.5051 53.3851 74.1306C55.4297 75.756 61.062 76.6666 61.062 76.6666C61.062 76.6666 55.4503 76.7319 51.684 73.5773C47.9211 70.4227 46.1789 68.5739 46.1789 68.5739L44.7871 69.9553L44.7905 69.9587Z" fill="white"/>
<path d="M43.4678 69.9587L42.4885 68.9484L47.1895 64.6632C47.1895 64.6632 47.3854 64.0515 46.7084 64.378L42.162 68.5532C42.162 68.5532 41.4438 68.5945 41.7462 67.9862C42.0486 67.378 44.619 65.1168 44.619 65.1168C44.619 65.1168 46.5331 63.5086 45.5125 63.6151C44.4885 63.7251 43.3544 63.6117 43.3544 63.6117V62.9862H45.9249C45.9249 62.9862 46.7049 62.7697 47.1208 62.9862L49.0108 65.0103L43.4644 69.9587H43.4678Z" fill="white"/>
<path d="M52.7734 69.1615L53.4951 68.4467L55.1033 70.0584L54.3198 70.7079L52.7734 69.1615Z" fill="white"/>
<path d="M50.2168 66.5361L50.8285 65.9553L52.9006 68.0928L52.2993 68.6838L50.2168 66.5361Z" fill="white"/>
<path d="M50.3499 65.3677H49.8379V65.8797H50.3499V65.3677Z" fill="white"/>
<path d="M47.2549 60.3883C47.2549 60.3883 46.3752 61.433 45.7051 62.3952L46.6501 62.2646C46.6501 62.2646 47.1587 61.189 47.2549 60.3883Z" fill="white"/>
<path d="M48.1853 60.8316C48.1853 60.8316 47.8176 61.268 47.5977 62.8866L48.1853 62.3952V60.8282V60.8316Z" fill="white"/>
<path d="M48.8032 62.5773L48.7207 64.1615L49.1777 64.079L48.8032 62.5773Z" fill="white"/>
<path d="M49.8379 62.0894V64.732L50.4221 64.323V63.2784L49.8379 62.0894Z" fill="white"/>
<path d="M50.9414 61.2578L51.0239 63.5258L51.6424 63.1169V62.3883L50.9414 61.2578Z" fill="white"/>
<path d="M51.6426 60.4742L53.3917 62.0894L52.6563 62.3162L51.6426 60.4742Z" fill="white"/>
<path d="M48.7207 58.7285L49.4561 60.2131L49.6039 59.6082L48.7207 58.7285Z" fill="white"/>
<path d="M49.8379 60.2131L51.2193 58.8076L51.0716 59.6907L49.8379 60.2131Z" fill="white"/>
<path d="M47.7246 54.1924V54.7285L49.0786 56.1512L49.4703 56.3299V55.7732L47.7246 54.1924Z" fill="white"/>
<path d="M50.4223 55.9691L50.3398 56.4433H50.7969L52.5185 54.6976L52.5907 54.1924L52.0684 54.3024L50.4223 55.9691Z" fill="white"/>
<path d="M47.4668 56L47.6627 56.7217L49.996 58.7285L52.4393 56.8488L52.5183 56.4433L52.0682 56.5258L50.0304 58.0103L48.1197 56.3299L47.4668 56Z" fill="white"/>
<path d="M50.6055 64.9244L56.1931 70.0516L57.2171 69L52.3477 64.4983L52.6845 64.1615L57.6123 68.5567L58.0556 67.9622L53.9422 63.7354L56.224 63.5258V63.0481H55.5677L55.4233 63.1925H53.6295L53.2927 62.8041H52.7739L50.6055 64.9244Z" fill="white"/>
<path d="M61.4014 64.347C61.4014 64.347 66.0062 69.6873 66.4976 72.8316C66.4976 72.8316 66.1917 73.0756 65.0302 72.2818C63.8722 71.4879 61.0783 67.4879 61.0783 67.4879C61.0783 67.4879 62.611 71.8591 65.2502 73.8213L65.5457 74.9072C65.5457 74.9072 63.0027 74.8969 59.9684 69.055C59.9684 69.055 60.2948 71.5017 63.4289 75.0927C63.4289 75.0927 63.1643 75.2749 62.0199 74.5773C60.8825 73.8866 60.9443 74.3092 60.4529 73.8213C59.9649 73.3299 59.2776 71.1512 58.6935 70.8556C58.6935 70.8556 59.6385 73.1031 59.6075 73.4295C59.5766 73.756 59.1333 73.2508 58.4323 73.0068C57.7313 72.7629 56.8825 72.4158 56.0508 71.9793C55.2192 71.536 54.8412 71.5292 55.0405 70.8556C55.233 70.1821 55.4976 70.2474 55.611 70.5395C55.7244 70.835 56.0337 71.2371 56.5904 70.7079C57.1471 70.1787 58.6007 68.4467 58.6007 68.4467V67.1787C58.6007 67.1787 59.0405 66.0206 59.0577 65.4467C59.0577 65.4467 59.4323 65.244 59.8069 65.622C60.1814 66.0034 61.2055 65.9312 61.4048 64.347H61.4014Z" fill="white"/>
<path d="M69.1199 46.7354C69.7728 46.5395 70.4567 44.646 70.4567 44.646C70.7488 46.3746 70.979 46.7354 70.979 46.7354C71.7935 46.1821 72.0237 43.1168 72.0546 42.4295C72.089 41.7457 72.4155 41.9072 72.5804 41.8419C72.7419 41.7766 72.8072 39.5258 72.5804 37.5326C72.3502 35.5429 71.6663 32.1821 69.3811 29.0515C67.0959 25.9175 66.5082 25.8866 65.6594 25.9484C64.8141 26.0137 62.7557 28.8179 61.4842 29.9931C60.2127 31.1684 58.6113 31.3986 58.6113 31.3986C61.0924 31.8247 62.1337 30.6151 63.4395 29.1787C64.7453 27.7457 65.6904 26.6014 66.2471 28.0034C66.8038 29.4055 66.2814 30.9759 66.1165 30.1924C65.9515 29.4089 65.7282 29.9966 65.4636 30.9416C65.2024 31.8866 64.3536 33.5842 64.3536 33.5842L64.0581 32.9313C64.0581 32.9313 63.7694 33.9759 62.9515 35.7045C62.1371 37.4364 61.8106 39.3265 61.8106 39.3265L61.4189 38.512C58.4807 44.0584 59.6216 47.0275 59.6216 47.0275C60.0684 42.945 61.6113 41.3161 61.6113 41.3161C59.6216 46.4055 60.601 49.1478 60.601 49.1478C61.0581 45.2337 62.3605 43.7938 62.3605 43.7938C60.3708 50.0619 61.9687 51.9553 61.9687 51.9553C62.1337 47.9072 63.3399 46.1134 63.3399 46.1134C61.7728 53.488 63.6354 53.8454 63.6354 53.8454C63.6354 49.6048 64.7763 47.9072 64.7763 47.9072C63.546 54.7663 64.8725 55.5739 64.8725 55.5739C65.0065 53.1924 66.0134 50.0309 66.0134 50.0309C64.8897 54.7354 66.1783 59.3917 66.1783 59.3917C66.2539 55.8694 67.4842 51.1031 67.4842 51.1031C66.9996 53.5533 66.6045 65.299 66.8003 67.811C66.9962 70.323 67.7454 71.4983 67.7454 71.4983C68.0409 70.8144 67.8141 68.3643 67.8141 68.3643C66.8038 67.4502 67.2574 65.4914 67.357 61.7079C67.4567 57.921 68.8897 51.8866 68.8897 51.8866C68.6938 53.4192 67.6148 64.7113 67.7454 66.4399C67.8794 68.1718 68.3983 68.2062 68.3983 68.2062C68.3983 68.2062 68.2986 69.9347 68.5289 71.7629C68.7557 73.5876 68.955 74.4055 69.1783 74.0447C69.4086 73.6838 69.6697 71.89 69.6697 71.89C68.5941 70.5533 69.3467 67.3539 68.9515 67.0275C68.5598 66.701 68.3948 64.5808 68.9172 60.567C69.4395 56.5533 70.2539 52.5739 70.2539 52.5739C70.2539 52.5739 69.3089 63.4742 69.2093 65.268C69.113 67.0618 69.5048 66.8969 69.5048 66.8969C69.4704 70.9416 69.8622 70.8488 69.8622 70.8488C69.8622 70.8488 70.8072 62.8488 71.821 52.701C72.8313 42.5533 72.3948 42.9003 72.3948 42.9003C72.1131 46.9725 70.8072 48.2749 70.8072 48.2749C70.8072 48.2749 70.1783 46.3402 70.0478 46.4673C69.9172 46.5979 69.0031 48.2302 68.8313 47.9931C68.656 47.756 68.656 45.7285 68.5254 45.9691C68.3948 46.2096 67.5254 47.0996 67.3055 46.7285C67.089 46.3574 67.2402 44.7938 66.955 44.7732C66.6766 44.7526 65.845 45.457 65.845 45.457C65.2264 42.488 66.2368 40.4021 66.2368 40.4021C65.845 43.9244 66.3811 44.4467 66.3811 44.4467C67.3261 43.9416 67.3124 41.8007 67.3124 41.8007C67.3742 43.4673 67.6354 46.0447 67.6354 46.0447C68.2608 45.7491 69.0753 44.1512 69.0753 44.1512C68.9756 45.6529 69.1062 46.7285 69.1062 46.7285L69.1199 46.7354ZM63.0924 40.1856C62.5495 39.7388 64.1612 35.8282 64.1612 35.8282C64.1612 35.8282 62.9962 40.4467 64.3433 39.1031C64.3433 39.1031 63.6354 40.6323 63.0959 40.1856H63.0924ZM65.4017 42.1684C65.4017 42.1684 65.1921 43.0172 64.577 43.2509C63.9618 43.4845 63.8691 40.1856 65.4017 38.2543C65.4017 38.2543 63.8691 43.6048 65.4017 42.1684ZM71.3811 40.6117C72.0821 40.6598 72.1887 38.4192 72.1887 38.4192C72.1887 38.4192 72.5907 41.1065 71.979 41.2027C71.3673 41.2955 71.3845 40.6151 71.3845 40.6151L71.3811 40.6117ZM71.2917 36.8144C71.2917 36.8144 71.6698 40.0687 70.8691 40.268C70.0684 40.4673 70.0924 39.5498 70.0924 39.5498C71.2711 39.9484 71.2952 36.8144 71.2952 36.8144H71.2917ZM66.3673 34.2921C65.1887 35.9175 65.6835 32.9966 65.8484 31.7457C65.8484 31.7457 65.5392 36.8144 68.113 30C68.113 30 67.5426 32.6632 66.3673 34.2921ZM66.8553 36.1546C66.4017 34.9759 67.0512 34.1478 67.0512 34.1478C67.0718 38.6735 68.8897 31.4124 68.8897 31.4124C68.7213 34.8316 67.3089 37.3299 66.8588 36.1512L66.8553 36.1546ZM68.6526 37.756C67.8072 38.11 68.113 36.2955 68.113 36.2955C68.7213 39.0309 69.6904 32.5704 69.6904 32.5704C69.6904 32.5704 69.5014 37.4055 68.6526 37.756ZM69.0306 37.921C69.8072 39.8763 70.3742 34.5739 70.3742 34.5739C70.3742 34.5739 70.278 39.4536 69.546 39.3265C68.8175 39.2027 69.0306 37.921 69.0306 37.921Z" fill="white"/>
<path d="M63.31 30.9416C63.31 30.9416 62.3993 31.8797 62.6261 34.5739C62.6261 34.5739 63.4337 33.811 63.31 30.9416Z" fill="white"/>
<path d="M62.0032 32.7595C62.0032 32.7595 60.9929 34.2062 61.2541 37.3711C61.2541 37.3711 62.2128 35.8282 62.0032 32.7595Z" fill="white"/>
<path d="M60.5708 36.1649C60.5708 36.1649 58.1893 37.567 58.8388 44.9415C58.8388 44.9415 59.4608 39.6563 60.5708 36.1649Z" fill="white"/>
<path d="M59.5195 56.7835C59.5195 56.7835 62.5848 57.7835 63.6295 60.0893C63.6295 60.0893 62.3889 58.9141 61.3237 58.2612C61.3237 58.2612 61.2824 59.543 61.0625 59.6564C60.846 59.7629 60.5401 59.5567 60.2377 59.5086C59.9319 59.4571 59.6054 59.3711 59.6707 59.0653C59.7395 58.7629 60.2171 57.9794 59.5195 56.7835Z" fill="white"/>
<path d="M58.326 59.512C56.8002 58.9518 56.8655 57.3676 56.8655 57.3676C57.4119 57.969 57.9515 57.8762 57.9515 57.8762V53.7216H58.6044C58.4497 52.024 58.1473 49.4157 58.1473 49.4157C58.515 49.914 58.7556 49.6975 58.7556 49.6975C58.5597 49.0893 58.2985 45.9999 58.2985 45.9999C58.2985 45.9999 57.8861 46.457 57.2538 47.457C56.6215 48.457 56.5356 48.8281 56.4944 48.3058C56.4497 47.7834 55.8862 48.6941 55.8862 48.6941L53.515 51.9587L53.082 54.5463V58.0893L53.6662 57.6322C53.9274 58.3951 53.3913 59.701 53.3913 59.701C55.3776 59.6597 55.4944 58.4157 55.6662 59.3298C55.8415 60.2439 55.3844 60.3092 54.9858 60.8316C54.5906 61.3539 55.2573 61.591 55.2573 61.591L55.4944 62.0859C56.1679 61.0996 56.4532 61.5463 56.4532 61.5463L57.0855 66.1649H57.8793V67.2096H58.058C58.192 66.5979 58.3673 66.5498 58.5185 65.8762C58.6731 65.1993 58.8037 65.0927 58.2367 64.158C57.6731 63.2199 57.9549 62.3126 57.9549 62.3126C59.0648 63.0584 59.436 64.3436 59.436 64.3436L58.8037 64.5463C59.9996 65.2886 60.5666 65.9175 60.869 64.5463C61.1748 63.1786 59.3879 62.5257 59.0855 61.5876C58.7796 60.6529 60.5425 60.9553 61.4772 61.2508C62.4119 61.5429 61.0408 61.8556 61.0408 61.8556C62.2607 62.4261 62.9343 62.3298 63.1508 61.3883C63.3707 60.4501 59.8449 60.0652 58.3226 59.5051L58.326 59.512ZM56.3123 51.9896C56.0511 52.3161 55.0717 53.0343 55.1027 53.7834C55.1027 53.7834 54.7109 52.7731 55.5253 51.0102C55.5253 51.0102 56.3741 50.9862 56.4703 50.5635C56.57 50.1408 56.4703 50.5635 56.649 49.3608C56.649 49.3608 56.9927 50.6494 57.4841 51.3023H56.649C56.649 51.3023 56.5666 51.6597 56.3088 51.9896H56.3123Z" fill="white"/>
<path d="M46.7074 58.0894V54.5464L46.2744 51.9588C46.0716 50.7526 45.5149 49.7148 45.3775 49.8935C45.2435 50.0756 44.9685 50.4124 44.9685 50.4124L43.8998 48.6907C43.8998 48.6907 43.3362 47.7766 43.2916 48.3024C43.2503 48.8248 43.161 48.4536 42.5287 47.4536C41.8964 46.4536 41.484 45.9966 41.484 45.9966C41.484 45.9966 41.2228 49.0859 41.027 49.6942C41.027 49.6942 41.2675 49.9107 41.6352 49.4124C41.6352 49.4124 41.3328 52.0206 41.1816 53.7182H41.8345V57.8729C41.8345 57.8729 42.3809 57.9656 42.9239 57.3643C42.9239 57.3643 42.9892 58.9485 41.4634 59.5086C39.9376 60.0687 36.35 60.4708 36.6352 61.3918C36.8448 62.0791 37.0167 62.1959 38.2297 61.8591C38.2297 61.8591 37.374 61.5464 38.3088 61.2543C39.2435 60.9588 41.0063 60.6564 40.7005 61.5911C40.3981 62.5258 38.6146 63.1787 38.917 64.5498C39.2194 65.921 39.7899 65.2921 40.9823 64.5498L40.35 64.3471C40.35 64.3471 40.7211 63.0619 41.8311 62.3162C41.8311 62.3162 42.1163 63.2234 41.5493 64.1615C40.9857 65.0962 41.1129 65.2062 41.2675 65.8797C41.4187 66.5533 41.594 66.598 41.7314 67.2131H41.9101V66.1684H42.7074L43.3397 61.5498C43.3397 61.5498 43.6215 61.1031 44.2916 62.0894L44.5321 61.5945C44.5321 61.5945 45.2022 61.3574 44.8002 60.8351C44.4015 60.3127 43.9445 60.2474 44.1198 59.3334C44.2916 58.4193 44.4153 59.6598 46.4015 59.7045C46.4015 59.7045 45.862 58.3986 46.1232 57.6358L46.7108 58.0928L46.7074 58.0894ZM44.6971 53.7835C44.728 53.0309 43.752 52.3162 43.4909 51.9897C43.2297 51.6632 43.1472 51.3024 43.1472 51.3024H42.3191C42.807 50.6495 43.1472 49.3608 43.1472 49.3608C43.3294 50.5636 43.2297 50.1375 43.3294 50.5636C43.4256 50.9863 44.2744 51.0103 44.2744 51.0103C45.0888 52.7698 44.7005 53.7835 44.7005 53.7835H44.6971Z" fill="white"/>
<path d="M58.9863 32.2921C58.9863 32.2921 59.7698 32.2061 59.7698 33.512C59.7698 34.8178 59.4468 35.5154 59.4468 35.5154C59.4468 35.5154 59.3609 33.1855 58.9863 32.2921Z" fill="white"/>
<path d="M42.3164 44.8041V45.7044L43.5535 47.2817C43.5535 47.2817 43.4332 46.0927 42.3164 44.8041Z" fill="white"/>
<path d="M47.3024 19.8488C47.3024 19.9829 47.1959 20.0928 47.0584 20.0928C46.921 20.0928 46.8145 19.9829 46.8145 19.8488C46.8145 19.7148 46.9244 19.6049 47.0584 19.6049C47.1925 19.6049 47.3024 19.7148 47.3024 19.8488Z" fill="white"/>
<path d="M58.2133 31.7044C57.9521 29.9416 56.8456 28.3333 56.8456 28.3333H56.148C55.715 25.7457 53.7322 23.2646 53.7322 23.2646H54.2099C54.124 22.6117 53.3164 22.1134 53.3164 22.1134L54.2099 22.1581C53.7528 21.1581 51.904 19.9175 51.904 19.9175L52.3576 19.7869C51.0312 17.6976 46.8113 18.4811 46.2477 18.701C45.6807 18.9175 45.2477 19.4192 44.7872 19.7216C44.3336 20.0275 44.3954 19.7422 43.9831 20.0275C43.5707 20.3093 43.9831 20.9622 43.9831 20.9622L43.2889 20.4639C42.4401 21.1615 42.5535 22.2543 42.5535 22.2543C43.2133 21.4295 43.6979 21.5292 43.6979 21.5292H45.2649C45.2236 22.0069 44.4161 22.0481 44.4161 22.0481V22.3333H45.3267V22.701H46.2202L47.4161 23.6563H48.4367C48.1961 23.2199 46.6119 21.8075 46.6119 21.8075C47.069 21.7216 48.4367 22.6563 49.2683 23.1134C50.093 23.5704 50.6016 23.6117 50.6016 23.6117V22.9381L51.5535 23.6117L51.0965 23.7216L50.1583 24.0687L51.2305 24.4605C50.6222 24.4398 49.5707 24.5979 49.5707 24.5979L48.0862 26.0172L47.9728 25.3642L46.5363 26.8316L46.6188 25.9347C43.3542 28.8282 41.691 30.3539 41.3336 33.5842C40.9728 36.8144 42.0518 41.4158 42.0518 41.4158H42.5535C43.447 46.3093 44.7906 48.9209 44.7906 48.9209L45.3405 48.4295C45.7941 50.2577 46.4779 50.4536 46.4779 50.4536L46.7082 49.7354C47.258 52.7044 47.5982 52.4433 47.5982 52.4433L48.0552 51.3024C48.7082 54.433 49.4745 54.189 49.4745 54.189L49.6085 52.6392C50.0484 53.1615 50.3405 54.7251 50.3405 54.7251C51.2855 54.1374 51.6463 51.5704 51.6463 51.5704L52.0071 52.5739C52.904 52.3299 53.3783 49.866 53.3783 49.866C53.4436 50.1752 53.6051 51.0103 53.6051 51.0103C54.1927 50.5532 54.4195 48.2337 54.4195 48.2337L55.014 48.7251C55.8319 47.189 56.4126 44.3333 56.4126 44.3333H56.9006C57.7838 42.8488 57.6532 39.811 57.6532 39.811H58.2168C58.8697 36.5189 58.4779 33.4639 58.2168 31.701L58.2133 31.7044ZM44.7597 20.6804H44.3198V20.2405H44.7597V20.6804ZM43.6635 38.7319C45.1652 41.0825 44.7735 41.9759 44.7735 41.9759L43.557 40.1477L43.6669 38.7354L43.6635 38.7319ZM43.5535 37.2096L44.5948 37.9416C44.5948 37.9416 44.7185 35.7148 44.8181 35.8316C45.6944 36.8522 45.2064 39.2165 45.2064 39.2165C44.3783 38.7148 43.5535 37.213 43.5535 37.213V37.2096ZM41.6669 36.1684L41.8319 35.0687C42.5054 36.4708 42.5054 38.5601 42.5054 38.5601C42.0037 38.3196 41.6669 36.1684 41.6669 36.1684ZM42.5054 32.2955C42.1583 32.9484 41.8319 33.4261 41.8319 33.4261C41.5913 32.5532 42.3164 31.2474 42.3164 31.2474L42.6601 30.945C42.6601 30.945 42.8559 31.6426 42.5054 32.2955ZM43.5501 42.3024V41.433C44.5982 42.4776 45.4195 44.945 45.4195 44.945C44.5467 44.2818 43.5501 42.3024 43.5501 42.3024ZM44.3336 31.055L43.8559 31.4192C44.0071 29.2199 45.7253 28.0069 45.7253 28.0069C44.9625 29.0756 44.3336 31.055 44.3336 31.055ZM55.0552 26.5086L55.6222 28.0069C55.6222 28.0069 54.8147 27.378 54.5363 26.2921L55.0552 26.5086ZM53.9899 25.378C53.9899 25.378 52.904 24.811 51.99 24.2027H52.9453L53.9899 25.378ZM52.6979 28.9003C52.6979 28.9003 53.5776 29.7697 53.6875 30.2921C53.7975 30.8144 53.1652 32.1821 53.1652 32.1821C53.1446 31.811 52.6669 30.8797 52.557 30.2233C52.447 29.5704 52.6979 28.8969 52.6979 28.8969V28.9003ZM51.8834 24.9072L53.4023 26.1787L53.5123 26.8316C53.5123 26.8316 51.99 25.9381 51.8834 24.9072ZM51.2305 20.0756C51.2305 20.0756 52.0106 20.5842 52.3817 21.3368C52.3817 21.3368 51.3714 20.567 50.6051 20.0034L51.2305 20.0756ZM46.8972 20.9931C45.9315 20.9931 45.8319 19.9484 45.8319 19.9484C45.8319 19.9484 45.6051 19.9656 45.1618 20.4639C45.1618 20.4639 45.2752 19.5086 46.2374 19.2337C47.203 18.9553 49.6016 19.591 49.6016 19.591H47.7082C47.7082 19.591 47.8559 20.9931 46.8937 20.9931H46.8972ZM49.4917 20.2405H49.9144L50.99 21.1993C50.99 21.1993 50.069 21.0584 49.4917 20.2405ZM51.4951 23.0034L52.0312 22.3952L51.7047 21.7869H52.0724L52.9418 22.7663L51.4917 23.0034H51.4951ZM51.9693 36.8179C52.2958 36.8419 53.3405 35.0687 53.3405 35.0687C53.3405 35.0687 53.7357 36.622 51.9728 38.5601C51.9728 38.5601 50.6119 37.4742 50.6051 35.6254C50.6051 35.6254 51.6429 36.7972 51.9693 36.8213V36.8179ZM50.6051 28.213C51.0243 29.7216 49.9144 30.1409 49.9144 30.1409C49.6635 28.8144 50.6051 28.213 50.6051 28.213ZM50.1858 31.9484C50.1858 31.9484 50.4607 32.8625 50.447 33.6632C50.4332 34.4673 50.0312 35.378 50.0312 35.378C50.0312 35.378 49.6223 34.4914 49.5776 33.6426C49.5363 32.7972 50.1858 31.9484 50.1858 31.9484ZM48.1205 38.9313C48.4882 38.89 49.1308 36.9587 49.1308 36.9587C49.1308 36.9587 49.7769 38.9416 48.3611 40.5567C48.3611 40.5567 47.0793 39.5739 47.0346 37.9416C47.0346 37.9416 47.7528 38.9725 48.1205 38.9313ZM46.447 30.9484C46.5329 30.3196 47.4058 29.622 47.4058 29.622C47.6223 31.079 46.9693 32.6666 46.9247 32.5773C46.88 32.488 46.3611 31.5773 46.447 30.9484ZM46.5982 33.2577C47.5982 34.1031 47.1652 36.457 47.1652 36.457C46.7494 36.3093 46.3164 34.5807 46.3164 34.5807L46.5982 33.2577ZM46.447 46.591C46.99 46.024 47.6222 49.6357 47.6222 49.6357C46.471 48.4845 46.447 46.591 46.447 46.591ZM48.4917 46.0481C48.4917 46.0481 46.5123 44.8488 46.447 43.1752C46.447 43.1752 47.3817 44.7423 47.8628 44.7216C48.3405 44.6976 48.6016 42.1787 48.6016 42.1787C48.6016 42.1787 49.8628 42.9862 48.4917 46.0515V46.0481ZM49.6875 49.3677C49.6875 49.3677 48.88 49.024 49.1858 46.5876L49.6875 47.0412V49.3642V49.3677ZM50.3405 52.3539L50.1343 50.3539L50.4229 49.6357C51.1137 51.1787 50.3405 52.3539 50.3405 52.3539ZM50.9521 44.3264C50.9521 44.3264 49.6463 43.6529 49.6875 41.5223C49.6875 41.5223 50.4058 42.9587 50.8387 42.9141C51.2752 42.8694 52.2133 40.5601 52.2133 40.5601C52.2133 40.5601 52.581 42.4811 50.9521 44.3299V44.3264ZM51.9728 50.9416V48.8969L52.7563 47.6804C52.8456 49.8797 51.9728 50.945 51.9728 50.945V50.9416ZM51.9728 46.8316V45.4398L52.7975 43.5464C52.7975 43.5464 53.2339 45.0687 51.9728 46.8316ZM55.4779 42.6976L54.4539 44.7216C54.4539 44.7216 54.4779 42.3917 55.4779 40.8935V42.6976ZM53.825 41.4364C53.825 41.4364 52.691 40.3058 53.0862 38.7388C53.0862 38.7388 53.3027 39.5636 53.8903 39.6976C54.4779 39.8282 55.4779 37.945 55.4779 37.945C55.4779 37.945 55.8697 39.1924 53.825 41.4364ZM55.368 36.0412C55.0209 35.9519 53.9556 33.5773 54.1515 33.4502C54.2546 33.3814 54.8697 34.9931 55.4573 34.4089C56.0415 33.8213 56.2339 32.2612 56.2614 32.299C56.935 33.3883 55.7185 36.1271 55.368 36.0412ZM55.9109 43.1752C56.2408 40.8488 56.9143 39.9965 56.9143 39.9965C57.1102 41.9794 55.9109 43.1752 55.9109 43.1752ZM56.9143 36.8213V34.6907L57.2752 33.9381C57.9418 34.8831 56.9143 36.8179 56.9143 36.8179V36.8213ZM57.2752 39.0653L57.3954 36.9622L57.7425 36.8213C58.069 37.6907 57.2752 39.0653 57.2752 39.0653ZM57.8284 32.6701C57.8284 32.6701 56.9143 31.4433 56.7185 30.0103L57.2408 30.2337C57.2408 30.2337 57.8937 31.0378 57.8284 32.6701Z" fill="white"/>
<path d="M46.707 52.3471C46.707 52.3471 47.7723 52.9347 47.6177 53.7835C47.6177 53.7835 46.9441 54.0619 46.707 52.3471Z" fill="white"/>
<path d="M38.6997 87.2646C38.6997 87.4914 38.5142 87.6769 38.2874 87.6769C38.0606 87.6769 37.875 87.4914 37.875 87.2646C37.875 87.0378 38.0606 86.8488 38.2874 86.8488C38.5142 86.8488 38.6997 87.0343 38.6997 87.2646Z" fill="white"/>
<path d="M48.8555 95.3883C48.8555 95.6185 48.67 95.8006 48.4431 95.8006C48.2163 95.8006 48.0273 95.6151 48.0273 95.3883C48.0273 95.1615 48.2129 94.9759 48.4431 94.9759C48.6734 94.9759 48.8555 95.1615 48.8555 95.3883Z" fill="white"/>
<path d="M54.8008 88.4881C54.8008 88.7184 54.6187 88.9039 54.3885 88.9039C54.1582 88.9039 53.9727 88.7184 53.9727 88.4881C53.9727 88.2579 54.1548 88.0757 54.3885 88.0757C54.6221 88.0757 54.8008 88.2579 54.8008 88.4881Z" fill="white"/>
<path d="M56.1607 88.3573C56.1607 88.5876 55.9786 88.7697 55.7483 88.7697C55.5181 88.7697 55.3359 88.5876 55.3359 88.3573C55.3359 88.1271 55.5215 87.9415 55.7483 87.9415C55.9751 87.9415 56.1607 88.1271 56.1607 88.3573Z" fill="white"/>
<path d="M70.502 82.6941C70.502 82.9209 70.313 83.1065 70.0862 83.1065C69.8594 83.1065 69.6738 82.9209 69.6738 82.6941C69.6738 82.4673 69.856 82.2817 70.0862 82.2817C70.3164 82.2817 70.502 82.4673 70.502 82.6941Z" fill="white"/>
<path d="M70.502 83.89C70.502 84.1168 70.313 84.3058 70.0862 84.3058C69.8594 84.3058 69.6738 84.1168 69.6738 83.89C69.6738 83.6632 69.856 83.4776 70.0862 83.4776C70.3164 83.4776 70.502 83.6597 70.502 83.89Z" fill="white"/>
<path d="M71.2229 83.7147C71.4507 83.7147 71.6353 83.5301 71.6353 83.3023C71.6353 83.0746 71.4507 82.89 71.2229 82.89C70.9952 82.89 70.8105 83.0746 70.8105 83.3023C70.8105 83.5301 70.9952 83.7147 71.2229 83.7147Z" fill="white"/>
<path d="M30.8233 90.9176C30.8233 91.1444 30.6411 91.3299 30.4143 91.3299C30.1875 91.3299 30.002 91.1444 30.002 90.9176C30.002 90.6908 30.1841 90.5052 30.4143 90.5052C30.6446 90.5052 30.8233 90.6908 30.8233 90.9176Z" fill="white"/>
<path d="M26.2915 90.2955C26.2915 90.5223 26.106 90.7079 25.8792 90.7079C25.6524 90.7079 25.4668 90.5223 25.4668 90.2955C25.4668 90.0687 25.6489 89.8797 25.8792 89.8797C26.1094 89.8797 26.2915 90.0653 26.2915 90.2955Z" fill="white"/>
<path d="M25.0547 89.5635C25.0547 89.7903 24.8726 89.9759 24.6389 89.9759C24.4053 89.9759 24.2266 89.7903 24.2266 89.5635C24.2266 89.3367 24.4121 89.1477 24.6389 89.1477C24.8657 89.1477 25.0547 89.3333 25.0547 89.5635Z" fill="white"/>
<path d="M40.5901 88.7835H37.6107C37.6107 88.7835 36.5214 89.3092 36.3496 89.6563C36.3496 89.6563 37.0025 87.1168 37.4492 85.9862C37.4492 85.9862 37.4595 85.1752 36.8032 85.7182L35.1468 90.8075C35.1468 90.8075 33.1674 90.1786 31.6485 89.3299L32.8891 86.7835C32.8891 86.7835 32.9544 85.8694 32.2121 86.457L30.9956 88.9999L29.9303 88.5223L30.408 87.0652C30.408 87.0652 31.1056 85.0859 30.5179 84.6735C29.9303 84.2577 28.6898 84.5876 28.1468 85.2817C27.6004 85.9793 27.4733 86.6975 27.6451 87.1958C27.8203 87.6941 28.6039 88.9896 26.8856 88.7663C25.164 88.5429 25.9509 86.7147 25.9509 86.7147C25.9509 86.7147 26.1674 86.2336 25.7138 85.8213C25.7138 85.8213 24.8856 86.646 24.9509 87.4089C25.0162 88.1718 25.1674 89.1271 26.5592 89.3883C27.9544 89.6529 28.6073 88.8453 28.7585 88.347C28.9131 87.8453 27.2808 86.2371 29.8032 85.1924C29.8032 85.1924 30.3014 85.6494 29.8032 86.9965C29.3014 88.347 29.1056 88.4776 29.1949 88.8247C29.2843 89.1718 34.2396 91.6529 39.6554 93.0446C39.6554 93.0446 39.8513 92.9347 40.1571 92.3711C40.463 91.8041 41.1606 89.1168 41.1606 89.1168C41.1606 89.1168 40.9819 88.78 40.5935 88.78L40.5901 88.7835ZM39.3289 92.134C39.3289 92.134 37.3461 91.6666 35.8272 91.0893C35.8272 91.0893 37.0231 89.5601 38.1124 89.5601H40.1571C40.1571 89.5601 39.8547 91.2852 39.3324 92.134H39.3289Z" fill="white"/>
<path d="M48.226 90.7009V93.3985C48.226 93.3985 45.446 93.5703 44.3566 93.048C44.3566 93.048 44.7724 91.7422 44.8137 89.6563C44.8137 89.6563 42.5078 89.2404 41.6384 91.0927C40.769 92.9415 42.3772 93.6803 43.5319 93.615C43.5319 93.615 43.6384 95.5291 42.2432 95.4673C42.2432 95.4673 41.6796 95.8384 42.2432 96.2267C42.2432 96.2267 44.1367 96.3367 44.1607 93.6837C44.1607 93.6837 46.0302 94.292 48.9889 94.1167V90.7009C48.9889 90.7009 48.6625 89.9827 48.226 90.7009ZM43.8137 93.048C43.8137 93.048 42.3772 93.0721 42.0714 92.2679C41.7656 91.4638 42.8343 90.5051 43.9855 90.2405C43.9855 90.2405 43.9649 92.1339 43.8137 93.048Z" fill="white"/>
<path d="M50.1367 88.3951V93.7903C50.1367 93.7903 50.4804 94.6632 50.7725 93.7903V88.3951C50.7725 88.3951 50.4529 87.6769 50.1367 88.3951Z" fill="white"/>
<path d="M51.3811 86.2851C51.3811 86.2851 50.3502 85.9999 50.0306 86.5876V87.3711H49.5117V87.8247H51.3811V87.2611H50.3811V86.8453H51.3811C51.3811 86.8453 51.7729 86.5188 51.3811 86.2817V86.2851Z" fill="white"/>
<path d="M65.7832 87.5258L67.4602 91.4846C67.4602 91.4846 67.9172 92.2921 67.1131 92.7698C67.1131 92.7698 66.742 93.3368 67.4396 93.4021C67.4396 93.4021 68.9653 92.3574 67.8966 90.5945L74.1818 87.0687C74.1818 87.0687 74.5942 86.6564 74.2712 85.8969C73.9447 85.134 72.986 83.7388 72.986 83.7388C72.986 83.7388 72.2231 83.2199 72.3124 84.1581L73.6183 86.2681C73.6183 86.2681 73.7042 86.9828 72.9653 86.7251L71.5976 84.4846C71.5976 84.4846 70.7901 84.11 71.0306 84.9828L72.4258 87.1787C72.4258 87.1787 72.144 87.6598 71.6183 87.6598L70.0925 85.354C70.0925 85.354 69.3537 84.921 69.5323 85.787L70.9275 88.0791L67.6389 89.8316L66.5083 87.3093C66.5083 87.3093 65.9413 86.8076 65.7901 87.5292L65.7832 87.5258Z" fill="white"/>
<path d="M64.6731 87.2408C62.0408 87.502 60.8656 90.4642 60.8656 90.4642L59.8003 86.7872C59.0374 86.1996 58.9549 87.0243 58.9549 87.0243L60.6731 92.0071C58.8656 92.7906 56.7556 92.7906 56.7556 92.7906C56.5804 88.7219 55.9756 89.3748 55.9756 89.3748C55.9756 89.3748 53.7109 90.4642 53.7109 92.2923C53.7109 94.1205 55.7487 93.9006 55.7487 93.9006V93.0518C54.8106 93.0518 54.2745 92.8594 54.3879 91.9865C54.4979 91.1171 55.7487 90.4882 55.7487 90.4882C56.8106 93.9659 54.9171 93.8387 58.5838 93.337C62.2505 92.8387 65.7797 91.1308 65.7797 91.1308C64.8656 88.8353 64.6697 87.2442 64.6697 87.2442L64.6731 87.2408ZM64.9549 90.7666C64.9549 90.7666 62.0168 91.6154 61.4773 91.9831C61.4773 91.9831 61.0202 89.8216 64.0855 88.3576C64.0855 88.3576 64.6972 90.2649 64.9549 90.6807C65.2161 91.093 64.9549 90.7666 64.9549 90.7666Z" fill="white"/>
</g>
<defs>
<clipPath id="clip0_1344_10294">
<rect width="100" height="100" fill="white"/>
</clipPath>
</defs>
</svg>
