<svg width="100" height="41" viewBox="0 0 100 41" fill="none" xmlns="http://www.w3.org/2000/svg">
<g id="g3">
<path id="path5" d="M92.5221 28.6949C92.2522 28.6949 92.0723 28.5058 92.0723 28.2471V15.0618H87.5736C87.3037 15.0618 87.1237 14.8827 87.1237 14.614V12.793C87.1237 12.5243 87.3037 12.3452 87.5736 12.3452H99.55C99.8199 12.3452 99.9999 12.5343 99.9999 12.793V14.614C99.9999 14.8827 99.8199 15.0618 99.55 15.0618H95.0514V28.2471C95.0514 28.5158 94.8614 28.6949 94.6015 28.6949H92.5221ZM58.0425 22.1172L55.6832 15.3703L53.3039 22.1172H58.0425ZM63.2809 28.1675C63.3809 28.4362 63.2209 28.7048 62.931 28.7048H60.7916C60.4817 28.7048 60.3018 28.5655 60.1918 28.2769L58.9822 24.794H52.3442L51.1345 28.267C51.0346 28.5556 50.8446 28.6949 50.5347 28.6949H48.5253C48.2554 28.6949 48.0755 28.4262 48.1754 28.1575L53.7438 12.7432C53.8437 12.4546 54.0337 12.3352 54.3436 12.3352H57.0928C57.4027 12.3352 57.6026 12.4546 57.7126 12.7432L63.2809 28.1675ZM79.2461 26.4857C80.5557 26.4857 81.4454 25.8489 82.1652 24.7642L78.8362 21.2017C77.5566 21.9182 76.7369 22.6346 76.7369 24.0676C76.7369 25.4906 77.8865 26.4857 79.2461 26.4857ZM80.1658 14.5046C79.0962 14.5046 78.4763 15.1813 78.4763 16.0769C78.4763 16.7734 78.8462 17.3805 79.686 18.286C81.1455 17.4501 81.7654 16.9327 81.7654 16.0371C81.7654 15.2012 81.2355 14.5046 80.1658 14.5046ZM89.2731 28.1277C89.543 28.4163 89.3731 28.7048 89.0432 28.7048H86.4339C86.0841 28.7048 85.9041 28.6252 85.6742 28.3565L84.1146 26.635C83.065 28.0282 81.6054 29.0631 79.1861 29.0631C76.187 29.0631 73.8177 27.2619 73.8177 24.1771C73.8177 21.8087 75.0974 20.535 77.0268 19.4702C76.0771 18.3855 75.6472 17.2411 75.6472 16.2361C75.6472 13.6985 77.4366 11.967 80.1258 11.967C82.875 11.967 84.5645 13.5791 84.5645 15.9773C84.5645 18.0173 83.085 19.1617 81.5254 20.0275L83.8247 22.5053L85.1143 20.2563C85.2743 19.9876 85.4642 19.8881 85.7941 19.8881H87.7835C88.1134 19.8881 88.2934 20.117 88.0935 20.4653L85.7941 24.386L89.2731 28.1277ZM68.7593 28.6949C69.0292 28.6949 69.2091 28.5058 69.2091 28.2471V15.0618H73.7078C73.9777 15.0618 74.1576 14.8827 74.1576 14.614V12.793C74.1576 12.5243 73.9777 12.3452 73.7078 12.3452H61.7314C61.4614 12.3452 61.2815 12.5343 61.2815 12.793V14.614C61.2815 14.8827 61.4614 15.0618 61.7314 15.0618H66.23V28.2471C66.23 28.5158 66.42 28.6949 66.6799 28.6949H68.7593Z" fill="#969696"/>
<path id="path9" d="M7.94762 36.6556C11.4366 39.3424 15.8053 40.9545 20.5538 40.9545C25.7423 40.9545 30.4809 39.0339 34.0998 35.8894C34.1398 35.8496 34.1198 35.8297 34.0798 35.8496C32.4603 36.9243 27.8416 39.2827 20.5638 39.2827C14.2357 39.2827 10.2469 37.8796 7.9876 36.6258C7.93762 36.5959 7.91762 36.6258 7.94762 36.6556ZM21.9534 37.7005C27.0119 37.7005 32.5702 36.3272 35.8992 33.6106C36.809 32.8742 37.6787 31.889 38.4485 30.5655C38.8983 29.7993 39.3282 28.8937 39.6881 28.0081C39.7081 27.9683 39.6781 27.9484 39.6481 27.9882C36.559 32.5159 27.6017 35.3421 18.3645 35.3421C11.8265 35.3421 4.79856 33.2623 2.04939 29.2918C2.01939 29.252 1.9994 29.2719 2.0094 29.3117C4.55863 34.735 12.3363 37.7005 21.9534 37.7005ZM16.4251 28.6947C5.90823 28.6947 0.939718 23.8187 0.039988 20.485C0.029991 20.4452 0 20.4552 0 20.495C0 21.6195 0.109967 23.0624 0.309907 24.0177C0.39988 24.4854 0.779766 25.2218 1.3396 25.7989C3.88883 28.4459 10.2369 32.1477 21.2336 32.1477C36.2191 32.1477 39.6481 27.1821 40.3479 25.5402C40.8477 24.3759 41.1077 22.2563 41.1077 20.485C41.1077 20.0571 41.0977 19.7088 41.0777 19.3805C41.0777 19.3307 41.0477 19.3207 41.0377 19.3705C40.2879 23.3808 27.4918 28.6947 16.4251 28.6947ZM1.97941 11.728C1.37959 12.9222 0.709787 14.9323 0.509847 15.9672C0.419874 16.415 0.459862 16.624 0.619814 16.9623C1.87944 19.6292 8.25752 23.8883 23.1331 23.8883C32.2103 23.8883 39.2582 21.6692 40.3979 17.6191C40.6078 16.8728 40.6178 16.0866 40.3479 15.0219C40.048 13.8377 39.4782 12.4545 38.9983 11.4793C38.9783 11.4494 38.9583 11.4494 38.9583 11.4892C39.1383 16.8031 24.2527 20.2263 16.745 20.2263C8.60742 20.2263 1.82945 17.0021 1.82945 12.9222C1.82945 12.5341 1.90943 12.136 2.0094 11.728C2.02939 11.6982 1.9994 11.6882 1.97941 11.728ZM34.1298 5.20009C34.2197 5.33941 34.2597 5.47873 34.2597 5.6678C34.2597 7.93665 27.2718 11.9569 16.1552 11.9569C7.9876 11.9569 6.44807 8.94172 6.44807 7.02115C6.44807 6.33452 6.70799 5.63794 7.29781 4.92146C7.3278 4.88166 7.29781 4.86176 7.26782 4.89161C6.20814 5.78721 5.22843 6.79227 4.37869 7.8869C3.96881 8.40436 3.71888 8.86211 3.71888 9.13079C3.71888 13.1112 13.7359 15.9871 23.1031 15.9871C33.0801 15.9871 37.5387 12.743 37.5387 9.89703C37.5387 8.88201 37.1389 8.28494 36.1192 7.13061C35.4594 6.38428 34.8295 5.76731 34.1697 5.17024C34.1298 5.15034 34.1098 5.17024 34.1298 5.20009ZM31.0707 2.93124C27.9916 1.09028 24.4127 0.0454102 20.5538 0.0454102C16.675 0.0454102 12.9861 1.13008 9.89703 3.01085C8.96731 3.57806 8.44747 4.03581 8.44747 4.62293C8.44747 6.34447 12.4963 8.20533 19.6841 8.20533C26.792 8.20533 32.3103 6.1753 32.3103 4.21493C32.3103 3.74723 31.9004 3.41884 31.0707 2.93124Z" fill="#969696"/>
</g>
</svg>
