<svg width="71" height="70" viewBox="0 0 71 70" fill="none" xmlns="http://www.w3.org/2000/svg">
<g id="Frame 1261154637" clip-path="url(#clip0_1279_2035)">
<g id="Vector">
<path d="M67.2586 52.8468C65.534 52.8468 64.1987 51.5115 64.0318 49.7869C62.9192 33.4304 53.9621 10.4536 37.4387 10.4536C23.7527 10.4536 13.5161 19.967 6.83998 38.7713C6.28364 40.496 4.39208 41.4418 2.66742 40.6629C0.942764 40.1065 -0.00301695 38.215 0.775861 36.6572C8.39773 15.0156 20.6929 4 37.4387 4C59.3029 4 69.3727 31.7058 70.4854 49.3974C70.6523 51.1221 69.3727 52.7911 67.4255 52.7911L67.2586 52.8468Z" fill="#1D2D35"/>
<path d="M36.6599 64.8637C25.6444 64.8637 15.0183 60.1348 7.61892 51.7341C6.67314 50.9552 6.50624 49.62 6.84004 48.5073C8.95414 42.9995 14.4619 30.2593 21.4718 30.0924C25.088 30.0924 27.7585 32.9297 29.8169 35.2107C30.3733 35.9896 31.3191 36.9354 32.0979 37.4917C33.8226 35.7671 37.0494 30.4818 39.4973 24.9741C40.2761 23.2494 42.1677 22.6931 43.8924 23.4719C45.617 24.2508 46.1734 26.1424 45.3945 27.867C37.7726 44.3904 33.8226 44.3904 32.2648 44.3904C29.205 44.3904 27.1465 42.1094 25.0324 39.8284C24.0866 38.8826 22.1951 36.7685 21.4162 36.7685C19.6915 36.9354 16.0753 42.8326 13.6274 49.1193C19.9141 55.4059 28.4261 58.7996 37.1606 58.6327C44.7825 58.6327 58.246 57.2975 63.7537 49.1193C62.2516 32.7628 53.2945 10.7317 37.1606 10.7317C35.436 10.7317 33.9339 9.22961 33.9339 7.50495C33.9339 5.78029 35.436 4.11127 37.3275 4.11127C59.1917 4.11127 69.2615 31.8171 70.3742 49.5087C70.3742 50.065 70.2073 50.8439 69.9848 51.4003C64.8664 60.1348 53.2945 65.0863 37.3275 65.0863C37.2163 64.8637 36.8825 64.8637 36.6599 64.8637Z" fill="#1D2D35"/>
</g>
</g>
<defs>
<clipPath id="clip0_1279_2035">
<rect width="70" height="70" fill="white" transform="translate(0.5)"/>
</clipPath>
</defs>
</svg>
