<svg width="869" height="212" viewBox="0 0 869 212" fill="none" xmlns="http://www.w3.org/2000/svg">
<path d="M2 37.5853C2 37.5853 61.9128 56.2885 78 88.0853C92.7212 117.182 60.2707 144.217 78 171.585C93.117 194.921 112.879 200.461 140 206.585C160.761 211.273 173.989 212.268 194.5 206.585C237.056 194.795 257.643 163.889 268.5 121.085C274.453 97.616 256.778 80.2709 268.5 59.0853C281.117 36.2831 326.5 26.0853 326.5 26.0853C326.5 26.0853 357.391 19.1093 375 26.0853C407.15 38.822 390.418 80.2916 414 105.585C432.724 125.668 455.001 123.427 472.5 144.585C489.331 164.936 475.237 196.157 499.5 206.585C513.493 212.599 524.143 211.67 538.5 206.585C565.366 197.071 560.335 167.706 577 144.585C593.782 121.302 608.259 112.085 624 88.0853C643.305 58.6513 629.768 19.5341 662.5 6.58527C680.112 -0.382196 693.433 -0.496033 711 6.58527C743.419 19.6536 703.16 61.7515 721.5 88.0853C742.6 118.382 779.543 102.18 808.5 125.084C839.138 149.32 866.5 206.585 866.5 206.585" stroke="#2B5F68" stroke-width="3" stroke-linecap="square" stroke-dasharray="20 20"/>
</svg>
