<svg width="80" height="80" viewBox="0 0 80 80" fill="none" xmlns="http://www.w3.org/2000/svg">
<rect width="80" height="80" fill="#E7E7E7"/>
<g clip-path="url(#clip0_1279_1782)">
<path d="M37 32.25H42V34.75H37V32.25Z" fill="#FB7A00"/>
<path d="M36.5833 38.5001L39.4999 36.8335L42.4166 38.5001L39.4999 40.1668L36.5833 38.5001Z" fill="#FB7A00"/>
<path d="M38.25 27.25H40.75C41.4404 27.25 42 27.8096 42 28.5C42 29.1904 41.4404 29.75 40.75 29.75H38.25C37.5596 29.75 37 29.1904 37 28.5C37 27.8096 37.5596 27.25 38.25 27.25Z" fill="#FB7A00"/>
<path d="M34.9166 34.75H33.3707C33.0163 34.7503 32.6668 34.833 32.3499 34.9917C31.9899 35.1717 31.5888 35.2535 31.187 35.2286C30.7853 35.2037 30.3973 35.0731 30.0624 34.85L29.9165 34.75V32.25H34.9165L34.9166 34.75Z" fill="#FB7A00"/>
<path d="M38.25 43.0835H40.75C41.4404 43.0835 42 43.6431 42 44.3335C42 45.0239 41.4404 45.5835 40.75 45.5835H38.25C37.5596 45.5835 37 45.0239 37 44.3335C37 43.6431 37.5596 43.0835 38.25 43.0835Z" fill="#FB7A00"/>
<path d="M44.0833 37.25H49.0833V39.75H44.0833V37.25Z" fill="#FB7A00"/>
<path d="M29.6875 35.096L29.8333 35.196C30.278 35.4906 30.7999 35.6472 31.3333 35.646C31.7514 35.6472 32.1639 35.5502 32.5375 35.3626C32.7964 35.2338 33.0817 35.1668 33.3709 35.1668H34.9167C35.0272 35.1668 35.1331 35.1228 35.2113 35.0447C35.2894 34.9666 35.3333 34.8606 35.3334 34.7501V33.9168H36.5833V34.7501C36.5834 34.8606 36.6273 34.9666 36.7054 35.0447C36.7836 35.1228 36.8895 35.1668 37 35.1668H39.0833V36.5918L36.375 38.1376C36.175 38.251 36.1046 38.5056 36.2179 38.7056C36.2551 38.7712 36.3094 38.8254 36.375 38.8626L39.0833 40.4085V42.6668H38.25C37.3296 42.6668 36.5833 43.4131 36.5833 44.3335C36.5833 45.2539 37.3296 46.0001 38.25 46.0001H40.75C41.6704 46.0001 42.4166 45.2539 42.4166 44.3335C42.4166 43.4131 41.6704 42.6668 40.75 42.6668H39.9166V41.8335H46.5833C46.6938 41.8335 46.7997 41.7895 46.8779 41.7114C46.956 41.6333 46.9999 41.5273 47 41.4168V40.1668H49.0833C49.1938 40.1668 49.2997 40.1229 49.3779 40.0448C49.456 39.9666 49.4999 39.8607 49.5 39.7502V37.2502C49.4999 37.1397 49.456 37.0338 49.3779 36.9556C49.2997 36.8775 49.1938 36.8336 49.0833 36.8335H44.0833C43.9728 36.8336 43.8669 36.8775 43.7887 36.9556C43.7106 37.0338 43.6667 37.1397 43.6666 37.2502V38.0835H42.5291L39.9166 36.5919V35.1669H42C42.1105 35.1669 42.2164 35.1229 42.2946 35.0448C42.3727 34.9667 42.4166 34.8607 42.4166 34.7502V32.2502C42.4166 32.1398 42.3727 32.0338 42.2946 31.9557C42.2164 31.8775 42.1105 31.8336 42 31.8336H39.9166V30.1669H40.75C41.6704 30.1669 42.4166 29.4207 42.4166 28.5003C42.4166 27.5799 41.6704 26.8335 40.75 26.8335H38.25C37.3296 26.8335 36.5833 27.5797 36.5833 28.5001C36.5833 29.4206 37.3296 30.1668 38.25 30.1668H39.0833V31.8334H37C36.8895 31.8335 36.7836 31.8774 36.7054 31.9555C36.6273 32.0337 36.5834 32.1396 36.5833 32.2501V33.0834H35.3334V32.2501C35.3333 32.1397 35.2894 32.0337 35.2113 31.9556C35.1331 31.8774 35.0272 31.8335 34.9167 31.8335H29.9167C29.8062 31.8335 29.7003 31.8774 29.6221 31.9556C29.544 32.0337 29.5001 32.1397 29.5 32.2501V34.7501C29.5004 34.8188 29.5177 34.8862 29.5504 34.9466C29.5831 35.0069 29.6302 35.0582 29.6875 35.096ZM40.75 43.5001C41.2104 43.5001 41.5833 43.873 41.5833 44.3335C41.5833 44.7939 41.2104 45.1668 40.75 45.1668H38.25C37.7896 45.1668 37.4167 44.7939 37.4167 44.3335C37.4167 43.873 37.7896 43.5001 38.25 43.5001H40.75ZM44.5 38.9168V37.6668H48.6667V39.3334H44.5V38.9168ZM43.6666 38.9168V39.7501C43.6667 39.8606 43.7106 39.9666 43.7887 40.0447C43.8669 40.1228 43.9728 40.1668 44.0833 40.1668H46.1666V41.0001H39.9166V40.4085L42.5291 38.9168L43.6666 38.9168ZM41.5833 38.5001L39.5 39.6876L37.4167 38.5001L39.5 37.3126L41.5833 38.5001ZM38.25 29.3335C37.7896 29.3335 37.4167 28.9606 37.4167 28.5001C37.4167 28.0397 37.7896 27.6668 38.25 27.6668H40.75C41.2104 27.6668 41.5833 28.0397 41.5833 28.5001C41.5833 28.9606 41.2104 29.3335 40.75 29.3335H38.25ZM37.4167 32.6668H41.5833V34.3334H37.4167V32.6668ZM30.3333 32.6668H34.5V34.3334H33.3709C32.9531 34.3346 32.5411 34.4315 32.1667 34.6168C31.8791 34.7608 31.5592 34.828 31.238 34.8119C30.9168 34.7958 30.6052 34.6971 30.3333 34.5251V32.6668Z" fill="#FB7A00"/>
</g>
<path fill-rule="evenodd" clip-rule="evenodd" d="M37.4998 51.2497H42.5V56.0933H47.8103C48.328 56.0933 48.7478 56.5131 48.7478 57.0308C48.7478 57.5485 48.328 57.9683 47.8103 57.9683H32.1897C31.6719 57.9683 31.2522 57.5485 31.2522 57.0308C31.2522 56.5131 31.6719 56.0933 32.1897 56.0933H37.4998V51.2497ZM20.9375 22.0317H59.0625C59.5802 22.0317 60 22.4517 60 22.9692V49.063C60 49.5805 59.5798 50.0005 59.0625 50.0005H20.9375C20.4202 50.0005 20 49.5806 20 49.063V22.9692C20 22.4514 20.4198 22.0317 20.9375 22.0317ZM58.125 48.1255C58.125 40.0964 58.125 31.9358 58.125 23.9067H21.875C21.875 31.9358 21.875 40.0964 21.875 48.1255C33.75 48.1255 46.25 48.1255 58.125 48.1255Z" fill="#0D3642"/>
<defs>
<clipPath id="clip0_1279_1782">
<rect width="21" height="20" fill="white" transform="translate(29 26.5)"/>
</clipPath>
</defs>
</svg>
