<svg width="58" height="40" viewBox="0 0 58 40" fill="none" xmlns="http://www.w3.org/2000/svg">
<g id="Group">
<path id="Vector" d="M32.8207 10.7278C33.7736 9.76335 34.3706 8.41537 34.3706 6.93957C34.3706 3.97634 31.9942 1.58252 29.0782 1.58252C27.23 1.58252 25.5998 2.54702 24.6585 3.99958C24.4059 4.25523 3.32853 30.5524 3.13337 30.8545C2.18053 31.819 1.58356 33.167 1.58356 34.6428C1.58356 37.606 3.95991 39.9999 6.87584 39.9999C8.72413 39.9999 10.3543 39.0354 11.2957 37.5828C11.5482 37.3272 32.6256 11.03 32.8207 10.7278Z" fill="#232323"/>
<path id="Vector_2" d="M45.0126 23.1966C45.9655 22.2321 46.5624 20.8841 46.5624 19.4083C46.5624 16.4451 44.186 14.0513 41.2701 14.0513C39.4218 14.0513 37.7917 15.0158 36.8503 16.4683C36.5978 16.724 25.5195 30.5407 25.3243 30.8429C24.3715 31.8074 23.7745 33.1554 23.7745 34.6312C23.7745 37.5944 26.1509 39.9882 29.0669 39.9882C30.9151 39.9882 32.5453 39.0237 33.4866 37.5711C33.7392 37.3155 44.8175 23.4987 45.0126 23.1966Z" fill="#232323"/>
<path id="Vector_3" d="M56.4052 8.14942C57.0722 5.26886 55.3059 2.38644 52.4602 1.71134C49.6144 1.03624 46.7668 2.82411 46.0999 5.70467C45.4329 8.58523 47.1992 11.4677 50.045 12.1428C52.8907 12.8179 55.7383 11.03 56.4052 8.14942Z" fill="#FB7A00"/>
<path id="Vector_4" d="M8.82539 11.9349C11.5419 10.8429 12.8694 7.72854 11.7906 4.97883C10.7118 2.22912 7.63511 0.885289 4.91863 1.97731C2.20216 3.06933 0.874557 6.18367 1.95338 8.93338C3.0322 11.6831 6.10891 13.0269 8.82539 11.9349Z" fill="#232323"/>
</g>
</svg>
