<svg width="101" height="100" viewBox="0 0 101 100" fill="none" xmlns="http://www.w3.org/2000/svg">
<circle cx="50.667" cy="50" r="50" fill="#EFEFEF"/>
<path d="M31.4867 45.0625C30.7663 42.5348 28.716 41.9678 26.2564 41.8868C26.2219 41.8863 26.1879 41.8789 26.1563 41.865C26.1247 41.8512 26.0961 41.8312 26.0723 41.8062C26.0485 41.7812 26.0299 41.7517 26.0176 41.7194C26.0053 41.6872 25.9996 41.6528 26.0007 41.6183L26.0775 33.1783C26.0774 33.1471 26.0836 33.1163 26.0957 33.0876C26.1077 33.0588 26.1254 33.0328 26.1476 33.011C26.1698 32.9891 26.1962 32.972 26.2251 32.9604C26.2541 32.9489 26.285 32.9433 26.3161 32.9438H34.5558C34.5957 32.9491 34.6362 32.9453 34.6745 32.9328C34.7127 32.9203 34.7477 32.8994 34.7767 32.8715C34.8058 32.8437 34.8282 32.8097 34.8423 32.772C34.8565 32.7344 34.862 32.694 34.8585 32.654C34.9011 31.6352 34.705 30.6164 35.1696 29.717C37.7613 24.6956 44.4579 27.1978 43.6693 32.6369C43.6596 32.7069 43.6778 32.778 43.7201 32.8347C43.7624 32.8913 43.8253 32.929 43.8952 32.9396H51.9942C52.064 32.9292 52.1352 32.9355 52.2021 32.9579C52.269 32.9803 52.3296 33.0182 52.379 33.0685C52.4285 33.1187 52.4653 33.18 52.4866 33.2472C52.5079 33.3145 52.513 33.3858 52.5015 33.4553L52.3438 41.5543C52.3391 41.581 52.341 41.6083 52.3493 41.634C52.3575 41.6597 52.3719 41.683 52.3912 41.7019C52.4106 41.7208 52.4342 41.7347 52.4601 41.7424C52.486 41.7501 52.5134 41.7514 52.5399 41.7462C60.0336 41.5501 59.7863 51.0558 52.6933 50.9407C52.6638 50.9401 52.6346 50.9454 52.6072 50.9563C52.5798 50.9672 52.5549 50.9834 52.5338 51.0041C52.5128 51.0247 52.4961 51.0493 52.4846 51.0765C52.4732 51.1037 52.4674 51.1329 52.4674 51.1623V59.2571C52.4773 59.3294 52.4703 59.403 52.447 59.4721C52.4237 59.5413 52.3848 59.6041 52.3332 59.6557C52.2816 59.7073 52.2187 59.7462 52.1496 59.7695C52.0805 59.7928 52.0069 59.7998 51.9346 59.7899H43.9422C43.8495 59.7899 43.7605 59.7531 43.695 59.6875C43.6294 59.622 43.5926 59.5331 43.5926 59.4404C43.5905 59.4305 43.5905 59.4204 43.5926 59.4105C44.0189 54.338 38.422 51.5289 35.549 55.9365C34.8457 57.0107 34.9437 58.1829 34.9948 59.4659C34.996 59.5074 34.9889 59.5486 34.9741 59.5873C34.9593 59.626 34.937 59.6614 34.9085 59.6915C34.88 59.7216 34.8459 59.7458 34.808 59.7627C34.7702 59.7795 34.7294 59.7888 34.6879 59.7899H26.3375C26.2917 59.7974 26.2449 59.7939 26.2008 59.7796C26.1567 59.7652 26.1167 59.7405 26.0841 59.7076C26.0515 59.6746 26.0273 59.6342 26.0136 59.59C25.9998 59.5457 25.9969 59.4988 26.005 59.4532L26.1158 51.0771C26.1105 51.0377 26.1145 50.9977 26.1276 50.9602C26.1407 50.9227 26.1625 50.8889 26.1911 50.8615C26.2198 50.834 26.2546 50.8138 26.2927 50.8023C26.3307 50.7909 26.3709 50.7887 26.41 50.7957C29.6666 50.8725 32.433 48.4087 31.4867 45.0625Z" fill="#FB7A00"/>
<path d="M75.3364 53.7157L69.8376 59.2145C69.7543 59.2983 69.7075 59.4117 69.7075 59.5299C69.7075 59.6481 69.7543 59.7615 69.8376 59.8454L69.8888 59.888C75.2682 63.8821 68.1454 71.7253 63.5502 66.039C63.5295 66.0126 63.5037 65.9906 63.4743 65.9744C63.445 65.9581 63.4126 65.9479 63.3793 65.9443C63.3459 65.9407 63.3122 65.9439 63.28 65.9536C63.2479 65.9632 63.218 65.9792 63.1921 66.0006L57.395 71.9044C57.3652 71.9347 57.3297 71.9587 57.2906 71.9751C57.2514 71.9916 57.2094 72 57.1669 72C57.1244 72 57.0824 71.9916 57.0433 71.9751C57.0041 71.9587 56.9686 71.9347 56.9389 71.9044L49.1979 64.1464C49.1167 64.067 49.0522 63.9722 49.0082 63.8675C48.9641 63.7628 48.9414 63.6504 48.9414 63.5368C48.9414 63.4232 48.9641 63.3108 49.0082 63.2061C49.0522 63.1015 49.1167 63.0067 49.1979 62.9273C49.3529 62.7713 49.5621 62.6811 49.7819 62.6758L55.1699 62.518C55.1967 62.5208 55.2238 62.5175 55.2491 62.5084C55.2745 62.4992 55.2974 62.4844 55.3163 62.4652C55.3351 62.4459 55.3494 62.4227 55.358 62.3971C55.3666 62.3716 55.3693 62.3444 55.366 62.3177L55.302 53.7157C55.3018 53.6532 55.321 53.5923 55.3569 53.5411C55.3928 53.49 55.4436 53.4512 55.5024 53.4301C62.6252 51.0174 62.5996 41.7249 55.5663 39.2057C55.5014 39.1877 55.4444 39.1486 55.4042 39.0945C55.3641 39.0405 55.3432 38.9746 55.3447 38.9073C55.2637 37.3003 55.0591 35.5398 56.713 34.5892C56.8722 34.4983 57.0572 34.4632 57.2387 34.4894C57.4202 34.5157 57.5877 34.6018 57.7147 34.7342L63.0856 40.3225C63.1287 40.3652 63.1869 40.3891 63.2476 40.3891C63.3082 40.3891 63.3664 40.3652 63.4095 40.3225C64.3438 39.3834 65.457 38.6412 66.6833 38.14C69.2096 37.9212 70.9146 38.8192 71.7984 40.834C72.7405 42.9653 72.0073 45.0966 70.298 46.5332C70.2466 46.5777 70.2148 46.6405 70.2092 46.7082C70.2036 46.776 70.2247 46.8432 70.2681 46.8955L73.6782 50.9407L75.3236 52.5477C75.4031 52.6224 75.4666 52.7124 75.5105 52.8123C75.5543 52.9122 75.5776 53.0199 75.5787 53.129C75.5799 53.2381 75.5591 53.3463 75.5175 53.4471C75.4758 53.5479 75.4142 53.6393 75.3364 53.7157Z" fill="#0D3642"/>
</svg>
