<svg width="100" height="100" viewBox="0 0 100 100" fill="none" xmlns="http://www.w3.org/2000/svg">
<circle cx="50" cy="50" r="50" fill="#EFEFEF"/>
<path d="M50.263 27.003L49.9552 27.0046C49.6172 27.0064 49.3447 27.2818 49.3465 27.6197L49.3622 30.6291C49.364 30.967 49.6394 31.2395 49.9773 31.2377L50.2852 31.2361C50.6231 31.2344 50.8956 30.959 50.8938 30.621L50.8781 27.6117C50.8763 27.2737 50.6009 27.0012 50.263 27.003Z" fill="#FB7A00"/>
<path d="M42.6489 31.0058L42.364 31.3189C42.1781 31.5233 42.193 31.8397 42.3974 32.0257L45.1982 34.5742C45.4026 34.7602 45.719 34.7453 45.9049 34.5409L46.1898 34.2278C46.3758 34.0234 46.3609 33.707 46.1565 33.5211L43.3557 30.9725C43.1513 30.7866 42.8349 30.8015 42.6489 31.0058Z" fill="#FB7A00"/>
<path d="M56.6703 31.0494L53.9691 33.4902C53.7184 33.7167 53.6988 34.1037 53.9254 34.3544L54.0802 34.5257C54.3067 34.7765 54.6936 34.7961 54.9444 34.5695L57.6456 32.1288C57.8963 31.9022 57.9159 31.5153 57.6894 31.2645L57.5346 31.0932C57.308 30.8425 56.9211 30.8229 56.6703 31.0494Z" fill="#FB7A00"/>
<path d="M36.1631 37.3185L40.9736 37.4725C40.9908 37.473 41.0077 37.4768 41.0234 37.4839C41.0391 37.4909 41.0532 37.501 41.065 37.5135C41.0768 37.526 41.086 37.5407 41.0921 37.5568C41.0982 37.5728 41.1011 37.59 41.1006 37.6071C41.1004 37.6265 41.0959 37.6456 41.0872 37.663C41.0785 37.6803 41.066 37.6955 41.0506 37.7072L37.2599 40.6743C37.2389 40.6898 37.2232 40.7115 37.2149 40.7363C37.2067 40.761 37.2063 40.7878 37.2138 40.8128L38.553 45.4309C38.5576 45.4475 38.5589 45.465 38.5568 45.4822C38.5547 45.4993 38.5491 45.5159 38.5405 45.531C38.532 45.546 38.5205 45.5592 38.5067 45.5697C38.493 45.5803 38.4773 45.588 38.4606 45.5925C38.4443 45.6001 38.4266 45.604 38.4087 45.604C38.3907 45.604 38.373 45.6001 38.3567 45.5925L34.3621 42.8986C34.3407 42.8836 34.3152 42.8755 34.289 42.8755C34.2628 42.8755 34.2373 42.8836 34.2159 42.8986L30.2367 45.5925C30.2146 45.6076 30.1884 45.6156 30.1616 45.6153C30.1348 45.6151 30.1088 45.6066 30.0869 45.5911C30.0651 45.5756 30.0486 45.5537 30.0396 45.5285C30.0306 45.5033 30.0295 45.4759 30.0366 45.4501L31.3604 40.8321C31.3668 40.807 31.3659 40.7806 31.3577 40.756C31.3495 40.7314 31.3344 40.7097 31.3142 40.6935L27.512 37.7418C27.4846 37.7205 27.4664 37.6893 27.4614 37.6549C27.4563 37.6205 27.4649 37.5854 27.4851 37.5571C27.4976 37.5416 27.5135 37.5291 27.5314 37.5204C27.5494 37.5118 27.5691 37.5072 27.589 37.5071L32.3995 37.3378C32.4256 37.3377 32.4512 37.3295 32.4725 37.3143C32.4939 37.2992 32.51 37.2778 32.5188 37.2531L34.1505 32.7236C34.1556 32.7071 34.1641 32.6919 34.1753 32.6789C34.1866 32.6658 34.2004 32.6552 34.2158 32.6476C34.2313 32.6401 34.2482 32.6358 34.2654 32.6349C34.2826 32.6341 34.2998 32.6367 34.3159 32.6428C34.3344 32.6497 34.3511 32.6605 34.3651 32.6745C34.379 32.6884 34.3898 32.7051 34.3968 32.7236L36.0438 37.2454C36.0544 37.2679 36.0713 37.2869 36.0925 37.2999C36.1137 37.3129 36.1383 37.3194 36.1631 37.3185Z" fill="#0D3642"/>
<path d="M52.134 37.338L56.0786 37.4111C56.1651 37.4122 56.2492 37.4403 56.3191 37.4914C56.3889 37.5426 56.4411 37.6143 56.4682 37.6965C56.4953 37.7787 56.4961 37.8674 56.4704 37.9501C56.4447 38.0328 56.3938 38.1054 56.3249 38.1577L53.1769 40.536C53.1073 40.5863 53.0553 40.6572 53.0283 40.7388C53.0014 40.8203 53.0008 40.9083 53.0268 40.9901L54.1813 44.7654C54.2064 44.848 54.2051 44.9363 54.1776 45.0182C54.1501 45.1 54.0978 45.1712 54.028 45.222C53.9582 45.2728 53.8743 45.3006 53.788 45.3015C53.7017 45.3024 53.6172 45.2764 53.5464 45.2272L50.3099 42.9682C50.24 42.9192 50.1567 42.8929 50.0713 42.8929C49.9859 42.8929 49.9026 42.9192 49.8327 42.9682L46.5962 45.2272C46.5253 45.2764 46.4409 45.3024 46.3546 45.3015C46.2682 45.3006 46.1844 45.2728 46.1145 45.222C46.0447 45.1712 45.9925 45.1 45.965 45.0182C45.9375 44.9363 45.9362 44.848 45.9612 44.7654L47.1157 40.9901C47.14 40.9081 47.1386 40.8207 47.1117 40.7396C47.0849 40.6584 47.034 40.5874 46.9657 40.536L43.81 38.1616C43.7662 38.129 43.7293 38.088 43.7015 38.041C43.6737 37.9941 43.6555 37.942 43.648 37.8879C43.6404 37.8339 43.6438 37.7788 43.6577 37.726C43.6716 37.6733 43.6959 37.6238 43.7292 37.5805C43.7668 37.5291 43.816 37.4873 43.8729 37.4585C43.9297 37.4297 43.9926 37.4148 44.0563 37.415L48.0009 37.3419C48.0859 37.3396 48.1683 37.3115 48.237 37.2613C48.3058 37.2112 48.3576 37.1413 48.3857 37.0609L49.6749 33.3319C49.7061 33.2554 49.7594 33.19 49.8279 33.1439C49.8965 33.0978 49.9772 33.0732 50.0597 33.0732C50.1423 33.0732 50.223 33.0978 50.2916 33.1439C50.3601 33.19 50.4134 33.2554 50.4446 33.3319L51.7338 37.0609C51.7624 37.1437 51.8166 37.2151 51.8886 37.265C51.9605 37.3148 52.0465 37.3404 52.134 37.338Z" fill="#FB7A00"/>
<path d="M67.793 37.3417L72.0262 37.4456C72.0925 37.4479 72.1564 37.4705 72.2094 37.5103C72.2623 37.5502 72.3018 37.6053 72.3224 37.6683C72.3429 37.7313 72.3437 37.7991 72.3244 37.8625C72.3052 37.926 72.2669 37.9819 72.2148 38.0229L68.8667 40.5859C68.8141 40.6255 68.7748 40.6803 68.7542 40.7429C68.7335 40.8055 68.7325 40.8729 68.7513 40.9361L69.9558 44.9769C69.9746 45.0408 69.9731 45.1091 69.9516 45.1722C69.9301 45.2353 69.8896 45.2902 69.8356 45.3294C69.7817 45.3686 69.717 45.3902 69.6503 45.3911C69.5836 45.3921 69.5183 45.3724 69.4632 45.3348L65.9997 42.9411C65.944 42.8998 65.8766 42.8776 65.8073 42.8776C65.738 42.8776 65.6705 42.8998 65.6149 42.9411L62.1513 45.3348C62.0963 45.3724 62.031 45.3921 61.9643 45.3911C61.8976 45.3902 61.8329 45.3686 61.7789 45.3294C61.725 45.2902 61.6845 45.2353 61.663 45.1722C61.6415 45.1091 61.64 45.0408 61.6587 44.9769L62.8633 40.9361C62.882 40.8729 62.881 40.8055 62.8604 40.7429C62.8398 40.6803 62.8005 40.6255 62.7478 40.5859L59.3998 38.0229C59.366 37.9969 59.3377 37.9645 59.3167 37.9274C59.2956 37.8904 59.2821 37.8495 59.2771 37.8072C59.2721 37.7649 59.2756 37.722 59.2874 37.681C59.2992 37.6401 59.3191 37.6019 59.3459 37.5688C59.3751 37.5321 59.4119 37.5021 59.4537 37.4808C59.4955 37.4596 59.5415 37.4476 59.5883 37.4456L63.8215 37.3417C63.8875 37.3402 63.9514 37.3189 64.005 37.2804C64.0585 37.242 64.0992 37.1882 64.1217 37.1262L65.484 33.1586C65.4982 33.1187 65.5201 33.0821 65.5486 33.0508C65.577 33.0195 65.6114 32.9942 65.6497 32.9763C65.688 32.9584 65.7295 32.9483 65.7717 32.9466C65.814 32.9448 65.8561 32.9515 65.8958 32.9661C65.9406 32.9818 65.9815 33.0072 66.0154 33.0405C66.0493 33.0737 66.0755 33.114 66.0921 33.1586L67.4929 37.1378C67.5167 37.1979 67.5581 37.2495 67.6116 37.2858C67.6651 37.3222 67.7283 37.3417 67.793 37.3417Z" fill="#0D3642"/>
<path d="M50.3187 57.3273C53.1057 57.1861 55.2526 54.8501 55.1137 52.1098C54.9749 49.3694 52.603 47.2624 49.816 47.4035C47.0289 47.5447 44.8821 49.8807 45.0209 52.621C45.1597 55.3614 47.5316 57.4685 50.3187 57.3273Z" fill="#FB7A00"/>
<path d="M43.302 72C42.4967 72 41.7244 71.6801 41.1549 71.1107C40.5855 70.5412 40.2656 69.7689 40.2656 68.9636V68.2209C40.2656 62.7254 44.6143 58.269 49.9789 58.269H50.1944C55.559 58.269 59.9076 62.7254 59.9076 68.2209V68.9482C59.9076 69.7535 59.5877 70.5258 59.0183 71.0953C58.4489 71.6647 57.6766 71.9846 56.8713 71.9846H43.302V72Z" fill="#FB7A00"/>
<path d="M66.6146 58.0799C68.5207 57.9834 69.989 56.3857 69.8941 54.5114C69.7991 52.637 68.1769 51.1959 66.2708 51.2924C64.3646 51.389 62.8963 52.9867 62.9913 54.861C63.0862 56.7353 64.7084 58.1765 66.6146 58.0799Z" fill="#0D3642"/>
<path d="M73.1733 65.527V66.035C73.1733 66.3077 73.1195 66.5778 73.015 66.8297C72.9105 67.0816 72.7574 67.3104 72.5644 67.5031C72.3714 67.6958 72.1422 67.8485 71.8901 67.9525C71.638 68.0565 71.3679 68.1098 71.0951 68.1093H61.8283C61.8163 66.1667 61.3302 64.2565 60.4121 62.5446C60.9435 61.4073 61.787 60.4444 62.8444 59.7679C63.9017 59.0913 65.1295 58.729 66.3848 58.7231H66.531C67.4139 58.7337 68.2861 58.9181 69.0977 59.2657C69.9094 59.6134 70.6446 60.1175 71.2614 60.7493C71.8782 61.3811 72.3645 62.1282 72.6926 62.948C73.0206 63.7678 73.1839 64.6441 73.1733 65.527Z" fill="#0D3642"/>
<path d="M33.8763 58.0814C35.7825 57.9848 37.2507 56.3871 37.1558 54.5128C37.0608 52.6385 35.4386 51.1973 33.5325 51.2939C31.6263 51.3905 30.158 52.9882 30.253 54.8625C30.3479 56.7368 31.9702 58.178 33.8763 58.0814Z" fill="#0D3642"/>
<path d="M39.7617 62.5446C38.8436 64.2565 38.3574 66.1667 38.3455 68.1093H29.0786C28.8059 68.1098 28.5358 68.0565 28.2836 67.9525C28.0315 67.8485 27.8024 67.6958 27.6094 67.5031C27.4164 67.3104 27.2632 67.0816 27.1588 66.8297C27.0543 66.5778 27.0005 66.3077 27.0005 66.035V65.527C26.9898 64.6441 27.1532 63.7678 27.4812 62.948C27.8092 62.1282 28.2956 61.3811 28.9124 60.7493C29.5292 60.1175 30.2644 59.6134 31.076 59.2657C31.8877 58.9181 32.7599 58.7337 33.6428 58.7231H33.789C35.0443 58.729 36.272 59.0913 37.3294 59.7679C38.3868 60.4444 39.2303 61.4073 39.7617 62.5446Z" fill="#0D3642"/>
</svg>
