<svg width="171" height="90" viewBox="0 0 171 90" fill="none" xmlns="http://www.w3.org/2000/svg">
<g clip-path="url(#clip0_1365_17543)">
<path d="M56.1207 59.7905H48.6436V89.4218H56.1207V59.7905Z" fill="#C4122E"/>
<path d="M116.411 68.2815C116.11 68.1252 113.706 66.6994 110.13 66.6994C105.286 66.6994 101.935 70.0649 101.935 74.6028C101.935 79.0057 105.146 82.5133 110.13 82.5133C113.644 82.5133 116.088 81.1183 116.411 80.9407V88.8938C115.482 89.1567 112.931 89.9478 109.592 89.9478C101.186 89.9478 93.8135 84.1499 93.8135 74.6028C93.8135 65.7544 100.492 59.2649 109.592 59.2649C113.111 59.2649 115.707 60.1199 116.411 60.3283V68.2815Z" fill="#C4122E"/>
<path d="M38.3637 68.2815C38.0629 68.1252 35.659 66.6994 32.0827 66.6994C27.2392 66.6994 23.8879 70.0649 23.8879 74.6028C23.8879 79.0057 27.0995 82.5133 32.0827 82.5133C35.5974 82.5133 38.0416 81.1183 38.3637 80.9407V88.8938C37.4353 89.1567 34.8845 89.9478 31.545 89.9478C23.1395 89.9478 15.7666 84.1499 15.7666 74.6028C15.7666 65.7544 22.4455 59.2649 31.545 59.2649C35.0645 59.2649 37.6603 60.1199 38.3637 60.3283V68.2815Z" fill="#C4122E"/>
<path d="M139.933 66.8102C135.497 66.8102 132.203 70.3012 132.203 74.6023C132.203 78.9128 135.497 82.4015 139.933 82.4015C144.364 82.4015 147.668 78.9128 147.668 74.6023C147.668 70.3012 144.364 66.8102 139.933 66.8102ZM155.591 74.6023C155.591 83.0789 149.047 89.9473 139.933 89.9473C130.819 89.9473 124.285 83.0789 124.285 74.6023C124.285 66.1399 130.819 59.2644 139.933 59.2644C149.047 59.2644 155.591 66.1399 155.591 74.6023Z" fill="#C4122E"/>
<path d="M84.4764 66.5258C84.3651 66.4902 81.2175 65.621 78.6312 65.621C75.6351 65.621 74.0056 66.6252 74.0056 68.0487C74.0056 69.8534 76.2035 70.4834 77.4327 70.8718L79.4956 71.5279C84.3485 73.0721 86.5606 76.395 86.5606 80.0045C86.5606 87.4484 80.0143 89.9494 74.2922 89.9494C70.3156 89.9494 66.5901 89.2176 66.223 89.1394V82.3208C66.8814 82.4866 70.0172 83.4221 73.2833 83.4221C77.0041 83.4221 78.7141 82.335 78.7141 80.6558C78.7141 79.1542 77.2338 78.2873 75.3793 77.7047C74.927 77.5531 74.2472 77.34 73.783 77.1884C69.6193 75.8715 66.1472 73.425 66.1472 68.52C66.1472 62.9779 70.2967 59.2571 77.1888 59.2571C80.8291 59.2571 84.2538 60.1405 84.4764 60.1997V66.5258Z" fill="#C4122E"/>
<path d="M7.83809 27.9464C7.83809 25.9048 6.17072 24.2493 4.12677 24.2493C2.08282 24.2493 0.413086 25.9048 0.413086 27.9464V35.7243C0.413086 37.7777 2.08282 39.4356 4.12677 39.4356C6.17072 39.4356 7.83809 37.7777 7.83809 35.7243V27.9464Z" fill="#15495D"/>
<path d="M28.2285 17.7372C28.2285 15.6957 26.5611 14.0354 24.5172 14.0354C22.4708 14.0354 20.8035 15.6957 20.8035 17.7372V35.7254C20.8035 37.7788 22.4708 39.4344 24.5172 39.4344C26.5611 39.4344 28.2285 37.7788 28.2285 35.7254V17.7372Z" fill="#15495D"/>
<path d="M48.6191 3.76954C48.6191 1.72796 46.9517 0.0700684 44.9078 0.0700684C42.8615 0.0700684 41.1941 1.72796 41.1941 3.76954V43.1161C41.1941 45.1695 42.8615 46.8274 44.9078 46.8274C46.9517 46.8274 48.6191 45.1695 48.6191 43.1161V3.76954Z" fill="#15495D"/>
<path d="M69.01 17.7372C69.01 15.6957 67.3426 14.0354 65.2986 14.0354C63.2523 14.0354 61.585 15.6957 61.585 17.7372V35.7254C61.585 37.7788 63.2523 39.4344 65.2986 39.4344C67.3426 39.4344 69.01 37.7788 69.01 35.7254V17.7372Z" fill="#15495D"/>
<path d="M89.3774 27.9464C89.3774 25.9048 87.7219 24.2493 85.6874 24.2493C83.6434 24.2493 81.9761 25.9048 81.9761 27.9464V35.7243C81.9761 37.7777 83.6434 39.4356 85.6874 39.4356C87.7219 39.4356 89.3774 37.7777 89.3774 35.7243V27.9464Z" fill="#15495D"/>
<path d="M89.3869 27.9464C89.3869 25.9048 87.7195 24.2493 85.6756 24.2493C83.6317 24.2493 81.9619 25.9048 81.9619 27.9464V35.7243C81.9619 37.7777 83.6317 39.4356 85.6756 39.4356C87.7195 39.4356 89.3869 37.7777 89.3869 35.7243V27.9464Z" fill="#15495D"/>
<path d="M109.777 17.7372C109.777 15.6957 108.11 14.0354 106.066 14.0354C104.02 14.0354 102.352 15.6957 102.352 17.7372V35.7254C102.352 37.7788 104.02 39.4344 106.066 39.4344C108.11 39.4344 109.777 37.7788 109.777 35.7254V17.7372Z" fill="#15495D"/>
<path d="M130.168 3.76954C130.168 1.72796 128.501 0.0700684 126.457 0.0700684C124.41 0.0700684 122.743 1.72796 122.743 3.76954V43.1161C122.743 45.1695 124.41 46.8274 126.457 46.8274C128.501 46.8274 130.168 45.1695 130.168 43.1161V3.76954Z" fill="#15495D"/>
<path d="M150.559 17.7372C150.559 15.6957 148.891 14.0354 146.847 14.0354C144.801 14.0354 143.134 15.6957 143.134 17.7372V35.7254C143.134 37.7788 144.801 39.4344 146.847 39.4344C148.891 39.4344 150.559 37.7788 150.559 35.7254V17.7372Z" fill="#15495D"/>
<path d="M170.925 27.9461C170.925 25.9045 169.27 24.249 167.235 24.249C165.192 24.249 163.524 25.9045 163.524 27.9461V35.724C163.524 37.7774 165.192 39.4353 167.235 39.4353C169.27 39.4353 170.925 37.7774 170.925 35.724V27.9461Z" fill="#15495D"/>
<path d="M166.661 85.5193V85.9835H165.34V89.4201H164.797V85.9835H163.469V85.5193H166.661Z" fill="#C4122E"/>
<path d="M166.938 85.5193H167.788L168.956 88.719H168.975L170.105 85.5193H170.939V89.4201H170.382V86.2227H170.363L169.179 89.4201H168.665L167.509 86.2227H167.483V89.4201H166.938V85.5193Z" fill="#C4122E"/>
</g>
<defs>
<clipPath id="clip0_1365_17543">
<rect width="170.526" height="90" fill="white" transform="translate(0.413086)"/>
</clipPath>
</defs>
</svg>
