<svg width="190" height="100" viewBox="0 0 190 100" fill="none" xmlns="http://www.w3.org/2000/svg">
<g clip-path="url(#clip0_1344_10390)">
<path d="M61.8977 66.434H53.5898V99.3576H61.8977V66.434Z" fill="#C4122E"/>
<path d="M128.887 75.8682C128.553 75.6945 125.882 74.1103 121.908 74.1103C116.527 74.1103 112.803 77.8497 112.803 82.8918C112.803 87.7839 116.371 91.6813 121.908 91.6813C125.814 91.6813 128.529 90.1313 128.887 89.9339V98.7708C127.856 99.0629 125.021 99.9418 121.311 99.9418C111.971 99.9418 103.779 93.4997 103.779 82.8918C103.779 73.0603 111.2 65.8497 121.311 65.8497C125.221 65.8497 128.106 66.7997 128.887 67.0313V75.8682Z" fill="#C4122E"/>
<path d="M42.1665 75.8682C41.8323 75.6945 39.1612 74.1103 35.1875 74.1103C29.806 74.1103 26.0823 77.8497 26.0823 82.8918C26.0823 87.7839 29.6507 91.6813 35.1875 91.6813C39.0928 91.6813 41.8086 90.1313 42.1665 89.9339V98.7708C41.1349 99.0629 38.3007 99.9418 34.5902 99.9418C25.2507 99.9418 17.0586 93.4997 17.0586 82.8918C17.0586 73.0603 24.4796 65.8497 34.5902 65.8497C38.5007 65.8497 41.3849 66.7997 42.1665 67.0313V75.8682Z" fill="#C4122E"/>
<path d="M155.022 74.2337C150.093 74.2337 146.432 78.1126 146.432 82.8916C146.432 87.6811 150.093 91.5574 155.022 91.5574C159.945 91.5574 163.616 87.6811 163.616 82.8916C163.616 78.1126 159.945 74.2337 155.022 74.2337ZM172.419 82.8916C172.419 92.31 165.148 99.9416 155.022 99.9416C144.895 99.9416 137.635 92.31 137.635 82.8916C137.635 73.489 144.895 65.8495 155.022 65.8495C165.148 65.8495 172.419 73.489 172.419 82.8916Z" fill="#C4122E"/>
<path d="M93.4029 73.9176C93.2792 73.8782 89.7818 72.9124 86.9082 72.9124C83.5792 72.9124 81.7687 74.0282 81.7687 75.6097C81.7687 77.615 84.2108 78.315 85.5766 78.7466L87.8687 79.4755C93.2608 81.1913 95.7187 84.8834 95.7187 88.8939C95.7187 97.165 88.445 99.9439 82.0871 99.9439C77.6687 99.9439 73.5292 99.1308 73.1213 99.0439V91.4676C73.8529 91.6518 77.3371 92.6913 80.9661 92.6913C85.1003 92.6913 87.0003 91.4834 87.0003 89.6176C87.0003 87.9492 85.3555 86.986 83.295 86.3387C82.7924 86.1703 82.0371 85.9334 81.5213 85.765C76.895 84.3018 73.0371 81.5834 73.0371 76.1334C73.0371 69.9755 77.6476 65.8413 85.3055 65.8413C89.3503 65.8413 93.1555 66.8229 93.4029 66.8887V73.9176Z" fill="#C4122E"/>
<path d="M8.25 31.0516C8.25 28.7831 6.39737 26.9437 4.12632 26.9437C1.85526 26.9437 0 28.7831 0 31.0516V39.6937C0 41.9752 1.85526 43.8174 4.12632 43.8174C6.39737 43.8174 8.25 41.9752 8.25 39.6937V31.0516Z" fill="#15495D"/>
<path d="M30.9063 19.7081C30.9063 17.4397 29.0536 15.595 26.7826 15.595C24.5089 15.595 22.6562 17.4397 22.6562 19.7081V39.695C22.6562 41.9765 24.5089 43.816 26.7826 43.816C29.0536 43.816 30.9063 41.9765 30.9063 39.695V19.7081Z" fill="#15495D"/>
<path d="M53.5625 4.18841C53.5625 1.91999 51.7099 0.0778809 49.4388 0.0778809C47.1651 0.0778809 45.3125 1.91999 45.3125 4.18841V47.9068C45.3125 50.1884 47.1651 52.0305 49.4388 52.0305C51.7099 52.0305 53.5625 50.1884 53.5625 47.9068V4.18841Z" fill="#15495D"/>
<path d="M76.2188 19.7081C76.2188 17.4397 74.3661 15.595 72.0951 15.595C69.8214 15.595 67.9688 17.4397 67.9688 19.7081V39.695C67.9688 41.9765 69.8214 43.816 72.0951 43.816C74.3661 43.816 76.2188 41.9765 76.2188 39.695V19.7081Z" fill="#15495D"/>
<path d="M98.8487 31.0516C98.8487 28.7831 97.0092 26.9437 94.7487 26.9437C92.4776 26.9437 90.625 28.7831 90.625 31.0516V39.6937C90.625 41.9752 92.4776 43.8174 94.7487 43.8174C97.0092 43.8174 98.8487 41.9752 98.8487 39.6937V31.0516Z" fill="#15495D"/>
<path d="M98.8594 31.0516C98.8594 28.7831 97.0067 26.9437 94.7357 26.9437C92.4646 26.9437 90.6094 28.7831 90.6094 31.0516V39.6937C90.6094 41.9752 92.4646 43.8174 94.7357 43.8174C97.0067 43.8174 98.8594 41.9752 98.8594 39.6937V31.0516Z" fill="#15495D"/>
<path d="M121.516 19.7081C121.516 17.4397 119.663 15.595 117.392 15.595C115.118 15.595 113.266 17.4397 113.266 19.7081V39.695C113.266 41.9765 115.118 43.816 117.392 43.816C119.663 43.816 121.516 41.9765 121.516 39.695V19.7081Z" fill="#15495D"/>
<path d="M144.172 4.18841C144.172 1.91999 142.319 0.0778809 140.048 0.0778809C137.775 0.0778809 135.922 1.91999 135.922 4.18841V47.9068C135.922 50.1884 137.775 52.0305 140.048 52.0305C142.319 52.0305 144.172 50.1884 144.172 47.9068V4.18841Z" fill="#15495D"/>
<path d="M166.828 19.7081C166.828 17.4397 164.975 15.595 162.704 15.595C160.431 15.595 158.578 17.4397 158.578 19.7081V39.695C158.578 41.9765 160.431 43.816 162.704 43.816C164.975 43.816 166.828 41.9765 166.828 39.695V19.7081Z" fill="#15495D"/>
<path d="M189.458 31.0514C189.458 28.783 187.619 26.9435 185.358 26.9435C183.087 26.9435 181.234 28.783 181.234 31.0514V39.6935C181.234 41.9751 183.087 43.8172 185.358 43.8172C187.619 43.8172 189.458 41.9751 189.458 39.6935V31.0514Z" fill="#15495D"/>
<path d="M184.719 95.0216V95.5374H183.251V99.3558H182.648V95.5374H181.172V95.0216H184.719Z" fill="#C4122E"/>
<path d="M185.027 95.0216H185.972L187.269 98.5769H187.291L188.546 95.0216H189.472V99.3558H188.854V95.8032H188.833L187.517 99.3558H186.946L185.662 95.8032H185.633V99.3558H185.027V95.0216Z" fill="#C4122E"/>
</g>
<defs>
<clipPath id="clip0_1344_10390">
<rect width="189.474" height="100" fill="white"/>
</clipPath>
</defs>
</svg>
