<svg width="114" height="61" viewBox="0 0 114 61" fill="none" xmlns="http://www.w3.org/2000/svg">
<g clip-path="url(#clip0_2379_75410)">
<path d="M37.139 40.4448H32.1543V60.199H37.139V40.4448Z" fill="#C4122E"/>
<path d="M77.3323 46.1053C77.1317 46.0011 75.5291 45.0505 73.1449 45.0505C69.916 45.0505 67.6818 47.2942 67.6818 50.3195C67.6818 53.2547 69.8228 55.5931 73.1449 55.5931C75.488 55.5931 77.1175 54.6631 77.3323 54.5447V59.8468C76.7133 60.0221 75.0128 60.5494 72.7865 60.5494C67.1828 60.5494 62.2676 56.6842 62.2676 50.3195C62.2676 44.4205 66.7202 40.0942 72.7865 40.0942C75.1328 40.0942 76.8633 40.6642 77.3323 40.8032V46.1053Z" fill="#C4122E"/>
<path d="M25.299 46.1053C25.0985 46.0011 23.4959 45.0505 21.1117 45.0505C17.8828 45.0505 15.6486 47.2942 15.6486 50.3195C15.6486 53.2547 17.7896 55.5931 21.1117 55.5931C23.4548 55.5931 25.0843 54.6631 25.299 54.5447V59.8468C24.6801 60.0221 22.9796 60.5494 20.7533 60.5494C15.1496 60.5494 10.2344 56.6842 10.2344 50.3195C10.2344 44.4205 14.687 40.0942 20.7533 40.0942C23.0996 40.0942 24.8301 40.6642 25.299 40.8032V46.1053Z" fill="#C4122E"/>
<path d="M93.0121 45.1247C90.0548 45.1247 87.8585 47.4521 87.8585 50.3195C87.8585 53.1931 90.0548 55.5189 93.0121 55.5189C95.9663 55.5189 98.169 53.1931 98.169 50.3195C98.169 47.4521 95.9663 45.1247 93.0121 45.1247ZM103.451 50.3195C103.451 55.9705 99.0879 60.5494 93.0121 60.5494C86.9364 60.5494 82.5801 55.9705 82.5801 50.3195C82.5801 44.6779 86.9364 40.0942 93.0121 40.0942C99.0879 40.0942 103.451 44.6779 103.451 50.3195Z" fill="#C4122E"/>
<path d="M56.0417 44.9346C55.9675 44.911 53.8691 44.3315 52.1449 44.3315C50.1475 44.3315 49.0612 45.001 49.0612 45.9499C49.0612 47.1531 50.5265 47.573 51.3459 47.832L52.7212 48.2694C55.9564 49.2988 57.4312 51.5141 57.4312 53.9204C57.4312 58.883 53.067 60.5504 49.2522 60.5504C46.6012 60.5504 44.1175 60.0625 43.8728 60.0104V55.4646C44.3117 55.5751 46.4023 56.1988 48.5796 56.1988C51.0601 56.1988 52.2001 55.4741 52.2001 54.3546C52.2001 53.3535 51.2133 52.7757 49.977 52.3872C49.6754 52.2862 49.2222 52.1441 48.9128 52.043C46.137 51.1651 43.8223 49.5341 43.8223 46.2641C43.8223 42.5694 46.5886 40.0889 51.1833 40.0889C53.6101 40.0889 55.8933 40.6778 56.0417 40.7173V44.9346Z" fill="#C4122E"/>
<path d="M4.94998 19.2152C4.94998 17.8542 3.83841 16.7505 2.47578 16.7505C1.11315 16.7505 0 17.8542 0 19.2152V24.4005C0 25.7694 1.11315 26.8747 2.47578 26.8747C3.83841 26.8747 4.94998 25.7694 4.94998 24.4005V19.2152Z" fill="white"/>
<path d="M18.5437 12.4093C18.5437 11.0482 17.4322 9.94141 16.0695 9.94141C14.7053 9.94141 13.5938 11.0482 13.5938 12.4093V24.4013C13.5938 25.7703 14.7053 26.874 16.0695 26.874C17.4322 26.874 18.5437 25.7703 18.5437 24.4013V12.4093Z" fill="white"/>
<path d="M32.1375 3.09765C32.1375 1.73661 31.0259 0.631348 29.6633 0.631348C28.2991 0.631348 27.1875 1.73661 27.1875 3.09765V29.3286C27.1875 30.6975 28.2991 31.8028 29.6633 31.8028C31.0259 31.8028 32.1375 30.6975 32.1375 29.3286V3.09765Z" fill="white"/>
<path d="M45.7312 12.4093C45.7312 11.0482 44.6197 9.94141 43.257 9.94141C41.8928 9.94141 40.7812 11.0482 40.7812 12.4093V24.4013C40.7812 25.7703 41.8928 26.874 43.257 26.874C44.6197 26.874 45.7312 25.7703 45.7312 24.4013V12.4093Z" fill="white"/>
<path d="M59.3092 19.2152C59.3092 17.8542 58.2055 16.7505 56.8492 16.7505C55.4866 16.7505 54.375 17.8542 54.375 19.2152V24.4005C54.375 25.7694 55.4866 26.8747 56.8492 26.8747C58.2055 26.8747 59.3092 25.7694 59.3092 24.4005V19.2152Z" fill="white"/>
<path d="M59.3152 19.2152C59.3152 17.8542 58.2036 16.7505 56.841 16.7505C55.4784 16.7505 54.3652 17.8542 54.3652 19.2152V24.4005C54.3652 25.7694 55.4784 26.8747 56.841 26.8747C58.2036 26.8747 59.3152 25.7694 59.3152 24.4005V19.2152Z" fill="white"/>
<path d="M72.909 12.4093C72.909 11.0482 71.7974 9.94141 70.4348 9.94141C69.0706 9.94141 67.959 11.0482 67.959 12.4093V24.4013C67.959 25.7703 69.0706 26.874 70.4348 26.874C71.7974 26.874 72.909 25.7703 72.909 24.4013V12.4093Z" fill="white"/>
<path d="M86.5027 3.09765C86.5027 1.73661 85.3911 0.631348 84.0285 0.631348C82.6643 0.631348 81.5527 1.73661 81.5527 3.09765V29.3286C81.5527 30.6975 82.6643 31.8028 84.0285 31.8028C85.3911 31.8028 86.5027 30.6975 86.5027 29.3286V3.09765Z" fill="white"/>
<path d="M100.096 12.4093C100.096 11.0482 98.9849 9.94141 97.6223 9.94141C96.2581 9.94141 95.1465 11.0482 95.1465 12.4093V24.4013C95.1465 25.7703 96.2581 26.874 97.6223 26.874C98.9849 26.874 100.096 25.7703 100.096 24.4013V12.4093Z" fill="white"/>
<path d="M113.674 19.2152C113.674 17.8542 112.571 16.7505 111.214 16.7505C109.852 16.7505 108.74 17.8542 108.74 19.2152V24.4005C108.74 25.7694 109.852 26.8747 111.214 26.8747C112.571 26.8747 113.674 25.7694 113.674 24.4005V19.2152Z" fill="white"/>
<path d="M110.832 57.5972V57.9066H109.95V60.1977H109.589V57.9066H108.703V57.5972H110.832Z" fill="#C4122E"/>
<path d="M111.016 57.5972H111.582L112.361 59.7303H112.374L113.127 57.5972H113.682V60.1977H113.311V58.0661H113.299L112.509 60.1977H112.167L111.396 58.0661H111.379V60.1977H111.016V57.5972Z" fill="#C4122E"/>
</g>
<defs>
<clipPath id="clip0_2379_75410">
<rect width="113.684" height="59.9998" fill="white" transform="translate(0 0.584473)"/>
</clipPath>
</defs>
</svg>
