<svg width="101" height="100" viewBox="0 0 101 100" fill="none" xmlns="http://www.w3.org/2000/svg">
<circle cx="50.667" cy="50" r="50" fill="#FBFBFB"/>
<path fill-rule="evenodd" clip-rule="evenodd" d="M55.4115 30.5606L57.1965 34.86C58.1209 35.2837 59.004 35.7937 59.8328 36.3825L64.449 35.7806C64.6788 35.7502 64.9125 35.7771 65.1294 35.8589C65.3463 35.9407 65.5396 36.0748 65.6921 36.2494C67.4081 38.2178 68.7256 40.5006 69.5715 42.9712C69.7253 43.4156 69.6446 43.9087 69.3578 44.2819L66.5284 47.9775C66.624 48.99 66.624 50.01 66.5284 51.0225L69.3578 54.7181C69.499 54.9018 69.5925 55.1177 69.6298 55.3465C69.6671 55.5752 69.6471 55.8096 69.5715 56.0287C68.7256 58.4993 67.4081 60.7822 65.6921 62.7506C65.5396 62.9251 65.3463 63.0593 65.1294 63.141C64.9125 63.2228 64.6788 63.2497 64.449 63.2194C64.449 63.2194 59.8328 62.6175 59.8346 62.6156C59.0057 63.2059 58.1224 63.7158 57.1965 64.1381L55.4115 68.4394C55.3226 68.6531 55.1823 68.8417 55.0031 68.9882C54.8238 69.1347 54.6112 69.2347 54.384 69.2794C51.8209 69.7818 49.1846 69.7818 46.6215 69.2794C46.3943 69.2347 46.1817 69.1347 46.0024 68.9882C45.8232 68.8417 45.6829 68.6531 45.594 68.4394L43.809 64.14C42.8845 63.7162 42.0019 63.2064 41.1728 62.6175L36.5565 63.2194C36.3267 63.2497 36.093 63.2228 35.8761 63.141C35.6592 63.0593 35.4659 62.9251 35.3134 62.7506C33.5974 60.7822 32.2799 58.4993 31.434 56.0287C31.3584 55.8096 31.3384 55.5752 31.3757 55.3465C31.413 55.1177 31.5065 54.9018 31.6478 54.7181L34.4771 51.0225C34.3815 50.0097 34.3815 48.9902 34.4771 47.9775L31.6478 44.2819C31.5065 44.0981 31.413 43.8822 31.3757 43.6535C31.3384 43.4247 31.3584 43.1903 31.434 42.9712C32.2799 40.5006 33.5974 38.2178 35.3134 36.2494C35.4659 36.0748 35.6592 35.9407 35.8761 35.8589C36.093 35.7771 36.3267 35.7502 36.5565 35.7806C36.5565 35.7806 41.1728 36.3825 41.1709 36.3844C41.9998 35.794 42.8832 35.2842 43.809 34.8619L45.594 30.5606C45.6829 30.3468 45.8232 30.1583 46.0024 30.0118C46.1817 29.8652 46.3943 29.7652 46.6215 29.7206C49.1846 29.2181 51.8209 29.2181 54.384 29.7206C54.6112 29.7652 54.8238 29.8652 55.0031 30.0118C55.1823 30.1583 55.3226 30.3468 55.4115 30.5606ZM50.5028 38.7187C44.5515 38.7187 39.7215 43.5487 39.7215 49.5C39.7215 55.4512 44.5515 60.2812 50.5028 60.2812C56.454 60.2812 61.284 55.4512 61.284 49.5C61.284 43.5487 56.454 38.7187 50.5028 38.7187Z" fill="#FB7A00"/>
<path fill-rule="evenodd" clip-rule="evenodd" d="M45.29 50.4939C45.1595 50.3634 45.056 50.2084 44.9854 50.0379C44.9148 49.8674 44.8784 49.6847 44.8784 49.5001C44.8784 49.3155 44.9148 49.1328 44.9854 48.9623C45.056 48.7918 45.1595 48.6369 45.29 48.5064C45.4205 48.3759 45.5755 48.2723 45.746 48.2017C45.9165 48.1311 46.0992 48.0947 46.2838 48.0947C46.4684 48.0947 46.6511 48.1311 46.8216 48.2017C46.9921 48.2723 47.147 48.3759 47.2775 48.5064L49.0963 50.3232L53.7275 45.6939C53.858 45.5634 54.013 45.4598 54.1835 45.3892C54.354 45.3186 54.5367 45.2822 54.7213 45.2822C54.9059 45.2822 55.0886 45.3186 55.2591 45.3892C55.4296 45.4598 55.5845 45.5634 55.715 45.6939C55.8455 45.8244 55.9491 45.9793 56.0197 46.1498C56.0903 46.3203 56.1267 46.503 56.1267 46.6876C56.1267 46.8722 56.0903 47.0549 56.0197 47.2254C55.9491 47.3959 55.8455 47.5509 55.715 47.6814L50.09 53.3064C49.9596 53.437 49.8047 53.5406 49.6342 53.6113C49.4637 53.682 49.2809 53.7184 49.0963 53.7184C48.9117 53.7184 48.7289 53.682 48.5584 53.6113C48.3879 53.5406 48.233 53.437 48.1025 53.3064L45.29 50.4939Z" fill="#0D3642"/>
</svg>
