<svg width="101" height="100" viewBox="0 0 101 100" fill="none" xmlns="http://www.w3.org/2000/svg">
<circle cx="50.3335" cy="50" r="50" fill="#FBFBFB"/>
<path d="M38.3292 72.2158C36.9652 72.2158 35.657 71.6739 34.6924 70.7093C33.7279 69.7447 33.186 68.4364 33.186 67.0723V65.8141C33.186 56.505 40.5521 48.9561 49.6391 48.9561H50.0041C59.0911 48.9561 66.4571 56.505 66.4571 65.8141V67.0462C66.4571 68.4103 65.9153 69.7186 64.9507 70.6832C63.9862 71.6478 62.678 72.1897 61.3139 72.1897H38.3292V72.2158Z" fill="#FB7A00"/>
<path fill-rule="evenodd" clip-rule="evenodd" d="M52.8605 49.5732C52.8605 48.6949 52.1485 47.983 51.2704 47.983H49.3233C48.9016 47.983 48.4971 48.1505 48.1989 48.4487C47.9007 48.7469 47.7332 49.1514 47.7332 49.5732C47.7332 50.4514 48.4451 51.1633 49.3233 51.1633H51.2704C52.1485 51.1633 52.8605 50.4514 52.8605 49.5732ZM40.9356 45.4728C41.2012 45.4931 41.5225 45.5047 41.8453 45.4858C42.0476 46.5117 42.5997 47.4355 43.4074 48.0995C44.215 48.7635 45.2282 49.1265 46.2737 49.1265H46.8804C46.8265 49.4218 46.8264 49.7244 46.88 50.0198H46.2737C44.9888 50.0198 43.7459 49.5622 42.7677 48.729C41.7895 47.8957 41.14 46.7414 40.9356 45.4728ZM40.4812 44.5222C39.6736 44.3861 38.9404 43.9682 38.4117 43.3428C37.8829 42.7174 37.5928 41.9249 37.5928 41.1059V38.9945C37.5928 38.0757 37.9578 37.1944 38.6075 36.5447C39.2572 35.895 40.1383 35.5299 41.0572 35.5299H41.2878C41.6564 30.877 45.5491 27.2158 50.2968 27.2158C55.0446 27.2158 58.9373 30.877 59.3059 35.5299H59.5365C60.4553 35.5299 61.3365 35.895 61.9862 36.5447C62.6359 37.1944 63.0009 38.0757 63.0009 38.9945V41.1059C63.0009 42.0247 62.6359 42.906 61.9862 43.5557C61.3365 44.2054 60.4553 44.5705 59.5365 44.5705H58.5142C58.0902 44.5705 57.7465 44.2267 57.7465 43.8027V36.2539C57.7465 32.1394 54.4112 28.8039 50.2968 28.8039C46.1825 28.8039 42.8472 32.1394 42.8472 36.2539V43.8027C42.8472 44.1021 42.6758 44.3615 42.4258 44.4881C41.7376 44.7269 40.6703 44.5541 40.4812 44.5222Z" fill="#0D3642"/>
<path d="M51.0553 47.3615C55.7762 47.1224 59.4127 43.1653 59.1775 38.5233C58.9424 33.8812 54.9247 30.3119 50.2038 30.5511C45.4828 30.7902 41.8464 34.7473 42.0815 39.3894C42.3167 44.0314 46.3344 47.6007 51.0553 47.3615Z" fill="#FB7A00"/>
</svg>
