<svg width="100" height="100" viewBox="0 0 100 100" fill="none" xmlns="http://www.w3.org/2000/svg">
<circle cx="50" cy="50" r="50" fill="#FBFBFB"/>
<path d="M26.2227 32H74.5507V34.8316H71.6246V69H51.8025H48.9708H29.1488V34.8316H26.2227V32Z" fill="#FB7A00"/>
<path d="M45.7208 55.2562L43.7178 57.2591L41.8876 55.4289L40.0574 57.2591L38.0544 55.2562L39.8846 53.426L38.0544 51.5958L40.0574 49.5929L41.8876 51.4231L43.7178 49.5929L45.7208 51.5958L43.8906 53.426L45.7208 55.2562ZM44.7193 46.3469C42.3775 46.3469 40.4717 44.4412 40.4717 42.0995C40.4717 39.7577 42.3775 37.852 44.7193 37.852C47.0612 37.852 48.9669 39.7577 48.9669 42.0995C48.9669 44.4412 47.0612 46.3469 44.7193 46.3469ZM65.5429 60.9195L63.5399 62.9224L61.7097 61.0922L59.8794 62.9224L57.8764 60.9195L59.7067 59.0893L57.8764 57.2591L59.8794 55.2562L61.7097 57.0864L63.5399 55.2562L65.5429 57.2591L63.7126 59.0893L65.5429 60.9195ZM59.8794 51.5958L57.8764 49.5929L61.1235 46.3469H58.8779C54.9749 46.3469 51.7986 49.5231 51.7986 53.426C51.7986 58.8911 47.3528 63.3367 41.8876 63.3367H34.8083V60.5051H41.8876C45.7907 60.5051 48.9669 57.329 48.9669 53.426C48.9669 47.961 53.4127 43.5153 58.8779 43.5153H61.1235L57.8764 40.2693L59.8794 38.2664L66.5434 44.9311L59.8794 51.5958Z" fill="#0D3642"/>
</svg>
