<svg width="24" height="24" viewBox="0 0 24 24" fill="none" xmlns="http://www.w3.org/2000/svg">
<g id="typcn:phone">
<path id="Vector" d="M10.626 7.083L6.915 3.373L7.353 2.939C7.919 2.373 8.908 2.373 9.474 2.939L11.06 4.525C11.344 4.809 11.5 5.186 11.5 5.586C11.5 5.986 11.344 6.363 11.062 6.646L10.626 7.083ZM17.354 12.939C17.92 12.373 18.909 12.373 19.475 12.939L21.061 14.525C21.344 14.809 21.5 15.186 21.5 15.586C21.5 15.986 21.344 16.363 21.059 16.648L20.622 17.08L16.919 13.377L17.354 12.939ZM5.563 4.729L5.917 4.375L9.625 8.083L8.975 8.732C8.92844 8.77845 8.89149 8.83362 8.86629 8.89437C8.84108 8.95512 8.82811 9.02024 8.82811 9.086C8.82811 9.15177 8.84108 9.21689 8.86629 9.27764C8.89149 9.33838 8.92844 9.39356 8.975 9.44L14.561 15.026C14.6564 15.1167 14.7829 15.1672 14.9145 15.1672C15.0461 15.1672 15.1726 15.1167 15.268 15.026L15.918 14.376L19.62 18.086L19.266 18.44C19.006 18.7 18.02 19.545 16.21 19.545C14.594 19.545 11.954 18.833 8.56 15.44C1.787 8.665 5.402 4.89 5.563 4.729Z" fill="#FB7A00"/>
</g>
</svg>
