<svg width="60" height="60" viewBox="0 0 60 60" fill="none" xmlns="http://www.w3.org/2000/svg">
<path fill-rule="evenodd" clip-rule="evenodd" d="M36.495 49.4247C29.3541 49.4247 23.5652 43.6358 23.5652 36.4949C23.5652 29.2163 29.4839 23.5651 36.495 23.5651C43.6359 23.5651 49.4248 29.3539 49.4248 36.4949C49.4248 43.6358 43.6359 49.4247 36.495 49.4247ZM29.0929 37.0754C28.4154 36.1512 28.6154 34.8527 29.5397 34.1753C30.4638 33.4979 31.7624 33.6979 32.4397 34.6221L34.9021 37.9712L40.5503 30.2891C41.2276 29.3648 42.5262 29.1649 43.4503 29.8423C44.3746 30.5197 44.5745 31.8182 43.8972 32.7423L36.6021 42.6643C35.7881 43.7987 34.0813 43.862 33.2286 42.7006L29.0929 37.0754ZM17.9575 31.974C18.4199 30.0732 19.1736 28.2555 20.1919 26.5852L18.6254 25.0187C18.0091 24.4025 18.0091 23.3973 18.6254 22.781L22.7811 18.6253C23.3974 18.0091 24.4027 18.0091 25.0188 18.6253L26.5845 20.1909C28.255 19.1725 30.073 18.4186 31.9741 17.9563V15.7444C31.9741 14.8729 32.685 14.1621 33.5564 14.1621H39.4335C40.3049 14.1621 41.0157 14.873 41.0157 15.7444V17.9575C42.9165 18.4199 44.7343 19.1736 46.4046 20.1919L47.9711 18.6254C48.5873 18.0093 49.5926 18.0093 50.2088 18.6254L54.3645 22.7811C54.9807 23.3974 54.9807 24.4027 54.3645 25.0188L52.7988 26.5845C53.8172 28.255 54.571 30.0731 55.0335 31.9741H57.2455C58.117 31.9741 58.8278 32.685 58.8278 33.5564V39.4335C58.8278 40.305 58.1169 41.0157 57.2455 41.0157H55.0335C54.5711 42.9168 53.8173 44.7349 52.7987 46.4053L54.3645 47.9711C54.9807 48.5873 54.9807 49.5925 54.3645 50.2088L50.2088 54.3645C49.5925 54.9807 48.5872 54.9807 47.9711 54.3645L46.4048 52.7982C44.7344 53.8164 42.9166 54.57 41.0157 55.0324V57.2455C41.0157 58.117 40.3049 58.8278 39.4335 58.8278H33.5564C32.6849 58.8278 31.9741 58.1169 31.9741 57.2455V55.0335C30.0731 54.5711 28.255 53.8172 26.5846 52.7987L25.0188 54.3645C24.4027 54.9807 23.3974 54.9807 22.7811 54.3645L18.6254 50.2088C18.0091 49.5925 18.0091 48.5872 18.6254 47.9711L20.1915 46.4048C19.1733 44.7344 18.4197 42.9165 17.9575 41.0156H15.7444C14.8729 41.0156 14.1621 40.3048 14.1621 39.4334V33.5563C14.1621 32.6849 14.8729 31.974 15.7444 31.974H17.9575ZM36.495 50.8309C28.5779 50.8309 22.159 44.412 22.159 36.4949C22.159 28.5778 28.5779 22.1589 36.495 22.1589C44.4121 22.1589 50.831 28.5778 50.831 36.4949C50.831 44.412 44.4121 50.8309 36.495 50.8309Z" fill="#FB7A00"/>
<path fill-rule="evenodd" clip-rule="evenodd" d="M4.14223 15.1124H2.4102C1.72816 15.1124 1.17188 15.6687 1.17188 16.3507V20.9504C1.17188 21.6325 1.72816 22.1887 2.4102 22.1887H4.14223C4.50408 23.6764 5.09391 25.0992 5.89078 26.4066L4.665 27.6323C4.18266 28.1147 4.18266 28.9014 4.665 29.3836L7.91742 32.636C8.39965 33.1184 9.18645 33.1184 9.66879 32.636L10.8942 31.4106C11.556 31.8138 12.2482 32.1648 12.9646 32.4602C13.4027 31.3534 14.4839 30.5682 15.7446 30.5682H16.8838C17.0832 29.9081 17.316 29.2586 17.5813 28.6221C11.463 27.9626 7.37062 22.0002 8.96367 16.0548C10.3966 10.7068 15.8977 7.53059 21.246 8.96367C25.2681 10.0414 28.1831 13.4801 28.6229 17.5796C29.2591 17.3145 29.9083 17.0819 30.5681 16.8826V15.7446C30.5681 14.4838 31.3533 13.4027 32.4601 12.9645C32.1647 12.248 31.8138 11.5557 31.4105 10.894L32.6358 9.66867C33.1181 9.18633 33.1181 8.39965 32.6358 7.9173L29.3834 4.66488C28.901 4.18254 28.1143 4.18254 27.6321 4.66488L26.4061 5.8909C25.0989 5.09394 23.6762 4.50407 22.1885 4.14223V2.4102C22.1885 1.72816 21.6322 1.17188 20.9502 1.17188H16.3506C15.6686 1.17188 15.1123 1.72816 15.1123 2.4102V4.14141C13.6244 4.50333 12.2015 5.09328 10.894 5.89031L9.66867 4.665C9.18633 4.18266 8.39965 4.18266 7.9173 4.665L4.66488 7.91742C4.18254 8.39976 4.18254 9.18644 4.66488 9.66879L5.89078 10.8947C5.09384 12.2019 4.50417 13.6247 4.14223 15.1124ZM16.4188 26.9788C11.8192 25.7463 9.08953 21.0185 10.322 16.4188C11.5545 11.8192 16.2823 9.08953 20.882 10.322C24.5855 11.3143 27.0761 14.573 27.2627 18.206C27.114 18.2813 26.9661 18.3583 26.8192 18.4371L26.0133 17.6312C24.8482 16.4661 22.9519 16.4661 21.7868 17.6312L17.6311 21.7869C16.466 22.952 16.466 24.8482 17.6311 26.0134L18.4378 26.8201C18.3592 26.9666 18.2823 27.114 18.2073 27.2624C17.6028 27.2306 17.0034 27.1356 16.4188 26.9788Z" fill="white"/>
</svg>
