<svg width="60" height="60" viewBox="0 0 60 60" fill="none" xmlns="http://www.w3.org/2000/svg">
<path fill-rule="evenodd" clip-rule="evenodd" d="M10.6762 55.1381V51.1139H6.65195L10.6762 55.1381ZM37.4348 24.7104L37.368 26.9486C36.4738 27.2041 35.6137 27.5604 34.8016 28.0104L33.1609 26.4658C32.9844 26.2979 32.7491 26.2058 32.5055 26.2093C32.2619 26.2128 32.0294 26.3116 31.8578 26.4846L30.6391 27.7033H9.57461C9.18555 27.7033 8.87148 28.0186 8.87148 28.4064C8.87148 28.7943 9.18555 29.1096 9.57461 29.1096H29.2328L28.4992 29.8432C28.3261 30.0146 28.2271 30.2471 28.2234 30.4907C28.2197 30.7343 28.3115 30.9696 28.4793 31.1463L29.3512 32.0721H9.57461C9.18555 32.0721 8.87148 32.3873 8.87148 32.7752C8.87148 33.1643 9.18555 33.4783 9.57461 33.4783H29.6699C29.383 34.0825 29.1463 34.7092 28.9621 35.3521L26.7086 35.4201C26.4652 35.4265 26.2339 35.5279 26.0643 35.7027C25.8948 35.8775 25.8005 36.1118 25.8016 36.3553V36.4408H9.57461C9.18555 36.4408 8.87148 36.7549 8.87148 37.1439C8.87148 37.5318 9.18555 37.8471 9.57461 37.8471H25.8016V40.8107H9.57461C9.18555 40.8107 8.87148 41.126 8.87148 41.5139C8.87148 41.9018 9.18555 42.217 9.57461 42.217H28.9949C29.248 43.0713 29.5926 43.8951 30.025 44.6744L29.548 45.1807H9.57461C9.18555 45.1807 8.87148 45.4959 8.87148 45.8838C8.87148 46.2729 9.18555 46.5869 9.57461 46.5869H28.3012C28.2265 46.759 28.2055 46.9495 28.2408 47.1337C28.2761 47.3179 28.3662 47.4871 28.4992 47.6193L31.8578 50.9779C32.0294 51.1508 32.2618 51.2496 32.5053 51.2533C32.7488 51.257 32.9841 51.1653 33.1609 50.9979L34.8016 49.4533C35.6125 49.9033 36.4727 50.2596 37.3656 50.515L37.4348 52.7615V56.133H12.0824V50.4119C12.0824 50.024 11.7684 49.7088 11.3793 49.7088H5.6582V15.8439H37.4348V24.7104ZM34.2215 24.0377C34.2215 23.6486 33.9074 23.3346 33.5184 23.3346H9.57461C9.18555 23.3346 8.87148 23.6486 8.87148 24.0377C8.87148 24.4268 9.18555 24.7408 9.57461 24.7408H33.5184C33.9074 24.7408 34.2215 24.4256 34.2215 24.0377ZM33.5184 20.3709C33.9074 20.3709 34.2215 20.0557 34.2215 19.6678C34.2215 19.2787 33.9074 18.9646 33.5184 18.9646H9.57461C9.18555 18.9646 8.87148 19.2799 8.87148 19.6678C8.87148 20.0557 9.18555 20.3709 9.57461 20.3709H33.5184ZM38.841 15.1408C38.841 14.7529 38.527 14.4377 38.1379 14.4377H10.5883V10.7275H53.6629V35.3861L52.5285 35.351C52.274 34.4594 51.9181 33.5999 51.468 32.7893L53.0137 31.1451C53.181 30.9684 53.2725 30.7332 53.2685 30.4898C53.2646 30.2465 53.1655 30.0144 52.9926 29.8432L49.634 26.4846C49.4624 26.3118 49.23 26.2129 48.9865 26.2092C48.743 26.2055 48.5077 26.2972 48.3309 26.4646L46.6879 28.0092C45.8769 27.5592 45.0168 27.2029 44.1238 26.9475L44.0559 24.6939C44.0497 24.4504 43.9484 24.2191 43.7735 24.0495C43.5987 23.8799 43.3643 23.7856 43.1207 23.7869H38.841V15.1408Z" fill="#FB7A00"/>
<path fill-rule="evenodd" clip-rule="evenodd" d="M38.7617 27.3393C38.75 27.7611 38.4664 28.1139 38.0574 28.2182C37.0568 28.4732 36.0978 28.8702 35.2098 29.3971C34.8477 29.6127 34.3977 29.5623 34.0906 29.274L32.5285 27.8021L29.8156 30.515L31.2863 32.0772C31.5758 32.3842 31.625 32.8342 31.4105 33.1963C30.8831 34.0841 30.486 35.0431 30.2316 36.0439C30.1273 36.4518 29.7746 36.7354 29.3527 36.7482L27.207 36.8127V40.6494L29.3527 40.7139C29.7746 40.7268 30.1273 41.0092 30.2316 41.4182C30.4859 42.419 30.883 43.3781 31.4105 44.2658C31.625 44.6279 31.5758 45.0779 31.2863 45.385L29.8156 46.9471L32.5285 49.66L34.0906 48.1893C34.3977 47.8998 34.8477 47.8506 35.2098 48.0662C36.0972 48.5924 37.0553 48.989 38.0551 49.2439C38.4629 49.3482 38.7465 49.701 38.7594 50.1217L38.8262 52.2697H42.6641L42.7309 50.1217C42.7438 49.701 43.0273 49.3482 43.4352 49.2439C44.4337 48.9894 45.3907 48.5932 46.277 48.0674C46.6402 47.8518 47.0891 47.9021 47.3961 48.1904L48.9605 49.6611L51.6758 46.9471L50.2039 45.3815C49.9156 45.0756 49.8664 44.6256 50.082 44.2635C50.6076 43.3767 51.0038 42.4193 51.2586 41.4205C51.3617 41.0127 51.7145 40.7291 52.1363 40.7162L54.2832 40.6494V36.8115L52.1363 36.7447C51.7145 36.7318 51.3617 36.4482 51.2586 36.0404C51.0035 35.042 50.6074 34.0851 50.082 33.1986C49.8664 32.8365 49.9156 32.3865 50.2039 32.0795L51.6758 30.5139L48.9605 27.7998L47.3961 29.2705C47.2486 29.4105 47.0594 29.4983 46.8573 29.5205C46.6551 29.5428 46.4513 29.4982 46.277 29.3936C45.3902 28.867 44.4324 28.4708 43.4328 28.217C43.0238 28.1127 42.7402 27.76 42.7285 27.3381L42.6641 25.1924H38.8262L38.7617 27.3393ZM35.8145 33.7998C37.1316 32.4826 38.8824 31.7572 40.7445 31.7572C42.6078 31.7572 44.3586 32.4826 45.6758 33.7998C48.3957 36.5186 48.3957 40.9436 45.6758 43.6623C44.3164 45.0217 42.5305 45.7014 40.7445 45.7014C38.9598 45.7014 37.1738 45.0217 35.8145 43.6623C33.0945 40.9436 33.0945 36.5197 35.8145 33.7998Z" fill="white"/>
<path fill-rule="evenodd" clip-rule="evenodd" d="M10.5879 9.32109H53.6625V2.96133C53.6622 2.82871 53.6094 2.70161 53.5156 2.60784C53.4218 2.51407 53.2947 2.46125 53.1621 2.46094H11.0883C10.9557 2.46125 10.8286 2.51407 10.7348 2.60784C10.641 2.70161 10.5882 2.82871 10.5879 2.96133V9.32109ZM43.2457 6.59414C42.8566 6.59414 42.5426 6.27891 42.5426 5.89102C42.5426 5.50195 42.8566 5.18789 43.2457 5.18789H43.2973C43.6852 5.18789 44.0004 5.50313 44.0004 5.89102C44.0004 6.27891 43.6852 6.59414 43.2973 6.59414H43.2457ZM48.1746 6.59414C47.7867 6.59414 47.4715 6.27891 47.4715 5.89102C47.4715 5.50195 47.7867 5.18789 48.1746 5.18789H48.2262C48.6141 5.18789 48.9293 5.50313 48.9293 5.89102C48.9293 6.27891 48.6141 6.59414 48.2262 6.59414H48.1746ZM38.3695 6.59414C37.9805 6.59414 37.6664 6.27891 37.6664 5.89102C37.6664 5.50195 37.9805 5.18789 38.3695 5.18789H38.4211C38.809 5.18789 39.1242 5.50313 39.1242 5.89102C39.1242 6.27891 38.809 6.59414 38.4211 6.59414H38.3695Z" fill="white"/>
</svg>
