<svg width="60" height="60" viewBox="0 0 60 60" fill="none" xmlns="http://www.w3.org/2000/svg">
<path d="M10 48.8427C10 49.0205 10.1173 49.177 10.288 49.2267L28.6547 54.5834C28.9107 54.6581 29.1667 54.4661 29.1667 54.1994V50.1027C29.1667 49.925 29.0494 49.7685 28.8787 49.7187L10.512 44.3613C10.256 44.2866 10 44.4786 10 44.7453V48.8427Z" fill="white"/>
<path d="M50.0007 44.7453C50.0007 44.4786 49.7447 44.2866 49.4887 44.3613L31.122 49.7187C30.9513 49.7685 30.834 49.925 30.834 50.1027V54.1994C30.834 54.4661 31.09 54.6581 31.346 54.5834L49.7127 49.2268C49.8833 49.177 50.0007 49.0205 50.0007 48.8427V44.7453Z" fill="white"/>
<path d="M14.166 9.04193C14.166 9.09716 14.2108 9.14193 14.266 9.14193H17.2579C17.347 9.14193 17.3916 9.03422 17.3286 8.97122L14.3367 5.9793C14.2737 5.91631 14.166 5.96092 14.166 6.05002V9.04193Z" fill="white"/>
<path d="M50.834 9.04193C50.834 9.09716 50.8788 9.14193 50.934 9.14193H53.9259C54.015 9.14193 54.0596 9.03422 53.9966 8.97122L51.0047 5.9793C50.9417 5.91631 50.834 5.96092 50.834 6.05002V9.04193Z" fill="white"/>
<path d="M54.9993 11.0089C54.9993 10.8985 54.9098 10.8089 54.7993 10.8089H49.366C49.2555 10.8089 49.166 10.7194 49.166 10.6089V5.17559C49.166 5.06513 49.0765 4.97559 48.966 4.97559H41.866C41.7555 4.97559 41.666 5.06513 41.666 5.17559V23.1089C41.666 23.2194 41.7555 23.3089 41.866 23.3089H46.466C46.5765 23.3089 46.666 23.3985 46.666 23.5089V24.9756C46.666 26.3539 45.5443 27.4756 44.166 27.4756H41.666C39.3685 27.4756 37.4993 29.3448 37.4993 31.6423V32.4811C37.4993 32.6593 37.2839 32.7485 37.1579 32.6225L35.7299 31.1945C35.6518 31.1164 35.5252 31.1164 35.4471 31.1945L34.5516 32.09C34.4735 32.1681 34.4735 32.2948 34.5516 32.3729L38.1912 36.0125C38.2693 36.0906 38.396 36.0906 38.4741 36.0125L42.1137 32.3729C42.1918 32.2948 42.1918 32.1681 42.1137 32.09L41.2183 31.1945C41.1401 31.1164 41.0135 31.1164 40.9354 31.1945L39.5074 32.6225C39.3814 32.7485 39.166 32.6593 39.166 32.4811V31.6423C39.166 30.2639 40.2877 29.1423 41.666 29.1423H44.166C46.4635 29.1423 48.3327 27.2731 48.3327 24.9756V23.5089C48.3327 23.3985 48.4222 23.3089 48.5327 23.3089H54.7993C54.9098 23.3089 54.9993 23.2194 54.9993 23.1089V11.0089ZM44.166 9.34226C44.166 9.2318 44.2555 9.14226 44.366 9.14226H47.2993C47.4098 9.14226 47.4993 9.2318 47.4993 9.34226V10.6089C47.4993 10.7194 47.4098 10.8089 47.2993 10.8089H44.366C44.2555 10.8089 44.166 10.7194 44.166 10.6089V9.34226ZM52.4993 20.6089C52.4993 20.7194 52.4098 20.8089 52.2993 20.8089H44.366C44.2555 20.8089 44.166 20.7194 44.166 20.6089V19.3423C44.166 19.2318 44.2555 19.1423 44.366 19.1423H52.2993C52.4098 19.1423 52.4993 19.2318 52.4993 19.3423V20.6089ZM52.4993 17.2756C52.4993 17.3861 52.4098 17.4756 52.2993 17.4756H44.366C44.2555 17.4756 44.166 17.3861 44.166 17.2756V16.0089C44.166 15.8985 44.2555 15.8089 44.366 15.8089H52.2993C52.4098 15.8089 52.4993 15.8985 52.4993 16.0089V17.2756ZM52.4993 13.9423C52.4993 14.0527 52.4098 14.1423 52.2993 14.1423H44.366C44.2555 14.1423 44.166 14.0527 44.166 13.9423V12.6756C44.166 12.5651 44.2555 12.4756 44.366 12.4756H52.2993C52.4098 12.4756 52.4993 12.5651 52.4993 12.6756V13.9423Z" fill="#FB7A00"/>
<path d="M32.4613 39.6694C32.6176 39.5132 32.8708 39.5132 33.027 39.6694L33.6397 40.2821C33.7959 40.4383 33.7959 40.6915 33.6397 40.8478L30.2829 44.2046C30.1267 44.3608 29.8734 44.3608 29.7172 44.2046L26.3604 40.8478C26.2042 40.6915 26.2042 40.4383 26.3604 40.2821L26.973 39.6694C27.1292 39.5132 27.3825 39.5132 27.5387 39.6694L28.4838 40.6146C28.7358 40.8666 29.1667 40.6881 29.1667 40.3317V37.4191C29.1667 37.1524 28.9107 36.9604 28.6547 37.0351L11.3166 42.0918C10.9326 42.2038 10.9326 42.7478 11.3166 42.8598L29.888 48.2764C29.9612 48.2978 30.0389 48.2978 30.112 48.2764L48.6834 42.8598C49.0674 42.7478 49.0674 42.2038 48.6834 42.0918L31.3454 37.0351C31.0894 36.9604 30.8334 37.1524 30.8334 37.4191V40.3317C30.8334 40.6881 31.2642 40.8666 31.5162 40.6146L32.4613 39.6694Z" fill="white"/>
<path d="M29.8885 36.675C29.9618 36.6536 30.0396 36.6536 30.1128 36.675L30.3219 36.7361C30.5779 36.8108 30.834 36.6188 30.834 36.3521V23.7089C30.834 23.488 31.0131 23.3089 31.234 23.3089H36.2673C36.4882 23.3089 36.6673 23.1299 36.6673 22.9089V11.2089C36.6673 10.988 36.4882 10.8089 36.2673 10.8089H31.234C31.0131 10.8089 30.834 10.6298 30.834 10.4089V5.37559C30.834 5.15467 30.6549 4.97559 30.434 4.97559H23.734C23.5131 4.97559 23.334 5.15467 23.334 5.37559V22.9089C23.334 23.1299 23.5131 23.3089 23.734 23.3089H28.7673C28.9882 23.3089 29.1673 23.488 29.1673 23.7089V36.3521C29.1673 36.6188 29.4234 36.8108 29.6794 36.7361L29.8885 36.675ZM30.834 20.4089C30.834 20.6299 30.6549 20.8089 30.434 20.8089H29.5673C29.3464 20.8089 29.1673 20.6299 29.1673 20.4089V19.5423C29.1673 19.3214 29.3464 19.1423 29.5673 19.1423H30.434C30.6549 19.1423 30.834 19.3214 30.834 19.5423V20.4089ZM34.1673 20.4089C34.1673 20.6299 33.9882 20.8089 33.7673 20.8089H32.9007C32.6797 20.8089 32.5007 20.6299 32.5007 20.4089V19.5423C32.5007 19.3214 32.6797 19.1423 32.9007 19.1423H33.7673C33.9882 19.1423 34.1673 19.3214 34.1673 19.5423V20.4089ZM25.834 9.54226C25.834 9.32134 26.0131 9.14226 26.234 9.14226H28.7673C28.9882 9.14226 29.1673 9.32134 29.1673 9.54226V10.4089C29.1673 10.6298 28.9882 10.8089 28.7673 10.8089H26.234C26.0131 10.8089 25.834 10.6298 25.834 10.4089V9.54226ZM25.834 12.8756C25.834 12.6547 26.0131 12.4756 26.234 12.4756H33.7673C33.9882 12.4756 34.1673 12.6547 34.1673 12.8756V13.7423C34.1673 13.9632 33.9882 14.1423 33.7673 14.1423H26.234C26.0131 14.1423 25.834 13.9632 25.834 13.7423V12.8756ZM25.834 16.2089C25.834 15.988 26.0131 15.8089 26.234 15.8089H33.7673C33.9882 15.8089 34.1673 15.988 34.1673 16.2089V17.0756C34.1673 17.2965 33.9882 17.4756 33.7673 17.4756H26.234C26.0131 17.4756 25.834 17.2965 25.834 17.0756V16.2089ZM27.5007 20.4089C27.5007 20.6299 27.3216 20.8089 27.1007 20.8089H26.234C26.0131 20.8089 25.834 20.6299 25.834 20.4089V19.5423C25.834 19.3214 26.0131 19.1423 26.234 19.1423H27.1007C27.3216 19.1423 27.5007 19.3214 27.5007 19.5423V20.4089Z" fill="#FB7A00"/>
<path d="M11.6667 24.9756C11.6667 27.2731 13.5358 29.1423 15.8333 29.1423H18.3333C19.7117 29.1423 20.8334 30.2639 20.8334 31.6423V31.9983C20.8334 32.3546 20.4025 32.5331 20.1505 32.2811L19.2054 31.336C19.0491 31.1797 18.7959 31.1797 18.6397 31.336L18.027 31.9486C17.8708 32.1048 17.8708 32.3581 18.027 32.5143L21.3838 35.8711C21.5401 36.0273 21.7933 36.0273 21.9495 35.8711L25.3063 32.5143C25.4626 32.3581 25.4626 32.1048 25.3063 31.9486L24.6937 31.336C24.5375 31.1797 24.2842 31.1797 24.128 31.336L23.1829 32.2811C22.9309 32.5331 22.5 32.3546 22.5 31.9983V31.6423C22.5 29.3448 20.6308 27.4756 18.3333 27.4756H15.8333C14.455 27.4756 13.3333 26.3539 13.3333 24.9756V23.7089C13.3333 23.488 13.5124 23.3089 13.7333 23.3089H17.9333C18.1543 23.3089 18.3333 23.1299 18.3333 22.9089V11.2089C18.3333 10.988 18.1543 10.8089 17.9333 10.8089H12.9C12.6791 10.8089 12.5 10.6298 12.5 10.4089V5.37559C12.5 5.15467 12.3209 4.97559 12.1 4.97559H5.4C5.17909 4.97559 5 5.15467 5 5.37559V22.9089C5 23.1299 5.17909 23.3089 5.4 23.3089H11.2667C11.4876 23.3089 11.6667 23.488 11.6667 23.7089V24.9756ZM7.5 9.54226C7.5 9.32134 7.67909 9.14226 7.9 9.14226H10.4333C10.6543 9.14226 10.8333 9.32134 10.8333 9.54226V10.4089C10.8333 10.6298 10.6543 10.8089 10.4333 10.8089H7.9C7.67909 10.8089 7.5 10.6298 7.5 10.4089V9.54226ZM7.5 12.8756C7.5 12.6547 7.67909 12.4756 7.9 12.4756H15.4333C15.6543 12.4756 15.8333 12.6547 15.8333 12.8756V13.7423C15.8333 13.9632 15.6543 14.1423 15.4333 14.1423H7.9C7.67909 14.1423 7.5 13.9632 7.5 13.7423V12.8756ZM7.5 16.2089C7.5 15.988 7.67909 15.8089 7.9 15.8089H15.4333C15.6543 15.8089 15.8333 15.988 15.8333 16.2089V17.0756C15.8333 17.2965 15.6543 17.4756 15.4333 17.4756H7.9C7.67909 17.4756 7.5 17.2965 7.5 17.0756V16.2089ZM7.5 19.5423C7.5 19.3214 7.67909 19.1423 7.9 19.1423H15.4333C15.6543 19.1423 15.8333 19.3214 15.8333 19.5423V20.4089C15.8333 20.6299 15.6543 20.8089 15.4333 20.8089H7.9C7.67909 20.8089 7.5 20.6299 7.5 20.4089V19.5423Z" fill="#FB7A00"/>
<path d="M32.5 9.04193C32.5 9.09716 32.5448 9.14193 32.6 9.14193H35.5919C35.681 9.14193 35.7256 9.03422 35.6626 8.97122L32.6707 5.9793C32.6077 5.91631 32.5 5.96092 32.5 6.05002V9.04193Z" fill="white"/>
</svg>
