<svg width="60" height="60" viewBox="0 0 60 60" fill="none" xmlns="http://www.w3.org/2000/svg">
<path d="M40.2534 32.6547C37.659 38.0023 32.165 41.822 25.7552 41.822C17.0564 41.822 9.73098 34.6409 9.73098 25.7792C9.73098 17.0703 16.7511 9.73644 25.7552 9.73644C30.0284 9.73644 34.1489 11.4171 37.2012 14.4729C39.0325 16.3063 40.2534 18.4454 41.0165 20.7372L44.5265 17.2231C43.4582 14.9312 42.0847 12.945 40.2534 11.1115C36.2855 7.29183 31.0967 5 25.6026 5C14.3093 5.15279 5 14.4729 5 25.7792C5 37.2383 14.3093 46.4057 25.6026 46.4057C36.2855 46.4057 44.8318 38.3079 46.0527 28.3766C43.7635 30.5157 42.8478 32.6547 40.2534 32.6547ZM53.2254 53.2811C50.9362 55.573 47.1209 55.573 44.6791 53.2811L37.659 46.2529C39.3377 45.1833 41.0165 43.961 42.39 42.5859C43.9161 41.0581 45.137 39.5302 46.2053 37.6967L53.2254 44.725C55.5146 47.0168 55.6672 50.8365 53.2254 53.2811Z" fill="#FB7A00"/>
<path d="M51.5394 18.6379L48.622 21.5862L40.6378 29.5C40.0236 30.1207 39.1024 30.1207 38.4882 29.5L33.4213 24.3793L25.437 32.4483C24.8228 33.069 23.9016 33.069 23.2874 32.4483L19.7559 28.8793L14.689 34C14.0748 33.2241 13.4606 32.1379 13 31.2069L18.6811 25.7759C19.2953 25.1552 20.2165 25.1552 20.8307 25.7759L24.3622 29.3448L32.3465 21.2759C32.9606 20.6552 33.8819 20.6552 34.4961 21.2759L38.1811 25L39.563 26.3966L47.7008 18.1724L49.3898 16.4655C50.0039 15.8448 50.9252 15.8448 51.5394 16.4655C52.1535 17.0862 52.1535 18.0172 51.5394 18.6379Z" fill="white"/>
</svg>
