<svg width="190" height="214" viewBox="0 0 190 214" fill="none" xmlns="http://www.w3.org/2000/svg">
<path d="M4.46091 11.6211C8.85858 37.6719 27.1034 76.4045 98.1469 100.52C164.822 123.153 186.878 173.184 185.98 203.127" stroke="#FB7A00" stroke-width="0.95499" stroke-miterlimit="1" stroke-linecap="round" stroke-dasharray="7.13 7.13"/>
<circle cx="4.00464" cy="4.00464" r="3.50464" transform="matrix(-1 0 0 1 190.01 206)" fill="#FFE6CE" stroke="#FB7A00" stroke-miterlimit="1" stroke-linecap="round"/>
<circle cx="1" cy="1" r="1" transform="matrix(-1 0 0 1 187.01 209)" fill="#FB7A00"/>
<circle cx="12.1013" cy="12.1013" r="11.7449" transform="matrix(-1 0 0 1 100.201 83.1719)" fill="#FFE6CE" stroke="#FB7A00" stroke-width="0.712679"/>
<circle cx="5.61695" cy="5.61695" r="5.61695" transform="matrix(-1 0 0 1 93.7168 89.6562)" fill="#FB7A00"/>
<circle cx="4.00464" cy="4.00464" r="3.50464" transform="matrix(-1 0 0 1 8.00977 0)" fill="#FFE6CE" stroke="#FB7A00" stroke-miterlimit="1" stroke-linecap="round"/>
<circle cx="1" cy="1" r="1" transform="matrix(-1 0 0 1 5.00977 3)" fill="#FB7A00"/>
</svg>
