<svg width="80" height="81" viewBox="0 0 80 81" fill="none" xmlns="http://www.w3.org/2000/svg">
<rect width="80" height="80" transform="translate(0 0.584473)" fill="#CEDBDF"/>
<g clip-path="url(#clip0_2379_75437)">
<path d="M53 31.9185C54.7239 31.9185 56.3772 32.6033 57.5962 33.8223C58.8152 35.0412 59.5 36.6946 59.5 38.4185C59.5 40.1424 58.8152 41.7957 57.5962 43.0147C56.3772 44.2336 54.7239 44.9185 53 44.9185" stroke="#FB7A00" stroke-width="3.25" stroke-linecap="round" stroke-linejoin="round"/>
<path d="M35.666 31.9185V55.7518C35.666 56.3264 35.4377 56.8775 35.0314 57.2839C34.6251 57.6902 34.074 57.9185 33.4993 57.9185H31.3327C30.758 57.9185 30.2069 57.6902 29.8006 57.2839C29.3943 56.8775 29.166 56.3264 29.166 55.7518V44.9185" stroke="#FB7A00" stroke-width="3.25" stroke-linecap="round" stroke-linejoin="round"/>
<path d="M40 31.9174L49.802 23.749C50.0868 23.5118 50.4334 23.3607 50.801 23.3133C51.1686 23.266 51.5422 23.3244 51.8778 23.4818C52.2134 23.6391 52.4972 23.8889 52.696 24.2018C52.8947 24.5146 53.0002 24.8777 53 25.2484V51.5864C53.0002 51.957 52.8947 52.3201 52.696 52.633C52.4972 52.9459 52.2134 53.1956 51.8778 53.353C51.5422 53.5103 51.1686 53.5687 50.801 53.5214C50.4334 53.4741 50.0868 53.3229 49.802 53.0857L40 44.9174H22.6667C22.092 44.9174 21.5409 44.6891 21.1346 44.2828C20.7283 43.8764 20.5 43.3253 20.5 42.7507V34.084C20.5 33.5094 20.7283 32.9583 21.1346 32.552C21.5409 32.1456 22.092 31.9174 22.6667 31.9174H40Z" stroke="#FB7A00" stroke-width="3.25" stroke-linecap="round" stroke-linejoin="round"/>
</g>
<defs>
<clipPath id="clip0_2379_75437">
<rect width="52" height="52" fill="white" transform="translate(14 14.5845)"/>
</clipPath>
</defs>
</svg>
