<svg width="80" height="81" viewBox="0 0 80 81" fill="none" xmlns="http://www.w3.org/2000/svg">
<rect width="80" height="80" transform="translate(0 0.584473)" fill="#CEDBDF"/>
<g clip-path="url(#clip0_2379_75474)">
<path d="M20.5 40.5845C20.5 42.3084 21.1848 43.9617 22.4038 45.1807C23.6228 46.3997 25.2761 47.0845 27 47.0845C28.7239 47.0845 30.3772 46.3997 31.5962 45.1807C32.8152 43.9617 33.5 42.3084 33.5 40.5845C33.5 38.8606 32.8152 37.2073 31.5962 35.9883C30.3772 34.7693 28.7239 34.0845 27 34.0845C25.2761 34.0845 23.6228 34.7693 22.4038 35.9883C21.1848 37.2073 20.5 38.8606 20.5 40.5845Z" stroke="#FB7A00" stroke-width="3.25" stroke-linecap="round" stroke-linejoin="round"/>
<path d="M46.5 27.5845C46.5 29.3084 47.1848 30.9617 48.4038 32.1807C49.6228 33.3997 51.2761 34.0845 53 34.0845C54.7239 34.0845 56.3772 33.3997 57.5962 32.1807C58.8152 30.9617 59.5 29.3084 59.5 27.5845C59.5 25.8606 58.8152 24.2073 57.5962 22.9883C56.3772 21.7693 54.7239 21.0845 53 21.0845C51.2761 21.0845 49.6228 21.7693 48.4038 22.9883C47.1848 24.2073 46.5 25.8606 46.5 27.5845Z" stroke="#FB7A00" stroke-width="3.25" stroke-linecap="round" stroke-linejoin="round"/>
<path d="M46.5 53.5845C46.5 55.3084 47.1848 56.9617 48.4038 58.1807C49.6228 59.3997 51.2761 60.0845 53 60.0845C54.7239 60.0845 56.3772 59.3997 57.5962 58.1807C58.8152 56.9617 59.5 55.3084 59.5 53.5845C59.5 51.8606 58.8152 50.2073 57.5962 48.9883C56.3772 47.7693 54.7239 47.0845 53 47.0845C51.2761 47.0845 49.6228 47.7693 48.4038 48.9883C47.1848 50.2073 46.5 51.8606 46.5 53.5845Z" stroke="#FB7A00" stroke-width="3.25" stroke-linecap="round" stroke-linejoin="round"/>
<path d="M32.8477 37.7695L47.1477 30.4028" stroke="#FB7A00" stroke-width="3.25" stroke-linecap="round" stroke-linejoin="round"/>
<path d="M32.8477 43.4028L47.1477 50.7695" stroke="#FB7A00" stroke-width="3.25" stroke-linecap="round" stroke-linejoin="round"/>
</g>
<defs>
<clipPath id="clip0_2379_75474">
<rect width="52" height="52" fill="white" transform="translate(14 14.5845)"/>
</clipPath>
</defs>
</svg>
