<svg width="16" height="16" viewBox="0 0 16 16" fill="none" xmlns="http://www.w3.org/2000/svg">
<path d="M8.62689 0.695679L5.74117 3.58139H4.02689C3.90994 3.58139 3.79776 3.6278 3.715 3.71043C3.63224 3.79306 3.58565 3.90516 3.58546 4.02211V5.73639L0.701172 8.62282V2.85996C0.701739 2.28626 0.929845 1.7362 1.33545 1.33046C1.74106 0.924723 2.29104 0.696435 2.86474 0.695679H8.62689Z" fill="#0D3642"/>
<path d="M7.93031 12.6935V15.3006H2.85888C2.28518 15.2999 1.7352 15.0716 1.32959 14.6658C0.923986 14.2601 0.695879 13.71 0.695312 13.1363V12.6935H7.93031Z" fill="#E54E1A"/>
<path d="M15.3047 8.26282V13.1364C15.3059 13.4311 15.2463 13.7229 15.1297 13.9935C15.0959 14.073 15.0572 14.1502 15.014 14.225C14.9715 14.2971 14.9253 14.367 14.8754 14.4342C14.6749 14.7052 14.4134 14.9252 14.1121 15.0763C13.8108 15.2275 13.4782 15.3055 13.1411 15.3042H8.97682L11.8732 12.51L11.8911 12.4907C12.0143 12.3613 12.0829 12.1893 12.0825 12.0107L12.0782 9.45353C12.0779 9.29515 12.0147 9.14338 11.9027 9.03145C11.7906 8.91953 11.6388 8.85658 11.4804 8.85639H9.73968L6.02539 8.85068C6.56539 8.3121 7.11134 7.76639 7.66325 7.21353C7.70468 7.17282 7.74539 7.13139 7.7861 7.09068L8.02539 6.85139L8.77182 6.10425H13.1397C13.7126 6.10462 14.2621 6.33196 14.6679 6.7365C15.0736 7.14105 15.3026 7.68986 15.3047 8.26282Z" fill="black"/>
<path d="M15.3031 2.85996V6.46354C15.2488 6.39782 15.1902 6.33425 15.1295 6.27282C14.8688 6.0107 14.5586 5.80288 14.2171 5.66139C13.8755 5.5199 13.5092 5.44756 13.1395 5.44854H11.8359C11.8359 4.49354 11.8359 3.52354 11.8359 2.56496C11.8359 2.27139 11.8445 1.88425 11.8517 1.54282C11.8581 1.23854 11.8638 0.944964 11.8667 0.695679H13.1388C13.7126 0.696246 14.2628 0.924449 14.6685 1.33021C15.0743 1.73597 15.3025 2.28613 15.3031 2.85996Z" fill="black"/>
<path d="M11.4299 12.01C11.4299 12.0219 11.4253 12.0334 11.4171 12.0421L8.58065 14.7771V12.1528C8.58065 12.1247 8.56953 12.0978 8.54973 12.0778C8.52992 12.0579 8.50304 12.0466 8.47493 12.0464H0.699219V9.54639L0.869218 9.37711L9.54565 0.695679H11.2171C11.2171 0.944964 11.2092 1.24139 11.2028 1.52854C11.1956 1.89068 11.1871 2.26568 11.1871 2.56282C11.1871 3.52211 11.1871 4.49139 11.1871 5.44711H8.74493C8.57636 5.44711 8.48279 5.46854 8.43208 5.51854C7.12993 6.82354 5.8385 8.11354 4.59493 9.35425C4.58467 9.36381 4.577 9.37582 4.57264 9.38915C4.56828 9.40249 4.56738 9.41671 4.57002 9.43049C4.57267 9.44426 4.57876 9.45714 4.58774 9.46792C4.59672 9.4787 4.60829 9.48702 4.62136 9.49211C4.65614 9.5064 4.69515 9.5064 4.72993 9.49211H4.73493L11.4271 9.50282L11.4299 12.01Z" fill="#005B96"/>
</svg>
