<svg width="30" height="30" viewBox="0 0 30 30" fill="none" xmlns="http://www.w3.org/2000/svg">
<path d="M16.2538 0.391235L10.4823 6.16266H7.05377C6.81987 6.16266 6.59553 6.25548 6.43 6.42074C6.26447 6.586 6.17129 6.81019 6.17091 7.04409V10.4727L0.402344 16.2455V4.71981C0.403478 3.57239 0.859691 2.47228 1.6709 1.6608C2.48211 0.849324 3.58207 0.392748 4.72949 0.391235H16.2538Z" fill="#0D3642"/>
<path d="M14.8606 24.387V29.6012H4.71777C3.57035 29.5997 2.47039 29.1432 1.65918 28.3317C0.847972 27.5202 0.391759 26.4201 0.390625 25.2727V24.387H14.8606Z" fill="#E54E1A"/>
<path d="M29.6094 15.5258V25.2729C29.6118 25.8623 29.4927 26.4459 29.2594 26.9872C29.1917 27.146 29.1144 27.3006 29.0279 27.45C28.943 27.5944 28.8505 27.7341 28.7508 27.8686C28.3498 28.4106 27.8268 28.8505 27.2242 29.1528C26.6217 29.455 25.9564 29.6112 25.2822 29.6086H16.9536L22.7465 24.02L22.7822 23.9815C23.0286 23.7227 23.1657 23.3788 23.1651 23.0215L23.1565 17.9072C23.1557 17.5904 23.0295 17.2869 22.8054 17.063C22.5812 16.8392 22.2775 16.7133 21.9608 16.7129H18.4794L11.0508 16.7015C12.1308 15.6243 13.2227 14.5329 14.3265 13.4272C14.4094 13.3458 14.4908 13.2629 14.5722 13.1815L15.0508 12.7029L16.5436 11.2086H25.2794C26.4253 11.2094 27.5243 11.664 28.3358 12.4731C29.1473 13.2822 29.6052 14.3798 29.6094 15.5258Z" fill="black"/>
<path d="M29.6062 4.7198V11.9269C29.4976 11.7955 29.3804 11.6684 29.259 11.5455C28.7375 11.0213 28.1173 10.6056 27.4341 10.3227C26.751 10.0397 26.0185 9.89499 25.279 9.89695H22.6719C22.6719 7.98695 22.6719 6.04695 22.6719 4.12981C22.6719 3.54266 22.689 2.76838 22.7033 2.08552C22.7162 1.47695 22.7276 0.889807 22.7333 0.391235H25.2776C26.4252 0.39237 27.5256 0.848777 28.3371 1.6603C29.1486 2.47181 29.605 3.57214 29.6062 4.7198Z" fill="black"/>
<path d="M21.8599 23.0198C21.8598 23.0437 21.8506 23.0667 21.8342 23.0841L16.1613 28.5541V23.3055C16.1613 23.2493 16.1391 23.1954 16.0995 23.1555C16.0598 23.1156 16.0061 23.093 15.9499 23.0927H0.398438V18.0927L0.738436 17.7541L18.0913 0.391235H21.4341C21.4341 0.889807 21.4184 1.48266 21.4056 2.05695C21.3913 2.78123 21.3742 3.53124 21.3742 4.12552C21.3742 6.04409 21.3742 7.98266 21.3742 9.89409H16.4899C16.1527 9.89409 15.9656 9.93695 15.8642 10.0369C13.2599 12.6469 10.677 15.227 8.18986 17.7084C8.16933 17.7275 8.15399 17.7515 8.14528 17.7782C8.13657 17.8049 8.13477 17.8333 8.14005 17.8609C8.14533 17.8884 8.15752 17.9142 8.17548 17.9357C8.19344 17.9573 8.21657 17.9739 8.24272 17.9841C8.31228 18.0127 8.3903 18.0127 8.45986 17.9841H8.46987L21.8541 18.0055L21.8599 23.0198Z" fill="#005B96"/>
</svg>
