<svg width="80" height="81" viewBox="0 0 80 81" fill="none" xmlns="http://www.w3.org/2000/svg">
<rect width="80" height="80" transform="translate(0 0.584473)" fill="#CEDBDF"/>
<g clip-path="url(#clip0_2379_75463)">
<path d="M20.5 40.5845C20.5 43.1452 21.0044 45.681 21.9843 48.0468C22.9643 50.4126 24.4007 52.5623 26.2114 54.3731C28.0222 56.1838 30.1718 57.6202 32.5377 58.6001C34.9035 59.5801 37.4392 60.0845 40 60.0845C42.5608 60.0845 45.0965 59.5801 47.4623 58.6001C49.8282 57.6202 51.9778 56.1838 53.7886 54.3731C55.5993 52.5623 57.0357 50.4126 58.0157 48.0468C58.9956 45.681 59.5 43.1452 59.5 40.5845C59.5 38.0237 58.9956 35.488 58.0157 33.1221C57.0357 30.7563 55.5993 28.6066 53.7886 26.7959C51.9778 24.9851 49.8282 23.5488 47.4623 22.5688C45.0965 21.5889 42.5608 21.0845 40 21.0845C37.4392 21.0845 34.9035 21.5889 32.5377 22.5688C30.1718 23.5488 28.0222 24.9851 26.2114 26.7959C24.4007 28.6066 22.9643 30.7563 21.9843 33.1221C21.0044 35.488 20.5 38.0237 20.5 40.5845Z" stroke="#FB7A00" stroke-width="3.25" stroke-linecap="round" stroke-linejoin="round"/>
<path d="M46.0667 34.0817C45.6742 33.4009 45.1039 32.8396 44.4169 32.4579C43.7299 32.0763 42.9521 31.8886 42.1667 31.9151H37.8333C36.6841 31.9151 35.5819 32.3716 34.7692 33.1843C33.9565 33.9969 33.5 35.0991 33.5 36.2484C33.5 37.3977 33.9565 38.4999 34.7692 39.3125C35.5819 40.1252 36.6841 40.5817 37.8333 40.5817H42.1667C43.3159 40.5817 44.4181 41.0383 45.2308 41.8509C46.0435 42.6636 46.5 43.7658 46.5 44.9151C46.5 46.0643 46.0435 47.1665 45.2308 47.9792C44.4181 48.7918 43.3159 49.2484 42.1667 49.2484H37.8333C37.0479 49.2748 36.2701 49.0872 35.5831 48.7055C34.8961 48.3239 34.3258 47.7626 33.9333 47.0817" stroke="#FB7A00" stroke-width="3.25" stroke-linecap="round" stroke-linejoin="round"/>
<path d="M40 29.7505V51.4172" stroke="#FB7A00" stroke-width="3.25" stroke-linecap="round" stroke-linejoin="round"/>
</g>
<defs>
<clipPath id="clip0_2379_75463">
<rect width="52" height="52" fill="white" transform="translate(14 14.5845)"/>
</clipPath>
</defs>
</svg>
