<svg width="24" height="24" viewBox="0 0 24 24" fill="none" xmlns="http://www.w3.org/2000/svg">
<g id="fluent:mail-20-filled">
<path id="Vector" d="M21.5999 8.8476V17.4C21.5999 18.1957 21.2838 18.9587 20.7212 19.5213C20.1586 20.0839 19.3956 20.4 18.5999 20.4H5.3999C4.60425 20.4 3.84119 20.0839 3.27858 19.5213C2.71597 18.9587 2.3999 18.1957 2.3999 17.4V8.8476L11.6951 14.3172C11.7874 14.3717 11.8927 14.4004 11.9999 14.4004C12.1071 14.4004 12.2124 14.3717 12.3047 14.3172L21.5999 8.8476ZM18.5999 4.8C19.3381 4.79989 20.0504 5.07193 20.6005 5.56409C21.1507 6.05625 21.5001 6.73397 21.5819 7.4676L11.9999 13.104L2.4179 7.4676C2.49969 6.73397 2.84909 6.05625 3.39926 5.56409C3.94942 5.07193 4.66173 4.79989 5.3999 4.8H18.5999Z" fill="#FB7A00"/>
</g>
</svg>
