<svg width="125" height="41" viewBox="0 0 125 41" fill="none" xmlns="http://www.w3.org/2000/svg">
<g id="Group">
<path id="Vector" d="M15.7158 14.7136V19.0303H25.805C25.5371 21.4182 24.7336 23.2551 23.4836 24.4491C22.055 25.9186 19.7336 27.5718 15.7158 27.5718C9.55521 27.5718 4.73385 22.4285 4.73385 16.0912C4.73385 9.75396 9.46593 4.61065 15.7158 4.61065C19.0194 4.61065 21.5193 5.98832 23.305 7.73337L26.2514 4.7025C23.7514 2.22269 20.3586 0.293945 15.7158 0.293945C7.23382 0.293945 0.0910645 7.36599 0.0910645 16.0912C0.0910645 24.8165 7.23382 31.8886 15.7158 31.8886C20.2693 31.8886 23.7514 30.3272 26.43 27.48C29.1978 24.6328 30.0906 20.5916 30.0906 17.3771C30.0906 16.3668 30.0014 15.4483 29.9121 14.7136H15.7158Z" fill="#969696"/>
<path id="Vector_2" d="M42.5899 11.1313C37.1436 11.1313 32.5901 15.4481 32.5901 21.3261C32.5901 27.2042 37.0543 31.5209 42.5899 31.5209C48.1256 31.5209 52.5898 27.296 52.5898 21.418C52.5898 15.4481 48.1256 11.1313 42.5899 11.1313ZM42.5899 27.5716C39.5543 27.5716 36.965 24.9999 36.965 21.418C36.965 17.7442 39.5543 15.2644 42.5899 15.2644C45.6256 15.2644 48.2149 17.7442 48.2149 21.418C48.2149 24.9999 45.6256 27.5716 42.5899 27.5716Z" fill="#969696"/>
<path id="Vector_3" d="M91.4294 13.4275H91.2509C90.2687 12.2335 88.3938 11.1313 85.9831 11.1313C80.9832 11.1313 76.6975 15.5399 76.6975 21.3261C76.6975 27.0205 80.9832 31.5209 85.9831 31.5209C88.3938 31.5209 90.2687 30.4188 91.2509 29.2248H91.4294V30.6943C91.4294 34.5518 89.3759 36.6642 86.1617 36.6642C83.4831 36.6642 81.876 34.7355 81.1617 32.9904L77.4118 34.6436C78.4832 37.3071 81.4296 40.7054 86.2509 40.7054C91.3402 40.7054 95.7151 37.5826 95.7151 30.0514V11.6824H91.608V13.4275H91.4294ZM86.4295 27.5716C83.3938 27.5716 81.1617 24.9081 81.1617 21.418C81.1617 17.836 83.4831 15.2644 86.4295 15.2644C89.3759 15.2644 91.6973 17.9279 91.6973 21.5098C91.7866 24.9999 89.4652 27.5716 86.4295 27.5716Z" fill="#969696"/>
<path id="Vector_4" d="M64.8224 11.1313C59.376 11.1313 54.8225 15.4481 54.8225 21.3261C54.8225 27.2042 59.2867 31.5209 64.8224 31.5209C70.358 31.5209 74.8222 27.296 74.8222 21.418C74.8222 15.4481 70.358 11.1313 64.8224 11.1313ZM64.8224 27.5716C61.7867 27.5716 59.1974 24.9999 59.1974 21.418C59.1974 17.7442 61.7867 15.2644 64.8224 15.2644C67.858 15.2644 70.4473 17.7442 70.4473 21.418C70.4473 24.9999 67.858 27.5716 64.8224 27.5716Z" fill="#969696"/>
<path id="Vector_5" d="M99.0178 0.75293H103.303V31.6128H99.0178V0.75293Z" fill="#969696"/>
<path id="Vector_6" d="M116.518 27.5716C114.286 27.5716 112.768 26.5613 111.697 24.4488L125 18.8463L124.554 17.6523C123.75 15.3562 121.161 11.1313 116.072 11.1313C110.982 11.1313 106.697 15.2644 106.697 21.3261C106.697 27.0205 110.893 31.5209 116.518 31.5209C121.072 31.5209 123.661 28.6737 124.822 27.0205L121.429 24.7244C120.268 26.4694 118.75 27.5716 116.518 27.5716ZM116.25 14.9888C118.036 14.9888 119.554 15.9073 120 17.1931L111.072 21.0506C110.982 16.8257 114.018 14.9888 116.25 14.9888Z" fill="#969696"/>
</g>
</svg>
