<svg width="61" height="60" viewBox="0 0 61 60" fill="none" xmlns="http://www.w3.org/2000/svg">
<g id="google-docs 1" clip-path="url(#clip0_1279_3)">
<path id="Vector" d="M24.25 45H9.25V55.9091C9.25 58.1694 11.0807 60 13.3409 60H24.25V45Z" fill="#00832D"/>
<path id="Vector_2" d="M24.25 0H13.3409C11.0807 0 9.25 1.83069 9.25 4.09091V45H24.25V15H37.8864V0H24.25Z" fill="#FFBA00"/>
<path id="Vector_3" d="M52.8865 45H37.8865V60H48.7956C51.0557 60 52.8865 58.1694 52.8865 55.9091V45Z" fill="#0066DA"/>
<path id="Vector_4" d="M37.8864 45H24.25V60H37.8864V45Z" fill="#00AC47"/>
<path id="Vector_5" d="M37.8865 15V45H52.8865V15H37.8865Z" fill="#2684FC"/>
<path id="Vector_6" d="M37.8865 0V15H52.8865L37.8865 0Z" fill="#EA4335"/>
<path id="Vector_7" d="M37.8864 15H24.25V45H37.8864V15Z" fill="white"/>
</g>
<defs>
<clipPath id="clip0_1279_3">
<rect width="60" height="60" fill="white" transform="translate(0.5)"/>
</clipPath>
</defs>
</svg>
