<svg width="81" height="81" viewBox="0 0 81 81" fill="none" xmlns="http://www.w3.org/2000/svg">
<rect width="80" height="80" transform="translate(0.5 0.584473)" fill="#CEDBDF"/>
<path d="M46.5166 36.7464L46.5175 36.7456C46.9607 36.3338 47.6522 36.3529 48.0717 36.7889L48.0725 36.7897C48.1707 36.8935 48.2475 37.0156 48.2985 37.149C48.3495 37.2825 48.3736 37.4247 48.3696 37.5675C48.3655 37.7103 48.3333 37.8509 48.2749 37.9812C48.2164 38.1116 48.1329 38.2291 48.0289 38.3271L40.5771 45.3554L40.5761 45.3564L40.5761 45.3564C40.3661 45.5507 40.0889 45.656 39.8028 45.65C39.5168 45.644 39.2442 45.5272 39.0426 45.3242L39.0416 45.3232L35.1418 41.32L35.1417 41.3199C34.7235 40.8894 34.7333 40.2012 35.1639 39.7827L46.5166 36.7464ZM46.5166 36.7464L39.8492 43.0437M46.5166 36.7464L39.8492 43.0437M39.8492 43.0437L36.7007 39.8049C36.7007 39.8049 36.7007 39.8048 36.7007 39.8048C36.2825 39.3743 35.594 39.3644 35.1639 39.7827L39.8492 43.0437Z" fill="#FB7A00" stroke="#FB7A00" stroke-width="0.3"/>
<path d="M41.5897 26.8568C33.7639 26.8568 27.4008 33.2197 27.4008 41.0454C27.4008 48.8713 33.7639 55.2342 41.5897 55.2342C49.416 55.2342 55.7791 48.8713 55.7791 41.0453C55.7791 33.2198 49.416 26.8568 41.5897 26.8568ZM41.5897 53.0549C34.9634 53.0549 29.5802 47.6625 29.5802 41.0453C29.5802 34.4282 34.9634 29.0363 41.5897 29.0363C48.2229 29.0363 53.5997 34.4129 53.5997 41.0453C53.5997 47.6778 48.2228 53.0549 41.5897 53.0549Z" fill="#FB7A00" stroke="#FB7A00" stroke-width="0.3"/>
<path d="M53.36 21.8776L53.3604 21.8784L55.8472 26.7959L60.7643 29.2822C60.7643 29.2822 60.7644 29.2823 60.7645 29.2823C60.9546 29.3774 61.1127 29.5261 61.2192 29.7101C61.3257 29.894 61.376 30.1052 61.3638 30.3174L53.36 21.8776ZM53.36 21.8776C53.2633 21.6893 53.1145 21.5328 52.9313 21.4267C52.7481 21.3207 52.5383 21.2696 52.3268 21.2794L52.3258 21.2795M53.36 21.8776L52.3258 21.2795M52.3258 21.2795L46.7932 21.5778L42.183 18.532L42.1829 18.5319M52.3258 21.2795L42.1829 18.5319M42.1829 18.5319C42.005 18.4147 41.7966 18.3522 41.5835 18.3522C41.3704 18.3522 41.162 18.4147 40.9841 18.5319L40.984 18.532M42.1829 18.5319L40.984 18.532M40.984 18.532L36.3739 21.5777L30.8519 21.2703C30.8518 21.2703 30.8518 21.2703 30.8517 21.2703C30.6394 21.2579 30.428 21.308 30.2439 21.4146C30.0599 21.5211 29.9112 21.6794 29.8163 21.8697C29.8162 21.8698 29.8162 21.8699 29.8161 21.87L27.3294 26.7867L22.4121 29.2734L22.4113 29.2737M40.984 18.532L22.4113 29.2737M22.4113 29.2737C22.2229 29.3703 22.0663 29.5191 21.9602 29.7024C21.8541 29.8856 21.803 30.0956 21.8131 30.3071L21.8131 30.3082M22.4113 29.2737L21.8131 30.3082M21.8131 30.3082L22.1201 35.8309L19.0748 40.4408L19.0747 40.4409M21.8131 30.3082L19.0747 40.4409M19.0747 40.4409C18.9574 40.6188 18.8949 40.8272 18.8949 41.0403C18.8949 41.2533 18.9574 41.4616 19.0746 41.6395L19.0747 41.6397L22.111 46.2587L21.8036 51.7813C21.8036 51.7813 21.8036 51.7814 21.8036 51.7815C21.7912 51.9937 21.8415 52.205 21.948 52.389C22.0546 52.5731 22.2128 52.7219 22.4032 52.8169L27.3201 55.3032L29.8069 60.2207L29.8073 60.2214M19.0747 40.4409L29.8073 60.2214M29.8073 60.2214C29.9039 60.4099 30.0527 60.5665 30.2359 60.6726C30.4192 60.7787 30.6291 60.8297 30.8406 60.8197L30.8418 60.8196M29.8073 60.2214L30.8418 60.8196M30.8418 60.8196L36.3647 60.5123L40.9727 63.556C40.9731 63.5563 40.9735 63.5565 40.9738 63.5568C41.1508 63.6776 41.36 63.7422 41.5743 63.7422C41.7885 63.7422 41.9978 63.6776 42.1747 63.5568C42.1751 63.5566 42.1755 63.5563 42.1758 63.556L46.7839 60.5122L52.3066 60.8196C52.5189 60.8318 52.7302 60.7815 52.9142 60.675C53.0982 60.5685 53.2469 60.4104 53.342 60.2204C53.342 60.2203 53.3421 60.2202 53.3421 60.2201L55.8285 55.3032L60.7462 52.8165L60.747 52.8161M30.8418 60.8196L60.747 52.8161M60.747 52.8161C60.9353 52.7194 61.0919 52.5706 61.1979 52.3874C61.304 52.2042 61.3551 51.9944 61.3452 51.7829L61.3451 51.7816M60.747 52.8161L61.3451 51.7816M61.3451 51.7816L61.0378 46.259L64.0831 41.6491L64.0832 41.649M61.3451 51.7816L64.0832 41.649M64.0832 41.649C64.2005 41.4711 64.2629 41.2627 64.2629 41.0496M64.0832 41.649L64.2629 41.0496M24.1616 46.0206L23.8701 51.2919L28.5686 53.6506M24.1616 46.0206L36.6222 58.4616L31.3503 58.7531M24.1616 46.0206C24.169 45.8187 24.1165 45.6194 24.0111 45.4472L24.1616 46.0206ZM28.5686 53.6506C28.7476 53.74 28.8927 53.885 28.9823 54.0639M28.5686 53.6506L28.6357 53.5164M28.5686 53.6506L28.6359 53.5166M28.9823 54.0639L31.3503 58.7531M28.9823 54.0639L29.1162 53.9963L29.1164 53.9967M28.9823 54.0639L29.1164 53.9967M31.3503 58.7531L31.4842 58.6855L31.44 58.5979M31.3503 58.7531L31.3421 58.6033L31.44 58.5979M31.44 58.5979L36.614 58.3118L36.6222 58.3114V58.3116H36.6692H36.6699C36.8837 58.3126 37.0924 58.377 37.2695 58.4966M31.44 58.5979L29.1164 53.9967M37.2695 58.4966L28.6359 53.5166M37.2695 58.4966L37.2687 58.4961L37.1861 58.6213L37.2701 58.497L41.5836 61.3454L45.8987 58.4961L45.9031 58.4932L45.9031 58.4933C46.1005 58.3726 46.3291 58.3128 46.5603 58.3213L46.5631 58.3214L51.7366 58.607L54.0605 54.0063C54.0605 54.0063 54.0606 54.0062 54.0606 54.0062C54.1646 53.7986 54.3328 53.6301 54.5403 53.5259L37.2695 58.4966ZM29.1164 53.9967C29.0123 53.7889 28.8437 53.6205 28.6359 53.5166M28.6359 53.5166L28.6357 53.5164M28.6357 53.5164L24.0253 51.2019L24.3114 46.0289L24.3114 46.0289L24.3115 46.0261C24.3199 45.7946 24.2598 45.5662 24.139 45.3689L24.1391 45.3688L24.1363 45.3646L21.2873 41.0496L24.1348 36.7365C24.1351 36.7362 24.1353 36.7358 24.1356 36.7354C24.2691 36.5399 24.3312 36.3043 24.3113 36.0683L24.0253 30.8968L28.6267 28.5734L28.6357 53.5164ZM36.6044 23.7781L36.6044 23.7781L31.4305 23.492L29.1069 28.0932C29.1069 28.0933 29.1068 28.0933 29.1068 28.0934C29.0028 28.3008 28.8346 28.4691 28.6271 28.5732L36.6044 23.7781ZM36.6044 23.7781L36.6075 23.7782M36.6044 23.7781L36.6075 23.7782M36.6075 23.7782C36.8383 23.7862 37.0666 23.7266 37.2643 23.6058L37.2643 23.6058M36.6075 23.7782L37.2643 23.6058M37.2643 23.6058L37.2687 23.6029M37.2643 23.6058L37.2687 23.6029M37.2687 23.6029L41.5835 20.7541M37.2687 23.6029L41.5835 20.7541M64.2629 41.0496C64.2629 40.8366 64.2005 40.6283 64.0833 40.4505L64.2629 41.0496ZM41.5835 20.7541L45.8967 23.6016C45.8971 23.6018 45.8974 23.602 45.8977 23.6023C46.0935 23.7358 46.3292 23.7978 46.5653 23.7779L51.7366 23.492L54.0605 28.0932L41.5835 20.7541ZM61.0564 35.8404L61.3638 30.3177L64.0832 40.4502L61.0564 35.8404ZM59.1417 51.2022L54.5407 53.5258L54.5407 28.5734L59.1417 30.8969L58.856 36.0705L58.8559 36.0734C58.8477 36.3044 58.9074 36.5327 59.0279 36.7299L59.0278 36.73L59.0307 36.7344L61.8801 41.0495L59.032 45.3627C59.0317 45.3631 59.0315 45.3634 59.0313 45.3637C58.8981 45.5595 58.8363 45.7951 58.8562 46.0311L59.1417 51.2022ZM54.0608 28.0936C54.1648 28.301 54.333 28.4692 54.5403 28.5732L54.0608 28.0936Z" fill="#FB7A00" stroke="#FB7A00" stroke-width="0.3"/>
</svg>
