<svg width="88" height="35" viewBox="0 0 88 35" fill="none" xmlns="http://www.w3.org/2000/svg">
<g id="Group">
<path id="Vector" d="M17.4182 31.8823H0.512451V34.2729H17.4182V31.8823Z" fill="#969696"/>
<path id="Vector_2" d="M17.4182 27.3438H0.512451V29.7343H17.4182V27.3438Z" fill="#969696"/>
<path id="Vector_3" d="M12.6074 22.7773H5.35046V25.1679H12.6074V22.7773Z" fill="#969696"/>
<path id="Vector_4" d="M12.6074 18.2104H5.35046V20.601H12.6074V18.2104Z" fill="#969696"/>
<path id="Vector_5" d="M12.6074 13.6716H5.35046V16.0622H12.6074V13.6716Z" fill="#969696"/>
<path id="Vector_6" d="M12.6074 9.10571H5.35046V11.4962H12.6074V9.10571Z" fill="#969696"/>
<path id="Vector_7" d="M17.4182 4.53955H0.512451V6.93008H17.4182V4.53955Z" fill="#969696"/>
<path id="Vector_8" d="M17.4182 0H0.512451V2.39053H17.4182V0Z" fill="#969696"/>
<path id="Vector_9" d="M19.8376 29.7343H45.6311C46.066 28.9822 46.3922 28.1764 46.6096 27.3438H19.8648V29.7343H19.8376Z" fill="#969696"/>
<path id="Vector_10" d="M43.5926 18.2104H24.6755V20.601H45.6311C45.0875 19.7146 44.408 18.9088 43.5926 18.2104Z" fill="#969696"/>
<path id="Vector_11" d="M24.6755 13.6716V16.0622H43.5926C44.408 15.3907 45.0875 14.5849 45.6039 13.6716H24.6755Z" fill="#969696"/>
<path id="Vector_12" d="M45.6303 4.53955H19.864V6.93008H46.6088C46.3914 6.09742 46.0652 5.29163 45.6303 4.53955Z" fill="#969696"/>
<path id="Vector_13" d="M37.6403 0H19.8376V2.39053H43.8645C42.1521 0.832659 39.9234 0 37.6403 0Z" fill="#969696"/>
<path id="Vector_14" d="M31.9325 9.10571H24.6755V11.4962H31.9325V9.10571Z" fill="#969696"/>
<path id="Vector_15" d="M38.7271 11.4962H46.5276C46.745 10.7173 46.8538 9.91151 46.8538 9.10571H38.7271V11.4962Z" fill="#969696"/>
<path id="Vector_16" d="M31.9325 22.7773H24.6755V25.1679H31.9325V22.7773Z" fill="#969696"/>
<path id="Vector_17" d="M38.7271 22.7773V25.1679H46.8538C46.8538 24.3621 46.745 23.5563 46.5276 22.7773H38.7271Z" fill="#969696"/>
<path id="Vector_18" d="M19.8376 34.2733L37.6403 34.3002C39.9506 34.3002 42.1793 33.4407 43.8645 31.9097H19.8376V34.2733Z" fill="#969696"/>
<path id="Vector_19" d="M68.1626 34.2729L69.0052 31.8823H67.3201L68.1626 34.2729Z" fill="#969696"/>
<path id="Vector_20" d="M66.5591 29.7343H69.7663L70.6089 27.3438H65.6893L66.5591 29.7343Z" fill="#969696"/>
<path id="Vector_21" d="M64.9283 25.1679H71.397L72.2396 22.7773H64.0857L64.9283 25.1679Z" fill="#969696"/>
<path id="Vector_22" d="M63.2974 20.601H73.0005L73.8703 18.2104H62.4548L63.2974 20.601Z" fill="#969696"/>
<path id="Vector_23" d="M53.6755 11.4962H66.7218L65.8792 9.10571H53.6755V11.4962Z" fill="#969696"/>
<path id="Vector_24" d="M71.2068 6.93008H87.4874V4.53955H72.0494L71.2068 6.93008Z" fill="#969696"/>
<path id="Vector_25" d="M73.6529 0L72.8103 2.39053H87.4873V0H73.6529Z" fill="#969696"/>
<path id="Vector_26" d="M60.9057 31.8823H48.8379V34.2729H60.9057V31.8823Z" fill="#969696"/>
<path id="Vector_27" d="M60.9057 27.3438H48.8379V29.7343H60.9057V27.3438Z" fill="#969696"/>
<path id="Vector_28" d="M60.9325 22.7773H53.6755V25.1679H60.9325V22.7773Z" fill="#969696"/>
<path id="Vector_29" d="M60.9325 18.2104H53.6755V20.601H60.9325V18.2104Z" fill="#969696"/>
<path id="Vector_30" d="M82.6494 9.10571H70.4457L69.6031 11.4962H82.6494V9.10571Z" fill="#969696"/>
<path id="Vector_31" d="M75.4193 16.0622H82.6491V13.6716H75.4193H68.8418L68.1623 15.6055L67.4828 13.6716H60.9053H53.6755V16.0622H60.9053V13.8596L61.6935 16.0622H74.6311L75.4193 13.8596V16.0622Z" fill="#969696"/>
<path id="Vector_32" d="M82.6765 18.2104H75.4196V20.601H82.6765V18.2104Z" fill="#969696"/>
<path id="Vector_33" d="M82.6765 22.7773H75.4196V25.1679H82.6765V22.7773Z" fill="#969696"/>
<path id="Vector_34" d="M87.4873 27.3438H75.4196V29.7343H87.4873V27.3438Z" fill="#969696"/>
<path id="Vector_35" d="M87.4873 31.8823H75.4196V34.2729H87.4873V31.8823Z" fill="#969696"/>
<path id="Vector_36" d="M65.1185 6.93008L64.2759 4.53955H48.8379V6.93008H65.1185Z" fill="#969696"/>
<path id="Vector_37" d="M63.5149 2.39053L62.6723 0H48.8379V2.39053H63.5149Z" fill="#969696"/>
</g>
</svg>
