<svg width="28" height="28" viewBox="0 0 28 28" fill="none" xmlns="http://www.w3.org/2000/svg">
<g id="ic:round-arrow-forward-ios">
<path id="Vector" d="M8.60991 24.5116C9.18157 25.0833 10.1032 25.0833 10.6749 24.5116L20.3699 14.8166C20.4781 14.7087 20.5639 14.5805 20.6224 14.4393C20.681 14.2982 20.7111 14.1469 20.7111 13.9941C20.7111 13.8413 20.681 13.69 20.6224 13.5489C20.5639 13.4077 20.4781 13.2795 20.3699 13.1716L10.6749 3.4766C10.1032 2.90493 9.18157 2.90493 8.60991 3.4766C8.03824 4.04827 8.03824 4.96994 8.60991 5.5416L17.0566 13.9999L8.59824 22.4583C8.03824 23.0183 8.03824 23.9516 8.60991 24.5116Z" fill="#FB7A00"/>
</g>
</svg>
