<svg width="28" height="28" viewBox="0 0 28 28" fill="none" xmlns="http://www.w3.org/2000/svg">
<g id="ic:round-arrow-forward-ios">
<path id="Vector" d="M19.3901 24.5116C18.8184 25.0833 17.8968 25.0833 17.3251 24.5116L7.63009 14.8166C7.52194 14.7087 7.43613 14.5805 7.37759 14.4393C7.31904 14.2982 7.28891 14.1469 7.28891 13.9941C7.28891 13.8413 7.31904 13.69 7.37759 13.5489C7.43613 13.4077 7.52194 13.2795 7.63009 13.1716L17.3251 3.4766C17.8968 2.90493 18.8184 2.90493 19.3901 3.4766C19.9618 4.04827 19.9618 4.96994 19.3901 5.5416L10.9434 13.9999L19.4018 22.4583C19.9618 23.0183 19.9618 23.9516 19.3901 24.5116Z" fill="#5F5F5F"/>
</g>
</svg>
