<svg width="81" height="80" viewBox="0 0 81 80" fill="none" xmlns="http://www.w3.org/2000/svg">
<rect width="80" height="80" transform="translate(0.5)" fill="#CEDBDF"/>
<path d="M35.9979 36.5897L36.4848 35.7545C36.4899 35.7459 36.4926 35.7361 36.4926 35.7261C36.4926 35.7161 36.4899 35.7063 36.4848 35.6977L35.7883 34.4902C35.7811 34.4776 35.7791 34.4626 35.7828 34.4485C35.7864 34.4345 35.7955 34.4224 35.8079 34.4149L39.4697 32.3023C39.4761 32.2986 39.4831 32.2962 39.4904 32.2953C39.4977 32.2943 39.5052 32.2948 39.5123 32.2967C39.5194 32.2987 39.526 32.302 39.5318 32.3065C39.5377 32.311 39.5425 32.3167 39.5461 32.3231L40.2471 33.5284C40.252 33.5367 40.259 33.5436 40.2675 33.5484C40.2759 33.5532 40.2854 33.5557 40.2951 33.5557H41.2733C41.283 33.5557 41.2925 33.5532 41.301 33.5484C41.3094 33.5436 41.3164 33.5367 41.3214 33.5284L42.019 32.3198C42.0263 32.3071 42.0383 32.2979 42.0524 32.294C42.0665 32.2901 42.0816 32.2919 42.0943 32.2991L45.7681 34.4127C45.7745 34.4164 45.78 34.4213 45.7844 34.4272C45.7888 34.4331 45.792 34.4397 45.7938 34.4468C45.7957 34.4539 45.7961 34.4613 45.795 34.4686C45.794 34.4758 45.7915 34.4828 45.7878 34.4891L45.0803 35.7021C45.0752 35.7107 45.0725 35.7205 45.0725 35.7305C45.0725 35.7404 45.0752 35.7503 45.0803 35.7588L45.5618 36.5897C45.5667 36.598 45.5738 36.6049 45.5822 36.6097C45.5906 36.6145 45.6001 36.617 45.6098 36.617H47.0269C47.0417 36.617 47.0559 36.6228 47.0663 36.6333C47.0768 36.6437 47.0826 36.6579 47.0826 36.6726V40.901C47.0826 40.9158 47.0768 40.93 47.0663 40.9404C47.0559 40.9509 47.0417 40.9567 47.0269 40.9567H45.6164C45.6066 40.9568 45.597 40.9595 45.5885 40.9645C45.5801 40.9694 45.5731 40.9766 45.5683 40.9851L45.0836 41.8258C45.0789 41.8341 45.0764 41.8435 45.0764 41.8531C45.0764 41.8626 45.0789 41.872 45.0836 41.8804L45.7812 43.0933C45.7884 43.1061 45.7902 43.1211 45.7863 43.1352C45.7824 43.1493 45.7731 43.1613 45.7605 43.1686L42.0954 45.2845C42.0891 45.2882 42.082 45.2906 42.0747 45.2915C42.0674 45.2925 42.06 45.292 42.0529 45.29C42.0458 45.2881 42.0391 45.2848 42.0333 45.2803C42.0275 45.2758 42.0226 45.2701 42.019 45.2637L41.3235 44.0584C41.3186 44.0501 41.3116 44.0432 41.3032 44.0384C41.2947 44.0336 41.2852 44.0311 41.2755 44.0311L40.2918 44.0278C40.2818 44.0277 40.272 44.0303 40.2634 44.0353C40.2547 44.0403 40.2476 44.0475 40.2427 44.0562L39.5516 45.2594C39.5443 45.272 39.5323 45.2813 39.5182 45.2852C39.5041 45.289 39.489 45.2872 39.4763 45.2801L35.8079 43.1686C35.7953 43.1613 35.786 43.1493 35.7821 43.1352C35.7783 43.1211 35.7801 43.1061 35.7872 43.0933L36.4816 41.8836C36.4862 41.8753 36.4887 41.8659 36.4887 41.8563C36.4887 41.8468 36.4862 41.8374 36.4816 41.829L36.0012 40.9851C35.9963 40.9764 35.9891 40.9692 35.9805 40.9642C35.9719 40.9592 35.962 40.9566 35.9521 40.9567H34.5557C34.5409 40.9567 34.5268 40.9509 34.5163 40.9404C34.5059 40.93 34.5 40.9158 34.5 40.901V36.6726C34.5 36.6579 34.5059 36.6437 34.5163 36.6333C34.5268 36.6228 34.5409 36.617 34.5557 36.617H35.9499C35.9596 36.617 35.9691 36.6145 35.9775 36.6097C35.9859 36.6049 35.993 36.598 35.9979 36.5897ZM36.8189 37.8725H35.8101C35.7956 37.8725 35.7818 37.8782 35.7715 37.8885C35.7613 37.8987 35.7555 37.9126 35.7555 37.9271V39.5887C35.7555 39.6186 35.7674 39.6472 35.7885 39.6683C35.8096 39.6893 35.8382 39.7012 35.868 39.7012H36.8135C36.8564 39.7012 36.8841 39.7219 36.8964 39.7634C37.1082 40.4891 37.4747 41.123 37.9958 41.6653C38.0242 41.6951 38.0282 41.7275 38.0078 41.7624L37.5111 42.6217C37.4885 42.6602 37.4965 42.6908 37.5351 42.7134L38.9992 43.5551C39.0385 43.5777 39.0694 43.5693 39.092 43.53L39.5582 42.7287C39.6018 42.6537 39.6659 42.6264 39.7503 42.6468C40.4374 42.8156 41.1245 42.8164 41.8116 42.649C41.848 42.6402 41.8863 42.6433 41.9209 42.6578C41.9555 42.6723 41.9845 42.6975 42.0037 42.7297L42.4819 43.542C42.4901 43.5556 42.5033 43.5653 42.5186 43.5692C42.5339 43.5731 42.5502 43.5708 42.5638 43.5628L43.9962 42.733C44.0202 42.7191 44.0377 42.6962 44.0449 42.6694C44.052 42.6426 44.0483 42.614 44.0344 42.59L43.554 41.7537C43.5468 41.7408 43.544 41.7259 43.5459 41.7112C43.5479 41.6964 43.5546 41.6826 43.5649 41.6718C44.0919 41.1223 44.4613 40.4822 44.6731 39.7514C44.6833 39.7179 44.7055 39.7012 44.7397 39.7012H45.6939C45.7689 39.7012 45.806 39.6637 45.8053 39.5887L45.7987 37.9915C45.798 37.9122 45.7583 37.8725 45.6797 37.8725H44.7561C44.7124 37.8725 44.684 37.8514 44.6709 37.8092C44.4569 37.1003 44.0974 36.4769 43.5922 35.939C43.5734 35.9188 43.5616 35.8929 43.5587 35.8651C43.5557 35.8374 43.5617 35.8093 43.5759 35.785L44.0377 34.9979C44.0741 34.9353 44.061 34.8858 43.9984 34.8494L42.5965 34.0426C42.5844 34.0356 42.5709 34.031 42.557 34.0291C42.543 34.0273 42.5288 34.0282 42.5152 34.0319C42.5017 34.0355 42.4889 34.0418 42.4778 34.0504C42.4666 34.059 42.4573 34.0697 42.4503 34.0819L41.983 34.8909C41.9715 34.9102 41.9543 34.9253 41.9337 34.9341C41.9131 34.943 41.8902 34.945 41.8683 34.94C41.1623 34.7726 40.4563 34.769 39.7503 34.9291C39.713 34.9377 39.674 34.9341 39.6388 34.9187C39.6036 34.9034 39.5742 34.8772 39.5549 34.8439L39.1007 34.0644C39.0895 34.0455 39.0714 34.0317 39.0502 34.026C39.0289 34.0203 39.0063 34.0231 38.9872 34.0339L37.5537 34.856C37.5432 34.862 37.5341 34.87 37.5268 34.8795C37.5194 34.8891 37.514 34.8999 37.5109 34.9115C37.5077 34.923 37.5069 34.9351 37.5084 34.9469C37.51 34.9587 37.5138 34.9701 37.5198 34.9804L38.0046 35.8123C38.0147 35.83 38.0189 35.8503 38.0166 35.8704C38.0142 35.8905 38.0054 35.9092 37.9915 35.9237C37.4732 36.4652 37.1079 37.0955 36.8953 37.8146C36.8906 37.8313 36.8806 37.8459 36.8668 37.8563C36.853 37.8668 36.8362 37.8724 36.8189 37.8725Z" fill="#FB7A00"/>
<path d="M43.0988 38.7896C43.0988 39.0941 43.0388 39.3957 42.9222 39.677C42.8057 39.9584 42.6349 40.214 42.4196 40.4293C42.2042 40.6446 41.9486 40.8155 41.6673 40.932C41.3859 41.0485 41.0844 41.1085 40.7799 41.1085C40.1648 41.1085 39.575 40.8642 39.1401 40.4293C38.7053 39.9944 38.4609 39.4046 38.4609 38.7896C38.4609 38.1746 38.7053 37.5848 39.1401 37.1499C39.575 36.715 40.1648 36.4707 40.7799 36.4707C41.0844 36.4707 41.3859 36.5307 41.6673 36.6472C41.9486 36.7638 42.2042 36.9346 42.4196 37.1499C42.6349 37.3652 42.8057 37.6209 42.9222 37.9022C43.0388 38.1835 43.0988 38.4851 43.0988 38.7896ZM41.8421 38.7896C41.8421 38.5084 41.7305 38.2388 41.5316 38.04C41.3328 37.8412 41.0632 37.7295 40.782 37.7295C40.5009 37.7295 40.2312 37.8412 40.0324 38.04C39.8336 38.2388 39.7219 38.5084 39.7219 38.7896C39.7219 39.0708 39.8336 39.3404 40.0324 39.5392C40.2312 39.738 40.5009 39.8497 40.782 39.8497C41.0632 39.8497 41.3328 39.738 41.5316 39.5392C41.7305 39.3404 41.8421 39.0708 41.8421 38.7896Z" fill="#FB7A00"/>
<path d="M27.625 24.0588H32.0084V25.9341H27.625C26.9394 25.9341 26.375 26.498 26.375 27.1837V56.8709C26.375 57.5567 26.9392 58.1209 27.625 58.1209H52.9545C53.6403 58.1209 54.2044 57.5567 54.2044 56.8709V27.1837C54.2044 26.498 53.6403 25.9341 52.9545 25.9341H48.5709V24.0588H52.9545C54.6748 24.0588 56.0795 25.4634 56.0795 27.1837V56.8709C56.0795 58.5917 54.6753 59.9959 52.9545 59.9959H27.625C25.9042 59.9959 24.5 58.5917 24.5 56.8709V27.1837C24.5 25.4634 25.9047 24.0588 27.625 24.0588ZM33.2584 23.2812H37.0084C37.0084 21.4694 38.4778 20 40.2897 20C42.1019 20 43.5709 21.4694 43.5709 23.2812H47.3209V27.9688H33.2584V23.2812ZM38.8836 23.2812H41.6959C41.6959 22.5042 41.0667 21.875 40.2897 21.875C39.5128 21.875 38.8836 22.5042 38.8836 23.2812Z" fill="#0D3642"/>
<path fill-rule="evenodd" clip-rule="evenodd" d="M31.2891 48.1211H50.0387V49.3711H31.2891V48.1211ZM31.2891 51.403H50.0387V52.653H31.2891V51.403Z" fill="#FB7A00"/>
</svg>
