<svg width="81" height="80" viewBox="0 0 81 80" fill="none" xmlns="http://www.w3.org/2000/svg">
<rect width="80" height="80" transform="translate(0.5)" fill="#CEDBDF"/>
<g clip-path="url(#clip0_3118_5370)">
<path d="M59.8599 55.6735C60.7141 56.5278 60.7141 57.9128 59.8599 58.7668C59.0057 59.621 57.6209 59.621 56.7666 58.7668L50.1296 52.1299L53.2229 49.0367L59.8599 55.6735ZM38.0916 20.5923C47.1526 20.5923 54.4979 27.9376 54.4979 36.9985C54.4979 40.7403 53.2446 44.189 51.1354 46.949L52.3393 48.1528L49.246 51.2462L48.0421 50.0423C45.282 52.151 41.8334 53.4048 38.0916 53.4048C32.728 53.4048 27.9659 50.8306 24.9724 46.8507L26.6879 44.9588C27.1565 45.6287 27.6823 46.2556 28.2585 46.8317C30.7752 49.3484 34.2518 50.9051 38.0918 50.9051C41.9318 50.9051 45.4084 49.3484 47.9249 46.8317C50.4415 44.3153 51.9982 40.8385 51.9982 36.9987C51.9982 33.1588 50.4415 29.6821 47.9249 27.1654C45.4084 24.6488 41.9318 23.0921 38.0918 23.0921C34.252 23.0921 30.7752 24.6488 28.2585 27.1654C25.742 29.682 24.1852 33.1587 24.1852 36.9985C24.1852 38.0087 24.293 38.9938 24.4977 39.9428L22.5076 42.1378C21.9746 40.521 21.6855 38.7938 21.6855 36.9987C21.6852 27.9376 29.0307 20.5923 38.0916 20.5923Z" fill="#0D3642"/>
<path d="M20.5 46.6774L30.7458 35.3766C31.0916 34.9944 31.6819 34.9649 32.0642 35.3107C32.1498 35.3882 32.2178 35.478 32.2678 35.5751L32.2694 35.5744L35.8498 42.5008L39.9084 27.4758C40.0419 26.9763 40.5552 26.6796 41.0547 26.813C41.3597 26.8944 41.5891 27.1177 41.6911 27.3929L45.8856 37.0405L50.0455 33.9118C50.2195 34.5882 50.3366 35.2819 50.3939 35.9866L46.0992 39.2168C46.0327 39.2722 45.9573 39.3194 45.8739 39.3558C45.4008 39.5621 44.8495 39.3457 44.6434 38.8724L41.0205 30.5396L37.0298 45.3124L37.0289 45.3121C36.9631 45.5579 36.7978 45.7763 36.5539 45.9019C36.0948 46.1385 35.5308 45.958 35.2941 45.4991L31.225 37.6274L20.5 49.4566V46.6774ZM60.5 26.0483V28.3854L55.4139 32.2107C55.2383 31.5743 55.0284 30.9518 54.7866 30.3457L60.5 26.0483Z" fill="#FB7A00"/>
</g>
<defs>
<clipPath id="clip0_3118_5370">
<rect width="40" height="40" fill="white" transform="translate(20.5 20)"/>
</clipPath>
</defs>
</svg>
