<svg width="248" height="40" viewBox="0 0 248 40" fill="none" xmlns="http://www.w3.org/2000/svg">
<path d="M173.715 6.72626L173.64 37.3449C173.64 37.4558 173.618 37.5657 173.575 37.668C173.532 37.7703 173.469 37.863 173.39 37.9408C173.311 38.0186 173.217 38.0798 173.114 38.1208C173.011 38.1619 172.901 38.1821 172.79 38.1801L166.884 38.0906C166.665 38.0867 166.457 37.997 166.303 37.8408C166.15 37.6846 166.064 37.4744 166.064 37.2554L166.109 6.72626C166.109 6.50731 166.023 6.29711 165.869 6.1409C165.716 5.98469 165.507 5.89498 165.288 5.89107L158.115 5.80158C158 5.80188 157.886 5.77847 157.781 5.73281C157.675 5.68716 157.58 5.62025 157.502 5.53626C157.424 5.45227 157.363 5.35302 157.325 5.2447C157.287 5.13638 157.271 5.02133 157.279 4.90674L157.533 0.820276C157.544 0.606615 157.638 0.405503 157.793 0.258425C157.948 0.111347 158.154 0.0295211 158.368 0.0298283L181.903 1.70178e-07C182.119 -0.000137904 182.327 0.0837488 182.483 0.233983C182.639 0.384217 182.73 0.589066 182.738 0.805361L182.872 5.17519C182.876 5.28862 182.857 5.40169 182.816 5.50749C182.775 5.6133 182.713 5.70962 182.633 5.79057C182.554 5.87153 182.458 5.93541 182.353 5.97833C182.248 6.02126 182.135 6.04231 182.022 6.04021L174.565 5.89107C174.454 5.88909 174.344 5.90923 174.241 5.95031C174.138 5.99139 174.044 6.0526 173.965 6.13035C173.886 6.2081 173.823 6.30085 173.78 6.40316C173.737 6.50548 173.715 6.61531 173.715 6.72626Z" fill="#039EC8"/>
<path d="M39.858 28.471L32.6992 38.4784C32.6537 38.5429 32.5934 38.5956 32.5233 38.6319C32.4533 38.6682 32.3755 38.6872 32.2965 38.6871L5.49591 38.7021C5.4195 38.7026 5.34401 38.6854 5.27541 38.6518C5.20681 38.6181 5.14699 38.569 5.10068 38.5082C5.05437 38.4474 5.02285 38.3767 5.00862 38.3016C4.99438 38.2265 4.99782 38.1492 5.01866 38.0757L15.8612 1.25277C15.8899 1.15152 15.9502 1.06212 16.0335 0.997703C16.1167 0.933282 16.2183 0.897229 16.3235 0.894832L36.1145 0.387753C36.1944 0.385595 36.2735 0.402904 36.3452 0.438186C36.4169 0.473467 36.4789 0.525662 36.5258 0.590261C36.5728 0.654861 36.6034 0.729924 36.6149 0.808971C36.6264 0.888019 36.6184 0.968674 36.5918 1.04397L35.0258 5.59277C34.992 5.68846 34.9294 5.77135 34.8466 5.83008C34.7638 5.88882 34.6649 5.92054 34.5635 5.92088L22.2593 5.96562C22.1516 5.96481 22.0465 5.99938 21.9603 6.06404C21.8741 6.1287 21.8115 6.21988 21.7821 6.32356L19.0528 15.4957C19.0291 15.5702 19.0235 15.6492 19.0364 15.7262C19.0493 15.8032 19.0803 15.8761 19.127 15.9388C19.1736 16.0014 19.2345 16.0521 19.3046 16.0866C19.3747 16.121 19.452 16.1383 19.5301 16.137L30.7305 16.0476C30.8135 16.0473 30.8952 16.0679 30.9681 16.1077C31.0409 16.1474 31.1025 16.205 31.1471 16.2749C31.1918 16.3449 31.218 16.425 31.2234 16.5078C31.2288 16.5906 31.2132 16.6734 31.178 16.7485L29.1646 21.1482C29.126 21.2383 29.0613 21.3148 28.979 21.368C28.8966 21.4211 28.8002 21.4484 28.7022 21.4465L17.7851 21.2078C17.6793 21.2061 17.5756 21.2385 17.4897 21.3003C17.4037 21.3621 17.3399 21.4499 17.3079 21.5509L14.0268 32.811C14.0031 32.8854 13.9975 32.9644 14.0104 33.0415C14.0233 33.1185 14.0543 33.1914 14.1009 33.254C14.1476 33.3167 14.2084 33.3674 14.2785 33.4018C14.3486 33.4363 14.4259 33.4536 14.504 33.4523L26.48 33.333C26.5514 33.3322 26.6222 33.3469 26.6873 33.3761C26.7525 33.4054 26.8105 33.4485 26.8573 33.5024C26.9041 33.5563 26.9387 33.6198 26.9585 33.6884C26.9783 33.757 26.983 33.8291 26.9722 33.8997L26.4055 37.5537C26.3936 37.6586 26.4158 37.7646 26.4688 37.8559C26.5218 37.9472 26.6027 38.0191 26.6997 38.0609C26.7967 38.1027 26.9045 38.1122 27.0073 38.088C27.1101 38.0638 27.2023 38.0072 27.2705 37.9265L38.7991 23.2063C38.8422 23.1497 38.8726 23.0843 38.888 23.0148C38.9035 22.9453 38.9036 22.8732 38.8885 22.8036L36.0101 9.09758C35.9948 9.02727 35.9951 8.95446 36.011 8.88427C36.0268 8.81408 36.0579 8.74823 36.102 8.69135C36.1461 8.63447 36.2021 8.58795 36.2661 8.55507C36.3301 8.52218 36.4005 8.50373 36.4725 8.50102L42.1249 8.21765C42.246 8.2126 42.3647 8.25241 42.4583 8.32947C42.5519 8.40653 42.6137 8.51541 42.632 8.63525L43.9444 17.9416C43.961 18.0364 44.005 18.1243 44.0709 18.1944C44.1369 18.2644 44.222 18.3136 44.3156 18.3358C44.4092 18.3581 44.5073 18.3523 44.5978 18.3194C44.6882 18.2864 44.767 18.2277 44.8243 18.1504L51.6699 8.53085C51.7154 8.4663 51.7757 8.41364 51.8458 8.3773C51.9158 8.34096 51.9936 8.32201 52.0726 8.32205H56.7705C56.8645 8.32049 56.9571 8.3459 57.0371 8.39527C57.1171 8.44464 57.1813 8.51591 57.2221 8.60064C57.2629 8.68537 57.2786 8.78001 57.2673 8.87337C57.256 8.96672 57.2181 9.05488 57.1583 9.12741L45.9131 23.1317C45.8673 23.1872 45.8343 23.2519 45.8162 23.3215C45.7982 23.3911 45.7956 23.4638 45.8087 23.5344L48.9854 38.1353C49.0009 38.2068 49.0003 38.2809 48.9836 38.3522C48.9668 38.4234 48.9344 38.49 48.8887 38.5472C48.843 38.6043 48.7851 38.6506 48.7193 38.6825C48.6534 38.7145 48.5813 38.7313 48.5081 38.7319L42.8557 38.7766C42.7371 38.778 42.622 38.7365 42.5316 38.6598C42.4412 38.5831 42.3815 38.4763 42.3635 38.359L40.7379 28.6649C40.7191 28.5712 40.6735 28.485 40.6067 28.4168C40.5398 28.3486 40.4545 28.3014 40.3612 28.2808C40.2679 28.2602 40.1706 28.2673 40.0813 28.3011C39.9919 28.3348 39.9143 28.3939 39.858 28.471Z" fill="#050E11"/>
<path d="M133.087 12.17C128.643 11.2751 125.481 14.7203 127.882 19.0454C128.096 19.424 128.419 19.7262 128.807 19.9104C131.869 21.362 134.275 23.5246 136.025 26.398C136.284 26.8256 136.363 27.2829 136.264 27.7701C134.255 37.4543 128.126 41.0039 117.875 38.4188C117.388 38.2895 117.005 38.0161 116.726 37.5985C115.255 35.262 115.2 32.7862 116.562 30.1713C116.791 29.7338 117.154 29.52 117.651 29.53L121.514 29.6045C121.941 29.6145 122.145 29.8382 122.125 30.2757L121.916 33.4971C121.887 34.0738 122.135 34.4815 122.662 34.7201C127.405 36.7931 132.312 30.9916 127.733 27.3525C124.303 24.6232 119.485 22.3563 120.902 16.8977C122.473 10.7631 126.704 7.76534 133.594 7.90453C138.561 8.00893 142.229 10.9619 139.276 16.1222C138.998 16.6094 138.575 16.848 138.009 16.8381L134.414 16.7784C134.027 16.7685 133.823 16.5696 133.803 16.1819L133.639 12.7964C133.631 12.6469 133.573 12.5041 133.473 12.3907C133.373 12.2772 133.237 12.1995 133.087 12.17Z" fill="#050E11"/>
<path d="M155.264 12.3787C152.202 11.3546 150.119 12.2593 149.015 15.093C147.151 19.8357 156.249 21.7596 157.68 26.3233C162.005 40.1636 132.431 45.2493 138.411 30.3651C138.504 30.1273 138.665 29.9232 138.873 29.7795C139.08 29.6358 139.325 29.5592 139.575 29.5597L143.333 29.5299C143.437 29.5278 143.54 29.5469 143.636 29.586C143.732 29.6252 143.819 29.6836 143.891 29.7576C143.964 29.8317 144.021 29.9198 144.058 30.0165C144.095 30.1133 144.113 30.2167 144.108 30.3203L143.959 33.5418C143.929 34.2179 144.233 34.6603 144.869 34.8691C147.713 35.8435 149.826 35.063 151.208 32.5276C154.772 25.9803 138.575 25.0407 143.393 14.7649C146.047 9.11744 150.755 6.8505 157.516 7.96409C161.921 8.68991 163.258 11.3048 161.528 15.8089C161.349 16.2762 161.011 16.5248 160.514 16.5546L156.875 16.7932C156.749 16.8015 156.623 16.7839 156.505 16.7417C156.386 16.6995 156.278 16.6336 156.187 16.548C156.096 16.4625 156.024 16.3593 155.975 16.2449C155.927 16.1305 155.903 16.0074 155.906 15.8835L155.95 13.3332C155.95 12.846 155.722 12.5278 155.264 12.3787Z" fill="#050E11"/>
<path d="M230.119 12.841L222.154 11.8865C222.05 11.8716 221.944 11.8894 221.851 11.9375C221.757 11.9856 221.681 12.0616 221.632 12.155L216.249 22.744C216.214 22.8136 216.196 22.8901 216.196 22.9677C216.196 23.0452 216.214 23.1218 216.249 23.1914L223.392 37.4343C223.431 37.5122 223.448 37.5986 223.444 37.6852C223.439 37.7719 223.412 37.8559 223.366 37.9292C223.319 38.0025 223.255 38.0627 223.179 38.104C223.102 38.1453 223.017 38.1664 222.93 38.1651L217.621 38.0906C217.523 38.0906 217.427 38.0625 217.345 38.0096C217.263 37.9567 217.198 37.8812 217.158 37.7923L212.953 27.9937C212.914 27.904 212.85 27.8274 212.769 27.773C212.688 27.7187 212.593 27.6889 212.495 27.6874C212.397 27.6858 212.301 27.7124 212.218 27.7642C212.136 27.8159 212.069 27.8904 212.028 27.9788L207.479 37.7774C207.439 37.8663 207.374 37.9418 207.292 37.9947C207.21 38.0476 207.114 38.0757 207.017 38.0756L184.825 38.1353C184.69 38.1353 184.561 38.0819 184.466 37.9868C184.371 37.8917 184.317 37.7627 184.317 37.6282L184.094 8.41151C184.094 8.27703 184.147 8.14805 184.242 8.05295C184.337 7.95786 184.466 7.90443 184.601 7.90443L199.798 7.91935C199.866 7.91932 199.933 7.93291 199.996 7.95932C200.058 7.98573 200.115 8.02442 200.162 8.0731C200.209 8.12178 200.247 8.17945 200.271 8.24271C200.296 8.30596 200.307 8.37351 200.305 8.44134L200.261 11.8567C200.261 11.9258 200.247 11.9943 200.219 12.0579C200.192 12.1214 200.152 12.1787 200.102 12.2262C200.051 12.2737 199.992 12.3104 199.927 12.3341C199.862 12.3577 199.793 12.3678 199.724 12.3637L190.611 12.0506C190.541 12.0464 190.47 12.0569 190.404 12.0815C190.338 12.106 190.278 12.1441 190.228 12.1932C190.177 12.2423 190.137 12.3014 190.111 12.3667C190.085 12.432 190.072 12.5021 190.074 12.5725L190.179 20.134C190.181 20.2006 190.196 20.2662 190.223 20.3269C190.25 20.3877 190.289 20.4425 190.338 20.4883C190.386 20.534 190.443 20.5697 190.505 20.5933C190.568 20.617 190.634 20.6281 190.701 20.6262L199.142 20.2533C199.272 20.249 199.398 20.2945 199.495 20.3805C199.592 20.4665 199.653 20.5864 199.664 20.7156L199.903 24.0862C199.907 24.154 199.897 24.222 199.874 24.286C199.852 24.35 199.816 24.4088 199.77 24.4589C199.724 24.509 199.669 24.5493 199.607 24.5775C199.545 24.6058 199.478 24.6213 199.411 24.6231L190.596 24.653C190.464 24.6529 190.338 24.7043 190.243 24.7962C190.148 24.8881 190.093 25.0132 190.089 25.1451L189.791 33.6163C189.789 33.6842 189.801 33.7517 189.825 33.815C189.85 33.8782 189.887 33.9359 189.934 33.9846C189.981 34.0333 190.038 34.0719 190.1 34.0984C190.163 34.1248 190.23 34.1384 190.298 34.1383L199.843 34.1682C199.912 34.168 199.981 34.1821 200.044 34.2094C200.108 34.2367 200.165 34.2768 200.213 34.3271C200.26 34.3774 200.297 34.4368 200.32 34.5018C200.344 34.5668 200.354 34.636 200.35 34.7051L200.037 39.4776C200.033 39.592 200.069 39.7042 200.137 39.7959C200.206 39.8877 200.303 39.9536 200.414 39.983C200.524 40.0124 200.641 40.0035 200.746 39.9578C200.851 39.912 200.938 39.8321 200.991 39.7311C204.166 33.0273 205.945 29.2688 209.12 22.565C209.154 22.4954 209.172 22.4188 209.172 22.3413C209.172 22.2637 209.154 22.1872 209.12 22.1176L202.498 8.76945C202.46 8.69272 202.442 8.6077 202.446 8.52228C202.45 8.43686 202.476 8.35383 202.52 8.28091C202.565 8.20799 202.627 8.14754 202.702 8.10518C202.776 8.06283 202.86 8.03995 202.945 8.03866L208.314 7.84478C208.419 7.83996 208.522 7.86746 208.61 7.92352C208.698 7.97957 208.767 8.06145 208.806 8.15797L212.818 17.9118C212.858 18.0008 212.923 18.0764 213.005 18.1294C213.087 18.1824 213.183 18.2106 213.281 18.2106C213.378 18.2106 213.474 18.1824 213.556 18.1294C213.638 18.0764 213.703 18.0008 213.743 17.9118L217.695 8.30712C217.734 8.21303 217.8 8.13284 217.886 8.07698C217.971 8.02112 218.071 7.99218 218.172 7.99392L243.258 7.90443C243.392 7.90443 243.521 7.95786 243.616 8.05295C243.712 8.14805 243.765 8.27703 243.765 8.41151V12.0058C243.765 12.1378 243.714 12.2645 243.622 12.3592C243.53 12.4539 243.405 12.509 243.273 12.5129L237.083 12.662C236.952 12.6659 236.826 12.721 236.735 12.8157C236.643 12.9104 236.591 13.0372 236.591 13.1691L236.442 37.6282C236.442 37.7627 236.389 37.8917 236.294 37.9868C236.199 38.0819 236.07 38.1353 235.935 38.1353L231.073 38.0607C230.939 38.0607 230.81 38.0073 230.715 37.9122C230.619 37.8171 230.566 37.6881 230.566 37.5537V13.3481C230.567 13.2233 230.522 13.1026 230.439 13.0091C230.357 12.9155 230.243 12.8557 230.119 12.841Z" fill="#039EC8"/>
<path d="M60.1291 27.1138L57.191 38.0309C57.0816 38.4187 56.8281 38.6225 56.4304 38.6424L52.0904 38.8512C51.3745 38.881 51.116 38.5529 51.3148 37.8669L59.622 9.1274C59.6851 8.89645 59.8236 8.69323 60.0155 8.55001C60.2073 8.4068 60.4415 8.3318 60.6809 8.33695L73.4921 8.53083C73.9777 8.53859 74.457 8.64231 74.9021 8.83598C75.3473 9.02964 75.7494 9.3094 76.0851 9.65902C76.4209 10.0086 76.6836 10.4212 76.858 10.8727C77.0324 11.3242 77.1151 11.8056 77.1013 12.2892C76.803 22.3612 71.5582 27.0094 61.3669 26.2339C60.7207 26.1842 60.308 26.4775 60.1291 27.1138ZM61.9635 21.342C61.9389 21.4205 61.9327 21.5034 61.9452 21.5848C61.9577 21.6663 61.9887 21.7441 62.0358 21.8127C62.083 21.8813 62.1451 21.9389 62.2178 21.9814C62.2904 22.0238 62.3717 22.0499 62.4557 22.0579C67.4469 22.5352 70.2955 20.2533 71.0014 15.2123C71.0466 14.8995 71.0232 14.5806 70.9327 14.2774C70.8422 13.9743 70.6867 13.6941 70.4771 13.4562C70.2674 13.2182 70.0085 13.028 69.718 12.8986C69.4275 12.7693 69.1124 12.7038 68.7941 12.7068L65.1402 12.7664C64.6033 12.7764 64.2603 13.0399 64.1111 13.5569L61.9635 21.342Z" fill="#050E11"/>
<path d="M91.4037 24.6231C94.8488 25.0705 94.6997 27.6059 93.8198 30.3352C93.0243 32.8109 92.4178 35.3414 92.0002 37.9265C91.9108 38.4733 91.5926 38.7517 91.0457 38.7617L88.4954 38.8064C86.0495 38.8462 85.3386 37.7574 86.3627 35.5402C87.536 33.0048 88.1474 30.3252 88.1971 27.5015C88.2019 27.233 88.1044 26.9726 87.9244 26.7733C87.7444 26.5739 87.4954 26.4504 87.2277 26.4277L83.3501 26.0698C82.664 26.0101 82.2265 26.3134 82.0376 26.9795L78.9802 37.9861C78.8609 38.4236 78.5726 38.6473 78.1152 38.6573L73.7305 38.7169C73.1339 38.7269 72.9202 38.4435 73.0892 37.8668L81.4858 9.11244C81.5952 8.70478 81.8636 8.49101 82.2912 8.47113C86.2384 8.29216 90.1757 8.31702 94.1031 8.5457C102.008 9.02295 97.8615 17.7328 95.1173 21.4464C94.819 21.854 94.4213 22.0529 93.9242 22.043C92.5123 22.043 91.5578 22.7091 91.0606 24.0414C90.9314 24.3795 91.0457 24.5734 91.4037 24.6231ZM85.617 14.8842C85.0503 16.8727 84.5134 18.916 84.0063 21.0139C83.877 21.5309 84.0809 21.8093 84.6178 21.8491C88.4159 22.0778 90.8021 20.3875 91.7765 16.7783C91.9613 16.0948 91.9136 15.3693 91.6409 14.7159C91.3682 14.0625 90.886 13.5184 90.2702 13.1691C87.8839 11.797 86.3329 12.3687 85.617 14.8842Z" fill="#050E11"/>
<path d="M106.793 20.6858L115.145 20.6709C115.241 20.6709 115.335 20.6946 115.42 20.7397C115.504 20.7849 115.576 20.8502 115.629 20.9299C115.682 21.0096 115.715 21.1011 115.724 21.1965C115.733 21.2918 115.719 21.3879 115.682 21.4763L114.34 24.6679C114.296 24.7739 114.221 24.8644 114.126 24.9281C114.03 24.9918 113.918 25.0258 113.803 25.0258L105.227 24.9214C105.1 24.9195 104.976 24.9593 104.874 25.0347C104.771 25.1102 104.696 25.217 104.661 25.339L102.215 33.7804C102.192 33.8657 102.189 33.955 102.206 34.0416C102.223 34.1281 102.26 34.2097 102.313 34.2801C102.366 34.3505 102.434 34.4079 102.513 34.448C102.592 34.488 102.678 34.5096 102.767 34.5112L112.118 34.4366C112.209 34.4353 112.299 34.4553 112.381 34.4952C112.463 34.5351 112.534 34.5937 112.589 34.6663C112.645 34.7388 112.682 34.8233 112.698 34.913C112.715 35.0026 112.71 35.0949 112.684 35.1823L111.715 38.2845C111.677 38.4012 111.604 38.503 111.504 38.5753C111.405 38.6477 111.286 38.6868 111.163 38.6871L95.7122 38.7766C95.6223 38.7757 95.5339 38.7539 95.4538 38.713C95.3738 38.6721 95.3043 38.6132 95.2508 38.541C95.1973 38.4687 95.1614 38.3851 95.1457 38.2966C95.13 38.2081 95.135 38.1171 95.1603 38.0309L103.781 8.76946C103.816 8.64994 103.888 8.54485 103.988 8.46967C104.087 8.3945 104.208 8.3532 104.332 8.35187L119.679 8.36678C119.776 8.36818 119.87 8.39352 119.954 8.44053C120.038 8.48754 120.11 8.55475 120.161 8.6361C120.213 8.71745 120.244 8.81039 120.251 8.90656C120.258 9.00274 120.241 9.09913 120.201 9.18706L118.754 12.3638C118.709 12.4647 118.636 12.5505 118.543 12.6113C118.451 12.672 118.343 12.7052 118.232 12.7068H108.881C108.757 12.7081 108.636 12.7494 108.537 12.8246C108.437 12.8998 108.365 13.0049 108.329 13.1244L106.227 19.9252C106.198 20.0136 106.191 20.1075 106.206 20.1991C106.221 20.2907 106.258 20.3774 106.314 20.4519C106.369 20.5263 106.442 20.5864 106.525 20.6271C106.608 20.6678 106.7 20.688 106.793 20.6858Z" fill="#050E11"/>
</svg>
