<svg width="188" height="41" viewBox="0 0 188 41" fill="none" xmlns="http://www.w3.org/2000/svg">
<path d="M47.9717 3.09883C47.8038 3.22482 47.6778 9.90252 47.6778 17.8821C47.6778 34.1774 47.6358 34.0514 50.7856 36.6133L52.3815 37.8732L61.1591 37.9992L69.9367 38.1252V37.0753V35.9833H61.5791C49.1057 35.9833 49.7777 37.0333 49.7777 17.0842C49.7777 3.51881 49.7357 2.80484 49.0217 2.80484C48.6017 2.80484 48.0977 2.93084 47.9717 3.09883Z" fill="#121212"/>
<path d="M96.6885 3.09887C96.5205 3.22486 96.3945 11.1625 96.3945 20.7381V38.0833H97.4445H98.4944L98.5784 27.4577L98.7044 16.8742L104.29 16.7482L109.876 16.6222L111.094 17.8822L112.354 19.1001V28.5917V38.0833H113.404H114.454V28.7177C114.454 18.2182 114.244 17.2522 111.472 15.6143C110.212 14.9003 109.288 14.7743 104.29 14.7743H98.4944V8.76861C98.4944 3.26686 98.4524 2.80488 97.7385 2.80488C97.3185 2.80488 96.8145 2.93088 96.6885 3.09887Z" fill="#121212"/>
<path d="M144.567 3.05687C144.399 3.22486 144.273 11.1625 144.273 20.7381V38.0833H150.993C158.385 38.0833 159.855 37.7473 161.409 35.7734C162.291 34.6814 162.333 34.1774 162.333 26.5758C162.333 19.3941 162.249 18.4282 161.493 17.2102C160.149 14.9843 159.393 14.7743 152.589 14.7743H146.415L146.289 8.8946C146.163 3.98082 146.037 3.01487 145.533 2.88887C145.155 2.84688 144.735 2.88887 144.567 3.05687ZM159.435 17.8822L160.653 19.1001V26.1138C160.653 36.0673 160.779 35.9414 152.379 35.9833H146.373V26.3238V16.6642H152.295H158.217L159.435 17.8822Z" fill="#121212"/>
<path d="M171.867 14.7323C168.129 16.0762 167.793 17.0002 167.793 26.4078C167.793 33.2954 167.877 34.2194 168.633 35.4373C170.145 37.9572 171.153 38.2932 177.075 38.2932C183.08 38.2932 184.13 37.9152 185.516 35.1014C186.65 32.9595 186.608 19.6461 185.516 17.5042C184.256 15.1103 181.82 14.1443 177.243 14.1443C175.185 14.1863 172.749 14.4383 171.867 14.7323ZM182.954 17.4622L184.172 18.6801V26.5338C184.172 34.2614 184.172 34.3454 183.122 35.3533C182.156 36.3613 181.862 36.4033 177.033 36.4033C172.203 36.4033 171.909 36.3613 170.943 35.3533C169.893 34.3454 169.893 34.2614 169.893 26.3658V18.4281L171.195 17.3362C172.413 16.2862 172.749 16.2442 177.117 16.2442C181.652 16.2442 181.736 16.2442 182.954 17.4622Z" fill="#121212"/>
<path d="M75.0603 15.4883C75.1863 16.4542 75.2703 16.4542 80.6461 16.5802C83.6699 16.6222 86.5258 16.8742 86.9878 17.1262C88.2477 17.7562 88.8357 19.2681 88.8357 21.704V23.8039H83.2919C77.1182 23.8039 75.5643 24.2239 73.9684 26.4498C72.7085 28.1717 72.7085 33.7154 73.9684 35.4373C75.6903 37.7892 77.0342 38.1252 84.2159 37.9992L90.7256 37.8732V28.2137C90.7256 19.6461 90.6416 18.3861 89.9696 17.3782C88.4577 15.0683 87.4917 14.7743 80.9401 14.6483L74.8923 14.4803L75.0603 15.4883ZM88.8357 30.9436V35.9833H82.956C77.2442 35.9833 76.9922 35.9413 76.0263 34.9334C75.1023 34.0514 74.9763 33.5474 74.9763 30.9436C74.9763 28.3397 75.1023 27.8357 76.0263 26.9537C76.9922 25.9458 77.2442 25.9038 82.956 25.9038H88.8357V30.9436Z" fill="#121212"/>
<path d="M124.072 14.9423C120.292 16.1183 119.914 17.1262 119.914 26.4078C119.914 37.7053 120.292 38.0833 131.128 38.0833C134.865 38.0833 138.015 37.9153 138.141 37.7053C138.309 37.4953 138.267 37.0333 138.141 36.6553C137.931 36.0673 136.923 35.9833 130.96 35.9833C124.198 35.9833 124.072 35.9833 123.064 34.9334C122.098 34.0094 122.014 33.5895 122.014 30.4396V26.9538L130.204 27.0798L138.393 27.2058V22.838C138.393 18.9741 138.267 18.3022 137.427 17.0422C136.881 16.2443 135.831 15.4043 135.033 15.1103C133.395 14.5643 125.752 14.4383 124.072 14.9423ZM135.285 17.6722C136.377 18.5962 136.461 18.8901 136.461 21.956L136.503 25.2738H129.364H122.224L122.098 21.998C121.972 19.0161 122.056 18.6801 123.022 17.7142C124.03 16.7062 124.282 16.6642 129.112 16.6642C133.815 16.6642 134.235 16.7482 135.285 17.6722Z" fill="#121212"/>
<path d="M16.3667 15.816L19.3118 10.7164C19.3325 10.6833 19.3434 10.6451 19.3433 10.6062L19.3402 8.88948C19.3402 8.85856 19.3325 8.8292 19.3181 8.80443L17.5164 5.67663C17.4551 5.57033 17.4227 5.44974 17.4227 5.32699C17.4227 5.20425 17.4551 5.08366 17.5164 4.97736L19.9387 0.784904C19.9896 0.696713 20.0626 0.623491 20.1506 0.572617C20.2385 0.521742 20.3381 0.495011 20.4395 0.495118H25.4225C25.5145 0.494985 25.6048 0.519082 25.6844 0.564981C25.764 0.610879 25.8302 0.676957 25.8761 0.756556L28.3551 5.05926C28.4475 5.22305 28.4475 5.38579 28.3551 5.54748L25.9171 9.85964C25.8472 9.98192 25.7459 10.0834 25.6236 10.1537C25.5012 10.224 25.3623 10.2606 25.221 10.2597L21.7183 10.2282C21.607 10.2261 21.5031 10.2534 21.4065 10.3101L20.1529 11.0471C20.1279 11.0638 20.1065 11.0852 20.0899 11.1101C19.1911 12.6599 18.2902 14.2043 17.3873 15.7436C17.0188 16.3735 17.1069 16.7736 17.1321 17.4665C17.1363 17.5736 17.1017 17.666 17.0282 17.7437C15.4407 19.4572 13.8028 16.3168 16.1368 15.9735C16.2397 15.9567 16.3163 15.9042 16.3667 15.816ZM19.63 7.59489C19.9859 8.17761 20.0269 8.69419 20.8742 8.70994C20.9834 8.71204 21.0674 8.75929 21.1262 8.85168L21.3372 9.17297C21.4002 9.26746 21.4884 9.31471 21.6018 9.31471H25.0477C25.1548 9.31471 25.2357 9.26851 25.2903 9.17612L27.4196 5.50024C27.4889 5.38054 27.4889 5.2598 27.4196 5.138L25.3186 1.57237C25.2926 1.52799 25.2555 1.49106 25.2108 1.46513C25.1661 1.4392 25.1154 1.42515 25.0635 1.42432L21.0096 1.39913C20.7408 1.39703 20.5371 1.51147 20.3985 1.74246L18.411 5.08446C18.3821 5.13247 18.366 5.18722 18.3644 5.24347C18.3627 5.29971 18.3755 5.35558 18.4015 5.40574C18.7879 6.15961 19.1974 6.88932 19.63 7.59489ZM20.9842 9.60651C20.9833 9.56392 20.974 9.52191 20.9569 9.4829C20.9397 9.44388 20.9151 9.40863 20.8843 9.37914C20.8536 9.34965 20.8173 9.3265 20.7776 9.31103C20.7379 9.29555 20.6956 9.28805 20.653 9.28894L20.2877 9.2966C20.2017 9.2984 20.1199 9.3343 20.0603 9.3964C20.0008 9.4585 19.9683 9.54172 19.9701 9.62774L19.9767 9.94267C19.9776 9.98526 19.9869 10.0273 20.004 10.0663C20.0211 10.1053 20.0458 10.1406 20.0765 10.17C20.1073 10.1995 20.1435 10.2227 20.1832 10.2381C20.2229 10.2536 20.2653 10.2611 20.3079 10.2602L20.6732 10.2526C20.7592 10.2508 20.841 10.2149 20.9005 10.1528C20.9601 10.0907 20.9925 10.0075 20.9907 9.92144L20.9842 9.60651ZM15.8711 17.7726C15.9993 17.8185 16.1429 17.8047 16.2704 17.7343C16.3979 17.6639 16.4988 17.5426 16.5509 17.3971C16.5767 17.325 16.5897 17.2492 16.5892 17.174C16.5888 17.0987 16.5748 17.0255 16.5482 16.9585C16.5215 16.8914 16.4827 16.8319 16.434 16.7834C16.3852 16.7348 16.3274 16.6981 16.2639 16.6754C16.1357 16.6295 15.9921 16.6433 15.8646 16.7137C15.7371 16.7841 15.6362 16.9054 15.5841 17.0509C15.5583 17.123 15.5453 17.1988 15.5457 17.274C15.5462 17.3493 15.5602 17.4225 15.5868 17.4895C15.6134 17.5566 15.6523 17.616 15.701 17.6646C15.7498 17.7132 15.8076 17.7499 15.8711 17.7726Z" fill="#AE8C47"/>
<path d="M20.9549 2.17393C20.663 2.65061 20.369 3.12414 20.0729 3.59452C20.0057 3.70581 19.9049 3.77091 19.7705 3.78981C19.6046 3.81501 19.5668 3.75621 19.6571 3.61342L20.7155 1.95974C20.7434 1.91525 20.7825 1.87842 20.8293 1.85257C20.876 1.82672 20.9289 1.81267 20.9832 1.8117L22.9456 1.7676C22.9722 1.76717 22.9987 1.77291 23.0227 1.78435C23.0468 1.7958 23.0678 1.81262 23.084 1.83347C23.1003 1.85433 23.1113 1.87861 23.1163 1.90438C23.1212 1.93014 23.1199 1.95666 23.1125 1.98179C23.1041 2.00909 23.0957 2.03639 23.0873 2.06369C23.0684 2.13298 23.0243 2.16553 22.955 2.16133L21.2257 2.03534C21.1081 2.02694 21.0178 2.07314 20.9549 2.17393Z" fill="#AE8C47"/>
<path d="M15.7673 21.2841C16.6241 21.3723 16.7186 22.5283 16.3595 23.026C15.4649 24.2796 13.5971 22.6354 14.6775 21.5896C14.7594 21.5098 14.7856 21.4143 14.7562 21.303L13.2537 15.5892C13.2306 15.4989 13.1866 15.4212 13.1215 15.3561L12.0253 14.2568C11.9623 14.1938 11.8878 14.1518 11.8017 14.1308L8.62347 13.2961C8.43788 13.2473 8.26849 13.1506 8.13243 13.0156C7.99637 12.8807 7.89846 12.7123 7.84861 12.5275L6.70836 8.2815C6.66427 8.11493 6.66494 7.93977 6.71031 7.77381C6.75567 7.60784 6.84411 7.45698 6.96665 7.33654L10.2173 4.11109C10.3085 4.02065 10.4217 3.95541 10.5459 3.92174C10.6701 3.88806 10.8011 3.8871 10.926 3.91895L15.4523 5.09069C15.5902 5.127 15.716 5.19879 15.8172 5.29886C15.9184 5.39894 15.9913 5.52377 16.0288 5.66082L17.1753 9.95407C17.2308 10.1578 17.2312 10.3727 17.1764 10.5769C17.1216 10.7811 17.0137 10.9672 16.8635 11.1164L14.5956 13.3622C14.5053 13.4525 14.4433 13.5607 14.4097 13.6866L14.0349 15.1167C14.0097 15.2133 14.0097 15.3109 14.0349 15.4096L15.5846 21.1298C15.6098 21.2221 15.6707 21.2736 15.7673 21.2841ZM15.046 5.9128L10.9827 4.75996C10.8567 4.72426 10.7465 4.75261 10.652 4.845L7.62812 7.85627C7.53782 7.94656 7.50947 8.05366 7.54307 8.17755L8.64237 12.2755C8.66967 12.3826 8.73686 12.4498 8.84396 12.4771L12.0757 13.3433C12.1787 13.3695 12.2882 13.3549 12.3812 13.3024C12.7466 13.0861 13.1425 12.9874 13.5687 13.0063C13.6653 13.0126 13.7483 12.9811 13.8176 12.9118L16.2493 10.4612C16.2865 10.424 16.3131 10.3775 16.3264 10.3266C16.3397 10.2756 16.3391 10.2221 16.3249 10.1714L15.2319 6.09865C15.2046 6.00205 15.1426 5.9401 15.046 5.9128ZM13.2034 13.5481C12.7645 13.6404 12.6185 13.8872 12.7655 14.2883C12.7885 14.3511 12.824 14.4088 12.87 14.4581C12.9159 14.5073 12.9715 14.547 13.0333 14.5749C13.5141 14.787 13.7756 14.6348 13.8176 14.1182C13.8449 13.7591 13.6916 13.5659 13.3577 13.5386C13.3055 13.5344 13.2535 13.5376 13.2034 13.5481ZM16.0451 22.4303C16.0639 22.2963 16.0209 22.1592 15.9254 22.0491C15.8299 21.9391 15.6898 21.8651 15.536 21.8434C15.3821 21.8218 15.2271 21.8543 15.1049 21.9338C14.9828 22.0133 14.9036 22.1332 14.8848 22.2672C14.8659 22.4012 14.909 22.5383 15.0045 22.6484C15.1 22.7584 15.24 22.8324 15.3939 22.854C15.5478 22.8757 15.7028 22.8432 15.825 22.7637C15.9471 22.6842 16.0263 22.5643 16.0451 22.4303Z" fill="#AE8C47"/>
<path d="M21.2978 14.2317C20.9923 15.1011 19.8993 15.3625 19.3575 14.5939C18.485 13.3592 19.9654 12.2158 21.0616 13.1104C21.0936 13.1366 21.1315 13.1549 21.172 13.1637C21.2126 13.1724 21.2546 13.1714 21.2947 13.1608L27.2038 11.5701C27.3088 11.5428 27.3875 11.4819 27.44 11.3874C27.6248 11.0556 27.8778 10.7889 28.1991 10.5873C28.2936 10.5285 28.3556 10.4445 28.385 10.3353L29.2953 6.94294C29.3373 6.78789 29.4194 6.64661 29.5333 6.53328C29.6472 6.41995 29.7889 6.33855 29.9441 6.29722L34.4012 5.12548C34.5353 5.09007 34.6763 5.09034 34.81 5.12627C34.9438 5.16219 35.0656 5.23251 35.1634 5.33022L38.2786 8.44227C38.4251 8.5888 38.5302 8.77145 38.5833 8.9717C38.6364 9.17194 38.6356 9.38268 38.581 9.58252L37.403 13.9356C37.3713 14.0516 37.3096 14.1574 37.2239 14.2425C37.1383 14.3275 37.0317 14.389 36.9148 14.4207L32.4766 15.6334C32.3197 15.6764 32.1541 15.6772 31.9965 15.6357C31.8389 15.5943 31.6949 15.512 31.5789 15.3972L29.0464 12.8836C29.009 12.8461 28.9633 12.8173 28.9127 12.7993C28.8621 12.7814 28.8077 12.7746 28.7535 12.7796C28.3545 12.8216 27.9996 12.7177 27.6889 12.4678C27.6518 12.4376 27.6081 12.4166 27.5615 12.4068C27.515 12.3969 27.4668 12.3984 27.4211 12.4111L21.5277 14.0175C21.4144 14.0469 21.3377 14.1183 21.2978 14.2317ZM36.7604 13.249L37.7999 9.30218C37.8134 9.25144 37.8136 9.19823 37.8003 9.14791C37.787 9.09759 37.7608 9.05193 37.7243 9.01555L34.7162 6.04838C34.6385 5.97069 34.5471 5.94654 34.4421 5.97594L30.2938 7.06894C30.1636 7.10464 30.0817 7.18758 30.0481 7.31778L29.1724 10.6157C29.1472 10.7144 29.1682 10.8015 29.2354 10.8771C29.5252 11.1942 29.6418 11.568 29.5851 11.9985C29.5704 12.1077 29.6019 12.2011 29.6796 12.2788L32.086 14.7042C32.1194 14.7377 32.1611 14.7618 32.207 14.7739C32.2529 14.7861 32.3014 14.7859 32.3475 14.7735L36.2722 13.7372C36.5305 13.6679 36.6932 13.5051 36.7604 13.249ZM28.1204 11.3653L28.1141 11.9134C28.1141 11.9407 28.1195 11.9677 28.1299 11.993C28.1404 12.0182 28.1557 12.0411 28.175 12.0604C28.1943 12.0797 28.2172 12.095 28.2424 12.1055C28.2676 12.1159 28.2947 12.1213 28.322 12.1213L28.7157 12.1245C28.8168 12.1253 28.914 12.0836 28.9861 12.0085C29.0581 11.9335 29.0991 11.8313 29.1 11.7244V11.5669C29.1004 11.514 29.091 11.4615 29.0722 11.4124C29.0535 11.3633 29.0257 11.3186 28.9906 11.2809C28.9555 11.2431 28.9137 11.2131 28.8676 11.1925C28.8216 11.1718 28.7721 11.161 28.722 11.1606L28.3283 11.1574C28.2731 11.1574 28.2203 11.1794 28.1813 11.2183C28.1423 11.2573 28.1204 11.3102 28.1204 11.3653ZM20.882 14.2065L20.9009 13.6332C20.9026 13.5769 20.8821 13.5223 20.8438 13.481C20.8055 13.4397 20.7524 13.4152 20.6962 13.4127L20.6143 13.4096C20.376 13.4009 20.1457 13.4397 19.9739 13.5177C19.8021 13.5956 19.7028 13.7063 19.6977 13.8254L19.6945 13.9262C19.6908 14.0452 19.7815 14.1628 19.9467 14.2531C20.112 14.3434 20.3384 14.3991 20.5765 14.4081L20.6584 14.4112C20.6865 14.4125 20.7146 14.4082 20.7411 14.3986C20.7676 14.389 20.7919 14.3743 20.8127 14.3553C20.8334 14.3362 20.8503 14.3133 20.8622 14.2878C20.8741 14.2623 20.8808 14.2346 20.882 14.2065Z" fill="#AE8C47"/>
<path d="M32.2289 19.7817C31.8803 19.5108 31.6798 19.1601 31.6273 18.7296C31.6147 18.6309 31.5643 18.5564 31.4761 18.506L26.43 15.605C26.338 15.5518 26.232 15.5297 26.1277 15.542C22.5904 16.0082 25 11.9259 26.3229 13.8915C26.5497 14.2285 26.4332 14.66 26.8868 14.9183C29.0602 16.1425 30.717 17.0928 31.8572 17.7689C31.8882 17.7875 31.9231 17.7973 31.958 17.7973L33.5771 17.7941C33.6799 17.7941 33.7744 17.7689 33.8605 17.7185L36.8056 16.0145C36.9235 15.9465 37.0573 15.9107 37.1938 15.9107C37.3303 15.9107 37.4647 15.9465 37.5837 16.0145L41.7509 18.4083C41.8288 18.4536 41.8935 18.5184 41.9388 18.5963C41.9841 18.6741 42.0083 18.7624 42.0092 18.8525V23.7253C42.0091 23.8366 41.9797 23.9462 41.9239 24.0434C41.8682 24.1406 41.7879 24.222 41.6911 24.2797L37.3506 26.8342C37.2666 26.8846 37.1836 26.8857 37.1017 26.8374L32.8274 24.3773C32.5082 24.1946 32.3486 23.9195 32.3486 23.5521L32.3518 20.0305C32.3518 19.9276 32.3108 19.8447 32.2289 19.7817ZM25.9478 14.8255C26.0119 14.7034 26.0193 14.558 25.9684 14.4212C25.9174 14.2844 25.8124 14.1674 25.6763 14.0959C25.5402 14.0245 25.3842 14.0044 25.2427 14.0402C25.1011 14.076 24.9856 14.1646 24.9215 14.2867C24.8575 14.4087 24.8501 14.5541 24.901 14.691C24.9519 14.8278 25.057 14.9448 25.1931 15.0162C25.3292 15.0877 25.4852 15.1077 25.6267 15.072C25.7682 15.0362 25.8838 14.9475 25.9478 14.8255ZM41.0453 18.9281L37.3884 16.8429C37.3367 16.8133 37.2782 16.798 37.219 16.7985C37.1597 16.7991 37.1018 16.8155 37.0513 16.846L34.1377 18.5438C34.0453 18.5984 33.976 18.674 33.9298 18.7706C33.5802 19.5045 33.1865 19.9675 33.1865 20.818C33.1844 21.6894 33.1865 22.5662 33.1928 23.4481C33.1929 23.4924 33.2043 23.5357 33.2258 23.5738C33.2473 23.6119 33.2783 23.6435 33.3156 23.6655L37.0576 25.8609C37.1647 25.9239 37.2718 25.9249 37.3789 25.864L41.017 23.7725C41.122 23.7116 41.1745 23.6203 41.1745 23.4985L41.1713 19.1454C41.1713 19.0488 41.1293 18.9764 41.0453 18.9281ZM33.3427 18.9952C33.3695 18.8574 33.3349 18.7136 33.2466 18.5953C33.1582 18.477 33.0234 18.394 32.8717 18.3645C32.7966 18.3499 32.7196 18.3489 32.6451 18.3615C32.5706 18.3741 32.5001 18.4001 32.4376 18.438C32.3751 18.476 32.3219 18.525 32.2809 18.5825C32.2399 18.6399 32.2119 18.7046 32.1987 18.7728C32.1719 18.9105 32.2065 19.0544 32.2948 19.1726C32.3832 19.2909 32.518 19.3739 32.6697 19.4034C32.7448 19.418 32.8218 19.419 32.8963 19.4064C32.9708 19.3938 33.0413 19.3678 33.1038 19.3299C33.1663 19.292 33.2195 19.2429 33.2605 19.1855C33.3015 19.128 33.3294 19.0634 33.3427 18.9952Z" fill="#AE8C47"/>
<path d="M12.5992 22.2764L17.7682 25.2183C17.871 25.275 17.976 25.2792 18.0831 25.2309C19.8848 24.3962 20.3668 27.2279 18.6974 27.3098C17.996 27.3434 17.5718 26.9644 17.4248 26.1727C17.415 26.1184 17.3939 26.0669 17.3629 26.0219C17.3319 25.9768 17.2918 25.9391 17.2453 25.9113L12.1016 22.8937C12.051 22.865 11.995 22.8473 11.9375 22.8419C11.8799 22.8364 11.822 22.8434 11.7677 22.8622C11.4044 22.9924 11.0401 22.9956 10.6747 22.8717C10.6204 22.8529 10.5627 22.8459 10.5056 22.8513C10.4485 22.8568 10.3934 22.8745 10.344 22.9032L7.31065 24.6892C7.1637 24.7759 6.9962 24.8216 6.82557 24.8216C6.65494 24.8216 6.48744 24.7759 6.34049 24.6892L2.34963 22.3551C2.24511 22.2936 2.15846 22.2058 2.09824 22.1003C2.03802 21.9948 2.00633 21.8752 2.0063 21.7535L2 16.7736C1.99998 16.7307 2.01134 16.6885 2.03293 16.6515C2.05451 16.6144 2.08553 16.5837 2.12284 16.5625L6.38774 14.093C6.52187 14.0153 6.67394 13.9741 6.82872 13.9735C6.9835 13.973 7.13557 14.0131 7.2697 14.0899C8.48134 14.7787 9.73813 15.5021 11.0401 16.2601C12.1236 16.8933 11.733 19.5738 11.7173 20.7203C11.7163 20.77 11.7259 20.8192 11.7455 20.8648C11.765 20.9105 11.7941 20.9514 11.8307 20.9849C12.1415 21.2768 12.341 21.6296 12.4292 22.0433C12.4502 22.1462 12.5069 22.2239 12.5992 22.2764ZM6.65548 14.8868L3.0552 16.9216C2.9756 16.9676 2.90952 17.0337 2.86363 17.1133C2.81773 17.193 2.79363 17.2833 2.79376 17.3752L2.78746 21.4732C2.78746 21.5448 2.8064 21.6151 2.84236 21.6771C2.87831 21.739 2.93001 21.7904 2.9922 21.8259L6.56728 23.8576C6.64967 23.9045 6.74286 23.929 6.83744 23.9284C6.93202 23.9279 7.02463 23.9023 7.10591 23.8544L9.91557 22.2197C9.96239 22.1924 10.0022 22.1546 10.0317 22.1092C10.0612 22.0638 10.0797 22.0121 10.0857 21.9582C10.1361 21.5193 10.3419 21.175 10.703 20.9251C10.7786 20.8747 10.8175 20.8033 10.8196 20.7109L10.8259 17.2838C10.8259 17.1704 10.7776 17.0854 10.681 17.0287L6.98621 14.8868C6.93637 14.8581 6.87967 14.843 6.82167 14.843C6.76368 14.843 6.7064 14.8581 6.65548 14.8868ZM10.8259 21.6149L10.8605 22.3992C10.8613 22.422 10.8666 22.4443 10.8761 22.465C10.8856 22.4858 10.899 22.5044 10.9157 22.5199C10.9324 22.5354 10.9519 22.5475 10.9733 22.5554C10.9946 22.5633 11.0173 22.567 11.0401 22.5661L11.144 22.5598C11.3168 22.5521 11.48 22.4881 11.5981 22.3819C11.7161 22.2757 11.7793 22.1358 11.774 21.9929V21.9425C11.771 21.8712 11.751 21.8013 11.7152 21.7368C11.6793 21.6724 11.6283 21.6147 11.5651 21.567C11.5019 21.5193 11.4277 21.4825 11.3468 21.4588C11.2659 21.4352 11.1798 21.4251 11.0936 21.4291L10.9897 21.4322C10.9669 21.4334 10.9446 21.4391 10.9241 21.4489C10.9035 21.4588 10.8851 21.4726 10.8699 21.4896C10.8546 21.5065 10.8429 21.5263 10.8354 21.5478C10.8278 21.5693 10.8246 21.5921 10.8259 21.6149ZM18.2453 26.7263C18.2972 26.77 18.3582 26.8018 18.4249 26.8199C18.4916 26.838 18.5627 26.842 18.634 26.8318C18.7054 26.8215 18.7757 26.7971 18.8408 26.7601C18.906 26.723 18.9647 26.674 19.0138 26.6157C19.0628 26.5575 19.1011 26.4913 19.1265 26.4207C19.152 26.3502 19.164 26.2768 19.162 26.2048C19.16 26.1327 19.1439 26.0634 19.1147 26.0007C19.0856 25.9381 19.0438 25.8833 18.9919 25.8396C18.94 25.7959 18.879 25.7641 18.8123 25.746C18.7456 25.728 18.6745 25.7239 18.6032 25.7342C18.5318 25.7445 18.4616 25.7688 18.3964 25.8059C18.3312 25.843 18.2725 25.892 18.2235 25.9502C18.1744 26.0084 18.1361 26.0747 18.1107 26.1452C18.0852 26.2157 18.0732 26.2891 18.0752 26.3612C18.0772 26.4332 18.0933 26.5026 18.1225 26.5652C18.1517 26.6279 18.1934 26.6826 18.2453 26.7263Z" fill="#AE8C47"/>
<path d="M28.3007 19.7343C27.1321 19.2807 27.3715 18.1184 28.2975 17.5546C28.3951 17.4937 28.5105 17.4702 28.622 17.4885C29.4388 17.6208 29.8105 18.1006 29.737 18.928C29.7286 19.0288 29.694 19.1201 29.6331 19.202C29.4252 19.4792 29.3464 19.6461 29.4441 20.0147C29.9313 21.8605 30.4321 23.7021 30.9466 25.5395C30.9768 25.6443 31.047 25.7326 31.1419 25.7852C31.5135 25.9952 31.8075 26.2818 32.0238 26.6451C32.0868 26.7543 32.1782 26.8246 32.2979 26.8561L35.6682 27.7759C35.8155 27.8162 35.9494 27.8946 36.0562 28.003C36.163 28.1115 36.2389 28.2462 36.2761 28.3933L37.4384 33.0236C37.4509 33.0729 37.4509 33.1246 37.4382 33.1741C37.4256 33.2236 37.4007 33.2693 37.366 33.307C36.3496 34.441 35.2955 35.5182 34.2035 36.5388C33.731 36.9819 33.2628 37.1373 32.7987 37.005C31.6227 36.6711 30.4447 36.3519 29.2646 36.0474C28.0172 35.723 28.0928 35.3041 27.7652 34.0504C27.4985 33.0299 27.2035 31.9369 26.8801 30.7714C26.8477 30.6537 26.8473 30.5295 26.8788 30.4116C26.9104 30.2937 26.9728 30.1863 27.0597 30.1005L29.6488 27.5271C29.737 27.4389 29.7759 27.3318 29.7654 27.2058L29.7213 26.7396C29.7129 26.6451 29.7412 26.5632 29.8063 26.4939C30.0394 26.2461 30.1245 25.9784 30.0615 25.6907C29.694 24.0108 29.1753 22.0988 28.5054 19.9548C28.4897 19.9054 28.4632 19.8601 28.4278 19.822C28.3924 19.7839 28.349 19.7539 28.3007 19.7343ZM29.1445 18.4957C29.1474 18.4524 29.1417 18.4089 29.1278 18.3678C29.1139 18.3266 29.092 18.2886 29.0634 18.256C29.0347 18.2233 29 18.1966 28.961 18.1773C28.9221 18.1581 28.8798 18.1467 28.8364 18.1438L28.4844 18.1204C28.4411 18.1176 28.3976 18.1232 28.3565 18.1372C28.3153 18.1511 28.2773 18.173 28.2447 18.2016C28.212 18.2302 28.1852 18.265 28.166 18.3039C28.1468 18.3428 28.1354 18.3852 28.1325 18.4285L28.1121 18.7365C28.1092 18.7798 28.1149 18.8233 28.1288 18.8645C28.1427 18.9056 28.1646 18.9436 28.1932 18.9763C28.2218 19.009 28.2566 19.0357 28.2955 19.0549C28.3345 19.0742 28.3768 19.0856 28.4201 19.0884L28.7721 19.1118C28.8155 19.1147 28.859 19.109 28.9001 19.0951C28.9412 19.0812 28.9792 19.0593 29.0119 19.0307C29.0446 19.0021 29.0713 18.9673 29.0906 18.9283C29.1098 18.8894 29.1212 18.8471 29.1241 18.8037L29.1445 18.4957ZM30.7733 26.3333L30.3135 26.8183C30.295 26.838 30.2806 26.8611 30.2711 26.8863C30.2616 26.9115 30.2572 26.9383 30.258 26.9652C30.2589 26.9921 30.2651 27.0186 30.2762 27.0431C30.2874 27.0677 30.3032 27.0897 30.3229 27.1081L30.3827 27.1648C30.4463 27.2249 30.5179 27.2751 30.5934 27.3126C30.669 27.3502 30.747 27.3744 30.8231 27.3837C30.8992 27.3931 30.9718 27.3875 31.0367 27.3672C31.1017 27.3469 31.1578 27.3124 31.2017 27.2656L31.271 27.1932C31.3592 27.099 31.3932 26.9609 31.3654 26.8092C31.3377 26.6575 31.2505 26.5045 31.123 26.3837L31.0631 26.327C31.0437 26.3083 31.0208 26.2937 30.9957 26.2839C30.9706 26.2742 30.9438 26.2694 30.9169 26.27C30.89 26.2706 30.8635 26.2765 30.8388 26.2873C30.8142 26.2982 30.7919 26.3138 30.7733 26.3333ZM30.5497 28.1444C30.2347 28.2431 29.9617 28.409 29.7307 28.6421L27.992 30.3871C27.9219 30.4581 27.8715 30.5459 27.8455 30.642C27.8196 30.7381 27.819 30.8391 27.844 30.9352L28.8771 34.9229C28.8981 35.009 28.9517 35.0647 29.0378 35.0899L33.1893 36.2238C33.3048 36.2574 33.4056 36.2312 33.4917 36.1451L36.5376 33.1748C36.6174 33.0971 36.6425 33.0047 36.6132 32.8976L35.558 29.0138C35.4761 28.7093 35.2818 28.5172 34.9752 28.4374L32.175 27.7161C32.0742 27.6909 31.9745 27.694 31.8758 27.7255L30.5497 28.1444Z" fill="#AE8C47"/>
<path d="M3.57529 21.259L5.43685 22.3457C5.44667 22.3512 5.45525 22.3586 5.46206 22.3676C5.46886 22.3765 5.47375 22.3868 5.47641 22.3978C5.47907 22.4087 5.47945 22.4201 5.47752 22.4311C5.47559 22.4422 5.4714 22.4528 5.4652 22.4622L5.3644 22.6228C5.35864 22.632 5.35112 22.6399 5.34229 22.6461C5.33346 22.6523 5.32349 22.6567 5.31295 22.659C5.30241 22.6614 5.29151 22.6616 5.28088 22.6597C5.27025 22.6578 5.2601 22.6539 5.25101 22.648L3.38 21.4857C3.36822 21.479 3.35832 21.4694 3.35117 21.4578C3.34402 21.4463 3.33986 21.4332 3.33905 21.4196L3.254 19.2651C3.25336 19.2519 3.25593 19.2387 3.26152 19.2266C3.2671 19.2146 3.27552 19.2041 3.28605 19.196C3.29659 19.188 3.30892 19.1826 3.32199 19.1804C3.33507 19.1781 3.34849 19.1791 3.3611 19.1832L3.62569 19.2588C3.64338 19.2644 3.65863 19.2759 3.66893 19.2914C3.67923 19.3068 3.68398 19.3253 3.68238 19.3438L3.53434 21.1834C3.53349 21.1985 3.53687 21.2136 3.5441 21.227C3.55133 21.2403 3.56213 21.2514 3.57529 21.259Z" fill="#AE8C47"/>
<path d="M27.0382 24.4277C26.1153 22.522 29.3659 22.0622 29.0887 24.0119C29.0047 24.5999 28.6278 24.9516 27.9579 25.0671C27.8466 25.086 27.7637 25.1438 27.7091 25.2404L24.7451 30.3998C24.6926 30.488 24.681 30.5815 24.7104 30.6802C24.8238 31.056 24.8238 31.4288 24.7104 31.7984C24.6789 31.9013 24.6894 31.9989 24.7419 32.0913L26.4712 35.0742C26.5735 35.2514 26.6273 35.4524 26.6273 35.6569C26.6273 35.8615 26.5735 36.0625 26.4712 36.2397L24.2222 40.1203C24.1552 40.2345 24.0594 40.3291 23.9445 40.3949C23.8296 40.4607 23.6994 40.4952 23.567 40.4951H18.8486C18.7156 40.4952 18.5851 40.4607 18.4701 40.3949C18.3551 40.3291 18.2597 40.2344 18.1934 40.1203L15.9601 36.2649C15.8576 36.0876 15.8033 35.8864 15.8027 35.6814C15.8022 35.4764 15.8554 35.2746 15.957 35.0963L18.2406 31.0707C18.2944 30.977 18.3716 30.8991 18.4645 30.8449C18.5574 30.7907 18.6627 30.7621 18.7698 30.7621H22.474C22.5051 30.7621 22.5354 30.7545 22.5622 30.74L23.8568 29.9809C23.966 29.9158 24.0532 29.8276 24.1183 29.7163L27.0256 24.7301C27.0823 24.6314 27.0865 24.5306 27.0382 24.4277ZM28.6225 23.845C28.6225 23.6979 28.5641 23.5569 28.4602 23.453C28.3562 23.349 28.2152 23.2906 28.0682 23.2906C27.9211 23.2906 27.7801 23.349 27.6762 23.453C27.5722 23.5569 27.5138 23.6979 27.5138 23.845C27.5138 23.992 27.5722 24.133 27.6762 24.237C27.7801 24.3409 27.9211 24.3994 28.0682 24.3994C28.2152 24.3994 28.3562 24.3409 28.4602 24.237C28.5641 24.133 28.6225 23.992 28.6225 23.845ZM23.5198 30.7495L23.2048 31.2408C23.189 31.2652 23.1782 31.2925 23.173 31.3211C23.1677 31.3496 23.1682 31.379 23.1744 31.4074C23.1805 31.4357 23.1922 31.4626 23.2088 31.4865C23.2254 31.5104 23.2465 31.5307 23.2709 31.5464L23.4001 31.6283C23.5578 31.7288 23.7346 31.785 23.8917 31.7844C24.0488 31.7838 24.1734 31.7265 24.238 31.6251L24.301 31.5243C24.3331 31.4742 24.3495 31.4147 24.3493 31.3492C24.3492 31.2838 24.3324 31.2136 24.2999 31.1429C24.2674 31.0721 24.2199 31.002 24.1601 30.9367C24.1003 30.8713 24.0294 30.812 23.9513 30.7621L23.8253 30.6802C23.8008 30.6645 23.7733 30.6539 23.7446 30.6489C23.7159 30.6439 23.6865 30.6447 23.6581 30.6511C23.6297 30.6576 23.6028 30.6696 23.5791 30.6864C23.5554 30.7033 23.5352 30.7247 23.5198 30.7495ZM23.293 32.3275C23.2347 32.3231 23.1804 32.2959 23.1418 32.2519L22.7134 31.7574C22.6925 31.7337 22.6668 31.7148 22.6381 31.7017C22.6093 31.6887 22.5781 31.6819 22.5465 31.6818L19.0344 31.6724C18.9947 31.6722 18.9557 31.6827 18.9214 31.7026C18.8871 31.7225 18.8587 31.7512 18.8391 31.7858L16.6752 35.553C16.6549 35.5874 16.6443 35.6265 16.6443 35.6664C16.6443 35.7063 16.6549 35.7454 16.6752 35.7798L18.8297 39.4714C18.8496 39.5054 18.8782 39.5334 18.9125 39.5528C18.9468 39.5721 18.9856 39.5821 19.025 39.5817L23.4064 39.5879C23.4455 39.5875 23.4839 39.5768 23.5176 39.5569C23.5513 39.537 23.5792 39.5086 23.5985 39.4746L25.731 35.7514C25.7501 35.7172 25.7599 35.6784 25.7594 35.6392C25.7588 35.5999 25.7479 35.5615 25.7278 35.5278L23.945 32.4724C23.9267 32.4411 23.9011 32.4148 23.8704 32.3955C23.8397 32.3763 23.8048 32.3649 23.7686 32.3622L23.293 32.3275Z" fill="#AE8C47"/>
<path d="M22.805 26.7997C23.0632 26.0143 23.5851 25.7613 24.3704 26.0405C25.7123 26.5193 24.8366 29.0896 23.0758 27.8864C22.9855 27.8255 22.8868 27.8087 22.7798 27.836C21.1901 28.258 19.6037 28.6749 18.0203 29.0865C15.4123 29.7637 15.4343 31.8835 14.8642 33.9971C14.8173 34.1721 14.7243 34.3317 14.5948 34.4595C14.4653 34.5874 14.304 34.6789 14.1271 34.7247L9.72992 35.8523C9.58791 35.8887 9.43907 35.8874 9.29817 35.8488C9.15728 35.8101 9.02922 35.7353 8.92671 35.6319L5.74221 32.4505C5.48183 32.1901 5.40098 31.8814 5.49967 31.5244C5.83566 30.3149 6.16849 29.0739 6.49818 27.8013C6.68087 27.102 6.70292 26.617 7.53763 26.45C8.88576 26.1791 10.2748 25.7413 11.686 25.3507C11.8261 25.3124 11.9739 25.3115 12.1148 25.3479C12.2556 25.3844 12.3847 25.457 12.4892 25.5586L15.0752 28.0911C15.1634 28.1772 15.2684 28.2139 15.3902 28.2013C15.806 28.1552 16.184 28.2465 16.5241 28.4754C16.6165 28.5363 16.7152 28.5531 16.8202 28.5258L22.6317 26.9635C22.7199 26.9404 22.7777 26.8858 22.805 26.7997ZM14.8736 30.1858C14.6122 29.7227 14.5397 29.6062 14.5996 29.0613C14.6046 29.0139 14.5993 28.966 14.5841 28.9209C14.5688 28.8758 14.5441 28.8345 14.5114 28.7998L12.0608 26.3083C12.0205 26.2671 11.9701 26.2372 11.9148 26.2217C11.8595 26.2062 11.8012 26.2057 11.7458 26.2201L7.65102 27.2784C7.60228 27.2908 7.5577 27.3157 7.52176 27.3505C7.48582 27.3854 7.45979 27.4289 7.44628 27.4769L6.40368 31.2945C6.36447 31.439 6.36421 31.5914 6.40293 31.7364C6.44164 31.8813 6.51796 32.0135 6.62417 32.1198L9.45904 34.9452C9.53673 35.0229 9.62913 35.047 9.73622 35.0176L13.7932 33.8837C13.9024 33.8522 13.9728 33.7818 14.0043 33.6726L14.9083 30.4787C14.9377 30.3758 14.9261 30.2782 14.8736 30.1858ZM24.4649 27.1367C24.4649 26.9913 24.4072 26.8519 24.3044 26.7492C24.2016 26.6464 24.0622 26.5886 23.9168 26.5886C23.8449 26.5886 23.7736 26.6028 23.7071 26.6303C23.6406 26.6579 23.5802 26.6983 23.5293 26.7492C23.4784 26.8 23.438 26.8605 23.4105 26.927C23.3829 26.9935 23.3688 27.0647 23.3688 27.1367C23.3688 27.2087 23.3829 27.2799 23.4105 27.3464C23.438 27.4129 23.4784 27.4734 23.5293 27.5242C23.5802 27.5751 23.6406 27.6155 23.7071 27.6431C23.7736 27.6706 23.8449 27.6848 23.9168 27.6848C24.0622 27.6848 24.2016 27.627 24.3044 27.5242C24.4072 27.4215 24.4649 27.2821 24.4649 27.1367ZM16.1897 29.0357C16.1907 28.9848 16.1714 28.9356 16.1361 28.8988C16.1007 28.8621 16.0523 28.8409 16.0013 28.84L15.4408 28.8292C15.4155 28.8287 15.3905 28.8332 15.367 28.8424C15.3435 28.8516 15.322 28.8653 15.3038 28.8828C15.2857 28.9003 15.2711 28.9212 15.261 28.9444C15.2509 28.9675 15.2454 28.9924 15.245 29.0176L15.2332 29.6285C15.2323 29.6795 15.2516 29.7287 15.2869 29.7655C15.3222 29.8022 15.3707 29.8234 15.4216 29.8243L15.9822 29.8351C16.0074 29.8356 16.0325 29.8311 16.056 29.8219C16.0795 29.8127 16.101 29.799 16.1191 29.7815C16.1373 29.764 16.1519 29.7431 16.162 29.7199C16.1721 29.6968 16.1775 29.6719 16.178 29.6467L16.1897 29.0357Z" fill="#AE8C47"/>
<path d="M35.6532 32.715L35.272 30.9259C35.2342 30.7579 35.2993 30.6938 35.4673 30.7337C35.566 30.7547 35.6227 30.8324 35.6374 30.9668C35.7004 31.5359 35.8211 32.0924 35.9996 32.6362C36.0332 32.7433 36.0112 32.8378 35.9335 32.9197L34.4562 34.4631C34.3659 34.5576 34.2914 34.5461 34.2326 34.4285L34.179 34.3245C34.17 34.3045 34.1676 34.2821 34.1722 34.2606C34.1767 34.2391 34.1879 34.2196 34.2042 34.2049L35.565 32.9859C35.6469 32.9124 35.6763 32.8221 35.6532 32.715Z" fill="#AE8C47"/>
</svg>
