<svg width="172" height="40" viewBox="0 0 172 40" fill="none" xmlns="http://www.w3.org/2000/svg">
<path d="M27.6968 11.5418L10.7191 11.4318C10.6986 11.4319 10.6785 11.4259 10.6614 11.4146C10.6443 11.4032 10.631 11.3871 10.6231 11.3681C10.6153 11.3492 10.6132 11.3283 10.6172 11.3082C10.6213 11.2881 10.6312 11.2697 10.6458 11.2552L22.2286 0.0288938C22.2384 0.0194368 22.25 0.012017 22.2627 0.00706248C22.2754 0.00210798 22.289 -0.000283096 22.3026 2.66722e-05C22.3163 0.00033644 22.3297 0.0033411 22.3422 0.00886752C22.3546 0.0143939 22.3659 0.0223327 22.3752 0.0322262L33.8681 11.6384C33.8777 11.6481 33.8853 11.6595 33.8904 11.6721C33.8956 11.6847 33.8982 11.6981 33.8981 11.7117L33.8815 17.8631C33.8815 17.8766 33.8788 17.8901 33.8736 17.9026C33.8684 17.9151 33.8608 17.9265 33.8512 17.9361C33.8416 17.9457 33.8302 17.9533 33.8177 17.9585C33.8052 17.9637 33.7917 17.9664 33.7782 17.9664L27.8801 17.913C27.8527 17.913 27.8264 17.9022 27.8071 17.8828C27.7877 17.8634 27.7768 17.8371 27.7768 17.8097L27.8001 11.6451C27.8001 11.6177 27.7892 11.5914 27.7699 11.572C27.7505 11.5527 27.7242 11.5418 27.6968 11.5418Z" fill="#89CB94"/>
<path d="M105.273 21.1153H96.4122C96.3851 21.1153 96.3582 21.1207 96.3332 21.1311C96.3081 21.1414 96.2853 21.1567 96.2662 21.1758C96.247 21.195 96.2318 21.2178 96.2214 21.2429C96.211 21.2679 96.2056 21.2948 96.2056 21.3219L96.229 29.9891C96.229 30.0439 96.2072 30.0964 96.1685 30.1352C96.1297 30.1739 96.0772 30.1957 96.0224 30.1957L92.1636 30.2024C92.1088 30.2024 92.0563 30.1806 92.0175 30.1418C91.9788 30.1031 91.957 30.0506 91.957 29.9958L91.9604 9.25256C91.9604 9.19776 91.9821 9.14521 92.0209 9.10647C92.0596 9.06772 92.1122 9.04596 92.167 9.04596L96.009 9.0293C96.0362 9.0293 96.063 9.03464 96.0881 9.04502C96.1132 9.0554 96.1359 9.07062 96.1551 9.08981C96.1743 9.10899 96.1895 9.13177 96.1999 9.15683C96.2103 9.1819 96.2156 9.20876 96.2156 9.2359V17.3299C96.2156 17.3847 96.2374 17.4373 96.2762 17.476C96.3149 17.5147 96.3674 17.5365 96.4222 17.5365L105.276 17.5498C105.331 17.5498 105.383 17.5281 105.422 17.4893C105.461 17.4506 105.483 17.398 105.483 17.3432L105.456 9.25256C105.456 9.19776 105.478 9.14521 105.516 9.10647C105.555 9.06772 105.608 9.04596 105.663 9.04596L109.521 9.0293C109.548 9.0293 109.575 9.03464 109.6 9.04502C109.625 9.0554 109.648 9.07062 109.667 9.08981C109.687 9.10899 109.702 9.13177 109.712 9.15683C109.723 9.1819 109.728 9.20876 109.728 9.2359L109.731 29.9924C109.731 30.0472 109.709 30.0998 109.671 30.1385C109.632 30.1773 109.579 30.199 109.525 30.199H105.669C105.614 30.199 105.562 30.1773 105.523 30.1385C105.484 30.0998 105.463 30.0472 105.463 29.9924L105.479 21.3219C105.479 21.2948 105.474 21.2679 105.464 21.2429C105.453 21.2178 105.438 21.195 105.419 21.1758C105.4 21.1567 105.377 21.1414 105.352 21.1311C105.327 21.1207 105.3 21.1153 105.273 21.1153Z" fill="#0A4C86"/>
<path d="M78.628 17.5565C80.4274 15.666 82.5101 15.0784 84.876 15.7937C87.0619 16.4535 88.3815 17.8764 88.3815 20.2023C88.3837 23.69 88.3826 27.1766 88.3782 30.6622C88.3759 30.7888 88.3126 30.8521 88.1882 30.8521L85.829 30.8354C85.7157 30.8332 85.6602 30.7755 85.6624 30.6622C85.709 27.3388 85.7135 24.0199 85.6757 20.7054C85.6291 16.3868 78.4514 17.05 78.4514 20.7021C78.4536 24.0255 78.4536 27.3477 78.4514 30.6688C78.4514 30.791 78.3903 30.8521 78.2681 30.8521L75.9356 30.8388C75.8223 30.8388 75.7656 30.7821 75.7656 30.6688V9.30583C75.7656 9.18365 75.8267 9.12256 75.9489 9.12256H78.1748C78.317 9.12256 78.3881 9.19254 78.3881 9.33249L78.3848 17.4598C78.3843 17.4882 78.3925 17.5161 78.4083 17.5397C78.424 17.5634 78.4466 17.5816 78.473 17.5921C78.4994 17.6026 78.5284 17.6048 78.5561 17.5984C78.5838 17.5921 78.6089 17.5774 78.628 17.5565Z" fill="#0A4C86"/>
<path d="M40.1465 17.6997H38.1571C37.9994 17.6997 37.9217 17.6219 37.9239 17.4664L37.9339 16.0003C37.9339 15.9349 37.9599 15.8721 38.0061 15.8259C38.0523 15.7797 38.1151 15.7537 38.1805 15.7537H40.2098C40.2879 15.7535 40.3634 15.7247 40.4222 15.6726C40.481 15.6205 40.5192 15.5487 40.5297 15.4704L41.0795 11.5451C41.0973 11.4118 41.1728 11.3451 41.3061 11.3451L42.9489 11.3318C43.0666 11.3318 43.1255 11.3918 43.1255 11.5117L43.1088 15.4438C43.1088 15.5162 43.1376 15.5857 43.1889 15.637C43.2401 15.6882 43.3096 15.717 43.3821 15.717L46.2745 15.7037C46.4211 15.7015 46.4955 15.7737 46.4977 15.9203L46.5277 17.5131C46.5282 17.5392 46.5234 17.5651 46.5137 17.5894C46.504 17.6136 46.4896 17.6357 46.4713 17.6543C46.453 17.6729 46.4312 17.6877 46.4071 17.6978C46.3831 17.7078 46.3572 17.713 46.3311 17.713L43.4621 17.6897C43.2332 17.6875 43.1188 17.8008 43.1188 18.0296C43.1166 21.1464 43.1022 24.2598 43.0755 27.3699C43.0589 29.3892 45.1682 28.7827 46.4444 28.9027C46.4989 28.9069 46.5498 28.9316 46.5869 28.9717C46.624 29.0119 46.6445 29.0646 46.6443 29.1193L46.631 30.4455C46.6288 30.581 46.5622 30.6643 46.4311 30.6954C43.752 31.3719 40.3064 31.0087 40.3964 27.3665C40.4408 25.6404 40.4386 22.497 40.3897 17.9363C40.3889 17.8732 40.3628 17.8131 40.3173 17.7688C40.2718 17.7245 40.2104 17.6997 40.1465 17.6997Z" fill="#0A4C86"/>
<path d="M126.155 23.8528C126.152 24.7166 125.979 25.5714 125.646 26.3683C125.312 27.1652 124.825 27.8886 124.212 28.4973C123.599 29.106 122.872 29.588 122.073 29.9157C121.274 30.2435 120.418 30.4107 119.554 30.4077L118.315 30.4033C116.57 30.3972 114.899 29.6984 113.67 28.4605C112.441 27.2226 111.754 25.5471 111.76 23.8025L111.768 21.4433C111.771 20.5795 111.944 19.7248 112.278 18.9278C112.611 18.1309 113.098 17.4075 113.711 16.7988C114.324 16.1902 115.051 15.7082 115.85 15.3804C116.649 15.0526 117.505 14.8855 118.369 14.8885L119.608 14.8928C121.353 14.8989 123.024 15.5978 124.253 16.8356C125.482 18.0735 126.169 19.749 126.163 21.4936L126.155 23.8528ZM116.342 19.6857C115.669 21.4518 115.614 23.2645 116.176 25.1239C117.019 27.9163 120.674 28.1563 121.627 25.2939C122.25 23.4078 122.47 19.6757 120.551 18.3861C119.115 17.4198 116.992 17.9829 116.342 19.6857Z" fill="#0A4C86"/>
<path d="M148.188 17.8064C146.645 18.1929 146.172 19.969 147.948 20.4289C149.82 20.9187 152.43 21.3086 153.826 22.2116C155.932 23.5745 156.435 27.0267 154.539 28.8161C152.17 31.0421 147.671 30.8821 145.049 29.3526C143.74 28.5906 142.943 27.3433 142.656 25.6105C142.638 25.5017 142.684 25.4472 142.793 25.4472L146.098 25.4272C146.207 25.4272 146.278 25.4783 146.312 25.5805C147.068 27.8531 150.047 28.0497 151.753 26.8934C151.85 26.8286 151.923 26.7336 151.96 26.6235C152.446 25.184 151.417 24.7241 150.19 24.4775C147.135 23.8577 143.316 23.3446 143.113 19.8424C142.733 13.1646 155.489 13.0679 155.499 19.3092C155.499 19.3552 155.48 19.3993 155.448 19.4318C155.415 19.4643 155.371 19.4825 155.325 19.4825L152.35 19.4525C152.223 19.4525 152.13 19.397 152.07 19.2859C151.274 17.853 149.98 17.3599 148.188 17.8064Z" fill="#0A4C86"/>
<path d="M160.763 23.8511C160.663 27.6066 165.332 28.8528 167.021 25.5572C167.077 25.4462 167.167 25.3917 167.291 25.394L170.667 25.4006C170.8 25.4028 170.854 25.4684 170.83 25.5972C170.027 29.9058 164.832 31.302 161.22 29.9825C158.032 28.8184 156.481 26.2781 156.568 22.3616C156.648 18.6528 158.81 15.3772 162.679 14.9041C168.417 14.1976 171.28 18.123 170.843 23.4779C170.834 23.5801 170.779 23.6312 170.677 23.6312L161.013 23.6112C160.948 23.6112 160.885 23.6362 160.839 23.681C160.792 23.7258 160.765 23.7869 160.763 23.8511ZM160.993 21.0887L166.698 21.062C166.727 21.0616 166.756 21.0554 166.783 21.0438C166.81 21.0322 166.834 21.0153 166.855 20.9943C166.875 20.9733 166.891 20.9484 166.902 20.9212C166.913 20.8939 166.918 20.8648 166.918 20.8355V20.7921C166.916 20.3913 166.834 19.9948 166.679 19.6253C166.523 19.2558 166.296 18.9206 166.01 18.6387C165.725 18.3568 165.386 18.1338 165.014 17.9824C164.642 17.831 164.244 17.7543 163.842 17.7565H163.809C163.407 17.7587 163.01 17.8398 162.639 17.9952C162.269 18.1506 161.933 18.3773 161.651 18.6623C161.368 18.9472 161.145 19.285 160.993 19.6561C160.841 20.0273 160.764 20.4246 160.767 20.8255V20.8688C160.767 20.8981 160.773 20.927 160.785 20.954C160.796 20.9809 160.813 21.0053 160.834 21.0257C160.855 21.0461 160.88 21.0622 160.907 21.073C160.935 21.0838 160.964 21.0891 160.993 21.0887Z" fill="#0A4C86"/>
<path d="M137.595 27.7431C136.753 29.6846 135.231 30.6121 133.029 30.5255C130.434 30.4189 127.591 28.7227 127.548 25.867C127.492 22.3282 127.46 18.8115 127.451 15.3171C127.451 15.2856 127.457 15.2544 127.469 15.2253C127.481 15.1962 127.498 15.1698 127.52 15.1475C127.542 15.1252 127.569 15.1075 127.597 15.0955C127.626 15.0834 127.657 15.0772 127.688 15.0772H131.54C131.585 15.0772 131.628 15.0951 131.66 15.127C131.692 15.1589 131.71 15.2021 131.71 15.2472C131.73 17.9685 131.73 20.6976 131.71 23.4345C131.699 24.7718 131.796 25.6615 132.003 26.1036C132.816 27.8464 136.082 27.863 136.928 26.0303C137.108 25.6415 137.197 24.9107 137.195 23.8377C137.186 20.9631 137.184 18.0918 137.188 15.2238C137.188 15.1805 137.206 15.139 137.237 15.1084C137.268 15.0777 137.31 15.0605 137.355 15.0605L141.187 15.0839C141.238 15.0847 141.287 15.1058 141.324 15.1426C141.36 15.1794 141.38 15.2289 141.38 15.2805L141.39 30.059C141.39 30.15 141.344 30.1956 141.253 30.1956L138.338 30.2023C138.209 30.2023 138.135 30.1378 138.118 30.009L137.841 27.7764C137.837 27.7488 137.824 27.7234 137.804 27.7039C137.784 27.6844 137.758 27.6719 137.73 27.6681C137.703 27.6644 137.674 27.6697 137.65 27.6832C137.626 27.6967 137.606 27.7177 137.595 27.7431Z" fill="#0A4C86"/>
<path d="M50.1312 24.1076C49.9179 27.4832 52.697 29.8824 56.0659 28.7928C57.0833 28.4618 57.8098 27.7387 58.2452 26.6235C58.2896 26.5124 58.3707 26.4558 58.4884 26.4535L60.5611 26.4169C60.5927 26.4162 60.6241 26.4227 60.6528 26.4358C60.6816 26.449 60.7071 26.4684 60.7272 26.4928C60.7474 26.5171 60.7618 26.5457 60.7694 26.5765C60.777 26.6072 60.7775 26.6392 60.771 26.6701C59.7813 31.2486 53.62 32.275 50.2711 29.8691C45.8992 26.7335 46.4057 17.9097 51.7406 15.8903C53.8833 15.0806 56.6624 15.3072 58.4984 16.8C60.4245 18.3662 61.0776 21.2186 60.921 23.6578C60.9159 23.7321 60.8824 23.8017 60.8273 23.8524C60.7723 23.9032 60.6997 23.9313 60.6244 23.931L50.3411 23.911C50.2877 23.9109 50.2362 23.9312 50.1972 23.9677C50.1582 24.0043 50.1346 24.0543 50.1312 24.1076ZM50.4044 22.115L58.0819 22.1016C58.1482 22.1016 58.2118 22.0753 58.2586 22.0284C58.3055 21.9816 58.3318 21.918 58.3318 21.8517V21.6951C58.3299 20.5728 57.9121 19.4972 57.1704 18.7048C56.4286 17.9124 55.4236 17.4682 54.3765 17.4698H54.0965C53.5779 17.4706 53.0646 17.5809 52.5858 17.7943C52.107 18.0078 51.6722 18.3202 51.3062 18.7138C50.9401 19.1074 50.65 19.5745 50.4524 20.0883C50.2548 20.6021 50.1536 21.1526 50.1545 21.7084V21.865C50.1545 21.9313 50.1808 21.9949 50.2277 22.0418C50.2746 22.0886 50.3381 22.115 50.4044 22.115Z" fill="#0A4C86"/>
<path d="M67.8773 17.6265C63.7387 17.9964 63.4754 23.3013 64.4751 26.2837C65.0249 27.9165 66.2245 28.8762 67.954 29.0461C69.9 29.2394 71.2695 28.343 72.0626 26.357C72.107 26.2459 72.1881 26.1904 72.3059 26.1904L74.1286 26.1837C74.1529 26.1837 74.1771 26.1886 74.1994 26.1981C74.2218 26.2077 74.2419 26.2216 74.2584 26.2392C74.275 26.2567 74.2877 26.2774 74.2958 26.3C74.3038 26.3225 74.307 26.3465 74.3052 26.3703C74.2497 27.099 74.0264 27.7654 73.6354 28.3697C71.0696 32.335 64.8783 31.9418 62.5357 28.0098C61.9048 26.9523 61.5372 25.6472 61.4328 24.0944C61.1962 20.5589 62.5257 16.7468 66.1379 15.7371C69.77 14.7208 73.7354 16.2936 74.3419 20.3056C74.3457 20.3319 74.3439 20.3586 74.3366 20.3841C74.3293 20.4095 74.3167 20.4331 74.2996 20.453C74.2825 20.473 74.2613 20.4889 74.2375 20.4997C74.2138 20.5105 74.188 20.5159 74.1619 20.5156L72.2459 20.4956C72.117 20.4933 72.0326 20.4311 71.9926 20.309C71.3262 18.334 69.9544 17.4399 67.8773 17.6265Z" fill="#0A4C86"/>
<path d="M2.03305 19.889L5.93177 16.0136C5.95296 15.9923 5.98172 15.9804 6.01174 15.9803L10.8502 15.9636C10.8802 15.9636 10.909 15.9756 10.9303 15.9968C10.9515 16.0181 10.9635 16.0469 10.9635 16.0769L10.9501 28.5862C10.9501 28.6085 10.9434 28.6304 10.9309 28.649C10.9185 28.6675 10.9008 28.682 10.8801 28.6906C10.8595 28.6991 10.8367 28.7014 10.8148 28.697C10.7929 28.6927 10.7727 28.6819 10.7569 28.6661L2.03305 20.049C2.01188 20.0277 2 19.999 2 19.969C2 19.939 2.01188 19.9102 2.03305 19.889Z" fill="#89CB94"/>
<path d="M27.7237 29.7291V22.4748C27.7237 22.4413 27.7371 22.4091 27.7608 22.3853C27.7846 22.3616 27.8168 22.3482 27.8504 22.3482L33.7551 22.3616C33.7887 22.3616 33.8209 22.3749 33.8446 22.3986C33.8684 22.4224 33.8817 22.4546 33.8817 22.4882L33.895 28.2496C33.8952 28.2663 33.892 28.2828 33.8857 28.2983C33.8794 28.3137 33.8701 28.3277 33.8584 28.3396L22.3322 39.9625C22.3204 39.9743 22.3064 39.9838 22.2909 39.9902C22.2755 39.9967 22.2589 40 22.2422 40C22.2255 40 22.2089 39.9967 22.1935 39.9902C22.178 39.9838 22.164 39.9743 22.1522 39.9625L12.2621 30.0724C12.2443 30.0546 12.232 30.032 12.2271 30.0073C12.2221 29.9827 12.2246 29.9571 12.2343 29.9338C12.244 29.9106 12.2603 29.8907 12.2813 29.8768C12.3023 29.8629 12.3269 29.8556 12.3521 29.8558L16.5974 29.8591C16.631 29.8591 16.6632 29.8458 16.6869 29.822C16.7107 29.7983 16.724 29.7661 16.724 29.7325V16.2336C16.724 16.2169 16.7273 16.2005 16.7336 16.1851C16.74 16.1697 16.7493 16.1558 16.7611 16.144C16.7729 16.1323 16.7868 16.1229 16.8022 16.1166C16.8175 16.1102 16.834 16.1069 16.8506 16.1069L22.1522 16.1569C22.1689 16.1569 22.1853 16.1602 22.2007 16.1666C22.216 16.1729 22.23 16.1822 22.2418 16.194C22.2535 16.2058 22.2628 16.2197 22.2692 16.2351C22.2756 16.2504 22.2788 16.2669 22.2788 16.2835L22.2755 29.7291C22.2755 29.7627 22.2889 29.7949 22.3126 29.8187C22.3364 29.8424 22.3686 29.8558 22.4021 29.8558H27.5971C27.6307 29.8558 27.6629 29.8424 27.6866 29.8187C27.7104 29.7949 27.7237 29.7627 27.7237 29.7291Z" fill="#89CB94"/>
</svg>
