<svg width="53" height="40" viewBox="0 0 53 40" fill="none" xmlns="http://www.w3.org/2000/svg">
<g clip-path="url(#clip0_2988_10367)">
<path d="M39.861 0H40.3106C40.7816 0.0311606 41.2478 0.102703 41.7093 0.214626C41.8581 0.250662 42.0834 0.287758 42.3853 0.325914C42.4881 0.338845 42.5749 0.361208 42.6457 0.393005C43.2403 0.660731 43.6145 1.02162 43.7525 1.68458C43.7684 1.76121 43.7878 1.83561 43.7103 1.88362C43.6766 1.9044 43.6454 1.91383 43.6168 1.91192C43.3355 1.89454 43.0858 1.92008 42.8677 1.98855C42.7759 2.01738 42.7775 2.02417 42.8724 2.0089C43.1563 1.96333 43.4377 1.97319 43.7166 2.03847C43.7263 2.04074 43.7351 2.04585 43.7419 2.05315C43.7487 2.06046 43.7532 2.06962 43.7548 2.07949C43.7796 2.23561 43.7157 2.36789 43.5697 2.44165C43.378 2.53831 43.1421 2.58665 42.9325 2.62957C42.3621 2.74595 41.7869 2.69793 41.2794 3.0655C41.2126 3.11383 41.0992 3.21092 40.9392 3.35676C40.6037 3.66296 40.3723 3.97615 40.2432 4.41208C40.2298 4.45745 40.1858 4.66476 40.1112 5.03402C40.0071 5.54913 39.9036 6.06243 39.8006 6.57393C39.8001 6.57624 39.799 6.57837 39.7973 6.58C39.7956 6.58163 39.7934 6.58268 39.7911 6.58299C39.7888 6.58331 39.7864 6.58288 39.7843 6.58177C39.7823 6.58065 39.7806 6.57891 39.7796 6.57679L39.1745 5.36693C39.1658 5.34934 39.1646 5.33121 39.171 5.31256C39.3643 4.76184 39.5813 4.21706 39.8219 3.67822C39.9247 3.44801 40.0244 3.26614 40.1211 3.13259C40.5662 2.51701 41.2438 2.06137 41.9618 1.81176C41.9649 1.81074 41.9677 1.80875 41.9697 1.80608C41.9718 1.80341 41.9729 1.80018 41.973 1.79684C41.9731 1.7935 41.9722 1.7902 41.9703 1.78741C41.9685 1.78462 41.9658 1.78246 41.9627 1.78124C41.2895 1.4991 40.6404 1.50599 40.0155 1.80191C39.4591 2.06518 39.0276 2.52814 38.7796 3.09126C38.5271 3.66487 38.7977 4.52242 38.9856 5.08267C39.0424 5.25119 39.1255 5.44589 39.2349 5.66677C39.4782 6.15771 39.7216 6.64865 39.9649 7.13959C39.97 7.14997 39.9732 7.15824 39.9745 7.16439C39.9752 7.16804 39.9748 7.17183 39.9733 7.17522C39.9718 7.17862 39.9692 7.18147 39.966 7.18338C39.9628 7.18529 39.959 7.18617 39.9552 7.1859C39.9515 7.18563 39.9479 7.18423 39.9449 7.18188C39.4018 6.74796 38.8614 6.31712 38.3236 5.88935C38.2626 5.8407 38.2387 5.73641 38.2177 5.65087C38.0948 5.14997 38.0242 4.64144 38.006 4.12528C37.9903 3.67928 38.0643 3.22385 38.2279 2.75898C38.3801 2.32676 38.4979 2.00413 38.5812 1.7911C38.6081 1.72242 38.6195 1.66116 38.6155 1.60731C38.6053 1.47504 38.5586 1.3682 38.4753 1.2868C38.3427 1.15739 38.2285 1.02735 38.1262 0.871542C38.1241 0.868323 38.1228 0.864652 38.1224 0.860834C38.122 0.857016 38.1225 0.853161 38.1239 0.849588C38.1253 0.846014 38.1276 0.842825 38.1304 0.840284C38.1333 0.837743 38.1367 0.835924 38.1405 0.834976C38.437 0.758029 38.7283 0.667409 39.0142 0.563116C39.0492 0.550397 39.0966 0.517647 39.1274 0.486804C39.2502 0.366296 39.3761 0.247377 39.494 0.122417C39.6012 0.00890302 39.7265 0.018442 39.861 0ZM41.1897 0.810493C41.197 0.824625 41.1986 0.840973 41.1943 0.856327C41.19 0.871682 41.1801 0.884934 41.1665 0.893482C40.8661 1.08235 40.5481 0.819078 40.3694 0.569475C40.3616 0.558665 40.3533 0.551669 40.3446 0.54849C40.3325 0.544038 40.3211 0.543296 40.3103 0.546264C40.308 0.546891 40.3059 0.547994 40.3042 0.549496C40.3024 0.550998 40.301 0.552862 40.3 0.554955C40.299 0.557048 40.2985 0.55932 40.2985 0.56161C40.2986 0.563899 40.2991 0.56615 40.3001 0.568204C40.4317 0.83434 40.6788 1.08808 40.9786 1.11288C41.156 1.1275 41.5627 0.966614 41.501 0.714785C41.4622 0.557075 41.2289 0.463911 41.0848 0.436566C41.0736 0.434446 41.0643 0.437732 41.0568 0.446423L40.8215 0.728458C40.8199 0.730533 40.8188 0.733079 40.8186 0.735748C40.8184 0.738416 40.819 0.741079 40.8203 0.743372C40.8216 0.745666 40.8236 0.747479 40.826 0.748566C40.8284 0.749652 40.831 0.749959 40.8336 0.749444C40.9096 0.736089 41.1475 0.726232 41.1897 0.810493Z" fill="#C08A4C"/>
<path d="M26.1567 1.9752C26.0899 1.94977 26.0629 1.97711 26.0057 2.00064C25.6934 2.12974 25.3646 2.41368 25.6864 2.75517C25.7748 2.84908 25.8771 2.92921 25.9933 2.99555C25.9952 2.99671 25.9967 2.99848 25.9976 3.00058C25.9984 3.00268 25.9986 3.005 25.998 3.00716C25.9974 3.00932 25.9961 3.01119 25.9943 3.01249C25.9926 3.01379 25.9904 3.01443 25.9882 3.01431C25.776 3.00965 25.5615 2.99259 25.3446 2.96312C25.2829 2.95486 25.2234 2.93927 25.1659 2.91638C25.1559 2.91257 25.1487 2.90589 25.1443 2.89635C24.9293 2.43498 24.8836 1.72115 25.4015 1.43625C25.7625 1.23784 26.1469 1.20011 26.5548 1.32306C27.2953 1.54627 27.3449 2.25692 27.088 2.87218C27.0731 2.9078 27.046 2.9291 27.0104 2.93578C26.7633 2.9839 26.5035 3.01029 26.2311 3.01495C26.2192 3.01495 26.2178 3.01124 26.227 3.00382C26.2649 2.97203 26.3053 2.94224 26.3481 2.91447C26.9084 2.54786 26.6333 2.1574 26.1567 1.9752Z" fill="#C08A4C"/>
<path d="M34.5526 7.99682C34.4587 8.63614 34.1047 9.0532 33.4906 9.24801C33.3705 9.28616 33.2485 9.32326 33.1247 9.3593C33.1195 9.36078 33.1147 9.36351 33.1107 9.36727C33.1067 9.37103 33.1037 9.37571 33.1018 9.38092C32.8887 9.98526 32.56 10.5181 32.1154 10.9793C32.1072 10.988 32.1002 10.9871 32.0945 10.9765L31.8786 10.559C31.8761 10.5543 31.8753 10.5489 31.8763 10.5437C31.8773 10.5385 31.88 10.5338 31.884 10.5304C32.2316 10.2279 32.5098 9.87143 32.7186 9.46104C32.7254 9.4479 32.7215 9.44228 32.7069 9.44419C31.9568 9.55071 30.9727 9.43847 30.7571 8.55008C30.6931 8.28595 30.6936 8.03635 30.7587 7.80127C30.8401 7.50683 31.1399 7.324 31.4216 7.25405C31.8309 7.1523 32.3539 7.36407 32.663 7.62066C33.0188 7.91573 33.2296 8.35516 33.2719 8.81494C33.274 8.83974 33.2858 8.84578 33.3072 8.83306C33.8331 8.51955 34.1024 8.08426 33.9533 7.45596C33.9499 7.44154 33.9303 7.41812 33.8945 7.38569C31.8112 5.50291 29.7323 3.61515 27.6579 1.72241C27.5708 1.64292 27.4886 1.5559 27.4115 1.46136C27.4053 1.45372 27.4011 1.44461 27.3993 1.43491C27.3976 1.42521 27.3984 1.41524 27.4016 1.40594C27.4047 1.39664 27.4102 1.38832 27.4175 1.38177C27.4248 1.37522 27.4337 1.37066 27.4433 1.36852C27.6134 1.32972 28.028 1.50015 28.1953 1.57806C28.7199 1.82246 29.2075 2.12496 29.6582 2.48553C29.7689 2.57392 29.9283 2.7133 30.1364 2.90365C32.2859 4.86804 34.4366 6.83116 36.5886 8.793C36.7705 8.95855 36.9532 9.12315 37.1367 9.2868C37.3784 9.50238 37.7418 9.63942 37.9208 9.255C37.9611 9.16873 38.0127 9.02501 38.0757 8.82384C38.3266 8.02003 38.5336 7.2 38.7841 6.40222C38.785 6.39957 38.7864 6.39717 38.7884 6.39521C38.7904 6.39325 38.7928 6.39181 38.7955 6.39099C38.7981 6.39018 38.8009 6.39003 38.8037 6.39054C38.8064 6.39106 38.809 6.39223 38.8112 6.39395L39.6709 7.07726C39.6765 7.08169 39.6807 7.08759 39.6831 7.09432C39.6855 7.10106 39.686 7.10836 39.6846 7.11542C39.6051 7.4851 39.4997 7.85098 39.3682 8.21303C39.0261 9.15442 38.7853 9.78654 38.6458 10.1094C38.3857 10.7113 37.7466 10.6626 37.2668 10.3895C37.1625 10.3301 37.0103 10.2091 36.8102 10.0264C36.0647 9.34594 35.3171 8.66762 34.5676 7.99141C34.5593 7.98399 34.5543 7.98579 34.5526 7.99682ZM32.0258 8.12972C31.7189 8.30397 31.7933 8.75103 32.0662 8.9081C32.2911 9.03762 32.5497 9.08553 32.842 9.05182C32.8511 9.05076 32.8568 9.04589 32.8592 9.0372C32.9495 8.71446 32.7921 8.39236 32.5275 8.21049C32.367 8.10015 32.2016 8.02988 32.0258 8.12972Z" fill="#C08A4C"/>
<path d="M27.9494 8.21843C26.353 6.6426 24.753 5.07047 23.1494 3.50205C22.8811 3.23942 22.8315 3.08997 23.1532 2.85341C23.5174 2.58589 23.8868 2.32633 24.2613 2.07471C24.2917 2.05436 24.3175 2.05129 24.3389 2.06549C24.3478 2.07153 24.3542 2.08063 24.3569 2.09106C24.3595 2.1015 24.3582 2.11254 24.3532 2.12209C24.1822 2.44927 23.9914 2.9914 24.1555 3.34848C24.2375 3.52717 24.4543 3.70969 24.6092 3.86422C25.9586 5.20921 27.3116 6.5507 28.668 7.8887C28.7581 7.97752 28.823 8.05987 28.8626 8.13576C29.226 8.82988 28.8575 9.3418 28.1205 9.41811C28.1183 9.4184 28.116 9.418 28.1141 9.41698C28.1121 9.41596 28.1105 9.41436 28.1094 9.41238C28.1084 9.4104 28.1079 9.40813 28.1081 9.40587C28.1084 9.40361 28.1092 9.40145 28.1106 9.39967C28.4381 8.98091 28.2931 8.5577 27.9494 8.21843Z" fill="#C08A4C"/>
<path d="M39.4238 3.31191C39.5538 3.33481 39.75 3.04609 39.8247 2.9488C39.827 2.94595 39.83 2.94385 39.8334 2.94277C39.8369 2.94169 39.8406 2.94169 39.844 2.94276C39.8475 2.94383 39.8505 2.94592 39.8528 2.94876C39.855 2.9516 39.8563 2.95505 39.8565 2.95865C39.8648 3.12558 39.6483 3.45277 39.5405 3.59426C39.4378 3.7294 39.2295 3.80571 39.1109 3.65118C38.9713 3.4693 39.2266 3.08107 39.3503 2.94403C39.5318 2.74307 39.7822 2.55685 40.1017 2.38536C40.1383 2.36597 40.1793 2.35897 40.1996 2.40126C40.2044 2.41115 40.2052 2.42254 40.2017 2.43302C40.1983 2.44351 40.1909 2.4523 40.1812 2.45754C40.0436 2.53152 39.9118 2.60847 39.7856 2.68838C39.6276 2.78886 39.3195 3.08552 39.3964 3.28902C39.3987 3.29492 39.4023 3.30013 39.4071 3.30415C39.4119 3.30816 39.4177 3.31084 39.4238 3.31191Z" fill="#C08A4C"/>
<path d="M30.8439 7.48012C30.6452 7.67916 30.6045 7.98473 30.62 8.25341C30.6211 8.27185 30.6151 8.2745 30.6019 8.26136L25.9444 3.60222C25.9304 3.58823 25.933 3.57922 25.9523 3.57519L27.3679 3.27471C27.3806 3.27196 27.3845 3.27673 27.3797 3.28902C27.2925 3.50969 27.2229 3.74308 27.3421 3.96056C27.3686 4.00932 27.4592 4.11054 27.6137 4.26422C28.6848 5.32834 29.7614 6.38791 30.8436 7.44292C30.8485 7.44782 30.8513 7.45448 30.8514 7.46145C30.8515 7.46842 30.8488 7.47513 30.8439 7.48012Z" fill="#C08A4C"/>
<path d="M21.1141 4.09888L22.3049 3.54593C22.3075 3.54467 22.3104 3.54399 22.3133 3.54392C22.3162 3.54385 22.3192 3.5444 22.3219 3.54554C22.3247 3.54667 22.3272 3.54836 22.3293 3.55051C22.3314 3.55266 22.333 3.55521 22.3341 3.55802C22.3356 3.56183 22.3363 3.56724 22.3363 3.57423C22.3361 3.57911 22.3348 3.5842 22.3325 3.5895C22.2301 3.81875 22.1904 4.07217 22.2956 4.29951C22.3289 4.37137 22.4024 4.4656 22.516 4.58218C22.9192 4.99638 23.3231 5.40974 23.7277 5.82225C23.7295 5.82406 23.7309 5.82622 23.7318 5.82859C23.7327 5.83096 23.7331 5.8335 23.733 5.83604C23.7329 5.83857 23.7323 5.84106 23.7311 5.84334C23.73 5.84562 23.7284 5.84764 23.7265 5.84927L23.1656 6.32018C23.1613 6.32374 23.1558 6.32558 23.1502 6.32535C23.1447 6.32511 23.1394 6.32282 23.1354 6.31891L21.0839 4.27026C21.0718 4.25819 21.0628 4.24338 21.0577 4.22709C21.0525 4.21081 21.0514 4.19352 21.0543 4.1767C21.0573 4.15988 21.0643 4.14403 21.0747 4.13048C21.0851 4.11693 21.0986 4.10609 21.1141 4.09888Z" fill="#C08A4C"/>
<path d="M29.3033 4.46994C29.1723 4.57837 29.5049 5.05373 29.5755 5.13767C29.6311 5.20359 29.6235 5.21175 29.553 5.16215C29.2569 4.9542 28.841 4.59776 28.7081 4.25691C28.5479 3.84609 28.8709 3.66008 29.2413 3.76279C29.553 3.84896 29.856 4.06263 30.083 4.28966C30.568 4.77508 30.8741 5.3594 31.0013 6.0426C31.0016 6.04409 31.0014 6.04564 31.0007 6.04698C30.9999 6.04832 30.9987 6.04935 30.9973 6.04989C30.9959 6.05043 30.9943 6.05044 30.9929 6.04992C30.9915 6.0494 30.9903 6.04838 30.9895 6.04705C30.8079 5.74095 30.6153 5.44037 30.4118 5.1453C30.2251 4.87471 29.6636 4.17169 29.3033 4.46994Z" fill="#C08A4C"/>
<path d="M21.2861 5.00986C21.2072 4.93292 21.0428 4.82322 20.9166 4.83912C20.9112 4.83981 20.9061 4.84171 20.9015 4.84468C20.8969 4.84765 20.8931 4.85162 20.8902 4.85629C20.8005 5.00414 20.9347 5.20191 21.0291 5.31161C21.1665 5.47165 21.2915 5.64484 21.404 5.83117C21.4056 5.83362 21.4062 5.83654 21.4057 5.8394C21.4053 5.84227 21.4039 5.84488 21.4017 5.84677C21.3995 5.84865 21.3967 5.84969 21.3938 5.84969C21.3909 5.84968 21.3881 5.84864 21.3859 5.84675C21.3829 5.8442 21.3781 5.84039 21.3713 5.8353C21.3662 5.8317 21.3619 5.82725 21.3585 5.82195C21.2608 5.66445 21.145 5.52263 21.011 5.39651C21.0068 5.39248 20.9351 5.33663 20.7961 5.22894C20.6069 5.08204 20.2584 4.69031 20.5643 4.46423C20.7744 4.30939 21.0495 4.55676 21.1754 4.71988C21.3831 4.9893 21.5405 5.28692 21.6476 5.61273C21.6512 5.62375 21.6473 5.63032 21.6358 5.63244C21.6176 5.63583 21.6034 5.62756 21.5932 5.60764C21.5137 5.45088 21.4158 5.13673 21.2861 5.00986Z" fill="#C08A4C"/>
<path d="M36.6479 6.86328C37.1309 6.14023 37.5319 5.34913 37.8238 4.52052C37.8242 4.51931 37.8249 4.51823 37.8258 4.51736C37.8267 4.51649 37.8279 4.51587 37.8291 4.51556C37.8303 4.51524 37.8316 4.51524 37.8328 4.51555C37.8341 4.51586 37.8352 4.51647 37.8362 4.51734C37.8535 4.53387 37.8631 4.55539 37.8648 4.58188C37.8919 5.0035 37.9748 5.41379 38.1134 5.81273C38.1252 5.84707 38.1579 5.90048 38.1916 5.92878C38.3048 6.02375 38.4215 6.13292 38.5417 6.25629C38.5742 6.28936 38.5727 6.32083 38.5373 6.35072C38.5046 6.37828 38.4578 6.40647 38.3967 6.4353C38.2068 6.52454 38.0163 6.61262 37.8253 6.69953C37.6178 6.79386 37.4751 6.87473 37.397 6.94214C37.0848 7.21209 37.0276 7.53578 37.0762 7.95168C37.1167 8.29677 37.1799 8.63244 37.2657 8.95867C37.2725 8.98432 37.2659 8.98835 37.246 8.97075L35.266 7.22163C35.2504 7.20785 35.2528 7.20308 35.2734 7.20732C35.7576 7.30589 36.3468 7.31416 36.6479 6.86328Z" fill="#C08A4C"/>
<path d="M27.2492 5.30716C26.8359 5.32115 26.5414 5.36439 26.2772 5.39396C26.2641 5.39523 26.2528 5.39131 26.2435 5.3822L25.8435 4.98379C25.8316 4.97192 25.8337 4.96386 25.8498 4.95962C26.1335 4.88543 26.4213 4.83678 26.7134 4.81368C26.7266 4.81262 26.7379 4.81654 26.7475 4.82544L27.2562 5.28808C27.2696 5.30016 27.2672 5.30652 27.2492 5.30716Z" fill="#C08A4C"/>
<path d="M18.8079 6.41908C18.8511 6.39619 18.8939 6.37309 18.9363 6.34977C19.2886 6.15623 19.5838 6.20764 19.8219 6.50398C19.9611 6.67759 19.9646 6.88776 19.853 7.08363C19.592 7.54182 19.1611 7.54373 18.6801 7.40001C18.6686 7.39661 18.6604 7.40043 18.6556 7.41145C18.4597 7.86169 18.2235 8.25788 17.9837 8.73037C17.8826 8.92974 17.7796 9.12401 17.7643 9.34659C17.7522 9.51935 17.7453 9.69211 17.7436 9.86487C17.7369 10.6134 17.7209 11.2097 17.6956 11.6537C17.6845 11.8522 17.6235 12.0636 17.5452 12.2738C17.0409 13.6305 16.4568 14.7889 15.8934 16.0318C15.8828 16.0551 15.8802 16.0542 15.8855 16.0289C15.9772 15.5836 16.083 15.1399 16.2028 14.6979C16.3732 14.0681 16.6906 13.4464 16.9732 12.8312C17.0637 12.6345 17.1281 12.444 17.1662 12.2598C17.1885 12.1529 17.2096 11.9547 17.2295 11.6652C17.2588 11.2425 17.2678 10.8193 17.2565 10.3956C17.2538 10.2887 17.2412 10.1744 17.2187 10.0525C17.1541 9.70175 17.1243 9.40637 17.2457 9.07282C17.2584 9.03742 17.352 8.84982 17.5265 8.51002C17.7386 8.09699 17.9694 7.68745 18.1389 7.25501C18.1484 7.23085 18.1516 7.17139 18.1456 7.14627C18.0642 6.82354 18.0082 6.36567 18.1611 6.05215C18.2052 5.96227 18.2847 5.86731 18.3996 5.76726C18.7122 5.49603 19.2375 5.11575 19.6559 5.06455C20.0553 5.0159 20.8753 5.3663 20.9713 5.78983C20.9868 5.85745 20.9855 5.96132 20.9675 6.10144C20.9382 6.33101 20.9091 6.56015 20.8801 6.78888C20.8559 6.98125 20.8435 7.22226 20.9745 7.37171C21.2292 7.66137 21.5017 7.91098 21.8623 8.0512C21.8762 8.0565 21.8772 8.06349 21.8651 8.07218C21.5774 8.28268 21.3567 8.44675 21.2066 8.68681C21.046 8.94277 20.9939 9.21622 21.1945 9.46423C21.4336 9.75994 21.8464 9.93673 22.1471 9.59365C22.1535 9.58623 22.1549 9.57796 22.1513 9.56885C22.0473 9.3097 21.9732 8.94595 22.1052 8.68649C22.1499 8.59873 22.2266 8.51649 22.3354 8.43975C22.718 8.17012 23.1005 8.16365 23.4829 8.42036C24.0489 8.80001 23.9227 9.50716 23.8184 10.0693C23.7987 10.1755 23.8282 10.3221 23.7815 10.4115C23.6672 10.6287 23.5898 10.8602 23.5491 11.1059C23.5487 11.1083 23.5477 11.1106 23.5462 11.1125C23.5446 11.1144 23.5426 11.1159 23.5403 11.1169C23.538 11.1178 23.5355 11.1181 23.533 11.1178C23.5306 11.1175 23.5282 11.1166 23.5262 11.1151C23.2034 10.875 23.3557 10.5224 23.4349 10.215C23.5436 9.79492 23.6626 8.92306 23.1179 8.73991C22.8548 8.65152 22.6528 8.74585 22.5119 9.0229C22.4864 9.07293 22.4785 9.13302 22.488 9.20319C22.4903 9.22014 22.4971 9.22216 22.5084 9.20923C22.5531 9.15857 22.5984 9.11182 22.6444 9.069C22.9347 8.79969 23.323 8.96948 23.3869 9.338C23.4829 9.88999 23.0448 10.2302 22.5278 10.0162C22.514 10.0105 22.4937 10.0075 22.467 10.0073C22.4564 10.0073 22.4467 10.01 22.4378 10.0153C21.8731 10.3545 21.1351 10.2779 20.7961 9.68045C20.5255 9.2035 20.6699 8.57361 21.1424 8.27664C21.1528 8.27006 21.1531 8.26307 21.1433 8.25565C20.935 8.09624 20.7501 7.92528 20.5888 7.74277C20.4692 7.60764 20.4072 7.4725 20.3548 7.28458C20.2349 6.85501 20.144 6.19746 19.6429 6.04261C19.2921 5.93419 18.9704 6.10144 18.7987 6.40955C18.791 6.42311 18.7941 6.42629 18.8079 6.41908ZM18.9313 6.97203C19.0756 7.08617 19.3058 7.08681 19.4559 6.98443C19.5123 6.94606 19.5317 6.90228 19.5141 6.85311C19.4528 6.68183 19.335 6.63996 19.1605 6.72751C19.0831 6.7663 19.0057 6.84081 18.9281 6.95104C18.9226 6.95909 18.9236 6.96609 18.9313 6.97203ZM22.6546 9.6933C22.6713 9.71072 22.6922 9.72383 22.7161 9.73188C22.7399 9.73993 22.7663 9.74276 22.7936 9.74022C22.8209 9.73767 22.8486 9.7298 22.8752 9.71705C22.9018 9.70429 22.9267 9.68691 22.9486 9.66589C22.9704 9.64487 22.9887 9.62062 23.0025 9.59454C23.0163 9.56845 23.0252 9.54103 23.0288 9.51385C23.0324 9.48667 23.0306 9.46025 23.0234 9.43612C23.0163 9.41198 23.004 9.39059 22.9872 9.37317C22.9705 9.35575 22.9496 9.34264 22.9257 9.33459C22.9019 9.32654 22.8756 9.3237 22.8483 9.32625C22.821 9.32879 22.7932 9.33667 22.7666 9.34942C22.74 9.36218 22.7151 9.37956 22.6933 9.40058C22.6714 9.4216 22.6531 9.44584 22.6393 9.47193C22.6256 9.49802 22.6166 9.52543 22.613 9.55262C22.6094 9.5798 22.6113 9.60621 22.6184 9.63035C22.6255 9.65449 22.6378 9.67588 22.6546 9.6933Z" fill="#C08A4C"/>
<path d="M24.0166 6.13038C23.3943 6.4617 22.8592 6.89021 22.4115 7.41591C22.411 7.41638 22.4103 7.41666 22.4096 7.41671C22.4089 7.41675 22.4082 7.41656 22.4076 7.41616C22.407 7.41575 22.4066 7.41517 22.4064 7.41449C22.4062 7.41381 22.4062 7.41308 22.4065 7.41241C23.0125 6.47717 23.8267 5.77606 24.8491 5.30908C24.8538 5.30692 24.8592 5.30625 24.8643 5.30716C24.8695 5.30806 24.8742 5.31051 24.878 5.31416L25.1902 5.62005C25.2015 5.63107 25.1996 5.63891 25.1845 5.64358C24.7792 5.76949 24.3899 5.93176 24.0166 6.13038Z" fill="#C08A4C"/>
<path d="M26.1528 10.9183C25.8505 11.1879 25.5001 11.3612 25.1016 11.4381C25.0928 11.4398 25.0838 11.4395 25.0751 11.4371C25.0665 11.4347 25.0586 11.4304 25.052 11.4245C24.8862 11.2771 24.775 11.096 24.7184 10.8811C24.7174 10.8769 24.7173 10.8725 24.7183 10.8683C24.7193 10.8641 24.7214 10.8602 24.7242 10.857C24.7271 10.8538 24.7307 10.8513 24.7347 10.8498C24.7387 10.8483 24.7431 10.8478 24.7474 10.8483C24.9602 10.8748 25.1765 10.8942 25.3963 10.9065C25.4423 10.909 25.4903 10.8953 25.5404 10.8652C25.7747 10.7237 25.624 10.5001 25.5095 10.3501C25.5021 10.3405 25.5043 10.3344 25.5162 10.3316L26.0873 10.1965C26.096 10.1944 26.1051 10.1949 26.1136 10.1978C26.122 10.2007 26.1295 10.206 26.135 10.213C26.2917 10.4095 26.7658 10.9412 27.0447 10.854C27.3935 10.7453 27.1989 10.3787 27.0383 10.2181C25.8309 9.01026 24.6253 7.8038 23.4215 6.59871C23.4188 6.59601 23.4167 6.59274 23.4155 6.58914C23.4142 6.58555 23.4138 6.58171 23.4142 6.57793C23.4147 6.57415 23.4159 6.57051 23.4179 6.56728C23.42 6.56405 23.4227 6.56132 23.4259 6.55928L24.045 6.17773C24.051 6.17403 24.0582 6.1725 24.0652 6.17336C24.0723 6.17423 24.0788 6.17745 24.0838 6.1825C25.3005 7.41959 26.5104 8.66708 27.7133 9.92494C27.7448 9.9577 27.8062 10.0276 27.8227 10.0712C27.962 10.441 27.9493 10.9272 27.5671 11.1469C27.4708 11.2022 27.3622 11.2495 27.2412 11.2887C26.7709 11.4416 26.4768 11.261 26.1757 10.9195C26.1685 10.9115 26.1608 10.9111 26.1528 10.9183Z" fill="#C08A4C"/>
<path d="M17.276 7.47726C17.2743 7.47057 17.271 7.46441 17.2663 7.45932C17.2617 7.45422 17.2558 7.45036 17.2493 7.44806C17.2428 7.44577 17.2358 7.44511 17.229 7.44616C17.2222 7.4472 17.2157 7.44991 17.2102 7.45405C17.1542 7.49559 17.1125 7.54541 17.0849 7.60349C16.7252 8.35792 16.3585 9.10884 15.9848 9.85627C15.9506 9.92474 15.9217 10.0194 15.898 10.1402C15.7784 10.7453 15.9762 11.325 16.1736 11.8897C16.2169 12.0124 16.2401 12.1545 16.2487 12.283C16.2745 12.68 16.2644 13.0762 16.2181 13.4715C16.2169 13.4819 16.2122 13.4904 16.2042 13.497C15.9081 13.7383 15.6592 14.1269 15.462 14.4649C15.4612 14.4662 15.4599 14.4672 15.4584 14.4678C15.4569 14.4683 15.4552 14.4684 15.4537 14.4679C15.4523 14.4674 15.451 14.4664 15.4502 14.4651C15.4494 14.4638 15.4491 14.4623 15.4493 14.4607C15.4643 14.3234 15.4798 14.1841 15.4795 14.0451C15.4792 13.1443 15.4102 12.2432 15.2573 11.3555C15.1272 10.6013 15.262 9.76502 15.6363 9.08012C15.6869 8.98727 15.7707 8.87069 15.8875 8.73036C16.1327 8.43592 16.3612 8.12909 16.573 7.80985C16.8042 7.46136 16.9876 6.89379 17.3902 6.70619C17.5555 6.62893 17.676 6.6639 17.7546 6.83115C17.8457 7.02532 17.8675 7.21133 17.8201 7.38918C17.7955 7.4816 17.7115 7.63762 17.5682 7.85723C17.3808 8.14509 17.1694 8.42225 16.9339 8.68871C16.9319 8.69153 16.9288 8.69344 16.9254 8.694C16.9219 8.69457 16.9184 8.69375 16.9156 8.69173C16.9128 8.6897 16.9109 8.68664 16.9103 8.68321C16.9097 8.67978 16.9106 8.67627 16.9126 8.67344C17.1142 8.32326 17.236 7.94414 17.2779 7.53608C17.2805 7.5117 17.2798 7.4921 17.276 7.47726Z" fill="#C08A4C"/>
<path d="M37.7273 8.16693C37.8046 8.10747 37.8358 7.87949 37.8596 7.77393C37.8607 7.76952 37.8633 7.7656 37.8669 7.7628C37.8705 7.76 37.8749 7.7585 37.8794 7.75853C37.8839 7.75857 37.8883 7.76015 37.8917 7.763C37.8952 7.76586 37.8975 7.76983 37.8984 7.77425C37.9353 7.95008 37.9509 8.38824 37.7967 8.52274C37.7032 8.60382 37.5665 8.58601 37.5089 8.469C37.4313 8.31129 37.4634 8.05247 37.52 7.88967C37.6027 7.65374 37.7178 7.43381 37.8653 7.22989C37.8861 7.20127 37.9097 7.19566 37.9359 7.21304C37.9399 7.21561 37.9432 7.21895 37.9458 7.22287C37.9484 7.22679 37.9502 7.2312 37.951 7.23584C37.9518 7.24047 37.9517 7.24524 37.9507 7.24985C37.9496 7.25446 37.9476 7.25881 37.9448 7.26264C37.7604 7.51352 37.5595 7.7965 37.625 8.12846C37.6271 8.13921 37.632 8.14924 37.6391 8.1576C37.6462 8.16595 37.6554 8.17236 37.6656 8.17621C37.6759 8.18006 37.6869 8.18123 37.6977 8.17961C37.7085 8.17798 37.7187 8.17362 37.7273 8.16693Z" fill="#C08A4C"/>
<path d="M24.4379 8.45118C24.3918 8.49665 24.2697 8.51986 24.2039 8.53607C24.1966 8.53788 24.1889 8.53803 24.1815 8.53654C24.1741 8.53504 24.1672 8.53193 24.1611 8.52742C24.1551 8.52292 24.1502 8.51713 24.1467 8.51049C24.1432 8.50385 24.1412 8.49651 24.1409 8.48902C24.1377 8.40444 24.1364 8.31721 24.1368 8.22733C24.1371 8.10682 24.3063 8.07598 24.3982 8.05786C24.4437 8.04874 24.4678 8.06729 24.4703 8.1135C24.4748 8.18949 24.4929 8.39649 24.4379 8.45118Z" fill="#C08A4C"/>
<path d="M18.7932 8.93069C18.7515 9.06551 18.5626 9.12974 18.4262 9.17425C18.4219 9.17563 18.4173 9.17586 18.4129 9.17492C18.4085 9.17399 18.4044 9.17192 18.401 9.16892C18.3977 9.16592 18.3952 9.1621 18.3938 9.15784C18.3924 9.15359 18.3922 9.14905 18.3932 9.14468C18.4305 8.9662 18.4729 8.78739 18.5204 8.60827C18.5417 8.52783 18.8011 8.47822 18.8749 8.46137C18.881 8.45999 18.8874 8.46022 18.8934 8.46202C18.8994 8.46383 18.9049 8.46716 18.9092 8.47168C18.9135 8.47621 18.9166 8.48177 18.9181 8.48782C18.9196 8.49387 18.9195 8.50021 18.9178 8.50621C18.8784 8.64823 18.8368 8.78972 18.7932 8.93069Z" fill="#C08A4C"/>
<path d="M24.6017 8.69633C24.6042 8.60094 24.8001 8.56279 24.8726 8.54657C24.8796 8.545 24.8869 8.54502 24.8939 8.54664C24.9009 8.54826 24.9074 8.55143 24.913 8.55591C24.9187 8.5604 24.9232 8.56609 24.9263 8.57256C24.9294 8.57903 24.9311 8.58612 24.9311 8.59331L24.932 8.86962C24.9322 8.89391 24.9243 8.91755 24.9096 8.93692C24.895 8.95628 24.8744 8.97029 24.851 8.97678L24.6618 9.02924C24.6548 9.03117 24.6476 9.03151 24.6405 9.03021C24.6334 9.02892 24.6268 9.02604 24.621 9.02178C24.6152 9.01752 24.6104 9.012 24.6071 9.00563C24.6037 8.99927 24.6019 8.99223 24.6017 8.98504C24.5989 8.89495 24.5989 8.79872 24.6017 8.69633Z" fill="#C08A4C"/>
<path d="M35.5511 10.0013C35.486 10.1628 35.6236 10.3854 35.7292 10.5141C35.7298 10.515 35.73 10.5161 35.7298 10.5172C35.7296 10.5182 35.7291 10.5192 35.7283 10.5199C35.7275 10.5206 35.7265 10.5209 35.7254 10.5209C35.7244 10.5209 35.7233 10.5206 35.7225 10.5199L34.912 9.6674C34.9046 9.65977 34.9039 9.6514 34.9098 9.64229C35.0939 9.35198 35.4612 9.03147 35.809 9.30302C36.2713 9.66359 36.5635 10.166 37.0128 10.5304C37.3187 10.7784 37.679 11.0334 38.0799 11.0843C38.0823 11.0846 38.0846 11.0855 38.0865 11.0869C38.0884 11.0884 38.0899 11.0903 38.0909 11.0926C38.0919 11.0948 38.0922 11.0973 38.092 11.0997C38.0917 11.1021 38.0909 11.1045 38.0895 11.1065C38.0445 11.1707 37.9909 11.2247 37.9286 11.2684C37.6318 11.4765 37.3244 11.6673 37.0065 11.8407C36.7805 11.9639 36.5874 12.0499 36.4271 12.0989C35.9549 12.2435 35.4723 12.244 34.9794 12.1005C34.9678 12.0971 34.9651 12.0902 34.9715 12.0798C35.0945 11.8754 35.2071 11.6722 35.1788 11.428C35.153 11.2067 34.9887 10.958 34.8481 10.7676C34.8455 10.764 34.844 10.7598 34.8438 10.7554C34.8435 10.751 34.8446 10.7466 34.8468 10.7428C34.8489 10.7389 34.8522 10.7358 34.8561 10.7338C34.86 10.7318 34.8644 10.7309 34.8688 10.7313C34.8815 10.7328 34.8959 10.7405 34.912 10.7545C35.1764 10.9869 35.4535 11.202 35.7435 11.4C36.0437 11.6054 36.2624 11.772 36.5813 11.5914C36.8745 11.4251 37.0637 10.9975 36.7734 10.7307C36.5252 10.5022 36.2829 10.2674 36.0465 10.0264C35.927 9.90461 35.6453 9.76788 35.5511 10.0013Z" fill="#C08A4C"/>
<path d="M24.9448 9.80159C24.4879 10.3186 24.5204 11.0579 25.045 11.5126C25.5652 11.9631 26.3544 12.1603 27.0342 12.2111C28.6437 12.3313 30.1433 11.8575 31.4332 10.9046C31.4362 10.9024 31.4397 10.9008 31.4433 10.8999C31.4469 10.8991 31.4507 10.899 31.4544 10.8997C31.4581 10.9004 31.4616 10.9018 31.4647 10.9039C31.4677 10.906 31.4704 10.9088 31.4723 10.9119C31.562 11.0546 31.6338 11.2059 31.6876 11.366C31.6891 11.3703 31.6892 11.375 31.688 11.3794C31.6867 11.3838 31.6842 11.3878 31.6806 11.3908C31.3294 11.6869 30.953 11.9431 30.5515 12.1593C29.5902 12.6769 28.5902 12.9941 27.5515 13.1106C27.1178 13.1594 26.6514 13.1458 26.1522 13.0699C25.4181 12.9587 24.7606 12.6748 24.1798 12.2184C23.9437 12.0332 23.7737 11.848 23.6698 11.663C23.6386 11.6076 23.6253 11.517 23.6297 11.3911C23.672 10.1831 24.5468 9.45691 25.6599 9.2283C25.6608 9.228 25.6617 9.22789 25.6627 9.22795C25.6636 9.22802 25.6645 9.22826 25.6653 9.22868C25.6661 9.22909 25.6669 9.22966 25.6675 9.23036C25.6681 9.23106 25.6686 9.23187 25.6689 9.23275C25.6691 9.23362 25.6693 9.23455 25.6692 9.23547C25.6691 9.23639 25.6689 9.2373 25.6685 9.23812C25.6681 9.23895 25.6675 9.23969 25.6668 9.24029C25.6661 9.2409 25.6653 9.24136 25.6644 9.24165C25.3931 9.37944 25.1532 9.56608 24.9448 9.80159Z" fill="#C08A4C"/>
<path d="M28.0875 10.0248C28.0253 9.99938 27.9676 9.97553 27.9142 9.95327C27.907 9.95027 27.9009 9.94534 27.8964 9.93903C27.8919 9.93271 27.8893 9.92528 27.8888 9.91755C27.8883 9.90982 27.8899 9.90211 27.8936 9.89527C27.8972 9.88844 27.9027 9.88276 27.9094 9.87887C28.4092 9.58762 29.0468 9.41337 29.6239 9.49668C29.633 9.49799 29.6418 9.50135 29.6495 9.50649C29.6572 9.51164 29.6637 9.51845 29.6684 9.52643C29.6732 9.53441 29.6761 9.54336 29.677 9.55262C29.6778 9.56188 29.6766 9.57123 29.6735 9.57998C29.593 9.80002 29.5049 10.1088 29.6296 10.324C29.6815 10.4137 29.7304 10.4888 29.7762 10.5495C29.993 10.8363 30.2015 11.1267 30.4016 11.4207C30.4037 11.4238 30.4051 11.4273 30.4057 11.4309C30.4063 11.4346 30.4062 11.4384 30.4052 11.442C30.4043 11.4456 30.4026 11.4489 30.4003 11.4518C30.398 11.4548 30.3951 11.4571 30.3917 11.4588C30.0988 11.61 29.7962 11.738 29.484 11.8429C29.4801 11.8443 29.476 11.8448 29.4719 11.8445C29.4679 11.8443 29.4639 11.8431 29.4602 11.8412C29.4566 11.8393 29.4534 11.8367 29.4508 11.8335C29.4482 11.8303 29.4463 11.8266 29.4452 11.8226C29.241 11.0976 28.8022 10.3173 28.0875 10.0248Z" fill="#C08A4C"/>
<path d="M18.3602 10.1914C18.3167 10.2115 18.2733 10.2272 18.2298 10.2385C18.226 10.2395 18.222 10.2395 18.2181 10.2384C18.2143 10.2374 18.2108 10.2354 18.208 10.2326C18.2051 10.2298 18.2031 10.2263 18.202 10.2225C18.201 10.2187 18.2009 10.2147 18.2018 10.2108C18.2406 10.0438 18.28 9.87811 18.3198 9.71383C18.3522 9.57965 18.5793 9.54912 18.6953 9.52464C18.7004 9.52363 18.7057 9.52392 18.7107 9.52548C18.7157 9.52705 18.7202 9.52983 18.7238 9.53358C18.7273 9.53733 18.7299 9.54192 18.7312 9.54691C18.7325 9.55191 18.7325 9.55716 18.7313 9.56216C18.6985 9.69221 18.6553 9.82257 18.6209 9.95612C18.5818 10.1091 18.4877 10.1323 18.3602 10.1914Z" fill="#C08A4C"/>
<path d="M32.5598 9.56535L32.3156 9.93578C32.3142 9.93796 32.3123 9.9398 32.3101 9.94116C32.3079 9.94253 32.3054 9.94338 32.3028 9.94365C32.3002 9.94392 32.2976 9.94362 32.2951 9.94275C32.2927 9.94188 32.2905 9.94048 32.2886 9.93864L31.8966 9.54945C31.8838 9.53673 31.8865 9.53154 31.9045 9.53387C32.1169 9.56142 32.3295 9.56259 32.5424 9.53737C32.5682 9.5344 32.574 9.54372 32.5598 9.56535Z" fill="#C08A4C"/>
<path d="M30.6773 13.7418C30.8344 13.9046 31.0868 13.9094 31.2833 13.8115C31.4442 13.7311 31.628 13.6211 31.8347 13.4814C32.4842 13.0418 33.1272 12.5929 33.7638 12.1348C33.8208 12.0937 33.8596 12.0532 33.8802 12.0134C33.9549 11.8684 33.9263 11.663 33.8541 11.5256C33.8231 11.4671 33.7542 11.3875 33.6474 11.2868C33.3292 10.9875 33.0176 10.6851 32.7126 10.3797C32.7076 10.3746 32.7046 10.368 32.7039 10.3609C32.7032 10.3539 32.7049 10.3468 32.7088 10.3409C32.8485 10.1263 32.9668 9.90059 33.0639 9.6636C33.0648 9.66153 33.0662 9.65971 33.0679 9.65828C33.0696 9.65686 33.0717 9.65589 33.0739 9.65545C33.0761 9.65501 33.0783 9.65512 33.0805 9.65576C33.0826 9.65641 33.0846 9.65757 33.0862 9.65915C33.7266 10.2826 34.2333 10.7711 34.6064 11.1247C35.049 11.5437 34.8185 12.0216 34.4067 12.3253C34.0925 12.557 33.7712 12.7785 33.4426 12.9898C32.5763 13.5471 31.6968 14.0829 30.8042 14.5971C30.7787 14.6116 30.7239 14.6256 30.6398 14.6391C30.3278 14.6887 30.0423 14.5654 29.9224 14.2875C29.89 14.2122 29.8618 14.0539 29.8379 13.8124C29.8001 13.4313 29.7449 13.0525 29.6722 12.676C29.6714 12.6718 29.6721 12.6676 29.674 12.6638C29.676 12.6601 29.6792 12.6572 29.683 12.6557C29.9904 12.5327 30.2897 12.3927 30.5809 12.2356C30.5828 12.2347 30.5848 12.2342 30.5868 12.2342C30.5888 12.2342 30.5908 12.2347 30.5926 12.2356C30.5944 12.2366 30.596 12.2379 30.5972 12.2396C30.5983 12.2412 30.5991 12.2431 30.5994 12.2452C30.645 12.6329 30.6381 13.0157 30.5787 13.3937C30.5567 13.5348 30.5895 13.6509 30.6773 13.7418Z" fill="#C08A4C"/>
<path d="M31.0642 10.5466C30.9313 10.6725 31.0085 10.7854 31.0737 10.9243C31.078 10.9332 31.0753 10.9366 31.0658 10.9345C30.7354 10.8576 30.3732 10.5847 30.5726 10.2032C30.6392 10.076 30.7372 9.99164 30.8667 9.95009C31.1249 9.8671 31.338 10.0057 31.503 10.1902C31.812 10.5358 32.0737 10.9902 32.1351 11.441C32.2108 11.9991 31.957 12.5514 31.5583 12.9297C31.5574 12.9308 31.5561 12.9315 31.5546 12.9316C31.5532 12.9318 31.5518 12.9313 31.5507 12.9304C31.5496 12.9294 31.5489 12.9281 31.5488 12.9267C31.5487 12.9253 31.5491 12.9238 31.55 12.9227C32.0187 12.2483 31.9297 11.3828 31.4438 10.7425C31.3777 10.6557 31.1866 10.4305 31.0642 10.5466Z" fill="#C08A4C"/>
<path d="M19.8435 10.3679C19.8393 10.3672 19.8354 10.3654 19.8322 10.3627C19.829 10.3599 19.8267 10.3563 19.8254 10.3523C19.8239 10.3481 19.8238 10.3428 19.8251 10.3364C19.8262 10.3315 19.8287 10.3269 19.8327 10.3224C19.8717 10.2794 19.9377 10.214 20.0305 10.1262C20.0931 10.0668 20.1373 10.0544 20.2273 10.0639C20.349 10.0769 20.4736 10.0932 20.6013 10.1129C20.6062 10.1137 20.6109 10.1158 20.6147 10.1191C20.6186 10.1224 20.6215 10.1266 20.6231 10.1314C20.6247 10.1362 20.6249 10.1413 20.6238 10.1462C20.6227 10.1511 20.6203 10.1557 20.6168 10.1593C20.5345 10.2439 20.3917 10.4277 20.2623 10.4172C20.1232 10.4057 19.9837 10.3893 19.8435 10.3679Z" fill="#C08A4C"/>
<path d="M20.5301 10.6512C20.5924 10.5784 20.7626 10.3863 20.8662 10.3921C21.0171 10.4003 21.1634 10.4161 21.305 10.4394C21.3095 10.4402 21.3136 10.4422 21.3171 10.4451C21.3205 10.4481 21.3231 10.4519 21.3245 10.4562C21.326 10.4605 21.3262 10.4652 21.3252 10.4696C21.3243 10.474 21.3221 10.4781 21.319 10.4814C21.2389 10.566 21.0961 10.7507 20.9702 10.7409C20.8332 10.7301 20.6924 10.7153 20.5476 10.6967C20.5427 10.696 20.538 10.6941 20.534 10.691C20.5301 10.6879 20.5271 10.6838 20.5253 10.6792C20.5235 10.6745 20.523 10.6694 20.5238 10.6645C20.5247 10.6596 20.5269 10.655 20.5301 10.6512Z" fill="#C08A4C"/>
<path d="M21.2174 14.2207C21.4787 13.2493 21.2988 12.4245 20.7655 11.6025C20.7588 11.5924 20.761 11.5846 20.7722 11.5793C21.4953 11.242 22.2136 10.904 22.9061 10.5091C22.9184 10.5023 22.9244 10.5059 22.9242 10.5199C22.9227 10.696 22.9569 10.8644 23.0266 11.0251C23.0315 11.0361 23.0279 11.0423 23.0158 11.0436C22.842 11.0631 22.6471 11.1154 22.431 11.2006C21.5834 11.5358 21.6295 12.199 21.5675 12.9965C21.5359 13.4037 21.4511 13.7988 21.3131 14.1819C21.3076 14.1971 21.3004 14.2102 21.2915 14.221C21.2785 14.2367 21.2676 14.2471 21.2587 14.2521C21.2539 14.2549 21.2483 14.2562 21.2427 14.2558C21.2371 14.2554 21.2318 14.2534 21.2274 14.2501C21.223 14.2467 21.2197 14.2421 21.2179 14.2369C21.2161 14.2316 21.2159 14.226 21.2174 14.2207Z" fill="#C08A4C"/>
<path d="M16.4963 15.5367C17.1833 14.1322 17.8086 12.6989 18.3723 11.2369C18.3732 11.2347 18.3745 11.2327 18.3761 11.2309C18.3778 11.2292 18.3797 11.2279 18.3819 11.2269C18.3841 11.226 18.3865 11.2255 18.3888 11.2254C18.3912 11.2254 18.3936 11.2258 18.3958 11.2267C19.0989 11.5057 19.8296 11.6519 20.5879 11.6655C20.6254 11.6661 20.6321 11.6809 20.6079 11.7097C20.514 11.822 20.4119 11.9251 20.3017 12.0188C19.626 12.5927 19.1147 13.0254 18.5701 13.5351C17.9017 14.1606 17.5306 15.0305 17.2813 15.9059C17.0827 16.6031 16.9378 17.3346 16.8467 18.1005C16.7551 18.8703 16.8515 19.5272 17.3561 20.1412C17.4521 20.258 17.5595 20.4007 17.6782 20.5695C17.6847 20.5788 17.6823 20.5841 17.6708 20.5854L15.5949 20.8019C15.5929 20.8021 15.5908 20.8019 15.5889 20.8013C15.587 20.8007 15.5852 20.7997 15.5837 20.7983C15.5822 20.797 15.581 20.7954 15.5801 20.7935C15.5792 20.7917 15.5787 20.7896 15.5786 20.7876C15.5297 19.4025 15.7052 18.0254 15.8836 16.6455C15.8863 16.6238 15.892 16.6063 15.9007 16.5927C16.1199 16.2525 16.3184 15.9005 16.4963 15.5367ZM19.3319 12.0938C19.0712 12.1746 18.847 12.1863 18.6292 12.0169C18.6207 12.0103 18.6149 12.0121 18.6117 12.0223C18.5365 12.2525 18.4452 12.4764 18.3379 12.6941C17.882 13.6194 17.4009 14.5314 16.8947 15.4302C16.8932 15.4328 16.8935 15.4346 16.8956 15.4356C16.8967 15.4362 16.8978 15.4367 16.8988 15.4369C16.9026 15.4379 16.906 15.4361 16.909 15.4315C17.6321 14.2693 18.4753 13.1669 19.3418 12.1081C19.3547 12.0924 19.3514 12.0877 19.3319 12.0938ZM16.3316 19.6216C16.4477 19.3948 16.4779 19.1552 16.4222 18.9027C16.3503 18.5787 16.4117 18.2213 16.4925 17.9017C16.5728 17.5846 16.6132 17.4244 16.6136 17.421C16.6891 16.9828 16.6511 16.551 16.4998 16.1256C16.4994 16.1246 16.4987 16.1238 16.4977 16.1233C16.4968 16.1228 16.4957 16.1227 16.4947 16.1229C16.4936 16.1231 16.4927 16.1237 16.4921 16.1246C16.4914 16.1254 16.4911 16.1264 16.4912 16.1275C16.5538 16.642 16.4095 17.1154 16.267 17.5997C16.1979 17.8337 16.1531 18.0163 16.1325 18.1475C16.0791 18.4897 16.0578 18.8475 16.0686 19.221C16.0733 19.3836 16.1062 19.5272 16.1675 19.6518C16.1722 19.6612 16.1725 19.6707 16.1685 19.6804C16.1064 19.8256 16.0546 19.975 16.0133 20.1285C15.9879 20.2242 16.027 20.2941 16.129 20.2925C16.2753 20.2908 16.4433 20.2766 16.633 20.2499C16.6988 20.2407 16.7395 20.2089 16.7026 20.1393C16.6049 19.9553 16.4825 19.7902 16.3354 19.6442C16.3286 19.6376 16.3273 19.6301 16.3316 19.6216Z" fill="#C08A4C"/>
<path d="M21.3398 16.1224C21.2435 16.3841 21.2362 16.663 21.2028 17.0115C21.1892 17.1528 21.1908 17.2747 21.2075 17.3771C21.3462 18.2235 21.4922 19.0687 21.6457 19.9126C21.6639 20.0133 21.6866 20.113 21.7137 20.2118C21.7167 20.223 21.7232 20.2317 21.7331 20.2378C21.7647 20.2578 21.799 20.2713 21.8358 20.2785C21.917 20.2947 21.917 20.3045 21.8358 20.3081L21.2174 20.3355C21.2072 20.3359 21.2015 20.331 21.2002 20.3208C21.1373 19.815 21.1068 19.296 21.0374 18.8026C20.9219 17.9773 20.8327 17.269 20.7697 16.6776C20.7408 16.4064 20.7163 16.0563 20.7821 15.7714C20.9312 15.1272 21.219 14.5679 21.6117 14.0433C21.833 13.7482 22.019 13.4331 22.2196 13.1663C22.5926 12.6709 23.2133 12.4382 23.8161 12.3749C23.8289 12.3736 23.832 12.3785 23.8257 12.3895C23.6741 12.6532 23.5298 12.9211 23.3926 13.193C23.319 13.3391 23.2402 13.4754 23.156 13.6019C22.9311 13.9409 22.7093 14.2817 22.4905 14.6245C22.3201 14.8916 22.1478 15.153 22.1284 15.4687C22.0684 16.4487 22.0366 17.4294 22.033 18.4108C22.0319 18.7067 22.046 18.9176 22.0753 19.0433C22.1666 19.4352 22.3973 19.7353 22.7672 19.9434C22.9726 20.0587 23.1327 20.1553 23.2476 20.2331C23.2635 20.2439 23.2619 20.2499 23.2428 20.2512C23.0396 20.2637 22.8379 20.271 22.6378 20.2731C22.5757 20.2735 22.5227 20.2474 22.4622 20.2455C22.2583 20.2385 22.0562 20.2163 21.8559 20.179C21.7424 20.158 21.7389 20.0134 21.7271 19.9406C21.5484 18.8362 21.4228 17.9365 21.3503 17.2417C21.3408 17.1497 21.3543 17.025 21.391 16.8677C21.4419 16.6494 21.5008 16.4332 21.5678 16.2191C21.5691 16.2147 21.5688 16.21 21.5669 16.2058C21.5649 16.2016 21.5615 16.1982 21.5573 16.1962L21.3665 16.1113C21.364 16.1102 21.3613 16.1096 21.3586 16.1096C21.3559 16.1096 21.3532 16.1101 21.3507 16.1111C21.3482 16.1122 21.3459 16.1137 21.3441 16.1157C21.3422 16.1176 21.3407 16.1199 21.3398 16.1224ZM22.6667 13.6277C22.6646 13.6277 22.6626 13.6284 22.6609 13.6296C22.6593 13.6309 22.6581 13.6327 22.6577 13.6348C22.6572 13.6368 22.6574 13.6389 22.6583 13.6408C22.6592 13.6427 22.6607 13.6442 22.6626 13.6452C22.8482 13.7243 23.0362 13.6378 23.061 13.4315C23.0835 13.2461 22.9312 13.0302 22.729 13.0525C22.3853 13.0906 22.2177 13.7844 22.1227 14.035C22.0228 14.2979 21.8524 14.524 21.6947 14.7545C21.5452 14.973 21.4797 15.262 21.4247 15.5177C21.4018 15.6245 21.3789 15.6614 21.4482 15.738C21.4955 15.7902 21.5452 15.8282 21.5974 15.8522C21.5998 15.8532 21.6024 15.8536 21.605 15.8533C21.6076 15.853 21.6101 15.852 21.6122 15.8504C21.6142 15.8488 21.6158 15.8467 21.6168 15.8442C21.6178 15.8418 21.6181 15.8392 21.6177 15.8366C21.6101 15.7911 21.5996 15.7565 21.6037 15.7126C21.6355 15.3518 21.7238 15.0433 21.8686 14.787C21.9697 14.6076 22.0718 14.4288 22.1748 14.2506C22.2464 14.1259 22.2935 14.0075 22.316 13.8954C22.356 13.693 22.4064 13.5212 22.467 13.38C22.5215 13.253 22.6185 13.1943 22.7579 13.2038C22.956 13.2175 22.9557 13.5507 22.7951 13.6115C22.7597 13.6248 22.7169 13.6302 22.6667 13.6277Z" fill="#C08A4C"/>
<path d="M32.9356 17.2038C33.1038 17.4712 32.9665 17.8242 33.044 18.1129C33.1023 18.3293 33.1356 18.5494 33.1439 18.7733C33.1595 19.1904 33.2593 19.5316 33.4968 19.8782C33.5038 19.8882 33.5028 19.8973 33.4936 19.9056C33.349 20.0375 33.2021 20.2 33.224 20.4283C33.2251 20.438 33.2207 20.4425 33.211 20.4416L32.8886 20.4162C32.8722 20.4149 32.8643 20.406 32.8647 20.3895C32.8847 19.7768 32.7827 19.1351 32.6545 18.5377C32.617 18.3622 32.6332 18.0855 32.563 17.8684C32.3995 17.3606 32.2685 16.986 32.286 16.4865C32.2979 16.1473 32.3072 15.8082 32.314 15.469C32.3235 15.0073 32.1566 14.607 31.9003 14.228C31.8986 14.2255 31.8975 14.2228 31.8969 14.2199C31.8963 14.217 31.8963 14.214 31.897 14.2111C31.8976 14.2082 31.8988 14.2055 31.9005 14.2031C31.9023 14.2007 31.9045 14.1986 31.907 14.1971L34.0549 12.8785C34.068 12.8705 34.0742 12.8742 34.0736 12.8897C34.0702 12.9543 34.061 13.0116 34.0459 13.0617C33.8863 13.5986 33.7278 14.1361 33.5703 14.6741C33.5064 14.8925 33.4698 15.0868 33.4895 15.3234C33.5328 15.8359 33.6078 16.345 33.7363 16.8432C33.8056 17.1116 33.7957 17.4184 33.7967 17.6817C33.7989 18.3914 33.9089 19.0935 34.0418 19.8998C34.087 20.1736 34.2024 20.2079 34.4612 20.316C34.6615 20.3996 34.8574 20.4751 35.0488 20.5428C35.1578 20.5813 35.1546 20.5959 35.0393 20.5863L33.5677 20.4645C33.5646 20.4642 33.5616 20.463 33.5593 20.4609C33.5569 20.4588 33.5553 20.4561 33.5545 20.453C33.5538 20.4499 33.5541 20.4467 33.5553 20.4438C33.5566 20.4409 33.5587 20.4385 33.5614 20.4369C33.6368 20.3909 33.6822 20.3256 33.6975 20.241C33.7194 20.1176 33.638 19.999 33.5633 19.904C33.5565 19.8953 33.5532 19.8855 33.5534 19.8747C33.5617 19.1412 33.3604 18.4327 33.3261 17.7036C33.3155 17.4785 33.3089 17.2541 33.3064 17.0305C33.3063 17.0284 33.3058 17.0263 33.3048 17.0244C33.3037 17.0225 33.3022 17.021 33.3004 17.0198C33.2986 17.0187 33.2966 17.018 33.2944 17.0179C33.2923 17.0178 33.2902 17.0182 33.2882 17.0191L32.9417 17.1825C32.9315 17.1872 32.9295 17.1943 32.9356 17.2038ZM33.2866 13.9138C33.0096 13.9906 32.7686 14.1293 32.5636 14.33C32.5555 14.3379 32.5549 14.3464 32.5617 14.3555C32.7703 14.6337 32.8129 15.0671 32.8361 15.3736C32.8717 15.844 32.8995 16.3148 32.9194 16.786C32.9195 16.7883 32.9203 16.7906 32.9216 16.7925C32.9229 16.7944 32.9248 16.796 32.9269 16.7969C32.9291 16.7979 32.9314 16.7982 32.9337 16.7979C32.9361 16.7976 32.9382 16.7967 32.9401 16.7952C33.0333 16.72 33.1385 16.6684 33.2555 16.6404C33.268 16.6374 33.2736 16.6296 33.2723 16.6168C33.2405 16.3082 33.2054 15.9999 33.1668 15.6919C33.1436 15.5059 33.1515 15.3428 33.168 15.1628C33.2058 14.7484 33.2508 14.3369 33.3032 13.9284C33.3035 13.9262 33.3032 13.924 33.3024 13.9219C33.3017 13.9199 33.3004 13.918 33.2988 13.9166C33.2971 13.9151 33.2952 13.9141 33.293 13.9136C33.2909 13.9131 33.2887 13.9132 33.2866 13.9138Z" fill="#C08A4C"/>
<path d="M30.5799 18.3615L30.3735 18.613C30.3659 18.6224 30.3623 18.6331 30.3627 18.6452L30.4107 20.2722C30.4109 20.283 30.4056 20.2882 30.3948 20.2878L30.0165 20.2716C30.0056 20.2711 30.0003 20.2655 30.0006 20.2547C30.0105 19.9416 30.0117 19.4805 30.0041 18.8712C29.9871 17.5411 29.9662 16.2108 29.9414 14.8805C29.9413 14.8773 29.9421 14.8741 29.9437 14.8713C29.9453 14.8686 29.9476 14.8663 29.9504 14.8648C29.9532 14.8633 29.9564 14.8626 29.9596 14.8627C29.9628 14.8629 29.9658 14.864 29.9684 14.8658C30.1889 15.0178 30.4321 15.0486 30.6982 14.958C31.067 14.8325 31.4046 14.643 31.7109 14.3895C31.7149 14.3863 31.7197 14.3845 31.7248 14.3842C31.7299 14.384 31.735 14.3853 31.7392 14.3881C31.7435 14.3909 31.7468 14.395 31.7486 14.3997C31.7504 14.4045 31.7507 14.4097 31.7494 14.4146C31.5688 15.0557 31.5052 15.7377 31.4196 16.4003C31.4033 16.5281 31.3764 16.6583 31.3389 16.7908C31.1513 17.4543 31.0067 18.1132 30.9052 18.7676C30.8861 18.8897 30.8736 19.0188 30.8676 19.1549C30.8432 19.7103 31.1211 20.0601 31.584 20.3304C31.5967 20.3378 31.5958 20.3412 31.5812 20.3406L30.6966 20.2989C30.683 20.2983 30.6753 20.2913 30.6734 20.2779C30.5834 19.663 30.5818 18.9654 30.6002 18.3692C30.6011 18.3467 30.5943 18.3442 30.5799 18.3615ZM31.1176 16.0401C31.2238 15.8048 31.218 15.3033 30.8314 15.3138C30.7475 15.3162 30.672 15.3447 30.605 15.3994C30.3786 15.5851 30.4438 15.9107 30.5866 16.1227C30.5929 16.1323 30.5955 16.1314 30.5942 16.1202C30.571 15.9234 30.5519 15.5984 30.8346 15.6394C30.9761 15.6601 31.0101 15.7927 30.9449 15.9103C30.8562 16.0703 30.7704 16.2315 30.6823 16.3914C30.4991 16.7242 30.3975 17.0818 30.3773 17.4642C30.3638 17.7176 30.3603 17.9673 30.3669 18.2134C30.367 18.2159 30.3679 18.2183 30.3695 18.2203C30.3711 18.2222 30.3734 18.2235 30.3758 18.2241C30.3783 18.2246 30.3809 18.2243 30.3832 18.2233C30.3855 18.2222 30.3873 18.2204 30.3885 18.2181C30.4785 18.035 30.5862 17.8359 30.606 17.6321C30.6413 17.2671 30.7061 16.897 30.8696 16.5657C30.9554 16.3916 31.0381 16.2164 31.1176 16.0401Z" fill="#C08A4C"/>
<path d="M5.23892 23.5606C6.56261 22.9091 8.02525 22.4725 9.45768 22.1348C11.9267 21.553 14.4348 21.1892 16.9563 20.9288C17.16 20.9078 17.3709 20.8878 17.589 20.8687C22.6211 20.4259 27.6589 20.362 32.7022 20.677C35.9108 20.8773 39.1356 21.2455 42.2847 21.9024C43.9922 22.2585 45.7108 22.7291 47.3041 23.4477C47.3052 23.4483 47.306 23.4492 47.3065 23.4503C47.3069 23.4514 47.307 23.4527 47.3066 23.4538C47.3062 23.455 47.3054 23.456 47.3044 23.4566C47.3034 23.4572 47.3021 23.4574 47.3009 23.4572C44.1041 22.7189 40.8472 22.2865 37.5814 21.9921C37.3791 21.9738 37.168 21.956 36.948 21.9386C31.0561 21.4744 25.1587 21.4011 19.2558 21.7186C17.3109 21.8231 15.37 21.9798 13.4332 22.1886C10.6847 22.4846 7.93877 22.9027 5.25323 23.5657C5.24412 23.5678 5.23892 23.568 5.23765 23.5663C5.23553 23.564 5.23596 23.5621 5.23892 23.5606Z" fill="#C08A4C"/>
<path d="M0 28.3323V28.3075C0.148172 27.4926 0.249073 26.6718 0.302703 25.8448C0.303339 25.8351 0.307154 25.8267 0.314149 25.8197C0.363752 25.7705 0.412719 25.7551 0.461049 25.7733C0.843243 25.9172 1.20095 25.9897 1.53418 25.9908C4.14616 25.9988 6.20233 26.0001 7.7027 25.9946C8.04611 25.9933 8.38283 25.9272 8.71288 25.7962C8.793 25.7644 8.84547 25.7714 8.90397 25.8299C8.91139 25.8375 8.91394 25.8464 8.91161 25.8566C8.72114 26.6808 8.64452 27.5472 8.57138 28.3917C8.57055 28.4016 8.56669 28.411 8.56032 28.4186C8.55395 28.4262 8.54538 28.4317 8.53577 28.4343C8.39566 28.4721 8.2548 28.4742 8.1132 28.4407C8.092 28.4356 8.08076 28.4223 8.07949 28.4006C8.05533 28.0064 7.9964 27.6199 7.9027 27.2413C7.85215 27.0363 7.71383 26.7599 7.48585 26.6763C7.41865 26.6517 7.30715 26.6376 7.15135 26.634C6.41494 26.6169 5.75337 26.616 5.16661 26.6315C5.09857 26.6334 5.06444 26.6725 5.06423 26.7488C5.05745 28.5294 5.05872 30.31 5.06804 32.0906C5.07228 32.9084 5.08352 33.5338 5.10175 33.9666C5.10662 34.0836 5.1345 34.2236 5.18537 34.3866C5.23667 34.5509 5.35252 34.6621 5.53291 34.7202C5.89507 34.8372 6.26582 34.8661 6.6407 34.9145C6.64521 34.915 6.64941 34.917 6.65268 34.9202C6.65594 34.9233 6.6581 34.9275 6.65882 34.932C6.68002 35.0655 6.66699 35.1956 6.61971 35.3221C6.6159 35.3321 6.60911 35.3406 6.60028 35.3465C6.59146 35.3524 6.58103 35.3555 6.57043 35.3552C5.87917 35.3361 5.1841 35.3084 4.49126 35.3084C3.68362 35.3082 2.87674 35.3244 2.07059 35.3571C2.05962 35.3575 2.04885 35.3541 2.04019 35.3475C2.03153 35.3409 2.02552 35.3314 2.02321 35.3208C1.99375 35.19 1.99671 35.0601 2.03211 34.931C2.0334 34.9262 2.03616 34.9218 2.04003 34.9186C2.0439 34.9153 2.04868 34.9134 2.05374 34.9129C2.39682 34.8785 2.74881 34.848 3.08394 34.7711C3.23847 34.7357 3.34881 34.6944 3.41494 34.6474C3.63816 34.4884 3.67504 34.1631 3.68426 33.903C3.7097 33.1931 3.7257 32.483 3.73227 31.7727C3.74796 30.1082 3.75506 28.4438 3.75358 26.7793C3.75358 26.6954 3.72369 26.6184 3.63275 26.6165C2.67377 26.5987 2.02978 26.5996 1.7008 26.6191C1.25437 26.6455 1.04769 27.0051 0.894436 27.3641C0.742236 27.721 0.60159 28.0789 0.472496 28.4375C0.469956 28.4444 0.46539 28.4504 0.459418 28.4546C0.453445 28.4588 0.446355 28.4611 0.43911 28.4611C0.269316 28.4617 0.122946 28.4188 0 28.3323Z" fill="#C08A4C"/>
<path d="M24.1618 32.9618C24.1635 32.9587 24.1653 32.9551 24.1672 32.9513C25.0215 31.2489 25.9657 29.278 27 27.0385C27.1689 26.6726 27.2922 26.3329 27.3698 26.0194C27.3721 26.0103 27.3779 26.0056 27.3873 26.0054L30.0388 25.952C30.05 25.9518 30.0572 25.957 30.0604 25.9676C30.1002 26.1002 30.0984 26.2325 30.055 26.3644C30.0534 26.3693 30.0504 26.3737 30.0464 26.377C30.0424 26.3804 30.0375 26.3825 30.0324 26.3831C29.5421 26.4459 29.2186 26.4983 29.062 26.5405C28.5726 26.6725 28.6311 27.0846 28.6334 27.4801C28.644 29.4449 28.6952 31.5355 28.7869 33.752C28.8044 34.1736 28.8397 34.6731 29.3485 34.78C29.6232 34.8376 29.9046 34.8798 30.1927 34.9065C30.2051 34.9077 30.2169 34.9128 30.2263 34.921C30.2358 34.9292 30.2425 34.9401 30.2454 34.9523C30.2711 35.0576 30.2687 35.1666 30.2381 35.2792C30.2265 35.3224 30.2044 35.3477 30.172 35.3552C30.1669 35.3564 30.1371 35.3558 30.0827 35.3532C28.7909 35.2945 27.4992 35.2946 26.2076 35.3536C26.2029 35.3538 26.1982 35.3524 26.1943 35.3496C26.1905 35.3468 26.1876 35.3429 26.1863 35.3383C26.146 35.2039 26.1436 35.0686 26.179 34.9323C26.1803 34.9272 26.1831 34.9226 26.187 34.919C26.1909 34.9154 26.1957 34.9131 26.2009 34.9122C26.3945 34.8817 26.6194 34.8389 26.8757 34.7838C27.1993 34.7144 27.4143 34.5634 27.4197 34.2051C27.4275 33.6753 27.4287 33.0845 27.4232 32.4324C27.4105 30.9022 27.3898 29.3679 27.3612 27.8296C27.361 27.8177 27.3573 27.8063 27.3507 27.7968C27.3291 27.7654 27.3103 27.7665 27.2944 27.8C26.6841 29.0969 26.0761 30.3948 25.4703 31.6938C24.9148 32.8846 24.3462 34.0884 23.8798 35.317C23.8743 35.3316 23.8637 35.3395 23.848 35.3405L23.4715 35.3637C23.4639 35.3642 23.4563 35.3621 23.45 35.3578C23.4436 35.3535 23.4389 35.3472 23.4365 35.3399C23.1195 34.3943 22.7249 33.4664 22.3319 32.5501C21.6498 30.9592 20.9576 29.3661 20.2553 27.7707C20.2537 27.7669 20.2512 27.7635 20.2482 27.7607C20.2451 27.7579 20.2415 27.7558 20.2376 27.7545C20.2336 27.7532 20.2295 27.7528 20.2253 27.7532C20.2212 27.7537 20.2172 27.755 20.2137 27.7571C20.199 27.7655 20.1908 27.7832 20.1889 27.8102C20.0594 29.6537 19.9268 31.9167 19.8788 33.8712C19.8778 33.9106 19.8828 33.9812 19.8938 34.083C19.9437 34.5418 20.0833 34.6944 20.5418 34.7879C20.8025 34.8411 21.0634 34.882 21.3243 34.9106C21.3321 34.9116 21.3393 34.9149 21.345 34.9202C21.3507 34.9256 21.3546 34.9325 21.3561 34.9402C21.3811 35.0718 21.3687 35.1997 21.3189 35.3237C21.3147 35.334 21.3074 35.3427 21.298 35.3487C21.2886 35.3547 21.2776 35.3576 21.2664 35.3571C20.6294 35.3248 19.9928 35.3086 19.3564 35.3084C18.6881 35.3084 18.0216 35.3644 17.3532 35.3389C16.2003 35.2948 15.0474 35.2997 13.8944 35.3536C13.8898 35.3538 13.8852 35.3525 13.8814 35.3499C13.8776 35.3472 13.8748 35.3434 13.8734 35.3389C13.8346 35.2118 13.8252 35.0821 13.8451 34.9501C13.8469 34.9388 13.8523 34.9284 13.8606 34.9206C13.8689 34.9127 13.8796 34.9079 13.8909 34.9068C14.1472 34.8816 14.3986 34.8335 14.6451 34.7625C14.9911 34.6629 14.8836 34.4092 14.8047 34.1583C14.5567 33.3679 14.2818 32.5868 13.9799 31.8152C13.9109 31.6391 13.799 31.6515 13.6372 31.6528C12.547 31.6623 11.748 31.6624 11.2404 31.6531C11.0652 31.6499 11.0283 31.7157 10.9675 31.8728C10.7238 32.5039 10.4966 33.1407 10.2861 33.7835C10.2019 34.041 10.0594 34.4769 10.3307 34.6617C10.4085 34.7147 10.5184 34.7576 10.6604 34.7904C10.8976 34.8453 11.1372 34.8863 11.3793 34.9132C11.385 34.9138 11.3903 34.9163 11.3944 34.9204C11.3984 34.9244 11.401 34.9297 11.4016 34.9354C11.4183 35.0711 11.4073 35.2041 11.3685 35.3345C11.3647 35.3476 11.3559 35.354 11.3421 35.3536C10.9305 35.3413 10.5203 35.3299 10.1116 35.3195C9.34868 35.2998 8.58578 35.312 7.82287 35.3561C7.8139 35.3567 7.80499 35.3542 7.79756 35.349C7.79013 35.3439 7.7846 35.3364 7.78185 35.3278C7.74116 35.1947 7.742 35.0621 7.7844 34.93C7.78602 34.925 7.78905 34.9206 7.79311 34.9172C7.79717 34.9139 7.8021 34.9118 7.80729 34.9113C8.02637 34.8881 8.29632 34.8439 8.46389 34.8022C9.06548 34.6528 9.30046 34.1377 9.51953 33.6159C9.88519 32.7449 10.2363 31.8681 10.573 30.9857C11.1519 29.4679 11.6922 27.9999 12.1939 26.5815C12.2573 26.4024 12.3112 26.2085 12.3555 25.9997C12.358 25.9878 12.3653 25.9822 12.3774 25.9828C12.6977 26.0017 13.0179 26.0018 13.338 25.9831C13.3494 25.9825 13.3566 25.9877 13.3596 25.9987C13.4262 26.2427 13.4744 26.4079 13.5043 26.4944C14.2598 28.6782 15.0415 30.8526 15.8496 33.0175C16.0327 33.5084 16.206 34.0105 16.4836 34.4156C16.73 34.7752 17.1672 34.8464 17.5745 34.8909C17.668 34.9013 17.7692 34.8984 17.8782 34.8823C18.3195 34.8175 18.847 34.7924 18.9803 34.2664C19.0303 34.0689 19.0668 33.8683 19.0896 33.6648C19.3148 31.6607 19.4302 29.9065 19.6095 27.4722C19.6334 27.1504 19.6276 26.8117 19.3313 26.6461C19.2262 26.5872 19.0783 26.5387 18.8877 26.5008C18.6457 26.4527 18.4082 26.4126 18.1755 26.3806C18.1647 26.3791 18.1546 26.3742 18.1468 26.3665C18.139 26.3588 18.1339 26.3488 18.1323 26.338C18.1128 26.214 18.1228 26.0925 18.1625 25.9736C18.1669 25.96 18.1763 25.9535 18.1908 25.9539L20.9189 26.0054C20.9359 26.0056 20.9455 26.0141 20.9478 26.0308C20.9822 26.2881 21.0575 26.4954 21.1761 26.758C22.117 28.8378 23.075 30.9176 24.0938 32.9606C24.0969 32.9668 24.1017 32.9721 24.1077 32.9758C24.1136 32.9795 24.1204 32.9816 24.1274 32.9817C24.1344 32.9818 24.1413 32.9801 24.1474 32.9766C24.1535 32.9731 24.1584 32.968 24.1618 32.9618ZM11.7135 30.9586C12.3295 30.9661 12.9455 30.9641 13.5615 30.9526C13.6515 30.951 13.6842 30.9097 13.6556 30.8216C13.3027 29.738 12.9327 28.6603 12.5456 27.5885C12.535 27.5591 12.5156 27.5474 12.4874 27.5536C12.4814 27.5549 12.4758 27.5578 12.4712 27.5619C12.4666 27.566 12.4631 27.5713 12.461 27.5771L11.3233 30.8289C11.3188 30.8419 11.3173 30.8558 11.319 30.8694C11.3207 30.8831 11.3256 30.8961 11.3332 30.9076C11.3408 30.919 11.351 30.9286 11.3629 30.9355C11.3748 30.9423 11.3882 30.9464 11.4019 30.9472C11.5041 30.9536 11.6079 30.9574 11.7135 30.9586Z" fill="#C08A4C"/>
<path d="M33.9797 26.5106C33.6583 26.5847 33.5937 26.8598 33.5756 27.1542C33.5514 27.5432 33.5387 27.9327 33.5375 28.3227C33.5322 30.045 33.5389 31.7673 33.5578 33.4897C33.5601 33.6938 33.567 33.8977 33.5785 34.1014C33.6074 34.6165 33.8599 34.7319 34.3311 34.8159C34.5473 34.8543 34.7629 34.8857 34.9778 34.9103C34.9866 34.9113 34.9949 34.9151 35.0013 34.9212C35.0077 34.9273 35.012 34.9353 35.0135 34.944C35.0357 35.0744 35.026 35.2018 34.9842 35.3262C34.9813 35.3347 34.9758 35.342 34.9685 35.3471C34.9612 35.3522 34.9524 35.3548 34.9435 35.3545C34.3476 35.3367 33.7454 35.3103 33.1546 35.3087C32.4071 35.3065 31.6627 35.3456 30.9162 35.3523C30.9071 35.3524 30.8982 35.3495 30.891 35.3441C30.8837 35.3387 30.8783 35.3311 30.8758 35.3224C30.84 35.1997 30.8361 35.0757 30.8643 34.9504C30.8669 34.9393 30.873 34.9293 30.8817 34.9219C30.8904 34.9145 30.9013 34.9101 30.9127 34.9094C31.2049 34.889 31.533 34.8493 31.8071 34.7504C32.0309 34.6696 32.146 34.531 32.1724 34.2963C32.2036 34.0216 32.2281 33.7825 32.2322 33.5065C32.2591 31.6621 32.2605 29.8176 32.2363 27.973C32.2319 27.6461 32.213 27.32 32.1797 26.9946C32.1384 26.5908 31.8853 26.5421 31.5127 26.4703C31.3208 26.4332 31.1274 26.4045 30.9324 26.3844C30.9196 26.3831 30.9075 26.3776 30.8982 26.3687C30.8889 26.3597 30.8828 26.3479 30.8809 26.3351C30.8631 26.2156 30.8696 26.0975 30.9006 25.9809C30.9029 25.972 30.9082 25.9642 30.9155 25.9587C30.9228 25.9531 30.9318 25.9502 30.941 25.9504C31.8837 25.9768 32.816 26.013 33.7584 25.9796C34.083 25.9682 34.4098 25.9587 34.739 25.951C34.7496 25.9508 34.7598 25.9543 34.7681 25.9608C34.7764 25.9672 34.7822 25.9764 34.7845 25.9866C34.8112 26.1039 34.8151 26.2217 34.7963 26.3402C34.7945 26.3513 34.7891 26.3614 34.7809 26.3691C34.7727 26.3768 34.7623 26.3816 34.7511 26.3828C34.4915 26.4093 34.2343 26.4519 33.9797 26.5106Z" fill="#C08A4C"/>
<path d="M42.0264 32.9803C42.04 32.9744 42.053 32.9588 42.0655 32.9336C42.8918 31.2731 43.6972 29.6027 44.4817 27.9221C44.7853 27.272 44.9919 26.8066 45.1015 26.5259C45.1661 26.3602 45.2134 26.1904 45.2433 26.0165C45.2438 26.0135 45.2453 26.0107 45.2477 26.0087C45.25 26.0067 45.2529 26.0055 45.256 26.0054L47.9231 25.952C47.9275 25.9519 47.9319 25.9533 47.9354 25.9559C47.939 25.9586 47.9416 25.9623 47.9428 25.9666C47.9799 26.0949 47.98 26.223 47.9431 26.351C47.9399 26.3623 47.9327 26.3694 47.9215 26.3723C47.8636 26.3882 47.8224 26.3977 47.7978 26.4006C47.4264 26.4424 47.1321 26.492 46.9148 26.5495C46.4668 26.6681 46.5062 27.1148 46.5091 27.4897C46.5254 29.6154 46.5805 31.7399 46.6744 33.8633C46.6976 34.3905 46.8159 34.7272 47.3924 34.8146C47.629 34.8507 47.8661 34.8839 48.1037 34.9142C48.1082 34.9147 48.1124 34.9167 48.1158 34.9198C48.1192 34.9228 48.1217 34.9269 48.1228 34.9313C48.1573 35.0664 48.1513 35.1997 48.1046 35.3313C48.1006 35.3428 48.0926 35.3488 48.0805 35.3495C47.9995 35.3528 47.9343 35.3535 47.8849 35.3514C46.6201 35.2937 45.357 35.2947 44.0957 35.3542C44.0805 35.3551 44.0707 35.3481 44.0665 35.3332C44.0283 35.1997 44.0266 35.0658 44.0614 34.9317C44.0628 34.9265 44.0657 34.9219 44.0696 34.9184C44.0736 34.9148 44.0784 34.9125 44.0837 34.9116C44.2884 34.8792 44.4902 34.8425 44.6891 34.8016C45.0188 34.7339 45.2821 34.6188 45.2967 34.2366C45.3041 34.0384 45.3075 33.8398 45.3069 33.6407C45.3007 31.6954 45.2797 29.751 45.2439 27.8076C45.2437 27.7994 45.2403 27.7916 45.2344 27.7859C45.2286 27.7802 45.2206 27.777 45.2124 27.7771C45.1914 27.7771 45.1769 27.7877 45.1689 27.8089C45.1644 27.821 45.1618 27.8279 45.1609 27.8296C44.7622 28.6754 44.0875 30.1188 43.1368 32.1599C42.6234 33.262 42.1613 34.3164 41.7507 35.3231C41.7463 35.3343 41.7379 35.3402 41.7256 35.3409L41.3571 35.3634C41.3444 35.3641 41.3359 35.3585 41.3317 35.3466C41.0294 34.518 40.6761 33.6311 40.2719 32.6859C39.5692 31.0428 38.856 29.4044 38.1323 27.7704C38.1206 27.7442 38.1029 27.7451 38.0792 27.7733C38.0728 27.7807 38.069 27.7901 38.0684 27.8C37.9448 29.6222 37.846 31.4472 37.772 33.2751C37.7644 33.4648 37.7629 33.6545 37.7676 33.8442C37.7765 34.22 37.7816 34.5275 38.1139 34.6951C38.352 34.8153 38.8709 34.8776 39.2 34.9078C39.2097 34.9087 39.2188 34.9128 39.226 34.9193C39.2332 34.9259 39.238 34.9345 39.2398 34.9441C39.2639 35.0763 39.2505 35.2044 39.1994 35.3282C39.1971 35.3337 39.1933 35.3385 39.1884 35.3421C39.1836 35.3456 39.1778 35.3477 39.1717 35.3482C39.1098 35.3533 39.0598 35.3549 39.0217 35.353C37.7562 35.2871 36.7228 35.3164 35.5676 35.3536C35.5593 35.3538 35.5512 35.3512 35.5448 35.346C35.5383 35.3409 35.5339 35.3337 35.5323 35.3256C35.5064 35.1978 35.5075 35.07 35.5355 34.9421C35.5375 34.9334 35.5421 34.9254 35.5487 34.9194C35.5554 34.9134 35.5638 34.9095 35.5727 34.9084C35.7953 34.8796 36.0204 34.8444 36.248 34.8029C36.6052 34.7376 36.8187 34.5267 36.8884 34.1701C36.9433 33.8899 36.9904 33.5439 37.0296 33.1323C37.2492 30.8321 37.4082 28.866 37.5065 27.234C37.5195 27.0168 37.4492 26.842 37.2957 26.7097C37.2262 26.6499 37.1252 26.6008 36.9927 26.5622C36.6802 26.4709 36.3574 26.4286 36.0379 26.3746C36.0332 26.3737 36.0289 26.3715 36.0254 26.3681C36.022 26.3648 36.0197 26.3605 36.0188 26.3558C35.9955 26.2329 36.0021 26.1113 36.0388 25.9911C36.0421 25.9802 36.0489 25.9707 36.0581 25.9641C36.0674 25.9574 36.0786 25.9539 36.09 25.9542L38.8118 26.0054C38.8218 26.0056 38.8275 26.0107 38.829 26.0207C38.8625 26.2469 38.9053 26.4178 38.9574 26.5336C39.7093 28.1995 40.4783 29.8576 41.2643 31.5078C41.4968 31.996 41.7352 32.4811 41.9794 32.9631C41.9895 32.9837 42.0052 32.9894 42.0264 32.9803Z" fill="#C08A4C"/>
<path d="M52.0755 26.4595C51.5493 26.5342 51.4704 26.7886 51.4479 27.2814C51.4337 27.5911 51.4261 27.9011 51.4253 28.2114C51.4204 29.9842 51.4259 31.7569 51.4418 33.5294C51.4448 33.8701 51.4569 34.1138 51.4781 34.2607C51.5305 34.6235 51.8062 34.7405 52.1385 34.8019C52.381 34.8469 52.625 34.8833 52.8704 34.9113C52.8759 34.9119 52.881 34.9141 52.8851 34.9177C52.8892 34.9213 52.892 34.926 52.8933 34.9313C52.907 34.9886 52.9388 35.3574 52.8145 35.3523C51.7499 35.3086 50.9736 35.2939 50.4854 35.3081C49.6309 35.3331 49.0784 35.3485 48.8278 35.3542C48.7827 35.3553 48.7571 35.3359 48.7512 35.296C48.7312 35.1634 48.713 35.0566 48.7607 34.9266C48.7625 34.9217 48.7657 34.9176 48.7698 34.9145C48.7739 34.9115 48.7788 34.9097 48.7839 34.9094C49.0635 34.8941 49.3363 34.8498 49.6021 34.7765C49.8596 34.7056 50.0246 34.5828 50.0564 34.3167C50.105 33.9131 50.1304 33.4758 50.1328 33.0048C50.14 31.5951 50.1412 30.1855 50.1366 28.7758C50.1349 28.2402 50.119 27.7049 50.0889 27.1701C50.0791 26.9976 50.047 26.8551 49.9925 26.7428C49.8644 26.4782 49.1576 26.4273 48.7906 26.3777C48.7855 26.3771 48.7808 26.3748 48.7771 26.3713C48.7733 26.3677 48.7709 26.3631 48.77 26.358C48.7452 26.2264 48.7519 26.0967 48.7903 25.9688C48.7919 25.9639 48.795 25.9596 48.7992 25.9565C48.8034 25.9535 48.8084 25.9519 48.8135 25.952C49.6975 25.9688 50.6634 26.0191 51.4631 25.9882C51.8542 25.9732 52.245 25.9605 52.6355 25.9501C52.6418 25.9499 52.6481 25.9519 52.6532 25.9557C52.6583 25.9595 52.6621 25.9649 52.6638 25.9711C52.6979 26.0983 52.7027 26.2267 52.6781 26.3564C52.677 26.3617 52.6744 26.3665 52.6705 26.3703C52.6665 26.374 52.6615 26.3764 52.6561 26.3771C52.46 26.4047 52.2665 26.4321 52.0755 26.4595Z" fill="#C08A4C"/>
<path d="M2.10581 37.8992C2.15965 37.9698 2.22642 38.0284 2.30613 38.075C2.56145 38.2251 2.87751 38.3682 3.07529 38.5911C3.30963 38.855 3.28419 39.2594 3.07688 39.5183C2.72902 39.9532 2.03777 39.9338 1.57608 39.7431C1.56398 39.7381 1.55333 39.7302 1.54511 39.72C1.53688 39.7098 1.53135 39.6977 1.52902 39.6849L1.41455 39.062C1.41326 39.0549 1.41454 39.0477 1.41817 39.0415C1.4218 39.0354 1.42752 39.0308 1.43427 39.0286L1.54015 38.9936C1.54312 38.9927 1.54625 38.9923 1.54935 38.9926C1.55245 38.9928 1.55546 38.9937 1.55821 38.9951C1.56096 38.9965 1.5634 38.9985 1.56537 39.0008C1.56735 39.0032 1.56883 39.0059 1.56972 39.0089C1.69468 39.4111 1.91598 39.7224 2.37862 39.6951C2.7198 39.675 2.83808 39.2741 2.63649 39.0318C2.54619 38.9237 2.42346 38.8413 2.28005 38.7542C1.89818 38.523 1.50963 38.2897 1.54015 37.7749C1.56908 37.296 2.02028 37.0518 2.45494 37.0636C2.68429 37.0699 2.91175 37.0951 3.13729 37.1389C3.14407 37.1402 3.14704 37.1442 3.14619 37.151L3.07465 37.7685C3.07338 37.7795 3.06712 37.785 3.05589 37.785L2.96145 37.7863C2.94852 37.7865 2.94089 37.7802 2.93856 37.7672C2.88832 37.4931 2.83713 37.2671 2.52107 37.2191C2.11217 37.1571 1.83967 37.551 2.10581 37.8992Z" fill="#9B8579"/>
<path d="M7.41025 37.6127C7.90532 36.9517 9.08052 36.8588 9.63346 37.4728C10.0875 37.9762 10.0866 38.8607 9.65667 39.3749C9.05095 40.0986 7.7139 40.055 7.28497 39.1393C7.05635 38.6515 7.08147 38.0522 7.41025 37.6127ZM9.35238 38.3269C9.32249 37.9654 9.1705 37.5336 8.84427 37.3444C8.56414 37.1822 8.20262 37.215 7.98958 37.4668C7.52122 38.0204 7.72153 39.6696 8.66716 39.6716C9.34029 39.6731 9.39467 38.834 9.35238 38.3269Z" fill="#9B8579"/>
<path d="M40.4485 39.0566C40.2332 39.6143 39.623 39.89 39.0469 39.8674C38.3861 39.8416 37.9146 39.4629 37.7718 38.8327C37.6043 38.0922 37.9289 37.4277 38.6411 37.1587C39.1483 36.9672 39.8504 37.0477 40.2326 37.4785C40.6087 37.903 40.6488 38.538 40.4485 39.0566ZM39.9486 38.3428C39.9213 37.9758 39.7674 37.53 39.4322 37.3415C39.1664 37.192 38.8294 37.2108 38.6135 37.4353C38.1585 37.9084 38.2977 39.1596 38.8345 39.5351C39.1016 39.7221 39.4822 39.7389 39.7092 39.4827C39.9569 39.2032 39.9769 38.7189 39.9486 38.3428Z" fill="#9B8579"/>
<path d="M51.2301 39.0098C51.3461 39.393 51.5506 39.697 51.9932 39.6963C52.2081 39.696 52.3665 39.5666 52.3909 39.3526C52.4192 39.1065 52.2278 38.9402 52.039 38.8184C51.8027 38.6658 51.5146 38.5202 51.3467 38.2903C51.1353 38.0003 51.1461 37.5911 51.3935 37.3319C51.7591 36.9491 52.3382 37.0639 52.7944 37.1361C52.8021 37.1371 52.8055 37.1415 52.8046 37.1491L52.7328 37.7688C52.7323 37.7729 52.7304 37.7767 52.7274 37.7794C52.7244 37.7822 52.7206 37.7837 52.7165 37.7838L52.6262 37.7873C52.6103 37.7879 52.6009 37.7804 52.5979 37.7647C52.5607 37.5682 52.5369 37.372 52.3337 37.2677C52.0634 37.1291 51.646 37.2588 51.6615 37.6159C51.6687 37.7834 51.7405 37.915 51.8768 38.0108C52.1611 38.2108 52.5941 38.3676 52.7887 38.6623C53.0046 38.9885 52.8949 39.4362 52.5833 39.669C52.2377 39.9272 51.6936 39.9122 51.2946 39.7685C51.2662 39.7583 51.2403 39.7437 51.217 39.7246C51.2083 39.7176 51.2025 39.7086 51.1995 39.6976C51.1423 39.4856 51.1032 39.2703 51.0822 39.0515C51.0809 39.0375 51.087 39.0285 51.1003 39.0245L51.1995 38.9936C51.2026 38.9927 51.2059 38.9924 51.2091 38.9927C51.2123 38.993 51.2154 38.9939 51.2183 38.9954C51.2211 38.9969 51.2236 38.999 51.2256 39.0015C51.2276 39.0039 51.2292 39.0068 51.2301 39.0098Z" fill="#9B8579"/>
<path d="M27.8546 37.3533C27.85 37.3536 27.8458 37.3556 27.8427 37.3589C27.8396 37.3622 27.8378 37.3665 27.8377 37.3711C27.8326 38.0246 27.834 38.679 27.8419 39.3342C27.8457 39.662 28.0059 39.6191 28.2555 39.6684C28.2613 39.6694 28.2663 39.6727 28.2697 39.6775C28.2731 39.6823 28.2745 39.6883 28.2737 39.6941L28.2597 39.7889C28.2589 39.7941 28.2562 39.7988 28.2523 39.8021C28.2483 39.8055 28.2432 39.8072 28.238 39.807C27.7702 39.789 27.3025 39.7882 26.8349 39.8048C26.8323 39.8049 26.8297 39.8045 26.8273 39.8036C26.8249 39.8028 26.8227 39.8014 26.8209 39.7996C26.819 39.7979 26.8175 39.7958 26.8165 39.7934C26.8154 39.7911 26.8149 39.7886 26.8148 39.786L26.8132 39.689C26.813 39.6748 26.8199 39.667 26.8339 39.6655C26.9535 39.6531 27.1923 39.6474 27.2539 39.524C27.279 39.4744 27.2919 39.3628 27.2927 39.1892C27.2955 38.6166 27.2953 38.0148 27.2921 37.3838C27.2919 37.3647 27.2823 37.3545 27.2635 37.3533C27.1666 37.3467 27.0662 37.345 26.9624 37.3482C26.7884 37.3536 26.6873 37.3367 26.6097 37.4779C26.5487 37.5886 26.4924 37.7198 26.4409 37.8716C26.439 37.8772 26.4351 37.882 26.4298 37.885C26.4246 37.8879 26.4185 37.8888 26.4126 37.8874L26.308 37.8646C26.3028 37.8634 26.2982 37.8604 26.2951 37.8561C26.292 37.8518 26.2906 37.8466 26.2911 37.8413L26.3789 37.0929C26.3792 37.0907 26.3799 37.0886 26.3811 37.0867C26.3823 37.0848 26.3838 37.0832 26.3857 37.082C26.3875 37.0808 26.3896 37.08 26.3918 37.0797C26.394 37.0794 26.3962 37.0795 26.3983 37.0801C26.5374 37.12 26.6617 37.1401 26.7713 37.1405C27.3201 37.1422 27.8687 37.1422 28.4171 37.1405C28.6037 37.1399 28.7099 37.1107 28.8549 37.0871C28.8577 37.0867 28.8605 37.087 28.8631 37.0879C28.8658 37.0888 28.8681 37.0903 28.87 37.0923C28.872 37.0944 28.8733 37.0969 28.8741 37.0995C28.8748 37.1022 28.8749 37.1051 28.8743 37.1078C28.8209 37.3569 28.7868 37.6085 28.7722 37.8626C28.7719 37.8685 28.7693 37.874 28.7651 37.878C28.7608 37.882 28.7552 37.8843 28.7493 37.8843L28.6307 37.8839C28.625 37.884 28.6194 37.8818 28.6152 37.8779C28.611 37.874 28.6085 37.8686 28.6082 37.863C28.598 37.7173 28.5608 37.3758 28.3849 37.3593C28.2058 37.3428 28.029 37.3408 27.8546 37.3533Z" fill="#9B8579"/>
<path d="M14.7374 39.4032C14.7393 39.4814 14.7679 39.5549 14.8544 39.5653C14.971 39.5796 15.0882 39.587 15.2061 39.5876C15.4544 39.5889 15.5816 39.6102 15.7088 39.4038C15.8224 39.22 15.9084 39.0616 15.9667 38.9285C15.9677 38.926 15.9692 38.9238 15.9711 38.922C15.973 38.9201 15.9753 38.9187 15.9777 38.9177C15.9802 38.9167 15.9829 38.9162 15.9856 38.9163C15.9883 38.9163 15.9909 38.9169 15.9934 38.918L16.1098 38.9682C16.1151 38.9705 16.1194 38.9746 16.122 38.9799C16.1245 38.9851 16.1252 38.9911 16.1237 38.9968C16.0871 39.1461 16.0171 39.3643 15.9139 39.6515C15.8812 39.742 15.8263 39.7961 15.7492 39.8137C15.7333 39.8173 15.6631 39.8171 15.5387 39.813C14.9564 39.7946 14.3741 39.7906 13.7918 39.801C13.7778 39.8012 13.7707 39.7943 13.7705 39.7803L13.7695 39.6868C13.7695 39.6811 13.7716 39.6755 13.7754 39.6712C13.7791 39.6669 13.7843 39.6641 13.7899 39.6633C13.953 39.641 14.1708 39.6595 14.1768 39.4277C14.1917 38.8235 14.1947 38.2194 14.1857 37.6153C14.1842 37.5164 14.1972 37.3561 14.0767 37.3183C13.9953 37.2931 13.9123 37.2771 13.8277 37.2703C13.8129 37.2692 13.806 37.2613 13.8071 37.2464L13.814 37.1495C13.8145 37.143 13.8174 37.1369 13.8222 37.1326C13.827 37.1283 13.8333 37.126 13.8398 37.1262C14.2457 37.1445 14.6517 37.1448 15.0576 37.1272C15.0606 37.1271 15.0635 37.1275 15.0663 37.1286C15.0691 37.1297 15.0716 37.1313 15.0738 37.1334C15.0759 37.1355 15.0775 37.138 15.0786 37.1408C15.0797 37.1435 15.0803 37.1465 15.0802 37.1495L15.0773 37.2518C15.0771 37.2637 15.0711 37.2703 15.0592 37.2715C14.8961 37.29 14.7412 37.2909 14.7368 37.4782C14.7219 38.1199 14.7222 38.7615 14.7374 39.4032Z" fill="#9B8579"/>
<path d="M21.5258 39.5526C21.968 39.4203 21.9744 38.9313 21.9836 38.5587C21.9909 38.262 21.9957 37.8369 21.9706 37.504C21.955 37.2989 21.7019 37.2887 21.5483 37.2674C21.5337 37.2655 21.5269 37.2571 21.528 37.2423L21.5347 37.1444C21.5348 37.1417 21.5355 37.1391 21.5367 37.1368C21.5378 37.1344 21.5394 37.1323 21.5414 37.1305C21.5434 37.1288 21.5457 37.1275 21.5482 37.1266C21.5507 37.1258 21.5533 37.1254 21.556 37.1256C21.8975 37.1445 22.2389 37.1452 22.5804 37.1278C22.5974 37.127 22.6056 37.135 22.6049 37.152L22.6017 37.2496C22.6016 37.2552 22.5994 37.2605 22.5956 37.2646C22.5918 37.2687 22.5866 37.2712 22.5811 37.2719C22.4059 37.2903 22.2603 37.3224 22.2536 37.5358C22.2423 37.8949 22.2296 38.2539 22.2154 38.613C22.1967 39.0836 22.0822 39.6003 21.5982 39.786C21.3513 39.881 21.0724 39.9028 20.7617 39.8515C20.4051 39.7928 20.1695 39.6193 20.0548 39.331C20.0082 39.2138 19.979 39.0051 19.9671 38.7049C19.9515 38.3138 19.9652 37.923 19.9512 37.5316C19.9426 37.2935 19.7884 37.2957 19.6008 37.2661C19.5955 37.2652 19.5907 37.2624 19.5872 37.2583C19.5838 37.2542 19.582 37.2489 19.582 37.2436L19.5827 37.1459C19.5827 37.1433 19.5833 37.1407 19.5843 37.1383C19.5854 37.1359 19.5869 37.1338 19.5888 37.132C19.5907 37.1302 19.5929 37.1288 19.5954 37.1278C19.5978 37.1269 19.6004 37.1265 19.603 37.1265C20.0191 37.1441 20.4351 37.1441 20.851 37.1265C20.8659 37.1259 20.873 37.133 20.8723 37.1479L20.8682 37.2518C20.8678 37.2641 20.8615 37.271 20.8494 37.2725C20.6943 37.2935 20.5283 37.2973 20.5223 37.4804C20.51 37.8618 20.5066 38.2432 20.5121 38.6248C20.515 38.8421 20.5401 39.0251 20.5871 39.1739C20.7038 39.5444 21.2011 39.6499 21.5258 39.5526Z" fill="#9B8579"/>
<path d="M33.851 37.2684C33.6347 37.3126 33.5257 37.2731 33.5215 37.5558C33.5126 38.1585 33.5136 38.7612 33.5244 39.3641C33.5266 39.4989 33.5429 39.5959 33.684 39.6235C33.758 39.6382 33.8322 39.6498 33.9066 39.6585C33.9202 39.66 33.9261 39.6674 33.9244 39.6808L33.912 39.7851C33.9103 39.7993 33.9023 39.8061 33.8878 39.8054C33.4673 39.7885 33.0468 39.7884 32.6265 39.8051C32.6155 39.8055 32.6078 39.8007 32.6036 39.7905C32.5885 39.7538 32.5879 39.7178 32.6017 39.6824C32.6065 39.6699 32.6157 39.6628 32.629 39.6611C32.7851 39.6407 32.9667 39.6448 32.9715 39.4277C32.9855 38.7799 32.9847 38.1321 32.9692 37.4843C32.9645 37.2859 32.761 37.2859 32.6188 37.2674C32.6127 37.2666 32.6071 37.2635 32.6032 37.2587C32.5993 37.2539 32.5974 37.2478 32.5979 37.2417L32.6049 37.1444C32.6052 37.1392 32.6075 37.1345 32.6114 37.131C32.6152 37.1276 32.6203 37.1257 32.6255 37.1259C33.0338 37.1448 33.4422 37.1454 33.8506 37.1278C33.8534 37.1277 33.8562 37.1281 33.8588 37.1291C33.8613 37.1301 33.8637 37.1316 33.8657 37.1336C33.8676 37.1355 33.8692 37.1378 33.8702 37.1404C33.8712 37.143 33.8717 37.1457 33.8716 37.1485L33.87 37.2452C33.8698 37.2507 33.8678 37.256 33.8644 37.2602C33.8609 37.2644 33.8562 37.2673 33.851 37.2684Z" fill="#9B8579"/>
<path d="M45.0437 37.7564C45.0421 37.7541 45.0397 37.7524 45.037 37.7516C45.0343 37.7507 45.0314 37.7507 45.0287 37.7516C45.0261 37.7525 45.0237 37.7542 45.0221 37.7565C45.0204 37.7588 45.0195 37.7616 45.0196 37.7644C45.0117 38.2428 45.0132 38.7203 45.024 39.1968C45.0332 39.5987 45.0908 39.5987 45.4669 39.6614C45.4814 39.6637 45.4881 39.6722 45.4873 39.6868L45.4822 39.7895C45.482 39.7943 45.4798 39.7989 45.4762 39.8022C45.4727 39.8054 45.468 39.8072 45.4631 39.807C45.0992 39.7892 44.7352 39.7886 44.3712 39.8051C44.3596 39.8057 44.3536 39.8001 44.3534 39.7882L44.3525 39.6865C44.3525 39.6809 44.3544 39.6754 44.358 39.6711C44.3616 39.6668 44.3667 39.6639 44.3722 39.663C44.4752 39.6445 44.631 39.634 44.7016 39.5504C44.7805 39.4569 44.7754 39.2184 44.7789 39.0859C44.7946 38.4821 44.8023 38.0017 44.8021 37.6445C44.8021 37.3469 44.6199 37.3033 44.3668 37.27C44.3612 37.2692 44.3562 37.2665 44.3527 37.2622C44.3491 37.258 44.3473 37.2525 44.3477 37.2471L44.3528 37.1701C44.3534 37.1591 44.3583 37.1489 44.3664 37.1414C44.3744 37.1339 44.3851 37.1299 44.396 37.13L45.2202 37.1415C45.2312 37.1417 45.2401 37.1461 45.2469 37.1545L46.7515 39.041C46.7782 39.0747 46.7917 39.0701 46.7919 39.027C46.7936 38.6872 46.7948 38.3491 46.7954 38.0127C46.796 37.7899 46.7859 37.6124 46.7649 37.4801C46.7382 37.3119 46.4857 37.2852 46.3251 37.2715C46.3188 37.2711 46.3129 37.2681 46.3087 37.2634C46.3045 37.2586 46.3023 37.2524 46.3026 37.2461L46.3064 37.145C46.3068 37.1319 46.3136 37.1256 46.3267 37.1262C46.6826 37.1445 47.0386 37.1449 47.3948 37.1275C47.4071 37.1269 47.4129 37.1327 47.4122 37.145L47.4072 37.2534C47.407 37.2587 47.4049 37.2637 47.4013 37.2674C47.3976 37.2712 47.3927 37.2735 47.3874 37.2738C47.1474 37.2906 47.0447 37.3755 47.0367 37.6232C47.0102 38.4317 47.0024 39.1564 47.0132 39.7975C47.0134 39.8091 47.0076 39.8151 46.9957 39.8153L46.6393 39.8175C46.6355 39.8175 46.6318 39.8166 46.6285 39.815C46.6251 39.8133 46.6222 39.8109 46.6199 39.808L45.0437 37.7564Z" fill="#9B8579"/>
</g>
<defs>
<clipPath id="clip0_2988_10367">
<rect width="53.0048" height="40" fill="white"/>
</clipPath>
</defs>
</svg>
