<svg width="81" height="81" viewBox="0 0 81 81" fill="none" xmlns="http://www.w3.org/2000/svg">
<rect width="80" height="80" transform="translate(0.5 0.584473)" fill="#CEDBDF"/>
<path d="M32.238 50.719L32.355 50.5823L32.238 50.719C33.708 51.9774 34.649 53.7106 34.9834 55.7679C34.203 56.2724 33.6842 57.1462 33.6842 58.1395V58.9335C33.6842 60.1536 34.4663 61.1933 35.5568 61.5901C35.4429 61.8993 35.3844 62.2267 35.3845 62.5572C35.3845 62.5572 35.3845 62.5572 35.3845 62.5572V63.3511C35.3845 64.9128 36.6653 66.1805 38.2366 66.1805H43.8756C45.4469 66.1805 46.7277 64.9128 46.7277 63.3511V62.5572C46.7277 62.2176 46.6666 61.8919 46.5554 61.5901C47.6459 61.1933 48.428 60.1537 48.428 58.9335V58.1395C48.428 57.1462 47.9093 56.2724 47.1288 55.7679C47.4634 53.7106 48.4044 51.9774 49.8742 50.719C52.8398 48.1801 54.5422 44.5286 54.5422 40.6997C54.5422 37.1155 53.1632 33.7946 50.6574 31.3518C48.1512 28.9087 44.74 27.5658 41.0561 27.5658C37.3722 27.5658 33.9609 28.9087 31.4547 31.3518C28.9489 33.7946 27.57 37.1155 27.57 40.6997C27.57 44.5284 29.2724 48.18 32.238 50.719ZM48.5506 49.1729C46.7352 50.7271 45.5712 52.8373 45.1423 55.3101H43.8937V46.8372H45.4024C47.0958 46.8372 48.476 45.4712 48.476 43.7888C48.476 42.1062 47.0958 40.7403 45.4024 40.7403H44.9321C43.2386 40.7403 41.8585 42.1062 41.8585 43.7888V44.802H40.3134V43.7888C40.3134 42.1062 38.9333 40.7403 37.2398 40.7403H36.7968C35.1034 40.7403 33.7232 42.1062 33.7232 43.7888C33.7232 45.4713 35.1034 46.8372 36.7968 46.8372H38.2782V55.3101H36.9696C36.5407 52.8373 35.3767 50.7271 33.5613 49.1729C31.0459 47.0194 29.6049 43.9305 29.6049 40.6997C29.6049 34.3744 34.5192 29.601 41.0558 29.601C47.5925 29.601 52.5068 34.3744 52.5068 40.6997C52.507 43.9306 51.0661 47.0193 48.5506 49.1729ZM44.6925 63.351C44.6925 63.7849 44.3298 64.1452 43.8756 64.1452H38.2365C37.7823 64.1452 37.4196 63.7849 37.4196 63.351V62.5571C37.4196 62.1231 37.7823 61.7627 38.2365 61.7627H43.8755C44.3297 61.7627 44.6924 62.123 44.6924 62.5571L44.6925 63.351ZM46.3927 58.9334C46.3927 59.3673 46.0301 59.7276 45.5759 59.7276H36.5361C36.082 59.7276 35.7193 59.3673 35.7193 58.9334V58.1394C35.7193 57.7055 36.082 57.3452 36.5361 57.3452H45.5759C46.0301 57.3452 46.3927 57.7055 46.3927 58.1394V58.9334ZM38.2783 44.802H36.797C36.2209 44.802 35.7586 44.3438 35.7586 43.7888C35.7586 43.2337 36.221 42.7754 36.797 42.7754H37.2399C37.8159 42.7754 38.2783 43.2337 38.2783 43.7888V44.802ZM41.8586 55.3101H40.3135V46.8372H41.8586V55.3101ZM43.8938 44.802V43.7888C43.8938 43.2337 44.3562 42.7754 44.9322 42.7754H45.4025C45.9785 42.7754 46.4409 43.2337 46.4409 43.7888C46.4409 44.3438 45.9785 44.802 45.4025 44.802H43.8938Z" fill="#FB7A00" stroke="#FB7A00" stroke-width="0.36"/>
<mask id="path-2-outside-1_2705_31768" maskUnits="userSpaceOnUse" x="16.502" y="16.0005" width="49" height="44" fill="black">
<rect fill="white" x="16.502" y="16.0005" width="49" height="44"/>
<path d="M54.4739 59.3543C53.8524 59.3543 53.2496 59.1193 52.785 58.656L50.4296 56.3071L51.6125 55.121L53.9679 57.4699C54.2877 57.7887 54.7157 57.6952 55.0052 57.5088L57.8925 54.7255C58.2034 54.4111 58.1135 53.9925 57.9308 53.7068L55.6312 51.4136C55.4926 51.2754 55.4068 51.093 55.3887 50.8981C55.3705 50.7033 55.4212 50.5082 55.532 50.3468C56.7853 48.52 57.6909 46.391 58.1507 44.1899C58.1901 44.0016 58.2931 43.8325 58.4424 43.7112C58.5917 43.5899 58.7782 43.5236 58.9706 43.5236H62.2469C62.5239 43.4755 62.942 43.277 62.942 42.7952V38.7455C62.9059 38.5378 62.7524 38.0542 62.1112 38.0542H58.7743C58.5761 38.0542 58.3843 37.984 58.233 37.8559C58.0818 37.7278 57.9808 37.5502 57.9481 37.3547C57.6006 35.2753 56.7273 33.1183 55.4228 31.1167C55.3177 30.9555 55.2714 30.7632 55.2914 30.5719C55.3115 30.3806 55.3968 30.202 55.533 30.0662L57.8885 27.7173C58.206 27.4006 58.1131 26.9764 57.9274 26.6894L55.1364 23.8102C54.8192 23.4982 54.3967 23.5886 54.1086 23.7721L51.8089 26.0653C51.6708 26.203 51.4891 26.2882 51.2949 26.3062C51.1008 26.3243 50.9064 26.274 50.7454 26.1641C48.9131 24.9139 46.7776 24.0106 44.5697 23.5519C44.3812 23.5128 44.2119 23.4098 44.0903 23.2605C43.9688 23.1111 43.9025 22.9244 43.9025 22.7318V19.404C43.9025 18.9684 43.5743 18.6756 43.2679 18.6756H39.2063C38.9294 18.7237 38.5112 18.9223 38.5112 19.404V22.8295C38.5112 23.0279 38.4409 23.2198 38.3126 23.3711C38.1844 23.5224 38.0067 23.6233 37.811 23.6558C35.7251 24.0026 33.5613 24.8736 31.5537 26.1749C31.3929 26.2791 31.2013 26.3251 31.0108 26.3051C30.8203 26.2851 30.6423 26.2005 30.5067 26.0652L28.1512 23.7163C27.8315 23.3976 27.4035 23.491 27.114 23.6774L24.2265 26.4608C23.9158 26.7751 24.0058 27.1936 24.1885 27.4792L26.4881 29.7724C26.6267 29.9107 26.7125 30.093 26.7306 30.2879C26.7487 30.4828 26.6981 30.6779 26.5873 30.8393C25.334 32.6661 24.4284 34.7951 23.9686 36.9963C23.9292 37.1846 23.8262 37.3536 23.6769 37.475C23.5276 37.5963 23.3411 37.6626 23.1487 37.6626H19.8724C19.5954 37.7106 19.1772 37.9092 19.1772 38.3909V42.4404C19.2255 42.7161 19.4251 43.132 19.9099 43.132H23.2467C23.4449 43.1319 23.6367 43.2022 23.7879 43.3303C23.9392 43.4584 24.0402 43.6359 24.0728 43.8314C24.4203 45.9109 25.2937 48.068 26.5983 50.0695C26.7033 50.2307 26.7497 50.423 26.7296 50.6143C26.7096 50.8056 26.6243 50.9841 26.4881 51.12L24.1326 53.4688C23.8151 53.7856 23.9079 54.2098 24.0938 54.4968L26.8848 57.3761C27.2021 57.688 27.6245 57.5976 27.9126 57.4142L30.2123 55.1209L31.3952 56.307L29.0397 58.6559C29.0071 58.6884 28.9718 58.7183 28.9343 58.745C27.8871 59.4909 26.5561 59.4141 25.6977 58.558L25.6877 58.5478L22.8416 55.6119C22.8128 55.5822 22.7862 55.5503 22.762 55.5167C22.0124 54.4703 22.0896 53.1404 22.9496 52.2827L24.8315 50.4061C23.738 48.6007 22.9605 46.6887 22.5546 44.8071H19.9099C18.6783 44.8071 17.6683 43.8813 17.5084 42.6056C17.5041 42.5711 17.502 42.5363 17.502 42.5015V38.3909C17.502 37.1614 18.4297 36.1532 19.7081 35.9938C19.7424 35.9895 19.7771 35.9873 19.8117 35.9873H22.4808C22.9634 34.0384 23.7628 32.1563 24.8215 30.4761L22.9497 28.6096C22.917 28.577 22.8871 28.5418 22.8602 28.5042C22.1107 27.4578 22.1878 26.1279 23.0478 25.2703L23.058 25.2604L26.0023 22.4221C26.0321 22.3935 26.0639 22.367 26.0976 22.343C27.1448 21.597 28.4758 21.6739 29.3342 22.5301L31.2185 24.4091C33.03 23.3175 34.9485 22.5416 36.8362 22.1366V19.404C36.8362 18.1744 37.764 17.1662 39.0424 17.007C39.0765 17.0027 39.1112 17.0005 39.1457 17.0005H43.2678C44.5414 17.0005 45.5776 18.0787 45.5776 19.404V22.063C47.5331 22.5445 49.4213 23.3423 51.107 24.3992L52.9814 22.5301C53.014 22.4975 53.0492 22.4677 53.0868 22.441C54.1339 21.695 55.4648 21.7719 56.3234 22.628L56.3333 22.6381L59.1795 25.5743C59.2083 25.604 59.2349 25.6358 59.2591 25.6696C60.0086 26.716 59.9314 28.0459 59.0715 28.9035L57.1897 30.78C58.2831 32.5855 59.0606 34.4977 59.4666 36.3791H62.1113C63.4205 36.3791 64.4483 37.2843 64.6108 38.5805C64.6151 38.6151 64.6173 38.65 64.6173 38.6847V42.7952C64.6173 44.0248 63.6896 45.0329 62.4112 45.1924C62.3768 45.1967 62.3422 45.1989 62.3075 45.1989H59.6385C59.1558 47.1477 58.3565 49.0299 57.2978 50.7101L59.1696 52.5766C59.2023 52.6092 59.2322 52.6445 59.2591 52.6819C60.0086 53.7284 59.9315 55.0583 59.0715 55.9159L59.0613 55.9259L56.117 58.7641C56.0872 58.7928 56.0553 58.8193 56.0216 58.8433C55.5411 59.1852 55.0007 59.3543 54.4739 59.3543Z"/>
</mask>
<path d="M54.4739 59.3543C53.8524 59.3543 53.2496 59.1193 52.785 58.656L50.4296 56.3071L51.6125 55.121L53.9679 57.4699C54.2877 57.7887 54.7157 57.6952 55.0052 57.5088L57.8925 54.7255C58.2034 54.4111 58.1135 53.9925 57.9308 53.7068L55.6312 51.4136C55.4926 51.2754 55.4068 51.093 55.3887 50.8981C55.3705 50.7033 55.4212 50.5082 55.532 50.3468C56.7853 48.52 57.6909 46.391 58.1507 44.1899C58.1901 44.0016 58.2931 43.8325 58.4424 43.7112C58.5917 43.5899 58.7782 43.5236 58.9706 43.5236H62.2469C62.5239 43.4755 62.942 43.277 62.942 42.7952V38.7455C62.9059 38.5378 62.7524 38.0542 62.1112 38.0542H58.7743C58.5761 38.0542 58.3843 37.984 58.233 37.8559C58.0818 37.7278 57.9808 37.5502 57.9481 37.3547C57.6006 35.2753 56.7273 33.1183 55.4228 31.1167C55.3177 30.9555 55.2714 30.7632 55.2914 30.5719C55.3115 30.3806 55.3968 30.202 55.533 30.0662L57.8885 27.7173C58.206 27.4006 58.1131 26.9764 57.9274 26.6894L55.1364 23.8102C54.8192 23.4982 54.3967 23.5886 54.1086 23.7721L51.8089 26.0653C51.6708 26.203 51.4891 26.2882 51.2949 26.3062C51.1008 26.3243 50.9064 26.274 50.7454 26.1641C48.9131 24.9139 46.7776 24.0106 44.5697 23.5519C44.3812 23.5128 44.2119 23.4098 44.0903 23.2605C43.9688 23.1111 43.9025 22.9244 43.9025 22.7318V19.404C43.9025 18.9684 43.5743 18.6756 43.2679 18.6756H39.2063C38.9294 18.7237 38.5112 18.9223 38.5112 19.404V22.8295C38.5112 23.0279 38.4409 23.2198 38.3126 23.3711C38.1844 23.5224 38.0067 23.6233 37.811 23.6558C35.7251 24.0026 33.5613 24.8736 31.5537 26.1749C31.3929 26.2791 31.2013 26.3251 31.0108 26.3051C30.8203 26.2851 30.6423 26.2005 30.5067 26.0652L28.1512 23.7163C27.8315 23.3976 27.4035 23.491 27.114 23.6774L24.2265 26.4608C23.9158 26.7751 24.0058 27.1936 24.1885 27.4792L26.4881 29.7724C26.6267 29.9107 26.7125 30.093 26.7306 30.2879C26.7487 30.4828 26.6981 30.6779 26.5873 30.8393C25.334 32.6661 24.4284 34.7951 23.9686 36.9963C23.9292 37.1846 23.8262 37.3536 23.6769 37.475C23.5276 37.5963 23.3411 37.6626 23.1487 37.6626H19.8724C19.5954 37.7106 19.1772 37.9092 19.1772 38.3909V42.4404C19.2255 42.7161 19.4251 43.132 19.9099 43.132H23.2467C23.4449 43.1319 23.6367 43.2022 23.7879 43.3303C23.9392 43.4584 24.0402 43.6359 24.0728 43.8314C24.4203 45.9109 25.2937 48.068 26.5983 50.0695C26.7033 50.2307 26.7497 50.423 26.7296 50.6143C26.7096 50.8056 26.6243 50.9841 26.4881 51.12L24.1326 53.4688C23.8151 53.7856 23.9079 54.2098 24.0938 54.4968L26.8848 57.3761C27.2021 57.688 27.6245 57.5976 27.9126 57.4142L30.2123 55.1209L31.3952 56.307L29.0397 58.6559C29.0071 58.6884 28.9718 58.7183 28.9343 58.745C27.8871 59.4909 26.5561 59.4141 25.6977 58.558L25.6877 58.5478L22.8416 55.6119C22.8128 55.5822 22.7862 55.5503 22.762 55.5167C22.0124 54.4703 22.0896 53.1404 22.9496 52.2827L24.8315 50.4061C23.738 48.6007 22.9605 46.6887 22.5546 44.8071H19.9099C18.6783 44.8071 17.6683 43.8813 17.5084 42.6056C17.5041 42.5711 17.502 42.5363 17.502 42.5015V38.3909C17.502 37.1614 18.4297 36.1532 19.7081 35.9938C19.7424 35.9895 19.7771 35.9873 19.8117 35.9873H22.4808C22.9634 34.0384 23.7628 32.1563 24.8215 30.4761L22.9497 28.6096C22.917 28.577 22.8871 28.5418 22.8602 28.5042C22.1107 27.4578 22.1878 26.1279 23.0478 25.2703L23.058 25.2604L26.0023 22.4221C26.0321 22.3935 26.0639 22.367 26.0976 22.343C27.1448 21.597 28.4758 21.6739 29.3342 22.5301L31.2185 24.4091C33.03 23.3175 34.9485 22.5416 36.8362 22.1366V19.404C36.8362 18.1744 37.764 17.1662 39.0424 17.007C39.0765 17.0027 39.1112 17.0005 39.1457 17.0005H43.2678C44.5414 17.0005 45.5776 18.0787 45.5776 19.404V22.063C47.5331 22.5445 49.4213 23.3423 51.107 24.3992L52.9814 22.5301C53.014 22.4975 53.0492 22.4677 53.0868 22.441C54.1339 21.695 55.4648 21.7719 56.3234 22.628L56.3333 22.6381L59.1795 25.5743C59.2083 25.604 59.2349 25.6358 59.2591 25.6696C60.0086 26.716 59.9314 28.0459 59.0715 28.9035L57.1897 30.78C58.2831 32.5855 59.0606 34.4977 59.4666 36.3791H62.1113C63.4205 36.3791 64.4483 37.2843 64.6108 38.5805C64.6151 38.6151 64.6173 38.65 64.6173 38.6847V42.7952C64.6173 44.0248 63.6896 45.0329 62.4112 45.1924C62.3768 45.1967 62.3422 45.1989 62.3075 45.1989H59.6385C59.1558 47.1477 58.3565 49.0299 57.2978 50.7101L59.1696 52.5766C59.2023 52.6092 59.2322 52.6445 59.2591 52.6819C60.0086 53.7284 59.9315 55.0583 59.0715 55.9159L59.0613 55.9259L56.117 58.7641C56.0872 58.7928 56.0553 58.8193 56.0216 58.8433C55.5411 59.1852 55.0007 59.3543 54.4739 59.3543Z" fill="#FB7A00"/>
<path d="M54.4739 59.3543C53.8524 59.3543 53.2496 59.1193 52.785 58.656L50.4296 56.3071L51.6125 55.121L53.9679 57.4699C54.2877 57.7887 54.7157 57.6952 55.0052 57.5088L57.8925 54.7255C58.2034 54.4111 58.1135 53.9925 57.9308 53.7068L55.6312 51.4136C55.4926 51.2754 55.4068 51.093 55.3887 50.8981C55.3705 50.7033 55.4212 50.5082 55.532 50.3468C56.7853 48.52 57.6909 46.391 58.1507 44.1899C58.1901 44.0016 58.2931 43.8325 58.4424 43.7112C58.5917 43.5899 58.7782 43.5236 58.9706 43.5236H62.2469C62.5239 43.4755 62.942 43.277 62.942 42.7952V38.7455C62.9059 38.5378 62.7524 38.0542 62.1112 38.0542H58.7743C58.5761 38.0542 58.3843 37.984 58.233 37.8559C58.0818 37.7278 57.9808 37.5502 57.9481 37.3547C57.6006 35.2753 56.7273 33.1183 55.4228 31.1167C55.3177 30.9555 55.2714 30.7632 55.2914 30.5719C55.3115 30.3806 55.3968 30.202 55.533 30.0662L57.8885 27.7173C58.206 27.4006 58.1131 26.9764 57.9274 26.6894L55.1364 23.8102C54.8192 23.4982 54.3967 23.5886 54.1086 23.7721L51.8089 26.0653C51.6708 26.203 51.4891 26.2882 51.2949 26.3062C51.1008 26.3243 50.9064 26.274 50.7454 26.1641C48.9131 24.9139 46.7776 24.0106 44.5697 23.5519C44.3812 23.5128 44.2119 23.4098 44.0903 23.2605C43.9688 23.1111 43.9025 22.9244 43.9025 22.7318V19.404C43.9025 18.9684 43.5743 18.6756 43.2679 18.6756H39.2063C38.9294 18.7237 38.5112 18.9223 38.5112 19.404V22.8295C38.5112 23.0279 38.4409 23.2198 38.3126 23.3711C38.1844 23.5224 38.0067 23.6233 37.811 23.6558C35.7251 24.0026 33.5613 24.8736 31.5537 26.1749C31.3929 26.2791 31.2013 26.3251 31.0108 26.3051C30.8203 26.2851 30.6423 26.2005 30.5067 26.0652L28.1512 23.7163C27.8315 23.3976 27.4035 23.491 27.114 23.6774L24.2265 26.4608C23.9158 26.7751 24.0058 27.1936 24.1885 27.4792L26.4881 29.7724C26.6267 29.9107 26.7125 30.093 26.7306 30.2879C26.7487 30.4828 26.6981 30.6779 26.5873 30.8393C25.334 32.6661 24.4284 34.7951 23.9686 36.9963C23.9292 37.1846 23.8262 37.3536 23.6769 37.475C23.5276 37.5963 23.3411 37.6626 23.1487 37.6626H19.8724C19.5954 37.7106 19.1772 37.9092 19.1772 38.3909V42.4404C19.2255 42.7161 19.4251 43.132 19.9099 43.132H23.2467C23.4449 43.1319 23.6367 43.2022 23.7879 43.3303C23.9392 43.4584 24.0402 43.6359 24.0728 43.8314C24.4203 45.9109 25.2937 48.068 26.5983 50.0695C26.7033 50.2307 26.7497 50.423 26.7296 50.6143C26.7096 50.8056 26.6243 50.9841 26.4881 51.12L24.1326 53.4688C23.8151 53.7856 23.9079 54.2098 24.0938 54.4968L26.8848 57.3761C27.2021 57.688 27.6245 57.5976 27.9126 57.4142L30.2123 55.1209L31.3952 56.307L29.0397 58.6559C29.0071 58.6884 28.9718 58.7183 28.9343 58.745C27.8871 59.4909 26.5561 59.4141 25.6977 58.558L25.6877 58.5478L22.8416 55.6119C22.8128 55.5822 22.7862 55.5503 22.762 55.5167C22.0124 54.4703 22.0896 53.1404 22.9496 52.2827L24.8315 50.4061C23.738 48.6007 22.9605 46.6887 22.5546 44.8071H19.9099C18.6783 44.8071 17.6683 43.8813 17.5084 42.6056C17.5041 42.5711 17.502 42.5363 17.502 42.5015V38.3909C17.502 37.1614 18.4297 36.1532 19.7081 35.9938C19.7424 35.9895 19.7771 35.9873 19.8117 35.9873H22.4808C22.9634 34.0384 23.7628 32.1563 24.8215 30.4761L22.9497 28.6096C22.917 28.577 22.8871 28.5418 22.8602 28.5042C22.1107 27.4578 22.1878 26.1279 23.0478 25.2703L23.058 25.2604L26.0023 22.4221C26.0321 22.3935 26.0639 22.367 26.0976 22.343C27.1448 21.597 28.4758 21.6739 29.3342 22.5301L31.2185 24.4091C33.03 23.3175 34.9485 22.5416 36.8362 22.1366V19.404C36.8362 18.1744 37.764 17.1662 39.0424 17.007C39.0765 17.0027 39.1112 17.0005 39.1457 17.0005H43.2678C44.5414 17.0005 45.5776 18.0787 45.5776 19.404V22.063C47.5331 22.5445 49.4213 23.3423 51.107 24.3992L52.9814 22.5301C53.014 22.4975 53.0492 22.4677 53.0868 22.441C54.1339 21.695 55.4648 21.7719 56.3234 22.628L56.3333 22.6381L59.1795 25.5743C59.2083 25.604 59.2349 25.6358 59.2591 25.6696C60.0086 26.716 59.9314 28.0459 59.0715 28.9035L57.1897 30.78C58.2831 32.5855 59.0606 34.4977 59.4666 36.3791H62.1113C63.4205 36.3791 64.4483 37.2843 64.6108 38.5805C64.6151 38.6151 64.6173 38.65 64.6173 38.6847V42.7952C64.6173 44.0248 63.6896 45.0329 62.4112 45.1924C62.3768 45.1967 62.3422 45.1989 62.3075 45.1989H59.6385C59.1558 47.1477 58.3565 49.0299 57.2978 50.7101L59.1696 52.5766C59.2023 52.6092 59.2322 52.6445 59.2591 52.6819C60.0086 53.7284 59.9315 55.0583 59.0715 55.9159L59.0613 55.9259L56.117 58.7641C56.0872 58.7928 56.0553 58.8193 56.0216 58.8433C55.5411 59.1852 55.0007 59.3543 54.4739 59.3543Z" stroke="#FB7A00" stroke-width="0.72" mask="url(#path-2-outside-1_2705_31768)"/>
</svg>
