<svg width="30" height="30" viewBox="0 0 30 30" fill="none" xmlns="http://www.w3.org/2000/svg">
<g id="Component 786" opacity="0.6">
<g id="Ellipse 5" filter="url(#filter0_b_1337_1009)">
<path d="M29.2671 15C29.2671 23.0118 22.8237 29.5 14.8836 29.5C6.94341 29.5 0.5 23.0118 0.5 15C0.5 6.98819 6.94341 0.5 14.8836 0.5C22.8237 0.5 29.2671 6.98819 29.2671 15Z" stroke="white"/>
</g>
<path id="Vector" d="M17.8035 8.81989H11.8975C10.9841 8.82086 10.1084 9.18414 9.46253 9.83002C8.81665 10.4759 8.45337 11.3516 8.45239 12.265V18.1709C8.45337 19.0843 8.81665 19.9601 9.46253 20.6059C10.1084 21.2518 10.9841 21.6151 11.8975 21.6161H17.8035C18.7169 21.6151 19.5926 21.2518 20.2384 20.6059C20.8843 19.9601 21.2476 19.0843 21.2486 18.1709V12.265C21.2476 11.3516 20.8843 10.4759 20.2384 9.83002C19.5926 9.18414 18.7169 8.82086 17.8035 8.81989ZM14.8505 18.1709C14.2664 18.1709 13.6955 17.9978 13.2099 17.6733C12.7243 17.3488 12.3458 16.8876 12.1223 16.348C11.8988 15.8084 11.8403 15.2147 11.9543 14.6419C12.0682 14.0691 12.3494 13.5429 12.7624 13.1299C13.1754 12.7169 13.7016 12.4357 14.2744 12.3218C14.8472 12.2078 15.441 12.2663 15.9805 12.4898C16.5201 12.7133 16.9813 13.0918 17.3058 13.5774C17.6303 14.063 17.8035 14.6339 17.8035 15.218C17.8026 16.0009 17.4913 16.7515 16.9376 17.3051C16.384 17.8588 15.6334 18.1701 14.8505 18.1709ZM18.5417 12.265C18.3957 12.265 18.253 12.2217 18.1315 12.1406C18.0101 12.0595 17.9155 11.9442 17.8596 11.8093C17.8038 11.6744 17.7892 11.526 17.8176 11.3827C17.8461 11.2395 17.9164 11.108 18.0197 11.0048C18.1229 10.9015 18.2545 10.8312 18.3977 10.8027C18.5409 10.7742 18.6893 10.7888 18.8242 10.8447C18.9591 10.9006 19.0744 10.9952 19.1555 11.1166C19.2366 11.238 19.2799 11.3808 19.2799 11.5268C19.2799 11.7226 19.2022 11.9103 19.0637 12.0488C18.9253 12.1872 18.7375 12.265 18.5417 12.265ZM16.8191 15.218C16.8191 15.6073 16.7037 15.988 16.4874 16.3117C16.271 16.6354 15.9636 16.8878 15.6039 17.0368C15.2441 17.1858 14.8483 17.2248 14.4664 17.1488C14.0845 17.0728 13.7338 16.8853 13.4584 16.61C13.1831 16.3347 12.9956 15.9839 12.9197 15.602C12.8437 15.2202 12.8827 14.8243 13.0317 14.4646C13.1807 14.1049 13.433 13.7974 13.7568 13.5811C14.0805 13.3648 14.4611 13.2493 14.8505 13.2493C15.3726 13.2493 15.8733 13.4567 16.2425 13.8259C16.6117 14.1951 16.8191 14.6959 16.8191 15.218Z" fill="white"/>
</g>
<defs>
<filter id="filter0_b_1337_1009" x="-10" y="-10" width="49.7671" height="50" filterUnits="userSpaceOnUse" color-interpolation-filters="sRGB">
<feFlood flood-opacity="0" result="BackgroundImageFix"/>
<feGaussianBlur in="BackgroundImageFix" stdDeviation="5"/>
<feComposite in2="SourceAlpha" operator="in" result="effect1_backgroundBlur_1337_1009"/>
<feBlend mode="normal" in="SourceGraphic" in2="effect1_backgroundBlur_1337_1009" result="shape"/>
</filter>
</defs>
</svg>
