<svg width="31" height="30" viewBox="0 0 31 30" fill="none" xmlns="http://www.w3.org/2000/svg">
<g id="Component 786" opacity="0.6">
<g id="Ellipse 5" filter="url(#filter0_b_1152_2011)">
<path d="M29.8013 15C29.8013 23.0118 23.3579 29.5 15.4177 29.5C7.47758 29.5 1.03418 23.0118 1.03418 15C1.03418 6.98819 7.47758 0.5 15.4177 0.5C23.3579 0.5 29.8013 6.98819 29.8013 15Z" stroke="white"/>
</g>
<path id="Vector" d="M18.3376 8.81989H12.4317C11.5183 8.82086 10.6426 9.18414 9.99671 9.83002C9.35083 10.4759 8.98755 11.3516 8.98657 12.265V18.1709C8.98755 19.0843 9.35083 19.9601 9.99671 20.6059C10.6426 21.2518 11.5183 21.6151 12.4317 21.6161H18.3376C19.251 21.6151 20.1267 21.2518 20.7726 20.6059C21.4185 19.9601 21.7818 19.0843 21.7828 18.1709V12.265C21.7818 11.3516 21.4185 10.4759 20.7726 9.83002C20.1267 9.18414 19.251 8.82086 18.3376 8.81989ZM15.3847 18.1709C14.8006 18.1709 14.2297 17.9978 13.7441 17.6733C13.2585 17.3488 12.88 16.8876 12.6565 16.348C12.433 15.8084 12.3745 15.2147 12.4884 14.6419C12.6024 14.0691 12.8836 13.5429 13.2966 13.1299C13.7096 12.7169 14.2358 12.4357 14.8086 12.3218C15.3814 12.2078 15.9751 12.2663 16.5147 12.4898C17.0543 12.7133 17.5155 13.0918 17.84 13.5774C18.1644 14.063 18.3376 14.6339 18.3376 15.218C18.3368 16.0009 18.0254 16.7515 17.4718 17.3051C16.9182 17.8588 16.1676 18.1701 15.3847 18.1709ZM19.0759 12.265C18.9299 12.265 18.7871 12.2217 18.6657 12.1406C18.5443 12.0595 18.4497 11.9442 18.3938 11.8093C18.338 11.6744 18.3233 11.526 18.3518 11.3827C18.3803 11.2395 18.4506 11.108 18.5539 11.0048C18.6571 10.9015 18.7886 10.8312 18.9318 10.8027C19.0751 10.7742 19.2235 10.7888 19.3584 10.8447C19.4933 10.9006 19.6086 10.9952 19.6897 11.1166C19.7708 11.238 19.8141 11.3808 19.8141 11.5268C19.8141 11.7226 19.7363 11.9103 19.5979 12.0488C19.4594 12.1872 19.2717 12.265 19.0759 12.265ZM17.3533 15.218C17.3533 15.6073 17.2379 15.988 17.0215 16.3117C16.8052 16.6354 16.4978 16.8878 16.138 17.0368C15.7783 17.1858 15.3825 17.2248 15.0006 17.1488C14.6187 17.0728 14.2679 16.8853 13.9926 16.61C13.7173 16.3347 13.5298 15.9839 13.4538 15.602C13.3779 15.2202 13.4169 14.8243 13.5659 14.4646C13.7149 14.1049 13.9672 13.7974 14.2909 13.5811C14.6147 13.3648 14.9953 13.2493 15.3847 13.2493C15.9068 13.2493 16.4075 13.4567 16.7767 13.8259C17.1459 14.1951 17.3533 14.6959 17.3533 15.218Z" fill="white"/>
</g>
<defs>
<filter id="filter0_b_1152_2011" x="-9.46582" y="-10" width="49.7671" height="50" filterUnits="userSpaceOnUse" color-interpolation-filters="sRGB">
<feFlood flood-opacity="0" result="BackgroundImageFix"/>
<feGaussianBlur in="BackgroundImageFix" stdDeviation="5"/>
<feComposite in2="SourceAlpha" operator="in" result="effect1_backgroundBlur_1152_2011"/>
<feBlend mode="normal" in="SourceGraphic" in2="effect1_backgroundBlur_1152_2011" result="shape"/>
</filter>
</defs>
</svg>
