<svg width="80" height="81" viewBox="0 0 80 81" fill="none" xmlns="http://www.w3.org/2000/svg">
<rect width="80" height="80" transform="translate(0 0.584473)" fill="#CEDBDF"/>
<g clip-path="url(#clip0_2379_75448)">
<path d="M48.5833 42.7505C46.5721 42.7505 44.6433 43.5494 43.2211 44.9716C41.799 46.3937 41 48.3226 41 50.3338V52.5005C41 54.5117 41.799 56.4406 43.2211 57.8627C44.6433 59.2849 46.5721 60.0838 48.5833 60.0838C50.5946 60.0838 52.5234 59.2849 53.9456 57.8627C55.3677 56.4406 56.1667 54.5117 56.1667 52.5005V48.6005" stroke="#FB7A00" stroke-width="3.25" stroke-linecap="round" stroke-linejoin="round"/>
<path d="M33.4173 42.7505C35.4285 42.7505 37.3574 43.5494 38.7795 44.9716C40.2017 46.3937 41.0007 48.3226 41.0007 50.3338V52.5005C41.0007 54.5117 40.2017 56.4406 38.7795 57.8627C37.3574 59.2849 35.4285 60.0838 33.4173 60.0838C31.4061 60.0838 29.4772 59.2849 28.0551 57.8627C26.6329 56.4406 25.834 54.5117 25.834 52.5005V48.6005" stroke="#FB7A00" stroke-width="3.25" stroke-linecap="round" stroke-linejoin="round"/>
<path d="M52.9173 49.2511C54.9285 49.2511 56.8574 48.4522 58.2795 47.03C59.7017 45.6079 60.5007 43.679 60.5007 41.6678C60.5007 39.6566 59.7017 37.7277 58.2795 36.3056C56.8574 34.8834 54.9285 34.0845 52.9173 34.0845H51.834" stroke="#FB7A00" stroke-width="3.25" stroke-linecap="round" stroke-linejoin="round"/>
<path d="M56.1667 34.7345V28.6678C56.1667 26.6566 55.3677 24.7277 53.9456 23.3056C52.5234 21.8834 50.5946 21.0845 48.5833 21.0845C46.5721 21.0845 44.6433 21.8834 43.2211 23.3056C41.799 24.7277 41 26.6566 41 28.6678" stroke="#FB7A00" stroke-width="3.25" stroke-linecap="round" stroke-linejoin="round"/>
<path d="M29.0833 49.2511C27.0721 49.2511 25.1433 48.4522 23.7211 47.03C22.299 45.6079 21.5 43.679 21.5 41.6678C21.5 39.6566 22.299 37.7277 23.7211 36.3056C25.1433 34.8834 27.0721 34.0845 29.0833 34.0845H30.1667" stroke="#FB7A00" stroke-width="3.25" stroke-linecap="round" stroke-linejoin="round"/>
<path d="M25.834 34.7345V28.6678C25.834 26.6566 26.6329 24.7277 28.0551 23.3056C29.4772 21.8834 31.4061 21.0845 33.4173 21.0845C35.4285 21.0845 37.3574 21.8834 38.7795 23.3056C40.2017 24.7277 41.0007 26.6566 41.0007 28.6678V50.3345" stroke="#FB7A00" stroke-width="3.25" stroke-linecap="round" stroke-linejoin="round"/>
</g>
<defs>
<clipPath id="clip0_2379_75448">
<rect width="52" height="52" fill="white" transform="translate(15 14.5845)"/>
</clipPath>
</defs>
</svg>
