<svg width="132" height="36" viewBox="0 0 132 36" fill="none" xmlns="http://www.w3.org/2000/svg">
<path d="M58.4629 27.6161V12.1599C58.4629 11.286 57.9626 10.7867 57.087 10.7867H54.9856C54.11 10.7867 53.6598 11.286 53.6598 12.1599V21.3987C53.6598 23.7708 52.2088 25.3189 49.9323 25.3189C47.7308 25.3189 46.3549 23.7708 46.3549 21.4986V12.1599C46.3549 11.286 45.8546 10.7867 44.979 10.7867H42.8776C42.002 10.7867 41.5518 11.286 41.5518 12.1599V22.0479C41.5518 26.4924 44.4787 29.4888 48.8816 29.4888C51.4833 29.4888 53.2845 28.3402 54.4103 26.6423V27.6161C54.4103 28.49 54.9106 29.0144 55.7862 29.0144H57.087C57.9626 29.0144 58.4629 28.4651 58.4629 27.6161ZM73.8981 26.7671L73.248 25.244C72.9223 24.6198 72.5224 24.2702 71.6965 24.7696C71.1964 25.0692 70.6458 25.3189 70.0455 25.3189C68.6446 25.3189 67.6689 24.5698 67.6689 22.5473V14.4072H71.672C72.5476 14.4072 73.0729 13.9078 73.0729 13.0339V12.135C73.0729 11.261 72.5224 10.8116 71.672 10.8116H67.6689V5.8177C67.6689 4.86886 67.1939 4.21965 66.2181 4.44438L64.2668 4.84389C63.3662 5.01868 62.8909 5.41819 62.8909 6.24218V10.7867H61.1147C60.2391 10.7867 59.7138 11.261 59.7138 12.11V13.0089C59.7138 13.8828 60.2642 14.3822 61.1147 14.3822H62.8909V22.9717C62.8909 27.4413 65.8178 29.4638 69.2449 29.4638C70.8462 29.4638 72.2723 29.0393 73.2978 28.3152C73.7482 27.9906 74.2987 27.5411 73.8981 26.7671ZM91.9098 27.6161V12.1599C91.9098 11.286 91.4097 10.7867 90.5341 10.7867H88.4327C87.5571 10.7867 87.1068 11.286 87.1068 12.1599V21.3987C87.1068 23.7708 85.6561 25.3189 83.3796 25.3189C81.178 25.3189 79.8023 23.7708 79.8023 21.4986V12.1599C79.8023 11.286 79.3015 10.7867 78.4259 10.7867H76.3245C75.4489 10.7867 74.9992 11.286 74.9992 12.1599V22.0479C74.9992 26.4924 77.9258 29.4888 82.3289 29.4888C84.9304 29.4888 86.732 28.3402 87.8576 26.6423V27.6161C87.8576 28.49 88.3578 29.0144 89.2333 29.0144H90.5341C91.4097 29.0144 91.9098 28.4651 91.9098 27.6161ZM109.047 20.0004C109.047 22.9468 107.07 25.2939 104.018 25.2939C101.267 25.2939 99.1148 23.3713 99.0651 20.0004C98.9901 16.5796 101.316 14.6569 104.018 14.6569C107.045 14.6569 109.047 17.029 109.047 20.0004ZM113.799 20.0004C113.799 14.6569 110.047 10.512 104.719 10.512C102.668 10.512 100.816 11.1862 99.3403 12.2848V4.61917C99.3403 3.67033 98.8647 3.07106 97.889 3.29578L95.913 3.64535C95.0122 3.87008 94.5366 4.21965 94.5366 5.04365V27.5911C94.5366 28.4651 95.0374 28.9894 95.913 28.9894H97.1885C98.0641 28.9894 98.5145 28.44 98.5145 27.5911V26.6922C99.9904 28.3402 102.092 29.4638 104.719 29.4638C110.047 29.4888 113.799 25.2939 113.799 20.0004ZM130.886 10.7867H129.01C128.134 10.7867 127.684 11.286 127.359 12.1599L123.056 23.0217L118.753 12.1599C118.428 11.286 117.952 10.7867 117.052 10.7867H114.7C113.825 10.7867 113.324 11.3609 113.7 12.1599L120.704 27.7159L119.954 29.5887C119.304 31.0369 118.553 31.2866 117.702 31.2866C117.277 31.2866 116.802 31.1867 116.426 31.0369C115.526 30.7123 115.05 30.962 114.826 31.6611L114.425 33.0594C114.175 33.8585 114.675 34.2081 115.151 34.4577C115.876 34.8073 116.852 35.032 117.903 35.032C120.404 35.032 122.48 34.0333 124.056 30.4127L131.887 12.1599C132.237 11.3859 131.737 10.7867 130.886 10.7867Z" fill="white"/>
<path d="M23.1897 2.69689C22.4893 2.54707 21.5888 2.47217 20.6132 2.47217C19.6376 2.47217 18.7621 2.57205 18.0366 2.69689V28.9648C18.737 28.815 19.6376 28.7401 20.6132 28.7401C21.5888 28.7401 22.4643 28.8399 23.1897 28.9648" fill="#FDB72B"/>
<path d="M17.7609 4.66921C17.0856 4.46945 16.21 4.31963 15.2594 4.21976C14.2839 4.14485 13.4083 4.14485 12.6829 4.21976L8.50537 28.1406C9.2308 28.0656 10.1313 28.1156 11.0819 28.1905C12.0575 28.2654 12.933 28.565 13.6085 28.7648" fill="#F8A489"/>
<path d="M34.9225 27.2667C34.9725 28.1656 35.4979 28.7399 36.3985 28.7399C36.3985 28.7399 38.3748 28.7399 38.725 28.7399C39.3004 28.7399 39.6757 28.5402 39.8758 28.3155C40.1259 27.9908 40.1259 27.3167 40.1259 27.3167C40.0509 24.8447 39.7757 22.5475 38.4248 19.8258C36.7737 16.7795 35.2728 15.2813 31.7704 13.7582C35.3728 12.2101 37.9495 7.41598 38.0996 3.2211V2.44704C38.0996 1.39832 37.6994 0.824025 36.8988 0.998812L34.3221 1.42329C33.5716 1.57311 33.2464 1.79784 33.2464 2.47201C33.2464 2.47201 33.2464 3.2211 33.1213 3.99515C32.2457 9.08893 29.0186 11.2363 26.0666 11.7357C25.5663 11.8106 25.2411 11.8356 25.2411 11.8356C24.5407 11.8855 24.1904 12.1852 24.1904 12.8343V14.9068C24.1904 15.556 24.5907 15.8557 25.2661 15.8557C30.4195 15.8557 34.9725 20.8496 34.9725 25.9433" fill="white"/>
<path d="M11.9579 6.14289C11.3075 5.91816 10.482 5.59356 9.50629 5.44374C8.53068 5.29393 7.63009 5.21902 6.90455 5.24399L0 27.5667C0.725478 27.5667 1.62608 27.6167 2.57671 27.7665C3.55236 27.9163 4.42794 28.3158 5.00332 28.6654" fill="#25C1F2"/>
</svg>
