<svg width="381" height="39" viewBox="0 0 381 39" fill="none" xmlns="http://www.w3.org/2000/svg">
<path fill-rule="evenodd" clip-rule="evenodd" d="M0.930974 0.880371L2.38165 1.26187L2.5309 1.30095C2.63076 1.32703 2.78027 1.36599 2.97811 1.41729C3.37379 1.51991 3.96275 1.67191 4.7343 1.86905C6.27741 2.26331 8.55082 2.83807 11.4689 3.55927L12.9251 3.91915L12.2054 6.83152L10.7492 6.47164C7.82297 5.74846 5.54192 5.17177 3.99166 4.77567C3.21652 4.57763 2.62407 4.42472 2.225 4.32123C2.02546 4.26948 1.87428 4.23008 1.77277 4.20357L1.61939 4.16342L0.167969 3.78172L0.930974 0.880371ZM19.102 5.41924L20.5609 5.76788C25.7502 7.00798 31.907 8.44605 38.8419 10.0067L40.3054 10.336L39.6467 13.2628L38.1833 12.9335C31.2344 11.3697 25.0646 9.92862 19.8636 8.68572L18.4047 8.33708L19.102 5.41924ZM46.5644 11.7237L48.0299 12.0437C53.7805 13.2996 59.935 14.6079 66.41 15.9355L67.8794 16.2368L67.2769 19.1757L65.8074 18.8744C59.319 17.544 53.1519 16.233 47.3898 14.9746L45.9243 14.6546L46.5644 11.7237ZM380.07 15.3145L378.607 15.6432C372.633 16.9845 366.256 18.3775 359.574 19.7835L358.106 20.0924L357.488 17.1566L358.956 16.8478C365.624 15.4448 371.988 14.0547 377.949 12.716L379.413 12.3874L380.07 15.3145ZM74.1411 17.4992L75.6125 17.7908C81.5646 18.9702 87.7354 20.1525 94.0678 21.3151L95.5431 21.586L95.0014 24.5366L93.5261 24.2658C87.1789 23.1005 80.9943 21.9155 75.0294 20.7336L73.558 20.442L74.1411 17.4992ZM351.502 21.4575L350.032 21.7558C343.837 23.0129 337.436 24.2661 330.898 25.488L329.423 25.7635L328.872 22.8145L330.346 22.539C336.868 21.3203 343.254 20.07 349.435 18.8157L350.905 18.5174L351.502 21.4575ZM101.837 22.7173L103.314 22.977C109.388 24.0448 115.58 25.0856 121.842 26.0806L123.323 26.316L122.852 29.2788L121.371 29.0434C115.091 28.0457 108.883 27.0021 102.795 25.9317L101.317 25.672L101.837 22.7173ZM322.797 26.973L321.32 27.236C314.989 28.3634 308.564 29.4505 302.105 30.4736L300.623 30.7083L300.154 27.7452L301.635 27.5105C308.074 26.4907 314.48 25.4068 320.794 24.2824L322.271 24.0194L322.797 26.973ZM129.639 27.2907L131.123 27.5126C137.292 28.4354 143.506 29.3058 149.721 30.1064L151.209 30.298L150.826 33.2734L149.338 33.0818C143.101 32.2784 136.867 31.4052 130.679 30.4796L129.196 30.2577L129.639 27.2907ZM293.954 31.7282L292.47 31.9467C286.016 32.897 279.557 33.7722 273.153 34.5489L271.664 34.7295L271.303 31.7513L272.792 31.5707C279.168 30.7974 285.602 29.9257 292.033 28.9787L293.517 28.7602L293.954 31.7282ZM157.549 31.0781L159.038 31.2525C165.298 31.9851 171.535 32.6377 177.706 33.1926L179.2 33.3269L178.931 36.3149L177.437 36.1805C171.237 35.6231 164.973 34.9676 158.69 34.2321L157.2 34.0577L157.549 31.0781ZM264.953 35.4933L263.462 35.6513C256.866 36.3499 250.36 36.929 244.012 37.3618L242.516 37.4639L242.312 34.4708L243.808 34.3688C250.114 33.9388 256.582 33.3632 263.146 32.668L264.637 32.51L264.953 35.4933ZM185.559 33.8496L187.055 33.9603C193.409 34.4306 199.664 34.7845 205.771 35.0021L207.27 35.0555L207.163 38.0536L205.664 38.0002C199.515 37.7811 193.221 37.4249 186.833 36.9521L185.337 36.8414L185.559 33.8496ZM235.766 37.8472L234.268 37.9138C230.961 38.0607 227.71 38.1616 224.524 38.2124C221.434 38.2616 218.288 38.2655 215.094 38.2274L213.594 38.2095L213.63 35.2097L215.129 35.2276C218.298 35.2654 221.416 35.2615 224.476 35.2127C227.632 35.1625 230.854 35.0625 234.134 34.9168L235.633 34.8502L235.766 37.8472Z" fill="white"/>
</svg>
