<svg width="417" height="52" viewBox="0 0 417 52" fill="none" xmlns="http://www.w3.org/2000/svg">
<path d="M249.544 3.00216C243.216 2.97913 236.743 3.14106 230.169 3.46509L228.67 3.53893L228.523 0.542565L230.021 0.468728C236.643 0.142366 243.169 -0.0210616 249.554 0.00217523L251.054 0.00763346L251.044 3.00761L249.544 3.00216Z" fill="white"/>
<path d="M257.834 0.137379L259.333 0.1909C262.639 0.308935 265.9 0.483008 269.109 0.716715C272.483 0.962413 275.931 1.28361 279.439 1.67258L280.93 1.83788L280.599 4.81961L279.109 4.65431C275.635 4.2691 272.224 3.9515 268.891 3.70879C265.721 3.47793 262.497 3.30579 259.226 3.18899L257.727 3.13547L257.834 0.137379Z" fill="white"/>
<path d="M221.983 3.94478L220.487 4.05179C214.103 4.50835 207.646 5.10335 201.153 5.81651L199.662 5.98028L199.334 2.99822L200.825 2.83445C207.353 2.11751 213.848 1.51894 220.273 1.05943L221.769 0.952424L221.983 3.94478Z" fill="white"/>
<path d="M288.276 2.77176L289.761 2.98267C296.451 3.93273 303.302 5.09051 310.225 6.40775L311.698 6.68817L311.137 9.63528L309.664 9.35487C302.781 8.04511 295.976 6.89542 289.339 5.95286L287.854 5.74196L288.276 2.77176Z" fill="white"/>
<path d="M192.994 6.7695L191.506 6.95782C185.096 7.76901 178.67 8.68466 172.264 9.68543L170.782 9.91696L170.319 6.95291L171.801 6.72138C178.233 5.71648 184.688 4.79668 191.129 3.98156L192.617 3.79323L192.994 6.7695Z" fill="white"/>
<path d="M164.152 10.9975L162.673 11.2483C156.249 12.3374 149.864 13.503 143.554 14.7252L142.082 15.0104L141.511 12.0652L142.984 11.7799C149.315 10.5536 155.723 9.38375 162.172 8.29045L163.651 8.03974L164.152 10.9975Z" fill="white"/>
<path d="M318.933 8.13731L320.401 8.44517C327.142 9.85876 333.909 11.4 340.62 13.0254L342.078 13.3785L341.372 16.2942L339.914 15.9411C333.229 14.3221 326.493 12.7878 319.785 11.3813L318.317 11.0734L318.933 8.13731Z" fill="white"/>
<path d="M135.486 16.3251L134.017 16.6261C127.562 17.9482 121.209 19.3203 114.998 20.7203L113.535 21.0502L112.875 18.1236L114.339 17.7937C120.567 16.3897 126.939 15.0134 133.415 13.6871L134.884 13.3862L135.486 16.3251Z" fill="white"/>
<path d="M349.218 15.1586L350.671 15.5308C357.475 17.2734 364.178 19.0822 370.691 20.9104L372.135 21.3158L371.325 24.2042L369.88 23.7988C363.387 21.9761 356.706 20.1734 349.927 18.4369L348.474 18.0648L349.218 15.1586Z" fill="white"/>
<path d="M106.979 22.5601L105.519 22.9034C99.0134 24.433 92.6976 25.9815 86.6228 27.5213L85.1688 27.8899L84.4317 24.9819L85.8857 24.6133C91.9762 23.0695 98.3089 21.5168 104.833 19.983L106.293 19.6397L106.979 22.5601Z" fill="white"/>
<path d="M379.206 23.3399L380.646 23.76C387.581 25.7834 394.231 27.8012 400.477 29.7512L401.908 30.1983L401.014 33.062L399.582 32.6149C393.353 30.6699 386.721 28.6575 379.805 26.64L378.365 26.2199L379.206 23.3399Z" fill="white"/>
<path d="M78.6593 29.5689L77.2084 29.9495C70.5899 31.6857 64.3199 33.3917 58.4739 35.0267L57.0294 35.4307L56.2214 32.5415L57.666 32.1375C63.5264 30.4985 69.812 28.7883 76.4472 27.0477L77.8981 26.6671L78.6593 29.5689Z" fill="white"/>
<path d="M408.928 32.4243L410.356 32.8841C412.26 33.4973 413.125 33.7698 413.453 33.8686C411.994 33.3607 414.231 34.1029 413.453 33.8686C413.775 33.9808 414.278 34.1539 415.033 34.4119L416.452 34.8969L415.482 37.7358L414.063 37.2507C413.326 36.9989 412.831 36.8284 412.51 36.7167C412.179 36.617 411.317 36.3453 409.436 35.7397L408.008 35.2799L408.928 32.4243Z" fill="white"/>
<path d="M50.511 37.2822L49.0697 37.698C41.9712 39.7457 35.6949 41.6277 30.4178 43.2485L28.9839 43.6889L28.1031 40.8211L29.537 40.3807C34.8292 38.7553 41.1219 36.8683 48.2382 34.8155L49.6794 34.3997L50.511 37.2822Z" fill="white"/>
<path d="M22.5554 45.6973L21.1261 46.1522C18.1806 47.0897 15.8927 47.8356 14.3423 48.3468C13.5671 48.6023 12.9762 48.7992 12.5797 48.9321C12.3814 48.9985 12.2318 49.0489 12.1319 49.0826L12.0196 49.1205L11.985 49.1322L11.9834 49.1328L11.9373 49.1485L11.8907 49.161L11.8879 49.1618L11.7318 49.2037C11.6272 49.2317 11.4714 49.2733 11.2659 49.328C10.8548 49.4374 10.2449 49.5989 9.44797 49.8079C7.85403 50.226 5.51181 50.8341 2.51566 51.5952L1.06183 51.9645L0.323242 49.0568L1.77707 48.6875C4.76526 47.9285 7.09995 47.3223 8.68686 46.9061C9.48032 46.698 10.0868 46.5374 10.4946 46.4289C10.6984 46.3746 10.8526 46.3334 10.9556 46.3058L11.0643 46.2767L11.1726 46.2401L11.4442 46.1487L11.6269 46.0874C12.0278 45.9531 12.6231 45.7547 13.403 45.4976C14.9627 44.9834 17.2603 44.2344 20.2162 43.2935L21.6455 42.8386L22.5554 45.6973Z" fill="white"/>
</svg>
