<svg width="31" height="30" viewBox="0 0 31 30" fill="none" xmlns="http://www.w3.org/2000/svg">
<g id="Component 787" opacity="0.6">
<g id="Ellipse 4" filter="url(#filter0_b_1152_2014)">
<path d="M29.5684 15C29.5684 23.0118 23.125 29.5 15.1848 29.5C7.24467 29.5 0.80127 23.0118 0.80127 15C0.80127 6.98819 7.24467 0.5 15.1848 0.5C23.125 0.5 29.5684 6.98819 29.5684 15Z" stroke="white"/>
</g>
<path id="Vector" d="M9.84667 8.0849C9.45933 8.0849 9.08787 8.23877 8.81398 8.51265C8.5401 8.78654 8.38623 9.158 8.38623 9.54534C8.38623 9.93267 8.5401 10.3041 8.81398 10.578C9.08787 10.8519 9.45933 11.0058 9.84667 11.0058C10.234 11.0058 10.6055 10.8519 10.8794 10.578C11.1532 10.3041 11.3071 9.93267 11.3071 9.54534C11.3071 9.158 11.1532 8.78654 10.8794 8.51265C10.6055 8.23877 10.234 8.0849 9.84667 8.0849ZM8.47214 12.2085C8.44935 12.2085 8.4275 12.2175 8.41139 12.2336C8.39528 12.2498 8.38623 12.2716 8.38623 12.2944V21.2288C8.38623 21.2762 8.42472 21.3147 8.47214 21.3147H11.2212C11.244 21.3147 11.2658 21.3057 11.2819 21.2896C11.2981 21.2735 11.3071 21.2516 11.3071 21.2288V12.2944C11.3071 12.2716 11.2981 12.2498 11.2819 12.2336C11.2658 12.2175 11.244 12.2085 11.2212 12.2085H8.47214ZM12.9394 12.2085C12.9166 12.2085 12.8947 12.2175 12.8786 12.2336C12.8625 12.2498 12.8534 12.2716 12.8534 12.2944V21.2288C12.8534 21.2762 12.8919 21.3147 12.9394 21.3147H15.6884C15.7112 21.3147 15.733 21.3057 15.7492 21.2896C15.7653 21.2735 15.7743 21.2516 15.7743 21.2288V16.418C15.7743 16.0762 15.9101 15.7484 16.1517 15.5068C16.3934 15.2651 16.7212 15.1294 17.0629 15.1294C17.4047 15.1294 17.7325 15.2651 17.9741 15.5068C18.2158 15.7484 18.3516 16.0762 18.3516 16.418V21.2288C18.3516 21.2762 18.39 21.3147 18.4375 21.3147H21.1865C21.2093 21.3147 21.2312 21.3057 21.2473 21.2896C21.2634 21.2735 21.2724 21.2516 21.2724 21.2288V15.3046C21.2724 13.6366 19.8223 12.3322 18.1626 12.4827C17.649 12.5294 17.146 12.6565 16.6719 12.8593L15.7743 13.2442V12.2944C15.7743 12.2716 15.7653 12.2498 15.7492 12.2336C15.733 12.2175 15.7112 12.2085 15.6884 12.2085H12.9394Z" fill="white"/>
</g>
<defs>
<filter id="filter0_b_1152_2014" x="-9.69873" y="-10" width="49.7671" height="50" filterUnits="userSpaceOnUse" color-interpolation-filters="sRGB">
<feFlood flood-opacity="0" result="BackgroundImageFix"/>
<feGaussianBlur in="BackgroundImageFix" stdDeviation="5"/>
<feComposite in2="SourceAlpha" operator="in" result="effect1_backgroundBlur_1152_2014"/>
<feBlend mode="normal" in="SourceGraphic" in2="effect1_backgroundBlur_1152_2014" result="shape"/>
</filter>
</defs>
</svg>
