<svg width="31" height="30" viewBox="0 0 31 30" fill="none" xmlns="http://www.w3.org/2000/svg">
<g id="Component 787" opacity="0.6">
<g id="Ellipse 4" filter="url(#filter0_b_1337_1012)">
<path d="M30.0342 15C30.0342 23.0118 23.5908 29.5 15.6506 29.5C7.71049 29.5 1.26709 23.0118 1.26709 15C1.26709 6.98819 7.71049 0.5 15.6506 0.5C23.5908 0.5 30.0342 6.98819 30.0342 15Z" stroke="white"/>
</g>
<path id="Vector" d="M10.3125 8.0849C9.92516 8.0849 9.55369 8.23876 9.2798 8.51265C9.00592 8.78653 8.85205 9.158 8.85205 9.54533C8.85205 9.93266 9.00592 10.3041 9.2798 10.578C9.55369 10.8519 9.92516 11.0058 10.3125 11.0058C10.6998 11.0058 11.0713 10.8519 11.3452 10.578C11.6191 10.3041 11.7729 9.93266 11.7729 9.54533C11.7729 9.158 11.6191 8.78653 11.3452 8.51265C11.0713 8.23876 10.6998 8.0849 10.3125 8.0849ZM8.93796 12.2085C8.91517 12.2085 8.89332 12.2175 8.87721 12.2336C8.8611 12.2498 8.85205 12.2716 8.85205 12.2944V21.2288C8.85205 21.2762 8.89054 21.3147 8.93796 21.3147H11.687C11.7098 21.3147 11.7316 21.3057 11.7478 21.2896C11.7639 21.2735 11.7729 21.2516 11.7729 21.2288V12.2944C11.7729 12.2716 11.7639 12.2498 11.7478 12.2336C11.7316 12.2175 11.7098 12.2085 11.687 12.2085H8.93796ZM13.4052 12.2085C13.3824 12.2085 13.3605 12.2175 13.3444 12.2336C13.3283 12.2498 13.3193 12.2716 13.3193 12.2944V21.2288C13.3193 21.2762 13.3578 21.3147 13.4052 21.3147H16.1542C16.177 21.3147 16.1989 21.3057 16.215 21.2896C16.2311 21.2735 16.2401 21.2516 16.2401 21.2288V16.418C16.2401 16.0762 16.3759 15.7484 16.6176 15.5068C16.8592 15.2651 17.187 15.1294 17.5288 15.1294C17.8705 15.1294 18.1983 15.2651 18.4399 15.5068C18.6816 15.7484 18.8174 16.0762 18.8174 16.418V21.2288C18.8174 21.2762 18.8559 21.3147 18.9033 21.3147H21.6523C21.6751 21.3147 21.697 21.3057 21.7131 21.2896C21.7292 21.2735 21.7382 21.2516 21.7382 21.2288V15.3046C21.7382 13.6366 20.2881 12.3322 18.6284 12.4827C18.1148 12.5294 17.6118 12.6565 17.1377 12.8593L16.2401 13.2442V12.2944C16.2401 12.2716 16.2311 12.2498 16.215 12.2336C16.1989 12.2175 16.177 12.2085 16.1542 12.2085H13.4052Z" fill="white"/>
</g>
<defs>
<filter id="filter0_b_1337_1012" x="-9.23291" y="-10" width="49.7671" height="50" filterUnits="userSpaceOnUse" color-interpolation-filters="sRGB">
<feFlood flood-opacity="0" result="BackgroundImageFix"/>
<feGaussianBlur in="BackgroundImageFix" stdDeviation="5"/>
<feComposite in2="SourceAlpha" operator="in" result="effect1_backgroundBlur_1337_1012"/>
<feBlend mode="normal" in="SourceGraphic" in2="effect1_backgroundBlur_1337_1012" result="shape"/>
</filter>
</defs>
</svg>
