<svg width="270" height="40" viewBox="0 0 270 40" fill="none" xmlns="http://www.w3.org/2000/svg">
<g clip-path="url(#clip0_2988_8916)">
<mask id="mask0_2988_8916" style="mask-type:luminance" maskUnits="userSpaceOnUse" x="0" y="0" width="270" height="40">
<path d="M269.028 0.674652H0.859375V39.8048H269.028V0.674652Z" fill="white"/>
</mask>
<g mask="url(#mask0_2988_8916)">
<path d="M6.07973 21.3643C5.35587 21.3717 4.63427 21.2824 3.93413 21.0984C3.33963 20.9457 2.77971 20.681 2.28437 20.3185C1.8325 19.9772 1.47177 19.5298 1.2341 19.0158C0.977296 18.45 0.849504 17.8342 0.85997 17.2128C0.875957 16.7744 0.931774 16.3384 1.02675 15.9101C1.16045 15.2809 1.34744 14.6641 1.58569 14.0665L3.03713 14.5444C2.87293 14.975 2.7433 15.4183 2.64948 15.8696C2.57021 16.2294 2.52791 16.5964 2.52326 16.9649C2.51542 17.3728 2.59697 17.7774 2.76217 18.1504C2.9241 18.4924 3.17082 18.7871 3.47887 19.0068C3.83496 19.252 4.23409 19.4279 4.65534 19.5252C5.18165 19.6451 5.72026 19.7026 6.26003 19.6965C6.91369 19.7076 7.56622 19.6379 8.2028 19.4891C8.68139 19.3803 9.14359 19.2091 9.57759 18.9797C9.8915 18.822 10.1717 18.6046 10.4025 18.3397C10.5571 18.1739 10.6522 17.9615 10.673 17.7357C10.6674 17.5579 10.6005 17.3875 10.4836 17.2534C10.3009 17.0483 10.0805 16.8799 9.83455 16.7576C9.42116 16.5414 8.99168 16.3576 8.54988 16.2077L9.35672 14.7427C9.94724 15.0717 10.4295 15.3512 10.7946 15.581C11.0966 15.763 11.3831 15.9696 11.6511 16.1986C11.8236 16.3421 11.966 16.5183 12.0703 16.717C12.1512 16.8984 12.1912 17.0954 12.1875 17.2939C12.1819 17.6702 12.1103 18.0424 11.9756 18.3938C11.8208 18.7987 11.5949 19.1727 11.3085 19.4982C10.9722 19.8781 10.5764 20.2008 10.1365 20.4537C9.59985 20.7612 9.02142 20.989 8.41916 21.1299C7.65127 21.2997 6.86604 21.3784 6.07973 21.3643ZM4.67788 25.3625L3.34815 24.0103L4.61477 22.658L5.96704 24.0103L4.67788 25.3625ZM7.51314 25.3625L6.16087 24.0103L7.4275 22.658L8.77976 24.0103L7.51314 25.3625ZM13.6029 17.5779C13.32 17.5724 13.0381 17.5438 12.7599 17.4923C12.4243 17.4337 12.093 17.3524 11.7683 17.2489C11.4139 17.1333 11.0662 16.9979 10.7271 16.8432C10.3913 16.6886 10.07 16.5046 9.7669 16.2933L9.3162 14.7291C9.8075 14.9681 10.2538 15.1799 10.6685 15.3197C11.0259 15.4609 11.3917 15.5798 11.7638 15.6757C12.0752 15.7537 12.3914 15.8109 12.7104 15.847C13.0098 15.8799 13.3107 15.8964 13.6119 15.8966H13.6434V17.5779H13.6029Z" fill="#FF2400"/>
<path d="M13.6515 15.8966H13.8182V17.5779H13.6515C13.3224 17.5779 13.1602 17.2849 13.1602 16.7034C13.1602 16.1219 13.3224 15.8966 13.6515 15.8966ZM13.6515 17.5779V15.8966H13.7507C13.9269 15.9 14.1023 15.8725 14.269 15.8154C14.431 15.752 14.5749 15.6499 14.6882 15.5179C14.8539 15.3302 15.0046 15.1297 15.139 14.9184C15.3013 14.6615 15.5041 14.3279 15.7475 13.9223C16.0322 13.4256 16.3515 12.9496 16.7031 12.4978C16.9664 12.1543 17.2689 11.8426 17.6046 11.5693C17.8642 11.3532 18.1582 11.1825 18.4746 11.0644C18.7638 10.961 19.0689 10.9091 19.3761 10.9112C19.7787 10.9031 20.1759 11.0043 20.5255 11.2042C20.9205 11.4572 21.2483 11.8022 21.4811 12.2094C21.8515 12.8285 22.1537 13.486 22.3827 14.1702C22.5208 14.5811 22.7036 14.9757 22.9281 15.3466C23.0503 15.5537 23.2395 15.7127 23.4645 15.7974C23.7022 15.863 23.9482 15.8935 24.1947 15.8876H24.2262V17.5689H24.1947C23.7658 17.5783 23.3382 17.519 22.9281 17.393C22.5925 17.2856 22.2848 17.1055 22.0266 16.8657C21.7594 16.6164 21.5341 16.3257 21.3595 16.0048C21.1569 15.6244 20.9866 15.2279 20.8501 14.8193C20.6929 14.3238 20.4969 13.8416 20.2641 13.3769C20.1541 13.136 19.9889 12.9244 19.7818 12.7593C19.6289 12.6602 19.4502 12.6083 19.2679 12.6105C19.0646 12.6192 18.8678 12.6848 18.7 12.7998C18.4485 12.9718 18.2237 13.1799 18.0329 13.4174C17.7375 13.7852 17.4736 14.1773 17.2441 14.5894C16.9601 15.0807 16.7031 15.4909 16.4777 15.847C16.2878 16.1448 16.0802 16.4308 15.8557 16.7034C15.6872 16.9069 15.4897 17.0846 15.2697 17.2308C15.0709 17.3564 14.851 17.445 14.6206 17.4923C14.352 17.5456 14.0786 17.5712 13.8048 17.5689L13.6515 17.5779ZM22.4593 16.8026C22.1805 17.1776 21.8005 17.4653 21.364 17.632C20.9325 17.7944 20.472 17.865 20.0117 17.8393C19.5118 17.8146 19.0189 17.7112 18.5512 17.5328C18.0581 17.3496 17.5889 17.1075 17.1539 16.8116C16.7193 16.5189 16.3187 16.1787 15.9594 15.7974L16.8609 14.7426C17.1717 14.9952 17.5052 15.2185 17.857 15.4097C18.2273 15.6141 18.6188 15.7773 19.0245 15.8966C19.4423 16.018 19.8742 16.0846 20.3092 16.0949C20.7679 16.105 21.2249 16.0379 21.6615 15.8966L22.4593 16.8026Z" fill="#FF2400"/>
<path d="M24.1866 15.8968H24.3534V17.5781H24.1866C23.8576 17.5781 23.6953 17.2852 23.6953 16.7037C23.6953 16.1222 23.8576 15.8968 24.1866 15.8968ZM24.1866 17.5781V15.8968H30.4972C30.4972 15.6219 30.5378 15.3829 30.5558 15.1711C30.5739 14.9592 30.5829 14.7744 30.5874 14.5986C30.5919 14.4228 30.5874 14.2515 30.5874 14.0847C30.5899 13.5942 30.5522 13.1042 30.4747 12.6198C30.4079 12.1978 30.2883 11.7859 30.1186 11.3938C29.9877 11.0744 29.7876 10.788 29.5326 10.5553C29.3074 10.3538 29.0145 10.2443 28.7123 10.2488C28.4074 10.2459 28.1099 10.3424 27.8649 10.5238C27.6251 10.6997 27.4294 10.9288 27.2933 11.1932C27.1572 11.4576 27.0844 11.7499 27.0805 12.0473C27.0758 12.2704 27.1371 12.4899 27.2563 12.6784C27.3942 12.8789 27.5936 13.0292 27.8243 13.1066C28.1738 13.2246 28.5419 13.2781 28.9106 13.2644C29.1992 13.2632 29.4872 13.2376 29.7716 13.1878C30.0788 13.1364 30.3806 13.0564 30.6731 12.9488L31.516 14.2019C31.0849 14.447 30.6224 14.632 30.1411 14.7519C29.6701 14.8746 29.1856 14.9382 28.6987 14.9412C28.2117 14.9518 27.726 14.8832 27.2608 14.7384C26.8962 14.6212 26.5599 14.4293 26.2737 14.1749C26.0217 13.9542 25.8269 13.6759 25.7057 13.3635C25.5817 13.0492 25.5191 12.7142 25.5209 12.3764C25.5146 11.8435 25.6094 11.3143 25.8004 10.8167C25.9744 10.3737 26.2297 9.96698 26.5531 9.61776C26.8497 9.29376 27.2064 9.03046 27.6034 8.84246C27.9829 8.66461 28.3968 8.57228 28.8159 8.57198C29.4424 8.56289 30.0526 8.77159 30.5424 9.16246C31.0537 9.59168 31.4451 10.1461 31.6783 10.7717C31.9643 11.5179 32.1036 12.3122 32.0884 13.1111C32.0884 13.5619 32.0659 14.0622 32.0253 14.6166C31.9848 15.1711 31.9262 15.7075 31.8585 16.2304C31.7909 16.7532 31.7233 17.1995 31.6467 17.5826L24.1866 17.5781ZM27.4141 6.80953L26.0618 5.45725L27.3284 4.10498L28.6807 5.45725L27.4141 6.80953ZM30.2448 6.80953L28.8925 5.45725L30.1637 4.10498L31.4934 5.45725L30.2448 6.80953Z" fill="#FF2400"/>
<path d="M34.9548 21.3643C33.8559 21.3429 32.7933 20.9666 31.9258 20.2915L32.5342 19.142C32.897 19.2863 33.2672 19.4112 33.6431 19.5162C33.9823 19.62 34.3342 19.6762 34.6889 19.683C35.2963 19.695 35.8953 19.539 36.4198 19.2322C36.9104 18.9406 37.3113 18.5196 37.5782 18.0152C37.8654 17.468 38.0097 16.8571 37.9974 16.2392C38.0028 16.0158 37.9693 15.7931 37.8983 15.5811C37.8299 15.3852 37.7423 15.1964 37.6368 15.0177C37.5287 14.8328 37.398 14.63 37.2582 14.4092L39.548 15.6442V16.2392C39.5463 16.7175 39.4811 17.1934 39.3542 17.6546C39.2292 18.1369 39.0444 18.6018 38.8043 19.0384C38.5669 19.4778 38.2628 19.8778 37.9027 20.2239C37.5306 20.5766 37.0967 20.8577 36.6227 21.0533C36.0929 21.2669 35.526 21.3726 34.9548 21.3643ZM41.2248 17.5779C40.8827 17.5805 40.5417 17.538 40.2106 17.4518C39.9185 17.3712 39.6403 17.2466 39.3858 17.0821C39.1067 16.8953 38.8549 16.6708 38.6375 16.415C38.376 16.1029 38.1366 15.7731 37.9208 15.4279L35.9285 12.3176L37.132 10.7715L39.3542 14.5263C39.5224 14.8102 39.7092 15.0828 39.9132 15.3422C40.0546 15.5373 40.244 15.6926 40.4631 15.793C40.7087 15.8812 40.9686 15.9225 41.2293 15.9146H41.3961V17.5959L41.2248 17.5779Z" fill="#FF2400"/>
<path d="M41.3923 15.8966H41.5546V17.578H41.3923C41.0587 17.578 40.8965 17.285 40.8965 16.7035C40.8965 16.122 41.0587 15.8966 41.3923 15.8966ZM41.3923 17.578V15.8966H43.4433V5.39404H45.1561V17.5645L41.3923 17.578Z" fill="#FF2400"/>
<path d="M47.793 5.39404H49.5059V17.5645H47.793V5.39404Z" fill="#FF2400"/>
<path d="M61.1443 21.3643C60.419 21.3716 59.696 21.2821 58.9942 21.0984C58.4015 20.9448 57.8432 20.6802 57.349 20.3185C56.897 19.9762 56.535 19.5292 56.2942 19.0159C56.0389 18.4497 55.9127 17.8338 55.9246 17.2128C55.9383 16.7743 55.9942 16.338 56.0914 15.9101C56.223 15.2803 56.4101 14.6634 56.6503 14.0665L58.0973 14.5444C57.9351 14.9758 57.8056 15.4187 57.7096 15.8696C57.6338 16.2299 57.5931 16.5967 57.5879 16.9649C57.5801 17.3727 57.6616 17.7774 57.8268 18.1504C57.9874 18.4932 58.2343 18.7884 58.5435 19.0068C58.8987 19.2537 59.2982 19.4297 59.72 19.5252C60.2462 19.6454 60.7849 19.7029 61.3247 19.6965C61.9748 19.7062 62.6238 19.6397 63.2584 19.4981C63.7311 19.3936 64.1865 19.2221 64.6107 18.9888C64.9124 18.8244 65.1826 18.6076 65.4085 18.3487C65.5597 18.1852 65.6518 17.9757 65.67 17.7537C65.6659 17.654 65.6395 17.5565 65.5926 17.4683C65.5458 17.3801 65.4798 17.3036 65.3995 17.2444C65.1682 17.0658 64.9172 16.9146 64.6513 16.7936C64.3312 16.6358 63.9661 16.4556 63.5469 16.2572C63.1811 16.0765 62.8287 15.8702 62.4922 15.6397C62.1738 15.4251 61.8999 15.1511 61.6853 14.8328C61.4724 14.5029 61.3641 14.1165 61.3742 13.7239C61.3608 13.1099 61.5269 12.5052 61.8521 11.984C62.1749 11.4821 62.6262 11.0759 63.1592 10.8076C63.7558 10.5132 64.4143 10.3664 65.0795 10.3793C65.4075 10.3785 65.7348 10.4072 66.0576 10.465C66.3795 10.5169 66.6962 10.5968 67.0042 10.7039C67.3037 10.8054 67.5909 10.9399 67.8607 11.1051L67.0042 12.552C66.7235 12.383 66.4199 12.2554 66.1027 12.1733C65.7689 12.0945 65.4269 12.0567 65.084 12.0606C64.5626 12.0327 64.0473 12.1838 63.6236 12.4889C63.4595 12.6075 63.3257 12.7633 63.2333 12.9435C63.1409 13.1237 63.0923 13.3232 63.0916 13.5256C63.0923 13.6627 63.1211 13.7983 63.1762 13.9239C63.2312 14.0494 63.3114 14.1624 63.4116 14.2559C63.6505 14.4912 63.9261 14.686 64.2275 14.8328C64.5566 15.0041 64.8947 15.1664 65.2462 15.3196C65.6269 15.4765 65.996 15.6603 66.3506 15.8696C66.6176 16.0245 66.8482 16.2352 67.0268 16.4871C67.1846 16.7326 67.2647 17.0202 67.2566 17.312C67.2516 17.6886 67.1783 18.0613 67.0402 18.4118C66.8873 18.8177 66.6611 19.1919 66.3731 19.5162C66.0385 19.896 65.6442 20.2188 65.2057 20.4718C64.6677 20.7799 64.0876 21.0077 63.4838 21.1479C62.7153 21.3122 61.93 21.3849 61.1443 21.3643ZM59.7605 25.3625L58.4082 24.0102L59.6749 22.6579L61.0272 24.0102L59.7605 25.3625ZM62.5913 25.3625L61.239 24.0102L62.5102 22.6579L63.8624 24.0102L62.5913 25.3625Z" fill="#FF2400"/>
<path d="M69.4868 17.5783L69.1758 15.8969H74.0935C73.9985 15.3216 73.8475 14.757 73.6427 14.2111C73.43 13.6693 73.1483 13.1571 72.8044 12.6876C72.3961 12.1393 71.9291 11.6375 71.4115 11.191L72.6962 9.5593C73.4232 10.3183 74.0655 11.1541 74.6119 12.052C75.0813 12.8355 75.4022 13.6989 75.5585 14.5987C75.7121 15.5859 75.7121 16.591 75.5585 17.5783H69.4868Z" fill="#FF2400"/>
<path d="M79.6794 21.3645C78.5808 21.3412 77.5188 20.9651 76.6504 20.2917L77.2589 19.1423C77.6229 19.2872 77.9946 19.4121 78.3722 19.5164C78.7113 19.621 79.0633 19.6771 79.418 19.6831C80.1072 19.6987 80.7838 19.4969 81.3518 19.1062C81.8871 18.7294 82.292 18.1953 82.5102 17.5782H81.158C80.6098 17.5886 80.0631 17.5188 79.5352 17.3708C79.139 17.2598 78.7695 17.0697 78.4489 16.8118C78.1835 16.5926 77.9748 16.3128 77.8404 15.996C77.7127 15.6826 77.6484 15.3471 77.6511 15.0088C77.642 14.4772 77.737 13.949 77.9305 13.4538C78.1019 13.009 78.3558 12.6006 78.6787 12.2502C78.9763 11.9264 79.3347 11.6645 79.7335 11.4794C80.1104 11.2981 80.5233 11.2041 80.9416 11.2044C81.5175 11.196 82.0807 11.3747 82.5463 11.7138C83.0421 12.091 83.4306 12.5914 83.6732 13.1652C83.9805 13.8684 84.1591 14.6211 84.2006 15.3875C84.2006 15.4641 84.2006 15.5452 84.2276 15.6354C84.2547 15.7256 84.2276 15.8111 84.2276 15.8968H85.3815V17.5782H84.0293C83.909 18.0637 83.7304 18.5329 83.4973 18.9755C83.2596 19.4241 82.9557 19.8344 82.5959 20.1925C82.23 20.5579 81.7968 20.8487 81.3202 21.049C80.7995 21.2616 80.2419 21.3688 79.6794 21.3645ZM81.3067 15.8968H82.6905C82.6905 15.8111 82.6905 15.7211 82.6634 15.6354C82.6364 15.5498 82.6634 15.4641 82.6409 15.3875C82.591 14.966 82.4833 14.5535 82.3209 14.1614C82.178 13.8245 81.9714 13.5184 81.7124 13.2599C81.5934 13.1438 81.4522 13.0529 81.2973 12.9925C81.1425 12.9321 80.977 12.9035 80.8108 12.9083C80.5066 12.9044 80.2092 12.9993 79.9634 13.1788C79.7189 13.3576 79.5211 13.5925 79.3865 13.8639C79.2543 14.1237 79.1848 14.4109 79.1836 14.7024C79.1784 14.9261 79.2413 15.1462 79.364 15.3334C79.5234 15.5437 79.7487 15.6944 80.004 15.7616C80.4284 15.8751 80.868 15.9207 81.3067 15.8968Z" fill="#FF2400"/>
<path d="M85.3917 15.8966H85.5585V17.5779H85.3917C85.0626 17.5779 84.9004 17.2849 84.9004 16.7035C84.9004 16.122 85.0626 15.8966 85.3917 15.8966ZM85.3917 17.5779V15.8966H86.9063C87.1864 15.8975 87.4664 15.8839 87.7446 15.856C88.0055 15.8276 88.2638 15.7856 88.5203 15.7298C88.7481 15.6856 88.9742 15.6283 89.196 15.5585L90.6116 16.6763C89.9577 16.9632 89.2768 17.1822 88.5786 17.33C87.8081 17.4916 87.022 17.5716 86.2346 17.5689L85.3917 17.5779ZM94.1003 17.5779C93.6351 17.5803 93.1699 17.5577 92.7073 17.5103C92.3238 17.4695 91.9438 17.3986 91.5716 17.2984C91.2325 17.1999 90.9055 17.067 90.5933 16.9017C90.2733 16.7229 89.9716 16.513 89.6916 16.2752C89.3899 16.0228 89.0786 15.7253 88.7455 15.3737L86.8882 13.431V11.2223C87.2403 11.0415 87.6064 10.8907 87.9838 10.7715C88.3777 10.6411 88.782 10.5417 89.1916 10.474C89.6099 10.4018 90.0333 10.3656 90.4586 10.3658C91.0673 10.3534 91.6751 10.4309 92.2612 10.5956C92.7125 10.7183 93.1151 10.9763 93.4151 11.335C93.6994 11.7266 93.8412 12.2038 93.816 12.6872C93.8151 13.089 93.7368 13.4867 93.5864 13.8591C93.4325 14.2427 93.2247 14.6023 92.969 14.9275C92.7177 15.2522 92.4273 15.5443 92.1038 15.7974C92.2907 15.8421 92.4803 15.8737 92.6716 15.8921C92.8655 15.8921 93.0768 15.9146 93.3073 15.9146H94.9699V17.5959L94.1003 17.5779ZM90.562 14.959C90.8699 14.7749 91.1542 14.5539 91.409 14.3009C91.616 14.0988 91.7881 13.8643 91.9186 13.6067C92.0255 13.4101 92.0847 13.1906 92.0899 12.9667C92.096 12.7861 92.0386 12.6091 91.9273 12.4663C91.7916 12.3105 91.6107 12.2003 91.409 12.1508C91.0942 12.071 90.7699 12.036 90.4447 12.0471C90.0264 12.0449 89.6081 12.0796 89.196 12.1508C88.822 12.215 88.4533 12.3053 88.0916 12.4212L89.8186 14.2243C89.9533 14.3685 90.0794 14.4992 90.2055 14.621C90.3316 14.7426 90.449 14.8598 90.562 14.959Z" fill="#FF2400"/>
<path d="M94.9546 15.8968H95.1172V17.5781H94.9546C94.6259 17.5781 94.459 17.2851 94.459 16.7037C94.459 16.1222 94.6259 15.8968 94.9546 15.8968ZM94.9546 17.5781V15.8968H97.1451C97.299 15.6331 97.412 15.3472 97.479 15.0493C97.5738 14.6932 97.6503 14.3146 97.7129 13.9224C97.7764 13.5303 97.812 13.1607 97.8346 12.8181L99.8277 12.1284C99.7059 12.6964 99.5842 13.2238 99.4572 13.7061C99.3338 14.1726 99.1833 14.6317 99.0068 15.0809C98.8425 15.5111 98.6564 15.9324 98.4477 16.3431C98.2251 16.7695 97.9772 17.1819 97.7042 17.5781H94.9546ZM100.652 17.5781C100.123 17.5838 99.5955 17.5278 99.079 17.4113C98.6633 17.3171 98.2599 17.1764 97.8755 16.9921C97.5486 16.8338 97.2329 16.6547 96.9286 16.4558L97.8303 15.3378C98.1755 15.5224 98.5442 15.6604 98.9259 15.748C99.3686 15.8515 99.8233 15.9014 100.278 15.8968H101.589C101.743 15.6324 101.857 15.3469 101.928 15.0493C102.018 14.6932 102.095 14.3146 102.158 13.9224C102.221 13.5303 102.257 13.1607 102.279 12.8181L104.295 12.1239C104.173 12.6919 104.051 13.2193 103.925 13.7016C103.801 14.1681 103.65 14.6271 103.474 15.0764C103.309 15.5065 103.123 15.9278 102.915 16.3385C102.694 16.7659 102.446 17.1784 102.171 17.5736L100.652 17.5781ZM105.949 17.5781C105.421 17.5835 104.895 17.5276 104.38 17.4113C103.964 17.3171 103.561 17.1764 103.176 16.9921C102.849 16.8338 102.534 16.6547 102.229 16.4558L103.131 15.3378C103.88 15.7331 104.719 15.9258 105.565 15.8968H107.675C107.621 15.4055 107.558 14.9952 107.486 14.6302C107.414 14.2651 107.328 13.9315 107.229 13.5844C107.129 13.2373 106.999 12.8406 106.836 12.3899L108.729 11.1232C108.829 11.813 108.91 12.5161 108.982 13.2238C109.053 13.9367 109.078 14.6533 109.059 15.3694C109.031 16.1156 108.922 16.8564 108.729 17.5781H105.949ZM110.772 17.5781C110.35 17.5813 109.929 17.5451 109.514 17.4699C109.164 17.405 108.821 17.3115 108.486 17.1904C108.2 17.083 107.92 16.9596 107.648 16.8209L108.32 15.5182C108.465 15.5863 108.616 15.642 108.77 15.685C108.928 15.7255 109.095 15.7661 109.27 15.7976C109.451 15.8329 109.633 15.8585 109.816 15.8743C110.001 15.8743 110.195 15.8968 110.389 15.8968H110.916V17.5781H110.772Z" fill="#FF2400"/>
<path d="M110.921 15.8966H111.088V17.578H110.921C110.592 17.578 110.43 17.285 110.43 16.7035C110.43 16.122 110.606 15.8966 110.921 15.8966ZM110.921 17.578V15.8966H112.981V5.39404H114.694V17.5645L110.921 17.578Z" fill="#FF2400"/>
<path d="M117.326 5.39404H119.039V17.5645H117.326V5.39404Z" fill="#FF2400"/>
<path d="M129.772 17.578C128.649 17.6391 127.538 17.3216 126.617 16.6765C126.244 16.3936 125.944 16.0243 125.744 15.6004C125.545 15.1764 125.451 14.7105 125.471 14.2424C125.48 13.7029 125.557 13.1666 125.702 12.6468C125.89 11.9855 126.167 11.3531 126.526 10.7671L127.843 11.3621C127.617 11.8199 127.44 12.3004 127.316 12.7955C127.231 13.1394 127.188 13.4918 127.184 13.8458C127.156 14.2991 127.299 14.7466 127.586 15.0989C127.886 15.4122 128.274 15.6274 128.699 15.7164C129.229 15.8364 129.771 15.8938 130.313 15.8878H137.949L137.85 17.5691L129.772 17.578ZM130.642 12.6198V11.5018H131.3C131.215 11.3715 131.146 11.2305 131.097 11.0826C131.048 10.9375 131.022 10.7853 131.021 10.6319C131.014 10.3946 131.058 10.1586 131.151 9.94001C131.243 9.72141 131.382 9.52541 131.557 9.36523C131.929 9.03488 132.412 8.85906 132.91 8.87393C133.148 8.87367 133.385 8.90088 133.617 8.95506C133.835 9.00497 134.045 9.08219 134.244 9.18497L133.793 10.1721C133.664 10.1117 133.53 10.0648 133.391 10.0324C133.264 10.0053 133.134 9.99167 133.004 9.99184C132.773 9.97323 132.544 10.0443 132.364 10.1902C132.294 10.2515 132.239 10.3272 132.202 10.412C132.164 10.4969 132.146 10.5888 132.148 10.6815C132.154 10.788 132.182 10.8922 132.23 10.9875C132.278 11.0829 132.345 11.1674 132.427 11.2359C132.734 11.451 133.109 11.5471 133.482 11.5064H134.496V12.6242L130.642 12.6198ZM137.404 17.578V5.40762H139.111V17.578H137.404ZM138.62 15.8967H140.595V17.578H138.62V15.8967Z" fill="#FF2400"/>
<path d="M140.586 15.8967H140.747V17.578H140.586C140.256 17.578 140.09 17.2851 140.09 16.7036C140.09 16.1221 140.256 15.8967 140.586 15.8967ZM140.586 17.578V15.8967H142.609C142.727 15.6465 142.821 15.3853 142.889 15.1169C142.988 14.7608 143.073 14.3731 143.15 13.9539C143.222 13.5785 143.272 13.1992 143.299 12.818L145.292 12.1284C145.138 12.8857 144.972 13.5708 144.786 14.1838C144.614 14.7792 144.397 15.3608 144.138 15.9237C143.865 16.5007 143.545 17.054 143.182 17.578H140.586ZM146.446 17.578C145.916 17.5837 145.388 17.5277 144.872 17.4112C144.457 17.317 144.052 17.1764 143.668 16.992C143.343 16.8318 143.026 16.6527 142.722 16.4557L143.624 15.3377C143.849 15.4611 144.086 15.5622 144.331 15.6398C144.597 15.7275 144.87 15.7924 145.147 15.8336C145.446 15.8751 145.747 15.8962 146.048 15.8967H146.576V17.578H146.446ZM144.322 10.0549L142.97 8.70262L144.237 7.35034L145.589 8.70262L144.322 10.0549Z" fill="#FF2400"/>
<path d="M146.611 15.8968H146.773V17.5781H146.611C146.282 17.5781 146.115 17.2851 146.115 16.7036C146.115 16.1222 146.282 15.8968 146.611 15.8968ZM146.611 17.5781V15.8968H148.617C148.737 15.6475 148.831 15.3861 148.896 15.117C148.995 14.7609 149.086 14.3732 149.162 13.954C149.233 13.5786 149.284 13.1993 149.311 12.8182L151.299 12.1285C151.146 12.8857 150.979 13.5709 150.799 14.1839C150.626 14.7793 150.409 15.3609 150.149 15.9238C149.875 16.4999 149.556 17.0531 149.193 17.5781H146.611ZM149.554 21.5763L148.202 20.2241L149.473 18.8718L150.826 20.2241L149.554 21.5763ZM152.485 17.5781C151.957 17.5835 151.43 17.5276 150.916 17.4114C150.5 17.3178 150.096 17.1772 149.713 16.9922C149.386 16.8339 149.069 16.6547 148.766 16.4557L149.667 15.3378C149.893 15.4619 150.129 15.5631 150.375 15.6398C150.64 15.7281 150.913 15.7929 151.191 15.8337C151.489 15.8754 151.791 15.8965 152.093 15.8968H152.62V17.5781H152.485Z" fill="#FF2400"/>
<path d="M152.634 15.8966H152.8V17.578H152.634C152.304 17.578 152.143 17.285 152.143 16.7035C152.143 16.122 152.304 15.8966 152.634 15.8966ZM152.634 17.578V15.8966H154.694V5.39404H156.406V17.5645L152.634 17.578Z" fill="#FF2400"/>
<path d="M159.041 5.39404H160.753V17.5645H159.041V5.39404Z" fill="#FF2400"/>
<path d="M5.47612 39.8005C4.70485 39.8162 3.94112 39.6461 3.24938 39.3047C2.58395 38.9483 2.01714 38.4325 1.59961 37.8037L2.68594 36.5551C3.04271 37.1198 3.5123 37.6047 4.06525 37.9794C4.54303 38.2542 5.08747 38.3915 5.63839 38.3761C5.98296 38.3807 6.32535 38.3211 6.64809 38.2003C6.92484 38.102 7.17271 37.9363 7.3693 37.718C7.54161 37.5226 7.63624 37.2708 7.63524 37.0104C7.63535 36.8395 7.60481 36.67 7.5451 36.5099C7.48437 36.352 7.39238 36.2078 7.27464 36.0863C7.14123 35.949 6.98955 35.8306 6.82388 35.7347C6.60952 35.6178 6.38466 35.5212 6.15226 35.4462C5.86442 35.3557 5.57075 35.2849 5.27329 35.2344C4.79864 35.1449 4.33583 35.0012 3.89397 34.8061C3.52742 34.649 3.19283 34.4259 2.90681 34.148C2.65009 33.8922 2.45038 33.585 2.32083 33.2465C2.18975 32.8824 2.12561 32.4976 2.13151 32.1106C2.11681 31.5805 2.27503 31.0599 2.58226 30.6276C2.91044 30.1825 3.34839 29.8299 3.85339 29.6044C4.41944 29.3482 5.03517 29.2204 5.65643 29.2303C6.37547 29.2089 7.08884 29.3637 7.73441 29.6811C8.32239 29.9871 8.80928 30.4567 9.13624 31.0333L8.01839 32.1377C7.76037 31.6919 7.40047 31.3133 6.96812 31.0333C6.56294 30.7797 6.09386 30.6467 5.61585 30.6501C5.27547 30.6426 4.93694 30.7024 4.61968 30.8259C4.35588 30.9289 4.12411 31.1 3.94805 31.3218C3.78476 31.5332 3.69884 31.794 3.70464 32.061C3.70142 32.2566 3.74277 32.4505 3.82555 32.6278C3.90833 32.805 4.03037 32.9612 4.18244 33.0842C4.38113 33.234 4.60155 33.3526 4.83605 33.4358C5.15731 33.5524 5.48742 33.6428 5.8232 33.7063C6.31624 33.8085 6.79791 33.9596 7.26111 34.1571C7.64719 34.3166 8.00845 34.5307 8.33392 34.7926C8.61051 35.0189 8.83763 35.2997 9.00102 35.6175C9.15467 35.9221 9.23354 36.259 9.23093 36.6001C9.24737 37.1996 9.09084 37.7911 8.78015 38.304C8.4649 38.7906 8.01563 39.1757 7.4865 39.4129C6.85251 39.6866 6.16645 39.819 5.47612 39.8005Z" fill="#FF2400"/>
<path d="M10.3945 39.6561L14.3747 29.3744H15.9929L19.9416 39.6561H18.2512L15.9027 33.4583C15.8757 33.3907 15.8171 33.2239 15.736 32.9579C15.6548 32.692 15.5557 32.399 15.4475 32.0564C15.3393 31.7138 15.2402 31.4388 15.1545 31.1549L14.9787 30.6365H15.3168C15.2582 30.8033 15.186 31.0152 15.1049 31.272C15.0237 31.529 14.9291 31.795 14.839 32.0789C14.7488 32.3629 14.6542 32.6288 14.5685 32.8767L14.3477 33.5033L12.0127 39.6427L10.3945 39.6561ZM12.157 37.1004L12.7475 35.5633H17.4173L18.0934 37.0913L12.157 37.1004Z" fill="#FF2400"/>
<path d="M25.4495 39.7418C24.7075 39.7551 23.9748 39.5765 23.322 39.2233C22.7061 38.8873 22.1947 38.3883 21.8435 37.7809C21.4814 37.149 21.2961 36.4312 21.3071 35.703V29.3608H22.8938V35.5632C22.8848 36.0377 23.0064 36.5055 23.2454 36.9155C23.4728 37.3038 23.7935 37.6291 24.1784 37.862C24.5613 38.0951 25.0014 38.2169 25.4495 38.2137C25.9166 38.2199 26.3764 38.0984 26.7793 37.862C27.1708 37.6329 27.4968 37.307 27.7259 36.9155C27.9648 36.5055 28.0865 36.0377 28.0774 35.5632V29.3608H29.5921V35.703C29.603 36.4312 29.4177 37.149 29.0556 37.7809C28.705 38.3872 28.1953 38.8859 27.5816 39.2233C26.9273 39.5765 26.193 39.755 25.4495 39.7418Z" fill="#FF2400"/>
<path d="M32.3242 39.6561V29.3743H36.3494C37.0296 29.3641 37.7052 29.4882 38.3373 29.7394C38.9159 29.9756 39.4347 30.3375 39.8563 30.7987C40.2875 31.2706 40.6174 31.826 40.8254 32.4304C41.058 33.0997 41.1723 33.8044 41.1635 34.5129C41.1719 35.2258 41.0575 35.9349 40.8254 36.6089C40.6192 37.2109 40.2925 37.7645 39.8654 38.2362C39.444 38.6956 38.9249 39.0546 38.3463 39.2864C37.7117 39.5406 37.033 39.6662 36.3494 39.6561H32.3242ZM33.9108 38.3038L33.8658 38.1415H36.2728C36.7472 38.1486 37.2186 38.0644 37.6612 37.8936C38.0544 37.7371 38.4061 37.4918 38.6889 37.1769C38.982 36.849 39.2003 36.4615 39.3289 36.0409C39.4828 35.5511 39.5574 35.0398 39.5498 34.5264C39.5577 34.016 39.4832 33.5076 39.3289 33.0209C39.1986 32.6002 38.9787 32.2127 38.6844 31.885C38.4005 31.5703 38.0492 31.3237 37.6567 31.1638C37.2163 30.9903 36.746 30.9061 36.2728 30.9159H33.8207L33.9108 30.7807V38.3038Z" fill="#FF2400"/>
<path d="M42.709 39.6561V38.1867H44.3678V30.8439H42.709V29.3744H47.6132V30.8439H45.9544V38.1867H47.6132V39.6561H42.709Z" fill="#FF2400"/>
<path d="M54.2207 39.6563V29.3745H58.5074C59.0759 29.3588 59.6417 29.4584 60.1707 29.6675C60.5944 29.8436 60.9511 30.1498 61.1894 30.5419C61.4311 30.9736 61.5511 31.4628 61.5365 31.9573C61.5526 32.4696 61.3936 32.9719 61.0857 33.3817C60.759 33.7868 60.3072 34.0721 59.8011 34.1931V33.9001C60.2347 33.9849 60.645 34.1617 61.0046 34.4184C61.3402 34.6637 61.6148 34.983 61.807 35.3515C62.0021 35.7496 62.0995 36.1884 62.091 36.6317C62.098 37.0747 62.0215 37.5151 61.8656 37.9298C61.72 38.2954 61.488 38.6202 61.1894 38.8765C60.8722 39.1418 60.504 39.3398 60.1076 39.4579C59.641 39.5959 59.1563 39.6628 58.6697 39.6563H54.2207ZM55.8074 33.6341H58.4217C58.6935 33.6389 58.9624 33.5786 59.2061 33.4584C59.428 33.3475 59.6163 33.1795 59.7515 32.9715C59.8845 32.7614 59.9535 32.5171 59.9498 32.2684C59.9597 32.0758 59.9241 31.8836 59.8458 31.7073C59.7675 31.5311 59.6487 31.3758 59.4991 31.2541C59.1304 30.9973 58.6854 30.8734 58.237 30.9025H55.7984L55.8074 33.6341ZM55.8074 38.1417H58.566C59.0634 38.1726 59.5564 38.0327 59.9634 37.7451C60.1308 37.6098 60.2635 37.4367 60.3505 37.2399C60.4375 37.0431 60.4764 36.8285 60.4637 36.6137C60.471 36.3339 60.3853 36.0598 60.2203 35.8338C60.043 35.6085 59.8054 35.4381 59.5351 35.3425C59.2012 35.2238 58.8483 35.1671 58.4939 35.1758H55.7894L55.8074 38.1417Z" fill="#FF2400"/>
<path d="M63.1504 39.6561L67.1306 29.3744H68.7443L72.6974 39.6561H71.0071L68.6587 33.4583C68.6271 33.3907 68.573 33.2239 68.4874 32.9579C68.4017 32.692 68.3116 32.399 68.2034 32.0564C68.0952 31.7138 67.996 31.4388 67.9104 31.1549L67.7347 30.6365H68.0727C68.0156 30.8018 67.9434 31.0136 67.8563 31.272C67.7752 31.5245 67.685 31.795 67.5949 32.0789C67.5047 32.3629 67.41 32.6288 67.32 32.8767L67.1035 33.5033L64.7641 39.6427L63.1504 39.6561ZM64.9129 37.1004L65.4988 35.5723H70.1732L70.8448 37.1004H64.9129Z" fill="#FF2400"/>
<path d="M74.5039 39.6561V29.3744H75.9283L82.2073 37.79L81.973 37.9207C81.9053 37.5195 81.8512 37.0553 81.8062 36.528C81.761 36.0006 81.7296 35.4146 81.7115 34.779C81.6935 34.1434 81.6799 33.4673 81.6799 32.7506V29.3744H83.2666V39.6561H81.8107L75.6308 31.5426L75.793 31.3397C75.8607 32.0834 75.9148 32.692 75.9509 33.1653C75.9869 33.6386 76.023 34.0217 76.041 34.3057C76.059 34.5897 76.0725 34.8106 76.077 34.9728C76.0816 35.1351 76.077 35.2703 76.077 35.3785V39.6517L74.5039 39.6561Z" fill="#FF2400"/>
<path d="M86.1523 39.6561V29.3743H87.7393V39.6561H86.1523ZM87.4732 36.5414L87.3828 34.7654L92.7923 29.3563H94.8793L87.4732 36.5414ZM92.968 39.6561L89.028 34.3957L90.2045 33.3815L94.9463 39.6561H92.968Z" fill="#FF2400"/>
<path d="M101.014 39.6561V29.3744H105.039C105.719 29.3641 106.395 29.4882 107.027 29.7394C107.606 29.9767 108.126 30.3383 108.55 30.7987C108.978 31.2729 109.308 31.8276 109.519 32.4305C109.752 33.0998 109.866 33.8045 109.857 34.513C109.866 35.2258 109.751 35.9349 109.519 36.609C109.311 37.2112 108.983 37.7648 108.555 38.2362C108.134 38.6957 107.615 39.0546 107.035 39.2865C106.401 39.5406 105.722 39.6662 105.039 39.6561H101.014ZM102.6 38.3038L102.555 38.1415H104.967C105.44 38.1482 105.909 38.064 106.35 37.8936C106.744 37.7385 107.096 37.493 107.378 37.1769C107.671 36.8491 107.889 36.4615 108.018 36.041C108.172 35.5512 108.247 35.0398 108.239 34.5265C108.247 34.016 108.173 33.5076 108.018 33.021C107.888 32.6002 107.668 32.2127 107.374 31.8851C107.09 31.5703 106.739 31.3238 106.346 31.1638C105.907 30.9909 105.438 30.9066 104.967 30.9159H102.492L102.582 30.7807L102.6 38.3038Z" fill="#FF2400"/>
<path d="M111.4 39.6561V38.1867H113.06V30.8439H111.4V29.3744H116.305V30.8439H114.664V38.1867H116.323V39.6561H111.4Z" fill="#FF2400"/>
<path d="M123.178 39.8004C122.463 39.8051 121.754 39.6688 121.091 39.3992C120.456 39.136 119.878 38.7535 119.388 38.2724C118.897 37.7962 118.51 37.2238 118.251 36.5911C117.977 35.9328 117.84 35.226 117.846 34.5131C117.84 33.8074 117.978 33.1081 118.251 32.4576C118.512 31.8311 118.897 31.2638 119.382 30.7898C119.869 30.3129 120.446 29.9362 121.078 29.681C121.741 29.4142 122.449 29.2795 123.165 29.2843C123.679 29.2853 124.19 29.3597 124.683 29.5051C125.162 29.6436 125.618 29.8517 126.036 30.1227C126.414 30.3633 126.747 30.6684 127.019 31.0242L125.991 32.097C125.595 31.7065 125.139 31.3837 124.639 31.1414C124.185 30.9305 123.692 30.8198 123.192 30.8168C122.689 30.8119 122.192 30.907 121.727 31.0964C121.29 31.279 120.892 31.5437 120.555 31.8761C120.217 32.2097 119.949 32.6064 119.766 33.0436C119.577 33.5071 119.482 34.0035 119.487 34.504C119.485 35.0018 119.586 35.4944 119.784 35.951C119.973 36.4 120.249 36.8075 120.595 37.15C120.943 37.4929 121.353 37.7667 121.803 37.9568C122.252 38.1571 122.736 38.263 123.228 38.2678C123.596 38.2704 123.963 38.2141 124.314 38.1011C124.639 37.9931 124.944 37.8317 125.215 37.6233C125.467 37.4297 125.677 37.1875 125.833 36.9111C125.975 36.6466 126.05 36.3507 126.049 36.0501V35.7571L126.27 35.9645H123.115V34.3913H127.668C127.668 34.4996 127.704 34.6032 127.713 34.7069C127.722 34.8105 127.713 34.9098 127.735 34.9998C127.758 35.09 127.735 35.1847 127.735 35.2748C127.744 35.9053 127.624 36.531 127.384 37.1139C127.16 37.654 126.827 38.142 126.406 38.5473C125.988 38.9509 125.495 39.268 124.954 39.4804C124.388 39.6981 123.785 39.8066 123.178 39.8004Z" fill="#FF2400"/>
<path d="M129.303 39.6561V38.1867H130.961V30.8439H129.303V29.3744H134.206V30.8439H132.548V38.1867H134.206V39.6561H129.303Z" fill="#FF2400"/>
<path d="M138.655 39.6561V30.9025H135.775V29.3744H143.208V30.9025H140.242V39.6561H138.655Z" fill="#FF2400"/>
<path d="M143.357 39.6561L147.337 29.3744H148.951L152.904 39.6561H151.214L148.865 33.4583C148.834 33.3907 148.78 33.2239 148.694 32.9579C148.609 32.692 148.514 32.399 148.41 32.0564L148.112 31.1549C148.027 30.8889 147.969 30.7041 147.937 30.6365H148.275C148.217 30.8033 148.144 31.0152 148.063 31.272C147.982 31.529 147.891 31.795 147.797 32.0789C147.703 32.3629 147.617 32.6288 147.527 32.8767C147.437 33.1247 147.364 33.3275 147.306 33.5033L144.97 39.6427L143.357 39.6561ZM145.119 37.1004L145.705 35.5723H150.376L151.051 37.1004H145.119Z" fill="#FF2400"/>
<path d="M154.707 39.6561V29.3744H156.294V38.1281H161.112V39.6561H154.707Z" fill="#FF2400"/>
<path d="M184.024 39.8004C180.647 39.8004 177.792 39.2084 175.46 38.0244C173.112 36.82 171.071 35.0947 169.492 32.9804L174.558 27.2829C176.151 29.4616 177.759 30.9235 179.382 31.6688C180.953 32.4018 182.665 32.7834 184.398 32.7866C185.199 32.7985 185.997 32.6829 186.761 32.4441C187.389 32.2606 187.959 31.9173 188.415 31.4479C188.816 31.0197 189.034 30.4522 189.023 29.8657C189.03 29.4011 188.903 28.9443 188.658 28.5496C188.4 28.1439 188.061 27.7957 187.662 27.5263C187.202 27.2137 186.712 26.945 186.202 26.724C185.61 26.4681 184.998 26.2644 184.371 26.1154C183.709 25.9531 183.019 25.8044 182.352 25.6647C180.668 25.3389 179.026 24.8248 177.457 24.1321C176.183 23.5677 175.013 22.7936 173.995 21.8423C173.092 20.9805 172.386 19.9333 171.926 18.7726C171.454 17.52 171.223 16.1894 171.245 14.851C171.209 12.8851 171.834 10.964 173.022 9.39687C174.255 7.80094 175.872 6.54331 177.723 5.74123C179.709 4.85912 181.86 4.41043 184.033 4.42503C187.339 4.42503 190.01 4.95391 192.048 6.01168C194.019 7.0125 195.69 8.51614 196.894 10.3705L191.732 15.3874C190.819 14.1705 189.645 13.1727 188.297 12.4665C187.054 11.8258 185.676 11.4905 184.277 11.4883C183.437 11.4753 182.599 11.5909 181.793 11.831C181.166 12.0038 180.6 12.3508 180.162 12.8317C179.787 13.2722 179.588 13.8356 179.603 14.4137C179.595 14.9137 179.753 15.4022 180.053 15.8021C180.403 16.2404 180.845 16.5972 181.347 16.8479C181.953 17.1627 182.589 17.4163 183.244 17.6051C183.985 17.8203 184.737 17.9903 185.498 18.1145C187.17 18.4335 188.808 18.9104 190.389 19.5389C191.735 20.0648 192.99 20.7962 194.112 21.707C195.124 22.5287 195.946 23.5588 196.523 24.7271C197.113 25.9651 197.406 27.323 197.38 28.6937C197.439 30.8201 196.843 32.913 195.672 34.6889C194.491 36.3798 192.853 37.6982 190.948 38.4887C188.756 39.3984 186.398 39.845 184.024 39.8004Z" fill="#FF2400"/>
<path d="M203.611 39.3137V5.21389H218.712C220.747 5.15532 222.775 5.49526 224.68 6.21457C226.193 6.75829 227.491 7.77361 228.384 9.11097C229.277 10.4484 229.717 12.0371 229.638 13.6431C229.696 15.3643 229.191 17.0576 228.2 18.4661C227.173 19.8109 225.724 20.7714 224.085 21.1932L224.036 20.17C225.432 20.4979 226.749 21.1034 227.907 21.9505C228.998 22.7418 229.89 23.7757 230.513 24.9705C231.144 26.2138 231.464 27.5925 231.441 28.9868C231.474 30.5445 231.166 32.0905 230.54 33.5169C229.963 34.782 229.095 35.8926 228.006 36.7578C226.862 37.6458 225.554 38.2998 224.157 38.6825C222.562 39.1178 220.915 39.3303 219.262 39.3137H203.611ZM211.5 18.8538H217.59C218.327 18.8769 219.059 18.7351 219.735 18.4391C220.292 18.1943 220.764 17.7875 221.087 17.2717C221.399 16.733 221.556 16.118 221.538 15.4957C221.56 15.0338 221.475 14.5731 221.289 14.15C221.103 13.7268 220.821 13.3526 220.465 13.0571C219.749 12.4756 218.663 12.1826 217.251 12.1826H211.5V18.8538ZM211.5 32.3494H218.905C220.052 32.4193 221.185 32.0737 222.097 31.3758C222.484 31.0291 222.789 30.5993 222.987 30.1185C223.185 29.6377 223.272 29.1183 223.242 28.5991C223.262 27.9219 223.066 27.256 222.683 26.697C222.282 26.1587 221.73 25.7523 221.097 25.5295C220.316 25.2513 219.49 25.1184 218.663 25.1373H211.5V32.3494Z" fill="#FF2400"/>
<path d="M267.816 15.3737C267.06 13.3486 265.884 11.5069 264.364 9.97001C262.844 8.43311 261.015 7.23601 258.999 6.45773C257.522 5.88447 255.973 5.51594 254.397 5.3624C255.519 6.82614 256.23 8.56266 256.457 10.3929C256.553 10.9768 256.415 11.575 256.073 12.0583C255.732 12.5415 255.213 12.871 254.631 12.9757C254.918 13.0594 255.199 13.1603 255.474 13.2777C256.526 13.7213 257.466 14.3943 258.224 15.2475C259.006 16.1438 259.603 17.1875 259.977 18.3171C260.788 20.9024 260.788 23.6742 259.977 26.2595C259.603 27.3891 259.006 28.4328 258.224 29.3291C257.468 30.1853 256.528 30.8589 255.474 31.299C254.331 31.7685 253.104 32.0017 251.868 31.9841H246.797C246.819 32.4078 246.846 32.8315 246.869 33.2507C246.91 33.9044 246.946 34.5579 246.978 35.2071C246.978 35.3152 246.978 35.4234 246.978 35.527C246.978 35.6307 246.978 35.847 247.005 36.0093C247.025 36.1745 247.053 36.3385 247.09 36.5007C247.259 36.5446 247.431 36.5763 247.604 36.5953C247.816 36.6224 248.033 36.663 248.244 36.7036L248.438 36.7441C248.951 36.8378 249.415 37.1065 249.753 37.5044C250.089 37.9022 250.278 38.4044 250.286 38.9257V39.1691C250.286 39.2232 250.286 39.2773 250.286 39.3314H252.143C254.499 39.3637 256.839 38.9413 259.035 38.0873C261.041 37.3039 262.861 36.1079 264.376 34.5767C265.891 33.0454 267.067 31.2131 267.829 29.1984C269.453 24.7377 269.453 19.8479 267.829 15.3872L267.816 15.3737Z" fill="#FF2400"/>
<path d="M248.046 39.1919C247.772 39.2541 247.493 39.2948 247.212 39.3136C245.305 39.2911 243.403 39.2325 241.496 39.219C240.631 39.219 239.766 39.3001 238.895 39.3136C238.632 39.293 238.37 39.2462 238.115 39.1738V38.9395C238.319 38.8862 238.525 38.844 238.734 38.8132C240.667 38.6059 241.348 37.9613 241.492 36.0546C242.078 28.2806 242.303 20.496 242.168 12.7009C242.168 12.4361 242.083 12.1782 241.925 11.9662L237.363 17.5691C236.502 15.8968 236.511 14.2515 236.813 12.5747C237.129 10.9105 237.938 9.3795 239.135 8.17983L232.021 10.7266C232.337 8.74776 232.874 7.01237 234.509 5.899C236.146 4.78563 237.967 4.92085 239.802 5.40317L239.892 5.21385C239.13 4.63689 238.373 4.0509 237.611 3.47844C236.849 2.90598 236.074 2.33352 235.303 1.76105C237.3 -0.537803 241.546 0.98575 243.141 4.61434C243.94 2.21181 245.603 0.981237 247.988 0.73783C248.53 0.677409 249.08 0.731218 249.601 0.895793C250.121 1.06036 250.602 1.33205 251.012 1.69343L246.387 5.19131L246.333 5.39416C250.931 4.26276 253.487 6.08382 254.248 10.7356L247.104 8.17532C249.705 11.4838 250.421 15.0313 248.867 17.5376C247.325 15.6398 245.801 13.7647 244.124 11.7092C244.077 12.0079 244.046 12.3088 244.029 12.6108C244.151 18.11 244.264 23.6047 244.413 29.0994C244.471 31.1729 244.62 33.2419 244.728 35.3154C244.728 35.6265 244.728 35.9419 244.778 36.253C244.981 38.0019 245.585 38.6014 247.334 38.8223C247.573 38.8538 247.784 38.9079 248.041 38.9485L248.046 39.1919Z" fill="#FF2400"/>
</g>
</g>
<defs>
<clipPath id="clip0_2988_8916">
<rect width="269.565" height="40" fill="white"/>
</clipPath>
</defs>
</svg>
