<svg width="149" height="40" viewBox="0 0 149 40" fill="none" xmlns="http://www.w3.org/2000/svg">
<path d="M65.96 30.6093V13.4357C65.96 12.4647 65.4041 11.9099 64.4313 11.9099H62.0964C61.1235 11.9099 60.6233 12.4647 60.6233 13.4357V23.701C60.6233 26.3367 59.011 28.0568 56.4816 28.0568C54.0355 28.0568 52.5067 26.3367 52.5067 23.812V13.4357C52.5067 12.4647 51.9508 11.9099 50.9779 11.9099H48.643C47.6701 11.9099 47.1699 12.4647 47.1699 13.4357V24.4224C47.1699 29.3607 50.422 32.69 55.3141 32.69C58.2049 32.69 60.2063 31.4138 61.4571 29.5273V30.6093C61.4571 31.5803 62.013 32.1629 62.9859 32.1629H64.4313C65.4041 32.1629 65.96 31.5526 65.96 30.6093ZM83.1103 29.6659L82.3879 27.9736C82.026 27.28 81.5817 26.8916 80.664 27.4465C80.1084 27.7794 79.4966 28.0568 78.8296 28.0568C77.273 28.0568 76.1889 27.2245 76.1889 24.9773V15.9327H80.6368C81.6097 15.9327 82.1934 15.3778 82.1934 14.4068V13.408C82.1934 12.4369 81.5817 11.9376 80.6368 11.9376H76.1889V6.38881C76.1889 5.33454 75.6611 4.6132 74.5769 4.8629L72.4088 5.3068C71.4081 5.50101 70.88 5.94491 70.88 6.86045V11.9099H68.9065C67.9336 11.9099 67.3499 12.4369 67.3499 13.3803V14.379C67.3499 15.35 67.9615 15.9049 68.9065 15.9049H70.88V25.4488C70.88 30.415 74.1321 32.6623 77.94 32.6623C79.7193 32.6623 81.3038 32.1906 82.4433 31.386C82.9437 31.0254 83.5554 30.5259 83.1103 29.6659ZM103.123 30.6093V13.4357C103.123 12.4647 102.568 11.9099 101.595 11.9099H99.2598C98.2869 11.9099 97.7866 12.4647 97.7866 13.4357V23.701C97.7866 26.3367 96.1747 28.0568 93.6453 28.0568C91.199 28.0568 89.6705 26.3367 89.6705 23.812V13.4357C89.6705 12.4647 89.114 11.9099 88.1412 11.9099H85.8063C84.8334 11.9099 84.3337 12.4647 84.3337 13.4357V24.4224C84.3337 29.3607 87.5855 32.69 92.4778 32.69C95.3684 32.69 97.3701 31.4138 98.6208 29.5273V30.6093C98.6208 31.5803 99.1766 32.1629 100.149 32.1629H101.595C102.568 32.1629 103.123 31.5526 103.123 30.6093ZM122.165 22.1474C122.165 25.4211 119.968 28.029 116.577 28.029C113.52 28.029 111.129 25.8928 111.074 22.1474C110.99 18.3465 113.575 16.2101 116.577 16.2101C119.94 16.2101 122.165 18.8458 122.165 22.1474ZM127.445 22.1474C127.445 16.2101 123.276 11.6047 117.356 11.6047C115.077 11.6047 113.019 12.3538 111.379 13.5745V5.05711C111.379 4.00284 110.851 3.33698 109.767 3.58667L107.571 3.97508C106.57 4.22478 106.042 4.6132 106.042 5.52875V30.5815C106.042 31.5526 106.598 32.1351 107.571 32.1351H108.988C109.961 32.1351 110.462 31.5247 110.462 30.5815V29.5827C112.102 31.4138 114.437 32.6623 117.356 32.6623C123.276 32.69 127.445 28.029 127.445 22.1474ZM146.43 11.9099H144.346C143.372 11.9099 142.872 12.4647 142.511 13.4357L137.73 25.5044L132.949 13.4357C132.588 12.4647 132.059 11.9099 131.059 11.9099H128.446C127.473 11.9099 126.917 12.5479 127.335 13.4357L135.117 30.7201L134.283 32.801C133.561 34.4101 132.727 34.6876 131.781 34.6876C131.309 34.6876 130.781 34.5766 130.363 34.4101C129.363 34.0495 128.835 34.3269 128.586 35.1037L128.14 36.6574C127.862 37.5452 128.418 37.9337 128.947 38.211C129.752 38.5995 130.837 38.8491 132.005 38.8491C134.783 38.8491 137.09 37.7395 138.841 33.7166L147.542 13.4357C147.931 12.5757 147.376 11.9099 146.43 11.9099Z" fill="white"/>
<path d="M26.7667 2.9212C25.9885 2.75473 24.9879 2.67151 23.9039 2.67151C22.8199 2.67151 21.8471 2.78249 21.041 2.9212V32.1078C21.8192 31.9413 22.8199 31.8581 23.9039 31.8581C24.9879 31.8581 25.9607 31.969 26.7667 32.1078" fill="#FDB72B"/>
<path d="M20.7351 5.11272C19.9848 4.89076 19.0119 4.72429 17.9556 4.61333C16.8718 4.53009 15.8989 4.53009 15.0929 4.61333L10.4512 31.192C11.2572 31.1087 12.2578 31.1643 13.314 31.2475C14.398 31.3307 15.3708 31.6636 16.1213 31.8856" fill="#F8A489"/>
<path d="M39.8015 30.221C39.8571 31.2198 40.4408 31.8579 41.4415 31.8579C41.4415 31.8579 43.6374 31.8579 44.0265 31.8579C44.6658 31.8579 45.0828 31.636 45.3052 31.3864C45.5831 31.0256 45.5831 30.2766 45.5831 30.2766C45.4997 27.5299 45.194 24.9775 43.693 21.9534C41.8584 18.5686 40.1907 16.9039 36.2992 15.2116C40.3018 13.4915 43.1648 8.16467 43.3316 3.5037V2.64363C43.3316 1.47839 42.887 0.84028 41.9974 1.03449L39.1344 1.50613C38.3005 1.6726 37.9392 1.9223 37.9392 2.67137C37.9392 2.67137 37.9392 3.5037 37.8002 4.36375C36.8273 10.0235 33.2416 12.4095 29.9616 12.9644C29.4057 13.0476 29.0444 13.0754 29.0444 13.0754C28.2662 13.1308 27.877 13.4638 27.877 14.185V16.4878C27.877 17.2091 28.3217 17.5421 29.0722 17.5421C34.7982 17.5421 39.8571 23.0909 39.8571 28.7506" fill="white"/>
<path d="M14.2866 6.75013C13.5639 6.50043 12.6467 6.13976 11.5625 5.9733C10.4785 5.80684 9.47788 5.72361 8.67172 5.75135L1 30.5544C1.80609 30.5544 2.80676 30.6099 3.86301 30.7764C4.94707 30.9428 5.91993 31.3867 6.55924 31.7751" fill="#25C1F2"/>
</svg>
