<svg width="61" height="61" viewBox="0 0 61 61" fill="none" xmlns="http://www.w3.org/2000/svg">
<g id="google-docs 1" clip-path="url(#clip0_1126_698)">
<path id="Vector" d="M24.25 45.6296H9.25V56.5388C9.25 58.799 11.0807 60.6296 13.3409 60.6296H24.25V45.6296Z" fill="#00832D"/>
<path id="Vector_2" d="M24.25 0.629639H13.3409C11.0807 0.629639 9.25 2.46033 9.25 4.72055V45.6296H24.25V15.6296H37.8864V0.629639H24.25Z" fill="#FFBA00"/>
<path id="Vector_3" d="M52.8866 45.6296H37.8866V60.6296H48.7957C51.0558 60.6296 52.8866 58.799 52.8866 56.5388V45.6296Z" fill="#0066DA"/>
<path id="Vector_4" d="M37.8864 45.6296H24.25V60.6296H37.8864V45.6296Z" fill="#00AC47"/>
<path id="Vector_5" d="M37.8866 15.6296V45.6296H52.8866V15.6296H37.8866Z" fill="#2684FC"/>
<path id="Vector_6" d="M37.8866 0.629639V15.6296H52.8866L37.8866 0.629639Z" fill="#EA4335"/>
<path id="Vector_7" d="M37.8864 15.6296H24.25V45.6296H37.8864V15.6296Z" fill="white"/>
</g>
<defs>
<clipPath id="clip0_1126_698">
<rect width="60" height="60" fill="white" transform="translate(0.5 0.629639)"/>
</clipPath>
</defs>
</svg>
