<svg width="153" height="40" viewBox="0 0 153 40" fill="none" xmlns="http://www.w3.org/2000/svg">
<g id="Microsoft svg">
<path id="Vector" d="M67.2033 22.9262L66.1271 25.9719H66.0374C65.8581 25.2851 65.5292 24.24 64.9911 22.9859L59.2215 8.5037H53.5715V31.5857H57.3083V17.3423C57.3083 16.4465 57.3083 15.4313 57.2784 14.1771C57.2485 13.5501 57.1887 13.0723 57.1588 12.714H57.2485C57.4279 13.6098 57.6371 14.2667 57.7866 14.6848L64.7221 31.5259H67.3528L74.2284 14.5355C74.3779 14.1473 74.5274 13.3709 74.6768 12.714H74.7665C74.6768 14.416 74.6171 15.9389 74.5872 16.8646V31.4961H78.5631V8.44398H73.1223L67.2033 22.9262ZM82.3298 14.9535H86.216V31.4961H82.3298V14.9535ZM84.3028 7.96621C83.6451 7.96621 83.107 8.20509 82.6586 8.62314C82.2102 9.04118 81.971 9.57867 81.971 10.2356C81.971 10.8627 82.2102 11.4001 82.6586 11.8182C83.107 12.2362 83.6451 12.4452 84.3028 12.4452C84.9605 12.4452 85.5284 12.2064 85.947 11.8182C86.3954 11.4001 86.6345 10.8627 86.6345 10.2356C86.6345 9.60853 86.3954 9.07104 85.947 8.62314C85.5583 8.20509 84.9903 7.96621 84.3028 7.96621ZM99.9972 14.8042C99.2798 14.6549 98.5324 14.5653 97.815 14.5653C96.0512 14.5653 94.4369 14.9535 93.0917 15.7299C91.7464 16.5062 90.6702 17.5812 89.9827 18.9249C89.2652 20.2985 88.9065 21.8811 88.9065 23.7026C88.9065 25.2851 89.2652 26.6886 89.9528 27.9726C90.6404 29.2267 91.597 30.2419 92.8824 30.9287C94.1081 31.6155 95.543 31.9738 97.1573 31.9738C99.0107 31.9738 100.595 31.5857 101.851 30.869L101.881 30.8392V27.2559L101.731 27.3754C101.163 27.7934 100.505 28.1517 99.8478 28.3608C99.1602 28.5996 98.5324 28.7191 97.9943 28.7191C96.4398 28.7191 95.2142 28.2712 94.3472 27.2858C93.4504 26.3303 93.002 25.0164 93.002 23.3741C93.002 21.6721 93.4504 20.3283 94.3771 19.343C95.3039 18.3576 96.5295 17.8499 98.0242 17.8499C99.2798 17.8499 100.565 18.268 101.731 19.1041L101.881 19.2235V15.4313L101.851 15.4014C101.342 15.1924 100.774 14.9535 99.9972 14.8042ZM112.822 14.6848C111.865 14.6848 110.968 14.9834 110.191 15.6104C109.534 16.1479 109.085 16.9243 108.696 17.8499H108.667V14.9535H104.78V31.4961H108.667V23.0456C108.667 21.6123 108.966 20.4179 109.623 19.552C110.281 18.6562 111.118 18.2083 112.134 18.2083C112.493 18.2083 112.852 18.2979 113.3 18.3576C113.719 18.477 114.018 18.5965 114.227 18.7458L114.376 18.8652V14.9834L114.287 14.9535C114.018 14.7743 113.48 14.6848 112.822 14.6848ZM123.404 14.5952C120.684 14.5952 118.502 15.4014 116.977 16.984C115.423 18.5666 114.675 20.7464 114.675 23.4935C114.675 26.0615 115.453 28.1517 116.947 29.6746C118.442 31.1676 120.475 31.944 123.016 31.944C125.676 31.944 127.799 31.1378 129.323 29.5253C130.878 27.9128 131.625 25.7629 131.625 23.1054C131.625 20.4777 130.908 18.3874 129.443 16.8646C128.038 15.3417 125.975 14.5952 123.404 14.5952ZM126.513 27.3156C125.796 28.2413 124.66 28.6892 123.255 28.6892C121.85 28.6892 120.714 28.2413 119.907 27.2559C119.1 26.3303 118.711 24.9865 118.711 23.2845C118.711 21.5228 119.13 20.179 119.907 19.2235C120.714 18.268 121.82 17.7902 123.225 17.7902C124.6 17.7902 125.676 18.2381 126.454 19.1638C127.231 20.0895 127.649 21.4332 127.649 23.1949C127.59 24.9865 127.261 26.39 126.513 27.3156ZM140.295 21.8214C139.069 21.3137 138.292 20.9256 137.933 20.5971C137.634 20.2985 137.485 19.8804 137.485 19.343C137.485 18.8951 137.664 18.4472 138.112 18.1486C138.561 17.8499 139.069 17.7006 139.816 17.7006C140.474 17.7006 141.162 17.8201 141.819 17.9992C142.477 18.1784 143.075 18.4472 143.553 18.8055L143.703 18.9249V15.282L143.613 15.2521C143.164 15.0729 142.567 14.8938 141.849 14.7445C141.132 14.625 140.474 14.5653 139.936 14.5653C138.082 14.5653 136.558 15.0132 135.362 15.9986C134.166 16.9243 133.598 18.1784 133.598 19.6416C133.598 20.4179 133.718 21.1047 133.987 21.6721C134.256 22.2394 134.645 22.7769 135.183 23.2248C135.721 23.6428 136.498 24.1206 137.574 24.5685C138.471 24.9567 139.159 25.2553 139.577 25.4942C139.996 25.7331 140.265 26.0018 140.474 26.2108C140.623 26.4497 140.713 26.7483 140.713 27.1365C140.713 28.2413 139.876 28.7788 138.172 28.7788C137.514 28.7788 136.827 28.6594 136.02 28.3906C135.213 28.1219 134.465 27.7337 133.838 27.2858L133.688 27.1663V30.9586L133.778 30.9885C134.346 31.2572 135.033 31.4364 135.87 31.6454C136.707 31.7947 137.455 31.9141 138.112 31.9141C140.115 31.9141 141.759 31.4662 142.925 30.4808C144.121 29.5253 144.749 28.301 144.749 26.7184C144.749 25.6136 144.45 24.6282 143.792 23.8817C142.925 23.1651 141.849 22.4186 140.295 21.8214ZM155.003 14.5952C152.282 14.5952 150.1 15.4014 148.575 16.984C147.051 18.5666 146.273 20.7464 146.273 23.4935C146.273 26.0615 147.051 28.1517 148.545 29.6746C150.04 31.1676 152.073 31.944 154.614 31.944C157.275 31.944 159.397 31.1378 160.922 29.5253C162.476 27.9128 163.224 25.7629 163.224 23.1054C163.224 20.4777 162.506 18.3874 161.041 16.8646C159.636 15.3417 157.574 14.5952 155.003 14.5952ZM158.082 27.3156C157.364 28.2413 156.228 28.6892 154.823 28.6892C153.388 28.6892 152.282 28.2413 151.475 27.2559C150.668 26.3303 150.279 24.9865 150.279 23.2845C150.279 21.5228 150.698 20.179 151.475 19.2235C152.282 18.268 153.388 17.7902 154.793 17.7902C156.139 17.7902 157.245 18.2381 158.022 19.1638C158.799 20.0895 159.218 21.4332 159.218 23.1949C159.218 24.9865 158.829 26.39 158.082 27.3156ZM184 18.1486V14.9535H180.084V10.0564L179.964 10.0863L176.257 11.1911L176.168 11.221V14.9535H170.308V12.8633C170.308 11.9078 170.548 11.1613 170.966 10.6835C171.385 10.2057 172.012 9.96685 172.79 9.96685C173.328 9.96685 173.896 10.0863 174.524 10.355L174.673 10.4446V7.07041L174.583 7.04055C174.045 6.86138 173.328 6.74194 172.401 6.74194C171.235 6.74194 170.219 7.01069 169.292 7.45859C168.365 7.96621 167.678 8.653 167.17 9.57867C166.661 10.4745 166.392 11.4897 166.392 12.6543V14.9535H163.672V18.1187H166.392V31.4961H170.308V18.1486H176.168V26.6587C176.168 30.1524 177.812 31.9141 181.1 31.9141C181.638 31.9141 182.206 31.8245 182.744 31.735C183.312 31.6155 183.731 31.4662 183.97 31.3468L184 31.3169V28.1219L183.851 28.2413C183.611 28.3906 183.402 28.5101 183.043 28.5996C182.744 28.6892 182.475 28.7191 182.266 28.7191C181.489 28.7191 180.951 28.5399 180.562 28.092C180.203 27.674 180.024 26.9872 180.024 25.9719V18.1486H184Z" fill="#969696"/>
<path id="Vector_2" d="M3.46887 0.740234H21.794V19.0446H3.46887V0.740234Z" fill="#969696"/>
<path id="Vector_3" d="M23.7072 0.740234H42.0323V19.0446H23.7072V0.740234Z" fill="#969696"/>
<path id="Vector_4" d="M3.46887 20.9553H21.794V39.2596H3.46887V20.9553Z" fill="#969696"/>
<path id="Vector_5" d="M23.7072 20.9553H42.0323V39.2596H23.7072V20.9553Z" fill="#969696"/>
</g>
</svg>
