<svg width="71" height="71" viewBox="0 0 71 71" fill="none" xmlns="http://www.w3.org/2000/svg">
<g id="Frame 1261154566">
<g id="Group 1261153567">
<path id="Vector" d="M68.2565 8.40771H37.0536V62.8522H68.2565C69.4267 62.8522 70.2067 62.0744 70.2067 60.9077V10.3522C70.2067 9.18549 69.4267 8.40771 68.2565 8.40771Z" fill="#7986CB"/>
<path id="Vector_2" d="M39.0039 22.0188H50.705V25.9077H39.0039V22.0188ZM48.7548 55.0744H33.1533V39.5188H48.7548V55.0744ZM37.0537 51.1855H44.8544V43.4077H37.0537V51.1855Z" fill="#E8EAF6"/>
<path id="Vector_3" d="M40.9539 70.6296L0 62.8519V8.40742L40.9539 0.629639V70.6296Z" fill="#3949AB"/>
<path id="Vector_4" d="M15.601 50.602L7.80029 22.0187L13.2608 21.6298L18.7213 43.7964H19.1114L24.9619 20.4631L31.2025 20.0742L22.0366 51.1853L15.601 50.602Z" fill="white"/>
<path id="Vector_5" d="M56.5555 32.5186L47.9747 23.963L56.5555 15.4075L65.1364 23.963L56.5555 32.5186ZM53.4353 23.963L56.5555 27.0741L59.6758 23.963L56.5555 20.8519L53.4353 23.963Z" fill="#E8EAF6"/>
<path id="Vector_6" d="M58.505 49.2406H48.754V45.3517H54.6046V29.7961H58.505V49.2406Z" fill="#E8EAF6"/>
</g>
</g>
</svg>
