<svg width="212" height="40" viewBox="0 0 212 40" fill="none" xmlns="http://www.w3.org/2000/svg">
<path d="M21.3452 1.09497L13.8701 8.59497H9.42017C9.11782 8.59497 8.82787 8.71507 8.61407 8.92886C8.40028 9.14266 8.28015 9.43264 8.28015 9.73499V14.19L0.805176 21.69V6.68997C0.8065 5.20384 1.39745 3.77894 2.4483 2.72809C3.49916 1.67723 4.92402 1.08628 6.41016 1.08496L21.3452 1.09497Z" fill="#0D3642"/>
<path d="M19.5452 32.1899V38.9399H6.41016C4.92356 38.9373 3.49871 38.3452 2.448 37.2936C1.39729 36.2419 0.806497 34.8165 0.805176 33.33V32.1899H19.5452Z" fill="#E54E1A"/>
<path d="M38.6504 20.6896V33.3146C38.6512 34.0762 38.4963 34.83 38.1954 35.5296C38.1054 35.7363 38.0054 35.9363 37.8954 36.1296C37.7847 36.3156 37.6645 36.4959 37.5354 36.6696C37.0155 37.3729 36.3371 37.9437 35.5552 38.3355C34.7733 38.7273 33.9099 38.9291 33.0354 38.9246H22.2504L29.7504 31.6896L29.8004 31.6396C30.1208 31.3043 30.2999 30.8584 30.3004 30.3946V23.7696C30.3004 23.3585 30.1371 22.9643 29.8464 22.6736C29.5557 22.3829 29.1615 22.2196 28.7504 22.2196H24.2504H14.6304L18.8754 17.9746L19.1954 17.6546L19.8154 17.0346C20.4554 16.3946 21.1054 15.7496 21.7504 15.0996H33.0654C34.545 15.1075 35.9618 15.6991 37.0076 16.7459C38.0534 17.7927 38.6438 19.2099 38.6504 20.6896Z" fill="black"/>
<path d="M38.6505 6.68985V16.0399C38.5072 15.8699 38.3572 15.7032 38.2005 15.5399C37.5238 14.8612 36.7195 14.3232 35.8339 13.9568C34.9483 13.5903 33.9989 13.4028 33.0405 13.4048H29.6655C29.6655 10.9048 29.6655 8.40485 29.6655 5.93484C29.6655 5.16985 29.6905 4.16985 29.7055 3.28485C29.7055 2.49485 29.7405 1.73484 29.7455 1.08984H33.0405C34.5263 1.09116 35.9509 1.68126 37.0024 2.7309C38.0539 3.78053 38.6466 5.20413 38.6505 6.68985Z" fill="black"/>
<path d="M28.6152 30.4101C28.6134 30.4415 28.6011 30.4715 28.5802 30.4951L21.2302 37.5801V30.7751C21.2302 30.7021 21.2012 30.6322 21.1496 30.5806C21.0981 30.529 21.0281 30.5001 20.9552 30.5001H0.805176V24.0001L1.24515 23.5601L23.7451 1.06006H28.0752C28.0752 1.71006 28.0752 2.47506 28.0352 3.22006C28.0352 4.16006 27.9951 5.13005 27.9951 5.90005C27.9951 8.40005 27.9951 10.9001 27.9951 13.4001H21.6552C21.2152 13.4001 20.9751 13.4551 20.8401 13.5901C17.4651 16.9701 14.1202 20.3151 10.9002 23.5251C10.8735 23.5503 10.8536 23.5819 10.8422 23.6168C10.8309 23.6517 10.8285 23.689 10.8352 23.7251C10.8403 23.761 10.8551 23.7949 10.878 23.8231C10.9009 23.8513 10.931 23.8727 10.9651 23.8851C11.0564 23.9226 11.1589 23.9226 11.2502 23.8851L28.5901 23.9101L28.6152 30.4101Z" fill="#005B96"/>
<path d="M59.3257 28.8252C56.0343 28.8827 52.8453 27.6808 50.4106 25.4651L53.1407 22.1952C55.2007 23.8952 57.2923 24.7451 59.4156 24.7451C60.1926 24.7872 60.9648 24.5994 61.6357 24.2052C61.8863 24.0467 62.0923 23.8267 62.2341 23.5662C62.3759 23.3058 62.4487 23.0134 62.4457 22.7168C62.4427 22.4202 62.364 22.1294 62.2169 21.8718C62.0699 21.6142 61.8595 21.3985 61.6057 21.2451C60.5369 20.6861 59.3961 20.2773 58.2156 20.0301C57.2267 19.7955 56.2532 19.4999 55.3007 19.1451C54.5504 18.8495 53.8399 18.4616 53.1856 17.9901C52.5354 17.5347 52.0261 16.9058 51.7156 16.1751C51.3862 15.3402 51.2281 14.4475 51.2506 13.5501C51.2212 12.6784 51.391 11.8114 51.7471 11.0151C52.1032 10.2189 52.6362 9.51437 53.3057 8.95517C54.8031 7.75202 56.6865 7.13366 58.6057 7.21515C61.439 7.16392 64.2001 8.11086 66.4056 9.89016L64.0056 13.3902C62.0256 12.0102 60.2057 11.3202 58.5457 11.3202C57.8426 11.2675 57.1413 11.4429 56.5457 11.8202C56.3234 11.971 56.1422 12.1747 56.0182 12.413C55.8943 12.6513 55.8316 12.9166 55.8357 13.1851C55.8227 13.4961 55.8973 13.8044 56.0512 14.0749C56.205 14.3455 56.4318 14.5673 56.7057 14.7151C57.8773 15.2613 59.1067 15.6739 60.3706 15.9452C62.6506 16.5452 64.3306 17.3152 65.4106 18.2552C66.4906 19.1952 67.0306 20.5468 67.0306 22.3101C67.0748 23.2173 66.9066 24.1223 66.5395 24.953C66.1723 25.7837 65.6163 26.5172 64.9156 27.0951C63.509 28.2485 61.6457 28.8252 59.3257 28.8252Z" fill="black"/>
<path d="M73.9701 33.4149C72.5444 33.4188 71.1445 33.0352 69.9201 32.3049L71.4501 29.0049C72.031 29.3877 72.705 29.6055 73.4001 29.6349C73.7404 29.6422 74.0749 29.5456 74.3589 29.3581C74.643 29.1705 74.8631 28.9008 74.9901 28.5849L68.6851 12.4399H73.5101L77.1701 23.3949L80.6701 12.4399H85.4101L79.2251 28.9399C78.6051 30.6066 77.9051 31.7733 77.1251 32.4399C76.2264 33.1367 75.1052 33.4832 73.9701 33.4149Z" fill="black"/>
<path d="M88.1353 28.5251V12.4401H92.7003V14.7201C94.0336 13.0001 95.6036 12.1401 97.4102 12.1401C98.1523 12.1006 98.894 12.2222 99.5845 12.4967C100.275 12.7711 100.898 13.1919 101.41 13.7301C102.37 14.7901 102.85 16.2501 102.85 18.1101V28.5251H98.3102V19.5501C98.3695 18.6799 98.114 17.8175 97.5902 17.1201C97.3352 16.8357 97.0194 16.6125 96.6662 16.467C96.313 16.3216 95.9316 16.2577 95.5503 16.2801C95.1626 16.2608 94.7754 16.3259 94.4154 16.4709C94.0554 16.616 93.7312 16.8374 93.4652 17.1201C92.914 17.8052 92.6409 18.6727 92.7003 19.5501V28.5251H88.1353Z" fill="black"/>
<path d="M114.425 28.885C113.311 28.9179 112.202 28.7188 111.17 28.3005C110.137 27.8822 109.202 27.2537 108.425 26.455C107.67 25.6382 107.083 24.6806 106.698 23.637C106.313 22.5934 106.137 21.4841 106.181 20.3726C106.224 19.2611 106.487 18.1691 106.952 17.1589C107.418 16.1487 108.078 15.2401 108.895 14.485C109.712 13.7299 110.669 13.1431 111.713 12.758C112.756 12.373 113.866 12.1973 114.977 12.2409C116.089 12.2845 117.181 12.5467 118.191 13.0124C119.201 13.478 120.11 14.1382 120.865 14.955L118.195 17.655C117.202 16.65 115.852 16.0785 114.44 16.065C113.908 16.0554 113.38 16.1664 112.897 16.3899C112.414 16.6133 111.987 16.9432 111.65 17.355C110.904 18.232 110.508 19.354 110.54 20.505C110.503 21.6655 110.904 22.7974 111.665 23.6749C112.032 24.0935 112.488 24.4251 112.999 24.6456C113.51 24.8661 114.064 24.9701 114.62 24.95C115.88 24.95 117.12 24.38 118.315 23.24L120.985 25.94C120.187 26.8366 119.231 27.5789 118.165 28.13C116.993 28.6657 115.713 28.9241 114.425 28.885Z" fill="black"/>
<path d="M133.875 28.5252V23.9952H123.61L122.86 20.7202L134.36 7.36523H138.26V20.2402H141.08V23.9952H138.26V28.5252H133.875ZM128.29 20.2402H133.875V13.6902L128.29 20.2402Z" fill="black"/>
<path d="M150.01 28.5246V11.7796H143.63V7.51465H161.035V11.7796H154.645V28.5246H150.01Z" fill="black"/>
<path d="M168.57 28.885C167.459 28.923 166.353 28.7367 165.316 28.3373C164.279 27.9378 163.333 27.3333 162.535 26.5599C161.744 25.7699 161.124 24.8245 160.716 23.7832C160.308 22.7419 160.121 21.6274 160.165 20.5099C160.111 18.3121 160.918 16.1803 162.415 14.5699C163.135 13.7784 164.018 13.1516 165.002 12.7323C165.987 12.3129 167.05 12.1109 168.12 12.14C170.66 12.14 172.6 12.9733 173.94 14.64C175.308 16.4148 176.015 18.6105 175.94 20.8499C175.94 21.0949 175.94 21.4949 175.88 22.0549H164.695C164.855 22.9708 165.335 23.8 166.05 24.3949C166.79 24.9563 167.702 25.2427 168.63 25.205C170.096 25.1861 171.496 24.5938 172.53 23.5549L175.14 25.8649C174.359 26.8488 173.357 27.6349 172.216 28.1596C171.074 28.6842 169.825 28.9328 168.57 28.885ZM164.635 19.2199H171.51C171.423 18.2905 171.039 17.4138 170.415 16.7199C170.12 16.4118 169.763 16.1696 169.367 16.0093C168.972 15.8491 168.547 15.7743 168.12 15.7899C167.695 15.7779 167.273 15.8528 166.878 16.0102C166.483 16.1675 166.125 16.404 165.825 16.705C165.171 17.3953 164.754 18.2764 164.635 19.2199Z" fill="black"/>
<path d="M186.936 28.885C185.822 28.9179 184.713 28.7188 183.68 28.3005C182.647 27.8822 181.713 27.2537 180.936 26.455C180.181 25.6382 179.594 24.6806 179.209 23.637C178.824 22.5934 178.648 21.4841 178.692 20.3726C178.735 19.2611 178.997 18.1691 179.463 17.1589C179.929 16.1487 180.589 15.2401 181.406 14.485C182.222 13.7299 183.18 13.1431 184.224 12.758C185.267 12.373 186.376 12.1973 187.488 12.2409C188.599 12.2845 189.692 12.5467 190.702 13.0124C191.712 13.478 192.621 14.1382 193.376 14.955L190.706 17.655C189.714 16.6491 188.363 16.0774 186.951 16.065C186.418 16.0554 185.891 16.1664 185.408 16.3899C184.924 16.6133 184.498 16.9432 184.161 17.355C183.415 18.232 183.019 19.354 183.051 20.505C183.014 21.6655 183.415 22.7974 184.176 23.6749C184.543 24.0935 184.998 24.4251 185.509 24.6456C186.021 24.8661 186.574 24.9701 187.131 24.95C188.391 24.95 189.631 24.38 190.826 23.24L193.496 25.94C192.698 26.8366 191.742 27.5789 190.676 28.13C189.504 28.6657 188.224 28.9241 186.936 28.885Z" fill="black"/>
<path d="M196.48 28.5252V6.61523H201.04V14.7202C202.373 13.0002 203.945 12.1403 205.755 12.1403C206.497 12.1007 207.239 12.2224 207.929 12.4968C208.62 12.7713 209.243 13.1921 209.755 13.7303C210.715 14.7903 211.195 16.2503 211.195 18.1103V28.5252H206.635V19.5502C206.694 18.6801 206.439 17.8176 205.915 17.1202C205.66 16.8358 205.344 16.6126 204.991 16.4672C204.638 16.3218 204.256 16.2579 203.875 16.2802C203.487 16.2609 203.1 16.3261 202.74 16.4711C202.38 16.6161 202.056 16.8376 201.79 17.1202C201.234 17.803 200.959 18.6718 201.02 19.5502V28.5252H196.48Z" fill="black"/>
</svg>
