<svg xmlns="http://www.w3.org/2000/svg" viewBox="0 0 420.83 75.69"><defs><style>.cls-1{fill:#0d3642;}.cls-2{fill:#e54e1a;}.cls-3{fill:#005b96;}</style></defs><g id="Layer_2" data-name="Layer 2"><g id="Layer_1-2" data-name="Layer 1"><path class="cls-1" d="M41.09,0l-15,15H17.24A2.29,2.29,0,0,0,15,17.24v8.9L0,41.1V11.22A11.23,11.23,0,0,1,11.22,0Z"/><path class="cls-2" d="M37.49,62.18V75.69H11.22A11.23,11.23,0,0,1,0,64.48v-2.3Z"/><path d="M75.69,39.22V64.48a11,11,0,0,1-.91,4.42,9,9,0,0,1-.6,1.2,10.56,10.56,0,0,1-.71,1.08,11.13,11.13,0,0,1-9,4.51H42.9l15-14.47.1-.1a3.61,3.61,0,0,0,1-2.49l0-13.25a3.1,3.1,0,0,0-3.1-3.1h-9l-19.24,0,8.49-8.49.63-.63L38,31.88,41.84,28H64.48A11.23,11.23,0,0,1,75.69,39.22Z"/><path d="M75.69,11.22V29.89c-.28-.34-.59-.67-.9-1a14.5,14.5,0,0,0-10.31-4.27H57.72c0-4.95,0-10,0-14.94,0-1.52,0-3.53.08-5.3,0-1.58.06-3.1.07-4.39h6.6A11.23,11.23,0,0,1,75.69,11.22Z"/><path class="cls-3" d="M55.62,58.63a.27.27,0,0,1-.06.17L40.86,73V59.36a.55.55,0,0,0-.55-.55H0l0-13L.9,45l45-45h8.66c0,1.29,0,2.82-.07,4.31,0,1.88-.08,3.83-.08,5.36,0,5,0,10,0,15H41.7a2.3,2.3,0,0,0-1.62.38c-6.75,6.76-13.44,13.45-19.89,19.88a.42.42,0,0,0,.14.71.68.68,0,0,0,.56,0h0l34.68,0Z"/><path class="cls-2" d="M117,55.46a25.85,25.85,0,0,1-17.83-6.72l5.47-6.54q6.18,5.1,12.54,5.1a7.92,7.92,0,0,0,4.44-1.08,3.42,3.42,0,0,0,1.63-3,3.37,3.37,0,0,0-1.69-2.91,25.84,25.84,0,0,0-6.78-2.43A49.08,49.08,0,0,1,109,36.11a19,19,0,0,1-4.23-2.32,8.51,8.51,0,0,1-3-3.63,13.39,13.39,0,0,1-.93-5.25A11.42,11.42,0,0,1,105,15.73a15.82,15.82,0,0,1,10.59-3.48,24.22,24.22,0,0,1,15.61,5.34l-4.81,7q-5.94-4.14-10.92-4.14a6.58,6.58,0,0,0-4,1.05,3.25,3.25,0,0,0-1.41,2.73,3.32,3.32,0,0,0,1.74,3.06,34.09,34.09,0,0,0,7.32,2.46q6.84,1.8,10.09,4.62t3.24,8.11A11.67,11.67,0,0,1,128.24,52Q124,55.46,117,55.46Z"/><path class="cls-2" d="M146.33,64.65a15.73,15.73,0,0,1-8.1-2.22l3.06-6.61a7.7,7.7,0,0,0,3.9,1.27A3.38,3.38,0,0,0,148.38,55L135.77,22.69h9.66l7.33,21.91,7-21.91h9.48l-12.36,33q-1.86,5-4.2,7A9.46,9.46,0,0,1,146.33,64.65Z"/><path class="cls-2" d="M174.67,54.86V22.69h9.12v4.56q4-5.16,9.42-5.16a10.32,10.32,0,0,1,8,3.18q2.88,3.18,2.88,8.76V54.86H195V36.92a7.3,7.3,0,0,0-1.45-4.87,5.08,5.08,0,0,0-4.08-1.68,5.36,5.36,0,0,0-4.17,1.68,7,7,0,0,0-1.53,4.87V54.86Z"/><path class="cls-2" d="M227.25,55.58a16.09,16.09,0,0,1-12-4.86,16.32,16.32,0,0,1-4.77-11.88,17,17,0,0,1,29.65-11.11l-5.34,5.4a10.66,10.66,0,0,0-7.5-3.18,7.07,7.07,0,0,0-5.59,2.58,9.37,9.37,0,0,0-2.22,6.31,9.22,9.22,0,0,0,2.25,6.33,7.52,7.52,0,0,0,5.92,2.55q3.78,0,7.38-3.42l5.34,5.4a19.59,19.59,0,0,1-5.64,4.38A16.7,16.7,0,0,1,227.25,55.58Z"/><path class="cls-2" d="M266.14,54.86V45.8H245.61l-1.5-6.54,23.05-26.71H275V38.3h5.64v7.5H275v9.06ZM255,38.3h11.16V25.21Z"/><path class="cls-2" d="M298.44,54.86V21.37H285.65V12.85h34.81v8.52H307.68V54.86Z"/><path class="cls-2" d="M335.53,55.58a16.51,16.51,0,0,1-12.06-4.65,16.19,16.19,0,0,1-4.74-12.09A16.87,16.87,0,0,1,323.23,27a14.86,14.86,0,0,1,11.4-4.86q7.62,0,11.65,5a19.3,19.3,0,0,1,4,12.43q0,.72-.12,2.4H327.79a7.84,7.84,0,0,0,2.7,4.68,8,8,0,0,0,5.16,1.62,11.25,11.25,0,0,0,7.81-3.3l5.22,4.62A16,16,0,0,1,335.53,55.58Zm-7.86-19.32h13.74a8.71,8.71,0,0,0-2.19-5,6.05,6.05,0,0,0-4.59-1.86A6.23,6.23,0,0,0,330,31.24,9,9,0,0,0,327.67,36.26Z"/><path class="cls-2" d="M372.27,55.58a16.09,16.09,0,0,1-12-4.86,16.32,16.32,0,0,1-4.77-11.88,17,17,0,0,1,29.65-11.11l-5.34,5.4a10.66,10.66,0,0,0-7.5-3.18,7.05,7.05,0,0,0-5.58,2.58,9.33,9.33,0,0,0-2.23,6.31,9.22,9.22,0,0,0,2.25,6.33,7.54,7.54,0,0,0,5.92,2.55q3.78,0,7.38-3.42l5.34,5.4a19.59,19.59,0,0,1-5.64,4.38A16.7,16.7,0,0,1,372.27,55.58Z"/><path class="cls-2" d="M391.35,54.86V11h9.13V27.25q4-5.16,9.42-5.16A10.32,10.32,0,0,1,418,25.27q2.88,3.18,2.88,8.76V54.86H411.7V36.92a7.3,7.3,0,0,0-1.44-4.87,5.08,5.08,0,0,0-4.08-1.68A5.36,5.36,0,0,0,402,32.05a7,7,0,0,0-1.53,4.87V54.86Z"/></g></g></svg>