<svg width="13" height="22" viewBox="0 0 13 22" fill="none" xmlns="http://www.w3.org/2000/svg">
<path d="M0.609907 21.5126C1.18157 22.0842 2.10324 22.0842 2.67491 21.5126L12.3699 11.8176C12.4781 11.7096 12.5639 11.5814 12.6224 11.4403C12.681 11.2992 12.7111 11.1479 12.7111 10.9951C12.7111 10.8423 12.681 10.691 12.6224 10.5499C12.5639 10.4087 12.4781 10.2805 12.3699 10.1726L2.67491 0.477578C2.10324 -0.0940886 1.18157 -0.0940886 0.609907 0.477578C0.0382406 1.04924 0.0382406 1.97091 0.609907 2.54258L9.05657 11.0009L0.59824 19.4592C0.0382403 20.0192 0.0382406 20.9526 0.609907 21.5126Z" fill="#FB7A00"/>
</svg>
