<svg width="81" height="81" viewBox="0 0 81 81" fill="none" xmlns="http://www.w3.org/2000/svg">
<rect width="80" height="80" transform="translate(0.5 0.584473)" fill="#CEDBDF"/>
<path d="M64.7856 39.8225L61.5356 33.3225C61.4699 33.1871 61.367 33.0732 61.2389 32.9941C61.1109 32.915 60.963 32.8739 60.8125 32.8756H60.195L59.3825 32.0631H60.8125C61.028 32.0631 61.2347 31.9775 61.387 31.8251C61.5394 31.6728 61.625 31.4661 61.625 31.2506V28.0006C61.625 27.7851 61.5394 27.5785 61.387 27.4261C61.2347 27.2737 61.028 27.1881 60.8125 27.1881H59.3825L60.3981 26.1806C60.5504 26.0272 60.6358 25.8198 60.6358 25.6037C60.6358 25.3876 60.5504 25.1803 60.3981 25.0269L58.0988 22.7275C57.9453 22.5753 57.738 22.4898 57.5219 22.4898C57.3058 22.4898 57.0984 22.5753 56.945 22.7275L55.9375 23.7431V22.3131C55.9375 22.0976 55.8519 21.891 55.6995 21.7386C55.5472 21.5862 55.3405 21.5006 55.125 21.5006H51.875C51.6595 21.5006 51.4528 21.5862 51.3005 21.7386C51.1481 21.891 51.0625 22.0976 51.0625 22.3131V23.7431L50.055 22.7275C49.9016 22.5753 49.6942 22.4898 49.4781 22.4898C49.262 22.4898 49.0547 22.5753 48.9012 22.7275L46.6019 25.0269C46.4496 25.1803 46.3642 25.3876 46.3642 25.6037C46.3642 25.8198 46.4496 26.0272 46.6019 26.1806L47.6175 27.1881H46.1875C45.972 27.1881 45.7653 27.2737 45.613 27.4261C45.4606 27.5785 45.375 27.7851 45.375 28.0006V31.2506C45.375 31.4661 45.4606 31.6728 45.613 31.8251C45.7653 31.9775 45.972 32.0631 46.1875 32.0631H47.6175L46.805 32.8756H42.125V31.1937C42.1238 30.8552 42.1942 30.5203 42.3314 30.2109C42.4686 29.9015 42.6696 29.6245 42.9212 29.3981C43.8512 28.5718 44.555 27.522 44.966 26.3479C45.377 25.1738 45.4818 23.9143 45.2703 22.6884C45.0588 21.4625 44.538 20.3109 43.7573 19.3424C42.9766 18.3739 41.9618 17.6206 40.8088 17.1537C40.685 17.1029 40.5507 17.0834 40.4176 17.097C40.2845 17.1105 40.1568 17.1567 40.0459 17.2315C39.935 17.3062 39.8442 17.4072 39.7817 17.5255C39.7192 17.6437 39.6868 17.7756 39.6875 17.9094V23.4994L38.0625 24.5881L36.4375 23.4994V17.9094C36.4382 17.7756 36.4058 17.6437 36.3433 17.5255C36.2808 17.4072 36.19 17.3062 36.0791 17.2315C35.9682 17.1567 35.8405 17.1105 35.7074 17.097C35.5743 17.0834 35.44 17.1029 35.3162 17.1537C34.1632 17.6206 33.1484 18.3739 32.3676 19.3424C31.5869 20.3109 31.0662 21.4625 30.8547 22.6884C30.6432 23.9143 30.748 25.1738 31.159 26.3479C31.57 27.522 32.2738 28.5718 33.2038 29.3981C33.4554 29.6245 33.6564 29.9015 33.7936 30.2109C33.9308 30.5203 34.0012 30.8552 34 31.1937V32.8756H33.1875C33.037 32.8739 32.8891 32.915 32.7611 32.9941C32.633 33.0732 32.5301 33.1871 32.4644 33.3225L29.2144 39.8225C29.152 39.9462 29.1224 40.0837 29.1282 40.2221C29.134 40.3605 29.175 40.4951 29.2475 40.6131C29.3199 40.7312 29.4214 40.8287 29.5421 40.8966C29.6629 40.9644 29.799 41.0002 29.9375 41.0006H32.375V50.9294L30.75 51.3356V49.9381C30.75 49.7226 30.6644 49.516 30.512 49.3636C30.3597 49.2112 30.153 49.1256 29.9375 49.1256H23.4375C23.222 49.1256 23.0153 49.2112 22.863 49.3636C22.7106 49.516 22.625 49.7226 22.625 49.9381V50.7506H16.9375C16.722 50.7506 16.5153 50.8362 16.363 50.9886C16.2106 51.141 16.125 51.3476 16.125 51.5631V62.9381C16.125 63.1536 16.2106 63.3603 16.363 63.5126C16.5153 63.665 16.722 63.7506 16.9375 63.7506H22.625V64.5631C22.625 64.7786 22.7106 64.9853 22.863 65.1376C23.0153 65.29 23.222 65.3756 23.4375 65.3756H29.9375C30.153 65.3756 30.3597 65.29 30.512 65.1376C30.6644 64.9853 30.75 64.7786 30.75 64.5631V63.4419L31.7981 63.9619C32.5883 64.3552 33.4586 64.5609 34.3412 64.5631H46.5044C47.5033 64.5653 48.4847 64.3017 49.3481 63.7994L62.9981 55.9181C63.5984 55.5718 64.072 55.0423 64.3496 54.4073C64.6272 53.7723 64.6941 53.0651 64.5406 52.3893C64.3871 51.7135 64.0212 51.1046 63.4965 50.6518C62.9719 50.199 62.316 49.9261 61.625 49.8731V41.0006H64.0625C64.201 41.0002 64.3371 40.9644 64.4579 40.8966C64.5786 40.8287 64.68 40.7312 64.7525 40.6131C64.825 40.4951 64.866 40.3605 64.8718 40.2221C64.8776 40.0837 64.8479 39.9462 64.7856 39.8225ZM22.625 62.1256H17.75V52.3756H22.625V62.1256ZM29.125 63.7506H24.25V50.7506H29.125V63.7506ZM47 30.4381V28.8131H48.9094C49.0839 28.8126 49.2537 28.7564 49.394 28.6526C49.5343 28.5488 49.6378 28.4029 49.6894 28.2362C49.7249 28.1211 49.7712 28.0096 49.8275 27.9031C49.9075 27.7497 49.9365 27.5748 49.9101 27.4038C49.8838 27.2328 49.8037 27.0747 49.6812 26.9525L48.3244 25.6037L49.4781 24.45L50.8269 25.8069C50.9491 25.9293 51.1072 26.0094 51.2782 26.0358C51.4492 26.0621 51.6241 26.0331 51.7775 25.9531C51.884 25.8968 51.9955 25.8505 52.1106 25.815C52.2773 25.7634 52.4232 25.6599 52.527 25.5196C52.6307 25.3793 52.687 25.2095 52.6875 25.035V23.1256H54.3125V25.035C54.313 25.2095 54.3693 25.3793 54.473 25.5196C54.5768 25.6599 54.7227 25.7634 54.8894 25.815C55.0045 25.8505 55.116 25.8968 55.2225 25.9531C55.3759 26.0331 55.5508 26.0621 55.7218 26.0358C55.8928 26.0094 56.0509 25.9293 56.1731 25.8069L57.5219 24.45L58.6756 25.6037L57.3188 26.9525C57.1963 27.0747 57.1162 27.2328 57.0899 27.4038C57.0635 27.5748 57.0925 27.7497 57.1725 27.9031C57.2288 28.0096 57.2751 28.1211 57.3106 28.2362C57.3622 28.4029 57.4657 28.5488 57.606 28.6526C57.7463 28.7564 57.9161 28.8126 58.0906 28.8131H60V30.4381H58.0906C57.9161 30.4386 57.7463 30.4949 57.606 30.5986C57.4657 30.7024 57.3622 30.8483 57.3106 31.015C57.2751 31.1301 57.2288 31.2416 57.1725 31.3481C57.0925 31.5015 57.0635 31.6764 57.0899 31.8474C57.1162 32.0184 57.1963 32.1765 57.3188 32.2987L57.9037 32.8756H49.0963L49.6812 32.2987C49.8037 32.1765 49.8838 32.0184 49.9101 31.8474C49.9365 31.6764 49.9075 31.5015 49.8275 31.3481C49.7712 31.2416 49.7249 31.1301 49.6894 31.015C49.6378 30.8483 49.5343 30.7024 49.394 30.5986C49.2537 30.4949 49.0839 30.4386 48.9094 30.4381H47ZM47.8125 37.1331L49.5269 40.5537C49.5926 40.6891 49.6955 40.803 49.8236 40.8821C49.9516 40.9612 50.0995 41.0023 50.25 41.0006H60V50.1656C59.9188 50.2062 59.8294 50.2469 59.7481 50.2875L51.8262 54.8619C51.3936 54.2137 50.7416 53.7434 49.99 53.5375L47.8125 52.9606V37.1331ZM32.375 23.9381C32.373 23.0203 32.5937 22.1157 33.0183 21.3019C33.4428 20.4882 34.0585 19.7896 34.8125 19.2662V23.9381C34.8132 24.0719 34.8469 24.2035 34.9107 24.3212C34.9745 24.4388 35.0664 24.5389 35.1781 24.6125L37.6156 26.2375C37.7468 26.3287 37.9027 26.3776 38.0625 26.3776C38.2223 26.3776 38.3782 26.3287 38.5094 26.2375L40.9469 24.6125C41.0586 24.5389 41.1505 24.4388 41.2143 24.3212C41.2781 24.2035 41.3118 24.0719 41.3125 23.9381V19.2662C42.0178 19.7571 42.6027 20.4014 43.0233 21.1508C43.4438 21.9001 43.6891 22.7351 43.7408 23.5928C43.7924 24.4506 43.6489 25.3089 43.3212 26.1033C42.9935 26.8977 42.4901 27.6074 41.8487 28.1794C41.4221 28.5567 41.0811 29.0208 40.8485 29.5407C40.6159 30.0606 40.4971 30.6242 40.5 31.1937V32.8756H38.875V30.4381C38.875 30.2226 38.7894 30.016 38.637 29.8636C38.4847 29.7112 38.278 29.6256 38.0625 29.6256C37.847 29.6256 37.6403 29.7112 37.488 29.8636C37.3356 30.016 37.25 30.2226 37.25 30.4381V32.8756H35.625V31.1937C35.6276 30.625 35.5095 30.0622 35.2783 29.5426C35.0472 29.023 34.7084 28.5583 34.2844 28.1794C33.6835 27.6483 33.2024 26.9955 32.8732 26.2642C32.544 25.533 32.3742 24.74 32.375 23.9381ZM31.2538 39.3756L33.6912 34.5006H45.6838L43.2463 39.3756H31.2538ZM46.1875 37.1331V52.5219L37.8675 50.2956C36.9346 50.0439 35.9527 50.0355 35.0156 50.2712L34 50.5231V41.0006H43.75C43.9005 41.0023 44.0484 40.9612 44.1764 40.8821C44.3045 40.803 44.4074 40.6891 44.4731 40.5537L46.1875 37.1331ZM62.7706 52.2944C62.9864 52.6663 63.046 53.1085 62.9363 53.5243C62.8267 53.94 62.5567 54.2954 62.1856 54.5125L48.5356 62.3937C47.9183 62.751 47.2176 62.9388 46.5044 62.9381H34.3412C33.7092 62.9394 33.0857 62.7919 32.5212 62.5075L30.75 61.6219V53.0094L35.4056 51.8475C36.0756 51.6781 36.7778 51.6837 37.445 51.8637L49.5675 55.1137C49.8794 55.1947 50.16 55.367 50.3733 55.6085C50.5866 55.85 50.723 56.1497 50.7649 56.4691C50.8068 56.7886 50.7523 57.1133 50.6085 57.4017C50.4646 57.69 50.238 57.9288 49.9575 58.0875C49.7744 58.1955 49.5714 58.2656 49.3606 58.2935C49.1498 58.3214 48.9356 58.3066 48.7306 58.25L39.0375 55.65C38.8285 55.594 38.6058 55.6233 38.4183 55.7314C38.2309 55.8396 38.0942 56.0178 38.0381 56.2269C37.9821 56.4359 38.0114 56.6586 38.1196 56.846C38.2278 57.0334 38.406 57.1702 38.615 57.2262L48.3081 59.8181C48.5837 59.8923 48.8677 59.9305 49.1531 59.9319C49.7216 59.9327 50.2799 59.7812 50.77 59.4931C51.1414 59.281 51.4669 58.9972 51.7277 58.6583C51.9885 58.3194 52.1795 57.932 52.2894 57.5187C52.3795 57.1605 52.4097 56.7899 52.3787 56.4219L60.5606 51.7012C60.934 51.494 61.3732 51.44 61.7856 51.5507C62.198 51.6614 62.5512 51.928 62.7706 52.2944ZM50.7537 39.3756L48.3162 34.5006H60.3088L62.7463 39.3756H50.7537Z" fill="#FB7A00" stroke="#FB7A00" stroke-width="0.3"/>
<path d="M56.75 29.6255C56.75 28.9827 56.5594 28.3543 56.2023 27.8199C55.8452 27.2854 55.3376 26.8689 54.7437 26.6229C54.1499 26.3769 53.4964 26.3125 52.866 26.4379C52.2355 26.5633 51.6564 26.8729 51.2019 27.3274C50.7474 27.7819 50.4379 28.361 50.3124 28.9914C50.187 29.6219 50.2514 30.2754 50.4974 30.8692C50.7434 31.4631 51.1599 31.9707 51.6944 32.3278C52.2289 32.6849 52.8572 32.8755 53.5 32.8755C54.362 32.8755 55.1886 32.5331 55.7981 31.9236C56.4076 31.3141 56.75 30.4874 56.75 29.6255ZM53.5 31.2505C53.1786 31.2505 52.8644 31.1552 52.5972 30.9766C52.33 30.7981 52.1217 30.5443 51.9987 30.2474C51.8757 29.9504 51.8435 29.6237 51.9062 29.3085C51.9689 28.9932 52.1237 28.7037 52.351 28.4764C52.5782 28.2492 52.8678 28.0944 53.183 28.0317C53.4982 27.969 53.8249 28.0012 54.1219 28.1242C54.4188 28.2472 54.6726 28.4555 54.8511 28.7227C55.0297 28.9899 55.125 29.3041 55.125 29.6255C55.125 30.0565 54.9538 30.4698 54.6491 30.7745C54.3443 31.0793 53.931 31.2505 53.5 31.2505Z" fill="#FB7A00"/>
</svg>
