<svg width="92" height="92" viewBox="0 0 92 92" fill="none" xmlns="http://www.w3.org/2000/svg">
<rect width="92" height="92" fill="#E3EEF1"/>
<path d="M51.918 27.4609H49.6085L49.3177 26.6414C48.9692 25.6597 48.0367 25 46.9961 25C45.9554 25 45.023 25.6597 44.6745 26.6414L44.3837 27.4609H42.0742C40.715 27.4609 39.6133 28.5627 39.6133 29.9219V31.1523C39.6133 31.8319 40.1642 32.3828 40.8438 32.3828H53.1484C53.828 32.3828 54.3789 31.8319 54.3789 31.1523V29.9219C54.3789 28.5627 53.2771 27.4609 51.918 27.4609Z" fill="#FB7A00"/>
<path d="M59.3008 29.9219H56.8398V31.1523C56.8398 33.1879 55.184 34.8438 53.1484 34.8438H40.8438C38.8082 34.8438 37.1523 33.1879 37.1523 31.1523V29.9219H34.6914C32.6559 29.9219 31 31.5778 31 33.6133V63.1445C31 65.1801 32.6559 67 34.6914 67H59.3008C61.3363 67 62.9922 65.1801 62.9922 63.1445V33.6133C62.9922 31.5778 61.3363 29.9219 59.3008 29.9219ZM45.4051 56.6317L40.4832 61.5535C40.2429 61.7939 39.928 61.9141 39.6133 61.9141C39.2985 61.9141 38.9836 61.7939 38.7433 61.5535L36.2824 59.0926C35.8018 58.612 35.8018 57.8333 36.2824 57.3526C36.763 56.872 37.5417 56.872 38.0224 57.3526L39.6133 58.9436L43.6652 54.8917C44.1458 54.4111 44.9246 54.4111 45.4052 54.8917C45.8858 55.3723 45.8858 56.151 45.4051 56.6317ZM45.4051 48.0184L40.4832 52.9403C40.2429 53.1806 39.928 53.3008 39.6133 53.3008C39.2985 53.3008 38.9836 53.1806 38.7433 52.9403L36.2824 50.4793C35.8018 49.9987 35.8018 49.22 36.2824 48.7394C36.763 48.2587 37.5417 48.2587 38.0224 48.7394L39.6133 50.3303L43.6652 46.2784C44.1458 45.7978 44.9246 45.7978 45.4052 46.2784C45.8858 46.759 45.8858 47.5378 45.4051 48.0184ZM45.4051 39.4051L40.4832 44.327C40.2429 44.5673 39.928 44.6875 39.6133 44.6875C39.2985 44.6875 38.9836 44.5673 38.7433 44.327L36.2824 41.866C35.8018 41.3854 35.8018 40.6067 36.2824 40.1261C36.763 39.6454 37.5417 39.6454 38.0224 40.1261L39.6133 41.7171L43.6652 37.6651C44.1458 37.1845 44.9246 37.1845 45.4052 37.6651C45.8858 38.1458 45.8858 38.9245 45.4051 39.4051ZM56.8398 59.4531H49.457C48.7769 59.4531 48.2266 58.9028 48.2266 58.2227C48.2266 57.5425 48.7769 56.9922 49.457 56.9922H56.8398C57.52 56.9922 58.0703 57.5425 58.0703 58.2227C58.0703 58.9028 57.52 59.4531 56.8398 59.4531ZM56.8398 50.8398H49.457C48.7769 50.8398 48.2266 50.2895 48.2266 49.6094C48.2266 48.9293 48.7769 48.3789 49.457 48.3789H56.8398C57.52 48.3789 58.0703 48.9293 58.0703 49.6094C58.0703 50.2895 57.52 50.8398 56.8398 50.8398ZM56.8398 42.2266H49.457C48.7769 42.2266 48.2266 41.6762 48.2266 40.9961C48.2266 40.316 48.7769 39.7656 49.457 39.7656H56.8398C57.52 39.7656 58.0703 40.316 58.0703 40.9961C58.0703 41.6762 57.52 42.2266 56.8398 42.2266Z" fill="#0D3642"/>
</svg>
