<svg width="93" height="92" viewBox="0 0 93 92" fill="none" xmlns="http://www.w3.org/2000/svg">
<rect width="92" height="92" transform="translate(0.5)" fill="#E3EEF1"/>
<g clip-path="url(#clip0_4088_29701)">
<path d="M39.4142 58.6467H56.7304C56.984 57.7591 56.9126 56.6099 56.9285 55.6827H39.2239C39.2319 56.602 39.1764 57.767 39.4142 58.6467ZM39.2239 51.1338H56.9285V54.0977H39.2239V51.1338ZM47.7988 23C34.5006 23.0238 28.7312 39.9912 39.2239 48.1064V49.5487H56.9285V47.6626C66.7476 39.278 60.7246 23 47.7988 23ZM47.7988 45.5942C43.0755 45.5942 39.2239 41.7506 39.2239 37.0193C39.7074 25.639 55.8903 25.647 56.3737 37.0193C56.3737 41.7506 52.5222 45.5942 47.7988 45.5942ZM47.0222 64.741H49.1303C52.1101 64.7806 55.0027 62.9103 56.1994 60.2317H39.961C41.1656 62.9182 44.0503 64.7727 47.0222 64.741ZM47.0222 66.326C45.9365 66.3181 45.0251 66.1675 44.0345 65.8267C44.3594 66.7302 45.2232 67.38 46.2455 67.38H49.3522C50.2952 67.38 51.1115 66.8253 51.484 66.0248C50.216 66.4211 48.3774 66.3181 47.0222 66.326Z" fill="#0D3642"/>
<path d="M47.7987 30.0292C43.9472 30.0292 40.8089 33.1675 40.8089 37.0191C41.1813 46.2834 54.4162 46.2834 54.7886 37.0191C54.7886 33.1675 51.6503 30.0292 47.7987 30.0292ZM47.3946 36.0522L48.7022 36.4881C51.0163 37.241 50.8261 40.5774 48.5912 41.251C48.7497 42.5983 46.8557 42.6062 47.0062 41.251C46.489 41.0826 46.0382 40.7552 45.718 40.3155C45.3978 39.8758 45.2246 39.3462 45.2231 38.8022C45.2231 38.3663 45.5797 38.0097 46.0156 38.0097C46.4515 38.0097 46.8081 38.3663 46.8081 38.8022C46.8081 39.349 47.2519 39.7928 47.7987 39.7928C48.7973 39.8245 49.2094 38.3267 48.2029 37.9939L46.8953 37.5501C44.5812 36.7972 44.7714 33.4608 47.0062 32.7871C46.8477 31.4399 48.7577 31.4557 48.5912 32.7871C49.6215 33.12 50.3744 34.0948 50.3744 35.236C50.3665 36.2741 48.7973 36.2741 48.7894 35.236C48.7894 34.6891 48.3456 34.2453 47.7987 34.2453C46.7923 34.2136 46.396 35.7035 47.3946 36.0522ZM30.9263 27.5487C31.2037 27.6676 32.9155 28.8167 33.2087 28.7454C33.9854 28.7771 34.3103 27.6359 33.605 27.2634L31.7188 26.1698C30.8154 25.6626 30.0308 27.0257 30.9263 27.5487ZM30.958 35.2677H28.7786C27.7405 35.2756 27.7405 36.8447 28.7786 36.8527H30.958C31.9962 36.8447 31.9962 35.2677 30.958 35.2677ZM32.6698 43.5097L30.7837 44.6033C30.0783 44.9758 30.4033 46.1091 31.1799 46.0853C31.4732 46.1566 33.185 45.0075 33.4623 44.8886C34.3579 44.3576 33.5654 42.9945 32.6698 43.5097ZM62.3887 28.7454C62.682 28.8167 64.3938 27.6676 64.6712 27.5487C65.5667 27.0257 64.7742 25.6626 63.8787 26.1777L61.9925 27.2713C61.2872 27.6438 61.6121 28.7771 62.3887 28.7454ZM66.8188 35.2677H64.6395C63.6013 35.2756 63.6013 36.8447 64.6395 36.8527H66.8188C67.857 36.8447 67.857 35.2677 66.8188 35.2677ZM64.8217 44.6033L62.9356 43.5097C62.04 42.9945 61.2475 44.3576 62.1431 44.8807C62.4204 44.9996 64.1323 46.1487 64.4255 46.0774C65.2021 46.1091 65.5191 44.9758 64.8217 44.6033Z" fill="#FB7A00"/>
</g>
<defs>
<clipPath id="clip0_4088_29701">
<rect width="45" height="45" fill="white" transform="translate(25 23)"/>
</clipPath>
</defs>
</svg>
