<svg width="80" height="80" viewBox="0 0 80 80" fill="none" xmlns="http://www.w3.org/2000/svg">
<rect width="80" height="80" fill="#E7E7E7"/>
<path d="M41.875 41.0938H38.125V32.5H41.875V35.5308V41.0938Z" fill="#FB7A00"/>
<path d="M47.8125 27.8125H44.0625V41.0938H47.8125V27.8125Z" fill="#FB7A00"/>
<path d="M35.9375 37.1875H32.1875V41.0938H35.9375V37.1875Z" fill="#FB7A00"/>
<path d="M56.25 23.7497H43.2812C43.2812 23.232 42.8614 22.8122 42.3438 22.8122H40.9375V20.9375C40.9375 20.4198 40.5178 20 40 20C39.4822 20 39.0625 20.4198 39.0625 20.9375V22.8122H37.6562C37.1386 22.8122 36.7188 23.232 36.7188 23.7497H23.75C23.2323 23.7497 22.8125 24.1695 22.8125 24.6872V44.2188C22.8125 44.7366 23.2327 45.1562 23.75 45.1562H31.7188C31.7188 45.6747 32.1386 46.1792 32.6562 46.1792H32.9659L29.738 58.8208C29.6045 59.3203 29.9013 59.8336 30.4006 59.967C30.9002 60.1005 31.4134 59.8037 31.547 59.3042L34.9045 46.1792H39.0625V59.0625C39.0625 59.5803 39.4822 60 40 60C40.5178 60 40.9375 59.5803 40.9375 59.0625V46.1792H45.0953L48.4528 59.3042C48.5863 59.8037 49.0997 60.1005 49.5992 59.967C50.0986 59.8336 50.3955 59.3203 50.2619 58.8208L47.0338 46.1792H47.703C48.2206 46.1792 48.6405 45.6747 48.6405 45.1562H56.25C56.7675 45.1562 57.1875 44.7362 57.1875 44.2188V24.6872C57.1875 24.1698 56.7677 23.7497 56.25 23.7497ZM55.3125 43.2812C48.2364 43.2812 31.6706 43.2812 24.6875 43.2812V25.625H55.3125" fill="#0D3642"/>
</svg>
