<svg width="13" height="22" viewBox="0 0 13 22" fill="none" xmlns="http://www.w3.org/2000/svg">
<path d="M12.3901 21.5126C11.8184 22.0842 10.8968 22.0842 10.3251 21.5126L0.630094 11.8176C0.52194 11.7096 0.436134 11.5814 0.377589 11.4403C0.319044 11.2992 0.288909 11.1479 0.288909 10.9951C0.288909 10.8423 0.319044 10.691 0.377589 10.5499C0.436134 10.4087 0.52194 10.2805 0.630094 10.1726L10.3251 0.477578C10.8968 -0.0940886 11.8184 -0.0940886 12.3901 0.477578C12.9618 1.04924 12.9618 1.97091 12.3901 2.54258L3.94343 11.0009L12.4018 19.4592C12.9618 20.0192 12.9618 20.9526 12.3901 21.5126Z" fill="#FB7A00"/>
</svg>
