<svg width="81" height="81" viewBox="0 0 81 81" fill="none" xmlns="http://www.w3.org/2000/svg">
<rect width="80" height="80" transform="translate(0.5 0.584473)" fill="#CEDBDF"/>
<path d="M60.9622 20.7495H25.2217C24.131 20.7495 23.2067 21.6302 23.2067 22.7645V26.7064H19.265C18.1341 26.7064 17.25 27.5905 17.25 28.7213V59.3145C17.25 60.4052 18.1307 61.3295 19.265 61.3295H55.0055C56.0962 61.3295 57.0204 60.4488 57.0204 59.3145V55.3727H60.9622C62.0529 55.3727 62.9772 54.4919 62.9772 53.3577V22.7645C62.9772 21.6336 62.0931 20.7495 60.9622 20.7495ZM25.2217 22.7203H60.9622C60.975 22.7203 60.9878 22.7256 60.9955 22.7328C60.9988 22.7358 61.0011 22.739 61.0026 22.7425C61.0041 22.7458 61.0064 22.7525 61.0064 22.7645V27.5889H25.1776V22.7645C25.1776 22.7525 25.1798 22.7458 25.1813 22.7425C25.1829 22.739 25.1851 22.7358 25.1884 22.7328C25.1962 22.7256 25.209 22.7203 25.2217 22.7203ZM19.265 28.6772H23.2067V33.5457H19.2208V28.7213C19.2208 28.7086 19.2261 28.6958 19.2332 28.688C19.2363 28.6847 19.2394 28.6825 19.243 28.6809C19.2463 28.6794 19.2529 28.6772 19.265 28.6772ZM55.0496 59.3145C55.0496 59.3273 55.0443 59.3401 55.0372 59.3478C55.0354 59.3498 55.0335 59.3514 55.0315 59.3527C55.0302 59.3536 55.0289 59.3543 55.0275 59.355C55.0242 59.3564 55.0175 59.3587 55.0055 59.3587H19.265C19.2522 59.3587 19.2394 59.3534 19.2317 59.3463C19.2283 59.3432 19.2261 59.3401 19.2245 59.3365C19.2231 59.3332 19.2208 59.3265 19.2208 59.3145V35.5165H23.2067V53.3577C23.2067 54.4484 24.0875 55.3727 25.2217 55.3727H55.0496V59.3145ZM60.9622 53.4018H25.2217C25.209 53.4018 25.1962 53.3965 25.1884 53.3894C25.1851 53.3864 25.1829 53.3832 25.1813 53.3797C25.1798 53.3764 25.1776 53.3697 25.1776 53.3577V29.5597H61.0064V53.3577C61.0064 53.3704 61.0011 53.3832 60.9939 53.391C60.9909 53.3943 60.9877 53.3965 60.9842 53.3981C60.9809 53.3996 60.9742 53.4018 60.9622 53.4018Z" fill="#FB7A00" stroke="#FB7A00" stroke-width="0.5"/>
<path d="M28.4229 25.9904H31.1439C31.6864 25.9904 32.1293 25.5475 32.1293 25.0049C32.1293 24.4624 31.6864 24.0195 31.1439 24.0195H28.4229C27.8804 24.0195 27.4375 24.4624 27.4375 25.0049C27.4375 25.5475 27.8804 25.9904 28.4229 25.9904ZM34.637 25.9904H37.358C37.9006 25.9904 38.3434 25.5475 38.3434 25.0049C38.3434 24.4624 37.9006 24.0195 37.358 24.0195H34.637C34.0945 24.0195 33.6516 24.4624 33.6516 25.0049C33.6516 25.5475 34.0945 25.9904 34.637 25.9904Z" fill="#FB7A00" stroke="#FB7A00" stroke-width="0.5"/>
<path d="M31.5527 41.5567V41.7091L31.6881 41.7789L38.6744 45.3824L39.039 45.5705V45.1602V43.7629V43.6084L38.9009 43.5393L33.9796 41.0787L38.9009 38.618L39.039 38.5489V38.3944V36.9971V36.5888L38.6754 36.7745L31.6891 40.3412L31.5527 40.4108V40.5639V41.5567ZM40.0999 45.5121L39.97 45.8515H40.3334H41.6571H41.8286L41.8903 45.6915L46.0086 35.0281L46.1399 34.688H45.7754H44.4149H44.2429L44.1814 34.8486L40.0999 45.5121ZM47.3966 36.7745L47.0329 36.5888V36.9971V38.3944V38.5494L47.1717 38.6183L52.1261 41.0787L47.1717 43.539L47.0329 43.608V43.7629V45.1602V45.5705L47.3975 45.3824L54.3838 41.7789L54.5192 41.7091V41.5567V40.5639V40.4108L54.3829 40.3412L47.3966 36.7745Z" fill="#FB7A00" stroke="#FB7A00" stroke-width="0.5"/>
</svg>
