<svg width="49" height="49" viewBox="0 0 49 49" fill="none" xmlns="http://www.w3.org/2000/svg">
<g id="Quote Icon">
<path id="Vector" d="M21.8384 21.7803L21.8384 42.7803L0.838381 42.7803L0.838379 21.4803C0.838378 7.08027 14.3384 5.28028 14.3384 5.28028L16.1384 9.48027C16.1384 9.48027 10.1384 10.3803 8.93838 15.1803C7.73838 18.7803 10.1384 21.7803 10.1384 21.7803L21.8384 21.7803Z" fill="#FB7A00"/>
<path id="Vector_2" d="M48.8384 21.7803L48.8384 42.7803L27.8384 42.7803L27.8384 21.4803C27.8384 7.08027 41.3384 5.28028 41.3384 5.28028L43.1384 9.48027C43.1384 9.48027 37.1384 10.3803 35.9384 15.1803C34.7384 18.7803 37.1384 21.7803 37.1384 21.7803L48.8384 21.7803Z" fill="#FB7A00"/>
</g>
</svg>
