<svg width="80" height="80" viewBox="0 0 80 80" fill="none" xmlns="http://www.w3.org/2000/svg">
<rect width="80" height="80" fill="#E7E7E7"/>
<path d="M27.3352 24.0607H31.7186V25.936H27.3352C26.6496 25.936 26.0852 26.4999 26.0852 27.1857V56.8729C26.0852 57.5587 26.6494 58.1229 27.3352 58.1229H52.6647C53.3505 58.1229 53.9146 57.5587 53.9146 56.8729V27.1857C53.9146 26.4999 53.3505 25.936 52.6647 25.936H48.2811V24.0607H52.6647C54.385 24.0607 55.7897 25.4654 55.7897 27.1857V56.8729C55.7897 58.5937 54.3855 59.9979 52.6647 59.9979H27.3352C25.6144 59.9979 24.2102 58.5937 24.2102 56.8729V27.1857C24.2102 25.4654 25.6149 24.0607 27.3352 24.0607ZM32.9686 23.2832H36.7186C36.7186 21.4713 38.188 20.002 39.9999 20.002C41.8121 20.002 43.2811 21.4713 43.2811 23.2832H47.0311V27.9707H32.9686V23.2832ZM38.5938 23.2832H41.4061C41.4061 22.5062 40.7769 21.877 39.9999 21.877C39.223 21.877 38.5938 22.5062 38.5938 23.2832Z" fill="#0D3642"/>
<path fill-rule="evenodd" clip-rule="evenodd" d="M30.625 32.123H49.3747V33.373H30.625V32.123ZM30.625 35.4049H49.3747V36.6549H30.625V35.4049Z" fill="#FB7A00"/>
<path fill-rule="evenodd" clip-rule="evenodd" d="M30.7503 38.4681H49.5V39.7181H30.7503V38.4681ZM30.7503 41.75H49.5V43H30.7503V41.75Z" fill="#FB7A00"/>
<g clip-path="url(#clip0_1279_254)">
<path d="M55.0282 44.179L47.8754 51.3394C47.8394 51.3756 47.8137 51.4207 47.8011 51.4702L47.0082 54.6556C46.9966 54.7029 46.9973 54.7524 47.0103 54.7993C47.0233 54.8462 47.0482 54.8889 47.0826 54.9234C47.1353 54.9761 47.2068 55.0056 47.2813 55.0057C47.3042 55.0057 47.3271 55.0029 47.3494 54.9972L50.5316 54.2035C50.5811 54.1911 50.6263 54.1654 50.6623 54.1292L57.8157 46.9692L55.0282 44.179ZM59.5877 43.2027L58.7915 42.4057C58.2594 41.873 57.3319 41.8735 56.8003 42.4057L55.825 43.382L58.6124 46.1721L59.5877 45.1959C59.8535 44.9299 60 44.5758 60 44.1993C60 43.8228 59.8535 43.4688 59.5877 43.2027Z" fill="#FB7A00"/>
</g>
<defs>
<clipPath id="clip0_1279_254">
<rect width="13" height="13" fill="white" transform="translate(47 42)"/>
</clipPath>
</defs>
</svg>
