<svg width="40" height="40" viewBox="0 0 40 40" fill="none" xmlns="http://www.w3.org/2000/svg">
<g id="Requirements Documents">
<g id="Group">
<g id="Group_2">
<g id="_x31_3">
<path id="Vector" d="M7.33533 4.0607H11.7188V5.93602H7.33533C6.6497 5.93602 6.08533 6.49992 6.08533 7.1857V36.8729C6.08533 37.5587 6.64955 38.1229 7.33533 38.1229H32.6649C33.3506 38.1229 33.9147 37.5587 33.9147 36.8729V7.1857C33.9147 6.49992 33.3506 5.93602 32.6649 5.93602H28.2813V4.0607H32.6649C34.3852 4.0607 35.7899 5.46539 35.7899 7.1857V36.8729C35.7899 38.5937 34.3856 39.9979 32.6649 39.9979H7.33533C5.61455 39.9979 4.21033 38.5937 4.21033 36.8729V7.1857C4.21033 5.46539 5.61501 4.0607 7.33533 4.0607ZM12.9688 3.2832H16.7188C16.7188 1.47133 18.1881 0.00195312 20 0.00195312C21.8122 0.00195312 23.2813 1.47133 23.2813 3.2832H27.0313V7.9707H12.9688V3.2832ZM18.5939 3.2832H21.4063C21.4063 2.50617 20.777 1.87695 20 1.87695C19.2231 1.87695 18.5939 2.50617 18.5939 3.2832Z" fill="#0D3642"/>
<path id="Vector_2" fill-rule="evenodd" clip-rule="evenodd" d="M29.375 25.4658V13.2567C29.375 13.0522 29.2614 12.877 29.0711 12.7877C28.8808 12.6983 28.668 12.7202 28.5016 12.8472L22.0569 18.5347C21.8839 18.6666 21.6595 18.6848 21.4659 18.5836L18.3008 16.3016C18.0667 16.1789 17.7812 16.2369 17.6178 16.4398L14.7733 20.6003C14.6148 20.7972 14.3422 20.8581 14.1105 20.7486L11.4016 19.1558C11.2295 19.0744 11.0414 19.0837 10.8789 19.1817C10.7163 19.28 10.625 19.4389 10.625 19.6245V25.4659L29.375 25.4658ZM10.625 28.1227H29.3747V29.3727H10.625V28.1227ZM10.625 31.4045H29.3747V32.6545H10.625V31.4045Z" fill="#FB7A00"/>
</g>
</g>
</g>
</g>
</svg>
