<svg width="80" height="80" viewBox="0 0 80 80" fill="none" xmlns="http://www.w3.org/2000/svg">
<rect width="80" height="80" fill="#E7E7E7"/>
<path d="M45.8561 45.8562L45.8561 45.8562C46.1813 45.531 46.1813 45.0039 45.8561 44.6787L43.6333 42.4559L43.5626 42.3852L43.4919 42.4559L42.4559 43.4919L42.3852 43.5626L42.4559 43.6333L44.6787 45.8562L44.6787 45.8562C45.0039 46.1813 45.531 46.1813 45.8561 45.8562ZM43.3373 42.3012L43.408 42.2305L43.3373 42.1598L42.9955 41.818C43.6829 40.8888 44.0896 39.7392 44.0896 38.4948C44.0896 35.4049 41.5847 32.9 38.4948 32.9C35.4049 32.9 32.9 35.4049 32.9 38.4948C32.9 41.5846 35.4049 44.0895 38.4948 44.0895C39.7393 44.0895 40.8888 43.6828 41.8181 42.9955L42.1599 43.3373L42.2306 43.408L42.3013 43.3373L43.3373 42.3012ZM38.4948 33.9372C39.7533 33.9372 40.8926 34.4473 41.7174 35.2722C42.5423 36.0971 43.0524 37.2363 43.0524 38.4948C43.0524 39.7533 42.5423 40.8925 41.7175 41.7174C40.8925 42.5423 39.7533 43.0523 38.4948 43.0523C37.2363 43.0523 36.0971 42.5423 35.2722 41.7174C34.4473 40.8925 33.9372 39.7532 33.9372 38.4947C33.9372 37.2363 34.4473 36.0971 35.2722 35.2721C36.0971 34.4472 37.2364 33.9372 38.4948 33.9372Z" fill="#FB7A00" stroke="#FB7A00" stroke-width="0.2"/>
<circle cx="38.5" cy="38.5" r="4.5" fill="#FB7A00"/>
<path d="M27.125 24.0588H31.5084V25.9341H27.125C26.4394 25.9341 25.875 26.498 25.875 27.1837V56.8709C25.875 57.5567 26.4392 58.1209 27.125 58.1209H52.4545C53.1403 58.1209 53.7044 57.5567 53.7044 56.8709V27.1837C53.7044 26.498 53.1403 25.9341 52.4545 25.9341H48.0709V24.0588H52.4545C54.1748 24.0588 55.5795 25.4634 55.5795 27.1837V56.8709C55.5795 58.5917 54.1753 59.9959 52.4545 59.9959H27.125C25.4042 59.9959 24 58.5917 24 56.8709V27.1837C24 25.4634 25.4047 24.0588 27.125 24.0588ZM32.7584 23.2812H36.5084C36.5084 21.4694 37.9778 20 39.7897 20C41.6019 20 43.0709 21.4694 43.0709 23.2812H46.8209V27.9688H32.7584V23.2812ZM38.3836 23.2812H41.1959C41.1959 22.5042 40.5667 21.875 39.7897 21.875C39.0128 21.875 38.3836 22.5042 38.3836 23.2812Z" fill="#0D3642"/>
<path fill-rule="evenodd" clip-rule="evenodd" d="M30.7898 48.1211H49.5395V49.3711H30.7898V48.1211ZM30.7898 51.403H49.5395V52.653H30.7898V51.403Z" fill="#FB7A00"/>
</svg>
