<svg width="195" height="33" viewBox="0 0 195 33" fill="none" xmlns="http://www.w3.org/2000/svg">
<g id="Samsung Electronics svg">
<path id="svg_1" d="M156.651 24.3641H156.51L150.526 3.83649H140.874V29.7154H147.268L146.908 8.47854H147.048L153.474 29.7154H162.735V3.83521H156.298L156.651 24.3641ZM33.8454 3.83521L29.03 29.9878H36.0568L39.6174 6.24918H39.7659L43.2322 29.9891H50.2177L45.4243 3.83521H33.8454ZM73.1509 3.83776L69.9389 23.8332H69.793L66.5965 3.83776H55.9884L55.4127 29.9878H61.9167L62.0793 6.47072H62.2265L66.5707 29.9878H73.1677L77.5131 6.47836L77.6577 6.47072L77.8269 29.9878H84.3334L83.759 3.83776H73.1509ZM12.9158 10.5628C12.7932 10.028 12.8229 9.49327 12.8887 9.19789C13.0759 8.35758 13.6388 7.43707 15.2667 7.43707C16.7927 7.43707 17.6809 8.38687 17.6809 9.8052V11.4209H24.1759V9.59513C24.1759 3.88996 19.0868 3 15.4023 3C10.7792 3 7.00439 4.54438 6.30855 8.81084C6.11877 9.95671 6.09553 11.0071 6.37181 12.3312C7.50142 17.6761 16.741 19.2243 18.0824 22.6046C18.3341 23.2348 18.2528 24.0522 18.1289 24.5462C17.9184 25.4018 17.3336 26.2917 15.5972 26.2917C13.9732 26.2917 12.9817 25.3559 12.9817 23.9287L12.9778 21.3912H6.00387L6 23.4131C6 29.2468 10.5649 31 15.4539 31C20.166 31 24.0287 29.3983 24.6535 25.0326C24.9711 22.7688 24.7374 21.2843 24.6251 20.7304C23.5239 15.2519 13.6582 13.6324 12.9158 10.5628ZM97.5403 10.6239C97.4125 10.1019 97.4486 9.57221 97.5093 9.28319C97.6913 8.44798 98.249 7.53765 99.8628 7.53765C101.371 7.53765 102.256 8.47344 102.256 9.87268V11.4769H108.682V9.6677C108.682 4.03256 103.639 3.14514 100.002 3.14514C95.4192 3.14514 91.6766 4.65515 90.9962 8.89487C90.8065 10.0356 90.7768 11.0784 91.0556 12.3834C92.1749 17.6722 101.323 19.209 102.654 22.5524C102.897 23.1826 102.823 23.986 102.704 24.4762C102.493 25.3381 101.908 26.2013 100.196 26.2013C98.5795 26.2013 97.6061 25.2796 97.6061 23.8676L97.6009 21.3492H90.689V23.3532C90.689 29.1271 95.2139 30.8599 100.055 30.8599C104.709 30.8599 108.54 29.2723 109.153 24.9523C109.468 22.7179 109.235 21.2461 109.126 20.6948C108.035 15.2748 98.2632 13.6642 97.5403 10.6239ZM127.038 23.1762C127.043 23.5086 127.033 23.8931 126.977 24.1732C126.848 24.8238 126.292 26.0549 124.483 26.0549C122.681 26.0549 122.118 24.8238 121.989 24.1732C121.934 23.8931 121.921 23.5086 121.923 23.1762V3.83267H115.349V22.5766C115.339 23.0617 115.387 24.0433 115.41 24.3043C115.857 29.1793 119.699 30.7543 124.482 30.7543C129.26 30.7543 133.101 29.1793 133.561 24.3043C133.585 24.0433 133.635 23.0604 133.627 22.5766V3.83267H127.037L127.038 23.1762ZM178.794 15.285V19.1148H181.457V22.9076C181.465 23.2374 181.452 23.6015 181.397 23.9007C181.28 24.6048 180.617 25.7927 178.741 25.7927C176.86 25.7927 176.199 24.6035 176.078 23.9007C176.027 23.6015 176.012 23.2374 176.02 22.9076V10.9422C176.02 10.5169 176.047 10.0522 176.125 9.71481C176.264 9.07057 176.824 7.81648 178.715 7.81648C180.705 7.81648 181.196 9.1406 181.315 9.71481C181.391 10.0777 181.397 10.7028 181.397 10.7003V12.1733H187.952V11.2999C187.95 11.2999 187.975 10.4061 187.899 9.59003C187.418 4.6717 183.376 3.1235 178.769 3.1235C174.161 3.1235 170.214 4.68443 169.642 9.59003C169.587 10.0127 169.529 10.8352 169.529 11.2999L169.526 22.3028C169.529 22.7956 169.544 23.1597 169.616 24.0306C170.045 28.7923 174.161 30.4984 178.764 30.4984C183.37 30.4984 187.486 28.7923 187.917 24.0306C187.988 23.1584 187.999 22.7943 188 22.3028V15.285H178.794Z" fill="#969696"/>
</g>
</svg>
