<svg width="310" height="46" viewBox="0 0 310 46" fill="none" xmlns="http://www.w3.org/2000/svg">
<g clip-path="url(#clip0_2496_23420)">
<path d="M6.98876 24.5689C6.15632 24.5775 5.32648 24.4747 4.52132 24.2631C3.83765 24.0875 3.19374 23.7831 2.62409 23.3663C2.10444 22.9738 1.6896 22.4593 1.41628 21.8682C1.12096 21.2175 0.974 20.5093 0.986035 19.7947C1.00442 19.2906 1.06861 18.7892 1.17783 18.2966C1.33159 17.573 1.54663 16.8637 1.82061 16.1765L3.48977 16.726C3.30094 17.2213 3.15187 17.731 3.04397 18.25C2.95281 18.6638 2.90417 19.0859 2.89882 19.5096C2.8898 19.9787 2.98358 20.444 3.17356 20.8729C3.35978 21.2662 3.64351 21.6052 3.99777 21.8578C4.40727 22.1398 4.86627 22.3421 5.35071 22.454C5.95597 22.5919 6.57537 22.658 7.19611 22.651C7.94781 22.6637 8.69822 22.5836 9.43029 22.4125C9.98067 22.2873 10.5122 22.0904 11.0113 21.8267C11.3723 21.6453 11.6945 21.3953 11.9599 21.0907C12.1377 20.9 12.2471 20.6557 12.271 20.3961C12.2646 20.1916 12.1876 19.9956 12.0532 19.8414C11.8431 19.6055 11.5897 19.4119 11.3068 19.2712C10.8314 19.0226 10.3375 18.8112 9.82943 18.6388L10.7573 16.9541C11.4364 17.3325 11.991 17.6539 12.4109 17.9182C12.7582 18.1275 13.0876 18.365 13.3958 18.6284C13.5942 18.7934 13.758 18.996 13.8779 19.2245C13.971 19.4331 14.017 19.6597 14.0127 19.888C14.0063 20.3207 13.9239 20.7488 13.769 21.1529C13.591 21.6185 13.3312 22.0486 13.0019 22.4229C12.6151 22.8598 12.1599 23.2309 11.6541 23.5218C11.0369 23.8754 10.3717 24.1373 9.67911 24.2994C8.79603 24.4946 7.89302 24.5851 6.98876 24.5689ZM5.37663 29.1669L3.84744 27.6118L5.30406 26.0567L6.85917 27.6118L5.37663 29.1669ZM8.63718 29.1669L7.08207 27.6118L8.53869 26.0567L10.0938 27.6118L8.63718 29.1669ZM15.6404 20.2146C15.3151 20.2083 14.9909 20.1754 14.671 20.1161C14.285 20.0487 13.904 19.9552 13.5306 19.8362C13.123 19.7033 12.7232 19.5476 12.3332 19.3697C11.9471 19.1919 11.5776 18.9803 11.229 18.7373L10.7107 16.9385C11.2757 17.2133 11.7889 17.4569 12.2658 17.6176C12.6768 17.78 13.0975 17.9168 13.5254 18.0271C13.8835 18.1167 14.2472 18.1825 14.614 18.2241C14.9583 18.2619 15.3044 18.2809 15.6507 18.2811H15.687V20.2146H15.6404Z" fill="#FF2400"/>
<path d="M15.6973 18.2811H15.8891V20.2146H15.6973C15.3189 20.2146 15.1323 19.8776 15.1323 19.2089C15.1323 18.5402 15.3189 18.2811 15.6973 18.2811ZM15.6973 20.2146V18.2811H15.8114C16.014 18.285 16.2158 18.2534 16.4075 18.1877C16.5938 18.1148 16.7593 17.9974 16.8896 17.8456C17.0801 17.6297 17.2534 17.3992 17.408 17.1562C17.5946 16.8607 17.8278 16.4771 18.1078 16.0106C18.4351 15.4394 18.8023 14.892 19.2067 14.3725C19.5095 13.9774 19.8574 13.619 20.2434 13.3047C20.5419 13.0562 20.8801 12.8599 21.2439 12.7241C21.5765 12.6051 21.9274 12.5455 22.2806 12.5479C22.7436 12.5386 23.2004 12.655 23.6025 12.8848C24.0567 13.1758 24.4337 13.5725 24.7014 14.0408C25.1273 14.7528 25.4749 15.5089 25.7382 16.2957C25.897 16.7683 26.1073 17.222 26.3654 17.6486C26.506 17.8867 26.7236 18.0696 26.9823 18.167C27.2556 18.2425 27.5385 18.2775 27.822 18.2707H27.8583V20.2042H27.822C27.3288 20.215 26.837 20.1468 26.3654 20.002C25.9795 19.8784 25.6256 19.6713 25.3287 19.3955C25.0214 19.1089 24.7623 18.7746 24.5615 18.4055C24.3286 17.9681 24.1327 17.5121 23.9757 17.0422C23.7949 16.4724 23.5696 15.9178 23.3018 15.3834C23.1753 15.1064 22.9853 14.8631 22.7472 14.6732C22.5714 14.5592 22.3658 14.4996 22.1562 14.5021C21.9224 14.5121 21.6961 14.5875 21.5031 14.7198C21.2139 14.9176 20.9554 15.1569 20.7359 15.43C20.3963 15.853 20.0928 16.3039 19.8288 16.7778C19.5022 17.3428 19.2067 17.8145 18.9475 18.224C18.7291 18.5665 18.4903 18.8954 18.2322 19.2089C18.0384 19.4429 17.8113 19.6473 17.5583 19.8154C17.3297 19.9599 17.0768 20.0618 16.8118 20.1161C16.5029 20.1774 16.1885 20.2069 15.8736 20.2042L15.6973 20.2146ZM25.8263 19.323C25.5057 19.7542 25.0687 20.0851 24.5667 20.2768C24.0705 20.4636 23.5409 20.5448 23.0116 20.5152C22.4367 20.4868 21.8698 20.3679 21.332 20.1627C20.7649 19.952 20.2253 19.6736 19.7251 19.3333C19.2253 18.9967 18.7646 18.6055 18.3514 18.167L19.3881 16.954C19.7456 17.2445 20.1291 17.5013 20.5337 17.7212C20.9595 17.9562 21.4097 18.1439 21.8763 18.2811C22.3568 18.4207 22.8534 18.4973 23.3537 18.5091C23.8812 18.5207 24.4068 18.4436 24.9088 18.2811L25.8263 19.323Z" fill="#FF2400"/>
<path d="M27.8118 18.2813H28.0036V20.2148H27.8118C27.4334 20.2148 27.2468 19.8779 27.2468 19.2092C27.2468 18.5405 27.4334 18.2813 27.8118 18.2813ZM27.8118 20.2148V18.2813H35.069C35.069 17.9651 35.1157 17.6903 35.1364 17.4467C35.1572 17.2031 35.1675 16.9905 35.1727 16.7884C35.1779 16.5862 35.1727 16.3892 35.1727 16.1974C35.1756 15.6333 35.1322 15.0698 35.0431 14.5127C34.9663 14.0274 34.8287 13.5537 34.6336 13.1028C34.483 12.7355 34.2529 12.4062 33.9597 12.1386C33.7007 11.9068 33.3639 11.7809 33.0163 11.7861C32.6657 11.7827 32.3236 11.8937 32.0418 12.1023C31.766 12.3046 31.541 12.5681 31.3845 12.8722C31.228 13.1762 31.1442 13.5124 31.1398 13.8544C31.1344 14.1109 31.2048 14.3633 31.3419 14.5801C31.5005 14.8107 31.7298 14.9836 31.9951 15.0726C32.3971 15.2083 32.8204 15.2698 33.2444 15.254C33.5763 15.2527 33.9075 15.2232 34.2345 15.1659C34.5878 15.1068 34.9349 15.0148 35.2712 14.8911L36.2406 16.3322C35.7448 16.614 35.2129 16.8268 34.6595 16.9646C34.1178 17.1058 33.5606 17.1789 33.0007 17.1823C32.4406 17.1945 31.8821 17.1157 31.3471 16.9491C30.9278 16.8144 30.5411 16.5937 30.2119 16.3011C29.9222 16.0473 29.6981 15.7272 29.5588 15.368C29.4162 15.0066 29.3441 14.6213 29.3462 14.2328C29.339 13.62 29.448 13.0114 29.6676 12.4392C29.8677 11.9297 30.1613 11.462 30.5333 11.0604C30.8744 10.6878 31.2846 10.385 31.7411 10.1688C32.1775 9.96427 32.6535 9.85809 33.1355 9.85775C33.856 9.8473 34.5577 10.0873 35.1209 10.5368C35.7089 11.0304 36.159 11.668 36.4272 12.3874C36.7561 13.2455 36.9163 14.159 36.8989 15.0777C36.8989 15.5961 36.873 16.1715 36.8263 16.8091C36.7797 17.4467 36.7123 18.0636 36.6345 18.6649C36.5567 19.2662 36.479 19.7794 36.3909 20.22L27.8118 20.2148ZM31.5234 7.83093L29.9683 6.27581L31.4249 4.7207L32.98 6.27581L31.5234 7.83093ZM34.7787 7.83093L33.2236 6.27581L34.6854 4.7207L36.2146 6.27581L34.7787 7.83093Z" fill="#FF2400"/>
<path d="M40.1956 24.5689C38.9318 24.5443 37.7098 24.1115 36.7122 23.3352L37.4119 22.0133C37.8291 22.1792 38.2548 22.3228 38.6871 22.4436C39.0772 22.563 39.4819 22.6276 39.8898 22.6354C40.5883 22.6492 41.2772 22.4698 41.8803 22.117C42.4445 21.7817 42.9055 21.2975 43.2125 20.7174C43.5428 20.0882 43.7087 19.3856 43.6946 18.675C43.7008 18.4181 43.6622 18.162 43.5806 17.9182C43.5019 17.6929 43.4012 17.4758 43.2799 17.2703C43.1555 17.0577 43.0052 16.8245 42.8445 16.5705L45.4778 17.9908V18.675C45.4758 19.2251 45.4008 19.7724 45.2549 20.3027C45.1111 20.8574 44.8986 21.392 44.6225 21.8941C44.3495 22.3994 43.9998 22.8594 43.5857 23.2574C43.1577 23.663 42.6587 23.9863 42.1136 24.2112C41.5044 24.4569 40.8524 24.5785 40.1956 24.5689ZM47.4061 20.2146C47.0127 20.2175 46.6205 20.1687 46.2398 20.0695C45.9038 19.9768 45.5839 19.8335 45.2912 19.6444C44.9703 19.4296 44.6807 19.1714 44.4307 18.8772C44.13 18.5183 43.8546 18.139 43.6065 17.742L41.3153 14.1652L42.6993 12.3872L45.2549 16.7052C45.4483 17.0317 45.6631 17.3452 45.8977 17.6435C46.0603 17.8679 46.2781 18.0465 46.5301 18.1619C46.8125 18.2633 47.1114 18.3108 47.4113 18.3018H47.6031V20.2353L47.4061 20.2146Z" fill="#FF2400"/>
<path d="M47.598 18.2811H47.7846V20.2147H47.598C47.2144 20.2147 47.0278 19.8777 47.0278 19.209C47.0278 18.5403 47.2144 18.2811 47.598 18.2811ZM47.598 20.2147V18.2811H49.9566V6.20312H51.9264V20.1991L47.598 20.2147Z" fill="#FF2400"/>
<path d="M54.9587 6.20312H56.9286V20.1991H54.9587V6.20312Z" fill="#FF2400"/>
<path d="M70.3129 24.5689C69.4788 24.5773 68.6473 24.4744 67.8403 24.2631C67.1586 24.0865 66.5166 23.7822 65.9483 23.3663C65.4285 22.9726 65.0122 22.4585 64.7353 21.8682C64.4417 21.2171 64.2965 20.5088 64.3102 19.7947C64.326 19.2904 64.3902 18.7887 64.502 18.2966C64.6534 17.5723 64.8685 16.8629 65.1448 16.1765L66.8088 16.726C66.6223 17.2221 66.4733 17.7315 66.363 18.25C66.2758 18.6644 66.229 19.0862 66.223 19.5096C66.214 19.9786 66.3077 20.444 66.4977 20.8729C66.6824 21.2672 66.9664 21.6066 67.3219 21.8578C67.7304 22.1417 68.1898 22.3441 68.6749 22.454C69.2801 22.5922 69.8995 22.6583 70.5203 22.6509C71.2679 22.6621 72.0143 22.5856 72.7441 22.4228C73.2877 22.3026 73.8114 22.1054 74.2992 21.8371C74.6462 21.648 74.9569 21.3987 75.2167 21.101C75.3906 20.9129 75.4965 20.672 75.5174 20.4167C75.5127 20.3021 75.4823 20.1899 75.4284 20.0885C75.3746 19.9871 75.2987 19.8991 75.2063 19.831C74.9404 19.6257 74.6517 19.4518 74.3459 19.3126C73.9778 19.1312 73.5579 18.9239 73.0759 18.6958C72.6552 18.488 72.2499 18.2507 71.8629 17.9856C71.4968 17.7388 71.1818 17.4237 70.935 17.0577C70.6902 16.6783 70.5656 16.2339 70.5773 15.7825C70.5618 15.0763 70.7528 14.3809 71.1268 13.7816C71.498 13.2044 72.0171 12.7373 72.63 12.4287C73.3161 12.0901 74.0734 11.9213 74.8383 11.9362C75.2155 11.9353 75.5919 11.9683 75.9632 12.0347C76.3333 12.0944 76.6976 12.1863 77.0517 12.3094C77.3962 12.4262 77.7265 12.5809 78.0367 12.7708L77.0517 14.4348C76.729 14.2404 76.3798 14.0937 76.015 13.9993C75.6312 13.9087 75.2378 13.8652 74.8435 13.8697C74.2439 13.8376 73.6513 14.0113 73.164 14.3622C72.9753 14.4986 72.8215 14.6778 72.7152 14.885C72.6089 15.0922 72.5531 15.3216 72.5523 15.5544C72.5531 15.7121 72.5862 15.868 72.6495 16.0124C72.7128 16.1568 72.805 16.2867 72.9203 16.3942C73.195 16.6648 73.5119 16.8889 73.8586 17.0577C74.237 17.2547 74.6258 17.4413 75.0301 17.6175C75.4679 17.7979 75.8923 18.0093 76.3001 18.25C76.6072 18.4282 76.8724 18.6704 77.0777 18.9601C77.2592 19.2425 77.3513 19.5732 77.342 19.9088C77.3363 20.3419 77.252 20.7705 77.0932 21.1736C76.9173 21.6403 76.6572 22.0707 76.326 22.4436C75.9412 22.8804 75.4877 23.2516 74.9835 23.5425C74.3648 23.8969 73.6977 24.1588 73.0033 24.3201C72.1195 24.509 71.2164 24.5926 70.3129 24.5689ZM68.7215 29.1668L67.1664 27.6117L68.6231 26.0566L70.1782 27.6117L68.7215 29.1668ZM71.9769 29.1668L70.4218 27.6117L71.8836 26.0566L73.4387 27.6117L71.9769 29.1668Z" fill="#FF2400"/>
<path d="M79.908 20.215L79.5503 18.2815H85.2057C85.0964 17.6199 84.9228 16.9706 84.6873 16.3428C84.4427 15.7197 84.1187 15.1307 83.7232 14.5907C83.2537 13.9602 82.7166 13.3831 82.1214 12.8697L83.5988 10.9932C84.4348 11.866 85.1735 12.8272 85.8018 13.8598C86.3417 14.7608 86.7107 15.7537 86.8904 16.7885C87.0671 17.9238 87.0671 19.0797 86.8904 20.215H79.908Z" fill="#FF2400"/>
<path d="M91.6282 24.5692C90.3648 24.5424 89.1435 24.1098 88.1448 23.3354L88.8446 22.0136C89.2632 22.1803 89.6906 22.3239 90.1249 22.4438C90.5148 22.5641 90.9197 22.6286 91.3276 22.6356C92.1201 22.6535 92.8982 22.4214 93.5514 21.9721C94.167 21.5388 94.6326 20.9246 94.8836 20.2149H93.3285C92.6981 20.2269 92.0694 20.1466 91.4623 19.9764C91.0067 19.8488 90.5818 19.6301 90.2131 19.3336C89.9079 19.0815 89.6679 18.7597 89.5133 18.3954C89.3665 18.035 89.2925 17.6492 89.2956 17.2601C89.2852 16.6488 89.3944 16.0413 89.6169 15.4718C89.814 14.9603 90.106 14.4907 90.4774 14.0877C90.8196 13.7154 91.2318 13.4142 91.6904 13.2013C92.1238 12.9928 92.5987 12.8847 93.0797 12.8851C93.742 12.8754 94.3896 13.0809 94.9251 13.4709C95.4953 13.9046 95.942 14.4801 96.221 15.14C96.5744 15.9487 96.7798 16.8143 96.8275 17.6956C96.8275 17.7837 96.8275 17.877 96.8586 17.9807C96.8897 18.0844 96.8586 18.1828 96.8586 18.2813H98.1856V20.2149H96.6305C96.4922 20.7732 96.2868 21.3128 96.0188 21.8218C95.7454 22.3377 95.3959 22.8096 94.9821 23.2214C94.5614 23.6416 94.0632 23.976 93.5151 24.2063C92.9163 24.4508 92.275 24.5741 91.6282 24.5692ZM93.4995 18.2813H95.0909C95.0909 18.1828 95.0909 18.0792 95.0598 17.9807C95.0287 17.8822 95.0598 17.7837 95.0339 17.6956C94.9765 17.2109 94.8527 16.7365 94.6659 16.2856C94.5015 15.8982 94.2639 15.5462 93.9661 15.2489C93.8292 15.1154 93.6669 15.0108 93.4888 14.9414C93.3107 14.8719 93.1204 14.839 92.9293 14.8445C92.5794 14.84 92.2374 14.9492 91.9548 15.1556C91.6736 15.3612 91.4461 15.6314 91.2913 15.9435C91.1393 16.2422 91.0594 16.5725 91.058 16.9077C91.052 17.165 91.1243 17.4181 91.2654 17.6334C91.4488 17.8752 91.7079 18.0485 92.0014 18.1258C92.4895 18.2563 92.9951 18.3088 93.4995 18.2813Z" fill="#FF2400"/>
<path d="M98.1961 18.2811H98.3879V20.2146H98.1961C97.8177 20.2146 97.6311 19.8776 97.6311 19.209C97.6311 18.5403 97.8177 18.2811 98.1961 18.2811ZM98.1961 20.2146V18.2811H99.9379C100.26 18.2821 100.582 18.2665 100.902 18.2344C101.202 18.2018 101.499 18.1534 101.794 18.0893C102.056 18.0384 102.316 17.9726 102.571 17.8923L104.199 19.1778C103.447 19.5077 102.664 19.7595 101.861 19.9295C100.975 20.1153 100.071 20.2074 99.1655 20.2042L98.1961 20.2146ZM108.211 20.2146C107.676 20.2174 107.141 20.1914 106.609 20.1368C106.168 20.0899 105.731 20.0084 105.303 19.8932C104.913 19.7799 104.537 19.6271 104.178 19.437C103.81 19.2313 103.463 18.99 103.141 18.7165C102.794 18.4262 102.436 18.0841 102.053 17.6798L99.9171 15.4456V12.9056C100.322 12.6977 100.743 12.5243 101.177 12.3872C101.63 12.2373 102.095 12.123 102.566 12.0451C103.047 11.9621 103.534 11.9205 104.023 11.9207C104.723 11.9064 105.422 11.9955 106.096 12.185C106.615 12.326 107.078 12.6227 107.423 13.0352C107.75 13.4856 107.913 14.0344 107.884 14.5903C107.883 15.0523 107.793 15.5097 107.62 15.938C107.443 16.3791 107.204 16.7927 106.91 17.1666C106.621 17.54 106.287 17.876 105.915 18.167C106.13 18.2184 106.348 18.2548 106.568 18.2759C106.791 18.2759 107.034 18.3018 107.299 18.3018H109.211V20.2353L108.211 20.2146ZM104.142 17.2029C104.496 16.9911 104.823 16.737 105.116 16.446C105.354 16.2136 105.552 15.944 105.702 15.6477C105.825 15.4216 105.893 15.1692 105.899 14.9117C105.906 14.704 105.84 14.5005 105.712 14.3363C105.556 14.1571 105.348 14.0304 105.116 13.9734C104.754 13.8816 104.381 13.8414 104.007 13.8542C103.526 13.8516 103.045 13.8915 102.571 13.9734C102.141 14.0472 101.717 14.1511 101.301 14.2844L103.287 16.3579C103.442 16.5238 103.587 16.6741 103.732 16.8141C103.877 16.954 104.012 17.0888 104.142 17.2029Z" fill="#FF2400"/>
<path d="M109.196 18.2813H109.383V20.2148H109.196C108.818 20.2148 108.626 19.8779 108.626 19.2092C108.626 18.5405 108.818 18.2813 109.196 18.2813ZM109.196 20.2148V18.2813H111.715C111.892 17.978 112.022 17.6493 112.099 17.3067C112.208 16.8972 112.296 16.4618 112.368 16.0108C112.441 15.5598 112.482 15.1348 112.508 14.7408L114.8 13.9477C114.66 14.6009 114.52 15.2074 114.374 15.762C114.232 16.2985 114.059 16.8264 113.856 17.343C113.667 17.8377 113.453 18.3222 113.213 18.7945C112.957 19.2849 112.672 19.7592 112.358 20.2148H109.196ZM115.748 20.2148C115.14 20.2213 114.533 20.1569 113.939 20.023C113.461 19.9146 112.997 19.7529 112.555 19.5409C112.179 19.3589 111.816 19.1529 111.466 18.9241L112.503 17.6385C112.9 17.8508 113.324 18.0094 113.763 18.1102C114.272 18.2292 114.795 18.2866 115.318 18.2813H116.826C117.003 17.9773 117.134 17.6489 117.215 17.3067C117.319 16.8972 117.407 16.4618 117.48 16.0108C117.552 15.5598 117.594 15.1348 117.619 14.7408L119.937 13.9425C119.797 14.5957 119.657 15.2022 119.512 15.7568C119.369 16.2933 119.196 16.8212 118.993 17.3379C118.804 17.8325 118.59 18.317 118.35 18.7893C118.096 19.2808 117.811 19.7552 117.495 20.2096L115.748 20.2148ZM121.839 20.2148C121.232 20.221 120.627 20.1567 120.035 20.023C119.557 19.9146 119.093 19.7529 118.651 19.5409C118.275 19.3589 117.912 19.1529 117.562 18.9241L118.599 17.6385C119.46 18.093 120.425 18.3146 121.398 18.2813H123.824C123.762 17.7163 123.69 17.2445 123.607 16.8247C123.524 16.4048 123.425 16.0212 123.311 15.622C123.197 15.2229 123.047 14.7667 122.86 14.2484L125.037 12.7917C125.151 13.5849 125.245 14.3935 125.328 15.2074C125.409 16.0272 125.438 16.8513 125.416 17.6748C125.384 18.5329 125.258 19.3849 125.037 20.2148H121.839ZM127.386 20.2148C126.901 20.2185 126.416 20.1769 125.939 20.0904C125.537 20.0157 125.142 19.9082 124.757 19.769C124.428 19.6454 124.106 19.5035 123.793 19.344L124.566 17.8459C124.733 17.9242 124.906 17.9883 125.084 18.0377C125.265 18.0843 125.457 18.131 125.659 18.1672C125.867 18.2078 126.076 18.2373 126.287 18.2554C126.499 18.2554 126.722 18.2813 126.945 18.2813H127.551V20.2148H127.386Z" fill="#FF2400"/>
<path d="M127.556 18.2811H127.748V20.2147H127.556C127.178 20.2147 126.991 19.8777 126.991 19.209C126.991 18.5403 127.194 18.2811 127.556 18.2811ZM127.556 20.2147V18.2811H129.925V6.20312H131.895V20.1991L127.556 20.2147Z" fill="#FF2400"/>
<path d="M134.923 6.20312H136.893V20.1991H134.923V6.20312Z" fill="#FF2400"/>
<path d="M149.235 20.2147C147.943 20.2849 146.666 19.9198 145.606 19.178C145.177 18.8526 144.833 18.4279 144.603 17.9404C144.374 17.4529 144.266 16.9171 144.289 16.3788C144.299 15.7583 144.388 15.1416 144.554 14.5438C144.77 13.7833 145.089 13.056 145.502 12.3822L147.016 13.0664C146.756 13.5929 146.553 14.1454 146.41 14.7148C146.313 15.1103 146.263 15.5156 146.259 15.9226C146.226 16.444 146.391 16.9586 146.721 17.3637C147.066 17.724 147.512 17.9715 148.001 18.0739C148.61 18.2118 149.233 18.2779 149.857 18.2709H158.638L158.524 20.2044L149.235 20.2147ZM150.235 14.5127V13.2271H150.992C150.894 13.0772 150.815 12.9151 150.759 12.745C150.702 12.5781 150.672 12.4031 150.671 12.2267C150.663 11.9538 150.714 11.6824 150.82 11.431C150.926 11.1796 151.086 10.9542 151.287 10.77C151.715 10.3901 152.271 10.1879 152.843 10.205C153.117 10.2047 153.39 10.236 153.656 10.2983C153.907 10.3557 154.149 10.4445 154.377 10.5627L153.859 11.6979C153.711 11.6284 153.556 11.5745 153.397 11.5372C153.251 11.5061 153.101 11.4904 152.951 11.4906C152.686 11.4692 152.422 11.5509 152.215 11.7187C152.135 11.7892 152.072 11.8763 152.029 11.9738C151.986 12.0714 151.965 12.1771 151.967 12.2837C151.974 12.4062 152.006 12.526 152.061 12.6356C152.117 12.7453 152.194 12.8425 152.288 12.9213C152.641 13.1686 153.072 13.2791 153.501 13.2323H154.667V14.5178L150.235 14.5127ZM158.011 20.2147V6.21875H159.975V20.2147H158.011ZM159.41 18.2812H161.681V20.2147H159.41V18.2812Z" fill="#FF2400"/>
<path d="M161.671 18.2812H161.857V20.2147H161.671C161.292 20.2147 161.101 19.8778 161.101 19.2091C161.101 18.5404 161.292 18.2812 161.671 18.2812ZM161.671 20.2147V18.2812H163.998C164.134 17.9935 164.242 17.6931 164.32 17.3844C164.434 16.9749 164.532 16.5291 164.62 16.047C164.703 15.6153 164.76 15.1791 164.791 14.7407L167.083 13.9476C166.906 14.8185 166.715 15.6064 166.502 16.3114C166.304 16.9961 166.054 17.6649 165.756 18.3123C165.443 18.9758 165.075 19.6121 164.657 20.2147H161.671ZM168.41 20.2147C167.801 20.2212 167.194 20.1568 166.601 20.0229C166.123 19.9145 165.658 19.7528 165.216 19.5408C164.842 19.3566 164.478 19.1506 164.128 18.924L165.165 17.6384C165.424 17.7802 165.697 17.8965 165.978 17.9857C166.284 18.0866 166.598 18.1612 166.917 18.2086C167.26 18.2564 167.607 18.2806 167.953 18.2812H168.56V20.2147H168.41ZM165.968 11.5631L164.413 10.008L165.87 8.45288L167.425 10.008L165.968 11.5631Z" fill="#FF2400"/>
<path d="M168.601 18.2813H168.788V20.2148H168.601C168.223 20.2148 168.031 19.8779 168.031 19.2092C168.031 18.5405 168.223 18.2813 168.601 18.2813ZM168.601 20.2148V18.2813H170.908C171.046 17.9946 171.154 17.694 171.229 17.3846C171.343 16.975 171.447 16.5292 171.535 16.0471C171.617 15.6154 171.675 15.1792 171.706 14.7409L173.992 13.9478C173.816 14.8186 173.624 15.6065 173.417 16.3115C173.218 16.9962 172.969 17.665 172.67 18.3124C172.355 18.9749 171.988 19.6111 171.571 20.2148H168.601ZM171.986 24.8128L170.431 23.2577L171.893 21.7026L173.448 23.2577L171.986 24.8128ZM175.356 20.2148C174.749 20.221 174.143 20.1567 173.552 20.0231C173.073 19.9155 172.609 19.7538 172.168 19.541C171.792 19.359 171.428 19.1529 171.079 18.9241L172.116 17.6385C172.375 17.7812 172.647 17.8976 172.93 17.9858C173.235 18.0873 173.549 18.1619 173.868 18.2088C174.211 18.2567 174.558 18.281 174.905 18.2813H175.511V20.2148H175.356Z" fill="#FF2400"/>
<path d="M175.527 18.2811H175.718V20.2147H175.527C175.148 20.2147 174.962 19.8777 174.962 19.209C174.962 18.5403 175.148 18.2811 175.527 18.2811ZM175.527 20.2147V18.2811H177.896V6.20312H179.865V20.1991L175.527 20.2147Z" fill="#FF2400"/>
<path d="M182.893 6.20312H184.862V20.1991H182.893V6.20312Z" fill="#FF2400"/>
<path d="M6.29417 45.7706C5.40721 45.7886 4.52892 45.593 3.73342 45.2004C2.96817 44.7905 2.31634 44.1974 1.83618 43.4742L3.08546 42.0383C3.49575 42.6877 4.03577 43.2454 4.67167 43.6763C5.22111 43.9923 5.84722 44.1502 6.48078 44.1325C6.87703 44.1378 7.27078 44.0692 7.64193 43.9303C7.96019 43.8173 8.24525 43.6267 8.47132 43.3757C8.66948 43.151 8.7783 42.8614 8.77716 42.5619C8.77728 42.3654 8.74216 42.1705 8.67349 41.9864C8.60366 41.8048 8.49787 41.639 8.36246 41.4992C8.20904 41.3413 8.03461 41.2052 7.84409 41.0949C7.59758 40.9604 7.33899 40.8493 7.07173 40.7631C6.74071 40.659 6.40299 40.5776 6.06091 40.5195C5.51506 40.4166 4.98283 40.2513 4.47469 40.027C4.05316 39.8463 3.66838 39.5898 3.33946 39.2702C3.04423 38.976 2.81457 38.6227 2.66558 38.2335C2.51484 37.8147 2.44108 37.3722 2.44786 36.9272C2.43096 36.3175 2.61291 35.7189 2.96623 35.2217C3.34364 34.7098 3.84728 34.3044 4.42803 34.045C5.07898 33.7504 5.78707 33.6034 6.50152 33.6148C7.32842 33.5902 8.1488 33.7682 8.8912 34.1332C9.56738 34.4851 10.1273 35.0252 10.5033 35.6883L9.21778 36.9583C8.92105 36.4456 8.50717 36.0103 8.00997 35.6883C7.54401 35.3966 7.00457 35.2437 6.45486 35.2476C6.06342 35.239 5.67411 35.3077 5.30926 35.4498C5.00589 35.5682 4.73936 35.765 4.53689 36.02C4.3491 36.2631 4.25029 36.5631 4.25697 36.8701C4.25326 37.0951 4.30081 37.318 4.39601 37.5219C4.49121 37.7257 4.63156 37.9053 4.80644 38.0468C5.03493 38.2191 5.28841 38.3555 5.55809 38.4512C5.92753 38.5852 6.30716 38.6892 6.69331 38.7622C7.26031 38.8798 7.81423 39.0535 8.34691 39.2806C8.7909 39.4641 9.20635 39.7103 9.58064 40.0115C9.89872 40.2717 10.1599 40.5946 10.3478 40.9601C10.5245 41.3104 10.6152 41.6978 10.6122 42.0901C10.6311 42.7795 10.4511 43.4597 10.0938 44.0496C9.73126 44.6092 9.2146 45.052 8.6061 45.3248C7.87701 45.6396 7.08805 45.7918 6.29417 45.7706Z" fill="#FF2400"/>
<path d="M11.9495 45.6045L16.5267 33.7805H18.3876L22.9286 45.6045H20.9847L18.2839 38.477C18.2528 38.3992 18.1855 38.2074 18.0922 37.9015C17.9988 37.5957 17.8848 37.2588 17.7604 36.8648C17.636 36.4708 17.522 36.1546 17.4235 35.8281L17.2213 35.2319H17.6101C17.5427 35.4237 17.4597 35.6674 17.3664 35.9628C17.2731 36.2583 17.1643 36.5642 17.0606 36.8907C16.9569 37.2173 16.8481 37.5231 16.7496 37.8082L16.4956 38.5288L13.8104 45.589L11.9495 45.6045ZM13.9763 42.6654L14.6554 40.8977H20.0257L20.8032 42.655L13.9763 42.6654Z" fill="#FF2400"/>
<path d="M29.2631 45.703C28.4098 45.7183 27.5671 45.5129 26.8164 45.1068C26.1082 44.7204 25.52 44.1465 25.1162 43.448C24.6998 42.7213 24.4867 41.8959 24.4993 41.0584V33.7649H26.324V40.8977C26.3136 41.4433 26.4535 41.9813 26.7283 42.4528C26.9899 42.8993 27.3587 43.2734 27.8013 43.5413C28.2416 43.8093 28.7478 43.9494 29.2631 43.9457C29.8002 43.9529 30.329 43.8131 30.7923 43.5413C31.2425 43.2778 31.6174 42.903 31.8809 42.4528C32.1557 41.9813 32.2956 41.4433 32.2852 40.8977V33.7649H34.027V41.0584C34.0396 41.8959 33.8265 42.7213 33.4101 43.448C33.0069 44.1452 32.4207 44.7188 31.715 45.1068C30.9625 45.5129 30.1181 45.7182 29.2631 45.703Z" fill="#FF2400"/>
<path d="M37.1685 45.6045V33.7805H41.7975C42.5797 33.7687 43.3566 33.9114 44.0835 34.2003C44.7489 34.472 45.3455 34.8881 45.8304 35.4185C46.3263 35.9612 46.7057 36.5999 46.9449 37.295C47.2123 38.0647 47.3438 38.8751 47.3337 39.6899C47.3433 40.5097 47.2118 41.3251 46.9449 42.1003C46.7077 42.7925 46.332 43.4292 45.8408 43.9716C45.3563 44.5 44.7593 44.9128 44.0939 45.1794C43.3641 45.4717 42.5836 45.6161 41.7975 45.6045H37.1685ZM38.9931 44.0494L38.9413 43.8627H41.7094C42.2549 43.8709 42.797 43.7741 43.306 43.5776C43.7582 43.3977 44.1627 43.1156 44.4879 42.7534C44.8249 42.3764 45.076 41.9307 45.2239 41.4471C45.4009 40.8838 45.4866 40.2958 45.4779 39.7054C45.487 39.1184 45.4013 38.5337 45.2239 37.9741C45.074 37.4902 44.8211 37.0446 44.4827 36.6678C44.1562 36.3058 43.7522 36.0223 43.3008 35.8384C42.7944 35.6389 42.2535 35.542 41.7094 35.5533H38.8895L38.9931 35.3978V44.0494Z" fill="#FF2400"/>
<path d="M49.1116 45.6045V43.9147H51.0192V35.4704H49.1116V33.7805H54.7514V35.4704H52.8438V43.9147H54.7514V45.6045H49.1116Z" fill="#FF2400"/>
<path d="M62.3508 45.6047V33.7807H67.2805C67.9343 33.7626 68.585 33.8772 69.1933 34.1176C69.6806 34.3201 70.0908 34.6723 70.3648 35.1232C70.6428 35.6196 70.7808 36.1822 70.764 36.7509C70.7825 37.34 70.5996 37.9177 70.2456 38.3889C69.8699 38.8548 69.3503 39.1829 68.7683 39.322V38.9851C69.2669 39.0826 69.7388 39.2859 70.1523 39.5812C70.5382 39.8632 70.854 40.2304 71.075 40.6542C71.2994 41.112 71.4114 41.6167 71.4016 42.1264C71.4097 42.6359 71.3217 43.1424 71.1424 43.6193C70.975 44.0397 70.7082 44.4132 70.3648 44.7079C70 45.0131 69.5766 45.2407 69.1207 45.3766C68.5841 45.5353 68.0267 45.6122 67.4671 45.6047H62.3508ZM64.1755 38.6792H67.182C67.4945 38.6847 67.8038 38.6154 68.084 38.4771C68.3392 38.3496 68.5557 38.1564 68.7112 37.9172C68.8642 37.6756 68.9435 37.3946 68.9393 37.1086C68.9507 36.8871 68.9097 36.6661 68.8197 36.4634C68.7296 36.2607 68.593 36.0822 68.4209 35.9422C67.9969 35.6469 67.4852 35.5044 66.9695 35.5379H64.1651L64.1755 38.6792ZM64.1755 43.8629H67.3479C67.9199 43.8985 68.4869 43.7376 68.9549 43.4068C69.1474 43.2513 69.3 43.0522 69.4001 42.8259C69.5001 42.5996 69.5448 42.3527 69.5303 42.1057C69.5386 41.784 69.4401 41.4687 69.2503 41.2089C69.0465 40.9498 68.7732 40.7538 68.4624 40.6439C68.0784 40.5073 67.6725 40.4422 67.265 40.4521H64.1548L64.1755 43.8629Z" fill="#FF2400"/>
<path d="M72.6196 45.6045L77.1968 33.7805H79.0526L83.5987 45.6045H81.6548L78.9541 38.477C78.9178 38.3992 78.8556 38.2074 78.7571 37.9015C78.6586 37.5957 78.555 37.2588 78.4306 36.8648C78.3061 36.4708 78.1921 36.1546 78.0936 35.8281L77.8915 35.2319H78.2802C78.2146 35.422 78.1316 35.6656 78.0314 35.9628C77.9381 36.2531 77.8344 36.5642 77.7308 36.8907C77.6271 37.2173 77.5182 37.5231 77.4146 37.8082L77.1657 38.5288L74.4754 45.589L72.6196 45.6045ZM74.6465 42.6654L75.3203 40.9081H80.6958L81.4682 42.6654H74.6465Z" fill="#FF2400"/>
<path d="M85.6775 45.6045V33.7805H87.3155L94.5364 43.4585L94.2669 43.6088C94.1891 43.1474 94.1269 42.6135 94.0751 42.0071C94.0232 41.4006 93.987 40.7267 93.9662 39.9958C93.9455 39.2649 93.9299 38.4873 93.9299 37.6631V33.7805H95.7546V45.6045H94.0803L86.9734 36.2739L87.16 36.0406C87.2378 36.8959 87.3 37.5957 87.3415 38.14C87.3829 38.6843 87.4244 39.1249 87.4451 39.4515C87.4659 39.7781 87.4814 40.0321 87.4866 40.2187C87.4918 40.4053 87.4866 40.5608 87.4866 40.6852V45.5994L85.6775 45.6045Z" fill="#FF2400"/>
<path d="M99.072 45.6045V33.7805H100.897V45.6045H99.072ZM100.591 42.0226L100.487 39.9802L106.708 33.7598H109.108L100.591 42.0226ZM106.91 45.6045L102.379 39.5551L103.732 38.3888L109.185 45.6045H106.91Z" fill="#FF2400"/>
<path d="M116.163 45.6045V33.7805H120.792C121.574 33.7687 122.351 33.9114 123.078 34.2003C123.744 34.4732 124.342 34.889 124.83 35.4185C125.322 35.9638 125.701 36.6017 125.944 37.295C126.212 38.0647 126.343 38.8751 126.333 39.6899C126.343 40.5097 126.211 41.3251 125.944 42.1003C125.705 42.7928 125.328 43.4295 124.835 43.9716C124.351 44.5 123.754 44.9128 123.088 45.1794C122.358 45.4717 121.578 45.6161 120.792 45.6045H116.163ZM117.987 44.0494L117.936 43.8627H120.709C121.253 43.8704 121.793 43.7736 122.3 43.5776C122.753 43.3992 123.158 43.1169 123.482 42.7534C123.819 42.3764 124.07 41.9307 124.218 41.4471C124.395 40.8838 124.481 40.2958 124.472 39.7054C124.481 39.1184 124.396 38.5337 124.218 37.9741C124.068 37.4902 123.816 37.0446 123.477 36.6678C123.151 36.3058 122.747 36.0223 122.295 35.8384C121.79 35.6395 121.251 35.5426 120.709 35.5533H117.863L117.967 35.3978L117.987 44.0494Z" fill="#FF2400"/>
<path d="M128.106 45.6045V43.9147H130.014V35.4704H128.106V33.7805H133.746V35.4704H131.859V43.9147H133.767V45.6045H128.106Z" fill="#FF2400"/>
<path d="M141.651 45.7705C140.829 45.7758 140.013 45.6191 139.251 45.3091C138.521 45.0064 137.856 44.5665 137.292 44.0132C136.728 43.4656 136.283 42.8074 135.985 42.0797C135.67 41.3227 135.512 40.5099 135.519 39.69C135.512 38.8785 135.671 38.0743 135.985 37.3262C136.285 36.6058 136.728 35.9534 137.286 35.4082C137.846 34.8598 138.509 34.4266 139.236 34.1331C139.998 33.8263 140.813 33.6714 141.636 33.6769C142.227 33.6781 142.815 33.7636 143.382 33.9309C143.933 34.0901 144.457 34.3294 144.938 34.6411C145.372 34.9178 145.755 35.2687 146.068 35.6778L144.886 36.9115C144.431 36.4625 143.906 36.0912 143.331 35.8126C142.809 35.5701 142.242 35.4428 141.667 35.4393C141.089 35.4337 140.517 35.543 139.982 35.7608C139.48 35.9708 139.022 36.2752 138.634 36.6575C138.246 37.0411 137.938 37.4973 137.727 38.0001C137.51 38.5331 137.401 39.104 137.406 39.6796C137.404 40.252 137.52 40.8185 137.748 41.3436C137.965 41.86 138.282 42.3286 138.681 42.7225C139.081 43.1168 139.552 43.4317 140.07 43.6503C140.586 43.8807 141.143 44.0024 141.708 44.008C142.132 44.0109 142.554 43.9462 142.957 43.8162C143.331 43.6921 143.682 43.5064 143.994 43.2668C144.283 43.0441 144.525 42.7656 144.704 42.4477C144.868 42.1436 144.954 41.8033 144.953 41.4576V41.1207L145.207 41.3592H141.579V39.55H146.814C146.814 39.6745 146.856 39.7937 146.866 39.9129C146.876 40.0321 146.866 40.1462 146.892 40.2498C146.918 40.3535 146.892 40.4624 146.892 40.566C146.902 41.2911 146.764 42.0106 146.488 42.681C146.23 43.3021 145.847 43.8633 145.363 44.3294C144.882 44.7935 144.315 45.1582 143.693 45.4024C143.042 45.6528 142.349 45.7776 141.651 45.7705Z" fill="#FF2400"/>
<path d="M148.696 45.6045V43.9147H150.603V35.4704H148.696V33.7805H154.335V35.4704H152.428V43.9147H154.335V45.6045H148.696Z" fill="#FF2400"/>
<path d="M159.452 45.6045V35.5378H156.14V33.7805H164.688V35.5378H161.277V45.6045H159.452Z" fill="#FF2400"/>
<path d="M164.859 45.6045L169.436 33.7805H171.292L175.838 45.6045H173.894L171.193 38.477C171.157 38.3992 171.095 38.2074 170.996 37.9015C170.898 37.5957 170.789 37.2588 170.67 36.8648L170.327 35.8281C170.229 35.5222 170.162 35.3097 170.125 35.2319H170.514C170.447 35.4237 170.364 35.6674 170.27 35.9628C170.177 36.2583 170.073 36.5642 169.965 36.8907C169.856 37.2173 169.757 37.5231 169.654 37.8082C169.55 38.0933 169.467 38.3266 169.4 38.5288L166.714 45.589L164.859 45.6045ZM166.885 42.6654L167.559 40.9081H172.93L173.707 42.6654H166.885Z" fill="#FF2400"/>
<path d="M177.911 45.6045V33.7805H179.736V43.8473H185.277V45.6045H177.911Z" fill="#FF2400"/>
<path d="M211.626 45.7705C207.742 45.7705 204.459 45.0897 201.777 43.7281C199.077 42.343 196.73 40.3589 194.914 37.9275L200.74 31.3753C202.572 33.8808 204.421 35.562 206.287 36.4191C208.094 37.2621 210.063 37.7009 212.056 37.7046C212.977 37.7183 213.894 37.5853 214.773 37.3107C215.495 37.0997 216.151 36.7049 216.675 36.1651C217.136 35.6727 217.387 35.02 217.375 34.3456C217.382 33.8113 217.237 33.286 216.955 32.832C216.658 32.3655 216.268 31.965 215.809 31.6552C215.28 31.2957 214.717 30.9868 214.13 30.7326C213.45 30.4383 212.746 30.2041 212.025 30.0327C211.263 29.8461 210.47 29.6751 209.703 29.5144C207.766 29.1397 205.878 28.5485 204.073 27.7519C202.609 27.1028 201.263 26.2126 200.092 25.1186C199.054 24.1276 198.242 22.9233 197.713 21.5885C197.17 20.148 196.905 18.6178 196.93 17.0787C196.888 14.8179 197.607 12.6086 198.973 10.8064C200.391 8.97108 202.251 7.5248 204.379 6.60241C206.663 5.58799 209.137 5.07199 211.636 5.08878C215.438 5.08878 218.51 5.69699 220.853 6.91343C223.12 8.06437 225.042 9.79356 226.426 11.9261L220.49 17.6955C219.44 16.2961 218.09 15.1486 216.54 14.3365C215.11 13.5997 213.525 13.2141 211.916 13.2116C210.95 13.1966 209.987 13.3295 209.06 13.6056C208.339 13.8044 207.688 14.2034 207.184 14.7564C206.753 15.263 206.524 15.9109 206.541 16.5758C206.532 17.1508 206.714 17.7125 207.059 18.1724C207.462 18.6765 207.97 19.0868 208.547 19.3751C209.244 19.7371 209.975 20.0288 210.729 20.2459C211.581 20.4933 212.446 20.6889 213.321 20.8317C215.244 21.1985 217.127 21.747 218.945 22.4697C220.493 23.0745 221.937 23.9156 223.227 24.9631C224.391 25.908 225.336 27.0926 226 28.4362C226.678 29.8599 227.015 31.4215 226.985 32.9978C227.053 35.4431 226.367 37.85 225.021 39.8922C223.663 41.8368 221.779 43.3529 219.588 44.262C217.067 45.3082 214.356 45.8218 211.626 45.7705Z" fill="#FF2400"/>
<path d="M234.149 45.2107V5.99596H251.515C253.855 5.9286 256.187 6.31953 258.378 7.14674C260.118 7.77202 261.611 8.93963 262.638 10.4776C263.664 12.0156 264.17 13.8426 264.08 15.6895C264.146 17.6689 263.566 19.6162 262.426 21.236C261.245 22.7825 259.578 23.8871 257.694 24.3722L257.637 23.1955C259.243 23.5726 260.757 24.2689 262.089 25.243C263.344 26.1531 264.369 27.342 265.086 28.7161C265.812 30.1458 266.179 31.7313 266.153 33.3348C266.191 35.1261 265.837 36.904 265.117 38.5444C264.453 39.9993 263.455 41.2765 262.203 42.2715C260.887 43.2926 259.383 44.0447 257.776 44.4849C255.942 44.9855 254.048 45.2298 252.147 45.2107H234.149ZM243.221 21.6818H250.224C251.072 21.7084 251.914 21.5454 252.691 21.2049C253.332 20.9234 253.874 20.4556 254.246 19.8624C254.605 19.2429 254.785 18.5357 254.765 17.82C254.79 17.2889 254.692 16.7591 254.478 16.2725C254.264 15.7858 253.94 15.3555 253.531 15.0156C252.707 14.3469 251.458 14.01 249.835 14.01H243.221V21.6818ZM243.221 37.2018H251.737C253.056 37.2822 254.359 36.8847 255.408 36.0822C255.853 35.6835 256.203 35.1892 256.431 34.6363C256.659 34.0833 256.759 33.486 256.724 32.889C256.747 32.1102 256.522 31.3444 256.081 30.7015C255.62 30.0825 254.985 29.6151 254.257 29.3589C253.359 29.039 252.41 28.8861 251.458 28.9079H243.221V37.2018Z" fill="#FF2400"/>
<path d="M307.986 17.6797C307.117 15.3509 305.764 13.2329 304.016 11.4655C302.268 9.69807 300.165 8.3214 297.846 7.42638C296.148 6.76713 294.367 6.34333 292.554 6.16675C293.844 7.85006 294.662 9.84705 294.923 11.9518C295.033 12.6233 294.875 13.3113 294.482 13.867C294.089 14.4227 293.493 14.8017 292.823 14.922C293.153 15.0183 293.477 15.1343 293.793 15.2693C295.002 15.7795 296.083 16.5534 296.955 17.5346C297.855 18.5654 298.541 19.7656 298.971 21.0647C299.904 24.0378 299.904 27.2253 298.971 30.1984C298.541 31.4975 297.855 32.6977 296.955 33.7285C296.086 34.7131 295.005 35.4877 293.793 35.9938C292.478 36.5338 291.067 36.8019 289.646 36.7817H283.814C283.84 37.269 283.871 37.7562 283.897 38.2383C283.944 38.99 283.985 39.7416 284.022 40.4881C284.022 40.6125 284.022 40.7369 284.022 40.8561C284.022 40.9753 284.022 41.2241 284.053 41.4107C284.076 41.6007 284.108 41.7893 284.151 41.9758C284.345 42.0263 284.543 42.0627 284.742 42.0846C284.986 42.1157 285.235 42.1624 285.478 42.2091L285.701 42.2557C286.291 42.3635 286.825 42.6725 287.213 43.13C287.6 43.5875 287.817 44.1651 287.826 44.7646V45.0445C287.826 45.1067 287.826 45.1689 287.826 45.2311H289.962C292.671 45.2683 295.363 44.7825 297.888 43.8004C300.195 42.8995 302.288 41.5241 304.03 39.7632C305.772 38.0022 307.125 35.8951 308.001 33.5782C309.868 28.4484 309.868 22.8251 308.001 17.6953L307.986 17.6797Z" fill="#FF2400"/>
<path d="M285.25 45.0707C284.935 45.1422 284.614 45.189 284.291 45.2106C282.098 45.1847 279.911 45.1173 277.718 45.1018C276.723 45.1018 275.728 45.1951 274.727 45.2106C274.424 45.1869 274.123 45.1331 273.83 45.0499V44.7804C274.064 44.7191 274.301 44.6706 274.541 44.6352C276.764 44.3968 277.547 43.6555 277.713 41.4628C278.387 32.5227 278.646 23.5704 278.491 14.606C278.491 14.3015 278.393 14.0049 278.211 13.7611L272.965 20.2044C271.975 18.2813 271.985 16.3892 272.332 14.4609C272.696 12.547 273.626 10.7864 275.002 9.40678L266.822 12.3356C267.185 10.0599 267.802 8.0642 269.683 6.78383C271.565 5.50345 273.659 5.65896 275.769 6.21362L275.873 5.99591C274.997 5.3324 274.126 4.65851 273.25 4.00018C272.374 3.34185 271.482 2.68352 270.596 2.02519C272.892 -0.618496 277.775 1.13359 279.61 5.30647C280.528 2.54356 282.441 1.1284 285.183 0.848482C285.807 0.778998 286.439 0.840879 287.038 1.03014C287.637 1.21939 288.19 1.53184 288.661 1.94742L283.342 5.96998L283.28 6.20326C288.568 4.90215 291.507 6.99637 292.383 12.3459L284.167 9.40159C287.158 13.2064 287.982 17.286 286.194 20.1682C284.421 17.9858 282.669 15.8294 280.74 13.4656C280.686 13.8091 280.65 14.1551 280.631 14.5024C280.771 20.8265 280.901 27.1454 281.072 33.4643C281.139 35.8488 281.31 38.2282 281.435 40.6127C281.435 40.9704 281.435 41.3332 281.492 41.6909C281.725 43.7022 282.42 44.3916 284.431 44.6456C284.706 44.6819 284.949 44.7441 285.245 44.7907L285.25 45.0707Z" fill="#FF2400"/>
</g>
<defs>
<clipPath id="clip0_2496_23420">
<rect width="308.394" height="44.9997" fill="white" transform="translate(0.986084 0.775879)"/>
</clipPath>
</defs>
</svg>
