<svg width="81" height="81" viewBox="0 0 81 81" fill="none" xmlns="http://www.w3.org/2000/svg">
<rect width="80" height="80" transform="translate(0.5 0.584473)" fill="#CEDBDF"/>
<mask id="path-1-outside-1_2705_31759" maskUnits="userSpaceOnUse" x="19.4805" y="15.498" width="42" height="50" fill="black">
<rect fill="white" x="19.4805" y="15.498" width="42" height="50"/>
<path d="M38.5297 48.2493H32.1805C31.9736 48.2493 31.7752 48.3314 31.6289 48.4777C31.4826 48.624 31.4005 48.8224 31.4005 49.0293V63.8909C31.4005 64.0977 31.4826 64.2961 31.6289 64.4424C31.7752 64.5887 31.9736 64.6708 32.1805 64.6708H38.5297C38.7365 64.6708 38.9349 64.5887 39.0812 64.4424C39.2275 64.2961 39.3097 64.0977 39.3097 63.8909V49.0293C39.3097 48.8224 39.2275 48.624 39.0812 48.4777C38.9349 48.3314 38.7365 48.2493 38.5297 48.2493ZM37.7497 63.1108H32.9397V49.8092H37.7497V63.1108ZM27.6097 56.7461H21.2605C21.0536 56.7461 20.8552 56.8282 20.7089 56.9745C20.5626 57.1208 20.4805 57.3192 20.4805 57.5261V63.8909C20.4805 64.0977 20.5626 64.2961 20.7089 64.4424C20.8552 64.5887 21.0536 64.6708 21.2605 64.6708H27.6097C27.8165 64.6708 28.0149 64.5887 28.1612 64.4424C28.3075 64.2961 28.3897 64.0977 28.3897 63.8909V57.5261C28.3897 57.3192 28.3075 57.1208 28.1612 56.9745C28.0149 56.8282 27.8165 56.7461 27.6097 56.7461ZM26.8297 63.1108H22.0197V58.306H26.8297V63.1108ZM49.1429 52.4977H42.7729C42.566 52.4977 42.3676 52.5798 42.2213 52.7261C42.075 52.8724 41.9929 53.0708 41.9929 53.2777V63.584C41.9929 63.7909 42.075 63.9893 42.2213 64.1356C42.3676 64.2819 42.566 64.3641 42.7729 64.3641H49.1429C49.3497 64.3641 49.5481 64.2819 49.6944 64.1356C49.8407 63.9893 49.9229 63.7909 49.9229 63.584V53.2777C49.9229 53.0708 49.8407 52.8724 49.6944 52.7261C49.5481 52.5798 49.3497 52.4977 49.1429 52.4977ZM48.3629 62.8041H43.5529V54.0577H48.3629V62.8041ZM59.7405 41.8845H53.3913C53.1844 41.8845 52.986 41.9666 52.8397 42.1129C52.6934 42.2592 52.6113 42.4576 52.6113 42.6645V63.8909C52.6113 64.0977 52.6934 64.2961 52.8397 64.4424C52.986 64.5887 53.1844 64.6708 53.3913 64.6708H59.7405C59.9473 64.6708 60.1457 64.5887 60.292 64.4424C60.4383 64.2961 60.5205 64.0977 60.5205 63.8909V42.6645C60.5205 42.4576 60.4383 42.2592 60.292 42.1129C60.1457 41.9666 59.9473 41.8845 59.7405 41.8845ZM58.9605 63.1108H54.1713V43.4445H58.9813L58.9605 63.1108ZM24.4273 52.0608C24.7687 52.0608 25.1068 51.9936 25.4222 51.8629C25.7377 51.7323 26.0243 51.5408 26.2657 51.2993C26.5072 51.0579 26.6987 50.7713 26.8294 50.4558C26.96 50.1404 27.0273 49.8023 27.0273 49.4608C27.0253 49.1518 26.9689 48.8456 26.8609 48.5561L33.8653 43.1013C34.4029 43.4749 35.0629 43.6291 35.7104 43.5325C36.358 43.4358 36.9442 43.0956 37.3493 42.5813L43.3761 44.9889V45.1865C43.3761 45.876 43.65 46.5373 44.1376 47.0249C44.6252 47.5125 45.2865 47.7865 45.9761 47.7865C46.6656 47.7865 47.327 47.5125 47.8145 47.0249C48.3021 46.5373 48.5761 45.876 48.5761 45.1865C48.5737 44.7755 48.4739 44.371 48.2849 44.0061L55.3621 37.0329C55.733 37.2384 56.1496 37.3474 56.5737 37.3501C57.0879 37.3501 57.5906 37.1976 58.0182 36.9119C58.4457 36.6262 58.779 36.2201 58.9758 35.745C59.1725 35.2699 59.224 34.7472 59.1237 34.2428C59.0234 33.7385 58.7758 33.2752 58.4121 32.9116C58.0485 32.548 57.5853 32.3003 57.0809 32.2C56.5766 32.0997 56.0538 32.1512 55.5787 32.348C55.1036 32.5448 54.6975 32.878 54.4118 33.3056C54.1262 33.7331 53.9737 34.2358 53.9737 34.7501C53.9801 35.1522 54.0798 35.5474 54.2649 35.9045L47.1721 42.9193C46.6448 42.6317 46.033 42.5393 45.4443 42.6581C44.8556 42.777 44.3277 43.0996 43.9533 43.5693L37.9265 41.1565V40.9641C37.9265 40.2745 37.6525 39.6132 37.1649 39.1256C36.6774 38.638 36.016 38.3641 35.3265 38.3641C34.6369 38.3641 33.9756 38.638 33.488 39.1256C33.0004 39.6132 32.7265 40.2745 32.7265 40.9641C32.7277 41.2736 32.7858 41.5803 32.8981 41.8689L25.9041 47.3445C25.5685 47.1137 25.1833 46.965 24.7797 46.9104C24.3761 46.8557 23.9653 46.8967 23.5804 47.0299C23.1955 47.1632 22.8473 47.385 22.5638 47.6775C22.2804 47.9699 22.0696 48.3249 21.9485 48.7138C21.8274 49.1027 21.7994 49.5146 21.8667 49.9163C21.9339 50.318 22.0946 50.6983 22.3358 51.0265C22.577 51.3547 22.8919 51.6217 23.2552 51.8058C23.6185 51.99 24.02 52.0863 24.4273 52.0868V52.0608ZM56.5737 33.6997C56.7794 33.6997 56.9804 33.7606 57.1515 33.8749C57.3225 33.9892 57.4558 34.1516 57.5345 34.3417C57.6132 34.5317 57.6338 34.7408 57.5937 34.9425C57.5536 35.1443 57.4545 35.3296 57.3091 35.475C57.1636 35.6205 56.9783 35.7195 56.7766 35.7597C56.5748 35.7998 56.3657 35.7792 56.1757 35.7005C55.9856 35.6218 55.8232 35.4885 55.7089 35.3174C55.5947 35.1464 55.5337 34.9453 55.5337 34.7397C55.5337 34.4638 55.6432 34.1993 55.8383 34.0043C56.0333 33.8092 56.2978 33.6997 56.5737 33.6997ZM45.9605 44.1673C46.1662 44.1673 46.3672 44.2282 46.5383 44.3425C46.7093 44.4568 46.8426 44.6192 46.9213 44.8093C47 44.9993 47.0206 45.2084 46.9805 45.4101C46.9404 45.6119 46.8413 45.7972 46.6959 45.9426C46.5504 46.0881 46.3651 46.1871 46.1634 46.2273C45.9616 46.2674 45.7525 46.2468 45.5625 46.1681C45.3724 46.0894 45.21 45.9561 45.0957 45.785C44.9815 45.614 44.9205 45.4129 44.9205 45.2073C44.9205 44.9314 45.03 44.6669 45.2251 44.4719C45.4201 44.2768 45.6846 44.1673 45.9605 44.1673ZM35.3421 39.9189C35.5478 39.9189 35.7488 39.9798 35.9199 40.0941C36.0909 40.2084 36.2242 40.3708 36.3029 40.5609C36.3816 40.7509 36.4022 40.96 36.3621 41.1617C36.322 41.3635 36.2229 41.5488 36.0775 41.6942C35.932 41.8397 35.7467 41.9387 35.545 41.9789C35.3432 42.019 35.1341 41.9984 34.9441 41.9197C34.754 41.841 34.5916 41.7077 34.4773 41.5366C34.3631 41.3656 34.3021 41.1645 34.3021 40.9589C34.3021 40.683 34.4116 40.4185 34.6067 40.2235C34.8017 40.0284 35.0662 39.9189 35.3421 39.9189ZM24.4221 48.4105C24.6278 48.4105 24.8288 48.4714 24.9999 48.5857C25.1709 48.7 25.3042 48.8624 25.3829 49.0525C25.4616 49.2425 25.4822 49.4516 25.4421 49.6533C25.402 49.8551 25.3029 50.0404 25.1575 50.1858C25.012 50.3313 24.8267 50.4303 24.625 50.4705C24.4232 50.5106 24.2141 50.49 24.0241 50.4113C23.834 50.3326 23.6716 50.1993 23.5573 50.0282C23.4431 49.8572 23.3821 49.6561 23.3821 49.4505C23.3821 49.3134 23.4091 49.1778 23.4617 49.0513C23.5143 48.9247 23.5914 48.8099 23.6885 48.7132C23.7856 48.6166 23.9009 48.5401 24.0277 48.4881C24.1545 48.4362 24.2903 48.4098 24.4273 48.4105H24.4221ZM43.1005 37.8181C45.2088 37.8181 47.2698 37.1929 49.0228 36.0215C50.7759 34.8502 52.1422 33.1853 52.949 31.2375C53.7559 29.2896 53.967 27.1462 53.5556 25.0784C53.1443 23.0106 52.1291 21.1111 50.6382 19.6203C49.1474 18.1295 47.248 17.1142 45.1801 16.7029C43.1123 16.2916 40.9689 16.5027 39.0211 17.3095C37.0732 18.1163 35.4083 19.4826 34.237 21.2357C33.0657 22.9887 32.4405 25.0497 32.4405 27.1581C32.4446 29.984 33.569 32.693 35.5673 34.6913C37.5655 36.6895 40.2745 37.8139 43.1005 37.8181ZM43.1005 18.0581C44.9003 18.0581 46.6597 18.5918 48.1562 19.5917C49.6526 20.5916 50.819 22.0128 51.5078 23.6756C52.1965 25.3384 52.3767 27.1681 52.0256 28.9334C51.6745 30.6986 50.8078 32.3201 49.5351 33.5927C48.2625 34.8654 46.641 35.7321 44.8758 36.0832C43.1106 36.4343 41.2809 36.2541 39.618 35.5654C37.9552 34.8766 36.534 33.7102 35.5341 32.2137C34.5342 30.7173 34.0005 28.9579 34.0005 27.1581C34.0032 24.7454 34.9629 22.4324 36.6688 20.7264C38.3748 19.0204 40.6878 18.0608 43.1005 18.0581ZM44.8633 29.8673C44.8633 29.3997 44.6775 28.9514 44.347 28.6208C44.0164 28.2902 43.568 28.1045 43.1005 28.1045C42.8643 28.1051 42.6288 28.0789 42.3985 28.0265C41.6648 27.8659 41.0071 27.4616 40.5327 26.8794C40.0583 26.2972 39.7951 25.5714 39.7861 24.8205C39.777 24.0695 40.0226 23.3376 40.4829 22.7441C40.9431 22.1506 41.5909 21.7306 42.3205 21.5525V20.7933C42.3205 20.5864 42.4026 20.388 42.5489 20.2417C42.6952 20.0954 42.8936 20.0133 43.1005 20.0133C43.3073 20.0133 43.5057 20.0954 43.652 20.2417C43.7983 20.388 43.8805 20.5864 43.8805 20.7933V21.5525C44.6051 21.7274 45.2499 22.141 45.7111 22.7267C46.1723 23.3124 46.4231 24.0362 46.4233 24.7817C46.4233 24.9885 46.3411 25.1869 46.1948 25.3332C46.0485 25.4795 45.8501 25.5617 45.6433 25.5617C45.4364 25.5617 45.238 25.4795 45.0917 25.3332C44.9454 25.1869 44.8633 24.9885 44.8633 24.7817C44.8633 24.433 44.7599 24.0922 44.5662 23.8023C44.3725 23.5124 44.0972 23.2865 43.7751 23.153C43.453 23.0196 43.0985 22.9847 42.7566 23.0527C42.4146 23.1207 42.1005 23.2886 41.854 23.5352C41.6074 23.7817 41.4396 24.0958 41.3715 24.4377C41.3035 24.7797 41.3384 25.1341 41.4719 25.4562C41.6053 25.7784 41.8312 26.0537 42.1211 26.2474C42.411 26.4411 42.7518 26.5445 43.1005 26.5445H43.1629C43.3781 26.545 43.5926 26.5694 43.8025 26.6173C44.5386 26.7756 45.1992 27.1793 45.6759 27.7623C46.1526 28.3452 46.4171 29.0728 46.4262 29.8257C46.4353 30.5787 46.1883 31.3124 45.7258 31.9067C45.2633 32.5009 44.6126 32.9204 43.8805 33.0965V33.5177C43.8805 33.7245 43.7983 33.9229 43.652 34.0692C43.5057 34.2155 43.3073 34.2977 43.1005 34.2977C42.8936 34.2977 42.6952 34.2155 42.5489 34.0692C42.4026 33.9229 42.3205 33.7245 42.3205 33.5177V33.0965C41.5958 32.9215 40.9511 32.5079 40.4899 31.9222C40.0287 31.3365 39.7778 30.6127 39.7777 29.8673C39.7777 29.6604 39.8598 29.462 40.0061 29.3157C40.1524 29.1694 40.3508 29.0873 40.5577 29.0873C40.7642 29.0886 40.9621 29.1707 41.1089 29.3161C41.2547 29.4625 41.3369 29.6606 41.3377 29.8673C41.3377 30.3353 41.5232 30.7842 41.8537 31.1156C42.1841 31.447 42.6325 31.6339 43.1005 31.6353C43.5685 31.6339 44.0168 31.447 44.3473 31.1156C44.6777 30.7842 44.8633 30.3353 44.8633 29.8673Z"/>
</mask>
<path d="M38.5297 48.2493H32.1805C31.9736 48.2493 31.7752 48.3314 31.6289 48.4777C31.4826 48.624 31.4005 48.8224 31.4005 49.0293V63.8909C31.4005 64.0977 31.4826 64.2961 31.6289 64.4424C31.7752 64.5887 31.9736 64.6708 32.1805 64.6708H38.5297C38.7365 64.6708 38.9349 64.5887 39.0812 64.4424C39.2275 64.2961 39.3097 64.0977 39.3097 63.8909V49.0293C39.3097 48.8224 39.2275 48.624 39.0812 48.4777C38.9349 48.3314 38.7365 48.2493 38.5297 48.2493ZM37.7497 63.1108H32.9397V49.8092H37.7497V63.1108ZM27.6097 56.7461H21.2605C21.0536 56.7461 20.8552 56.8282 20.7089 56.9745C20.5626 57.1208 20.4805 57.3192 20.4805 57.5261V63.8909C20.4805 64.0977 20.5626 64.2961 20.7089 64.4424C20.8552 64.5887 21.0536 64.6708 21.2605 64.6708H27.6097C27.8165 64.6708 28.0149 64.5887 28.1612 64.4424C28.3075 64.2961 28.3897 64.0977 28.3897 63.8909V57.5261C28.3897 57.3192 28.3075 57.1208 28.1612 56.9745C28.0149 56.8282 27.8165 56.7461 27.6097 56.7461ZM26.8297 63.1108H22.0197V58.306H26.8297V63.1108ZM49.1429 52.4977H42.7729C42.566 52.4977 42.3676 52.5798 42.2213 52.7261C42.075 52.8724 41.9929 53.0708 41.9929 53.2777V63.584C41.9929 63.7909 42.075 63.9893 42.2213 64.1356C42.3676 64.2819 42.566 64.3641 42.7729 64.3641H49.1429C49.3497 64.3641 49.5481 64.2819 49.6944 64.1356C49.8407 63.9893 49.9229 63.7909 49.9229 63.584V53.2777C49.9229 53.0708 49.8407 52.8724 49.6944 52.7261C49.5481 52.5798 49.3497 52.4977 49.1429 52.4977ZM48.3629 62.8041H43.5529V54.0577H48.3629V62.8041ZM59.7405 41.8845H53.3913C53.1844 41.8845 52.986 41.9666 52.8397 42.1129C52.6934 42.2592 52.6113 42.4576 52.6113 42.6645V63.8909C52.6113 64.0977 52.6934 64.2961 52.8397 64.4424C52.986 64.5887 53.1844 64.6708 53.3913 64.6708H59.7405C59.9473 64.6708 60.1457 64.5887 60.292 64.4424C60.4383 64.2961 60.5205 64.0977 60.5205 63.8909V42.6645C60.5205 42.4576 60.4383 42.2592 60.292 42.1129C60.1457 41.9666 59.9473 41.8845 59.7405 41.8845ZM58.9605 63.1108H54.1713V43.4445H58.9813L58.9605 63.1108ZM24.4273 52.0608C24.7687 52.0608 25.1068 51.9936 25.4222 51.8629C25.7377 51.7323 26.0243 51.5408 26.2657 51.2993C26.5072 51.0579 26.6987 50.7713 26.8294 50.4558C26.96 50.1404 27.0273 49.8023 27.0273 49.4608C27.0253 49.1518 26.9689 48.8456 26.8609 48.5561L33.8653 43.1013C34.4029 43.4749 35.0629 43.6291 35.7104 43.5325C36.358 43.4358 36.9442 43.0956 37.3493 42.5813L43.3761 44.9889V45.1865C43.3761 45.876 43.65 46.5373 44.1376 47.0249C44.6252 47.5125 45.2865 47.7865 45.9761 47.7865C46.6656 47.7865 47.327 47.5125 47.8145 47.0249C48.3021 46.5373 48.5761 45.876 48.5761 45.1865C48.5737 44.7755 48.4739 44.371 48.2849 44.0061L55.3621 37.0329C55.733 37.2384 56.1496 37.3474 56.5737 37.3501C57.0879 37.3501 57.5906 37.1976 58.0182 36.9119C58.4457 36.6262 58.779 36.2201 58.9758 35.745C59.1725 35.2699 59.224 34.7472 59.1237 34.2428C59.0234 33.7385 58.7758 33.2752 58.4121 32.9116C58.0485 32.548 57.5853 32.3003 57.0809 32.2C56.5766 32.0997 56.0538 32.1512 55.5787 32.348C55.1036 32.5448 54.6975 32.878 54.4118 33.3056C54.1262 33.7331 53.9737 34.2358 53.9737 34.7501C53.9801 35.1522 54.0798 35.5474 54.2649 35.9045L47.1721 42.9193C46.6448 42.6317 46.033 42.5393 45.4443 42.6581C44.8556 42.777 44.3277 43.0996 43.9533 43.5693L37.9265 41.1565V40.9641C37.9265 40.2745 37.6525 39.6132 37.1649 39.1256C36.6774 38.638 36.016 38.3641 35.3265 38.3641C34.6369 38.3641 33.9756 38.638 33.488 39.1256C33.0004 39.6132 32.7265 40.2745 32.7265 40.9641C32.7277 41.2736 32.7858 41.5803 32.8981 41.8689L25.9041 47.3445C25.5685 47.1137 25.1833 46.965 24.7797 46.9104C24.3761 46.8557 23.9653 46.8967 23.5804 47.0299C23.1955 47.1632 22.8473 47.385 22.5638 47.6775C22.2804 47.9699 22.0696 48.3249 21.9485 48.7138C21.8274 49.1027 21.7994 49.5146 21.8667 49.9163C21.9339 50.318 22.0946 50.6983 22.3358 51.0265C22.577 51.3547 22.8919 51.6217 23.2552 51.8058C23.6185 51.99 24.02 52.0863 24.4273 52.0868V52.0608ZM56.5737 33.6997C56.7794 33.6997 56.9804 33.7606 57.1515 33.8749C57.3225 33.9892 57.4558 34.1516 57.5345 34.3417C57.6132 34.5317 57.6338 34.7408 57.5937 34.9425C57.5536 35.1443 57.4545 35.3296 57.3091 35.475C57.1636 35.6205 56.9783 35.7195 56.7766 35.7597C56.5748 35.7998 56.3657 35.7792 56.1757 35.7005C55.9856 35.6218 55.8232 35.4885 55.7089 35.3174C55.5947 35.1464 55.5337 34.9453 55.5337 34.7397C55.5337 34.4638 55.6432 34.1993 55.8383 34.0043C56.0333 33.8092 56.2978 33.6997 56.5737 33.6997ZM45.9605 44.1673C46.1662 44.1673 46.3672 44.2282 46.5383 44.3425C46.7093 44.4568 46.8426 44.6192 46.9213 44.8093C47 44.9993 47.0206 45.2084 46.9805 45.4101C46.9404 45.6119 46.8413 45.7972 46.6959 45.9426C46.5504 46.0881 46.3651 46.1871 46.1634 46.2273C45.9616 46.2674 45.7525 46.2468 45.5625 46.1681C45.3724 46.0894 45.21 45.9561 45.0957 45.785C44.9815 45.614 44.9205 45.4129 44.9205 45.2073C44.9205 44.9314 45.03 44.6669 45.2251 44.4719C45.4201 44.2768 45.6846 44.1673 45.9605 44.1673ZM35.3421 39.9189C35.5478 39.9189 35.7488 39.9798 35.9199 40.0941C36.0909 40.2084 36.2242 40.3708 36.3029 40.5609C36.3816 40.7509 36.4022 40.96 36.3621 41.1617C36.322 41.3635 36.2229 41.5488 36.0775 41.6942C35.932 41.8397 35.7467 41.9387 35.545 41.9789C35.3432 42.019 35.1341 41.9984 34.9441 41.9197C34.754 41.841 34.5916 41.7077 34.4773 41.5366C34.3631 41.3656 34.3021 41.1645 34.3021 40.9589C34.3021 40.683 34.4116 40.4185 34.6067 40.2235C34.8017 40.0284 35.0662 39.9189 35.3421 39.9189ZM24.4221 48.4105C24.6278 48.4105 24.8288 48.4714 24.9999 48.5857C25.1709 48.7 25.3042 48.8624 25.3829 49.0525C25.4616 49.2425 25.4822 49.4516 25.4421 49.6533C25.402 49.8551 25.3029 50.0404 25.1575 50.1858C25.012 50.3313 24.8267 50.4303 24.625 50.4705C24.4232 50.5106 24.2141 50.49 24.0241 50.4113C23.834 50.3326 23.6716 50.1993 23.5573 50.0282C23.4431 49.8572 23.3821 49.6561 23.3821 49.4505C23.3821 49.3134 23.4091 49.1778 23.4617 49.0513C23.5143 48.9247 23.5914 48.8099 23.6885 48.7132C23.7856 48.6166 23.9009 48.5401 24.0277 48.4881C24.1545 48.4362 24.2903 48.4098 24.4273 48.4105H24.4221ZM43.1005 37.8181C45.2088 37.8181 47.2698 37.1929 49.0228 36.0215C50.7759 34.8502 52.1422 33.1853 52.949 31.2375C53.7559 29.2896 53.967 27.1462 53.5556 25.0784C53.1443 23.0106 52.1291 21.1111 50.6382 19.6203C49.1474 18.1295 47.248 17.1142 45.1801 16.7029C43.1123 16.2916 40.9689 16.5027 39.0211 17.3095C37.0732 18.1163 35.4083 19.4826 34.237 21.2357C33.0657 22.9887 32.4405 25.0497 32.4405 27.1581C32.4446 29.984 33.569 32.693 35.5673 34.6913C37.5655 36.6895 40.2745 37.8139 43.1005 37.8181ZM43.1005 18.0581C44.9003 18.0581 46.6597 18.5918 48.1562 19.5917C49.6526 20.5916 50.819 22.0128 51.5078 23.6756C52.1965 25.3384 52.3767 27.1681 52.0256 28.9334C51.6745 30.6986 50.8078 32.3201 49.5351 33.5927C48.2625 34.8654 46.641 35.7321 44.8758 36.0832C43.1106 36.4343 41.2809 36.2541 39.618 35.5654C37.9552 34.8766 36.534 33.7102 35.5341 32.2137C34.5342 30.7173 34.0005 28.9579 34.0005 27.1581C34.0032 24.7454 34.9629 22.4324 36.6688 20.7264C38.3748 19.0204 40.6878 18.0608 43.1005 18.0581ZM44.8633 29.8673C44.8633 29.3997 44.6775 28.9514 44.347 28.6208C44.0164 28.2902 43.568 28.1045 43.1005 28.1045C42.8643 28.1051 42.6288 28.0789 42.3985 28.0265C41.6648 27.8659 41.0071 27.4616 40.5327 26.8794C40.0583 26.2972 39.7951 25.5714 39.7861 24.8205C39.777 24.0695 40.0226 23.3376 40.4829 22.7441C40.9431 22.1506 41.5909 21.7306 42.3205 21.5525V20.7933C42.3205 20.5864 42.4026 20.388 42.5489 20.2417C42.6952 20.0954 42.8936 20.0133 43.1005 20.0133C43.3073 20.0133 43.5057 20.0954 43.652 20.2417C43.7983 20.388 43.8805 20.5864 43.8805 20.7933V21.5525C44.6051 21.7274 45.2499 22.141 45.7111 22.7267C46.1723 23.3124 46.4231 24.0362 46.4233 24.7817C46.4233 24.9885 46.3411 25.1869 46.1948 25.3332C46.0485 25.4795 45.8501 25.5617 45.6433 25.5617C45.4364 25.5617 45.238 25.4795 45.0917 25.3332C44.9454 25.1869 44.8633 24.9885 44.8633 24.7817C44.8633 24.433 44.7599 24.0922 44.5662 23.8023C44.3725 23.5124 44.0972 23.2865 43.7751 23.153C43.453 23.0196 43.0985 22.9847 42.7566 23.0527C42.4146 23.1207 42.1005 23.2886 41.854 23.5352C41.6074 23.7817 41.4396 24.0958 41.3715 24.4377C41.3035 24.7797 41.3384 25.1341 41.4719 25.4562C41.6053 25.7784 41.8312 26.0537 42.1211 26.2474C42.411 26.4411 42.7518 26.5445 43.1005 26.5445H43.1629C43.3781 26.545 43.5926 26.5694 43.8025 26.6173C44.5386 26.7756 45.1992 27.1793 45.6759 27.7623C46.1526 28.3452 46.4171 29.0728 46.4262 29.8257C46.4353 30.5787 46.1883 31.3124 45.7258 31.9067C45.2633 32.5009 44.6126 32.9204 43.8805 33.0965V33.5177C43.8805 33.7245 43.7983 33.9229 43.652 34.0692C43.5057 34.2155 43.3073 34.2977 43.1005 34.2977C42.8936 34.2977 42.6952 34.2155 42.5489 34.0692C42.4026 33.9229 42.3205 33.7245 42.3205 33.5177V33.0965C41.5958 32.9215 40.9511 32.5079 40.4899 31.9222C40.0287 31.3365 39.7778 30.6127 39.7777 29.8673C39.7777 29.6604 39.8598 29.462 40.0061 29.3157C40.1524 29.1694 40.3508 29.0873 40.5577 29.0873C40.7642 29.0886 40.9621 29.1707 41.1089 29.3161C41.2547 29.4625 41.3369 29.6606 41.3377 29.8673C41.3377 30.3353 41.5232 30.7842 41.8537 31.1156C42.1841 31.447 42.6325 31.6339 43.1005 31.6353C43.5685 31.6339 44.0168 31.447 44.3473 31.1156C44.6777 30.7842 44.8633 30.3353 44.8633 29.8673Z" fill="#FB7A00"/>
<path d="M38.5297 48.2493H32.1805C31.9736 48.2493 31.7752 48.3314 31.6289 48.4777C31.4826 48.624 31.4005 48.8224 31.4005 49.0293V63.8909C31.4005 64.0977 31.4826 64.2961 31.6289 64.4424C31.7752 64.5887 31.9736 64.6708 32.1805 64.6708H38.5297C38.7365 64.6708 38.9349 64.5887 39.0812 64.4424C39.2275 64.2961 39.3097 64.0977 39.3097 63.8909V49.0293C39.3097 48.8224 39.2275 48.624 39.0812 48.4777C38.9349 48.3314 38.7365 48.2493 38.5297 48.2493ZM37.7497 63.1108H32.9397V49.8092H37.7497V63.1108ZM27.6097 56.7461H21.2605C21.0536 56.7461 20.8552 56.8282 20.7089 56.9745C20.5626 57.1208 20.4805 57.3192 20.4805 57.5261V63.8909C20.4805 64.0977 20.5626 64.2961 20.7089 64.4424C20.8552 64.5887 21.0536 64.6708 21.2605 64.6708H27.6097C27.8165 64.6708 28.0149 64.5887 28.1612 64.4424C28.3075 64.2961 28.3897 64.0977 28.3897 63.8909V57.5261C28.3897 57.3192 28.3075 57.1208 28.1612 56.9745C28.0149 56.8282 27.8165 56.7461 27.6097 56.7461ZM26.8297 63.1108H22.0197V58.306H26.8297V63.1108ZM49.1429 52.4977H42.7729C42.566 52.4977 42.3676 52.5798 42.2213 52.7261C42.075 52.8724 41.9929 53.0708 41.9929 53.2777V63.584C41.9929 63.7909 42.075 63.9893 42.2213 64.1356C42.3676 64.2819 42.566 64.3641 42.7729 64.3641H49.1429C49.3497 64.3641 49.5481 64.2819 49.6944 64.1356C49.8407 63.9893 49.9229 63.7909 49.9229 63.584V53.2777C49.9229 53.0708 49.8407 52.8724 49.6944 52.7261C49.5481 52.5798 49.3497 52.4977 49.1429 52.4977ZM48.3629 62.8041H43.5529V54.0577H48.3629V62.8041ZM59.7405 41.8845H53.3913C53.1844 41.8845 52.986 41.9666 52.8397 42.1129C52.6934 42.2592 52.6113 42.4576 52.6113 42.6645V63.8909C52.6113 64.0977 52.6934 64.2961 52.8397 64.4424C52.986 64.5887 53.1844 64.6708 53.3913 64.6708H59.7405C59.9473 64.6708 60.1457 64.5887 60.292 64.4424C60.4383 64.2961 60.5205 64.0977 60.5205 63.8909V42.6645C60.5205 42.4576 60.4383 42.2592 60.292 42.1129C60.1457 41.9666 59.9473 41.8845 59.7405 41.8845ZM58.9605 63.1108H54.1713V43.4445H58.9813L58.9605 63.1108ZM24.4273 52.0608C24.7687 52.0608 25.1068 51.9936 25.4222 51.8629C25.7377 51.7323 26.0243 51.5408 26.2657 51.2993C26.5072 51.0579 26.6987 50.7713 26.8294 50.4558C26.96 50.1404 27.0273 49.8023 27.0273 49.4608C27.0253 49.1518 26.9689 48.8456 26.8609 48.5561L33.8653 43.1013C34.4029 43.4749 35.0629 43.6291 35.7104 43.5325C36.358 43.4358 36.9442 43.0956 37.3493 42.5813L43.3761 44.9889V45.1865C43.3761 45.876 43.65 46.5373 44.1376 47.0249C44.6252 47.5125 45.2865 47.7865 45.9761 47.7865C46.6656 47.7865 47.327 47.5125 47.8145 47.0249C48.3021 46.5373 48.5761 45.876 48.5761 45.1865C48.5737 44.7755 48.4739 44.371 48.2849 44.0061L55.3621 37.0329C55.733 37.2384 56.1496 37.3474 56.5737 37.3501C57.0879 37.3501 57.5906 37.1976 58.0182 36.9119C58.4457 36.6262 58.779 36.2201 58.9758 35.745C59.1725 35.2699 59.224 34.7472 59.1237 34.2428C59.0234 33.7385 58.7758 33.2752 58.4121 32.9116C58.0485 32.548 57.5853 32.3003 57.0809 32.2C56.5766 32.0997 56.0538 32.1512 55.5787 32.348C55.1036 32.5448 54.6975 32.878 54.4118 33.3056C54.1262 33.7331 53.9737 34.2358 53.9737 34.7501C53.9801 35.1522 54.0798 35.5474 54.2649 35.9045L47.1721 42.9193C46.6448 42.6317 46.033 42.5393 45.4443 42.6581C44.8556 42.777 44.3277 43.0996 43.9533 43.5693L37.9265 41.1565V40.9641C37.9265 40.2745 37.6525 39.6132 37.1649 39.1256C36.6774 38.638 36.016 38.3641 35.3265 38.3641C34.6369 38.3641 33.9756 38.638 33.488 39.1256C33.0004 39.6132 32.7265 40.2745 32.7265 40.9641C32.7277 41.2736 32.7858 41.5803 32.8981 41.8689L25.9041 47.3445C25.5685 47.1137 25.1833 46.965 24.7797 46.9104C24.3761 46.8557 23.9653 46.8967 23.5804 47.0299C23.1955 47.1632 22.8473 47.385 22.5638 47.6775C22.2804 47.9699 22.0696 48.3249 21.9485 48.7138C21.8274 49.1027 21.7994 49.5146 21.8667 49.9163C21.9339 50.318 22.0946 50.6983 22.3358 51.0265C22.577 51.3547 22.8919 51.6217 23.2552 51.8058C23.6185 51.99 24.02 52.0863 24.4273 52.0868V52.0608ZM56.5737 33.6997C56.7794 33.6997 56.9804 33.7606 57.1515 33.8749C57.3225 33.9892 57.4558 34.1516 57.5345 34.3417C57.6132 34.5317 57.6338 34.7408 57.5937 34.9425C57.5536 35.1443 57.4545 35.3296 57.3091 35.475C57.1636 35.6205 56.9783 35.7195 56.7766 35.7597C56.5748 35.7998 56.3657 35.7792 56.1757 35.7005C55.9856 35.6218 55.8232 35.4885 55.7089 35.3174C55.5947 35.1464 55.5337 34.9453 55.5337 34.7397C55.5337 34.4638 55.6432 34.1993 55.8383 34.0043C56.0333 33.8092 56.2978 33.6997 56.5737 33.6997ZM45.9605 44.1673C46.1662 44.1673 46.3672 44.2282 46.5383 44.3425C46.7093 44.4568 46.8426 44.6192 46.9213 44.8093C47 44.9993 47.0206 45.2084 46.9805 45.4101C46.9404 45.6119 46.8413 45.7972 46.6959 45.9426C46.5504 46.0881 46.3651 46.1871 46.1634 46.2273C45.9616 46.2674 45.7525 46.2468 45.5625 46.1681C45.3724 46.0894 45.21 45.9561 45.0957 45.785C44.9815 45.614 44.9205 45.4129 44.9205 45.2073C44.9205 44.9314 45.03 44.6669 45.2251 44.4719C45.4201 44.2768 45.6846 44.1673 45.9605 44.1673ZM35.3421 39.9189C35.5478 39.9189 35.7488 39.9798 35.9199 40.0941C36.0909 40.2084 36.2242 40.3708 36.3029 40.5609C36.3816 40.7509 36.4022 40.96 36.3621 41.1617C36.322 41.3635 36.2229 41.5488 36.0775 41.6942C35.932 41.8397 35.7467 41.9387 35.545 41.9789C35.3432 42.019 35.1341 41.9984 34.9441 41.9197C34.754 41.841 34.5916 41.7077 34.4773 41.5366C34.3631 41.3656 34.3021 41.1645 34.3021 40.9589C34.3021 40.683 34.4116 40.4185 34.6067 40.2235C34.8017 40.0284 35.0662 39.9189 35.3421 39.9189ZM24.4221 48.4105C24.6278 48.4105 24.8288 48.4714 24.9999 48.5857C25.1709 48.7 25.3042 48.8624 25.3829 49.0525C25.4616 49.2425 25.4822 49.4516 25.4421 49.6533C25.402 49.8551 25.3029 50.0404 25.1575 50.1858C25.012 50.3313 24.8267 50.4303 24.625 50.4705C24.4232 50.5106 24.2141 50.49 24.0241 50.4113C23.834 50.3326 23.6716 50.1993 23.5573 50.0282C23.4431 49.8572 23.3821 49.6561 23.3821 49.4505C23.3821 49.3134 23.4091 49.1778 23.4617 49.0513C23.5143 48.9247 23.5914 48.8099 23.6885 48.7132C23.7856 48.6166 23.9009 48.5401 24.0277 48.4881C24.1545 48.4362 24.2903 48.4098 24.4273 48.4105H24.4221ZM43.1005 37.8181C45.2088 37.8181 47.2698 37.1929 49.0228 36.0215C50.7759 34.8502 52.1422 33.1853 52.949 31.2375C53.7559 29.2896 53.967 27.1462 53.5556 25.0784C53.1443 23.0106 52.1291 21.1111 50.6382 19.6203C49.1474 18.1295 47.248 17.1142 45.1801 16.7029C43.1123 16.2916 40.9689 16.5027 39.0211 17.3095C37.0732 18.1163 35.4083 19.4826 34.237 21.2357C33.0657 22.9887 32.4405 25.0497 32.4405 27.1581C32.4446 29.984 33.569 32.693 35.5673 34.6913C37.5655 36.6895 40.2745 37.8139 43.1005 37.8181ZM43.1005 18.0581C44.9003 18.0581 46.6597 18.5918 48.1562 19.5917C49.6526 20.5916 50.819 22.0128 51.5078 23.6756C52.1965 25.3384 52.3767 27.1681 52.0256 28.9334C51.6745 30.6986 50.8078 32.3201 49.5351 33.5927C48.2625 34.8654 46.641 35.7321 44.8758 36.0832C43.1106 36.4343 41.2809 36.2541 39.618 35.5654C37.9552 34.8766 36.534 33.7102 35.5341 32.2137C34.5342 30.7173 34.0005 28.9579 34.0005 27.1581C34.0032 24.7454 34.9629 22.4324 36.6688 20.7264C38.3748 19.0204 40.6878 18.0608 43.1005 18.0581ZM44.8633 29.8673C44.8633 29.3997 44.6775 28.9514 44.347 28.6208C44.0164 28.2902 43.568 28.1045 43.1005 28.1045C42.8643 28.1051 42.6288 28.0789 42.3985 28.0265C41.6648 27.8659 41.0071 27.4616 40.5327 26.8794C40.0583 26.2972 39.7951 25.5714 39.7861 24.8205C39.777 24.0695 40.0226 23.3376 40.4829 22.7441C40.9431 22.1506 41.5909 21.7306 42.3205 21.5525V20.7933C42.3205 20.5864 42.4026 20.388 42.5489 20.2417C42.6952 20.0954 42.8936 20.0133 43.1005 20.0133C43.3073 20.0133 43.5057 20.0954 43.652 20.2417C43.7983 20.388 43.8805 20.5864 43.8805 20.7933V21.5525C44.6051 21.7274 45.2499 22.141 45.7111 22.7267C46.1723 23.3124 46.4231 24.0362 46.4233 24.7817C46.4233 24.9885 46.3411 25.1869 46.1948 25.3332C46.0485 25.4795 45.8501 25.5617 45.6433 25.5617C45.4364 25.5617 45.238 25.4795 45.0917 25.3332C44.9454 25.1869 44.8633 24.9885 44.8633 24.7817C44.8633 24.433 44.7599 24.0922 44.5662 23.8023C44.3725 23.5124 44.0972 23.2865 43.7751 23.153C43.453 23.0196 43.0985 22.9847 42.7566 23.0527C42.4146 23.1207 42.1005 23.2886 41.854 23.5352C41.6074 23.7817 41.4396 24.0958 41.3715 24.4377C41.3035 24.7797 41.3384 25.1341 41.4719 25.4562C41.6053 25.7784 41.8312 26.0537 42.1211 26.2474C42.411 26.4411 42.7518 26.5445 43.1005 26.5445H43.1629C43.3781 26.545 43.5926 26.5694 43.8025 26.6173C44.5386 26.7756 45.1992 27.1793 45.6759 27.7623C46.1526 28.3452 46.4171 29.0728 46.4262 29.8257C46.4353 30.5787 46.1883 31.3124 45.7258 31.9067C45.2633 32.5009 44.6126 32.9204 43.8805 33.0965V33.5177C43.8805 33.7245 43.7983 33.9229 43.652 34.0692C43.5057 34.2155 43.3073 34.2977 43.1005 34.2977C42.8936 34.2977 42.6952 34.2155 42.5489 34.0692C42.4026 33.9229 42.3205 33.7245 42.3205 33.5177V33.0965C41.5958 32.9215 40.9511 32.5079 40.4899 31.9222C40.0287 31.3365 39.7778 30.6127 39.7777 29.8673C39.7777 29.6604 39.8598 29.462 40.0061 29.3157C40.1524 29.1694 40.3508 29.0873 40.5577 29.0873C40.7642 29.0886 40.9621 29.1707 41.1089 29.3161C41.2547 29.4625 41.3369 29.6606 41.3377 29.8673C41.3377 30.3353 41.5232 30.7842 41.8537 31.1156C42.1841 31.447 42.6325 31.6339 43.1005 31.6353C43.5685 31.6339 44.0168 31.447 44.3473 31.1156C44.6777 30.7842 44.8633 30.3353 44.8633 29.8673Z" stroke="#FB7A00" stroke-width="0.4" mask="url(#path-1-outside-1_2705_31759)"/>
</svg>
