<svg width="24" height="24" viewBox="0 0 24 24" fill="none" xmlns="http://www.w3.org/2000/svg">
<g id="svgexport-17 (12) 1">
<g id="Group">
<path id="Vector" d="M21.0821 21C20.9089 21 20.7423 20.9334 20.6091 20.8067L17.2911 17.4809C15.725 18.8286 13.7271 19.5689 11.6613 19.567C9.44267 19.567 7.22405 18.7206 5.53843 17.0344C3.89944 15.3948 3 13.2221 3 10.9094C3 8.59664 3.89944 6.41722 5.53843 4.78432C8.91633 1.40523 14.4129 1.40523 17.7842 4.78432C21.0022 8.00347 21.1487 13.1421 18.2306 16.5412L21.5552 19.867C21.6169 19.9286 21.6659 20.0019 21.6994 20.0825C21.7328 20.1631 21.75 20.2496 21.75 20.3368C21.75 20.4241 21.7328 20.5106 21.6994 20.5912C21.6659 20.6718 21.6169 20.7451 21.5552 20.8067C21.4219 20.9334 21.2553 21 21.0821 21ZM16.8447 5.72407C15.419 4.29779 13.5401 3.57798 11.6613 3.57798C9.78246 3.57798 7.91029 4.29112 6.47784 5.72407C5.09204 7.11037 4.33251 8.94988 4.33251 10.9094C4.33251 12.8688 5.09204 14.7083 6.47784 16.0946C9.33607 18.9539 13.9865 18.9539 16.8447 16.0946C19.703 13.2354 19.703 8.58331 16.8447 5.72407Z" fill="white"/>
</g>
</g>
</svg>
