<svg width="81" height="80" viewBox="0 0 81 80" fill="none" xmlns="http://www.w3.org/2000/svg">
<rect width="80" height="80" transform="translate(0.5)" fill="#CEDBDF"/>
<path d="M47.8875 32.5063C47.7607 32.1397 47.5228 31.8217 47.207 31.5965C46.8911 31.3714 46.5129 31.2503 46.125 31.25H45.5V30H46.125C46.6218 29.9985 47.0979 29.8005 47.4492 29.4492C47.8005 29.0979 47.9985 28.6218 48 28.125V23.125C47.9985 22.6282 47.8005 22.1521 47.4492 21.8008C47.0979 21.4495 46.6218 21.2515 46.125 21.25H23.625C23.1282 21.2515 22.6521 21.4495 22.3008 21.8008C21.9495 22.1521 21.7515 22.6282 21.75 23.125V28.125C21.7515 28.6218 21.9495 29.0979 22.3008 29.4492C22.6521 29.8005 23.1282 29.9985 23.625 30H24.25V31.25H23.625C23.1282 31.2515 22.6521 31.4495 22.3008 31.8008C21.9495 32.1521 21.7515 32.6282 21.75 33.125V38.125C21.7515 38.6218 21.9495 39.0979 22.3008 39.4492C22.6521 39.8005 23.1282 39.9985 23.625 40H24.25V41.25H23.625C23.1282 41.2515 22.6521 41.4495 22.3008 41.8008C21.9495 42.1521 21.7515 42.6282 21.75 43.125V48.125C21.7515 48.6218 21.9495 49.0979 22.3008 49.4492C22.6521 49.8005 23.1282 49.9985 23.625 50H35.5V55C35.5 57.4625 41.475 58.75 47.375 58.75C53.275 58.75 59.25 57.4625 59.25 55V36.25C59.25 33.8562 53.6187 32.5813 47.8875 32.5063ZM23.625 28.75C23.4592 28.75 23.3003 28.6842 23.1831 28.5669C23.0658 28.4497 23 28.2908 23 28.125V23.125C23 22.9592 23.0658 22.8003 23.1831 22.6831C23.3003 22.5658 23.4592 22.5 23.625 22.5H46.125C46.2908 22.5 46.4497 22.5658 46.5669 22.6831C46.6842 22.8003 46.75 22.9592 46.75 23.125V28.125C46.75 28.2908 46.6842 28.4497 46.5669 28.5669C46.4497 28.6842 46.2908 28.75 46.125 28.75H23.625ZM44.25 30V31.25H41.75V30H44.25ZM40.5 30V31.25H29.25V30H40.5ZM28 30V31.25H25.5V30H28ZM35.5 48.75H23.625C23.4592 48.75 23.3003 48.6842 23.1831 48.5669C23.0658 48.4497 23 48.2908 23 48.125V43.125C23 42.9592 23.0658 42.8003 23.1831 42.6831C23.3003 42.5658 23.4592 42.5 23.625 42.5H35.5V48.75ZM25.5 41.25V40H28V41.25H25.5ZM35.5 41.25H29.25V40H35.5V41.25ZM35.5 36.25V38.75H23.625C23.4592 38.75 23.3003 38.6842 23.1831 38.5669C23.0658 38.4497 23 38.2908 23 38.125V33.125C23 32.9592 23.0658 32.8003 23.1831 32.6831C23.3003 32.5658 23.4592 32.5 23.625 32.5H46.125C46.1547 32.5032 46.184 32.5095 46.2125 32.5188C40.7125 32.675 35.5 33.95 35.5 36.25ZM58 55C58 55.85 54.25 57.5 47.375 57.5C40.5 57.5 36.75 55.85 36.75 55V50.5125C38.8062 51.8188 43.1 52.5 47.375 52.5C51.65 52.5 55.9437 51.8188 58 50.5125V55ZM58 48.75C58 49.6 54.25 51.25 47.375 51.25C40.5 51.25 36.75 49.6 36.75 48.75V44.2625C38.8062 45.5688 43.1 46.25 47.375 46.25C51.65 46.25 55.9437 45.5688 58 44.2625V48.75ZM58 42.5C58 43.35 54.25 45 47.375 45C40.5 45 36.75 43.35 36.75 42.5V38.0125C38.8062 39.3188 43.1 40 47.375 40C51.65 40 55.9437 39.3188 58 38.0125V42.5ZM47.375 38.75C40.5 38.75 36.75 37.1 36.75 36.25C36.75 35.4 40.5 33.75 47.375 33.75C54.25 33.75 58 35.4 58 36.25C58 37.1 54.25 38.75 47.375 38.75Z" fill="#0D3642"/>
<path d="M46.75 41.875H48V43.125H46.75V41.875ZM46.75 48.75H48V50H46.75V48.75ZM46.75 54.375H48V55.625H46.75V54.375ZM27.375 33.75H24.875C24.7092 33.75 24.5503 33.8158 24.4331 33.9331C24.3158 34.0503 24.25 34.2092 24.25 34.375V36.875C24.25 37.0408 24.3158 37.1997 24.4331 37.3169C24.5503 37.4342 24.7092 37.5 24.875 37.5H27.375C27.5408 37.5 27.6997 37.4342 27.8169 37.3169C27.9342 37.1997 28 37.0408 28 36.875V34.375C28 34.2092 27.9342 34.0503 27.8169 33.9331C27.6997 33.8158 27.5408 33.75 27.375 33.75ZM26.75 36.25H25.5V35H26.75V36.25ZM32.375 33.75H29.875C29.7092 33.75 29.5503 33.8158 29.4331 33.9331C29.3158 34.0503 29.25 34.2092 29.25 34.375V36.875C29.25 37.0408 29.3158 37.1997 29.4331 37.3169C29.5503 37.4342 29.7092 37.5 29.875 37.5H32.375C32.5408 37.5 32.6997 37.4342 32.8169 37.3169C32.9342 37.1997 33 37.0408 33 36.875V34.375C33 34.2092 32.9342 34.0503 32.8169 33.9331C32.6997 33.8158 32.5408 33.75 32.375 33.75ZM31.75 36.25H30.5V35H31.75V36.25ZM27.375 23.75H24.875C24.7092 23.75 24.5503 23.8158 24.4331 23.9331C24.3158 24.0503 24.25 24.2092 24.25 24.375V26.875C24.25 27.0408 24.3158 27.1997 24.4331 27.3169C24.5503 27.4342 24.7092 27.5 24.875 27.5H27.375C27.5408 27.5 27.6997 27.4342 27.8169 27.3169C27.9342 27.1997 28 27.0408 28 26.875V24.375C28 24.2092 27.9342 24.0503 27.8169 23.9331C27.6997 23.8158 27.5408 23.75 27.375 23.75ZM26.75 26.25H25.5V25H26.75V26.25ZM32.375 23.75H29.875C29.7092 23.75 29.5503 23.8158 29.4331 23.9331C29.3158 24.0503 29.25 24.2092 29.25 24.375V26.875C29.25 27.0408 29.3158 27.1997 29.4331 27.3169C29.5503 27.4342 29.7092 27.5 29.875 27.5H32.375C32.5408 27.5 32.6997 27.4342 32.8169 27.3169C32.9342 27.1997 33 27.0408 33 26.875V24.375C33 24.2092 32.9342 24.0503 32.8169 23.9331C32.6997 23.8158 32.5408 23.75 32.375 23.75ZM31.75 26.25H30.5V25H31.75V26.25ZM34.25 23.75H43V25H34.25V23.75ZM44.25 23.75H45.5V25H44.25V23.75ZM34.25 26.25H43V27.5H34.25V26.25ZM44.25 26.25H45.5V27.5H44.25V26.25ZM27.375 43.75H24.875C24.7092 43.75 24.5503 43.8158 24.4331 43.9331C24.3158 44.0503 24.25 44.2092 24.25 44.375V46.875C24.25 47.0408 24.3158 47.1997 24.4331 47.3169C24.5503 47.4342 24.7092 47.5 24.875 47.5H27.375C27.5408 47.5 27.6997 47.4342 27.8169 47.3169C27.9342 47.1997 28 47.0408 28 46.875V44.375C28 44.2092 27.9342 44.0503 27.8169 43.9331C27.6997 43.8158 27.5408 43.75 27.375 43.75ZM26.75 46.25H25.5V45H26.75V46.25ZM32.375 43.75H29.875C29.7092 43.75 29.5503 43.8158 29.4331 43.9331C29.3158 44.0503 29.25 44.2092 29.25 44.375V46.875C29.25 47.0408 29.3158 47.1997 29.4331 47.3169C29.5503 47.4342 29.7092 47.5 29.875 47.5H32.375C32.5408 47.5 32.6997 47.4342 32.8169 47.3169C32.9342 47.1997 33 47.0408 33 46.875V44.375C33 44.2092 32.9342 44.0503 32.8169 43.9331C32.6997 43.8158 32.5408 43.75 32.375 43.75ZM31.75 46.25H30.5V45H31.75V46.25Z" fill="#FB7A00"/>
</svg>
