<svg width="81" height="80" viewBox="0 0 81 80" fill="none" xmlns="http://www.w3.org/2000/svg">
<rect width="80" height="80" transform="translate(0.5)" fill="#CEDBDF"/>
<path d="M27.625 24.0588H32.0084V25.9341H27.625C26.9394 25.9341 26.375 26.498 26.375 27.1837V56.8709C26.375 57.5567 26.9392 58.1209 27.625 58.1209H52.9545C53.6403 58.1209 54.2044 57.5567 54.2044 56.8709V27.1837C54.2044 26.498 53.6403 25.9341 52.9545 25.9341H48.5709V24.0588H52.9545C54.6748 24.0588 56.0795 25.4634 56.0795 27.1837V56.8709C56.0795 58.5917 54.6753 59.9959 52.9545 59.9959H27.625C25.9042 59.9959 24.5 58.5917 24.5 56.8709V27.1837C24.5 25.4634 25.9047 24.0588 27.625 24.0588ZM33.2584 23.2812H37.0084C37.0084 21.4694 38.4778 20 40.2897 20C42.1019 20 43.5709 21.4694 43.5709 23.2812H47.3209V27.9688H33.2584V23.2812ZM38.8836 23.2812H41.6959C41.6959 22.5042 41.0667 21.875 40.2897 21.875C39.5128 21.875 38.8836 22.5042 38.8836 23.2812Z" fill="#0D3642"/>
<path d="M50.2497 47H31.5V48.25H50.2497V47Z" fill="#FB7A00"/>
<path d="M50.2497 50H31.5V51.25H50.2497V50Z" fill="#FB7A00"/>
<path d="M50.2497 53H31.5V54.25H50.2497V53Z" fill="#FB7A00"/>
<path d="M46.998 42V34.2402H48.1243V42H46.998Z" fill="#FB7A00"/>
<path d="M40.1333 42V34.2402H43.2695C43.345 34.2402 43.4384 34.2438 43.5498 34.251C43.6611 34.2546 43.7671 34.2654 43.8677 34.2833C44.2988 34.3516 44.658 34.4989 44.9454 34.7252C45.2364 34.9515 45.4538 35.2371 45.5975 35.582C45.7412 35.9269 45.813 36.3077 45.813 36.7244C45.813 37.1448 45.7412 37.5274 45.5975 37.8722C45.4538 38.2171 45.2364 38.5027 44.9454 38.729C44.658 38.9554 44.2988 39.1027 43.8677 39.1709C43.7671 39.1853 43.6593 39.1961 43.5444 39.2033C43.433 39.2104 43.3414 39.214 43.2695 39.214H41.2595V42H40.1333ZM41.2595 38.1471H43.2264C43.2983 38.1471 43.3773 38.1435 43.4635 38.1363C43.5533 38.1291 43.6378 38.1165 43.7168 38.0986C43.9467 38.0447 44.1317 37.9459 44.2718 37.8022C44.4119 37.6549 44.5125 37.486 44.5736 37.2956C44.6347 37.1052 44.6652 36.9148 44.6652 36.7244C44.6652 36.534 44.6347 36.3454 44.5736 36.1586C44.5125 35.9682 44.4119 35.8012 44.2718 35.6575C44.1317 35.5102 43.9467 35.4096 43.7168 35.3557C43.6378 35.3341 43.5533 35.3198 43.4635 35.3126C43.3773 35.3054 43.2983 35.3018 43.2264 35.3018H41.2595V38.1471Z" fill="#FB7A00"/>
<path d="M32.5 42L35.0219 34.2402H36.6439L39.1659 42H37.9965L35.674 34.9192H35.965L33.6694 42H32.5ZM33.8095 40.2487V39.1925H37.8618V40.2487H33.8095Z" fill="#FB7A00"/>
</svg>
