<svg width="81" height="80" viewBox="0 0 81 80" fill="none" xmlns="http://www.w3.org/2000/svg">
<rect width="80" height="80" transform="translate(0.5)" fill="#CEDBDF"/>
<path d="M42.375 41.0938H38.625V32.5H42.375V35.5308V41.0938Z" fill="#FB7A00"/>
<path d="M48.3125 27.8125H44.5625V41.0938H48.3125V27.8125Z" fill="#FB7A00"/>
<path d="M36.4375 37.1875H32.6875V41.0938H36.4375V37.1875Z" fill="#FB7A00"/>
<path d="M56.75 23.7497H43.7812C43.7812 23.232 43.3614 22.8122 42.8438 22.8122H41.4375V20.9375C41.4375 20.4198 41.0178 20 40.5 20C39.9822 20 39.5625 20.4198 39.5625 20.9375V22.8122H38.1562C37.6386 22.8122 37.2188 23.232 37.2188 23.7497H24.25C23.7323 23.7497 23.3125 24.1695 23.3125 24.6872V44.2188C23.3125 44.7366 23.7327 45.1562 24.25 45.1562H32.2188C32.2188 45.6747 32.6386 46.1792 33.1562 46.1792H33.4659L30.238 58.8208C30.1045 59.3203 30.4013 59.8336 30.9006 59.967C31.4002 60.1005 31.9134 59.8037 32.047 59.3042L35.4045 46.1792H39.5625V59.0625C39.5625 59.5803 39.9822 60 40.5 60C41.0178 60 41.4375 59.5803 41.4375 59.0625V46.1792H45.5953L48.9528 59.3042C49.0863 59.8037 49.5997 60.1005 50.0992 59.967C50.5986 59.8336 50.8955 59.3203 50.7619 58.8208L47.5338 46.1792H48.203C48.7206 46.1792 49.1405 45.6747 49.1405 45.1562H56.75C57.2675 45.1562 57.6875 44.7362 57.6875 44.2188V24.6872C57.6875 24.1698 57.2677 23.7497 56.75 23.7497ZM55.8125 43.2812C48.7364 43.2812 32.1706 43.2812 25.1875 43.2812V25.625H55.8125" fill="#0D3642"/>
</svg>
