<svg width="81" height="80" viewBox="0 0 81 80" fill="none" xmlns="http://www.w3.org/2000/svg">
<rect width="80" height="80" transform="translate(0.5)" fill="#CEDBDF"/>
<path fill-rule="evenodd" clip-rule="evenodd" d="M32.7822 40.6138C32.6783 41.0029 32.4613 41.3523 32.1587 41.618C31.8561 41.8837 31.4815 42.0537 31.0823 42.1064C30.6831 42.1591 30.2773 42.0923 29.9161 41.9143C29.5549 41.7363 29.2546 41.4551 29.0532 41.1064C28.8519 40.7577 28.7585 40.3571 28.7848 39.9553C28.8112 39.5535 28.9562 39.1685 29.2014 38.8491C29.4466 38.5298 29.7811 38.2903 30.1624 38.161C30.5438 38.0318 30.9549 38.0185 31.3438 38.123C31.8645 38.2631 32.3083 38.6041 32.578 39.071C32.8476 39.538 32.921 40.0928 32.7822 40.6138ZM31.6673 36.9156C30.9336 36.719 30.1543 36.783 29.4624 37.0965C28.7705 37.41 28.2087 37.9538 27.8727 38.6351C27.5368 39.3164 27.4474 40.0931 27.6199 40.8329C27.7925 41.5727 28.2162 42.2298 28.8188 42.6922C29.4215 43.1546 30.1659 43.3938 30.9251 43.3689C31.6844 43.344 32.4115 43.0567 32.9826 42.5558C33.5537 42.0549 33.9335 41.3715 34.0572 40.622C34.1809 39.8725 34.0409 39.1033 33.6611 38.4454C33.2253 37.6916 32.5082 37.1415 31.6673 36.9156ZM36.575 42.0149L36.767 41.2974L35.9648 40.9425C35.8489 40.8912 35.7513 40.806 35.6848 40.698C35.6184 40.59 35.5864 40.4644 35.5929 40.3378C35.6245 39.7528 35.5471 39.167 35.3648 38.6102C35.3256 38.4896 35.3239 38.3599 35.36 38.2383C35.3962 38.1168 35.4684 38.009 35.5672 37.9295L36.2515 37.3789L35.8804 36.7355L35.0611 37.0527C34.9428 37.0986 34.8134 37.1074 34.6899 37.0779C34.5665 37.0484 34.455 36.9821 34.3702 36.8877C33.9793 36.4514 33.5107 36.0916 32.9883 35.8267C32.8753 35.7691 32.7825 35.6785 32.7221 35.5671C32.6617 35.4557 32.6365 35.3285 32.6499 35.2024L32.7447 34.3298L32.0273 34.1374L31.6726 34.9401C31.6211 35.056 31.5357 35.1535 31.4277 35.2198C31.3196 35.2862 31.194 35.3182 31.0674 35.3116C30.4824 35.28 29.8965 35.3574 29.3397 35.5397C29.2192 35.5789 29.0896 35.5806 28.9681 35.5445C28.8466 35.5083 28.7389 35.4361 28.6594 35.3374L28.1085 34.653L27.4654 35.0241L27.7827 35.8437C27.8287 35.9619 27.8375 36.0913 27.8079 36.2147C27.7784 36.338 27.7119 36.4494 27.6173 36.5339C27.1816 36.9254 26.8219 37.3939 26.5563 37.9159C26.499 38.029 26.4085 38.1221 26.297 38.1825C26.1854 38.243 26.0581 38.268 25.932 38.2542L25.0594 38.1599L24.8673 38.8776L25.6704 39.232C25.7863 39.2834 25.8839 39.3687 25.9502 39.4768C26.0165 39.5849 26.0483 39.7106 26.0415 39.8372C26.0099 40.4223 26.0872 41.0082 26.2695 41.5651C26.3087 41.6857 26.3104 41.8153 26.2743 41.9369C26.2381 42.0584 26.1659 42.1661 26.0672 42.2457L25.3829 42.7963L25.7547 43.4394L26.5732 43.122C26.6915 43.0762 26.8209 43.0675 26.9443 43.0969C27.0677 43.1263 27.1793 43.1925 27.2642 43.2868C27.6551 43.7232 28.1237 44.0832 28.6462 44.3485C28.7592 44.406 28.8521 44.4965 28.9126 44.608C28.973 44.7195 28.998 44.8467 28.9844 44.9728L28.8897 45.8455L29.6069 46.0374L29.9618 45.2348C30.0129 45.1187 30.0982 45.0209 30.2063 44.9546C30.3144 44.8883 30.4402 44.8566 30.5669 44.8637C31.1519 44.8949 31.7377 44.8175 32.2945 44.6352C32.4151 44.5959 32.5447 44.5942 32.6663 44.6304C32.7878 44.6666 32.8954 44.739 32.9748 44.8379L33.5258 45.5223L34.1696 45.1501L33.8523 44.3315C33.8066 44.2132 33.7978 44.0839 33.8272 43.9605C33.8567 43.8372 33.9229 43.7257 34.0171 43.6409C34.4533 43.2499 34.813 42.7813 35.078 42.2589C35.1356 42.1459 35.2261 42.0531 35.3375 41.9927C35.449 41.9323 35.5762 41.9071 35.7023 41.9206L36.575 42.0149ZM37.7625 40.3706L36.8493 39.9667C36.8408 39.5204 36.7821 39.0764 36.6742 38.6433L37.4526 38.0168C37.5685 37.9232 37.6473 37.7912 37.6746 37.6447C37.702 37.4982 37.6761 37.3467 37.6018 37.2175L36.6955 35.6472C36.6211 35.5179 36.5028 35.4196 36.3622 35.37C36.2215 35.3204 36.0677 35.3228 35.9286 35.3767L34.9961 35.7375C34.6748 35.4277 34.3197 35.155 33.9375 34.9245L34.0444 33.9313C34.0606 33.783 34.0232 33.6339 33.939 33.5109C33.8548 33.3878 33.7293 33.299 33.5852 33.2606L31.8336 32.7918C31.6896 32.7532 31.5365 32.7674 31.4021 32.8317C31.2676 32.896 31.1605 33.0063 31.1002 33.1427L30.6967 34.0563C30.2504 34.0649 29.8065 34.1236 29.3733 34.2313L28.7468 33.4526C28.6531 33.3365 28.521 33.2576 28.3743 33.2303C28.2277 33.2029 28.076 33.2288 27.9468 33.3034L26.3765 34.2096C26.2475 34.2843 26.1494 34.4026 26.0999 34.5432C26.0503 34.6838 26.0526 34.8374 26.1063 34.9765L26.4671 35.9085C26.1577 36.2301 25.8851 36.5852 25.6546 36.9673L24.6611 36.86C24.5129 36.8439 24.3638 36.8815 24.2408 36.9658C24.1179 37.0501 24.0291 37.1756 23.9907 37.3196L23.5212 39.0712C23.4827 39.2153 23.4969 39.3684 23.5614 39.5029C23.6259 39.6374 23.7363 39.7444 23.8728 39.8045L24.7859 40.2081C24.7944 40.6543 24.8529 41.0982 24.9602 41.5314L24.1819 42.1579C24.0659 42.2517 23.9872 42.3838 23.9599 42.5305C23.9326 42.6771 23.9585 42.8287 24.033 42.958L24.94 44.5283C25.0144 44.6574 25.1326 44.7555 25.2731 44.8051C25.4136 44.8546 25.5672 44.8523 25.7062 44.7985L26.6385 44.4376C26.96 44.7469 27.315 45.0194 27.6969 45.2501L27.5898 46.2438C27.5738 46.3919 27.6112 46.5409 27.6955 46.6639C27.7797 46.7868 27.9051 46.8755 28.049 46.9141L29.8006 47.3836C29.8534 47.3975 29.9078 47.4047 29.9624 47.405C30.0836 47.4051 30.2022 47.3699 30.3038 47.3037C30.4053 47.2374 30.4853 47.143 30.534 47.032L30.9383 46.1188C31.3845 46.1101 31.8284 46.0518 32.2617 45.9449L32.8882 46.7228C32.9817 46.839 33.1137 46.9179 33.2603 46.9453C33.4069 46.9726 33.5584 46.9467 33.6876 46.8721L35.2579 45.9652C35.3869 45.8906 35.485 45.7724 35.5346 45.6318C35.5841 45.4912 35.5818 45.3376 35.528 45.1986L35.1672 44.2667C35.4771 43.9452 35.7499 43.5901 35.9805 43.2078L36.9733 43.3151C37.1216 43.3309 37.2706 43.2933 37.3936 43.209C37.5166 43.1248 37.6055 42.9995 37.6444 42.8556L38.1132 41.1039C38.1517 40.9599 38.1375 40.8069 38.0732 40.6725C38.0088 40.538 37.8987 40.431 37.7625 40.3706Z" fill="#FB7A00"/>
<path fill-rule="evenodd" clip-rule="evenodd" d="M59.25 34.5073L57.4955 34.7808C57.3701 34.8002 57.2537 34.8574 57.1616 34.9446C57.0695 35.0318 57.0061 35.145 56.9798 35.2691C56.7721 36.2545 56.3829 37.1928 55.8322 38.036C55.7632 38.1424 55.7281 38.2672 55.7316 38.3939C55.735 38.5207 55.777 38.6434 55.8517 38.7458L56.9002 40.1805L55.5602 41.5208L54.1259 40.472C54.0234 40.3972 53.9007 40.3553 53.7738 40.3519C53.647 40.3485 53.5222 40.3837 53.4158 40.4528C52.5722 41.0031 51.6339 41.392 50.6484 41.5999C50.5244 41.6261 50.4112 41.6894 50.324 41.7815C50.2368 41.8735 50.1796 41.9899 50.1601 42.1152L49.8874 43.8701H47.9922L47.7197 42.1148C47.7001 41.9895 47.6429 41.8731 47.5557 41.781C47.4685 41.689 47.3554 41.6255 47.2313 41.5991C46.2459 41.3914 45.3076 41.0025 44.4641 40.4523C44.3579 40.3831 44.2332 40.3479 44.1064 40.3513C43.9797 40.3547 43.857 40.3966 43.7547 40.4715L42.3197 41.5203L40.9798 40.18L42.0282 38.7453C42.1031 38.643 42.1451 38.5203 42.1484 38.3935C42.1518 38.2668 42.1164 38.142 42.047 38.0359C41.4967 37.1922 41.1078 36.2538 40.9001 35.2683C40.8738 35.1442 40.8104 35.0311 40.7183 34.944C40.6262 34.8568 40.5098 34.7997 40.3845 34.7803L38.6296 34.5069V32.6124L40.3845 32.339C40.5098 32.3195 40.6262 32.2624 40.7183 32.1752C40.8104 32.088 40.8738 31.9748 40.9001 31.8507C41.1078 30.8652 41.497 29.927 42.0477 29.0838C42.1169 28.9775 42.152 28.8527 42.1485 28.7259C42.1451 28.5991 42.1031 28.4764 42.0282 28.3741L40.9798 26.939L42.3197 25.5991L43.754 26.6476C43.8564 26.7225 43.9792 26.7644 44.106 26.7679C44.2329 26.7714 44.3578 26.7363 44.4641 26.6671C45.3076 26.1168 46.2459 25.7278 47.2313 25.5199C47.3554 25.4936 47.4685 25.4302 47.5557 25.3381C47.6429 25.246 47.7001 25.1296 47.7197 25.0043L47.9922 23.2497H49.8875L50.1602 25.0046C50.1797 25.1299 50.2368 25.2464 50.324 25.3385C50.4113 25.4306 50.5244 25.494 50.6485 25.5202C51.6339 25.7281 52.5722 26.1171 53.4157 26.6674C53.522 26.7366 53.6467 26.7717 53.7735 26.7682C53.9002 26.7648 54.0229 26.7228 54.1252 26.6479L55.56 25.5991L56.9 26.9393L55.8516 28.374C55.7767 28.4764 55.7348 28.5992 55.7315 28.7259C55.7281 28.8527 55.7635 28.9775 55.8328 29.0838C56.383 29.9273 56.7719 30.8656 56.9797 31.851C57.0059 31.9751 57.0693 32.0883 57.1614 32.1755C57.2535 32.2627 57.37 32.3198 57.4953 32.3393L59.25 32.6124V34.5073ZM51.6123 48.3528V42.6444C51.5186 42.6716 51.4248 42.6981 51.3305 42.7232L51.0408 44.5913C51.0175 44.7386 50.9425 44.8727 50.8292 44.9696C50.716 45.0665 50.5719 45.1199 50.4228 45.1202H47.4573C47.3081 45.1201 47.1639 45.0668 47.0506 44.9699C46.9373 44.8729 46.8623 44.7387 46.8392 44.5913L46.5485 42.7226C45.7076 42.504 44.9012 42.1697 44.1523 41.7291L42.625 42.8452C42.5047 42.9334 42.3568 42.9755 42.208 42.964C42.0593 42.9526 41.9196 42.8883 41.8142 42.7827L39.7173 40.6858C39.612 40.5802 39.5477 40.4406 39.5361 40.2919C39.5245 40.1433 39.5662 39.9953 39.6539 39.8747L40.7705 38.3479C40.3295 37.5989 39.9949 36.792 39.7765 35.9507L37.9084 35.6603C37.7611 35.6375 37.6269 35.5627 37.5299 35.4495C37.4329 35.3363 37.3796 35.1922 37.3796 35.0431V32.077C37.3796 31.9278 37.4329 31.7836 37.5299 31.6704C37.6268 31.5571 37.7611 31.4822 37.9084 31.4593L39.7772 31.1689C39.8289 30.9692 39.8872 30.7716 39.9523 30.5763H22.6928C22.4428 30.5767 22.2031 30.6763 22.0264 30.8531C21.8497 31.03 21.7503 31.2697 21.75 31.5197V48.3528H51.6123ZM50.6697 51.602H22.6928C22.4428 51.6017 22.2032 51.5022 22.0264 51.3254C21.8497 51.1486 21.7503 50.909 21.75 50.659V49.6028H51.6123V50.659C51.6121 50.909 51.5127 51.1486 51.336 51.3254C51.1593 51.5022 50.9197 51.6017 50.6697 51.602ZM38.1172 54.3991H35.2451V52.8523H38.1172V54.3991ZM41.5964 55.9709C41.5951 56.0559 41.5608 56.137 41.5006 56.1969C41.4404 56.2569 41.3592 56.291 41.2743 56.292H32.0884C32.0457 56.2926 32.0034 56.2848 31.9638 56.2689C31.9243 56.2531 31.8882 56.2295 31.8579 56.1996C31.8275 56.1697 31.8034 56.1341 31.7869 56.0947C31.7704 56.0554 31.7619 56.0132 31.7619 55.9706C31.7619 55.928 31.7704 55.8858 31.7869 55.8464C31.8034 55.8071 31.8275 55.7715 31.8579 55.7416C31.8882 55.7116 31.9243 55.6881 31.9638 55.6722C32.0034 55.6564 32.0457 55.6486 32.0884 55.6492H41.2741C41.3592 55.6502 41.4405 55.6844 41.5007 55.7445C41.5609 55.8046 41.5953 55.8859 41.5964 55.9709ZM59.9714 31.4593L58.1034 31.1689C57.8846 30.3278 57.5501 29.5211 57.1095 28.772L58.2253 27.2448C58.3133 27.1245 58.3554 26.9766 58.344 26.8279C58.3325 26.6792 58.2682 26.5395 58.1628 26.4341L56.0656 24.3368C55.9601 24.2315 55.8204 24.1673 55.6718 24.1558C55.5231 24.1443 55.3753 24.1864 55.2548 24.2743L53.7273 25.3905C52.9783 24.9497 52.1716 24.6153 51.3305 24.3969L51.0408 22.5288C51.0176 22.3815 50.9427 22.2473 50.8294 22.1504C50.7161 22.0534 50.5719 22.0001 50.4228 22H47.4573C47.3081 21.9999 47.1638 22.0531 47.0504 22.1501C46.9371 22.2471 46.8622 22.3814 46.8392 22.5288L46.5485 24.3973C45.7076 24.6157 44.9012 24.95 44.1523 25.3905L42.625 24.2741C42.5046 24.1861 42.3567 24.144 42.2081 24.1555C42.0594 24.167 41.9197 24.2312 41.8142 24.3366L39.7172 26.4341C39.6118 26.5395 39.5476 26.6791 39.536 26.8278C39.5243 26.9764 39.5661 27.1243 39.6537 27.2448L40.7704 28.772C40.6639 28.9543 40.5637 29.1391 40.4697 29.3263H22.6928C22.1113 29.3269 21.5539 29.5582 21.1428 29.9695C20.7317 30.3807 20.5005 30.9382 20.5 31.5197V50.659C20.5006 51.2404 20.7318 51.7978 21.1429 52.209C21.5539 52.6201 22.1113 52.8514 22.6927 52.8521H33.9955V54.399H32.0884C31.6716 54.399 31.2719 54.5645 30.9772 54.8592C30.6825 55.1539 30.517 55.5536 30.517 55.9704C30.517 56.3872 30.6825 56.7868 30.9772 57.0815C31.2719 57.3762 31.6716 57.5418 32.0884 57.5418H41.2741C41.6909 57.5418 42.0906 57.3762 42.3853 57.0815C42.68 56.7868 42.8455 56.3872 42.8455 55.9704C42.8455 55.5536 42.68 55.1539 42.3853 54.8592C42.0906 54.5645 41.6909 54.399 41.2741 54.399H39.3672V52.8521H50.6697C51.2511 52.8514 51.8085 52.6201 52.2196 52.209C52.6306 51.7978 52.8618 51.2404 52.8624 50.659V42.1793C53.1584 42.0444 53.4471 41.8941 53.7273 41.729L55.2548 42.8452C55.3752 42.9334 55.5231 42.9755 55.6718 42.964C55.8205 42.9526 55.9602 42.8883 56.0656 42.7827L58.1625 40.6858C58.268 40.5803 58.3323 40.4406 58.3438 40.2918C58.3552 40.143 58.3131 39.9951 58.225 39.8747L57.1094 38.3473C57.5497 37.5983 57.8839 36.7917 58.1025 35.9507L59.9712 35.6599C60.1186 35.6371 60.2529 35.5624 60.3499 35.4492C60.4469 35.336 60.5001 35.1918 60.5001 35.0427V32.077C60.5001 31.9278 60.4468 31.7836 60.3498 31.6704C60.2529 31.5571 60.1187 31.4822 59.9714 31.4593Z" fill="#0D3642"/>
<path fill-rule="evenodd" clip-rule="evenodd" d="M50.7371 31.0556L48.827 36.3026C48.7832 36.4231 48.7034 36.5272 48.5983 36.6008C48.4933 36.6744 48.3682 36.7139 48.24 36.7139C48.167 36.7139 48.0945 36.7012 48.0259 36.6764C47.8702 36.6195 47.7435 36.5032 47.6735 36.3529C47.6035 36.2027 47.596 36.0309 47.6526 35.8751L49.5619 30.6281C49.6186 30.4722 49.7348 30.3453 49.8851 30.2752C50.0354 30.2051 50.2074 30.1975 50.3632 30.2542C50.5191 30.3109 50.646 30.4272 50.7161 30.5775C50.7863 30.7278 50.7938 30.8997 50.7371 31.0556ZM51.72 31.2929C51.6028 31.1756 51.4439 31.1097 51.2781 31.1096C51.1123 31.1095 50.9533 31.1753 50.836 31.2925C50.7187 31.4097 50.6528 31.5686 50.6527 31.7344C50.6526 31.9002 50.7184 32.0592 50.8355 32.1765L52.1246 33.4649L50.8355 34.7539C50.7183 34.8712 50.6525 35.0303 50.6525 35.1961C50.6525 35.362 50.7184 35.521 50.8357 35.6382C50.953 35.7555 51.112 35.8213 51.2779 35.8213C51.4437 35.8213 51.6028 35.7554 51.72 35.6381L53.4503 33.9072C53.5675 33.79 53.6333 33.6311 53.6333 33.4654C53.6333 33.2997 53.5675 33.1408 53.4503 33.0236L51.72 31.2929ZM47.5534 35.6379C47.6116 35.5799 47.6578 35.511 47.6893 35.4351C47.7207 35.3592 47.737 35.2779 47.737 35.1958C47.737 35.1136 47.7207 35.0323 47.6893 34.9565C47.6578 34.8806 47.6116 34.8117 47.5534 34.7537L46.2651 33.4646L47.5534 32.1765C47.6131 32.1189 47.6607 32.0499 47.6935 31.9737C47.7263 31.8974 47.7435 31.8154 47.7442 31.7324C47.7449 31.6494 47.7291 31.5671 47.6977 31.4903C47.6663 31.4135 47.6199 31.3437 47.5612 31.285C47.5025 31.2263 47.4327 31.1799 47.3559 31.1485C47.2791 31.1171 47.1968 31.1013 47.1138 31.102C47.0308 31.1027 46.9488 31.12 46.8726 31.1527C46.7963 31.1855 46.7273 31.2331 46.6697 31.2928L44.9395 33.0234C44.8224 33.1406 44.7566 33.2995 44.7566 33.4652C44.7566 33.6309 44.8224 33.7899 44.9395 33.9071L46.6697 35.6377C46.7869 35.7549 46.9458 35.8207 47.1116 35.8207C47.2773 35.8207 47.4362 35.755 47.5534 35.6379ZM49.1948 38.4099C50.1728 38.4099 51.1288 38.1199 51.942 37.5766C52.7552 37.0333 53.389 36.2611 53.7632 35.3576C54.1375 34.4541 54.2355 33.4599 54.0447 32.5007C53.8539 31.5415 53.383 30.6604 52.6915 29.9689C52 29.2773 51.119 28.8064 50.1598 28.6155C49.2006 28.4247 48.2064 28.5226 47.3029 28.8968C46.3994 29.2711 45.6271 29.9048 45.0837 30.7179C44.5404 31.5311 44.2503 32.4871 44.2503 33.465C44.2517 34.776 44.773 36.0329 45.7 36.96C46.627 37.887 47.8839 38.4084 49.1948 38.4099ZM49.1948 27.2705C47.9696 27.2705 46.7719 27.6338 45.7532 28.3144C44.7345 28.9951 43.9405 29.9626 43.4716 31.0945C43.0027 32.2265 42.88 33.472 43.119 34.6737C43.358 35.8753 43.948 36.9791 44.8144 37.8455C45.6807 38.7119 46.7845 39.3018 47.9862 39.5409C49.1879 39.7799 50.4334 39.6572 51.5654 39.1883C52.6973 38.7194 53.6648 37.9254 54.3454 36.9067C55.0261 35.8879 55.3894 34.6902 55.3894 33.465C55.3875 31.8227 54.7343 30.2482 53.573 29.0868C52.4117 27.9255 50.8372 27.2724 49.1948 27.2705Z" fill="#FB7A00"/>
</svg>
