<svg width="81" height="80" viewBox="0 0 81 80" fill="none" xmlns="http://www.w3.org/2000/svg">
<rect width="80" height="80" transform="translate(0.5)" fill="#CEDBDF"/>
<path fill-rule="evenodd" clip-rule="evenodd" d="M25.8612 58.1244C24.4604 58.1244 23.3184 56.982 23.3184 55.5814V22.543C23.3182 21.1422 24.4604 20 25.8612 20C34.2696 20 42.6784 20 51.0868 20C52.4876 20 53.6298 21.1422 53.6298 22.543V46.3077L53.5568 46.2978C53.0196 46.2258 52.4404 46.1689 51.864 46.1522C51.828 46.003 51.7904 45.8541 51.7516 45.7055V24.3973C51.748 24.1273 51.5226 23.9044 51.2524 23.9044C42.7335 23.9044 34.2143 23.9044 25.6954 23.9044C25.4252 23.9044 25.1998 24.1275 25.196 24.3973V53.253C25.196 53.5256 25.423 53.7523 25.6954 53.7523H43.6246C44.1926 54.3167 44.6354 54.9283 45.0359 55.6586C45.4885 56.4834 45.8445 57.3444 46.3788 58.1244H25.8612ZM38.562 55.1813C38.1226 55.1813 37.7663 55.5377 37.7663 55.977C37.7663 56.4166 38.1226 56.7728 38.562 56.7728C39.0015 56.7728 39.3577 56.4166 39.3577 55.977C39.3577 55.5377 39.0013 55.1813 38.562 55.1813Z" fill="#0D3642"/>
<path fill-rule="evenodd" clip-rule="evenodd" d="M29.168 39.3892H47.9177V40.6392H29.168V39.3892ZM29.168 42.671H45.8346V43.921H29.168V42.671Z" fill="#FB7A00"/>
<path fill-rule="evenodd" clip-rule="evenodd" d="M29.168 32.6665H47.9177V33.9165H29.168V32.6665ZM29.168 35.9484H47.9177V37.1984H29.168V35.9484Z" fill="#FB7A00"/>
<path fill-rule="evenodd" clip-rule="evenodd" d="M46.3913 43.0199C45.9593 41.2653 48.646 40.5613 49.1308 42.302C49.6143 44.0378 50.318 46.0294 50.5997 47.765C52.5616 47.5031 56.6033 48.2663 56.8918 49.0581C57.9055 51.8395 57.8524 55.4814 57.2535 57.7428C57.3077 58.6633 57.3626 59.1703 57.4008 60H49.0772C49.0096 59.328 48.9644 58.7841 48.921 58.4739C46.7421 57.0734 47.0954 54.647 44.1993 52.1575C43.6057 51.6895 43.5013 50.8255 43.9663 50.228C44.4315 49.6303 45.2901 49.5253 45.8837 49.9933C46.7874 50.7061 47.4532 51.382 48.0213 52.0869C47.961 51.5034 47.8926 50.9217 47.8154 50.3402C47.5212 48.128 46.9487 45.2842 46.3913 43.0199Z" fill="#0D3642"/>
</svg>
