<svg width="81" height="80" viewBox="0 0 81 80" fill="none" xmlns="http://www.w3.org/2000/svg">
<rect width="80" height="80" transform="translate(0.5)" fill="#CEDBDF"/>
<g clip-path="url(#clip0_3118_2979)">
<path d="M38.7289 53.2813C38.1131 53.2813 38.1131 52.3447 38.7289 52.3447H42.2657C42.8815 52.3447 42.8815 53.2813 42.2657 53.2813H38.7289ZM40.5129 26.8749C38.3157 26.8749 42.6415 26.8749 40.5129 26.8749V26.8749ZM22.9398 53.2212C28.6318 53.8366 34.4857 54.069 40.3401 54.0732C46.2993 54.0777 52.2609 53.8446 58.0546 53.2212C58.8253 53.1385 58.7878 51.8735 58.1535 51.8735L22.8409 51.8729C22.2067 51.8729 22.1684 53.1379 22.9398 53.2212ZM40.4878 55.9324C34.5334 55.9324 28.5646 55.7101 22.742 55.0816C19.6287 54.7457 19.8478 50.0851 22.841 50.0118L23.4739 49.9962C23.3823 49.7279 23.3171 49.4249 23.3171 49.1262L23.3015 27.2752C23.3006 25.8232 24.4748 24.7662 25.8662 24.6265C30.0809 24.2026 35.2881 24.0679 40.4962 24.0679C45.7153 24.0679 50.9359 24.204 55.1584 24.6265C56.5528 24.7662 57.7254 25.823 57.7231 27.2752L57.6839 49.1262C57.6835 49.4237 57.6196 49.728 57.5281 49.9962C58.6843 49.9962 59.654 50.0694 60.24 51.3118C60.9387 52.7933 60.2162 54.8697 58.2525 55.0816C52.4234 55.7102 46.4487 55.9324 40.4878 55.9324ZM40.4948 25.9272C35.3167 25.9272 30.1587 26.0726 26.0492 26.4866C25.6126 26.5305 25.1765 26.809 25.1765 27.2752V49.1262C25.1765 49.5526 25.5289 50.0018 25.9578 50.0018H55.0668C55.4957 50.0018 55.814 49.5547 55.8148 49.1262L55.8481 27.2752C55.8487 26.8065 55.4031 26.5296 54.9753 26.4866C50.8562 26.0735 45.6846 25.9272 40.4948 25.9272Z" fill="#0D3642"/>
<path d="M26.5986 28.7505L26.5898 48.7513L54.5536 48.7522V28.7513L26.5986 28.7505ZM53.3037 47.5022H27.84V31.5675L53.3048 31.5685L53.3037 47.5022Z" fill="#0D3642"/>
<path d="M40.5 26.7217C40.8452 26.7217 41.125 27.0014 41.125 27.3465C41.125 27.6918 40.8452 27.9715 40.5 27.9715C40.1547 27.9715 39.875 27.6918 39.875 27.3465C39.875 27.0014 40.1547 26.7217 40.5 26.7217Z" fill="#0D3642"/>
<g clip-path="url(#clip1_3118_2979)">
<path d="M42.6041 34.6041C42.6041 35.1621 42.3824 35.6973 41.9878 36.0919C41.5932 36.4864 41.058 36.7081 40.4999 36.7081C40.2236 36.7081 39.95 36.6537 39.6947 36.548C39.4394 36.4422 39.2074 36.2872 39.0121 36.0919C38.6174 35.6973 38.3958 35.1621 38.3958 34.6041C38.3958 34.046 38.6174 33.5109 39.0121 33.1163C39.4067 32.7217 39.9419 32.5 40.4999 32.5C41.058 32.5 41.5932 32.7217 41.9878 33.1163C42.3824 33.5109 42.6041 34.046 42.6041 34.6041ZM42.2668 34.6038C42.2668 34.1353 42.0807 33.6859 41.7494 33.3547C41.4181 33.0234 40.9688 32.8373 40.5002 32.8373C40.0317 32.8373 39.5824 33.0234 39.2511 33.3547C38.9197 33.6859 38.7336 34.1353 38.7336 34.6038C38.7336 34.8357 38.7793 35.0655 38.8681 35.2798C38.9569 35.4941 39.087 35.6888 39.2511 35.8529C39.5824 36.1842 40.0317 36.3703 40.5002 36.3703C40.7322 36.3703 40.9619 36.3246 41.1763 36.2358C41.3906 36.147 41.5854 36.0169 41.7494 35.8529C41.9134 35.6888 42.0436 35.4941 42.1323 35.2798C42.2211 35.0655 42.2668 34.8357 42.2668 34.6038Z" fill="#FB7A00"/>
<path d="M41.3458 34.6369C41.3443 33.9896 40.7464 33.6038 40.1443 33.8375C40.1345 33.8413 40.1263 33.8485 40.1214 33.8578C40.1165 33.8671 40.115 33.8779 40.1174 33.8881L40.1423 33.9931C40.1456 34.0073 40.1401 34.0161 40.1259 34.0194L39.5283 34.1622C39.5262 34.1627 39.524 34.1627 39.5219 34.1621C39.5198 34.1615 39.5179 34.1604 39.5164 34.1589C39.5149 34.1573 39.5137 34.1554 39.5132 34.1534C39.5126 34.1513 39.5125 34.1491 39.5131 34.147L39.6549 33.5491C39.6583 33.5352 39.6668 33.5299 39.6807 33.533L39.8881 33.5812C39.8978 33.5836 39.9071 33.5825 39.9159 33.578C40.7572 33.1495 41.6597 33.6985 41.6854 34.6323C41.6855 34.6362 41.6841 34.64 41.6816 34.6429C41.679 34.6458 41.6755 34.6477 41.6716 34.648L41.3891 34.6761C41.3836 34.6767 41.3781 34.6761 41.3729 34.6744C41.3677 34.6727 41.3629 34.6699 41.3588 34.6662C41.3547 34.6625 41.3514 34.658 41.3492 34.653C41.3469 34.6479 41.3458 34.6425 41.3458 34.6369Z" fill="#FB7A00"/>
<path d="M40.9188 35.3153L40.8869 35.1766C40.8849 35.1686 40.8881 35.1637 40.8962 35.1617L41.5024 35.0163C41.5045 35.0158 41.5067 35.0159 41.5088 35.0164C41.5108 35.017 41.5127 35.0181 41.5143 35.0197C41.5158 35.0212 41.5169 35.0231 41.5175 35.0252C41.5181 35.0272 41.5181 35.0294 41.5176 35.0315L41.3737 35.6359C41.3715 35.6454 41.3656 35.649 41.3558 35.6467L41.1531 35.5987C41.145 35.5967 41.1364 35.5979 41.1291 35.6022C40.3217 36.0747 39.3997 35.5639 39.3163 34.6489C39.3153 34.6382 39.3201 34.6321 39.3306 34.6305L39.6226 34.5828C39.6259 34.5823 39.6293 34.5825 39.6326 34.5833C39.6359 34.5841 39.6389 34.5857 39.6416 34.5877C39.6443 34.5898 39.6465 34.5925 39.6481 34.5954C39.6497 34.5984 39.6507 34.6017 39.6509 34.6051C39.7051 35.2568 40.3156 35.645 40.9068 35.3413C40.9114 35.3389 40.9151 35.335 40.9172 35.3303C40.9194 35.3256 40.9199 35.3203 40.9188 35.3153Z" fill="#FB7A00"/>
<path d="M42.4374 41.3255C42.4374 41.3275 42.437 41.3295 42.4362 41.3313C42.4355 41.3332 42.4343 41.3349 42.4329 41.3363C42.4315 41.3377 42.4298 41.3388 42.4279 41.3396C42.4261 41.3404 42.4241 41.3408 42.4221 41.3408H38.5405C38.5384 41.3408 38.5365 41.3404 38.5346 41.3396C38.5327 41.3388 38.5311 41.3377 38.5296 41.3363C38.5282 41.3349 38.5271 41.3332 38.5263 41.3313C38.5255 41.3295 38.5251 41.3275 38.5251 41.3255V37.444C38.5251 37.442 38.5255 37.44 38.5263 37.4382C38.5271 37.4363 38.5282 37.4346 38.5296 37.4332C38.5311 37.4318 38.5327 37.4306 38.5346 37.4299C38.5365 37.4291 38.5384 37.4287 38.5405 37.4287H42.4221C42.4241 37.4287 42.4261 37.4291 42.4279 37.4299C42.4298 37.4306 42.4315 37.4318 42.4329 37.4332C42.4343 37.4346 42.4355 37.4363 42.4362 37.4382C42.437 37.44 42.4374 37.442 42.4374 37.444V41.3255ZM40.2546 38.4067C40.2499 38.4067 40.2453 38.4048 40.242 38.4015C40.2386 38.3981 40.2368 38.3936 40.2368 38.3889V37.936C40.2368 37.9337 40.2363 37.9313 40.2354 37.9292C40.2345 37.927 40.2332 37.925 40.2315 37.9234C40.2299 37.9217 40.2279 37.9204 40.2257 37.9195C40.2236 37.9186 40.2212 37.9181 40.2189 37.9181L39.032 37.9164C39.0273 37.9164 39.0228 37.9183 39.0194 37.9217C39.0161 37.925 39.0142 37.9296 39.0142 37.9343V40.8343C39.0142 40.8391 39.0161 40.8436 39.0194 40.847C39.0228 40.8503 39.0273 40.8522 39.032 40.8522L41.9305 40.8513C41.9352 40.8513 41.9398 40.8495 41.9431 40.8461C41.9465 40.8428 41.9484 40.8382 41.9484 40.8335V37.9364C41.9484 37.9317 41.9465 37.9272 41.9431 37.9238C41.9398 37.9205 41.9352 37.9186 41.9305 37.9186L40.7436 37.916C40.7389 37.916 40.7344 37.9179 40.731 37.9212C40.7277 37.9246 40.7258 37.9291 40.7258 37.9339V38.3889C40.7258 38.3936 40.7239 38.3981 40.7206 38.4015C40.7172 38.4048 40.7127 38.4067 40.7079 38.4067H40.2546Z" fill="#FB7A00"/>
<path d="M35.5871 37.7984C35.4008 38.2087 34.9509 38.3967 34.552 38.1802C33.8708 37.8099 34.1485 36.7855 34.9365 36.811C35.2251 36.8204 35.4415 36.9749 35.5858 37.2745C35.5929 37.2893 35.6048 37.2966 35.6215 37.2966L36.6013 37.2936C36.606 37.2936 36.6106 37.2956 36.6139 37.299C36.6173 37.3024 36.6192 37.3071 36.6192 37.3119L36.6179 38.2572C36.6179 38.2616 36.6197 38.2658 36.6229 38.2689C36.6261 38.272 36.6304 38.2738 36.6349 38.2738H38.0654C38.071 38.2738 38.0765 38.276 38.0804 38.28C38.0844 38.284 38.0867 38.2894 38.0867 38.295V38.7309C38.0867 38.7522 38.076 38.7628 38.0548 38.7628H36.1459C36.1277 38.7628 36.1188 38.7537 36.1191 38.7356L36.122 37.8052C36.122 37.7907 36.1148 37.7835 36.1004 37.7835L35.6113 37.7831C35.6 37.7831 35.5919 37.7882 35.5871 37.7984ZM34.8986 37.7788C34.9628 37.7788 35.0243 37.7533 35.0697 37.708C35.1151 37.6626 35.1406 37.601 35.1406 37.5369C35.1406 37.4727 35.1151 37.4112 35.0697 37.3658C35.0243 37.3204 34.9628 37.2949 34.8986 37.2949C34.8344 37.2949 34.7729 37.3204 34.7275 37.3658C34.6821 37.4112 34.6567 37.4727 34.6567 37.5369C34.6567 37.601 34.6821 37.6626 34.7275 37.708C34.7729 37.7533 34.8344 37.7788 34.8986 37.7788Z" fill="#FB7A00"/>
<path d="M35.5841 39.7615C35.3893 40.1556 35.0058 40.3381 34.5984 40.1663C34.0511 39.9354 34.023 39.1368 34.5401 38.86C34.9501 38.641 35.3953 38.8106 35.5833 39.2337C35.5884 39.2457 35.5974 39.2516 35.6105 39.2516H38.0654C38.071 39.2516 38.0765 39.2538 38.0804 39.2578C38.0844 39.2618 38.0867 39.2672 38.0867 39.2729V39.7087C38.0867 39.73 38.076 39.7406 38.0548 39.7406H35.6181C35.6025 39.7406 35.5912 39.7476 35.5841 39.7615ZM34.8995 39.7385C34.9638 39.7385 35.0254 39.713 35.0709 39.6675C35.1163 39.622 35.1419 39.5604 35.1419 39.4961C35.1419 39.4318 35.1163 39.3702 35.0709 39.3247C35.0254 39.2793 34.9638 39.2537 34.8995 39.2537C34.8352 39.2537 34.7735 39.2793 34.7281 39.3247C34.6826 39.3702 34.6571 39.4318 34.6571 39.4961C34.6571 39.5604 34.6826 39.622 34.7281 39.6675C34.7735 39.713 34.8352 39.7385 34.8995 39.7385Z" fill="#FB7A00"/>
<path d="M36.617 40.7423L36.6209 41.654C36.6209 41.6656 36.6162 41.6768 36.608 41.685C36.5998 41.6932 36.5887 41.6978 36.5771 41.6978L35.6207 41.6961C35.6031 41.6958 35.5909 41.7037 35.5841 41.7199C35.3617 42.2297 34.7073 42.3603 34.3377 41.9266C33.9252 41.4427 34.2969 40.6989 34.9309 40.7274C35.2263 40.7408 35.4431 40.893 35.5811 41.1841C35.5885 41.1997 35.6007 41.2075 35.6177 41.2075H36.0999C36.1147 41.2075 36.122 41.2 36.122 41.185L36.1191 40.258C36.1191 40.2504 36.1221 40.2432 36.1274 40.2378C36.1328 40.2325 36.14 40.2295 36.1476 40.2295H38.0654C38.071 40.2295 38.0765 40.2317 38.0804 40.2357C38.0844 40.2397 38.0867 40.2451 38.0867 40.2508V40.6866C38.0867 40.6951 38.0833 40.7032 38.0773 40.7092C38.0713 40.7151 38.0632 40.7185 38.0548 40.7185H36.6408C36.6345 40.7185 36.6285 40.721 36.624 40.7255C36.6195 40.7299 36.617 40.736 36.617 40.7423ZM34.8982 41.6978C34.9624 41.6978 35.0239 41.6723 35.0693 41.6269C35.1147 41.5816 35.1402 41.52 35.1402 41.4558C35.1402 41.3917 35.1147 41.3301 35.0693 41.2848C35.0239 41.2394 34.9624 41.2139 34.8982 41.2139C34.834 41.2139 34.7725 41.2394 34.7271 41.2848C34.6817 41.3301 34.6562 41.3917 34.6562 41.4558C34.6562 41.52 34.6817 41.5816 34.7271 41.6269C34.7725 41.6723 34.834 41.6978 34.8982 41.6978Z" fill="#FB7A00"/>
<path d="M45.4127 41.2016C45.5989 40.7913 46.0488 40.6033 46.4477 40.8198C47.1289 41.1901 46.8513 42.2145 46.0633 42.189C45.7747 42.1796 45.5582 42.0251 45.4139 41.7255C45.4069 41.7107 45.3949 41.7034 45.3782 41.7034L44.3985 41.7064C44.3937 41.7064 44.3892 41.7044 44.3858 41.701C44.3825 41.6976 44.3806 41.6929 44.3806 41.6881L44.3819 40.7428C44.3819 40.7384 44.3801 40.7342 44.3769 40.7311C44.3737 40.728 44.3694 40.7262 44.3649 40.7262H42.9343C42.9287 40.7262 42.9233 40.724 42.9193 40.72C42.9153 40.716 42.9131 40.7106 42.9131 40.705V40.2691C42.9131 40.2478 42.9237 40.2372 42.945 40.2372H44.8539C44.872 40.2372 44.881 40.2463 44.8807 40.2644L44.8777 41.1948C44.8777 41.2093 44.8849 41.2165 44.8994 41.2165L45.3884 41.2169C45.3998 41.2169 45.4078 41.2118 45.4127 41.2016ZM46.1011 41.2212C46.037 41.2212 45.9754 41.2467 45.93 41.292C45.8847 41.3374 45.8592 41.399 45.8592 41.4631C45.8592 41.5273 45.8847 41.5888 45.93 41.6342C45.9754 41.6796 46.037 41.7051 46.1011 41.7051C46.1653 41.7051 46.2269 41.6796 46.2722 41.6342C46.3176 41.5888 46.3431 41.5273 46.3431 41.4631C46.3431 41.399 46.3176 41.3374 46.2722 41.292C46.2269 41.2467 46.1653 41.2212 46.1011 41.2212Z" fill="#FB7A00"/>
<path d="M45.4156 39.2381C45.6104 38.8439 45.994 38.6615 46.4014 38.8332C46.9486 39.0641 46.9767 39.8627 46.4596 40.1395C46.0497 40.3585 45.6045 40.1889 45.4165 39.7658C45.4114 39.7539 45.4023 39.7479 45.3893 39.7479H42.9343C42.9287 39.7479 42.9233 39.7457 42.9193 39.7417C42.9153 39.7377 42.9131 39.7323 42.9131 39.7266V39.2908C42.9131 39.2695 42.9237 39.2589 42.945 39.2589H45.3816C45.3972 39.2589 45.4086 39.252 45.4156 39.2381ZM46.1003 39.261C46.036 39.261 45.9743 39.2866 45.9289 39.332C45.8834 39.3775 45.8579 39.4391 45.8579 39.5034C45.8579 39.5677 45.8834 39.6293 45.9289 39.6748C45.9743 39.7202 46.036 39.7458 46.1003 39.7458C46.1646 39.7458 46.2262 39.7202 46.2717 39.6748C46.3171 39.6293 46.3427 39.5677 46.3427 39.5034C46.3427 39.4391 46.3171 39.3775 46.2717 39.332C46.2262 39.2866 46.1646 39.261 46.1003 39.261Z" fill="#FB7A00"/>
<path d="M44.3827 38.2577L44.3789 37.346C44.3789 37.3344 44.3835 37.3232 44.3917 37.315C44.3999 37.3068 44.4111 37.3022 44.4227 37.3022L45.3791 37.3039C45.3966 37.3042 45.4088 37.2963 45.4156 37.2801C45.638 36.7703 46.2925 36.6397 46.662 37.0734C47.0745 37.5573 46.7029 38.3011 46.0688 38.2726C45.7734 38.2592 45.5567 38.107 45.4186 37.8159C45.4113 37.8003 45.3991 37.7925 45.382 37.7925H44.8998C44.8851 37.7925 44.8777 37.8 44.8777 37.815L44.8807 38.742C44.8807 38.7496 44.8777 38.7568 44.8723 38.7622C44.867 38.7675 44.8598 38.7705 44.8522 38.7705H42.9343C42.9287 38.7705 42.9233 38.7683 42.9193 38.7643C42.9153 38.7603 42.9131 38.7549 42.9131 38.7492V38.3134C42.9131 38.3049 42.9164 38.2968 42.9224 38.2908C42.9284 38.2849 42.9365 38.2815 42.945 38.2815H44.3589C44.3652 38.2815 44.3713 38.279 44.3758 38.2745C44.3802 38.2701 44.3827 38.264 44.3827 38.2577ZM46.1016 37.3022C46.0374 37.3022 45.9758 37.3277 45.9305 37.3731C45.8851 37.4184 45.8596 37.48 45.8596 37.5442C45.8596 37.6083 45.8851 37.6699 45.9305 37.7152C45.9758 37.7606 46.0374 37.7861 46.1016 37.7861C46.1657 37.7861 46.2273 37.7606 46.2727 37.7152C46.318 37.6699 46.3435 37.6083 46.3435 37.5442C46.3435 37.48 46.318 37.4184 46.2727 37.3731C46.2273 37.3277 46.1657 37.3022 46.1016 37.3022Z" fill="#FB7A00"/>
<path d="M41.4365 39.874H40.5061C40.4925 39.874 40.4814 39.8851 40.4814 39.8987V40.3384C40.4814 40.352 40.4925 40.363 40.5061 40.363H41.4365C41.4502 40.363 41.4612 40.352 41.4612 40.3384V39.8987C41.4612 39.8851 41.4502 39.874 41.4365 39.874Z" fill="#FB7A00"/>
<path d="M38.9483 43.6832L39.1059 43.4128C39.1075 43.41 39.1084 43.4068 39.1084 43.4036C39.1084 43.4004 39.1075 43.3972 39.1059 43.3944L38.8804 43.0036C38.8781 42.9995 38.8774 42.9946 38.8786 42.9901C38.8798 42.9855 38.8827 42.9816 38.8868 42.9792L40.0721 42.2953C40.0741 42.2941 40.0764 42.2934 40.0788 42.2931C40.0812 42.2927 40.0836 42.2929 40.0859 42.2935C40.0882 42.2942 40.0903 42.2952 40.0922 42.2967C40.0941 42.2982 40.0957 42.3 40.0968 42.3021L40.3237 42.6922C40.3253 42.6949 40.3276 42.6971 40.3303 42.6987C40.333 42.7002 40.3361 42.7011 40.3393 42.701H40.6559C40.6591 42.7011 40.6621 42.7002 40.6649 42.6987C40.6676 42.6971 40.6699 42.6949 40.6715 42.6922L40.8973 42.301C40.8997 42.2969 40.9035 42.2939 40.9081 42.2926C40.9127 42.2914 40.9175 42.292 40.9217 42.2943L42.1109 42.9785C42.1129 42.9797 42.1147 42.9813 42.1162 42.9832C42.1176 42.9851 42.1186 42.9872 42.1192 42.9895C42.1198 42.9918 42.1199 42.9942 42.1196 42.9966C42.1193 42.9989 42.1185 43.0012 42.1173 43.0032L41.8882 43.3958C41.8866 43.3986 41.8857 43.4018 41.8857 43.405C41.8857 43.4083 41.8866 43.4114 41.8882 43.4142L42.0441 43.6832C42.0457 43.6859 42.048 43.6881 42.0507 43.6896C42.0534 43.6912 42.0565 43.692 42.0596 43.692H42.5184C42.5231 43.692 42.5277 43.6939 42.5311 43.6973C42.5345 43.7007 42.5364 43.7052 42.5364 43.71V45.0788C42.5364 45.0835 42.5345 45.0881 42.5311 45.0915C42.5277 45.0949 42.5231 45.0968 42.5184 45.0968H42.0618C42.0586 45.0968 42.0555 45.0977 42.0528 45.0993C42.05 45.1009 42.0478 45.1032 42.0462 45.106L41.8893 45.3781C41.8878 45.3808 41.887 45.3838 41.887 45.3869C41.887 45.39 41.8878 45.3931 41.8893 45.3958L42.1151 45.7884C42.1174 45.7925 42.118 45.7974 42.1168 45.802C42.1155 45.8065 42.1125 45.8104 42.1084 45.8128L40.922 46.4977C40.92 46.4989 40.9177 46.4996 40.9153 46.5C40.913 46.5003 40.9106 46.5001 40.9083 46.4995C40.906 46.4989 40.9038 46.4978 40.9019 46.4963C40.9 46.4949 40.8985 46.493 40.8973 46.491L40.6722 46.1008C40.6706 46.0981 40.6683 46.0959 40.6656 46.0943C40.6628 46.0928 40.6598 46.092 40.6566 46.092L40.3382 46.0909C40.335 46.0909 40.3318 46.0917 40.329 46.0933C40.3262 46.0949 40.3239 46.0973 40.3223 46.1001L40.0986 46.4895C40.0962 46.4936 40.0923 46.4966 40.0878 46.4979C40.0832 46.4992 40.0783 46.4986 40.0742 46.4963L38.8868 45.8128C38.8827 45.8104 38.8797 45.8065 38.8784 45.802C38.8772 45.7974 38.8777 45.7925 38.88 45.7884L39.1048 45.3968C39.1063 45.3941 39.1071 45.3911 39.1071 45.388C39.1071 45.3849 39.1063 45.3818 39.1048 45.3791L38.9493 45.106C38.9477 45.1032 38.9454 45.1008 38.9426 45.0992C38.9398 45.0976 38.9366 45.0967 38.9334 45.0968H38.4814C38.4766 45.0968 38.472 45.0949 38.4687 45.0915C38.4653 45.0881 38.4634 45.0835 38.4634 45.0788V43.71C38.4634 43.7052 38.4653 43.7007 38.4687 43.6973C38.472 43.6939 38.4766 43.692 38.4814 43.692H38.9327C38.9358 43.692 38.9389 43.6912 38.9417 43.6896C38.9444 43.6881 38.9467 43.6859 38.9483 43.6832ZM39.214 44.0984H38.8875C38.8828 44.0984 38.8783 44.1003 38.875 44.1036C38.8717 44.1069 38.8698 44.1114 38.8698 44.1161V44.654C38.8698 44.6636 38.8736 44.6729 38.8805 44.6797C38.8873 44.6865 38.8965 44.6904 38.9062 44.6904H39.2122C39.2261 44.6904 39.2351 44.6971 39.2391 44.7105C39.3077 44.9454 39.4263 45.1506 39.595 45.3261C39.6042 45.3358 39.6055 45.3463 39.5989 45.3576L39.4381 45.6357C39.4308 45.6482 39.4334 45.6581 39.4459 45.6654L39.9198 45.9379C39.9325 45.9452 39.9425 45.9425 39.9498 45.9298L40.1007 45.6704C40.1148 45.6461 40.1356 45.6373 40.1629 45.6438C40.3853 45.6985 40.6077 45.6987 40.8301 45.6446C40.8419 45.6417 40.8543 45.6427 40.8655 45.6474C40.8767 45.6521 40.8861 45.6603 40.8923 45.6707L41.0471 45.9336C41.0498 45.938 41.054 45.9412 41.059 45.9424C41.064 45.9437 41.0692 45.943 41.0736 45.9404L41.5373 45.6718C41.5451 45.6673 41.5507 45.6599 41.5531 45.6512C41.5554 45.6425 41.5542 45.6333 41.5497 45.6255L41.3942 45.3548C41.3918 45.3506 41.3909 45.3458 41.3916 45.341C41.3922 45.3362 41.3944 45.3318 41.3977 45.3283C41.5683 45.1504 41.6879 44.9432 41.7564 44.7066C41.7597 44.6958 41.7669 44.6904 41.778 44.6904H42.0869C42.1111 44.6904 42.1231 44.6782 42.1229 44.654L42.1208 44.1369C42.1206 44.1112 42.1077 44.0984 42.0823 44.0984H41.7833C41.7691 44.0984 41.76 44.0916 41.7557 44.0779C41.6864 43.8484 41.5701 43.6466 41.4066 43.4725C41.4004 43.466 41.3966 43.4576 41.3957 43.4486C41.3947 43.4397 41.3967 43.4306 41.4013 43.4227L41.5507 43.1679C41.5625 43.1476 41.5583 43.1316 41.538 43.1198L41.0842 42.8587C41.0803 42.8564 41.0759 42.8549 41.0714 42.8543C41.0669 42.8537 41.0623 42.854 41.0579 42.8552C41.0535 42.8564 41.0494 42.8584 41.0458 42.8612C41.0422 42.864 41.0392 42.8674 41.0369 42.8714L40.8856 43.1333C40.8819 43.1395 40.8763 43.1444 40.8697 43.1473C40.863 43.1501 40.8556 43.1508 40.8485 43.1492C40.62 43.095 40.3914 43.0938 40.1629 43.1456C40.1508 43.1484 40.1382 43.1472 40.1268 43.1423C40.1154 43.1373 40.1059 43.1288 40.0997 43.1181L39.9526 42.8657C39.949 42.8596 39.9431 42.8551 39.9363 42.8533C39.9294 42.8514 39.9221 42.8524 39.9159 42.8558L39.4519 43.122C39.4485 43.1239 39.4455 43.1265 39.4431 43.1296C39.4408 43.1327 39.439 43.1362 39.438 43.1399C39.437 43.1437 39.4367 43.1476 39.4372 43.1514C39.4377 43.1552 39.439 43.1589 39.4409 43.1622L39.5978 43.4315C39.6011 43.4372 39.6025 43.4438 39.6017 43.4503C39.6009 43.4568 39.5981 43.4629 39.5936 43.4676C39.4258 43.6429 39.3076 43.8469 39.2388 44.0797C39.2372 44.0851 39.234 44.0898 39.2295 44.0932C39.2251 44.0966 39.2196 44.0984 39.214 44.0984Z" fill="#FB7A00"/>
<path d="M41.2469 44.3952C41.2469 44.4937 41.2275 44.5913 41.1897 44.6824C41.152 44.7735 41.0967 44.8562 41.027 44.9259C40.9573 44.9956 40.8746 45.0509 40.7835 45.0887C40.6924 45.1264 40.5948 45.1458 40.4962 45.1458C40.2972 45.1458 40.1062 45.0667 39.9655 44.9259C39.8247 44.7852 39.7456 44.5942 39.7456 44.3952C39.7456 44.1961 39.8247 44.0052 39.9655 43.8644C40.1062 43.7236 40.2972 43.6445 40.4962 43.6445C40.5948 43.6445 40.6924 43.6639 40.7835 43.7017C40.8746 43.7394 40.9573 43.7947 41.027 43.8644C41.0967 43.9341 41.152 44.0168 41.1897 44.1079C41.2275 44.199 41.2469 44.2966 41.2469 44.3952ZM40.8401 44.3952C40.8401 44.3042 40.804 44.2169 40.7396 44.1525C40.6752 44.0882 40.588 44.052 40.4969 44.052C40.4059 44.052 40.3187 44.0882 40.2543 44.1525C40.1899 44.2169 40.1538 44.3042 40.1538 44.3952C40.1538 44.4862 40.1899 44.5735 40.2543 44.6378C40.3187 44.7022 40.4059 44.7383 40.4969 44.7383C40.588 44.7383 40.6752 44.7022 40.7396 44.6378C40.804 44.5735 40.8401 44.4862 40.8401 44.3952Z" fill="#FB7A00"/>
</g>
</g>
<defs>
<clipPath id="clip0_3118_2979">
<rect width="40" height="40" fill="white" transform="translate(20.5 20)"/>
</clipPath>
<clipPath id="clip1_3118_2979">
<rect width="12.6718" height="14.0003" fill="white" transform="translate(34.1641 32.5)"/>
</clipPath>
</defs>
</svg>
