<svg width="81" height="80" viewBox="0 0 81 80" fill="none" xmlns="http://www.w3.org/2000/svg">
<rect width="80" height="80" transform="translate(0.5)" fill="#CEDBDF"/>
<g clip-path="url(#clip0_3118_4170)">
<g clip-path="url(#clip1_3118_4170)">
<path d="M37.5 32.25H42.5V34.75H37.5V32.25Z" fill="#FB7A00"/>
<path d="M37.084 38.5001L40.0006 36.8335L42.9173 38.5001L40.0006 40.1668L37.084 38.5001Z" fill="#FB7A00"/>
<path d="M38.75 27.25H41.25C41.9404 27.25 42.5 27.8096 42.5 28.5C42.5 29.1904 41.9404 29.75 41.25 29.75H38.75C38.0596 29.75 37.5 29.1904 37.5 28.5C37.5 27.8096 38.0596 27.25 38.75 27.25Z" fill="#FB7A00"/>
<path d="M35.4161 34.75H33.8702C33.5158 34.7503 33.1663 34.833 32.8494 34.9917C32.4894 35.1717 32.0883 35.2535 31.6866 35.2286C31.2848 35.2037 30.8968 35.0731 30.5619 34.85L30.416 34.75V32.25H35.416L35.4161 34.75Z" fill="#FB7A00"/>
<path d="M38.75 43.0835H41.25C41.9404 43.0835 42.5 43.6431 42.5 44.3335C42.5 45.0239 41.9404 45.5835 41.25 45.5835H38.75C38.0596 45.5835 37.5 45.0239 37.5 44.3335C37.5 43.6431 38.0596 43.0835 38.75 43.0835Z" fill="#FB7A00"/>
<path d="M44.584 37.25H49.584V39.75H44.584V37.25Z" fill="#FB7A00"/>
<path d="M30.1875 35.096L30.3333 35.196C30.778 35.4906 31.2999 35.6472 31.8333 35.646C32.2514 35.6472 32.6639 35.5502 33.0375 35.3626C33.2964 35.2338 33.5817 35.1668 33.8709 35.1668H35.4167C35.5272 35.1668 35.6331 35.1228 35.7113 35.0447C35.7894 34.9666 35.8333 34.8606 35.8334 34.7501V33.9168H37.0833V34.7501C37.0834 34.8606 37.1273 34.9666 37.2054 35.0447C37.2836 35.1228 37.3895 35.1668 37.5 35.1668H39.5833V36.5918L36.875 38.1376C36.675 38.251 36.6046 38.5056 36.7179 38.7056C36.7551 38.7712 36.8094 38.8254 36.875 38.8626L39.5833 40.4085V42.6668H38.75C37.8296 42.6668 37.0833 43.4131 37.0833 44.3335C37.0833 45.2539 37.8296 46.0001 38.75 46.0001H41.25C42.1704 46.0001 42.9166 45.2539 42.9166 44.3335C42.9166 43.4131 42.1704 42.6668 41.25 42.6668H40.4166V41.8335H47.0833C47.1938 41.8335 47.2997 41.7895 47.3779 41.7114C47.456 41.6333 47.4999 41.5273 47.5 41.4168V40.1668H49.5833C49.6938 40.1668 49.7997 40.1229 49.8779 40.0448C49.956 39.9666 49.9999 39.8607 50 39.7502V37.2502C49.9999 37.1397 49.956 37.0338 49.8779 36.9556C49.7997 36.8775 49.6938 36.8336 49.5833 36.8335H44.5833C44.4728 36.8336 44.3669 36.8775 44.2887 36.9556C44.2106 37.0338 44.1667 37.1397 44.1666 37.2502V38.0835H43.0291L40.4166 36.5919V35.1669H42.5C42.6105 35.1669 42.7164 35.1229 42.7946 35.0448C42.8727 34.9667 42.9166 34.8607 42.9166 34.7502V32.2502C42.9166 32.1398 42.8727 32.0338 42.7946 31.9557C42.7164 31.8775 42.6105 31.8336 42.5 31.8336H40.4166V30.1669H41.25C42.1704 30.1669 42.9166 29.4207 42.9166 28.5003C42.9166 27.5799 42.1704 26.8335 41.25 26.8335H38.75C37.8296 26.8335 37.0833 27.5797 37.0833 28.5001C37.0833 29.4206 37.8296 30.1668 38.75 30.1668H39.5833V31.8334H37.5C37.3895 31.8335 37.2836 31.8774 37.2054 31.9555C37.1273 32.0337 37.0834 32.1396 37.0833 32.2501V33.0834H35.8334V32.2501C35.8333 32.1397 35.7894 32.0337 35.7113 31.9556C35.6331 31.8774 35.5272 31.8335 35.4167 31.8335H30.4167C30.3062 31.8335 30.2003 31.8774 30.1221 31.9556C30.044 32.0337 30.0001 32.1397 30 32.2501V34.7501C30.0004 34.8188 30.0177 34.8862 30.0504 34.9466C30.0831 35.0069 30.1302 35.0582 30.1875 35.096ZM41.25 43.5001C41.7104 43.5001 42.0833 43.873 42.0833 44.3335C42.0833 44.7939 41.7104 45.1668 41.25 45.1668H38.75C38.2896 45.1668 37.9167 44.7939 37.9167 44.3335C37.9167 43.873 38.2896 43.5001 38.75 43.5001H41.25ZM45 38.9168V37.6668H49.1667V39.3334H45V38.9168ZM44.1666 38.9168V39.7501C44.1667 39.8606 44.2106 39.9666 44.2887 40.0447C44.3669 40.1228 44.4728 40.1668 44.5833 40.1668H46.6666V41.0001H40.4166V40.4085L43.0291 38.9168L44.1666 38.9168ZM42.0833 38.5001L40 39.6876L37.9167 38.5001L40 37.3126L42.0833 38.5001ZM38.75 29.3335C38.2896 29.3335 37.9167 28.9606 37.9167 28.5001C37.9167 28.0397 38.2896 27.6668 38.75 27.6668H41.25C41.7104 27.6668 42.0833 28.0397 42.0833 28.5001C42.0833 28.9606 41.7104 29.3335 41.25 29.3335H38.75ZM37.9167 32.6668H42.0833V34.3334H37.9167V32.6668ZM30.8333 32.6668H35V34.3334H33.8709C33.4531 34.3346 33.0411 34.4315 32.6667 34.6168C32.3791 34.7608 32.0592 34.828 31.738 34.8119C31.4168 34.7958 31.1052 34.6971 30.8333 34.5251V32.6668Z" fill="#FB7A00"/>
</g>
<path fill-rule="evenodd" clip-rule="evenodd" d="M37.9998 51.2497H43V56.0933H48.3103C48.828 56.0933 49.2478 56.5131 49.2478 57.0308C49.2478 57.5485 48.828 57.9683 48.3103 57.9683H32.6897C32.1719 57.9683 31.7522 57.5485 31.7522 57.0308C31.7522 56.5131 32.1719 56.0933 32.6897 56.0933H37.9998V51.2497ZM21.4375 22.0317H59.5625C60.0802 22.0317 60.5 22.4517 60.5 22.9692V49.063C60.5 49.5805 60.0798 50.0005 59.5625 50.0005H21.4375C20.9202 50.0005 20.5 49.5806 20.5 49.063V22.9692C20.5 22.4514 20.9198 22.0317 21.4375 22.0317ZM58.625 48.1255C58.625 40.0964 58.625 31.9358 58.625 23.9067H22.375C22.375 31.9358 22.375 40.0964 22.375 48.1255C34.25 48.1255 46.75 48.1255 58.625 48.1255Z" fill="#0D3642"/>
</g>
<defs>
<clipPath id="clip0_3118_4170">
<rect width="40" height="40" fill="white" transform="translate(20.5 20)"/>
</clipPath>
<clipPath id="clip1_3118_4170">
<rect width="21" height="20" fill="white" transform="translate(29.5 26.5)"/>
</clipPath>
</defs>
</svg>
