<svg width="80" height="81" viewBox="0 0 80 81" fill="none" xmlns="http://www.w3.org/2000/svg">
<rect width="80" height="80" transform="translate(0 0.584473)" fill="#CEDBDF"/>
<g clip-path="url(#clip0_2379_75424)">
<path d="M37.832 40.5832C37.832 41.1578 38.0603 41.7089 38.4666 42.1152C38.873 42.5216 39.4241 42.7498 39.9987 42.7498C40.5733 42.7498 41.1244 42.5216 41.5308 42.1152C41.9371 41.7089 42.1654 41.1578 42.1654 40.5832C42.1654 40.0085 41.9371 39.4574 41.5308 39.0511C41.1244 38.6448 40.5733 38.4165 39.9987 38.4165C39.4241 38.4165 38.873 38.6448 38.4666 39.0511C38.0603 39.4574 37.832 40.0085 37.832 40.5832Z" stroke="#FB7A00" stroke-width="3.25" stroke-linecap="round" stroke-linejoin="round"/>
<path d="M40.0013 29.7524C37.8587 29.7524 35.7642 30.3878 33.9826 31.5782C32.2011 32.7686 30.8126 34.4605 29.9926 36.44C29.1727 38.4196 28.9581 40.5978 29.3761 42.6993C29.7941 44.8007 30.8259 46.731 32.341 48.2461C33.8561 49.7612 35.7864 50.7929 37.8878 51.211C39.9893 51.629 42.1675 51.4144 44.147 50.5945C46.1266 49.7745 47.8185 48.386 49.0089 46.6045C50.1993 44.8229 50.8346 42.7284 50.8346 40.5858" stroke="#FB7A00" stroke-width="3.25" stroke-linecap="round" stroke-linejoin="round"/>
<path d="M42.1662 21.2022C38.1494 20.7515 34.0917 21.5603 30.5546 23.5165C27.0175 25.4728 24.1757 28.4799 22.4224 32.1218C20.669 35.7638 20.0907 39.8606 20.7675 43.8456C21.4443 47.8306 23.3427 51.5068 26.2002 54.3657C29.0576 57.2246 32.7328 59.1249 36.7175 59.8037C40.7021 60.4825 44.7992 59.9062 48.4421 58.1547C52.0849 56.4032 55.0935 53.5629 57.0515 50.0268C59.0096 46.4906 59.8203 42.4334 59.3717 38.4163" stroke="#FB7A00" stroke-width="3.25" stroke-linecap="round" stroke-linejoin="round"/>
<path d="M46.5 27.5845V34.0845H53L59.5 27.5845H53V21.0845L46.5 27.5845Z" stroke="#FB7A00" stroke-width="3.25" stroke-linecap="round" stroke-linejoin="round"/>
<path d="M46.5 34.0845L40 40.5845" stroke="#FB7A00" stroke-width="3.25" stroke-linecap="round" stroke-linejoin="round"/>
</g>
<defs>
<clipPath id="clip0_2379_75424">
<rect width="52" height="52" fill="white" transform="translate(14 14.5845)"/>
</clipPath>
</defs>
</svg>
