<svg width="81" height="81" viewBox="0 0 81 81" fill="none" xmlns="http://www.w3.org/2000/svg">
<rect width="80" height="80" transform="translate(0.5 0.584473)" fill="#CEDBDF"/>
<mask id="path-1-outside-1_2705_31789" maskUnits="userSpaceOnUse" x="14.3125" y="15.1907" width="52" height="51" fill="black">
<rect fill="white" x="14.3125" y="15.1907" width="52" height="51"/>
<path d="M65.6018 26.7746L60.5371 16.6399C60.4696 16.5049 60.3659 16.3914 60.2375 16.3121C60.1091 16.2327 59.9612 16.1907 59.8103 16.1907C59.6594 16.1907 59.5114 16.2327 59.3831 16.3121C59.2547 16.3914 59.151 16.5049 59.0835 16.6399L54.0187 26.7746C53.9568 26.8985 53.9276 27.0362 53.9338 27.1745C53.9401 27.3129 53.9816 27.4473 54.0544 27.5651C54.1272 27.6829 54.229 27.7801 54.3499 27.8475C54.4709 27.915 54.6071 27.9503 54.7456 27.9503H56.2353V35.0706C56.2353 35.2861 56.3209 35.4927 56.4733 35.6451C56.6256 35.7975 56.8323 35.8831 57.0478 35.8831H62.573C62.7885 35.8831 62.9951 35.7975 63.1475 35.6451C63.2999 35.4927 63.3855 35.2861 63.3855 35.0706V27.9503H64.875C65.0135 27.9503 65.1497 27.9149 65.2706 27.8475C65.3916 27.7801 65.4933 27.6829 65.5661 27.5651C65.6389 27.4473 65.6804 27.3128 65.6866 27.1745C65.6929 27.0362 65.6637 26.8985 65.6018 26.7746ZM62.5729 26.3254C62.3574 26.3254 62.1507 26.411 61.9984 26.5634C61.846 26.7158 61.7604 26.9225 61.7604 27.1379V34.2582H57.8601V27.1379C57.8601 26.9225 57.7745 26.7158 57.6221 26.5634C57.4697 26.411 57.2631 26.3254 57.0476 26.3254H56.0597L59.8102 18.8208L63.5606 26.3254H62.5729ZM52.3523 42.3457H46.8556C46.6401 42.3457 46.4334 42.4313 46.2811 42.5837C46.1287 42.7361 46.0431 42.9427 46.0431 43.1582V64.9977C46.0431 65.2132 46.1287 65.4198 46.2811 65.5722C46.4334 65.7246 46.6401 65.8102 46.8556 65.8102H52.3523C52.5678 65.8102 52.7745 65.7246 52.9269 65.5722C53.0792 65.4198 53.1648 65.2132 53.1648 64.9977V43.1582C53.1648 42.9427 53.0792 42.7361 52.9269 42.5837C52.7745 42.4313 52.5678 42.3457 52.3523 42.3457ZM51.5398 64.1852H47.6681V43.9707H51.5398V64.1852ZM62.5586 37.1559H57.0619C56.8464 37.1559 56.6397 37.2415 56.4874 37.3938C56.335 37.5462 56.2494 37.7529 56.2494 37.9684V64.9977C56.2494 65.2132 56.335 65.4198 56.4874 65.5722C56.6397 65.7246 56.8464 65.8102 57.0619 65.8102H62.5586C62.774 65.8102 62.9807 65.7246 63.1331 65.5722C63.2855 65.4198 63.3711 65.2132 63.3711 64.9977V37.9684C63.3711 37.7529 63.2855 37.5462 63.1331 37.3938C62.9807 37.2415 62.774 37.1559 62.5586 37.1559ZM61.7461 64.1852H57.8744V38.7809H61.7461V64.1852ZM21.6217 59.0486H16.125C15.9095 59.0486 15.7028 59.1342 15.5505 59.2865C15.3981 59.4389 15.3125 59.6456 15.3125 59.8611V64.9977C15.3125 65.2132 15.3981 65.4198 15.5505 65.5722C15.7028 65.7246 15.9095 65.8102 16.125 65.8102H21.6216C21.8371 65.8102 22.0437 65.7246 22.1961 65.5722C22.3485 65.4198 22.4341 65.2132 22.4341 64.9977V59.8611C22.4341 59.7544 22.4131 59.6487 22.3723 59.5501C22.3314 59.4516 22.2716 59.362 22.1962 59.2866C22.1207 59.2111 22.0311 59.1513 21.9326 59.1104C21.834 59.0696 21.7284 59.0486 21.6217 59.0486ZM20.8092 64.1852H16.9375V60.6736H20.8091L20.8092 64.1852ZM52.5651 28.0301C52.6683 27.9268 52.7418 27.7976 52.7778 27.6561C52.8138 27.5146 52.811 27.366 52.7697 27.226C52.7285 27.0859 52.6502 26.9596 52.5433 26.8602C52.4363 26.7609 52.3045 26.6921 52.1618 26.6613L48.3171 25.8328L50.1362 24.0136C50.2124 23.9383 50.273 23.8487 50.3144 23.7499C50.3559 23.6511 50.3774 23.5451 50.3777 23.438C50.378 23.3309 50.3572 23.2248 50.3163 23.1258C50.2755 23.0268 50.2154 22.9368 50.1397 22.861C50.064 22.7853 49.974 22.7253 49.875 22.6845C49.7759 22.6436 49.6698 22.6228 49.5627 22.6231C49.4556 22.6234 49.3496 22.6449 49.2508 22.6864C49.1521 22.7278 49.0625 22.7884 48.9872 22.8646L47.1681 24.6837L46.3394 20.8389C46.3087 20.6962 46.24 20.5643 46.1406 20.4573C46.0413 20.3503 45.9149 20.272 45.7748 20.2307C45.6347 20.1894 45.4861 20.1867 45.3446 20.2227C45.203 20.2588 45.0738 20.3323 44.9706 20.4356L38.9833 26.423C38.8873 26.5191 38.8168 26.6376 38.7785 26.7679C38.7401 26.8982 38.735 27.036 38.7636 27.1687L39.8131 32.0386L39.0778 32.7739C36.6442 30.6095 33.4411 29.2925 29.9358 29.2925C22.3415 29.2925 16.1632 35.4708 16.1632 43.0651C16.1632 49.1562 20.1381 54.3356 25.6301 56.1475V64.9976C25.6301 65.2131 25.7157 65.4197 25.8681 65.5721C26.0205 65.7245 26.2271 65.8101 26.4426 65.8101H31.9393C32.1548 65.8101 32.3614 65.7245 32.5138 65.5721C32.6662 65.4197 32.7518 65.2131 32.7518 64.9976V56.5477C33.8178 56.3252 34.8534 55.9761 35.8366 55.5077V64.9977C35.8366 65.2132 35.9222 65.4198 36.0745 65.5722C36.2269 65.7246 36.4336 65.8102 36.6491 65.8102H42.1458C42.3613 65.8102 42.568 65.7246 42.7203 65.5722C42.8727 65.4198 42.9583 65.2132 42.9583 64.9977V48.9275C42.9584 48.8094 42.9327 48.6928 42.883 48.5858C42.8333 48.4787 42.7608 48.3839 42.6706 48.3077C43.3387 46.6909 43.7084 44.9204 43.7084 43.0651C43.7084 39.5596 42.3913 36.3567 40.2269 33.9229L40.9621 33.1877L45.8321 34.2373C45.9649 34.2659 46.1027 34.2608 46.233 34.2224C46.3633 34.184 46.4819 34.1136 46.5779 34.0176L52.5651 28.0301ZM40.4452 27.259L45.0649 22.6391L45.8003 26.0511L41.1806 30.671L40.4452 27.259ZM31.1267 64.1852H27.255V56.5749C28.1379 56.7498 29.0358 56.8378 29.9358 56.8377C30.337 56.8377 30.7341 56.8194 31.1268 56.7856V64.1852H31.1267ZM41.3333 64.1853H37.4616V54.5938C38.9899 53.5925 40.3057 52.2993 41.3333 50.7885V64.1853ZM42.0833 43.0651C42.0833 49.7633 36.6339 55.2127 29.9358 55.2127C23.2375 55.2127 17.7882 49.7633 17.7882 43.0651C17.7882 36.3668 23.2375 30.9175 29.9358 30.9175C32.9931 30.9175 35.7898 32.0533 37.9273 33.9243L35.7803 36.0715C34.1965 34.7458 32.1579 33.9464 29.9358 33.9464C24.9077 33.9464 20.8171 38.037 20.8171 43.0651C20.8171 48.0931 24.9077 52.1838 29.9358 52.1838C34.9638 52.1838 39.0544 48.0931 39.0544 43.0651C39.0544 40.843 38.2551 38.8043 36.9293 37.2206L39.0763 35.0734C40.9476 37.211 42.0833 40.0077 42.0833 43.0651ZM32.4801 43.0651C32.4801 44.4681 31.3388 45.6095 29.9358 45.6095C28.5328 45.6095 27.3913 44.4681 27.3913 43.0651C27.3913 41.6621 28.5327 40.5206 29.9358 40.5206C30.3414 40.5206 30.7249 40.6165 31.0656 40.7861L29.3612 42.4905C29.285 42.5658 29.2245 42.6554 29.183 42.7542C29.1416 42.853 29.1201 42.959 29.1198 43.0661C29.1195 43.1732 29.1403 43.2793 29.1812 43.3783C29.222 43.4774 29.282 43.5673 29.3578 43.6431C29.4335 43.7188 29.5235 43.7788 29.6225 43.8196C29.7216 43.8605 29.8277 43.8813 29.9348 43.881C30.0419 43.8807 30.1479 43.8592 30.2467 43.8177C30.3454 43.7763 30.435 43.7157 30.5103 43.6395L32.2146 41.9352C32.3895 42.2862 32.4804 42.673 32.4801 43.0651ZM32.2517 39.6001C31.567 39.1401 30.7606 38.8948 29.9358 38.8957C27.6367 38.8957 25.7663 40.7661 25.7663 43.0652C25.7663 45.3642 27.6367 47.2346 29.9358 47.2346C32.2347 47.2346 34.1051 45.3642 34.1051 43.0652C34.106 42.2403 33.8608 41.4339 33.4008 40.7492L35.7745 38.3755C36.8086 39.6604 37.4294 41.2913 37.4294 43.0652C37.4294 47.1972 34.0677 50.5589 29.9358 50.5589C25.8038 50.5589 22.4421 47.1971 22.4421 43.0652C22.4421 38.9332 25.8038 35.5715 29.9358 35.5715C31.7097 35.5715 33.3406 36.1923 34.6254 37.2264L32.2517 39.6001ZM45.7417 32.5555L42.3297 31.8202L46.9495 27.2003L50.3616 27.9356L45.7417 32.5555Z"/>
</mask>
<path d="M65.6018 26.7746L60.5371 16.6399C60.4696 16.5049 60.3659 16.3914 60.2375 16.3121C60.1091 16.2327 59.9612 16.1907 59.8103 16.1907C59.6594 16.1907 59.5114 16.2327 59.3831 16.3121C59.2547 16.3914 59.151 16.5049 59.0835 16.6399L54.0187 26.7746C53.9568 26.8985 53.9276 27.0362 53.9338 27.1745C53.9401 27.3129 53.9816 27.4473 54.0544 27.5651C54.1272 27.6829 54.229 27.7801 54.3499 27.8475C54.4709 27.915 54.6071 27.9503 54.7456 27.9503H56.2353V35.0706C56.2353 35.2861 56.3209 35.4927 56.4733 35.6451C56.6256 35.7975 56.8323 35.8831 57.0478 35.8831H62.573C62.7885 35.8831 62.9951 35.7975 63.1475 35.6451C63.2999 35.4927 63.3855 35.2861 63.3855 35.0706V27.9503H64.875C65.0135 27.9503 65.1497 27.9149 65.2706 27.8475C65.3916 27.7801 65.4933 27.6829 65.5661 27.5651C65.6389 27.4473 65.6804 27.3128 65.6866 27.1745C65.6929 27.0362 65.6637 26.8985 65.6018 26.7746ZM62.5729 26.3254C62.3574 26.3254 62.1507 26.411 61.9984 26.5634C61.846 26.7158 61.7604 26.9225 61.7604 27.1379V34.2582H57.8601V27.1379C57.8601 26.9225 57.7745 26.7158 57.6221 26.5634C57.4697 26.411 57.2631 26.3254 57.0476 26.3254H56.0597L59.8102 18.8208L63.5606 26.3254H62.5729ZM52.3523 42.3457H46.8556C46.6401 42.3457 46.4334 42.4313 46.2811 42.5837C46.1287 42.7361 46.0431 42.9427 46.0431 43.1582V64.9977C46.0431 65.2132 46.1287 65.4198 46.2811 65.5722C46.4334 65.7246 46.6401 65.8102 46.8556 65.8102H52.3523C52.5678 65.8102 52.7745 65.7246 52.9269 65.5722C53.0792 65.4198 53.1648 65.2132 53.1648 64.9977V43.1582C53.1648 42.9427 53.0792 42.7361 52.9269 42.5837C52.7745 42.4313 52.5678 42.3457 52.3523 42.3457ZM51.5398 64.1852H47.6681V43.9707H51.5398V64.1852ZM62.5586 37.1559H57.0619C56.8464 37.1559 56.6397 37.2415 56.4874 37.3938C56.335 37.5462 56.2494 37.7529 56.2494 37.9684V64.9977C56.2494 65.2132 56.335 65.4198 56.4874 65.5722C56.6397 65.7246 56.8464 65.8102 57.0619 65.8102H62.5586C62.774 65.8102 62.9807 65.7246 63.1331 65.5722C63.2855 65.4198 63.3711 65.2132 63.3711 64.9977V37.9684C63.3711 37.7529 63.2855 37.5462 63.1331 37.3938C62.9807 37.2415 62.774 37.1559 62.5586 37.1559ZM61.7461 64.1852H57.8744V38.7809H61.7461V64.1852ZM21.6217 59.0486H16.125C15.9095 59.0486 15.7028 59.1342 15.5505 59.2865C15.3981 59.4389 15.3125 59.6456 15.3125 59.8611V64.9977C15.3125 65.2132 15.3981 65.4198 15.5505 65.5722C15.7028 65.7246 15.9095 65.8102 16.125 65.8102H21.6216C21.8371 65.8102 22.0437 65.7246 22.1961 65.5722C22.3485 65.4198 22.4341 65.2132 22.4341 64.9977V59.8611C22.4341 59.7544 22.4131 59.6487 22.3723 59.5501C22.3314 59.4516 22.2716 59.362 22.1962 59.2866C22.1207 59.2111 22.0311 59.1513 21.9326 59.1104C21.834 59.0696 21.7284 59.0486 21.6217 59.0486ZM20.8092 64.1852H16.9375V60.6736H20.8091L20.8092 64.1852ZM52.5651 28.0301C52.6683 27.9268 52.7418 27.7976 52.7778 27.6561C52.8138 27.5146 52.811 27.366 52.7697 27.226C52.7285 27.0859 52.6502 26.9596 52.5433 26.8602C52.4363 26.7609 52.3045 26.6921 52.1618 26.6613L48.3171 25.8328L50.1362 24.0136C50.2124 23.9383 50.273 23.8487 50.3144 23.7499C50.3559 23.6511 50.3774 23.5451 50.3777 23.438C50.378 23.3309 50.3572 23.2248 50.3163 23.1258C50.2755 23.0268 50.2154 22.9368 50.1397 22.861C50.064 22.7853 49.974 22.7253 49.875 22.6845C49.7759 22.6436 49.6698 22.6228 49.5627 22.6231C49.4556 22.6234 49.3496 22.6449 49.2508 22.6864C49.1521 22.7278 49.0625 22.7884 48.9872 22.8646L47.1681 24.6837L46.3394 20.8389C46.3087 20.6962 46.24 20.5643 46.1406 20.4573C46.0413 20.3503 45.9149 20.272 45.7748 20.2307C45.6347 20.1894 45.4861 20.1867 45.3446 20.2227C45.203 20.2588 45.0738 20.3323 44.9706 20.4356L38.9833 26.423C38.8873 26.5191 38.8168 26.6376 38.7785 26.7679C38.7401 26.8982 38.735 27.036 38.7636 27.1687L39.8131 32.0386L39.0778 32.7739C36.6442 30.6095 33.4411 29.2925 29.9358 29.2925C22.3415 29.2925 16.1632 35.4708 16.1632 43.0651C16.1632 49.1562 20.1381 54.3356 25.6301 56.1475V64.9976C25.6301 65.2131 25.7157 65.4197 25.8681 65.5721C26.0205 65.7245 26.2271 65.8101 26.4426 65.8101H31.9393C32.1548 65.8101 32.3614 65.7245 32.5138 65.5721C32.6662 65.4197 32.7518 65.2131 32.7518 64.9976V56.5477C33.8178 56.3252 34.8534 55.9761 35.8366 55.5077V64.9977C35.8366 65.2132 35.9222 65.4198 36.0745 65.5722C36.2269 65.7246 36.4336 65.8102 36.6491 65.8102H42.1458C42.3613 65.8102 42.568 65.7246 42.7203 65.5722C42.8727 65.4198 42.9583 65.2132 42.9583 64.9977V48.9275C42.9584 48.8094 42.9327 48.6928 42.883 48.5858C42.8333 48.4787 42.7608 48.3839 42.6706 48.3077C43.3387 46.6909 43.7084 44.9204 43.7084 43.0651C43.7084 39.5596 42.3913 36.3567 40.2269 33.9229L40.9621 33.1877L45.8321 34.2373C45.9649 34.2659 46.1027 34.2608 46.233 34.2224C46.3633 34.184 46.4819 34.1136 46.5779 34.0176L52.5651 28.0301ZM40.4452 27.259L45.0649 22.6391L45.8003 26.0511L41.1806 30.671L40.4452 27.259ZM31.1267 64.1852H27.255V56.5749C28.1379 56.7498 29.0358 56.8378 29.9358 56.8377C30.337 56.8377 30.7341 56.8194 31.1268 56.7856V64.1852H31.1267ZM41.3333 64.1853H37.4616V54.5938C38.9899 53.5925 40.3057 52.2993 41.3333 50.7885V64.1853ZM42.0833 43.0651C42.0833 49.7633 36.6339 55.2127 29.9358 55.2127C23.2375 55.2127 17.7882 49.7633 17.7882 43.0651C17.7882 36.3668 23.2375 30.9175 29.9358 30.9175C32.9931 30.9175 35.7898 32.0533 37.9273 33.9243L35.7803 36.0715C34.1965 34.7458 32.1579 33.9464 29.9358 33.9464C24.9077 33.9464 20.8171 38.037 20.8171 43.0651C20.8171 48.0931 24.9077 52.1838 29.9358 52.1838C34.9638 52.1838 39.0544 48.0931 39.0544 43.0651C39.0544 40.843 38.2551 38.8043 36.9293 37.2206L39.0763 35.0734C40.9476 37.211 42.0833 40.0077 42.0833 43.0651ZM32.4801 43.0651C32.4801 44.4681 31.3388 45.6095 29.9358 45.6095C28.5328 45.6095 27.3913 44.4681 27.3913 43.0651C27.3913 41.6621 28.5327 40.5206 29.9358 40.5206C30.3414 40.5206 30.7249 40.6165 31.0656 40.7861L29.3612 42.4905C29.285 42.5658 29.2245 42.6554 29.183 42.7542C29.1416 42.853 29.1201 42.959 29.1198 43.0661C29.1195 43.1732 29.1403 43.2793 29.1812 43.3783C29.222 43.4774 29.282 43.5673 29.3578 43.6431C29.4335 43.7188 29.5235 43.7788 29.6225 43.8196C29.7216 43.8605 29.8277 43.8813 29.9348 43.881C30.0419 43.8807 30.1479 43.8592 30.2467 43.8177C30.3454 43.7763 30.435 43.7157 30.5103 43.6395L32.2146 41.9352C32.3895 42.2862 32.4804 42.673 32.4801 43.0651ZM32.2517 39.6001C31.567 39.1401 30.7606 38.8948 29.9358 38.8957C27.6367 38.8957 25.7663 40.7661 25.7663 43.0652C25.7663 45.3642 27.6367 47.2346 29.9358 47.2346C32.2347 47.2346 34.1051 45.3642 34.1051 43.0652C34.106 42.2403 33.8608 41.4339 33.4008 40.7492L35.7745 38.3755C36.8086 39.6604 37.4294 41.2913 37.4294 43.0652C37.4294 47.1972 34.0677 50.5589 29.9358 50.5589C25.8038 50.5589 22.4421 47.1971 22.4421 43.0652C22.4421 38.9332 25.8038 35.5715 29.9358 35.5715C31.7097 35.5715 33.3406 36.1923 34.6254 37.2264L32.2517 39.6001ZM45.7417 32.5555L42.3297 31.8202L46.9495 27.2003L50.3616 27.9356L45.7417 32.5555Z" fill="#FB7A00"/>
<path d="M65.6018 26.7746L60.5371 16.6399C60.4696 16.5049 60.3659 16.3914 60.2375 16.3121C60.1091 16.2327 59.9612 16.1907 59.8103 16.1907C59.6594 16.1907 59.5114 16.2327 59.3831 16.3121C59.2547 16.3914 59.151 16.5049 59.0835 16.6399L54.0187 26.7746C53.9568 26.8985 53.9276 27.0362 53.9338 27.1745C53.9401 27.3129 53.9816 27.4473 54.0544 27.5651C54.1272 27.6829 54.229 27.7801 54.3499 27.8475C54.4709 27.915 54.6071 27.9503 54.7456 27.9503H56.2353V35.0706C56.2353 35.2861 56.3209 35.4927 56.4733 35.6451C56.6256 35.7975 56.8323 35.8831 57.0478 35.8831H62.573C62.7885 35.8831 62.9951 35.7975 63.1475 35.6451C63.2999 35.4927 63.3855 35.2861 63.3855 35.0706V27.9503H64.875C65.0135 27.9503 65.1497 27.9149 65.2706 27.8475C65.3916 27.7801 65.4933 27.6829 65.5661 27.5651C65.6389 27.4473 65.6804 27.3128 65.6866 27.1745C65.6929 27.0362 65.6637 26.8985 65.6018 26.7746ZM62.5729 26.3254C62.3574 26.3254 62.1507 26.411 61.9984 26.5634C61.846 26.7158 61.7604 26.9225 61.7604 27.1379V34.2582H57.8601V27.1379C57.8601 26.9225 57.7745 26.7158 57.6221 26.5634C57.4697 26.411 57.2631 26.3254 57.0476 26.3254H56.0597L59.8102 18.8208L63.5606 26.3254H62.5729ZM52.3523 42.3457H46.8556C46.6401 42.3457 46.4334 42.4313 46.2811 42.5837C46.1287 42.7361 46.0431 42.9427 46.0431 43.1582V64.9977C46.0431 65.2132 46.1287 65.4198 46.2811 65.5722C46.4334 65.7246 46.6401 65.8102 46.8556 65.8102H52.3523C52.5678 65.8102 52.7745 65.7246 52.9269 65.5722C53.0792 65.4198 53.1648 65.2132 53.1648 64.9977V43.1582C53.1648 42.9427 53.0792 42.7361 52.9269 42.5837C52.7745 42.4313 52.5678 42.3457 52.3523 42.3457ZM51.5398 64.1852H47.6681V43.9707H51.5398V64.1852ZM62.5586 37.1559H57.0619C56.8464 37.1559 56.6397 37.2415 56.4874 37.3938C56.335 37.5462 56.2494 37.7529 56.2494 37.9684V64.9977C56.2494 65.2132 56.335 65.4198 56.4874 65.5722C56.6397 65.7246 56.8464 65.8102 57.0619 65.8102H62.5586C62.774 65.8102 62.9807 65.7246 63.1331 65.5722C63.2855 65.4198 63.3711 65.2132 63.3711 64.9977V37.9684C63.3711 37.7529 63.2855 37.5462 63.1331 37.3938C62.9807 37.2415 62.774 37.1559 62.5586 37.1559ZM61.7461 64.1852H57.8744V38.7809H61.7461V64.1852ZM21.6217 59.0486H16.125C15.9095 59.0486 15.7028 59.1342 15.5505 59.2865C15.3981 59.4389 15.3125 59.6456 15.3125 59.8611V64.9977C15.3125 65.2132 15.3981 65.4198 15.5505 65.5722C15.7028 65.7246 15.9095 65.8102 16.125 65.8102H21.6216C21.8371 65.8102 22.0437 65.7246 22.1961 65.5722C22.3485 65.4198 22.4341 65.2132 22.4341 64.9977V59.8611C22.4341 59.7544 22.4131 59.6487 22.3723 59.5501C22.3314 59.4516 22.2716 59.362 22.1962 59.2866C22.1207 59.2111 22.0311 59.1513 21.9326 59.1104C21.834 59.0696 21.7284 59.0486 21.6217 59.0486ZM20.8092 64.1852H16.9375V60.6736H20.8091L20.8092 64.1852ZM52.5651 28.0301C52.6683 27.9268 52.7418 27.7976 52.7778 27.6561C52.8138 27.5146 52.811 27.366 52.7697 27.226C52.7285 27.0859 52.6502 26.9596 52.5433 26.8602C52.4363 26.7609 52.3045 26.6921 52.1618 26.6613L48.3171 25.8328L50.1362 24.0136C50.2124 23.9383 50.273 23.8487 50.3144 23.7499C50.3559 23.6511 50.3774 23.5451 50.3777 23.438C50.378 23.3309 50.3572 23.2248 50.3163 23.1258C50.2755 23.0268 50.2154 22.9368 50.1397 22.861C50.064 22.7853 49.974 22.7253 49.875 22.6845C49.7759 22.6436 49.6698 22.6228 49.5627 22.6231C49.4556 22.6234 49.3496 22.6449 49.2508 22.6864C49.1521 22.7278 49.0625 22.7884 48.9872 22.8646L47.1681 24.6837L46.3394 20.8389C46.3087 20.6962 46.24 20.5643 46.1406 20.4573C46.0413 20.3503 45.9149 20.272 45.7748 20.2307C45.6347 20.1894 45.4861 20.1867 45.3446 20.2227C45.203 20.2588 45.0738 20.3323 44.9706 20.4356L38.9833 26.423C38.8873 26.5191 38.8168 26.6376 38.7785 26.7679C38.7401 26.8982 38.735 27.036 38.7636 27.1687L39.8131 32.0386L39.0778 32.7739C36.6442 30.6095 33.4411 29.2925 29.9358 29.2925C22.3415 29.2925 16.1632 35.4708 16.1632 43.0651C16.1632 49.1562 20.1381 54.3356 25.6301 56.1475V64.9976C25.6301 65.2131 25.7157 65.4197 25.8681 65.5721C26.0205 65.7245 26.2271 65.8101 26.4426 65.8101H31.9393C32.1548 65.8101 32.3614 65.7245 32.5138 65.5721C32.6662 65.4197 32.7518 65.2131 32.7518 64.9976V56.5477C33.8178 56.3252 34.8534 55.9761 35.8366 55.5077V64.9977C35.8366 65.2132 35.9222 65.4198 36.0745 65.5722C36.2269 65.7246 36.4336 65.8102 36.6491 65.8102H42.1458C42.3613 65.8102 42.568 65.7246 42.7203 65.5722C42.8727 65.4198 42.9583 65.2132 42.9583 64.9977V48.9275C42.9584 48.8094 42.9327 48.6928 42.883 48.5858C42.8333 48.4787 42.7608 48.3839 42.6706 48.3077C43.3387 46.6909 43.7084 44.9204 43.7084 43.0651C43.7084 39.5596 42.3913 36.3567 40.2269 33.9229L40.9621 33.1877L45.8321 34.2373C45.9649 34.2659 46.1027 34.2608 46.233 34.2224C46.3633 34.184 46.4819 34.1136 46.5779 34.0176L52.5651 28.0301ZM40.4452 27.259L45.0649 22.6391L45.8003 26.0511L41.1806 30.671L40.4452 27.259ZM31.1267 64.1852H27.255V56.5749C28.1379 56.7498 29.0358 56.8378 29.9358 56.8377C30.337 56.8377 30.7341 56.8194 31.1268 56.7856V64.1852H31.1267ZM41.3333 64.1853H37.4616V54.5938C38.9899 53.5925 40.3057 52.2993 41.3333 50.7885V64.1853ZM42.0833 43.0651C42.0833 49.7633 36.6339 55.2127 29.9358 55.2127C23.2375 55.2127 17.7882 49.7633 17.7882 43.0651C17.7882 36.3668 23.2375 30.9175 29.9358 30.9175C32.9931 30.9175 35.7898 32.0533 37.9273 33.9243L35.7803 36.0715C34.1965 34.7458 32.1579 33.9464 29.9358 33.9464C24.9077 33.9464 20.8171 38.037 20.8171 43.0651C20.8171 48.0931 24.9077 52.1838 29.9358 52.1838C34.9638 52.1838 39.0544 48.0931 39.0544 43.0651C39.0544 40.843 38.2551 38.8043 36.9293 37.2206L39.0763 35.0734C40.9476 37.211 42.0833 40.0077 42.0833 43.0651ZM32.4801 43.0651C32.4801 44.4681 31.3388 45.6095 29.9358 45.6095C28.5328 45.6095 27.3913 44.4681 27.3913 43.0651C27.3913 41.6621 28.5327 40.5206 29.9358 40.5206C30.3414 40.5206 30.7249 40.6165 31.0656 40.7861L29.3612 42.4905C29.285 42.5658 29.2245 42.6554 29.183 42.7542C29.1416 42.853 29.1201 42.959 29.1198 43.0661C29.1195 43.1732 29.1403 43.2793 29.1812 43.3783C29.222 43.4774 29.282 43.5673 29.3578 43.6431C29.4335 43.7188 29.5235 43.7788 29.6225 43.8196C29.7216 43.8605 29.8277 43.8813 29.9348 43.881C30.0419 43.8807 30.1479 43.8592 30.2467 43.8177C30.3454 43.7763 30.435 43.7157 30.5103 43.6395L32.2146 41.9352C32.3895 42.2862 32.4804 42.673 32.4801 43.0651ZM32.2517 39.6001C31.567 39.1401 30.7606 38.8948 29.9358 38.8957C27.6367 38.8957 25.7663 40.7661 25.7663 43.0652C25.7663 45.3642 27.6367 47.2346 29.9358 47.2346C32.2347 47.2346 34.1051 45.3642 34.1051 43.0652C34.106 42.2403 33.8608 41.4339 33.4008 40.7492L35.7745 38.3755C36.8086 39.6604 37.4294 41.2913 37.4294 43.0652C37.4294 47.1972 34.0677 50.5589 29.9358 50.5589C25.8038 50.5589 22.4421 47.1971 22.4421 43.0652C22.4421 38.9332 25.8038 35.5715 29.9358 35.5715C31.7097 35.5715 33.3406 36.1923 34.6254 37.2264L32.2517 39.6001ZM45.7417 32.5555L42.3297 31.8202L46.9495 27.2003L50.3616 27.9356L45.7417 32.5555Z" stroke="#FB7A00" stroke-width="0.2" mask="url(#path-1-outside-1_2705_31789)"/>
</svg>
