<svg width="70" height="70" viewBox="0 0 70 70" fill="none" xmlns="http://www.w3.org/2000/svg">
<g id="smileyface-transparent-1080x1080 1">
<g id="Group">
<path id="Vector" d="M66.8961 32.4768C66.1041 23.0093 61.219 14.4634 53.438 9.01575C53.1778 8.83341 52.8991 8.6206 52.6019 8.37733C51.974 7.8627 51.3118 7.39452 50.6153 6.97279C47.2125 4.91362 43.4429 3.63288 40.0057 1.63853C39.7672 1.49983 39.5371 1.39418 39.2947 1.37798C38.2181 1.30733 36.7786 1.88159 35.8641 2.50899C35.6716 2.64057 35.2743 2.98862 35.6171 3.20705C35.9105 3.39415 36.2141 3.57023 36.5278 3.73529C36.5325 3.73793 36.5363 3.74203 36.5386 3.74699C36.5408 3.75195 36.5414 3.7575 36.5402 3.76281C36.539 3.76812 36.5362 3.77292 36.5321 3.77649C36.528 3.78005 36.5228 3.7822 36.5174 3.78261C33.5627 3.91656 30.6091 4.13498 27.6566 4.43788C25.0115 4.70946 22.4267 5.0264 19.8211 5.57733C14.3494 6.73427 10.5118 11.6647 8.13565 16.3988C6.6825 19.2941 5.59621 22.2872 4.77565 25.4178C3.38991 30.7041 2.80917 36.0857 3.03343 41.5625C3.23435 46.4807 4.20463 51.4857 6.42908 55.8918C10.773 64.494 20.2826 68.2707 29.3981 68.5391C35.429 68.7167 41.2199 67.6464 46.7711 65.3282C52.6194 62.8866 58.0385 58.9128 61.6195 53.7438C63.001 51.7497 64.0656 49.719 64.8136 47.6519C66.0002 44.3714 66.7164 40.9042 66.9622 37.2504C67.0484 35.9748 67.0108 34.3428 66.9998 33.3835C66.9977 33.2016 66.9665 32.9972 66.9065 32.7704C66.8799 32.6686 66.9052 32.5818 66.8961 32.4768Z" stroke="#9F9F9F" stroke-width="0.12963"/>
<path id="Vector_2" d="M10.435 53.6647C13.2836 58.9691 19.3237 61.7536 24.9425 62.9935C30.4213 64.2016 36.2371 64.258 41.7094 62.9701C53.4662 60.2025 60.9134 48.2455 62.1566 36.8958C63.0711 28.5438 60.5453 20.2663 54.0619 14.6961C53.7503 14.4282 53.4042 14.1702 53.0235 13.9222C51.2765 12.7836 49.4613 11.7528 47.5778 10.8299C47.5544 10.8186 47.5313 10.8188 47.5084 10.8305C46.7306 11.2304 45.7001 11.6316 44.8147 11.6219C44.4842 11.618 44.2761 11.5279 43.9896 11.3782C40.688 9.65607 37.1186 7.39986 33.2505 7.4556C28.482 7.5256 23.8413 8.68384 19.4592 10.57C18.9847 10.7739 18.5939 10.958 18.2867 11.1222C14.3757 13.2099 11.7715 17.3943 10.1822 21.4258C9.27093 23.7384 8.5772 26.1145 8.10102 28.5541C6.87732 34.8262 6.81445 41.3648 8.23324 47.6382C8.73491 49.857 9.46883 51.8658 10.435 53.6647Z" stroke="#9F9F9F" stroke-width="0.12963"/>
<path id="Vector_3" d="M26.404 28.5269C26.4096 28.4971 26.4068 28.4567 26.3956 28.4057C26.0423 26.8003 24.9165 25.6796 23.1756 25.8229C22.1852 25.9039 21.4106 26.2565 20.9868 27.2002C20.5395 28.1966 20.5164 29.2047 20.9174 30.2244C21.5098 31.7307 22.9474 32.2246 24.4563 31.9271C26.0131 31.6206 26.6593 30.0443 26.4033 28.5892C26.3994 28.5684 26.3997 28.5477 26.404 28.5269Z" stroke="#9F9F9F" stroke-width="0.12963"/>
<path id="Vector_4" d="M41.9846 28.4862C41.678 30.5765 43.2025 33.1075 45.6512 32.2001C46.8645 31.7503 47.7492 30.6607 47.8387 29.3683C47.919 28.2075 47.278 27.0577 46.2501 26.5074C44.655 25.6525 42.2607 26.6053 41.9846 28.4862Z" stroke="#9F9F9F" stroke-width="0.12963"/>
<path id="Vector_5" d="M26.868 45.8791C23.37 44.6697 19.3923 42.2605 17.9385 38.6561C17.8069 38.3301 17.6896 37.7947 17.4802 37.3858C17.2676 36.9722 17.0505 36.8206 16.5903 36.9748C16.258 37.0859 16.0897 37.3026 16.0854 37.6249C15.9765 45.5557 23.3758 50.0337 30.2358 51.2535C33.2899 51.7967 36.2659 51.8181 39.164 51.3177C45.348 50.2502 50.7633 46.3931 51.4724 39.7314C51.5074 39.4022 51.2883 39.1474 50.9739 39.1312C50.705 39.117 50.4282 39.3477 50.2817 39.5551C44.8723 47.2253 35.3186 48.7997 26.868 45.8791Z" stroke="#9F9F9F" stroke-width="0.12963"/>
</g>
<path id="Vector_6" d="M10.4483 62.516C9.4774 61.6578 8.55055 60.6305 7.69435 59.5183C6.72731 58.2609 5.91972 56.8388 5.21972 55.4181C5.18213 55.3429 5.17564 55.2502 5.14583 55.1841C4.42509 53.5741 3.84284 51.9155 3.39907 50.2083C3.36537 50.0786 3.34851 49.8881 3.30574 49.7131C2.79283 47.6122 2.44456 45.4206 2.26092 43.1383C2.07361 40.8153 2.11638 38.4152 2.20842 36.0864C2.22268 35.7299 2.28209 35.0278 2.38666 33.9799C2.59969 31.8531 2.9324 29.7452 3.38481 27.656C3.38697 27.6452 3.38503 27.6289 3.37898 27.6073C3.37336 27.5866 3.37271 27.5654 3.37703 27.5438C3.85277 25.2941 4.59944 22.7994 5.26379 20.8698C5.61833 19.8425 6.23148 18.4834 6.74481 17.3044C6.93018 16.8788 7.1149 16.4881 7.29898 16.1325C8.77676 13.2787 10.506 10.6434 12.8743 8.40207C13.2632 8.03392 13.7105 7.69299 14.1408 7.35142C15.7102 6.10352 17.5214 5.2417 19.5743 4.76595C20.3123 4.59484 20.9518 4.4637 21.4928 4.37253C23.8663 3.97262 26.2988 3.69521 28.7812 3.45734C29.2254 3.415 29.5752 3.3841 29.8306 3.36466C30.2583 3.33225 30.6913 3.30244 31.1243 3.24994C31.3569 3.22142 31.5883 3.23114 31.8178 3.20003C32.149 3.15466 32.4769 3.16114 32.8159 3.1242C32.9918 3.10518 33.1689 3.09784 33.3474 3.10216C33.5218 3.10605 33.6818 3.04512 33.8445 3.04707C34.0999 3.04923 34.3546 3.03799 34.6087 3.01336C34.6307 3.0112 34.6424 2.99932 34.6437 2.97771C34.7455 1.65679 36.7547 1.03586 37.782 0.745492C37.8449 0.727992 37.8793 0.676141 37.9318 0.663826C38.64 0.495739 39.3477 0.494875 40.0551 0.661233C40.0881 0.669011 40.1724 0.759752 40.2158 0.784381C40.8765 1.15815 41.5424 1.52262 42.2134 1.87781C43.0301 2.31012 44.0892 2.76707 44.712 3.06003C46.9157 4.09447 48.9205 4.96623 51.2026 6.32086C51.688 6.60929 52.3018 7.07531 52.8683 7.51151C53.9384 8.33596 55.0792 9.10401 56.1045 9.97966C57.3503 11.0426 58.1086 11.7653 59.2403 12.9663C60.7116 14.5277 61.967 16.2479 63.0793 18.0465C63.1324 18.1321 63.2892 18.3298 63.3586 18.4827C63.4035 18.5821 63.4368 18.6506 63.4584 18.6882C63.865 19.3903 64.3591 20.3403 64.9407 21.5381C65.079 21.8228 65.1814 22.0555 65.248 22.2361C65.3404 22.4863 65.3871 22.6125 65.388 22.6147C65.9363 23.955 66.4142 25.3723 66.8217 26.8665C66.9668 27.4006 67.0673 27.9962 67.1522 28.4085C67.3825 29.5276 67.5597 30.6554 67.6837 31.7918C67.7077 32.0102 67.7874 32.2137 67.7958 32.4373C67.8697 34.3295 67.8689 36.2214 67.7932 38.1132C67.7848 38.3219 67.7018 38.5157 67.6837 38.6946C67.5502 40.0012 67.3497 41.2975 67.0822 42.5835C67.0712 42.636 67.0906 42.7351 67.0764 42.8006C66.589 45.0458 65.9246 47.3635 64.9984 49.4694C64.2889 51.082 63.4915 52.5284 62.6061 53.8087C62.4527 54.0304 62.118 54.4955 61.6021 55.2042C60.9838 56.0539 60.2572 56.8829 59.5319 57.6471C56.1765 61.184 52.1016 63.8978 47.7382 65.8371C47.3485 66.0103 47.0788 66.1356 46.9293 66.213C46.7984 66.2804 46.543 66.329 46.3726 66.3964C44.806 67.0135 43.1818 67.6 41.5439 67.9941C39.077 68.5872 36.6504 69.0746 34.1193 69.3027C34.0053 69.3131 33.8335 69.3461 33.7149 69.3487C31.7588 69.3902 30.1799 69.4466 27.8699 69.3448C27.7617 69.3403 27.6508 69.3008 27.5303 69.3014C27.338 69.3027 27.1468 69.293 26.9567 69.2723C24.9202 69.0476 22.9161 68.6582 20.9444 68.1043C20.7902 68.0609 20.6003 68.0401 20.448 67.9928C18.4867 67.3797 16.7434 66.6652 15.2181 65.8494C13.5115 64.9368 11.8723 63.7747 10.4483 62.516ZM66.8955 32.4769C66.1035 23.0094 61.2184 14.4635 53.4374 9.01586C53.1773 8.83352 52.8986 8.62071 52.6013 8.37744C51.9734 7.86281 51.3113 7.39463 50.6147 6.9729C47.2119 4.91373 43.4423 3.63299 40.0052 1.63864C39.7667 1.49994 39.5366 1.39429 39.2942 1.37808C38.2176 1.30744 36.778 1.8817 35.8635 2.5091C35.671 2.64068 35.2737 2.98873 35.6166 3.20716C35.91 3.39426 36.2135 3.57034 36.5272 3.7354C36.532 3.73804 36.5358 3.74214 36.538 3.7471C36.5402 3.75206 36.5408 3.7576 36.5396 3.76292C36.5385 3.76823 36.5356 3.77303 36.5315 3.7766C36.5274 3.78016 36.5223 3.78231 36.5168 3.78271C33.5622 3.91667 30.6085 4.13509 27.656 4.43799C25.0109 4.70957 22.4261 5.02651 19.8206 5.57744C14.3489 6.73438 10.5112 11.6648 8.13509 16.3989C6.68194 19.2942 5.59564 22.2873 4.77509 25.4179C3.38935 30.7042 2.80861 36.0858 3.03287 41.5626C3.23379 46.4808 4.20407 51.4858 6.42851 55.8919C10.7724 64.4941 20.282 68.2709 29.3976 68.5392C35.4284 68.7168 41.2194 67.6465 46.7705 65.3283C52.6188 62.8867 58.038 58.9129 61.619 53.7439C63.0004 51.7498 64.0651 49.7191 64.813 47.652C65.9996 44.3715 66.7158 40.9043 66.9617 37.2505C67.0479 35.9749 67.0103 34.3429 66.9993 33.3836C66.9971 33.2017 66.966 32.9973 66.9059 32.7705C66.8793 32.6687 66.9046 32.5819 66.8955 32.4769Z" fill="white"/>
<path id="Vector_7" d="M53.438 9.01575C61.219 14.4634 66.1041 23.0093 66.8961 32.4768C66.9052 32.5818 66.8799 32.6686 66.9065 32.7704C66.9665 32.9972 66.9977 33.2016 66.9998 33.3835C67.0108 34.3428 67.0484 35.9748 66.9622 37.2504C66.7164 40.9042 66.0002 44.3714 64.8136 47.6519C64.0656 49.719 63.001 51.7497 61.6195 53.7438C58.0385 58.9128 52.6194 62.8866 46.7711 65.3282C41.2199 67.6464 35.429 68.7167 29.3981 68.5391C20.2826 68.2707 10.773 64.494 6.42908 55.8918C4.20463 51.4857 3.23435 46.4807 3.03343 41.5625C2.80917 36.0857 3.38991 30.7041 4.77565 25.4178C5.59621 22.2872 6.6825 19.2941 8.13565 16.3988C10.5118 11.6647 14.3494 6.73427 19.8211 5.57733C22.4267 5.0264 25.0115 4.70946 27.6566 4.43788C30.6091 4.13498 33.5627 3.91656 36.5174 3.78261C36.5228 3.7822 36.528 3.78005 36.5321 3.77649C36.5362 3.77292 36.539 3.76812 36.5402 3.76281C36.5414 3.7575 36.5408 3.75195 36.5386 3.74699C36.5363 3.74203 36.5325 3.73793 36.5278 3.73529C36.2141 3.57023 35.9105 3.39415 35.6171 3.20705C35.2743 2.98862 35.6716 2.64057 35.8641 2.50899C36.7786 1.88159 38.2182 1.30733 39.2947 1.37798C39.5371 1.39418 39.7672 1.49983 40.0057 1.63853C43.4429 3.63288 47.2125 4.91362 50.6153 6.97279C51.3118 7.39452 51.974 7.8627 52.6019 8.37733C52.8991 8.6206 53.1778 8.83341 53.438 9.01575ZM10.4346 53.6647C13.2832 58.9692 19.3233 61.7536 24.9421 62.9935C30.4209 64.2017 36.2368 64.2581 41.7091 62.9702C53.4658 60.2026 60.9131 48.2456 62.1562 36.8958C63.0707 28.5438 60.5449 20.2663 54.0615 14.6961C53.7499 14.4282 53.4038 14.1703 53.0231 13.9222C51.2762 12.7837 49.4609 11.7529 47.5774 10.8299C47.5541 10.8187 47.531 10.8189 47.5081 10.8306C46.7303 11.2305 45.6997 11.6317 44.8144 11.622C44.4838 11.6181 44.2757 11.528 43.9893 11.3783C40.6876 9.65612 37.1182 7.39992 33.2501 7.45566C28.4817 7.52566 23.8409 8.6839 19.4588 10.57C18.9844 10.774 18.5935 10.958 18.2863 11.1222C14.3754 13.2099 11.7711 17.3944 10.1819 21.4258C9.27056 23.7384 8.57682 26.1145 8.10065 28.5542C6.87695 34.8263 6.81408 41.3648 8.23287 47.6383C8.73454 49.8571 9.46846 51.8659 10.4346 53.6647Z" fill="#3E3E3E"/>
<path id="Vector_8" d="M24.942 62.9935C19.3232 61.7536 13.2831 58.9691 10.4345 53.6647C9.46834 51.8658 8.73442 49.857 8.23276 47.6382C6.81396 41.3648 6.87683 34.8263 8.10053 28.5541C8.57671 26.1145 9.27044 23.7384 10.1817 21.4258C11.771 17.3943 14.3753 13.2099 18.2862 11.1222C18.5934 10.958 18.9842 10.7739 19.4587 10.57C23.8408 8.68384 28.4816 7.5256 33.25 7.4556C37.1181 7.39986 40.6875 9.65607 43.9891 11.3782C44.2756 11.5279 44.4837 11.618 44.8142 11.6219C45.6996 11.6316 46.7302 11.2304 47.5079 10.8305C47.5308 10.8188 47.554 10.8186 47.5773 10.8299C49.4608 11.7528 51.2761 12.7836 53.023 13.9222C53.4037 14.1702 53.7498 14.4282 54.0614 14.6961C60.5448 20.2663 63.0706 28.5438 62.1561 36.8958C60.9129 48.2455 53.4657 60.2025 41.709 62.9701C36.2366 64.258 30.4208 64.2016 24.942 62.9935ZM26.4036 28.5269C26.4092 28.4971 26.4064 28.4567 26.3952 28.4057C26.0419 26.8002 24.9161 25.6796 23.1752 25.8228C22.1848 25.9038 21.4103 26.2564 20.9864 27.2001C20.5391 28.1966 20.516 29.2046 20.917 30.2244C21.5094 31.7307 22.947 32.2246 24.4559 31.9271C26.0128 31.6205 26.659 30.0442 26.4029 28.5891C26.3991 28.5684 26.3993 28.5476 26.4036 28.5269ZM41.9844 28.4861C41.6778 30.5763 43.2023 33.1074 45.651 32.2C46.8643 31.7501 47.7491 30.6606 47.8385 29.3682C47.9189 28.2074 47.2778 27.0575 46.2499 26.5073C44.6548 25.6524 42.2605 26.6051 41.9844 28.4861ZM26.8677 45.8791C23.3696 44.6697 19.3919 42.2605 17.9381 38.6562C17.8066 38.3301 17.6892 37.7948 17.4799 37.3858C17.2673 36.9723 17.0502 36.8206 16.59 36.9749C16.2577 37.0859 16.0894 37.3026 16.0851 37.625C15.9762 45.5557 23.3754 50.0338 30.2354 51.2536C33.2895 51.7967 36.2656 51.8181 39.1637 51.3177C45.3477 50.2502 50.7629 46.3931 51.472 39.7314C51.507 39.4022 51.2879 39.1475 50.9736 39.1313C50.7046 39.117 50.4278 39.3477 50.2814 39.5551C44.8719 47.2253 35.3182 48.7997 26.8677 45.8791Z" fill="white"/>
<path id="Vector_9" d="M26.4028 28.5892C26.6589 30.0443 26.0127 31.6206 24.4558 31.9271C22.9469 32.2246 21.5093 31.7307 20.9169 30.2244C20.5159 29.2047 20.539 28.1966 20.9863 27.2002C21.4102 26.2565 22.1847 25.9039 23.1751 25.8229C24.916 25.6796 26.0418 26.8003 26.3951 28.4057C26.4063 28.4567 26.4091 28.4971 26.4035 28.5269C26.3992 28.5477 26.399 28.5684 26.4028 28.5892Z" fill="#3E3E3E"/>
<path id="Vector_10" d="M45.6509 32.2001C43.2022 33.1075 41.6778 30.5765 41.9844 28.4862C42.2605 26.6053 44.6547 25.6525 46.2498 26.5074C47.2778 27.0577 47.9188 28.2075 47.8384 29.3683C47.749 30.6607 46.8643 31.7503 45.6509 32.2001Z" fill="#3E3E3E"/>
<path id="Vector_11" d="M17.9382 38.6561C19.392 42.2605 23.3697 44.6697 26.8678 45.8791C35.3183 48.7997 44.872 47.2253 50.2815 39.5551C50.428 39.3477 50.7047 39.117 50.9737 39.1312C51.288 39.1474 51.5071 39.4022 51.4721 39.7314C50.763 46.3931 45.3478 50.2502 39.1638 51.3177C36.2657 51.8181 33.2896 51.7967 30.2355 51.2535C23.3755 50.0337 15.9763 45.5557 16.0852 37.6249C16.0895 37.3026 16.2578 37.0859 16.5901 36.9748C17.0503 36.8206 17.2674 36.9722 17.48 37.3858C17.6893 37.7947 17.8067 38.3301 17.9382 38.6561Z" fill="#3E3E3E"/>
</g>
</svg>
