<svg width="18" height="16" viewBox="0 0 18 16" fill="none" xmlns="http://www.w3.org/2000/svg">
<path d="M1.57943 7.00901C6.19838 4.99661 9.27839 3.66991 10.8195 3.02892C15.2196 1.19875 16.1339 0.880829 16.7299 0.870219C16.8609 0.868022 17.154 0.900505 17.3438 1.05454C17.5041 1.18461 17.5482 1.36031 17.5693 1.48363C17.5904 1.60694 17.6167 1.88786 17.5958 2.10737C17.3574 4.61273 16.3256 10.6926 15.8007 13.4986C15.5786 14.686 15.1413 15.0841 14.7179 15.1231C13.7978 15.2077 13.0991 14.515 12.208 13.9308C10.8135 13.0167 10.0256 12.4476 8.67204 11.5556C7.10771 10.5248 8.1218 9.95818 9.01331 9.03222C9.24662 8.78989 13.3006 5.10245 13.3791 4.76794C13.3889 4.7261 13.398 4.57015 13.3054 4.48781C13.2127 4.40547 13.076 4.43362 12.9773 4.45602C12.8375 4.48776 10.6097 5.96022 6.29411 8.87339C5.66177 9.3076 5.08902 9.51916 4.57585 9.50807C4.01013 9.49585 2.9219 9.18821 2.11292 8.92524C1.12066 8.60269 0.332043 8.43216 0.400714 7.88439C0.436482 7.59907 0.829388 7.30728 1.57943 7.00901Z" fill="#FB7A00"/>
</svg>
