<svg width="20" height="20" viewBox="0 0 20 20" fill="none" xmlns="http://www.w3.org/2000/svg">
<path d="M19.27 12.0851C20.6968 5.67812 15.0809 -0.147359 8.48911 0.968945C4.90862 -1.25134 0.142834 1.25726 0.142834 5.51794C0.140817 6.47156 0.39622 7.40805 0.882097 8.22861C-0.443648 14.6529 5.21911 20.3921 11.8059 19.1969C16.4707 21.6661 21.6184 16.7549 19.27 12.0851ZM13.0035 15.9491C11.2786 16.6612 8.42504 16.6662 6.70256 15.7642C4.23835 14.4533 3.80958 11.5036 5.9288 11.5036C7.52561 11.5036 7.02044 13.3665 8.63943 14.1255C9.37869 14.4681 10.9706 14.5026 11.8947 13.8791C12.8187 13.2556 12.7103 12.3069 12.2175 11.8461C10.9016 10.6312 7.13873 11.1068 5.41624 8.9876C5.01487 8.44742 4.80082 7.79097 4.8066 7.11802C4.81238 6.44507 5.03769 5.7924 5.44828 5.2592C7.05001 3.19662 11.7493 3.07095 13.7724 4.62835C15.6378 6.0724 15.1351 7.98958 13.627 7.98958C11.8158 7.98958 12.7694 5.61898 9.84443 5.61898C7.72521 5.61898 6.88738 7.12709 8.38315 7.86144C10.4137 8.86685 15.5688 8.52432 15.5688 12.4671C15.5688 14.1009 14.5634 15.3207 13.0035 15.9565V15.9491Z" fill="#FB7A00"/>
</svg>
