<svg width="22" height="17" viewBox="0 0 22 17" fill="none" xmlns="http://www.w3.org/2000/svg">
<path d="M19.1177 4.32292L11 9.47573L2.88232 4.32292V2.26181L11 7.41461L19.1177 2.26181M19.1177 0.200684H2.88232C1.756 0.200684 0.852905 1.11788 0.852905 2.26181V14.6285C0.852905 15.1752 1.06672 15.6994 1.44731 16.0859C1.82789 16.4725 2.34409 16.6897 2.88232 16.6897H19.1177C19.6559 16.6897 20.1721 16.4725 20.5527 16.0859C20.9333 15.6994 21.1471 15.1752 21.1471 14.6285V2.26181C21.1471 1.71516 20.9333 1.19091 20.5527 0.804375C20.1721 0.417841 19.6559 0.200684 19.1177 0.200684Z" fill="#FB7A00"/>
</svg>
