<svg width="20" height="20" viewBox="0 0 20 20" fill="none" xmlns="http://www.w3.org/2000/svg">
<path d="M10.0001 0.442871C4.7215 0.442871 0.441711 4.72266 0.441711 10.0013C0.441711 11.7945 0.945393 13.4663 1.80454 14.9003L0.527277 19.5597L5.28628 18.3105C6.67808 19.1018 8.2848 19.5597 10.0001 19.5597C15.2788 19.5597 19.5586 15.2799 19.5586 10.0013C19.5586 4.72266 15.2788 0.442871 10.0001 0.442871ZM6.72844 5.54257C6.88377 5.54257 7.04336 5.54163 7.18116 5.5488C7.35162 5.55278 7.53715 5.56526 7.71478 5.95795C7.92586 6.42473 8.38548 7.5957 8.44442 7.71438C8.50336 7.83306 8.54513 7.97288 8.46309 8.12821C8.38502 8.28752 8.34443 8.38394 8.22973 8.52492C8.11104 8.66193 7.98099 8.83208 7.87347 8.93564C7.75478 9.05432 7.63222 9.18447 7.76923 9.42102C7.90623 9.65756 8.38204 10.4331 9.08538 11.0592C9.98949 11.8669 10.7522 12.1151 10.9896 12.2338C11.2269 12.3525 11.3644 12.334 11.5014 12.1747C11.6424 12.0194 12.0936 11.4864 12.2529 11.249C12.4082 11.0117 12.5668 11.0527 12.7818 11.1307C13 11.2088 14.1639 11.7822 14.4013 11.9008C14.6387 12.0196 14.7943 12.0783 14.854 12.1747C14.9154 12.2742 14.9154 12.7482 14.7187 13.301C14.5219 13.853 13.5559 14.3868 13.1225 14.4243C12.6852 14.4649 12.2771 14.6208 10.2802 13.8347C7.87146 12.8859 6.3524 10.4188 6.23372 10.2596C6.11503 10.1042 5.26916 8.97689 5.26916 7.81394C5.26916 6.64703 5.88098 6.07554 6.09526 5.83816C6.3135 5.6008 6.56913 5.54257 6.72844 5.54257Z" fill="#FB7A00"/>
</svg>
