<svg width="68" height="68" viewBox="0 0 68 68" fill="none" xmlns="http://www.w3.org/2000/svg">
<path d="M30.0334 39.1001L23.9417 33.0084C23.4222 32.489 22.7611 32.2292 21.9584 32.2292C21.1556 32.2292 20.4945 32.489 19.975 33.0084C19.4556 33.5279 19.1959 34.189 19.1959 34.9917C19.1959 35.7945 19.4556 36.4556 19.975 36.9751L28.05 45.0501C28.6167 45.6167 29.2778 45.9001 30.0334 45.9001C30.7889 45.9001 31.45 45.6167 32.0167 45.0501L48.025 29.0417C48.5445 28.5223 48.8042 27.8612 48.8042 27.0584C48.8042 26.2556 48.5445 25.5945 48.025 25.0751C47.5056 24.5556 46.8445 24.2959 46.0417 24.2959C45.2389 24.2959 44.5778 24.5556 44.0584 25.0751L30.0334 39.1001ZM34 62.3334C30.0806 62.3334 26.3972 61.5892 22.95 60.1007C19.5028 58.6123 16.5042 56.594 13.9542 54.0459C11.4042 51.4959 9.38591 48.4973 7.89935 45.0501C6.4128 41.6029 5.66858 37.9195 5.66669 34.0001C5.66669 30.0806 6.41091 26.3973 7.89935 22.9501C9.3878 19.5029 11.4061 16.5042 13.9542 13.9542C16.5042 11.4042 19.5028 9.38597 22.95 7.89942C26.3972 6.41286 30.0806 5.66864 34 5.66675C37.9195 5.66675 41.6028 6.41097 45.05 7.89942C48.4972 9.38786 51.4959 11.4061 54.0459 13.9542C56.5959 16.5042 58.6151 19.5029 60.1035 22.9501C61.592 26.3973 62.3352 30.0806 62.3334 34.0001C62.3334 37.9195 61.5891 41.6029 60.1007 45.0501C58.6122 48.4973 56.594 51.4959 54.0459 54.0459C51.4959 56.5959 48.4972 58.6151 45.05 60.1036C41.6028 61.592 37.9195 62.3353 34 62.3334Z" fill="#00CE7E"/>
</svg>
