<svg width="212" height="40" viewBox="0 0 212 40" fill="none" xmlns="http://www.w3.org/2000/svg">
<path d="M21.3702 1.09491L13.8702 8.59491H9.42021C9.11786 8.59491 8.8279 8.71501 8.61411 8.9288C8.40032 9.14259 8.28021 9.43257 8.28021 9.73492V14.1899L0.780212 21.6899V6.68991C0.782165 5.95065 0.930207 5.21908 1.21583 4.53723C1.50145 3.85538 1.91902 3.2367 2.44454 2.71676C2.97005 2.19683 3.59314 1.78587 4.278 1.50754C4.96286 1.2292 5.69598 1.08897 6.43521 1.09491H21.3702Z" fill="white"/>
<path d="M19.57 32.1899V38.9399H6.43502C4.94843 38.9373 3.52355 38.3452 2.47284 37.2936C1.42213 36.2419 0.831339 34.8165 0.830017 33.33V32.1899H19.57Z" fill="white"/>
<path d="M38.6752 20.6896V33.3146C38.676 34.0762 38.5212 34.83 38.2202 35.5296C38.1302 35.7363 38.0302 35.9363 37.9202 36.1296C37.8095 36.3156 37.6894 36.4959 37.5602 36.6696C37.0404 37.3729 36.3619 37.9437 35.58 38.3355C34.7981 38.7273 33.9348 38.9291 33.0602 38.9246H22.2752L29.7752 31.6896L29.8252 31.6396C30.1457 31.3043 30.3247 30.8584 30.3252 30.3946V23.7696C30.3252 23.3585 30.1619 22.9643 29.8712 22.6736C29.5805 22.3829 29.1863 22.2196 28.7752 22.2196H24.2752H14.6552L18.9002 17.9746L19.2202 17.6546L19.8402 17.0346C20.4802 16.3946 21.1302 15.7496 21.7752 15.0996H33.0902C34.5699 15.1075 35.9866 15.6991 37.0325 16.7459C38.0783 17.7927 38.6686 19.2099 38.6752 20.6896Z" fill="white"/>
<path d="M38.6754 6.68985V16.0399C38.532 15.8699 38.382 15.7032 38.2254 15.5399C37.5486 14.8612 36.7443 14.3232 35.8587 13.9568C34.9731 13.5903 34.0238 13.4028 33.0654 13.4048H29.6904C29.6904 10.9048 29.6904 8.40485 29.6904 5.93484C29.6904 5.16985 29.6904 4.16985 29.7304 3.28485C29.7304 2.49485 29.7654 1.73484 29.7704 1.08984H33.0654C34.5511 1.09116 35.9757 1.68126 37.0273 2.7309C38.0788 3.78053 38.6714 5.20413 38.6754 6.68985Z" fill="white"/>
<path d="M28.64 30.4101C28.6382 30.4415 28.6259 30.4715 28.605 30.4951L21.255 37.5801V30.7751C21.255 30.7021 21.226 30.6322 21.1745 30.5806C21.1229 30.529 21.053 30.5001 20.98 30.5001H0.830017V24.0001L1.27002 23.5601L23.77 1.06006H28.1C28.1 1.71006 28.1 2.47506 28.06 3.22006C28.06 4.16006 28.02 5.13005 28.02 5.90005C28.02 8.40005 28.02 10.9001 28.02 13.4001H21.68C21.24 13.4001 21 13.4551 20.865 13.5901C17.49 16.9701 14.145 20.3151 10.925 23.5251C10.8983 23.5503 10.8784 23.5819 10.8671 23.6168C10.8557 23.6517 10.8533 23.689 10.86 23.7251C10.8651 23.761 10.8799 23.7949 10.9028 23.8231C10.9257 23.8513 10.9559 23.8727 10.99 23.8851C11.0813 23.9226 11.1837 23.9226 11.275 23.8851L28.615 23.9101L28.64 30.4101Z" fill="white"/>
<path d="M59.3505 28.8252C56.0591 28.8827 52.8701 27.6808 50.4355 25.4651L53.1655 22.1952C55.2255 23.8952 57.3172 24.7451 59.4405 24.7451C60.2175 24.7872 60.9896 24.5994 61.6605 24.2052C61.9112 24.0467 62.1172 23.8267 62.259 23.5662C62.4007 23.3058 62.4736 23.0134 62.4706 22.7168C62.4676 22.4202 62.3888 22.1294 62.2418 21.8718C62.0948 21.6142 61.8843 21.3985 61.6305 21.2451C60.5618 20.6861 59.421 20.2773 58.2405 20.0301C57.2515 19.7955 56.278 19.4999 55.3255 19.1451C54.5752 18.8495 53.8647 18.4616 53.2105 17.9901C52.5602 17.5347 52.0509 16.9058 51.7405 16.1751C51.4111 15.3402 51.2529 14.4475 51.2755 13.5501C51.246 12.6784 51.4158 11.8114 51.7719 11.0151C52.128 10.2189 52.6611 9.51437 53.3305 8.95517C54.8279 7.75202 56.7113 7.13366 58.6305 7.21515C61.4638 7.16392 64.2249 8.11086 66.4305 9.89016L64.0305 13.3902C62.0505 12.0102 60.2305 11.3202 58.5705 11.3202C57.8674 11.2675 57.1661 11.4429 56.5705 11.8202C56.3483 11.971 56.167 12.1747 56.0431 12.413C55.9192 12.6513 55.8564 12.9166 55.8605 13.1851C55.8474 13.4967 55.9226 13.8056 56.0774 14.0763C56.2322 14.347 56.4603 14.5685 56.7355 14.7151C57.905 15.2625 59.1328 15.6751 60.3955 15.9452C62.6755 16.5452 64.3555 17.3152 65.4355 18.2552C66.5155 19.1952 67.0555 20.5468 67.0555 22.3101C67.0997 23.2173 66.9315 24.1223 66.5643 24.953C66.1971 25.7837 65.6411 26.5172 64.9405 27.0951C63.5338 28.2485 61.6705 28.8252 59.3505 28.8252Z" fill="white"/>
<path d="M73.9948 33.4149C72.5691 33.4188 71.1692 33.0352 69.9448 32.3049L71.4748 29.0049C72.0557 29.3877 72.7297 29.6055 73.4248 29.6349C73.7651 29.6422 74.0996 29.5456 74.3836 29.3581C74.6677 29.1705 74.8878 28.9008 75.0148 28.5849L68.7148 12.4399H73.5348L77.1948 23.3949L80.6948 12.4399H85.4348L79.2498 28.9399C78.6298 30.6066 77.9298 31.7733 77.1498 32.4399C76.2511 33.1367 75.1299 33.4832 73.9948 33.4149Z" fill="white"/>
<path d="M88.1601 28.5251V12.4401H92.7251V14.7201C94.0584 13.0001 95.6284 12.1401 97.4351 12.1401C98.1771 12.1006 98.9189 12.2222 99.6094 12.4967C100.3 12.7711 100.923 13.1919 101.435 13.7301C102.395 14.7901 102.875 16.2501 102.875 18.1101V28.5251H98.3351V19.5501C98.3944 18.6799 98.1388 17.8175 97.6151 17.1201C97.3601 16.8357 97.0443 16.6125 96.6911 16.467C96.3379 16.3216 95.9564 16.2577 95.5751 16.2801C95.1875 16.2608 94.8003 16.3259 94.4403 16.4709C94.0803 16.616 93.7561 16.8374 93.4901 17.1201C92.9389 17.8052 92.6658 18.6727 92.7251 19.5501V28.5251H88.1601Z" fill="white"/>
<path d="M114.45 28.885C113.336 28.9179 112.227 28.7188 111.194 28.3005C110.161 27.8822 109.227 27.2537 108.45 26.455C107.695 25.6382 107.108 24.6806 106.723 23.637C106.338 22.5934 106.162 21.4841 106.206 20.3726C106.249 19.2611 106.511 18.1691 106.977 17.1589C107.443 16.1487 108.103 15.2401 108.92 14.485C109.737 13.7299 110.694 13.1431 111.738 12.758C112.781 12.373 113.891 12.1973 115.002 12.2409C116.114 12.2845 117.206 12.5467 118.216 13.0124C119.226 13.478 120.135 14.1382 120.89 14.955L118.22 17.655C117.227 16.65 115.877 16.0785 114.465 16.065C113.932 16.0554 113.405 16.1664 112.922 16.3899C112.439 16.6133 112.012 16.9432 111.675 17.355C110.929 18.232 110.533 19.354 110.565 20.505C110.528 21.6655 110.929 22.7974 111.69 23.6749C112.057 24.0935 112.512 24.4251 113.024 24.6456C113.535 24.8661 114.088 24.9701 114.645 24.95C115.905 24.95 117.145 24.38 118.34 23.24L121.01 25.94C120.212 26.8366 119.256 27.5789 118.19 28.13C117.018 28.6657 115.738 28.9241 114.45 28.885Z" fill="white"/>
<path d="M133.9 28.5252V23.9952H123.635L122.885 20.7202L134.41 7.36523H138.31V20.2402H141.13V23.9952H138.31V28.5252H133.9ZM128.315 20.2402H133.9V13.6902L128.315 20.2402Z" fill="white"/>
<path d="M150.035 28.5246V11.7796H143.655V7.51465H161.06V11.7796H154.67V28.5246H150.035Z" fill="white"/>
<path d="M168.595 28.885C167.484 28.923 166.377 28.7367 165.341 28.3373C164.304 27.9378 163.358 27.3333 162.56 26.5599C161.768 25.7699 161.149 24.8245 160.741 23.7832C160.333 22.7419 160.146 21.6274 160.19 20.5099C160.136 18.3121 160.943 16.1803 162.44 14.5699C163.16 13.7784 164.043 13.1516 165.027 12.7323C166.012 12.3129 167.075 12.1109 168.145 12.14C170.685 12.14 172.625 12.9733 173.965 14.64C175.333 16.4148 176.04 18.6105 175.965 20.8499C175.965 21.0949 175.965 21.4949 175.905 22.0549H164.72C164.88 22.9708 165.36 23.8 166.075 24.3949C166.815 24.9563 167.727 25.2427 168.655 25.205C170.121 25.1861 171.521 24.5938 172.555 23.5549L175.165 25.8649C174.384 26.8488 173.382 27.6349 172.241 28.1596C171.099 28.6842 169.85 28.9328 168.595 28.885ZM164.66 19.2199H171.535C171.448 18.2905 171.064 17.4138 170.44 16.7199C170.145 16.4118 169.787 16.1696 169.392 16.0093C168.996 15.8491 168.571 15.7743 168.145 15.7899C167.72 15.7779 167.297 15.8528 166.903 16.0102C166.508 16.1675 166.15 16.404 165.85 16.705C165.199 17.3979 164.783 18.2776 164.66 19.2199Z" fill="white"/>
<path d="M186.96 28.885C185.847 28.9179 184.738 28.7188 183.705 28.3005C182.672 27.8822 181.738 27.2537 180.96 26.455C180.205 25.6382 179.619 24.6806 179.234 23.637C178.848 22.5934 178.673 21.4841 178.716 20.3726C178.76 19.2611 179.022 18.1691 179.488 17.1589C179.954 16.1487 180.614 15.2401 181.43 14.485C182.247 13.7299 183.205 13.1431 184.248 12.758C185.292 12.373 186.401 12.1973 187.513 12.2409C188.624 12.2845 189.716 12.5467 190.727 13.0124C191.737 13.478 192.645 14.1382 193.4 14.955L190.73 17.655C189.738 16.6491 188.388 16.0774 186.975 16.065C186.443 16.0554 185.916 16.1664 185.432 16.3899C184.949 16.6133 184.523 16.9432 184.185 17.355C183.439 18.232 183.044 19.354 183.075 20.505C183.038 21.6655 183.44 22.7974 184.2 23.6749C184.568 24.0935 185.023 24.4251 185.534 24.6456C186.045 24.8661 186.599 24.9701 187.155 24.95C188.415 24.95 189.655 24.38 190.85 23.24L193.52 25.94C192.723 26.8366 191.767 27.5789 190.7 28.13C189.528 28.6657 188.249 28.9241 186.96 28.885Z" fill="white"/>
<path d="M196.505 28.5252V6.61523H201.065V14.7202C202.398 13.0002 203.97 12.1403 205.78 12.1403C206.522 12.1007 207.264 12.2224 207.954 12.4968C208.645 12.7713 209.267 13.1921 209.78 13.7303C210.74 14.7903 211.22 16.2503 211.22 18.1103V28.5252H206.66V19.5502C206.719 18.6801 206.464 17.8176 205.94 17.1202C205.685 16.8358 205.369 16.6126 205.016 16.4672C204.663 16.3218 204.281 16.2579 203.9 16.2802C203.512 16.2609 203.125 16.3261 202.765 16.4711C202.405 16.6161 202.081 16.8376 201.815 17.1202C201.259 17.803 200.983 18.6718 201.045 19.5502V28.5252H196.505Z" fill="white"/>
</svg>
