<svg width="101" height="100" viewBox="0 0 101 100" fill="none" xmlns="http://www.w3.org/2000/svg">
<circle cx="50.3335" cy="50" r="50" fill="#EFEFEF"/>
<path d="M54.5592 49.838L53.2847 50.7341C53.2211 50.776 53.1693 50.8336 53.1342 50.9011C53.099 50.9687 53.0817 51.0441 53.0838 51.1203L53.1456 54.523C53.1487 54.622 53.1321 54.7207 53.0968 54.8133C53.0615 54.9059 53.0082 54.9905 52.9399 55.0624C52.8717 55.1342 52.7899 55.1918 52.6992 55.2318C52.6086 55.2718 52.5109 55.2935 52.4118 55.2955H47.9508C47.8484 55.2955 47.7501 55.2548 47.6777 55.1823C47.6053 55.1099 47.5646 55.0117 47.5646 54.9092C47.5646 53.2948 48.2057 50.3633 46.0544 49.8882C46.0293 49.8826 46.0033 49.882 45.9779 49.8865C45.9526 49.8911 45.9284 49.9007 45.9068 49.9147C45.8852 49.9287 45.8667 49.9469 45.8522 49.9683C45.8378 49.9896 45.8277 50.0136 45.8227 50.0388C45.8208 50.0503 45.8208 50.0621 45.8227 50.0736C45.6875 53.4647 41.3076 53.7776 41.3462 51.8039C41.3656 50.8074 42.6208 51.1357 43.092 51.3366C43.2857 51.4262 43.507 51.4354 43.7075 51.3623C43.9079 51.2892 44.0713 51.1397 44.1619 50.9465C44.1597 50.9337 44.1597 50.9206 44.1619 50.9079C44.5481 49.838 44.1619 49.6796 43.4551 49.2123C37.2522 45.0294 32.9998 39.2707 30.1108 32.4073C29.2804 30.4337 33.3242 26.5211 35.406 27.3438C36.6079 27.8162 37.6511 28.6198 38.4147 29.6612C38.4383 29.6907 38.4724 29.7099 38.5098 29.715C38.5472 29.72 38.5851 29.7104 38.6156 29.6883C38.6436 29.6644 38.6627 29.6317 38.6697 29.5956L38.9941 27.1662C38.9998 27.1194 39.0228 27.0765 39.0585 27.0458C39.0942 27.0151 39.1401 26.9988 39.1872 27.0001H61.4998C61.563 26.9997 61.6241 27.0228 61.6712 27.0649C61.7183 27.107 61.748 27.1651 61.7547 27.228L61.9633 29.3175C61.9711 29.3937 62.0088 29.4638 62.0682 29.5123C62.1276 29.5608 62.2037 29.5838 62.28 29.5762C62.3199 29.5721 62.3585 29.5601 62.3937 29.5409C62.4288 29.5216 62.4598 29.4956 62.4847 29.4642C63.4542 28.209 65.5321 26.5211 67.2663 27.4945C69.5141 28.7652 71.4608 30.9165 70.1244 33.6162C66.7758 40.3714 63.0139 45.5122 56.6063 49.6333C56.5506 49.6674 56.5034 49.7136 56.4679 49.7684C56.4325 49.8232 56.4098 49.8853 56.4016 49.95C56.3521 50.2243 56.3813 50.507 56.4859 50.7654C56.5905 51.0238 56.7661 51.2473 56.9925 51.41C57.0347 51.4439 57.0843 51.4676 57.1373 51.479C57.1903 51.4904 57.2452 51.4892 57.2976 51.4756L58.5799 51.1589C58.6448 51.1396 58.7132 51.1352 58.7801 51.1458C58.8469 51.1565 58.9105 51.1821 58.9661 51.2207C59.5996 51.6069 59.5378 52.306 58.885 52.6614C56.6912 53.8664 55.0459 52.1979 54.8837 49.977C54.8451 49.7582 54.7369 49.7118 54.5592 49.838ZM32.7024 30.0899C29.5121 34.184 40.006 44.7668 43.0688 47.2464C43.1093 47.2809 43.1613 47.2991 43.2145 47.2971C43.2676 47.2952 43.3182 47.2734 43.3561 47.236C43.3939 47.1986 43.4164 47.1484 43.419 47.0952C43.4216 47.0421 43.4041 46.9899 43.3701 46.949C40.96 43.8862 38.268 38.6643 38.604 34.7247C38.604 34.5934 38.5577 34.5355 38.4263 34.5471L37.314 34.6745C37.1614 34.6919 37.0081 34.6479 36.8879 34.5523C36.7676 34.4567 36.6903 34.3173 36.6728 34.1647C36.6566 34.0443 36.6811 33.9219 36.7424 33.8171C37.6616 32.1691 37.5843 30.8482 36.5106 29.8543C35.3056 28.7265 33.7375 28.742 32.7024 30.0899ZM60.8973 44.3805C63.5584 41.6769 66.235 38.2008 67.8031 34.7247C68.3413 33.5377 68.6219 32.7382 68.6451 32.3262C68.958 26.7181 60.9823 29.2364 63.937 33.6471C63.9997 33.7428 64.0245 33.8585 64.0065 33.9716C63.8327 34.968 63.0872 34.5973 62.4152 34.493C62.3919 34.4851 62.3669 34.4831 62.3427 34.4874C62.3184 34.4917 62.2956 34.502 62.2763 34.5174C62.2571 34.5327 62.2421 34.5527 62.2326 34.5755C62.2231 34.5982 62.2195 34.623 62.2221 34.6475C61.9271 38.8249 60.4212 42.8258 57.8886 46.1611C56.9539 47.4047 57.1187 47.5721 58.3829 46.6632C59.2796 45.9694 60.1203 45.2061 60.8973 44.3805ZM52.4002 35.0685C52.3768 35.0668 52.3543 35.0587 52.3353 35.0451C52.3162 35.0314 52.3012 35.0128 52.2921 34.9912L50.3918 30.6422C50.3775 30.6114 50.3518 30.5874 50.3201 30.5752C50.2884 30.5629 50.2532 30.5634 50.2219 30.5766C50.2066 30.5828 50.1928 30.5923 50.1815 30.6043C50.1702 30.6162 50.1616 30.6305 50.1562 30.6461L48.5379 34.9951C48.5283 35.0182 48.5123 35.0382 48.4918 35.0526C48.4713 35.0669 48.4471 35.0751 48.422 35.0762L43.7641 35.2886C43.7473 35.2891 43.7308 35.2929 43.7156 35.2998C43.7003 35.3067 43.6865 35.3165 43.675 35.3287C43.6636 35.3409 43.6546 35.3552 43.6487 35.3709C43.6427 35.3865 43.6399 35.4032 43.6405 35.4199C43.6417 35.4377 43.6464 35.455 43.6544 35.4709C43.6624 35.4868 43.6734 35.501 43.6868 35.5126L47.2286 38.56C47.2458 38.5759 47.2584 38.5961 47.2652 38.6185C47.272 38.6409 47.2727 38.6647 47.2672 38.6875L46.2089 43.1291C46.2034 43.1538 46.2053 43.1795 46.2144 43.2031C46.2236 43.2266 46.2395 43.2469 46.2602 43.2614C46.2809 43.2759 46.3054 43.2839 46.3307 43.2844C46.3559 43.2849 46.3808 43.2779 46.402 43.2643L50.303 40.8774C50.3229 40.8659 50.3456 40.8598 50.3686 40.8598C50.3917 40.8598 50.4143 40.8659 50.4343 40.8774L54.2966 43.2411C54.3105 43.2503 54.326 43.2566 54.3424 43.2597C54.3587 43.2627 54.3755 43.2624 54.3917 43.2588C54.4079 43.2552 54.4233 43.2483 54.4368 43.2387C54.4503 43.229 54.4617 43.2167 54.4704 43.2025C54.4837 43.1704 54.4837 43.1343 54.4704 43.1021L53.4469 38.7029C53.4413 38.6808 53.4419 38.6575 53.4487 38.6357C53.4555 38.6138 53.4683 38.5943 53.4855 38.5793L56.9886 35.5204C57.012 35.4959 57.0251 35.4634 57.0251 35.4296C57.0251 35.3958 57.012 35.3633 56.9886 35.3388C56.9771 35.3256 56.9629 35.3149 56.9469 35.3076C56.9309 35.3003 56.9135 35.2964 56.8959 35.2963L52.4002 35.0685Z" fill="#FB7A00"/>
<path d="M54.5329 56.7396L46.0281 56.7544C45.8745 56.7547 45.7502 56.8794 45.7505 57.033L45.7542 59.1881C45.7545 59.3417 45.8792 59.466 46.0328 59.4657L54.5376 59.4509C54.6912 59.4506 54.8155 59.3259 54.8152 59.1723L54.8115 57.0172C54.8112 56.8636 54.6865 56.7393 54.5329 56.7396Z" fill="#0D3642"/>
<path d="M59.1009 60.9501L61.8702 71.8418C61.8784 71.8756 61.8728 71.9113 61.8547 71.941C61.8366 71.9707 61.8074 71.992 61.7736 72.0002H39.1327C39.0979 72.0002 39.0645 71.9864 39.0399 71.9617C39.0153 71.9371 39.0014 71.9037 39.0014 71.8689C38.9995 71.8587 38.9995 71.8482 39.0014 71.838L41.7475 60.954C41.753 60.9253 41.7684 60.8996 41.791 60.8812C41.8136 60.8628 41.842 60.853 41.8711 60.8535H58.9696C58.999 60.8532 59.0278 60.8624 59.0515 60.8798C59.0752 60.8972 59.0925 60.9219 59.1009 60.9501ZM55.7677 64.1481C55.7677 64.0979 55.7478 64.0498 55.7123 64.0143C55.6768 63.9788 55.6287 63.9588 55.5785 63.9588H45.1889C45.1387 63.9588 45.0905 63.9788 45.055 64.0143C45.0195 64.0498 44.9996 64.0979 44.9996 64.1481V65.1523C44.9996 65.2025 45.0195 65.2506 45.055 65.2861C45.0905 65.3216 45.1387 65.3416 45.1889 65.3416H55.5708C55.621 65.3416 55.6691 65.3216 55.7046 65.2861C55.7401 65.2506 55.76 65.2025 55.76 65.1523L55.7677 64.1481ZM55.7677 67.5392C55.7677 67.4685 55.7397 67.4008 55.6897 67.3508C55.6397 67.3008 55.5719 67.2727 55.5012 67.2727H45.2236C45.1529 67.2727 45.0851 67.3008 45.0352 67.3508C44.9852 67.4008 44.9571 67.4685 44.9571 67.5392V68.358C44.9571 68.4287 44.9852 68.4965 45.0352 68.5465C45.0851 68.5965 45.1529 68.6245 45.2236 68.6245H55.5051C55.5758 68.6245 55.6436 68.5965 55.6935 68.5465C55.7435 68.4965 55.7716 68.4287 55.7716 68.358L55.7677 67.5392Z" fill="#0D3642"/>
</svg>
