<svg width="80" height="80" viewBox="0 0 80 80" fill="none" xmlns="http://www.w3.org/2000/svg">
<rect width="80" height="80" fill="#E7E7E7"/>
<path d="M35.4979 36.5897L35.9848 35.7545C35.9899 35.7459 35.9926 35.7361 35.9926 35.7261C35.9926 35.7161 35.9899 35.7063 35.9848 35.6977L35.2883 34.4902C35.2811 34.4776 35.2791 34.4626 35.2828 34.4485C35.2864 34.4345 35.2955 34.4224 35.3079 34.4149L38.9697 32.3023C38.9761 32.2986 38.9831 32.2962 38.9904 32.2953C38.9977 32.2943 39.0052 32.2948 39.0123 32.2967C39.0194 32.2987 39.026 32.302 39.0318 32.3065C39.0377 32.311 39.0425 32.3167 39.0461 32.3231L39.7471 33.5284C39.752 33.5367 39.759 33.5436 39.7675 33.5484C39.7759 33.5532 39.7854 33.5557 39.7951 33.5557H40.7733C40.783 33.5557 40.7925 33.5532 40.801 33.5484C40.8094 33.5436 40.8164 33.5367 40.8214 33.5284L41.519 32.3198C41.5263 32.3071 41.5383 32.2979 41.5524 32.294C41.5665 32.2901 41.5816 32.2919 41.5943 32.2991L45.2681 34.4127C45.2745 34.4164 45.28 34.4213 45.2844 34.4272C45.2888 34.4331 45.292 34.4397 45.2938 34.4468C45.2957 34.4539 45.2961 34.4613 45.295 34.4686C45.294 34.4758 45.2915 34.4828 45.2878 34.4891L44.5803 35.7021C44.5752 35.7107 44.5725 35.7205 44.5725 35.7305C44.5725 35.7404 44.5752 35.7503 44.5803 35.7588L45.0618 36.5897C45.0667 36.598 45.0738 36.6049 45.0822 36.6097C45.0906 36.6145 45.1001 36.617 45.1098 36.617H46.5269C46.5417 36.617 46.5559 36.6228 46.5663 36.6333C46.5768 36.6437 46.5826 36.6579 46.5826 36.6726V40.901C46.5826 40.9158 46.5768 40.93 46.5663 40.9404C46.5559 40.9509 46.5417 40.9567 46.5269 40.9567H45.1164C45.1066 40.9568 45.097 40.9595 45.0885 40.9645C45.0801 40.9694 45.0731 40.9766 45.0683 40.9851L44.5836 41.8258C44.5789 41.8341 44.5764 41.8435 44.5764 41.8531C44.5764 41.8626 44.5789 41.872 44.5836 41.8804L45.2812 43.0933C45.2884 43.1061 45.2902 43.1211 45.2863 43.1352C45.2824 43.1493 45.2731 43.1613 45.2605 43.1686L41.5954 45.2845C41.5891 45.2882 41.582 45.2906 41.5747 45.2915C41.5674 45.2925 41.56 45.292 41.5529 45.29C41.5458 45.2881 41.5391 45.2848 41.5333 45.2803C41.5275 45.2758 41.5226 45.2701 41.519 45.2637L40.8235 44.0584C40.8186 44.0501 40.8116 44.0432 40.8032 44.0384C40.7947 44.0336 40.7852 44.0311 40.7755 44.0311L39.7918 44.0278C39.7818 44.0277 39.772 44.0303 39.7634 44.0353C39.7547 44.0403 39.7476 44.0475 39.7427 44.0562L39.0516 45.2594C39.0443 45.272 39.0323 45.2813 39.0182 45.2852C39.0041 45.289 38.989 45.2872 38.9763 45.2801L35.3079 43.1686C35.2953 43.1613 35.286 43.1493 35.2821 43.1352C35.2783 43.1211 35.2801 43.1061 35.2872 43.0933L35.9816 41.8836C35.9862 41.8753 35.9887 41.8659 35.9887 41.8563C35.9887 41.8468 35.9862 41.8374 35.9816 41.829L35.5012 40.9851C35.4963 40.9764 35.4891 40.9692 35.4805 40.9642C35.4719 40.9592 35.462 40.9566 35.4521 40.9567H34.0557C34.0409 40.9567 34.0268 40.9509 34.0163 40.9404C34.0059 40.93 34 40.9158 34 40.901V36.6726C34 36.6579 34.0059 36.6437 34.0163 36.6333C34.0268 36.6228 34.0409 36.617 34.0557 36.617H35.4499C35.4596 36.617 35.4691 36.6145 35.4775 36.6097C35.4859 36.6049 35.493 36.598 35.4979 36.5897ZM36.3189 37.8725H35.3101C35.2956 37.8725 35.2818 37.8782 35.2715 37.8885C35.2613 37.8987 35.2555 37.9126 35.2555 37.9271V39.5887C35.2555 39.6186 35.2674 39.6472 35.2885 39.6683C35.3096 39.6893 35.3382 39.7012 35.368 39.7012H36.3135C36.3564 39.7012 36.3841 39.7219 36.3964 39.7634C36.6082 40.4891 36.9747 41.123 37.4958 41.6653C37.5242 41.6951 37.5282 41.7275 37.5078 41.7624L37.0111 42.6217C36.9885 42.6602 36.9965 42.6908 37.0351 42.7134L38.4992 43.5551C38.5385 43.5777 38.5694 43.5693 38.592 43.53L39.0582 42.7287C39.1018 42.6537 39.1659 42.6264 39.2503 42.6468C39.9374 42.8156 40.6245 42.8164 41.3116 42.649C41.348 42.6402 41.3863 42.6433 41.4209 42.6578C41.4555 42.6723 41.4845 42.6975 41.5037 42.7297L41.9819 43.542C41.9901 43.5556 42.0033 43.5653 42.0186 43.5692C42.0339 43.5731 42.0502 43.5708 42.0638 43.5628L43.4962 42.733C43.5202 42.7191 43.5377 42.6962 43.5449 42.6694C43.552 42.6426 43.5483 42.614 43.5344 42.59L43.054 41.7537C43.0468 41.7408 43.044 41.7259 43.0459 41.7112C43.0479 41.6964 43.0546 41.6826 43.0649 41.6718C43.5919 41.1223 43.9613 40.4822 44.1731 39.7514C44.1833 39.7179 44.2055 39.7012 44.2397 39.7012H45.1939C45.2689 39.7012 45.306 39.6637 45.3053 39.5887L45.2987 37.9915C45.298 37.9122 45.2583 37.8725 45.1797 37.8725H44.2561C44.2124 37.8725 44.184 37.8514 44.1709 37.8092C43.9569 37.1003 43.5974 36.4769 43.0922 35.939C43.0734 35.9188 43.0616 35.8929 43.0587 35.8651C43.0557 35.8374 43.0617 35.8093 43.0759 35.785L43.5377 34.9979C43.5741 34.9353 43.561 34.8858 43.4984 34.8494L42.0965 34.0426C42.0844 34.0356 42.0709 34.031 42.057 34.0291C42.043 34.0273 42.0288 34.0282 42.0152 34.0319C42.0017 34.0355 41.9889 34.0418 41.9778 34.0504C41.9666 34.059 41.9573 34.0697 41.9503 34.0819L41.483 34.8909C41.4715 34.9102 41.4543 34.9253 41.4337 34.9341C41.4131 34.943 41.3902 34.945 41.3683 34.94C40.6623 34.7726 39.9563 34.769 39.2503 34.9291C39.213 34.9377 39.174 34.9341 39.1388 34.9187C39.1036 34.9034 39.0742 34.8772 39.0549 34.8439L38.6007 34.0644C38.5895 34.0455 38.5714 34.0317 38.5502 34.026C38.5289 34.0203 38.5063 34.0231 38.4872 34.0339L37.0537 34.856C37.0432 34.862 37.0341 34.87 37.0268 34.8795C37.0194 34.8891 37.014 34.8999 37.0109 34.9115C37.0077 34.923 37.0069 34.9351 37.0084 34.9469C37.01 34.9587 37.0138 34.9701 37.0198 34.9804L37.5046 35.8123C37.5147 35.83 37.5189 35.8503 37.5166 35.8704C37.5142 35.8905 37.5054 35.9092 37.4915 35.9237C36.9732 36.4652 36.6079 37.0955 36.3953 37.8146C36.3906 37.8313 36.3806 37.8459 36.3668 37.8563C36.353 37.8668 36.3362 37.8724 36.3189 37.8725Z" fill="#FB7A00"/>
<path d="M42.5988 38.7891C42.5988 39.0936 42.5388 39.3952 42.4222 39.6765C42.3057 39.9579 42.1349 40.2135 41.9196 40.4288C41.7042 40.6442 41.4486 40.815 41.1673 40.9315C40.8859 41.048 40.5844 41.108 40.2799 41.108C39.6648 41.108 39.075 40.8637 38.6401 40.4288C38.2053 39.9939 37.9609 39.4041 37.9609 38.7891C37.9609 38.1741 38.2053 37.5843 38.6401 37.1494C39.075 36.7145 39.6648 36.4702 40.2799 36.4702C40.5844 36.4702 40.8859 36.5302 41.1673 36.6467C41.4486 36.7633 41.7042 36.9341 41.9196 37.1494C42.1349 37.3647 42.3057 37.6204 42.4222 37.9017C42.5388 38.1831 42.5988 38.4846 42.5988 38.7891ZM41.3421 38.7891C41.3421 38.508 41.2305 38.2383 41.0316 38.0395C40.8328 37.8407 40.5632 37.729 40.282 37.729C40.0009 37.729 39.7312 37.8407 39.5324 38.0395C39.3336 38.2383 39.2219 38.508 39.2219 38.7891C39.2219 39.0703 39.3336 39.3399 39.5324 39.5387C39.7312 39.7375 40.0009 39.8492 40.282 39.8492C40.5632 39.8492 40.8328 39.7375 41.0316 39.5387C41.2305 39.3399 41.3421 39.0703 41.3421 38.7891Z" fill="#FB7A00"/>
<path d="M27.125 24.0588H31.5084V25.9341H27.125C26.4394 25.9341 25.875 26.498 25.875 27.1837V56.8709C25.875 57.5567 26.4392 58.1209 27.125 58.1209H52.4545C53.1403 58.1209 53.7044 57.5567 53.7044 56.8709V27.1837C53.7044 26.498 53.1403 25.9341 52.4545 25.9341H48.0709V24.0588H52.4545C54.1748 24.0588 55.5795 25.4634 55.5795 27.1837V56.8709C55.5795 58.5917 54.1753 59.9959 52.4545 59.9959H27.125C25.4042 59.9959 24 58.5917 24 56.8709V27.1837C24 25.4634 25.4047 24.0588 27.125 24.0588ZM32.7584 23.2812H36.5084C36.5084 21.4694 37.9778 20 39.7897 20C41.6019 20 43.0709 21.4694 43.0709 23.2812H46.8209V27.9688H32.7584V23.2812ZM38.3836 23.2812H41.1959C41.1959 22.5042 40.5667 21.875 39.7897 21.875C39.0128 21.875 38.3836 22.5042 38.3836 23.2812Z" fill="#0D3642"/>
<path fill-rule="evenodd" clip-rule="evenodd" d="M30.7898 48.1211H49.5395V49.3711H30.7898V48.1211ZM30.7898 51.403H49.5395V52.653H30.7898V51.403Z" fill="#FB7A00"/>
</svg>
