<svg width="60" height="82" viewBox="0 0 60 82" fill="none" xmlns="http://www.w3.org/2000/svg">
<path d="M36.2253 21.374H11.3793V12.6H49.3453V20.144L33.3553 36.544C35.5419 36.8173 37.6466 37.3367 39.6693 38.102C41.7466 38.8127 43.5506 39.824 45.0813 41.136C46.6666 42.3933 47.9239 43.9787 48.8533 45.892C49.7826 47.8053 50.2473 50.1013 50.2473 52.78C50.2473 55.4587 49.7553 57.9187 48.7713 60.16C47.7873 62.3467 46.4206 64.26 44.6713 65.9C42.9219 67.4853 40.7899 68.7427 38.2753 69.672C35.8153 70.5467 33.1093 70.984 30.1573 70.984C25.1279 70.984 20.8093 70.0547 17.2013 68.196C13.6479 66.2827 10.6413 63.85 8.18127 60.898L15.2333 54.338C17.3106 56.798 19.5246 58.684 21.8753 59.996C24.2806 61.2533 27.0959 61.882 30.3213 61.882C33.1639 61.882 35.5146 61.0893 37.3733 59.504C39.2866 57.9187 40.2433 55.7867 40.2433 53.108C40.2433 50.2107 39.0679 47.9967 36.7173 46.466C34.3666 44.9353 31.1413 44.17 27.0413 44.17H22.3673L20.7273 37.856L36.2253 21.374Z" fill="#FB7A00"/>
</svg>
