<svg width="80" height="81" viewBox="0 0 80 81" fill="none" xmlns="http://www.w3.org/2000/svg">
<g clip-path="url(#clip0_1413_8465)">
<rect width="80" height="80" transform="translate(0 0.560547)" fill="#CFDADD"/>
<path d="M38.84 59.672C37.128 59.672 35.536 59.36 34.064 58.736C32.592 58.096 31.32 57.2 30.248 56.048C29.192 54.88 28.416 53.496 27.92 51.896L32.024 50.72C32.552 52.32 33.432 53.536 34.664 54.368C35.896 55.2 37.28 55.608 38.816 55.592C40.224 55.56 41.44 55.24 42.464 54.632C43.504 54.008 44.304 53.16 44.864 52.088C45.44 51.016 45.728 49.776 45.728 48.368C45.728 46.224 45.088 44.488 43.808 43.16C42.528 41.816 40.848 41.144 38.768 41.144C38.192 41.144 37.584 41.224 36.944 41.384C36.32 41.544 35.736 41.768 35.192 42.056L33.128 38.672L45.944 27.08L46.496 28.52H29.288V24.44H49.664V28.544L38.744 39.008L38.696 37.496C40.984 37.336 42.984 37.712 44.696 38.624C46.408 39.536 47.736 40.84 48.68 42.536C49.64 44.232 50.12 46.176 50.12 48.368C50.12 50.576 49.624 52.528 48.632 54.224C47.64 55.92 46.296 57.256 44.6 58.232C42.904 59.192 40.984 59.672 38.84 59.672Z" fill="#0D3642"/>
</g>
<defs>
<clipPath id="clip0_1413_8465">
<rect width="80" height="80" fill="white" transform="translate(0 0.560547)"/>
</clipPath>
</defs>
</svg>
