<svg width="25" height="25" viewBox="0 0 25 25" fill="none" xmlns="http://www.w3.org/2000/svg">
<g id="Frame" clip-path="url(#clip0_1332_5162)">
<path id="Vector" d="M3.35986 12.5C3.35986 13.6819 3.59266 14.8522 4.04495 15.9442C4.49724 17.0361 5.16017 18.0282 5.9959 18.864C6.83163 19.6997 7.82378 20.3626 8.91571 20.8149C10.0076 21.2672 11.178 21.5 12.3599 21.5C13.5418 21.5 14.7121 21.2672 15.804 20.8149C16.8959 20.3626 17.8881 19.6997 18.7238 18.864C19.5596 18.0282 20.2225 17.0361 20.6748 15.9442C21.1271 14.8522 21.3599 13.6819 21.3599 12.5C21.3599 11.3181 21.1271 10.1478 20.6748 9.05585C20.2225 7.96392 19.5596 6.97177 18.7238 6.13604C17.8881 5.30031 16.8959 4.63738 15.804 4.18508C14.7121 3.73279 13.5418 3.5 12.3599 3.5C11.178 3.5 10.0076 3.73279 8.91571 4.18508C7.82378 4.63738 6.83163 5.30031 5.9959 6.13604C5.16017 6.97177 4.49724 7.96392 4.04495 9.05585C3.59266 10.1478 3.35986 11.3181 3.35986 12.5Z" stroke="#FB7A00" stroke-width="1.5" stroke-linecap="round" stroke-linejoin="round"/>
<path id="Vector_2" d="M9.35986 12.5L11.3599 14.5L15.3599 10.5" stroke="#FB7A00" stroke-width="1.5" stroke-linecap="round" stroke-linejoin="round"/>
</g>
<defs>
<clipPath id="clip0_1332_5162">
<rect width="24" height="24" fill="white" transform="translate(0.359863 0.5)"/>
</clipPath>
</defs>
</svg>
