<svg width="47" height="71" viewBox="0 0 47 71" fill="none" xmlns="http://www.w3.org/2000/svg">
<g id="figma-5 1" clip-path="url(#clip0_1126_1300)">
<path id="Vector" d="M23.478 35.6429C23.478 29.2177 28.6869 23.9824 35.1385 23.9824C41.5636 23.9824 46.7989 29.1913 46.7989 35.6429C46.7989 42.068 41.59 47.3033 35.1385 47.3033C28.7133 47.3033 23.478 42.068 23.478 35.6429Z" fill="#1ABCFE"/>
<path id="Vector_2" d="M0.183594 58.9373C0.183594 52.5122 5.39245 47.2769 11.844 47.2769H23.5045V58.9373C23.5045 65.3624 18.2956 70.5977 11.844 70.5977C5.39245 70.5977 0.183594 65.3889 0.183594 58.9373Z" fill="#0ACF83"/>
<path id="Vector_3" d="M23.478 0.688062V23.9825H35.1385C41.5636 23.9825 46.7989 18.7736 46.7989 12.3221C46.7989 5.89692 41.59 0.661621 35.1385 0.661621H23.478V0.688062Z" fill="#FF7262"/>
<path id="Vector_4" d="M0.183594 12.3484C0.183594 18.7736 5.39245 24.0089 11.844 24.0089H23.5045V0.687988H11.844C5.39245 0.687988 0.183594 5.89685 0.183594 12.3484Z" fill="#F24E1E"/>
<path id="Vector_5" d="M0.183594 35.6429C0.183594 42.068 5.39245 47.3033 11.844 47.3033H23.5045V23.9824H11.844C5.39245 23.9824 0.183594 29.2177 0.183594 35.6429Z" fill="#A259FF"/>
</g>
<defs>
<clipPath id="clip0_1126_1300">
<rect width="46.6328" height="70" fill="white" transform="translate(0.183594 0.629639)"/>
</clipPath>
</defs>
</svg>
