<svg width="32" height="30" viewBox="0 0 32 30" fill="none" xmlns="http://www.w3.org/2000/svg">
<g opacity="0.6">
<g filter="url(#filter0_b_1337_1005)">
<path d="M29.5 15C29.5 23.0118 23.0566 29.5 15.1165 29.5C7.17632 29.5 0.73291 23.0118 0.73291 15C0.73291 6.98819 7.17632 0.5 15.1165 0.5C23.0566 0.5 29.5 6.98819 29.5 15Z" stroke="white"/>
</g>
<path d="M21.4342 11.0516C20.9643 11.2593 20.4635 11.397 19.9415 11.4639C20.4785 11.1407 20.8884 10.6329 21.0812 10.0208C20.5804 10.3217 20.0276 10.5342 19.4384 10.6528C18.9629 10.1426 18.2853 9.82655 17.546 9.82655C16.1117 9.82655 14.957 10.9998 14.957 12.4382C14.957 12.6451 14.9744 12.8441 15.0171 13.0336C12.8633 12.9277 10.9575 11.8873 9.6772 10.3025C9.45369 10.6934 9.32258 11.1407 9.32258 11.6223C9.32258 12.5265 9.78462 13.3281 10.4733 13.7921C10.0571 13.7842 9.64877 13.6624 9.30284 13.4706C9.30284 13.4785 9.30284 13.4889 9.30284 13.4992C9.30284 14.768 10.2008 15.8219 11.3784 16.0647C11.1676 16.1228 10.9377 16.1506 10.6992 16.1506C10.5333 16.1506 10.3659 16.1411 10.2087 16.106C10.5444 17.14 11.4969 17.9002 12.6295 17.9249C11.7481 18.6198 10.6289 19.0384 9.41736 19.0384C9.2049 19.0384 9.00113 19.0289 8.79736 19.0026C9.94495 19.7485 11.305 20.1743 12.7716 20.1743C17.5389 20.1743 20.1452 16.1944 20.1452 12.7446C20.1452 12.6292 20.1413 12.5178 20.1358 12.4071C20.6499 12.0394 21.0819 11.5801 21.4342 11.0516Z" fill="white"/>
</g>
<defs>
<filter id="filter0_b_1337_1005" x="-9.76709" y="-10" width="49.7671" height="50" filterUnits="userSpaceOnUse" color-interpolation-filters="sRGB">
<feFlood flood-opacity="0" result="BackgroundImageFix"/>
<feGaussianBlur in="BackgroundImageFix" stdDeviation="5"/>
<feComposite in2="SourceAlpha" operator="in" result="effect1_backgroundBlur_1337_1005"/>
<feBlend mode="normal" in="SourceGraphic" in2="effect1_backgroundBlur_1337_1005" result="shape"/>
</filter>
</defs>
</svg>
