<svg width="80" height="81" viewBox="0 0 80 81" fill="none" xmlns="http://www.w3.org/2000/svg">
<g clip-path="url(#clip0_1413_8458)">
<rect width="80" height="80" transform="translate(0 0.560547)" fill="#CFDADD"/>
<path d="M28.525 58.976L28.549 55.136L43.885 41.336C45.165 40.184 46.021 39.096 46.453 38.072C46.901 37.032 47.125 35.968 47.125 34.88C47.125 33.552 46.821 32.352 46.213 31.28C45.605 30.208 44.773 29.36 43.717 28.736C42.677 28.112 41.493 27.8 40.165 27.8C38.789 27.8 37.565 28.128 36.493 28.784C35.421 29.424 34.573 30.28 33.949 31.352C33.341 32.424 33.045 33.592 33.061 34.856H28.693C28.693 32.68 29.197 30.76 30.205 29.096C31.213 27.416 32.581 26.104 34.309 25.16C36.053 24.2 38.029 23.72 40.237 23.72C42.381 23.72 44.301 24.216 45.997 25.208C47.693 26.184 49.029 27.52 50.005 29.216C50.997 30.896 51.493 32.8 51.493 34.928C51.493 36.432 51.301 37.736 50.917 38.84C50.549 39.944 49.973 40.968 49.189 41.912C48.405 42.84 47.421 43.832 46.237 44.888L33.493 56.336L32.941 54.896H51.493V58.976H28.525Z" fill="#0D3642"/>
</g>
<defs>
<clipPath id="clip0_1413_8458">
<rect width="80" height="80" fill="white" transform="translate(0 0.560547)"/>
</clipPath>
</defs>
</svg>
