<svg width="80" height="80" viewBox="0 0 80 80" fill="none" xmlns="http://www.w3.org/2000/svg">
<rect width="80" height="80" fill="#E7E7E7"/>
<path fill-rule="evenodd" clip-rule="evenodd" d="M25.3607 58.1244C23.9599 58.1244 22.8179 56.982 22.8179 55.5814V22.543C22.8177 21.1422 23.9599 20 25.3607 20C33.7691 20 42.1779 20 50.5863 20C51.9871 20 53.1293 21.1422 53.1293 22.543V46.3077L53.0563 46.2978C52.5191 46.2258 51.9399 46.1689 51.3635 46.1522C51.3276 46.003 51.2899 45.8541 51.2512 45.7055V24.3973C51.2476 24.1273 51.0221 23.9044 50.7519 23.9044C42.233 23.9044 33.7138 23.9044 25.1949 23.9044C24.9247 23.9044 24.6993 24.1275 24.6955 24.3973V53.253C24.6955 53.5256 24.9226 53.7523 25.1949 53.7523H43.1241C43.6921 54.3167 44.1349 54.9283 44.5354 55.6586C44.988 56.4834 45.344 57.3444 45.8783 58.1244H25.3607ZM38.0615 55.1813C37.6221 55.1813 37.2658 55.5377 37.2658 55.977C37.2658 56.4166 37.6221 56.7728 38.0615 56.7728C38.501 56.7728 38.8572 56.4166 38.8572 55.977C38.8572 55.5377 38.5008 55.1813 38.0615 55.1813Z" fill="#0D3642"/>
<path fill-rule="evenodd" clip-rule="evenodd" d="M28.667 39.3892H47.4167V40.6392H28.667V39.3892ZM28.667 42.671H45.3337V43.921H28.667V42.671Z" fill="#FB7A00"/>
<path fill-rule="evenodd" clip-rule="evenodd" d="M28.667 32.6665H47.4167V33.9165H28.667V32.6665ZM28.667 35.9484H47.4167V37.1984H28.667V35.9484Z" fill="#FB7A00"/>
<path fill-rule="evenodd" clip-rule="evenodd" d="M45.8908 43.0199C45.4588 41.2653 48.1455 40.5613 48.6304 42.302C49.1138 44.0378 49.8175 46.0294 50.0993 47.765C52.0611 47.5031 56.1029 48.2663 56.3913 49.0581C57.405 51.8395 57.3519 55.4814 56.753 57.7428C56.8072 58.6633 56.8621 59.1703 56.9004 60H48.5768C48.5091 59.328 48.4639 58.7841 48.4205 58.4739C46.2416 57.0734 46.5949 54.647 43.6988 52.1575C43.1052 51.6895 43.0008 50.8255 43.4658 50.228C43.931 49.6303 44.7896 49.5253 45.3832 49.9933C46.2869 50.7061 46.9527 51.382 47.5208 52.0869C47.4605 51.5034 47.3921 50.9217 47.3149 50.3402C47.0207 48.128 46.4482 45.2842 45.8908 43.0199Z" fill="#0D3642"/>
</svg>
