<svg width="80" height="80" viewBox="0 0 80 80" fill="none" xmlns="http://www.w3.org/2000/svg">
<rect width="80" height="80" fill="#E7E7E7"/>
<path fill-rule="evenodd" clip-rule="evenodd" d="M25.3604 58.1244C23.9597 58.1244 22.8176 56.982 22.8176 55.5814V22.543C22.8175 21.1422 23.9597 20 25.3604 20C33.7689 20 42.1776 20 50.5861 20C51.9868 20 53.129 21.1422 53.129 22.543V46.3077L53.0561 46.2978C52.5189 46.2258 51.9397 46.1689 51.3633 46.1522C51.3273 46.003 51.2897 45.8541 51.2509 45.7055V24.3973C51.2473 24.1273 51.0218 23.9044 50.7517 23.9044C42.2328 23.9044 33.7136 23.9044 25.1947 23.9044C24.9245 23.9044 24.699 24.1275 24.6953 24.3973V53.253C24.6953 53.5256 24.9223 53.7523 25.1947 53.7523H43.1239C43.6918 54.3167 44.1347 54.9283 44.5351 55.6586C44.9878 56.4834 45.3437 57.3444 45.8781 58.1244H25.3604ZM38.0612 55.1813C37.6218 55.1813 37.2656 55.5377 37.2656 55.977C37.2656 56.4166 37.6218 56.7728 38.0612 56.7728C38.5008 56.7728 38.857 56.4166 38.857 55.977C38.857 55.5377 38.5006 55.1813 38.0612 55.1813Z" fill="#0D3642"/>
<path fill-rule="evenodd" clip-rule="evenodd" d="M28.6665 39.3892H47.4162V40.6392H28.6665V39.3892ZM28.6665 42.671H45.3332V43.921H28.6665V42.671Z" fill="#FB7A00"/>
<path fill-rule="evenodd" clip-rule="evenodd" d="M28.6665 32.6665H47.4162V33.9165H28.6665V32.6665ZM28.6665 35.9484H47.4162V37.1984H28.6665V35.9484Z" fill="#FB7A00"/>
<path fill-rule="evenodd" clip-rule="evenodd" d="M45.8906 43.0199C45.4585 41.2653 48.1453 40.5613 48.6301 42.302C49.1135 44.0378 49.8173 46.0294 50.099 47.765C52.0609 47.5031 56.1026 48.2663 56.391 49.0581C57.4048 51.8395 57.3517 55.4814 56.7528 57.7428C56.807 58.6633 56.8618 59.1703 56.9001 60H48.5765C48.5089 59.328 48.4637 58.7841 48.4203 58.4739C46.2414 57.0734 46.5946 54.647 43.6985 52.1575C43.105 51.6895 43.0006 50.8255 43.4656 50.228C43.9307 49.6303 44.7893 49.5253 45.3829 49.9933C46.2867 50.7061 46.9525 51.382 47.5206 52.0869C47.4603 51.5034 47.3918 50.9217 47.3146 50.3402C47.0204 48.128 46.4479 45.2842 45.8906 43.0199Z" fill="#0D3642"/>
</svg>
