<svg width="99" height="96" viewBox="0 0 99 96" fill="none" xmlns="http://www.w3.org/2000/svg">
<g id="Vector">
<path d="M69.8674 3.96214C70.957 3.96214 71.8403 3.07519 71.8403 1.98107C71.8403 0.886956 70.957 0 69.8674 0C68.7779 0 67.8946 0.886956 67.8946 1.98107C67.8946 3.07519 68.7779 3.96214 69.8674 3.96214Z" fill="#FB7A00"/>
<path d="M83.4447 0.00139998C82.4002 0.00139998 81.4718 0.933669 81.4718 1.98247C81.4718 3.03127 82.4002 3.96354 83.4447 3.96354C84.4891 3.96354 85.4175 3.03127 85.4175 1.98247C85.4175 0.933669 84.6052 0.00139998 83.4447 0.00139998Z" fill="#FB7A00"/>
<path d="M97.0208 0.0015296C95.9763 0.0015296 95.0479 0.933799 95.0479 1.9826C95.0479 3.0314 95.9763 3.96367 97.0208 3.96367C98.0652 3.96367 98.9936 3.0314 98.9936 1.9826C98.9936 0.933799 98.1813 0.0015296 97.0208 0.0015296Z" fill="#FB7A00"/>
<path d="M69.8644 19.3468C70.954 19.3468 71.8373 18.4598 71.8373 17.3657C71.8373 16.2716 70.954 15.3847 69.8644 15.3847C68.7749 15.3847 67.8916 16.2716 67.8916 17.3657C67.8916 18.4598 68.7749 19.3468 69.8644 19.3468Z" fill="#FB7A00"/>
<path d="M69.8668 34.7275C70.9564 34.7275 71.8396 33.8405 71.8396 32.7464C71.8396 31.6523 70.9564 30.7653 69.8668 30.7653C68.7772 30.7653 67.894 31.6523 67.894 32.7464C67.894 33.8405 68.7772 34.7275 69.8668 34.7275Z" fill="#FB7A00"/>
<path d="M69.8676 50.2269C70.9572 50.2269 71.8404 49.34 71.8404 48.2459C71.8404 47.1517 70.9572 46.2648 69.8676 46.2648C68.778 46.2648 67.8948 47.1517 67.8948 48.2459C67.8948 49.34 68.778 50.2269 69.8676 50.2269Z" fill="#FB7A00"/>
<path d="M69.8642 65.6109C70.9538 65.6109 71.837 64.7239 71.837 63.6298C71.837 62.5357 70.9538 61.6487 69.8642 61.6487C68.7746 61.6487 67.8913 62.5357 67.8913 63.6298C67.8913 64.7239 68.7746 65.6109 69.8642 65.6109Z" fill="#FB7A00"/>
<path d="M69.867 77.0302C68.8225 77.0302 67.8941 77.9624 67.8941 79.0112C67.8941 80.06 68.8225 80.9923 69.867 80.9923C70.9114 80.9923 71.8398 80.06 71.8398 79.0112C71.8398 77.9624 71.0275 77.0302 69.867 77.0302Z" fill="#FB7A00"/>
<path d="M56.2852 3.96453C57.3748 3.96453 58.258 3.07757 58.258 1.98346C58.258 0.889341 57.3748 0.00238515 56.2852 0.00238515C55.1956 0.00238515 54.3123 0.889341 54.3123 1.98346C54.3123 3.07757 55.1956 3.96453 56.2852 3.96453Z" fill="#FB7A00"/>
<path d="M56.286 95.9994C57.3756 95.9994 58.2589 95.1124 58.2589 94.0183C58.2589 92.9242 57.3756 92.0372 56.286 92.0372C55.1964 92.0372 54.3132 92.9242 54.3132 94.0183C54.3132 95.1124 55.1964 95.9994 56.286 95.9994Z" fill="#FB7A00"/>
<path d="M56.2876 19.3461C57.3772 19.3461 58.2604 18.4592 58.2604 17.3651C58.2604 16.2709 57.3772 15.384 56.2876 15.384C55.198 15.384 54.3147 16.2709 54.3147 17.3651C54.3147 18.4592 55.198 19.3461 56.2876 19.3461Z" fill="#FB7A00"/>
<path d="M56.2901 34.727C57.3796 34.727 58.2629 33.84 58.2629 32.7459C58.2629 31.6518 57.3796 30.7649 56.2901 30.7649C55.2005 30.7649 54.3172 31.6518 54.3172 32.7459C54.3172 33.84 55.2005 34.727 56.2901 34.727Z" fill="#FB7A00"/>
<path d="M56.2849 50.2286C57.3745 50.2286 58.2578 49.3416 58.2578 48.2475C58.2578 47.1534 57.3745 46.2664 56.2849 46.2664C55.1954 46.2664 54.3121 47.1534 54.3121 48.2475C54.3121 49.3416 55.1954 50.2286 56.2849 50.2286Z" fill="#FB7A00"/>
<path d="M56.2873 65.6102C57.3769 65.6102 58.2602 64.7233 58.2602 63.6291C58.2602 62.535 57.3769 61.6481 56.2873 61.6481C55.1978 61.6481 54.3145 62.535 54.3145 63.6291C54.3145 64.7233 55.1978 65.6102 56.2873 65.6102Z" fill="#FB7A00"/>
<path d="M56.2897 77.0289C55.2453 77.0289 54.3169 77.9611 54.3169 79.0099C54.3169 80.0587 55.2453 80.991 56.2897 80.991C57.3342 80.991 58.2626 80.0587 58.2626 79.0099C58.2626 77.9611 57.4502 77.0289 56.2897 77.0289Z" fill="#FB7A00"/>
<path d="M42.7087 3.96365C43.7983 3.96365 44.6815 3.07669 44.6815 1.98258C44.6815 0.88846 43.7983 0.00150368 42.7087 0.00150368C41.6191 0.00150368 40.7358 0.88846 40.7358 1.98258C40.7358 3.07669 41.6191 3.96365 42.7087 3.96365Z" fill="#FB7A00"/>
<path d="M42.7095 95.9985C43.7991 95.9985 44.6824 95.1115 44.6824 94.0174C44.6824 92.9233 43.7991 92.0364 42.7095 92.0364C41.6199 92.0364 40.7367 92.9233 40.7367 94.0174C40.7367 95.1115 41.6199 95.9985 42.7095 95.9985Z" fill="#FB7A00"/>
<path d="M42.7111 19.3453C43.8006 19.3453 44.6839 18.4583 44.6839 17.3642C44.6839 16.2701 43.8006 15.3832 42.7111 15.3832C41.6215 15.3832 40.7382 16.2701 40.7382 17.3642C40.7382 18.4583 41.6215 19.3453 42.7111 19.3453Z" fill="#FB7A00"/>
<path d="M42.7135 34.7261C43.8031 34.7261 44.6864 33.8392 44.6864 32.7451C44.6864 31.651 43.8031 30.764 42.7135 30.764C41.624 30.764 40.7407 31.651 40.7407 32.7451C40.7407 33.8392 41.624 34.7261 42.7135 34.7261Z" fill="#FB7A00"/>
<path d="M42.7084 50.2277C43.798 50.2277 44.6813 49.3408 44.6813 48.2467C44.6813 47.1525 43.798 46.2656 42.7084 46.2656C41.6189 46.2656 40.7356 47.1525 40.7356 48.2467C40.7356 49.3408 41.6189 50.2277 42.7084 50.2277Z" fill="#FB7A00"/>
<path d="M42.7109 65.6094C43.8004 65.6094 44.6837 64.7224 44.6837 63.6283C44.6837 62.5342 43.8004 61.6472 42.7109 61.6472C41.6213 61.6472 40.738 62.5342 40.738 63.6283C40.738 64.7224 41.6213 65.6094 42.7109 65.6094Z" fill="#FB7A00"/>
<path d="M42.7132 77.028C41.6688 77.028 40.7404 77.9603 40.7404 79.0091C40.7404 80.0579 41.6688 80.9901 42.7132 80.9901C43.7577 80.9901 44.6861 80.0579 44.6861 79.0091C44.6861 77.9603 43.8737 77.028 42.7132 77.028Z" fill="#FB7A00"/>
<path d="M29.1326 3.96349C30.2222 3.96349 31.1055 3.07654 31.1055 1.98242C31.1055 0.888304 30.2222 0.00134813 29.1326 0.00134813C28.043 0.00134813 27.1598 0.888304 27.1598 1.98242C27.1598 3.07654 28.043 3.96349 29.1326 3.96349Z" fill="#FB7A00"/>
<path d="M29.1334 95.9983C30.223 95.9983 31.1063 95.1114 31.1063 94.0173C31.1063 92.9231 30.223 92.0362 29.1334 92.0362C28.0439 92.0362 27.1606 92.9231 27.1606 94.0173C27.1606 95.1114 28.0439 95.9983 29.1334 95.9983Z" fill="#FB7A00"/>
<path d="M29.135 19.3451C30.2246 19.3451 31.1078 18.4582 31.1078 17.3641C31.1078 16.27 30.2246 15.383 29.135 15.383C28.0454 15.383 27.1621 16.27 27.1621 17.3641C27.1621 18.4582 28.0454 19.3451 29.135 19.3451Z" fill="#FB7A00"/>
<path d="M29.1375 34.726C30.227 34.726 31.1103 33.839 31.1103 32.7449C31.1103 31.6508 30.227 30.7638 29.1375 30.7638C28.0479 30.7638 27.1646 31.6508 27.1646 32.7449C27.1646 33.839 28.0479 34.726 29.1375 34.726Z" fill="#FB7A00"/>
<path d="M29.1323 50.2276C30.2219 50.2276 31.1052 49.3406 31.1052 48.2465C31.1052 47.1524 30.2219 46.2654 29.1323 46.2654C28.0428 46.2654 27.1595 47.1524 27.1595 48.2465C27.1595 49.3406 28.0428 50.2276 29.1323 50.2276Z" fill="#FB7A00"/>
<path d="M29.1348 65.6092C30.2244 65.6092 31.1076 64.7222 31.1076 63.6281C31.1076 62.534 30.2244 61.6471 29.1348 61.6471C28.0452 61.6471 27.1619 62.534 27.1619 63.6281C27.1619 64.7222 28.0452 65.6092 29.1348 65.6092Z" fill="#FB7A00"/>
<path d="M29.1372 77.0278C28.0927 77.0278 27.1643 77.9601 27.1643 79.0089C27.1643 80.0577 28.0927 80.99 29.1372 80.99C30.1816 80.99 31.11 80.0577 31.11 79.0089C31.11 77.9601 30.2977 77.0278 29.1372 77.0278Z" fill="#FB7A00"/>
<path d="M15.55 3.96515C16.6395 3.96515 17.5228 3.07819 17.5228 1.98408C17.5228 0.889963 16.6395 0.00300736 15.55 0.00300736C14.4604 0.00300736 13.5771 0.889963 13.5771 1.98408C13.5771 3.07819 14.4604 3.96515 15.55 3.96515Z" fill="#FB7A00"/>
<path d="M15.5508 96C16.6404 96 17.5236 95.113 17.5236 94.0189C17.5236 92.9248 16.6404 92.0379 15.5508 92.0379C14.4612 92.0379 13.5779 92.9248 13.5779 94.0189C13.5779 95.113 14.4612 96 15.5508 96Z" fill="#FB7A00"/>
<path d="M15.5523 19.3468C16.6419 19.3468 17.5252 18.4598 17.5252 17.3657C17.5252 16.2716 16.6419 15.3847 15.5523 15.3847C14.4628 15.3847 13.5795 16.2716 13.5795 17.3657C13.5795 18.4598 14.4628 19.3468 15.5523 19.3468Z" fill="#FB7A00"/>
<path d="M15.5548 34.7276C16.6444 34.7276 17.5277 33.8407 17.5277 32.7466C17.5277 31.6525 16.6444 30.7655 15.5548 30.7655C14.4652 30.7655 13.582 31.6525 13.582 32.7466C13.582 33.8407 14.4652 34.7276 15.5548 34.7276Z" fill="#FB7A00"/>
<path d="M15.5497 50.2292C16.6393 50.2292 17.5226 49.3423 17.5226 48.2482C17.5226 47.154 16.6393 46.2671 15.5497 46.2671C14.4601 46.2671 13.5769 47.154 13.5769 48.2482C13.5769 49.3423 14.4601 50.2292 15.5497 50.2292Z" fill="#FB7A00"/>
<path d="M15.5521 65.6109C16.6417 65.6109 17.525 64.7239 17.525 63.6298C17.525 62.5357 16.6417 61.6487 15.5521 61.6487C14.4626 61.6487 13.5793 62.5357 13.5793 63.6298C13.5793 64.7239 14.4626 65.6109 15.5521 65.6109Z" fill="#FB7A00"/>
<path d="M15.5545 77.0295C14.5101 77.0295 13.5817 77.9618 13.5817 79.0106C13.5817 80.0594 14.5101 80.9916 15.5545 80.9916C16.599 80.9916 17.5274 80.0594 17.5274 79.0106C17.5274 77.9618 16.715 77.0295 15.5545 77.0295Z" fill="#FB7A00"/>
<path d="M1.97311 3.96448C3.06268 3.96448 3.94595 3.07752 3.94595 1.9834C3.94595 0.889289 3.06268 0.00233329 1.97311 0.00233329C0.883532 0.00233329 0.000258424 0.889289 0.000258424 1.9834C0.000258424 3.07752 0.883532 3.96448 1.97311 3.96448Z" fill="#FB7A00"/>
<path d="M1.97393 95.9993C3.06351 95.9993 3.94678 95.1124 3.94678 94.0182C3.94678 92.9241 3.06351 92.0372 1.97393 92.0372C0.884359 92.0372 0.00108538 92.9241 0.00108538 94.0182C0.00108538 95.1124 0.884359 95.9993 1.97393 95.9993Z" fill="#FB7A00"/>
<path d="M1.97548 19.3461C3.06506 19.3461 3.94833 18.4592 3.94833 17.3651C3.94833 16.2709 3.06506 15.384 1.97548 15.384C0.88591 15.384 0.00263592 16.2709 0.00263592 17.3651C0.00263592 18.4592 0.88591 19.3461 1.97548 19.3461Z" fill="#FB7A00"/>
<path d="M1.97796 34.727C3.06754 34.727 3.95081 33.84 3.95081 32.7459C3.95081 31.6518 3.06754 30.7648 1.97796 30.7648C0.88839 30.7648 0.00511679 31.6518 0.00511679 32.7459C0.00511679 33.84 0.88839 34.727 1.97796 34.727Z" fill="#FB7A00"/>
<path d="M1.97285 50.2286C3.06242 50.2286 3.94569 49.3416 3.94569 48.2475C3.94569 47.1534 3.06242 46.2664 1.97285 46.2664C0.883274 46.2664 0 47.1534 0 48.2475C0 49.3416 0.883274 50.2286 1.97285 50.2286Z" fill="#FB7A00"/>
<path d="M1.97528 65.6102C3.06485 65.6102 3.94812 64.7232 3.94812 63.6291C3.94812 62.535 3.06485 61.648 1.97528 61.648C0.885703 61.648 0.00242918 62.535 0.00242918 63.6291C0.00242918 64.7232 0.885703 65.6102 1.97528 65.6102Z" fill="#FB7A00"/>
<path d="M1.97765 77.0288C0.933205 77.0288 0.00480668 77.9611 0.00480668 79.0099C0.00480668 80.0587 0.933205 80.991 1.97765 80.991C3.0221 80.991 3.9505 80.0587 3.9505 79.0099C3.9505 77.9611 3.13815 77.0288 1.97765 77.0288Z" fill="#FB7A00"/>
<path d="M83.4409 15.3855C82.3965 15.3855 81.4681 16.3178 81.4681 17.3666C81.4681 18.4154 82.3965 19.3477 83.4409 19.3477C84.4854 19.3477 85.4138 18.4154 85.4138 17.3666C85.4138 16.3178 84.6014 15.3855 83.4409 15.3855Z" fill="#FB7A00"/>
<path d="M83.4437 30.7669C82.3992 30.7669 81.4708 31.6992 81.4708 32.748C81.4708 33.7968 82.3992 34.7291 83.4437 34.7291C84.4881 34.7291 85.4165 33.7968 85.4165 32.748C85.4165 31.6992 84.6042 30.7669 83.4437 30.7669Z" fill="#FB7A00"/>
<path d="M83.4445 46.2655C82.4 46.2655 81.4716 47.1977 81.4716 48.2465C81.4716 49.2953 82.4 50.2276 83.4445 50.2276C84.4889 50.2276 85.4173 49.2953 85.4173 48.2465C85.4173 47.0812 84.605 46.2655 83.4445 46.2655Z" fill="#FB7A00"/>
<path d="M83.4435 77.031C82.399 77.031 81.4706 77.9633 81.4706 79.0121C81.4706 80.0609 82.399 80.9931 83.4435 80.9931C84.4879 80.9931 85.4163 80.0609 85.4163 79.0121C85.4163 77.9633 84.604 77.031 83.4435 77.031Z" fill="#FB7A00"/>
<path d="M83.4464 61.6463C82.402 61.6463 81.4736 62.5786 81.4736 63.6274C81.4736 64.6762 82.402 65.6085 83.4464 65.6085C84.4909 65.6085 85.4193 64.6762 85.4193 63.6274C85.4193 62.4621 84.6069 61.6463 83.4464 61.6463Z" fill="#FB7A00"/>
<path d="M97.0235 15.3829C95.9791 15.3829 95.0507 16.3152 95.0507 17.364C95.0507 18.4128 95.9791 19.3451 97.0235 19.3451C98.068 19.3451 98.9964 18.4128 98.9964 17.364C98.9964 16.3152 98.184 15.3829 97.0235 15.3829Z" fill="#FB7A00"/>
<path d="M97.0198 30.7671C95.9753 30.7671 95.0469 31.6994 95.0469 32.7482C95.0469 33.797 95.9753 34.7292 97.0198 34.7292C98.0642 34.7292 98.9926 33.797 98.9926 32.7482C98.9926 31.6994 98.1803 30.7671 97.0198 30.7671Z" fill="#FB7A00"/>
<path d="M97.0199 77.0319C95.9755 77.0319 95.0471 77.9641 95.0471 79.0129C95.0471 80.0617 95.9755 80.994 97.0199 80.994C98.0644 80.994 98.9928 80.0617 98.9928 79.0129C98.9928 77.9641 98.1804 77.0319 97.0199 77.0319Z" fill="#FB7A00"/>
<path d="M97.0205 46.2656C95.9761 46.2656 95.0477 47.1979 95.0477 48.2467C95.0477 49.2955 95.9761 50.2277 97.0205 50.2277C98.065 50.2277 98.9934 49.2955 98.9934 48.2467C98.9934 47.0813 98.181 46.2656 97.0205 46.2656Z" fill="#FB7A00"/>
<path d="M97.0233 61.647C95.9789 61.647 95.0505 62.5793 95.0505 63.6281C95.0505 64.6769 95.9789 65.6091 97.0233 65.6091C98.0677 65.6091 98.9961 64.6769 98.9961 63.6281C98.9961 62.4627 98.1838 61.647 97.0233 61.647Z" fill="#FB7A00"/>
<path d="M69.8684 95.9969C70.958 95.9969 71.8412 95.11 71.8412 94.0158C71.8412 92.9217 70.958 92.0348 69.8684 92.0348C68.7788 92.0348 67.8956 92.9217 67.8956 94.0158C67.8956 95.11 68.7788 95.9969 69.8684 95.9969Z" fill="#FB7A00"/>
<path d="M83.445 92.0357C82.4006 92.0357 81.4722 92.968 81.4722 94.0168C81.4722 95.0656 82.4006 95.9978 83.445 95.9978C84.4894 95.9978 85.4179 95.0656 85.4179 94.0168C85.4179 92.968 84.6055 92.0357 83.445 92.0357Z" fill="#FB7A00"/>
<path d="M97.0272 92.0333C95.9827 92.0333 95.0543 92.9655 95.0543 94.0143C95.0543 95.0631 95.9827 95.9954 97.0272 95.9954C98.0716 95.9954 99 95.0631 99 94.0143C99 92.9655 98.1877 92.0333 97.0272 92.0333Z" fill="#FB7A00"/>
</g>
</svg>
