<svg width="418" height="100" viewBox="0 0 418 100" fill="none" xmlns="http://www.w3.org/2000/svg">
<g clip-path="url(#clip0_1344_10444)">
<path d="M241.893 53.2154C241.893 43.3399 237.666 34.6144 223.369 34.6144C216.034 34.6144 210.207 36.7051 207.048 38.535L209.363 46.4579C212.272 44.6331 216.913 43.1303 221.294 43.1303C228.532 43.1201 229.717 47.2144 229.717 49.8469V50.4807C213.918 50.4552 203.93 55.9143 203.93 67.0319C203.93 73.8252 209 80.1942 217.864 80.1942C223.272 80.1942 227.841 78.0116 230.571 74.5664H230.837C230.837 74.5664 232.636 82.0957 242.588 79.2179C242.082 76.0641 241.893 72.7416 241.893 68.7034V53.2154ZM230.106 63.643C230.106 64.4404 230.04 65.2685 229.804 65.979C228.894 69.0203 225.756 71.5659 221.851 71.5659C218.554 71.5659 215.967 69.7002 215.967 65.7898C215.967 59.8093 222.571 58.1634 230.106 58.2043" fill="#0071CE"/>
<path d="M0 21.1777C0 21.1777 10.3202 63.3992 11.961 70.2385C13.8932 78.233 17.3537 81.1874 27.3417 79.2195L33.7925 53.0381C35.4231 46.5515 36.5322 41.9 37.5853 35.2908H37.7641C38.4951 41.9665 39.5482 46.5515 40.8822 53.0585C40.8822 53.0585 43.5146 64.9531 44.8795 71.1841C46.2084 77.4151 49.9501 81.3459 59.749 79.2195L75.1042 21.1777H62.7085L57.4386 46.2857C56.0431 53.5595 54.7754 59.2895 53.7889 65.955H53.61C52.7206 59.3611 51.5909 53.8662 50.1393 46.7407L44.6802 21.1777H31.7479L25.9207 46.0864C24.2593 53.6924 22.7055 59.7905 21.7291 66.2464H21.5605C20.5536 60.1892 19.1888 52.4758 17.7421 45.1561C17.7421 45.1561 14.2816 27.3218 13.06 21.1777" fill="#0071CE"/>
<path d="M109.648 53.2154C109.648 43.3399 105.41 34.6144 91.1128 34.6144C83.7983 34.6144 77.961 36.7051 74.8021 38.535L77.1175 46.4579C80.0158 44.6331 84.6521 43.1303 89.048 43.1303C96.2859 43.1201 97.4717 47.2144 97.4717 49.8469V50.4807C81.672 50.4552 71.6738 55.9143 71.6738 67.0319C71.6738 73.8252 76.765 80.1942 85.5874 80.1942C91.0464 80.1942 95.5755 78.0116 98.305 74.5664H98.5808C98.5808 74.5664 100.39 82.0957 110.332 79.2179C109.821 76.0641 109.648 72.7416 109.648 68.7034V53.2154ZM97.8502 63.643C97.8502 64.4404 97.7837 65.2685 97.5588 65.979C96.6384 69.0203 93.5001 71.5659 89.5847 71.5659C86.3081 71.5659 83.7115 69.7002 83.7115 65.7898C83.7115 59.8093 90.3154 58.1634 97.8502 58.2043" fill="#0071CE"/>
<path d="M116.08 21.1777V79.1991H127.877V66.8955V21.1777H116.08Z" fill="#0071CE"/>
<path d="M278.102 21.1777V63.987C278.102 69.896 279.211 74.0159 281.598 76.541C283.694 78.7543 287.123 80.1958 291.207 80.1958C294.714 80.1958 298.144 79.5211 299.764 78.9332L299.621 69.7171C298.41 69.9982 297.024 70.2385 295.123 70.2385C291.095 70.2385 289.766 67.6878 289.766 62.382V45.9944H300.04V34.9074H289.766V21.1777" fill="#0071CE"/>
<path d="M247.609 35.6215V79.218H259.806V56.8907C259.806 55.6894 259.882 54.6518 260.071 53.6908C260.981 48.9831 264.554 46.003 269.701 46.003C271.138 46.003 272.114 46.1615 273.198 46.3302V34.9007C272.288 34.7372 271.669 34.6503 270.55 34.6503C265.985 34.6503 260.812 37.5485 258.63 43.8613H258.328V35.6215" fill="#0071CE"/>
<path d="M134.729 35.6215V79.218H146.613V53.6295C146.613 52.4283 146.746 51.2015 147.17 50.0923C148.136 47.5007 150.533 44.5002 154.382 44.5002C159.167 44.5002 161.426 48.5384 161.426 54.3656V79.218H173.28V53.3228C173.28 52.1931 173.438 50.8079 173.77 49.806C174.721 46.8669 177.318 44.5002 180.906 44.5002C185.742 44.5002 188.083 48.4515 188.083 55.3214V79.218H199.926V53.5119C199.926 40.0072 193.056 34.6503 185.256 34.6503C181.826 34.6503 179.097 35.4937 176.643 37.0067C174.568 38.2795 172.748 40.0736 171.118 42.4198H170.939C169.063 37.7274 164.657 34.6503 158.901 34.6503C151.52 34.6503 148.167 38.3766 146.194 41.5253H146.015V35.6215" fill="#0071CE"/>
<path d="M363.868 33.6647C366.199 33.6647 368.161 32.4482 368.417 30.884L370.727 4.71286C370.727 2.1213 367.676 0 363.868 0C360.039 0 357.008 2.1213 357.008 4.71286L359.339 30.884C359.584 32.4482 361.537 33.6647 363.868 33.6647Z" fill="#FFC220"/>
<path d="M349.692 41.854C350.847 39.8093 350.781 37.5398 349.534 36.5277L327.963 21.4435C325.719 20.135 322.361 21.694 320.439 24.9961C318.522 28.293 318.91 31.9938 321.108 33.2768L344.989 44.3484C346.518 44.9209 348.516 43.8577 349.692 41.8335" fill="#FFC220"/>
<path d="M378.04 41.8325C379.262 43.8567 381.26 44.9199 382.748 44.378L406.629 33.2757C408.848 31.9672 409.18 28.3022 407.304 25.0052C405.387 21.7032 402.008 20.1544 399.77 21.4374L378.194 36.5062C376.997 37.5337 376.911 39.8134 378.066 41.8529" fill="#FFC220"/>
<path d="M363.868 66.3557C366.199 66.3557 368.161 67.5723 368.417 69.1364L370.727 95.3076C370.727 97.8992 367.676 100 363.868 100C360.039 100 357.008 97.8992 357.008 95.3076L359.339 69.1364C359.584 67.5723 361.537 66.3557 363.868 66.3557Z" fill="#FFC220"/>
<path d="M378.04 58.1895C379.262 56.1602 381.26 55.0765 382.748 55.6644L406.629 66.7462C408.848 68.0292 409.18 71.7249 407.304 75.027C405.387 78.3035 402.008 79.8625 399.77 78.5795L378.194 63.4902C376.997 62.473 376.911 60.2034 378.066 58.1895" fill="#FFC220"/>
<path d="M349.692 58.167C350.847 60.2065 350.781 62.4709 349.534 63.4932L327.963 78.557C325.719 79.8655 322.361 78.3014 320.439 75.0249C318.522 71.7279 318.91 68.0272 321.108 66.7442L344.989 55.6623C346.518 55.0796 348.516 56.153 349.692 58.167Z" fill="#FFC220"/>
<path d="M413.619 76.2828H413.916C414.319 76.2828 414.483 76.4106 414.529 76.7327C414.616 77.0905 414.662 77.3307 414.749 77.4329H415.515C415.449 77.3563 415.362 77.162 415.316 76.7122C415.229 76.3237 415.03 76.1039 414.749 76.0273V75.9557C415.137 75.8688 415.362 75.6081 415.362 75.2861C415.362 74.9947 415.229 74.7852 415.096 74.6523C414.841 74.5296 414.595 74.4325 414.053 74.4325C413.573 74.4325 413.22 74.4733 412.939 74.5398V77.4329H413.619V76.2828ZM413.639 74.9641L413.987 74.9181C414.396 74.9181 414.616 75.1072 414.616 75.373C414.616 75.6695 414.319 75.8075 413.941 75.8075H413.639V74.9641ZM414.074 73.0012C412.397 73.0012 411.068 74.3098 411.068 75.9148C411.068 77.5607 412.397 78.8693 414.074 78.8693C415.771 78.8693 417.059 77.5607 417.059 75.9148C417.059 74.3098 415.771 73.0012 414.074 73.0012ZM414.074 73.589C415.362 73.589 416.318 74.6318 416.318 75.9148C416.318 77.208 415.362 78.2815 414.074 78.261C412.786 78.261 411.809 77.208 411.809 75.9148C411.809 74.6318 412.786 73.589 414.053 73.589" fill="#FFC220"/>
</g>
<defs>
<clipPath id="clip0_1344_10444">
<rect width="417.059" height="100" fill="white"/>
</clipPath>
</defs>
</svg>
