<svg width="131" height="37" viewBox="0 0 131 37" fill="none" xmlns="http://www.w3.org/2000/svg">
<g id="Group">
<path id="Vector" d="M38.0829 9.20948V11.0852C37.0389 9.69578 35.0205 8.72319 32.7236 8.72319C27.2252 8.72319 23.1883 13.5167 23.1883 19.2132C23.1883 25.0488 27.2252 29.7033 32.7236 29.7033C35.0205 29.7033 37.0389 28.8002 38.0829 27.3413V29.217H44.9038V9.20948H38.0829ZM47.2702 0.386719V29.1475H54.2999V18.5185C54.2999 16.4344 55.2743 15.2534 56.8751 15.2534C58.4063 15.2534 59.3111 16.2955 59.3111 18.3101V29.1475H66.3408V16.6428C66.3408 11.7799 63.696 8.79266 59.4504 8.79266C57.1535 8.79266 55.4135 9.69578 54.1607 11.2241V0.386719H47.2702ZM111.721 19.2132C111.721 25.1877 107.127 29.7033 101.072 29.7033C95.0164 29.7033 90.4227 25.1877 90.4227 19.2132C90.4227 13.2388 94.9468 8.72319 101.072 8.72319C107.197 8.72319 111.721 13.2388 111.721 19.2132ZM89.2395 19.2132C89.2395 25.1877 84.6459 29.7033 78.5906 29.7033C72.5353 29.7033 67.9417 25.1877 67.9417 19.2132C67.9417 13.2388 72.3961 8.72319 78.521 8.72319C84.6459 8.72319 89.2395 13.2388 89.2395 19.2132ZM0.428833 9.20948L8.98974 29.2865L5.9273 36.5114H13.4442L24.7891 9.20948H17.2722L12.6786 20.8805L8.08493 9.20948H0.428833ZM34.1852 23.2425C31.8188 23.2425 30.0788 21.4363 30.0788 19.1438C30.0788 16.8512 31.8884 15.045 34.1852 15.045C36.4821 15.045 38.2917 16.8512 38.2917 19.1438C38.2917 21.5058 36.4821 23.2425 34.1852 23.2425ZM82.4882 19.2132C82.4882 16.9902 80.8178 15.184 78.521 15.184C76.2242 15.184 74.5537 16.9902 74.5537 19.2132C74.5537 21.4363 76.2242 23.2425 78.521 23.2425C80.8178 23.2425 82.4882 21.4363 82.4882 19.2132ZM105.039 19.2132C105.039 16.9902 103.368 15.184 101.072 15.184C98.7748 15.184 97.1044 16.9902 97.1044 19.2132C97.1044 21.4363 98.7748 23.2425 101.072 23.2425C103.368 23.2425 105.039 21.4363 105.039 19.2132ZM112.625 24.9098C112.625 27.4108 114.574 29.4949 117.219 29.4949C119.933 29.4949 121.952 27.3413 121.952 24.7709C121.952 22.2005 120.003 20.1858 117.358 20.1858C114.644 20.1858 112.625 22.3394 112.625 24.9098ZM122.648 0.386719L115.131 18.4491H123.483L131 0.386719H122.648Z" fill="#969696"/>
</g>
</svg>
